<svg width="20" height="20" viewBox="0 0 20 20" fill="none" xmlns="http://www.w3.org/2000/svg">
<path d="M9.16602 14.1666H10.8327V10.8333H14.166V9.16663H10.8327V5.83329H9.16602V9.16663H5.83268V10.8333H9.16602V14.1666ZM9.99935 18.3333C8.84657 18.3333 7.76324 18.118 6.74935 17.6875C5.73546 17.243 4.85352 16.6458 4.10352 15.8958C3.35352 15.1458 2.75629 14.2638 2.31185 13.25C1.88129 12.2361 1.66602 11.1527 1.66602 9.99996C1.66602 8.84718 1.88129 7.76385 2.31185 6.74996C2.75629 5.73607 3.35352 4.85413 4.10352 4.10413C4.85352 3.35413 5.73546 2.76385 6.74935 2.33329C7.76324 1.88885 8.84657 1.66663 9.99935 1.66663C11.1521 1.66663 12.2355 1.88885 13.2493 2.33329C14.2632 2.76385 15.1452 3.35413 15.8952 4.10413C16.6452 4.85413 17.2355 5.73607 17.666 6.74996C18.1105 7.76385 18.3327 8.84718 18.3327 9.99996C18.3327 11.1527 18.1105 12.2361 17.666 13.25C17.2355 14.2638 16.6452 15.1458 15.8952 15.8958C15.1452 16.6458 14.2632 17.243 13.2493 17.6875C12.2355 18.118 11.1521 18.3333 9.99935 18.3333ZM9.99935 16.6666C11.8605 16.6666 13.4369 16.0208 14.7285 14.7291C16.0202 13.4375 16.666 11.8611 16.666 9.99996C16.666 8.13885 16.0202 6.56246 14.7285 5.27079C13.4369 3.97913 11.8605 3.33329 9.99935 3.33329C8.13824 3.33329 6.56185 3.97913 5.27018 5.27079C3.97852 6.56246 3.33268 8.13885 3.33268 9.99996C3.33268 11.8611 3.97852 13.4375 5.27018 14.7291C6.56185 16.0208 8.13824 16.6666 9.99935 16.6666Z" fill="white"/>
</svg>
