<svg width="80" height="80" viewBox="0 0 80 80" fill="none" xmlns="http://www.w3.org/2000/svg">
<g opacity="0.8">
<path d="M37.9668 7.35676C40.181 7.13131 43.7491 6.74789 45.8221 7.47976C46.7436 7.80512 47.5516 8.34277 48.3043 8.95676C49.2845 9.75637 50.0466 10.6925 50.7516 11.7332C50.3241 11.8291 49.8755 11.8086 49.4398 11.8339L46.572 11.9875L45.1534 12.0648C45.0029 12.0722 44.8291 12.1144 44.6823 12.0983C44.5052 12.0018 44.1241 12.0489 43.9145 12.0458C43.6641 11.6778 43.4495 11.2888 43.1888 10.9261C42.2241 9.58433 40.9495 8.56168 39.4574 7.86199C39.0742 7.68231 38.2999 7.59341 38.0143 7.39209C37.9982 7.38072 37.9827 7.36854 37.9668 7.35676Z" fill="#CD2F2B"/>
<path d="M28.5762 12.8839C28.8289 12.5495 29.082 12.2162 29.3575 11.8999C30.8423 10.1954 33.066 8.34348 35.2699 7.72328C36.1448 7.47711 37.0653 7.41756 37.9681 7.35669C37.984 7.36846 37.9995 7.38065 38.0156 7.39202C38.3012 7.59334 39.0755 7.68224 39.4587 7.86192C40.9508 8.5616 42.2255 9.58426 43.1901 10.926C43.4509 11.2887 43.6655 11.6778 43.9159 12.0457C44.1254 12.0488 44.5065 12.0018 44.6837 12.0982C43.0164 12.1087 41.3506 12.2752 39.686 12.3719L33.0195 12.6979C31.5615 12.7753 30.0295 12.9489 28.5762 12.8839Z" fill="#852E2B"/>
<path d="M69.4367 36.0002C69.8861 36.252 70.2746 36.7229 70.5958 37.1172C71.7534 38.5384 72.6991 40.1795 73.1975 41.952C73.2273 42.0577 73.2559 42.1639 73.2831 42.2704C73.3104 42.3769 73.3364 42.4837 73.361 42.5908C73.3857 42.6979 73.409 42.8053 73.431 42.913C73.453 43.0207 73.4738 43.1286 73.4931 43.2368C73.5125 43.345 73.5306 43.4534 73.5473 43.562C73.5641 43.6707 73.5795 43.7795 73.5936 43.8885C73.6077 43.9975 73.6204 44.1067 73.6318 44.216C73.6433 44.3253 73.6533 44.4348 73.662 44.5444C73.6708 44.654 73.6782 44.7636 73.6843 44.8734C73.6903 44.9831 73.6951 45.0929 73.6984 45.2028C73.7018 45.3127 73.7039 45.4226 73.7046 45.5325C73.7053 45.6424 73.7046 45.7523 73.7027 45.8622C73.7007 45.9721 73.6974 46.082 73.6927 46.1918C73.688 46.3016 73.682 46.4113 73.6747 46.521C73.6673 46.6307 73.6587 46.7403 73.6487 46.8497C73.6386 46.9592 73.6273 47.0685 73.6146 47.1777C73.6019 47.2869 73.5879 47.3959 73.5725 47.5047C73.5571 47.6135 73.5405 47.7222 73.5225 47.8306C73.5045 47.9391 73.4852 48.0473 73.4645 48.1552C73.4439 48.2632 73.4219 48.3709 73.3986 48.4783C73.3753 48.5857 73.3507 48.6929 73.3248 48.7997C73.299 48.9065 73.2718 49.013 73.2433 49.1191C73.2148 49.2253 73.185 49.3312 73.1539 49.4366C73.1229 49.542 73.0905 49.647 73.0569 49.7516C73.0232 49.8563 72.9883 49.9606 72.9521 50.0643C72.9159 50.1681 72.8785 50.2714 72.8398 50.3743C72.8011 50.4772 72.7611 50.5796 72.7198 50.6815C72.6786 50.7834 72.6362 50.8848 72.5925 50.9856C72.5489 51.0865 72.504 51.1868 72.4578 51.2866C72.4117 51.3864 72.3643 51.4856 72.3158 51.5841C72.2672 51.6827 72.2174 51.7807 72.1665 51.8781C72.1156 51.9755 72.0634 52.0723 72.0101 52.1684C71.2648 53.487 69.4324 55.9121 68.0904 56.5359L68.0916 52.0147C68.092 51.2181 68.1286 50.4016 68.0566 49.6084C68.1 48.8711 68.0791 48.1231 68.0805 47.3846C68.4371 46.958 68.9516 46.6674 69.3401 46.1652C69.8345 45.5263 70.1519 44.6879 70.2466 43.8874C70.3878 42.6948 70.1332 41.4713 69.9845 40.2896L69.4367 36.0002Z" fill="#41BBB4"/>
<path d="M68.0806 47.3845C68.0792 48.123 68.1002 48.871 68.0568 49.6083C68.1287 50.4016 68.0921 51.218 68.0917 52.0146L68.0905 56.5358C68.0901 58.2652 68.0667 59.998 68.1049 61.7269C68.1215 62.0265 68.1211 62.3209 68.0969 62.6203C67.8963 63.8344 67.5397 64.8866 66.5007 65.634C65.7383 66.1825 64.9003 66.2718 64.0031 66.4308C62.6867 66.7495 60.9914 66.6837 59.6074 66.8318C59.8543 66.319 60.0318 65.7924 60.1305 65.2318L60.1456 65.2075C60.377 62.9549 60.3023 60.6969 60.2459 58.4374C60.2184 57.3359 60.2149 56.2327 60.2019 55.1309L60.1689 54.8087C60.1202 54.3734 60.138 53.9059 60.2111 53.4745C60.2111 52.536 60.2241 51.6012 60.2065 50.6617C60.1954 50.0708 60.1307 49.4666 60.1766 48.8779C60.5261 48.9854 60.8487 48.9969 61.2105 48.9666C62.4037 48.7767 63.6323 48.8891 64.831 48.7749L64.8514 49.0737C66.0499 48.6704 67.0225 48.0562 68.0806 47.3845Z" fill="#EC9023"/>
<path d="M60.2121 53.4746C60.5649 54.2627 61.4433 55.0908 62.2446 55.4115C62.4283 55.4851 62.6784 55.5462 62.8705 55.4688C63.0355 55.4023 63.221 55.2294 63.3464 55.1049L64.5442 53.9151C64.3797 54.9053 63.6819 55.7798 62.8765 56.3538C62.7251 56.4617 62.5636 56.5527 62.4015 56.643C61.403 56.3091 61.0047 55.7148 60.2029 55.1309L60.1699 54.8088C60.1212 54.3735 60.139 53.906 60.2121 53.4746Z" fill="#BB6119"/>
<path d="M64.73 64.948C64.5639 65.5168 64.3435 65.9456 64.0031 66.431C62.6867 66.7497 60.9914 66.6839 59.6074 66.832C59.8543 66.3192 60.0318 65.7926 60.1305 65.232L60.1456 65.2077C60.4629 65.3248 64.0468 64.9676 64.73 64.948Z" fill="#BB6119"/>
<path d="M61.2103 48.9666C62.4036 48.7767 63.6321 48.8891 64.8308 48.7749L64.8512 49.0737C64.8347 50.5871 65.0083 52.134 64.7658 53.6354C64.69 53.726 64.6064 53.8157 64.543 53.915L63.3452 55.1048C63.2198 55.2293 63.0343 55.4022 62.8693 55.4686C62.6772 55.5461 62.4271 55.485 62.2434 55.4114C61.4421 55.0907 60.5637 54.2626 60.2109 53.4745C60.2109 52.536 60.2239 51.6012 60.2063 50.6617C60.1952 50.0708 60.1305 49.4665 60.1764 48.8779C60.5259 48.9854 60.8485 48.9969 61.2103 48.9666Z" fill="#70666B"/>
<path d="M60.1764 48.8779C60.5259 48.9854 60.8485 48.997 61.2103 48.9667C61.1995 49.9572 61.065 52.3264 61.3556 53.1879C61.4291 53.4059 61.5806 53.5765 61.7381 53.7393C62.2146 54.2318 62.7774 54.7219 63.3452 55.1049C63.2198 55.2293 63.0343 55.4022 62.8693 55.4687C62.6772 55.5461 62.4271 55.485 62.2434 55.4114C61.4421 55.0907 60.5637 54.2626 60.2109 53.4746C60.2109 52.5361 60.2239 51.6012 60.2063 50.6618C60.1952 50.0708 60.1305 49.4666 60.1764 48.8779Z" fill="#352F3C"/>
<path d="M68.0814 47.3845C68.08 48.123 68.1009 48.871 68.0576 49.6083C68.1295 50.4016 68.0929 51.218 68.0925 52.0146L68.0913 56.5358C68.0909 58.2652 68.0675 59.998 68.1057 61.7269C68.1223 62.0265 68.1219 62.3209 68.0977 62.6203C67.8971 63.8344 67.5405 64.8866 66.5015 65.634C65.7391 66.1825 64.9011 66.2718 64.0039 66.4308C64.3443 65.9454 64.5647 65.5166 64.7308 64.9478C64.8907 63.7713 64.8548 62.5866 64.8486 61.4023L64.7757 56.1763C64.7636 55.3301 64.6741 54.4791 64.7668 53.6355C65.0093 52.1341 64.8357 50.5871 64.8522 49.0737C66.0507 48.6704 67.0233 48.0562 68.0814 47.3845Z" fill="#852E2B"/>
<path d="M68.0814 47.3845C68.08 48.123 68.1009 48.871 68.0576 49.6083C67.7484 49.9719 67.5228 50.3948 67.2246 50.7667C66.6202 51.5206 65.9388 52.2245 65.2693 52.921C65.3044 56.8121 65.5703 60.6776 65.4293 64.5726C66.3318 64.0916 67.1348 63.4712 67.6236 62.5508C67.7594 62.2953 67.882 61.9084 68.1057 61.7269C68.1223 62.0265 68.1219 62.3209 68.0977 62.6203C67.8971 63.8344 67.5405 64.8866 66.5015 65.634C65.7391 66.1825 64.9011 66.2718 64.0039 66.4308C64.3443 65.9454 64.5647 65.5166 64.7308 64.9478C64.8907 63.7713 64.8548 62.5866 64.8486 61.4023L64.7757 56.1763C64.7636 55.3301 64.6741 54.4791 64.7668 53.6355C65.0093 52.1341 64.8357 50.5871 64.8522 49.0737C66.0507 48.6704 67.0233 48.0562 68.0814 47.3845Z" fill="#5C1A18"/>
<path d="M67.3946 30.0122L67.4266 30.0506C67.6689 30.3349 67.9901 30.5485 68.2182 30.8543C68.997 31.8988 69.1392 33.5054 69.2702 34.7644C69.3127 35.1727 69.3303 35.6031 69.4364 36.0003L69.9842 40.2896C70.1329 41.4713 70.3875 42.6948 70.2463 43.8874C70.1515 44.6879 69.8341 45.5263 69.3397 46.1653C68.9512 46.6674 68.4368 46.958 68.0801 47.3846C67.022 48.0563 66.0494 48.6705 64.8509 49.0738L64.8305 48.775C63.6318 48.8892 62.4033 48.7768 61.2101 48.9667C60.8482 48.997 60.5256 48.9855 60.1761 48.878L60.1064 48.8381C59.6101 48.5517 59.3797 48.316 59.2299 47.7538C59.1797 47.126 59.146 46.4386 59.1979 45.8113C59.2366 45.4866 59.399 45.1663 59.6426 44.9488L59.6411 44.9299C59.8039 44.7992 59.9629 44.7172 60.1508 44.632C60.1393 42.6316 60.0069 40.6281 59.9838 38.6264C60.3163 38.42 60.6777 38.2658 61.0101 38.0519C62.259 37.2478 63.409 36.3364 64.5765 35.4221L64.6126 35.248C64.5534 34.5683 64.5333 33.8997 64.5374 33.2177C64.532 33.1328 64.5143 33.0474 64.5012 32.9633C64.647 32.869 64.7901 32.7707 64.9304 32.6684C65.0708 32.5661 65.2083 32.4601 65.3428 32.3503C65.4773 32.2404 65.6086 32.1269 65.7369 32.0099C65.8651 31.8928 65.99 31.7722 66.1116 31.6482C66.2332 31.5242 66.3512 31.3969 66.4658 31.2664C66.5803 31.1359 66.6912 31.0023 66.7983 30.8657C66.9055 30.7291 67.0088 30.5896 67.1083 30.4472C67.2077 30.3048 67.3031 30.1598 67.3946 30.0122Z" fill="#852E2B"/>
<path d="M64.5376 33.2178L64.5955 33.2433C64.7642 33.8255 64.812 34.6709 64.6128 35.2481C64.5536 34.5684 64.5336 33.8998 64.5376 33.2178Z" fill="#5C1A18"/>
<path d="M60.1508 44.6319C60.9302 44.4018 63.8754 44.3781 64.7712 44.4385C65.2079 44.5697 65.5525 44.7834 65.7737 45.1953C65.9433 45.5109 65.9779 45.8343 65.9822 46.1848C66.0349 46.7528 66.099 47.3446 65.8869 47.89C65.7006 48.3011 65.4125 48.5625 64.9883 48.72C64.936 48.739 64.8834 48.7573 64.8305 48.775C63.6318 48.8892 62.4033 48.7767 61.2101 48.9667C60.8482 48.997 60.5256 48.9854 60.1761 48.8779L60.1064 48.838C59.6101 48.5517 59.3797 48.3159 59.2299 47.7537C59.1797 47.126 59.146 46.4385 59.1979 45.8112C59.2366 45.4865 59.399 45.1662 59.6426 44.9487L59.6411 44.9298C59.8039 44.7992 59.9629 44.7171 60.1508 44.6319Z" fill="#F5C85E"/>
<path d="M61.2656 47.9405C62.188 47.8606 64.0959 48.0223 64.8988 47.6931C65.0254 47.6412 65.1209 47.5552 65.2198 47.4631C65.2338 47.5734 65.2486 47.6661 65.1788 47.7632C64.9034 48.1467 63.9851 48.1995 63.5546 48.2351C63.1279 48.2703 61.6181 48.3362 61.3073 48.0394C61.2651 47.9992 61.2763 48.0017 61.2656 47.9405Z" fill="#FEE35B"/>
<path d="M61.2657 47.9406C61.0725 47.9362 60.8875 47.9127 60.7146 47.8202C60.4176 47.6611 60.2297 47.368 60.1458 47.0485C60.0412 46.6509 60.0459 46.1149 60.2744 45.7624C60.4965 45.4198 60.7994 45.3567 61.1726 45.2854C60.8191 45.8962 60.7004 46.6508 60.8908 47.3393C60.9696 47.6241 61.2006 47.7301 61.2657 47.9406Z" fill="#352F3C"/>
<path d="M59.2305 47.7538L59.3409 47.7862L59.4036 47.7457L59.4276 47.6084C59.5259 47.6174 59.5529 47.6784 59.6148 47.753C60.1196 48.3614 60.178 48.5505 61.0109 48.6346C61.7618 48.7103 64.6302 48.5912 65.2276 48.3594C65.472 48.2645 65.6599 48.0209 65.8874 47.8901C65.7012 48.3012 65.4131 48.5626 64.9889 48.72C64.9366 48.7391 64.884 48.7574 64.8311 48.775C63.6323 48.8893 62.4038 48.7768 61.2106 48.9668C60.8488 48.9971 60.5262 48.9855 60.1767 48.878L60.107 48.8381C59.6106 48.5518 59.3803 48.316 59.2305 47.7538Z" fill="url(#paint0_linear_2795_90335)"/>
<path d="M60.1522 44.6319C60.9316 44.4018 63.8768 44.3781 64.7727 44.4385C65.2093 44.5697 65.5539 44.7834 65.7752 45.1953C65.9447 45.5109 65.9793 45.8343 65.9837 46.1848C65.7183 45.851 65.6071 45.4553 65.2131 45.2289C64.6195 44.8877 61.3104 44.9278 60.5066 45.0522C60.2601 45.0903 59.9461 45.3359 59.7059 45.2538C59.6261 45.1511 59.647 45.0764 59.6441 44.9487L59.6426 44.9298C59.8053 44.7992 59.9644 44.7171 60.1522 44.6319Z" fill="#FCFBF9"/>
<path d="M61.1728 45.2854C61.6899 45.2189 62.2056 45.2458 62.725 45.2267C63.2434 45.2076 63.7871 45.1112 64.3028 45.186C64.5051 45.2153 64.7076 45.2783 64.8703 45.406C65.1523 45.6275 65.2363 45.9919 65.2664 46.3326C65.2999 46.714 65.1988 47.0964 65.2201 47.4633C65.1211 47.5553 65.0257 47.6413 64.8991 47.6932C64.0962 48.0224 62.1883 47.8607 61.2659 47.9406C61.2008 47.7301 60.9698 47.6242 60.891 47.3393C60.7007 46.6508 60.8193 45.8962 61.1728 45.2854Z" fill="#70666B"/>
<path d="M59.9844 38.6265C60.3169 38.4201 60.6783 38.2659 61.0106 38.052C62.2596 37.2478 63.4096 36.3365 64.5771 35.4221C64.5544 37.1823 64.6405 38.9484 64.6916 40.7079C64.7278 41.9506 64.721 43.1972 64.7718 44.4387C63.8759 44.3782 60.9308 44.402 60.1513 44.632C60.1398 42.6317 60.0074 40.6282 59.9844 38.6265Z" fill="#F9AA1A"/>
<path d="M16.7823 62.2366C17.4413 63.9517 17.9321 64.5191 19.6168 65.2679C20.295 65.5693 20.9925 65.8243 21.6802 66.1029C22.5209 66.4434 23.3538 66.8056 24.1906 67.1558C25.2727 67.6086 26.8942 68.388 27.9865 68.6557C28.8998 68.8795 30.8708 68.9769 31.7973 68.7638C31.9476 68.7582 32.099 68.7484 32.2494 68.7493C32.5558 68.2802 32.6684 67.6651 32.7604 67.1224C32.7665 67.1297 32.7714 67.1382 32.7787 67.1443C32.9974 67.3245 36.7678 66.8947 37.392 66.8581C39.8624 66.5603 42.3843 66.457 44.8672 66.2949C48.9029 66.0607 52.9352 65.7766 56.964 65.4425C58.015 65.3577 59.0859 65.3488 60.1311 65.2319C60.0325 65.7925 59.855 66.3191 59.6081 66.8319C60.9921 66.6838 62.6874 66.7496 64.0038 66.4309C64.901 66.2719 65.739 66.1826 66.5014 65.6341C67.5404 64.8867 67.897 63.8345 68.0976 62.6204C68.2744 62.7559 68.9299 62.8813 69.174 62.9654C70.2934 63.3509 72.1466 64.2283 72.859 65.1977C73.126 65.5611 73.2781 66.0104 73.2018 66.462C73.0757 67.2097 72.3996 67.8148 71.8143 68.2347C69.8693 69.6304 67.176 70.2771 64.8785 70.8354C59.0837 72.2434 53.0782 72.7866 47.1335 73.04C39.034 73.3853 30.8668 73.1728 22.8588 71.8227C20.0696 71.3525 13.1931 69.8154 11.4927 67.384C11.1884 66.9489 11.013 66.4379 11.1189 65.9042C11.4247 64.3619 13.9032 63.2557 15.2592 62.793C15.668 62.6534 16.4072 62.5203 16.7408 62.2695C16.7549 62.2589 16.7685 62.2476 16.7823 62.2366Z" fill="#225E70"/>
<path d="M37.3906 66.8582C37.2805 67.42 37.0756 67.9144 36.9183 68.4579C36.0238 68.565 35.1263 68.6247 34.2277 68.6849C33.5805 68.7282 32.8955 68.7992 32.248 68.7494C32.5544 68.2803 32.667 67.6652 32.759 67.1225C32.7651 67.1298 32.77 67.1383 32.7773 67.1444C32.996 67.3246 36.7664 66.8948 37.3906 66.8582Z" fill="#BB6119"/>
<path d="M60.1314 65.2319C60.0327 65.7926 59.8552 66.3191 59.6084 66.8319C55.2692 67.1915 50.9266 67.5022 46.5805 67.7643C44.6604 67.8857 42.741 68.0173 40.8223 68.1589C39.5197 68.2506 38.2196 68.324 36.9199 68.4579C37.0773 67.9144 37.2822 67.42 37.3923 66.8581C39.8627 66.5604 42.3845 66.457 44.8674 66.295C48.9032 66.0608 52.9355 65.7766 56.9643 65.4426C58.0153 65.3577 59.0862 65.3489 60.1314 65.2319Z" fill="#5C1A18"/>
<path d="M21.2168 25.3468C22.2366 24.6289 23.3442 24.0327 24.4476 23.4561L24.5891 23.5364C24.6481 23.8786 24.6018 24.2586 24.701 24.5902C24.8696 25.1536 25.2496 25.66 25.4757 26.2059C25.5103 26.2893 25.5846 26.4379 25.5824 26.5264C25.5796 26.6409 25.533 26.6413 25.5898 26.7629C25.7211 27.0437 26.1925 27.5039 25.9452 27.8306C25.871 27.9287 25.8244 27.9315 25.7145 27.9673C26.6732 27.9954 27.6312 27.9554 28.5893 27.9239C29.1863 27.9044 29.8157 27.8547 30.4103 27.9228C30.6198 28.5532 30.8706 29.1949 31.0377 29.8362C30.5495 29.8884 30.0425 29.9182 29.5608 30.0089C28.0479 30.1467 26.5392 30.3213 25.0348 30.5329C24.5335 30.6051 24.0344 30.6594 23.5298 30.7022C23.33 30.7032 22.8326 30.6996 22.6685 30.8107L21.966 31.0248C21.9199 31.3213 21.8269 31.68 21.904 31.9738C21.9468 32.0613 21.9631 32.1249 21.973 32.2216C21.8887 32.313 21.801 32.4029 21.7221 32.4989C21.3753 33.1682 21.135 33.8093 21.0889 34.5686C21.1043 34.7347 21.1153 34.898 21.1585 35.0597C21.2314 35.2286 21.326 35.3411 21.4514 35.4739C21.636 35.464 21.7756 35.5097 21.9467 35.5729C21.9467 35.8634 21.9664 36.1703 21.9333 36.4582C22.0406 36.468 22.1504 36.4829 22.2579 36.4868C22.1995 36.8796 22.1589 37.2744 22.1162 37.6692C21.9378 38.9647 21.8035 40.2481 21.7507 41.5561C21.6492 44.0743 21.7308 47.2829 21.0346 49.695C21.0666 50.1221 20.8813 50.6023 20.7528 51.0052C20.2796 52.4888 19.7018 53.9155 18.6701 55.1104C18.5985 55.1948 18.5249 55.2773 18.4492 55.358C18.3736 55.4387 18.296 55.5175 18.2164 55.5943C18.1369 55.6712 18.0554 55.746 17.9721 55.8188C17.8888 55.8916 17.8037 55.9622 17.7169 56.0307C17.6301 56.0993 17.5416 56.1656 17.4515 56.2298C17.3614 56.294 17.2697 56.3558 17.1765 56.4154C17.0833 56.475 16.9887 56.5323 16.8927 56.5872C16.7966 56.642 16.6993 56.6945 16.6007 56.7446C15.3661 57.2875 14.18 57.8325 12.8788 58.2086C11.8592 58.5033 10.2511 58.9745 9.26292 58.3968C8.01394 57.6668 6.81563 54.087 6.43343 52.6946C5.62916 49.5526 6.10274 46.9432 7.12614 43.9452C7.47271 42.93 7.84253 41.9193 8.33933 40.9663C8.62245 40.193 8.97503 39.4625 9.33323 38.7225C11.2538 34.7543 13.9709 31.045 17.3535 28.1929C17.7708 27.9892 18.3543 27.4603 18.7328 27.1574C18.969 27.0392 21.0378 25.5381 21.2168 25.3468ZM16.7152 34.7596C16.2954 35.5932 15.9886 36.44 15.6814 37.3192C14.7568 39.9651 14.1349 42.6816 14.1402 45.498C14.1425 46.6732 14.3099 47.8139 14.3869 48.9806C15.281 48.1559 16.097 47.3463 16.8056 46.3509C16.7536 43.7693 16.7371 41.1874 16.7561 38.6053C16.7563 37.3425 16.8787 36.0106 16.7152 34.7596Z" fill="#BB6119"/>
<path d="M8.33933 40.9663C8.34198 40.9872 8.34527 41.0081 8.3473 41.0291C8.39183 41.4908 7.87433 42.7548 7.73868 43.2744C7.30253 44.945 6.32985 50.0304 7.66495 51.2785C8.01003 51.6011 8.49284 51.6656 8.94573 51.6368C9.46909 51.6035 9.96753 51.4519 10.4678 51.306C10.5403 51.7659 10.9396 52.1432 11.0153 52.5962L10.9912 52.5994C9.89566 53.0033 8.19269 53.5433 7.06845 53.0511C6.84598 52.9537 6.64895 52.8062 6.43343 52.6946C5.62916 49.5526 6.10274 46.9432 7.12614 43.9452C7.47271 42.93 7.84253 41.9194 8.33933 40.9663Z" fill="#EC9023"/>
<path d="M25.7132 27.9674C26.672 27.9954 27.6299 27.9555 28.588 27.924C29.185 27.9045 29.8144 27.8548 30.409 27.9229C30.6185 28.5533 30.8693 29.195 31.0364 29.8363C30.5482 29.8885 30.0412 29.9183 29.5595 30.009C28.0466 30.1468 26.5379 30.3214 25.0335 30.5329C24.5323 30.6052 24.0331 30.6595 23.5285 30.7023C23.3287 30.7033 22.8313 30.6997 22.6673 30.8108C21.5771 30.9173 20.5161 31.172 19.4348 31.3314C19.1847 30.4579 18.7097 29.6368 18.5176 28.7549C19.9305 28.2538 24.0785 27.9224 25.7132 27.9674Z" fill="#6A4E1A"/>
<path d="M19.4357 31.3314C20.517 31.172 21.578 30.9174 22.6682 30.8108L21.9657 31.0249C21.9195 31.3214 21.8266 31.6801 21.9037 31.9739C21.9464 32.0614 21.9627 32.125 21.9727 32.2217C21.8884 32.3131 21.8006 32.4031 21.7218 32.4991C21.3749 33.1684 21.1347 33.8094 21.0885 34.5688C21.1039 34.7349 21.115 34.8981 21.1582 35.0599C21.231 35.2287 21.3257 35.3412 21.451 35.474C21.3361 35.8992 21.1166 36.2524 20.8892 36.6243C19.638 39.4745 19.1529 42.5768 17.5266 45.2756C17.3103 45.6346 17.0822 46.0391 16.8052 46.351C16.7533 43.7694 16.7368 41.1875 16.7558 38.6054C16.7559 37.3427 16.8784 36.0107 16.7148 34.7597C17.1007 33.6567 17.6612 32.6193 18.2018 31.586C18.6095 31.4836 19.0208 31.3988 19.4357 31.3314Z" fill="#440B0A"/>
<path d="M21.9037 31.9739C21.9464 32.0614 21.9627 32.125 21.9727 32.2217C21.8884 32.3131 21.8006 32.403 21.7218 32.499C21.6323 32.3649 21.5175 32.2668 21.3984 32.1604C21.559 32.084 21.7359 32.0326 21.9037 31.9739Z" fill="#C3C3C2"/>
<path d="M20.2754 33.9875C20.5113 33.2481 20.747 32.6253 21.3979 32.1604C21.517 32.2667 21.6318 32.3649 21.7213 32.499C21.3744 33.1683 21.1341 33.8093 21.088 34.5687C20.8204 34.4656 20.4111 34.2491 20.2754 33.9875Z" fill="#FCFBF9"/>
<path d="M20.2756 33.9875C20.4113 34.2492 20.8206 34.4657 21.0882 34.5687C21.1036 34.7348 21.1147 34.8981 21.1579 35.0598C21.2307 35.2286 21.3254 35.3411 21.4507 35.474C21.3358 35.8991 21.1163 36.2523 20.8889 36.6243C20.3121 35.7822 20.2602 34.9772 20.2756 33.9875Z" fill="#C3C3C2"/>
<path d="M21.4515 35.474C21.6361 35.4641 21.7757 35.5099 21.9468 35.5731C21.9468 35.8635 21.9666 36.1704 21.9335 36.4583C22.0407 36.4681 22.1506 36.4831 22.2581 36.4869C22.1996 36.8797 22.1591 37.2745 22.1164 37.6693C21.9379 38.9648 21.8036 40.2482 21.7509 41.5563C21.6493 44.0744 21.731 47.2831 21.0347 49.6952C21.0668 50.1222 20.8814 50.6024 20.7529 51.0053C20.2798 52.4889 19.7019 53.9156 18.6703 55.1106C18.5987 55.1949 18.5251 55.2775 18.4494 55.3581C18.3738 55.4389 18.2962 55.5176 18.2166 55.5945C18.137 55.6713 18.0556 55.7461 17.9722 55.8189C17.8889 55.8917 17.8039 55.9623 17.7171 56.0309C17.6302 56.0994 17.5418 56.1658 17.4517 56.2299C17.3616 56.2941 17.2699 56.356 17.1767 56.4156C17.0835 56.4751 16.9889 56.5324 16.8929 56.5873C16.7968 56.6422 16.6995 56.6946 16.6008 56.7447C15.3663 57.2876 14.1802 57.8326 12.8789 58.2088C11.8594 58.5034 10.2513 58.9746 9.26309 58.397C8.0141 57.6669 6.81579 54.0871 6.43359 52.6947C6.64912 52.8063 6.84615 52.9538 7.06862 53.0512C8.19285 53.5434 9.89582 53.0034 10.9914 52.5995L11.0154 52.5963C10.9398 52.1433 10.5404 51.766 10.468 51.3061C11.5347 50.9537 12.1614 50.4551 13.0811 49.8775C13.546 49.5856 13.9913 49.3721 14.3871 48.9807C15.2811 48.156 16.0971 47.3464 16.8057 46.351C17.0827 46.0391 17.3108 45.6346 17.5271 45.2756C19.1534 42.5768 19.6385 39.4745 20.8897 36.6243C21.1171 36.2524 21.3366 35.8991 21.4515 35.474Z" fill="#E43B31"/>
<path d="M21.4503 35.474C21.6349 35.4641 21.7745 35.5099 21.9456 35.5731C21.9456 35.8635 21.9654 36.1704 21.9323 36.4583C21.7398 37.6273 21.4052 38.7841 21.0825 39.9233C19.8576 44.247 18.0235 48.0877 14.2841 50.7674C13.2529 51.5064 12.1795 52.0967 11.0142 52.5963C10.9386 52.1433 10.5392 51.766 10.4668 51.3061C11.5335 50.9537 12.1602 50.4551 13.0798 49.8775C13.5448 49.5856 13.9901 49.3721 14.3859 48.9807C15.2799 48.156 16.0959 47.3464 16.8045 46.351C17.0815 46.0391 17.3096 45.6346 17.5259 45.2756C19.1522 42.5768 19.6373 39.4745 20.8885 36.6243C21.1159 36.2524 21.3354 35.8991 21.4503 35.474Z" fill="#F9AA1A"/>
<path d="M10.9914 52.5994C11.27 52.7491 11.7275 53.5481 11.9406 53.8209C12.5007 54.5382 13.1605 55.2147 13.9776 55.6359C14.6875 56.0018 15.4647 56.1003 16.2307 55.8498C17.9886 55.2751 19.3071 53.414 20.0798 51.8276C20.4213 51.1265 20.6786 50.3905 21.0347 49.6951C21.0668 50.1221 20.8814 50.6023 20.7529 51.0052C20.2798 52.4888 19.7019 53.9155 18.6703 55.1105C18.5987 55.1948 18.5251 55.2774 18.4494 55.358C18.3738 55.4388 18.2962 55.5175 18.2166 55.5944C18.137 55.6712 18.0556 55.746 17.9722 55.8188C17.8889 55.8916 17.8039 55.9622 17.7171 56.0308C17.6302 56.0993 17.5418 56.1657 17.4517 56.2298C17.3616 56.294 17.2699 56.3559 17.1767 56.4155C17.0835 56.475 16.9889 56.5323 16.8929 56.5872C16.7968 56.6421 16.6995 56.6946 16.6008 56.7446C15.3663 57.2875 14.1802 57.8325 12.8789 58.2087C11.8594 58.5034 10.2513 58.9745 9.26309 58.3969C8.0141 57.6668 6.81579 54.087 6.43359 52.6946C6.64912 52.8062 6.84615 52.9537 7.06862 53.0511C8.19285 53.5434 9.89582 53.0034 10.9914 52.5994Z" fill="#852E2B"/>
<path d="M31.0377 29.8362L31.3906 30.8595C31.7602 31.7858 32.1417 32.3153 33.0496 32.7763C33.5602 33.0594 34.2191 33.6147 34.7961 33.6927C35.1912 33.8894 35.591 34.0761 35.9955 34.2529C36.4174 34.4327 36.8689 34.5915 37.2653 34.8216L37.2706 35.0968C37.2682 36.2433 37.3354 37.426 37.2635 38.5673L37.2776 38.5929L37.2917 42.907C37.2928 43.6545 37.2184 44.4556 37.332 45.1946C37.7505 45.2918 38.125 45.4469 38.3699 45.8224C38.523 46.057 38.5914 46.3334 38.6172 46.6097C38.7152 47.3577 38.6731 48.022 38.552 48.7631C38.4097 49.0962 38.1781 49.3274 37.93 49.5832L37.9599 49.6603C37.9731 50.0094 37.9722 50.3571 37.9698 50.7063L37.9715 52.5481C38.0136 53.3177 38.1391 54.2106 37.8224 54.9356C37.7375 55.13 37.61 55.3063 37.5077 55.4919C37.6671 55.9986 37.5817 58.0067 37.5821 58.6481C37.5831 60.7017 37.6199 62.7604 37.5285 64.8121C37.4988 65.4775 37.5027 66.2032 37.392 66.858C36.7677 66.8946 32.9974 67.3245 32.7787 67.1442C32.7713 67.1381 32.7664 67.1296 32.7603 67.1223C32.6684 67.665 32.5557 68.2801 32.2494 68.7492C32.099 68.7483 31.9476 68.7581 31.7973 68.7638C30.8708 68.9768 28.8998 68.8795 27.9865 68.6556C26.8942 68.3879 25.2727 67.6085 24.1906 67.1557C23.3538 66.8055 22.5209 66.4434 21.6802 66.1028C20.9925 65.8242 20.295 65.5692 19.6168 65.2678C17.932 64.519 17.4413 63.9516 16.7823 62.2365C16.3745 60.8399 16.6034 58.2845 16.6007 56.7445C16.6994 56.6945 16.7967 56.642 16.8927 56.5871C16.9888 56.5322 17.0834 56.475 17.1766 56.4154C17.2698 56.3558 17.3615 56.2939 17.4516 56.2298C17.5417 56.1656 17.6301 56.0993 17.717 56.0307C17.8038 55.9622 17.8888 55.8915 17.9721 55.8187C18.0555 55.7459 18.1369 55.6711 18.2165 55.5943C18.2961 55.5175 18.3737 55.4387 18.4493 55.358C18.525 55.2773 18.5986 55.1948 18.6702 55.1104C19.7018 53.9155 20.2797 52.4888 20.7528 51.0052C20.8813 50.6023 21.0667 50.122 21.0346 49.695C21.7309 47.2829 21.6492 44.0742 21.7508 41.5561C21.8035 40.2481 21.9378 38.9647 22.1163 37.6692C22.159 37.2744 22.1995 36.8795 22.258 36.4867C22.1505 36.4829 22.0406 36.468 21.9334 36.4581C21.9665 36.1702 21.9467 35.8634 21.9467 35.5729C21.7756 35.5097 21.636 35.464 21.4514 35.4738C21.3261 35.341 21.2314 35.2285 21.1586 35.0597C21.1154 34.898 21.1043 34.7347 21.0889 34.5686C21.1351 33.8092 21.3753 33.1682 21.7222 32.4989C21.801 32.4029 21.8888 32.313 21.9731 32.2216C21.9631 32.1249 21.9468 32.0613 21.9041 31.9738C21.827 31.6799 21.9199 31.3213 21.9661 31.0248L22.6686 30.8106C22.8327 30.6995 23.33 30.7032 23.5299 30.7022C24.0345 30.6594 24.5336 30.6051 25.0349 30.5328C26.5393 30.3213 28.048 30.1467 29.5609 30.0088C30.0425 29.9181 30.5495 29.8884 31.0377 29.8362Z" fill="#852E2B"/>
<path d="M31.038 29.8362L31.3909 30.8595C31.7605 31.7858 32.142 32.3153 33.0499 32.7763C33.5605 33.0594 34.2194 33.6147 34.7964 33.6927C35.1915 33.8894 35.5913 34.0761 35.9958 34.2529C36.4177 34.4327 36.8692 34.5915 37.2656 34.8216L37.2709 35.0968C37.2685 36.2433 37.3357 37.426 37.2638 38.5673L37.2779 38.5929L37.292 42.907C37.2931 43.6545 37.2187 44.4556 37.3323 45.1946C36.1748 45.2125 35.0154 45.2102 33.8623 45.3179L33.8382 45.3106C33.6544 45.3096 33.4702 45.3177 33.2864 45.3227L33.1501 45.3041L32.9298 45.3796C32.8666 44.1034 32.8886 42.8212 32.888 41.5435L32.8909 35.9345C32.1463 35.2382 31.3297 34.618 30.5882 33.9174C28.7595 32.1899 27.7751 30.6952 25.0352 30.5328C26.5396 30.3213 28.0483 30.1467 29.5612 30.0088C30.0428 29.9181 30.5498 29.8884 31.038 29.8362Z" fill="#5C1A18"/>
<path d="M33.0859 36.1545C33.3664 36.3542 33.6248 36.5774 33.8859 36.8011C33.7945 37.6843 33.8475 38.5673 33.8505 39.453C33.8546 40.6696 33.8371 41.8857 33.8509 43.1024C33.8591 43.8184 33.9748 44.6072 33.8379 45.3106C33.6541 45.3096 33.4698 45.3177 33.2861 45.3227L33.1498 45.3041C33.1777 44.3903 33.1338 43.4637 33.1313 42.5482C33.1432 40.4168 33.1281 38.2856 33.0859 36.1545Z" fill="#FD7123"/>
<path d="M33.0488 32.7764C33.5594 33.0594 34.2183 33.6147 34.7953 33.6927C35.1904 33.8894 35.5902 34.0762 35.9947 34.2529C36.4166 34.4328 36.8681 34.5915 37.2645 34.8216L37.2698 35.0968C37.2674 36.2433 37.3346 37.4261 37.2627 38.5673C36.0486 38.2025 34.9066 37.5368 33.8852 36.8011C33.624 36.5775 33.3656 36.3542 33.0852 36.1546C33.0314 35.7834 33.057 35.3757 33.0548 34.9994L33.0488 32.7764Z" fill="#BB6119"/>
<path d="M33.8854 36.8013C34.9068 37.537 36.0489 38.2026 37.263 38.5674L37.2771 38.5931L37.2911 42.9072C37.2923 43.6547 37.2179 44.4558 37.3315 45.1948C36.174 45.2127 35.0146 45.2103 33.8615 45.3181L33.8374 45.3108C33.9743 44.6074 33.8586 43.8186 33.8504 43.1026C33.8366 41.8859 33.8541 40.6698 33.85 39.4531C33.847 38.5674 33.794 37.6845 33.8854 36.8013Z" fill="#EC9023"/>
<path d="M22.6676 30.8106C22.8316 30.6995 23.329 30.7032 23.5288 30.7021L23.3966 30.7584C23.4095 30.8327 23.3901 30.8105 23.4347 30.8417C23.5775 30.9416 23.7408 31.0098 23.8723 31.1241C24.7845 31.9168 25.218 33.2017 25.4226 34.3522C25.5985 35.3415 25.6507 36.3554 25.7461 37.3552L26.2185 42.1921C26.3631 43.6494 26.5005 45.1229 26.9483 46.5246C27.1805 47.2519 27.5187 47.9196 27.8833 48.5875C28.8978 49.4132 30.1941 49.93 31.4902 50.0864C31.8463 50.1294 32.4126 50.1228 32.7293 50.2689C32.8151 50.2703 32.8992 50.2666 32.9848 50.2626C32.9723 50.258 32.9594 50.2543 32.9472 50.2487C32.83 50.195 32.7009 50.1729 32.5853 50.1152C32.2556 49.9507 31.9659 49.5756 31.8439 49.2371C31.5796 48.5033 31.6229 47.2259 31.9575 46.5234L32.0023 46.5258C32.0376 46.4507 32.0542 46.3495 32.0772 46.2686C32.2949 45.849 32.5237 45.6134 32.9285 45.3796L33.1488 45.304L33.2851 45.3226C33.4688 45.3176 33.653 45.3096 33.8369 45.3106L33.8609 45.3179C35.0141 45.2101 36.1734 45.2125 37.3309 45.1946C37.7495 45.2918 38.124 45.4468 38.3689 45.8224C38.522 46.057 38.5904 46.3333 38.6162 46.6096C38.7141 47.3577 38.672 48.0219 38.551 48.7631C38.4087 49.0961 38.177 49.3274 37.929 49.5832L37.9588 49.6603C37.9721 50.0093 37.9712 50.3571 37.9688 50.7062L37.9705 52.5481C38.0126 53.3177 38.138 54.2105 37.8214 54.9356C37.7365 55.13 37.609 55.3063 37.5066 55.4918L37.3552 55.7014L37.2895 55.7184C37.1548 55.8665 36.9807 55.9908 36.8151 56.1021C36.2822 56.4601 35.6144 56.6153 34.9816 56.4813C34.2243 56.3207 33.6021 55.7315 33.3403 55.0103C33.2635 54.7986 33.2397 54.538 33.1199 54.3483L33.089 54.3591L33.0482 54.5728C33.01 54.1701 33.083 53.761 33.1071 53.3586C33.1562 52.5363 33.1816 51.6 33.0572 50.7861C33.0563 50.6943 33.0601 50.5946 33.0445 50.5041C33.0243 50.388 32.9721 50.3363 32.885 50.2654C32.8125 50.3464 32.822 50.4095 32.807 50.5141C32.6609 51.8086 32.813 53.1145 32.7345 54.4098C31.0034 54.4939 29.114 54.2368 27.4984 53.6207C27.5485 51.8804 27.5049 50.1253 27.5018 48.3836C26.997 47.8346 26.5125 47.2754 26.187 46.5971C25.3701 44.8945 25.356 42.8951 25.1842 41.0464C25.0865 39.9501 24.9653 38.8564 24.8206 37.7653C24.7462 37.173 24.7939 36.4004 24.5473 35.8608C24.0666 36.7314 23.5658 37.2629 22.5912 37.5534C22.435 37.6 22.2745 37.6344 22.1152 37.6691C22.158 37.2743 22.1985 36.8795 22.257 36.4867C22.1495 36.4829 22.0396 36.4679 21.9323 36.4581C21.9655 36.1702 21.9457 35.8633 21.9457 35.5729C21.7746 35.5096 21.635 35.4639 21.4504 35.4738C21.3251 35.341 21.2304 35.2285 21.1576 35.0596C21.1144 34.8979 21.1033 34.7346 21.0879 34.5686C21.1341 33.8092 21.3743 33.1682 21.7212 32.4989C21.8 32.4029 21.8877 32.3129 21.972 32.2215C21.9621 32.1248 21.9458 32.0612 21.903 31.9737C21.8259 31.6799 21.9189 31.3212 21.9651 31.0247L22.6676 30.8106Z" fill="#5C1A18"/>
<path d="M21.972 32.2217C22.7113 32.2929 23.2642 32.6721 23.7225 33.2409C23.8737 33.4286 24.092 33.7471 24.0846 33.999C24.0837 34.0289 24.0822 34.0296 24.0737 34.0497C24.337 34.5077 24.6053 35.3287 24.5473 35.861C24.0666 36.7315 23.5658 37.2631 22.5912 37.5536C22.435 37.6001 22.2745 37.6346 22.1152 37.6693C22.158 37.2745 22.1985 36.8796 22.257 36.4868C22.1495 36.483 22.0396 36.4681 21.9323 36.4582C21.9655 36.1704 21.9457 35.8635 21.9457 35.573C21.7746 35.5098 21.635 35.4641 21.4504 35.4739C21.3251 35.3411 21.2304 35.2286 21.1576 35.0598C21.1144 34.8981 21.1033 34.7348 21.0879 34.5687C21.1341 33.8093 21.3743 33.1683 21.7212 32.499C21.8 32.403 21.8877 32.3131 21.972 32.2217Z" fill="#440B0A"/>
<path d="M21.1582 35.0599C21.9192 35.2871 21.8207 34.9379 22.4204 34.9584C22.5234 34.9619 22.6266 34.9626 22.7297 34.9666C22.5305 35.4448 22.3437 35.941 22.2638 36.4556L22.2576 36.4869C22.1501 36.4831 22.0402 36.4682 21.933 36.4583C21.9661 36.1704 21.9463 35.8636 21.9463 35.5731C21.7752 35.5099 21.6356 35.4642 21.451 35.474C21.3257 35.3412 21.231 35.2287 21.1582 35.0599Z" fill="#BB6119"/>
<path d="M24.0737 34.0498C24.337 34.5078 24.6053 35.3288 24.5473 35.8611C24.0666 36.7316 23.5658 37.2632 22.5912 37.5536C22.435 37.6002 22.2745 37.6346 22.1152 37.6693C22.158 37.2746 22.1985 36.8797 22.257 36.4869L22.2632 36.4556C22.6602 36.4113 22.9262 36.2205 23.2217 35.971C23.5491 35.4196 23.733 34.7932 24.0027 34.2125L24.0737 34.0498Z" fill="#70666B"/>
<path d="M24.0036 34.2124C24.1106 34.4537 23.9864 34.705 23.8971 34.9407C23.7979 35.2026 23.579 35.8053 23.323 35.9451C23.283 35.9669 23.2673 35.9648 23.2227 35.9709C23.5501 35.4195 23.734 34.7931 24.0036 34.2124Z" fill="#838A8D"/>
<path d="M37.9301 49.5833L37.9599 49.6604C37.9732 50.0094 37.9723 50.3572 37.9698 50.7063L37.9716 52.5482C38.0137 53.3178 38.1391 54.2106 37.8225 54.9357C37.7376 55.13 37.6101 55.3064 37.5077 55.4919L37.3563 55.7015L37.2905 55.7185C36.8685 55.9286 36.5875 56.1465 36.0954 56.183C35.6399 56.2167 35.1834 56.1078 34.838 55.7978C34.5388 55.5293 34.3531 55.1636 34.2588 54.7771C34.0859 54.0682 34.1766 53.2597 34.1798 52.5321C34.1867 51.8046 34.1751 51.0775 34.1448 50.3507C34.1359 50.2223 34.11 50.0933 34.0898 49.9661C34.4492 49.8974 34.8397 49.9193 35.2054 49.9158C36.113 49.9067 37.0664 49.8827 37.9301 49.5833Z" fill="#70666B"/>
<path d="M37.9301 49.5833L37.9599 49.6604C37.1404 50.4959 35.2379 50.2593 34.1448 50.3507C34.1359 50.2223 34.11 50.0933 34.0898 49.9661C34.4492 49.8974 34.8397 49.9193 35.2054 49.9158C36.113 49.9067 37.0664 49.8827 37.9301 49.5833Z" fill="#352F3C"/>
<path d="M37.332 45.1946C37.7505 45.2918 38.125 45.4468 38.37 45.8224C38.523 46.057 38.5914 46.3333 38.6172 46.6097C38.7152 47.3577 38.6731 48.0219 38.5521 48.7631C38.4097 49.0961 38.1781 49.3274 37.93 49.5832C37.0664 49.8826 36.113 49.9066 35.2053 49.9157C34.8396 49.9193 34.4492 49.8973 34.0898 49.9661L33.9928 49.9186C33.7058 49.9745 33.4516 49.9386 33.1657 49.8993C32.8764 49.7879 32.6285 49.6711 32.4208 49.4335C31.8123 48.7372 31.927 47.3804 32.0033 46.5258C32.0386 46.4507 32.0553 46.3495 32.0782 46.2686C32.296 45.849 32.5247 45.6134 32.9296 45.3796L33.1498 45.304L33.2861 45.3226C33.4699 45.3176 33.6541 45.3096 33.8379 45.3106L33.862 45.3179C35.0151 45.2101 36.1745 45.2125 37.332 45.1946Z" fill="#F5C85E"/>
<path d="M37.3313 45.1946C37.7498 45.2918 38.1244 45.4468 38.3693 45.8224C38.5223 46.057 38.5908 46.3333 38.6166 46.6097L38.5825 46.6894C38.4026 46.5789 38.2666 46.2471 38.1284 46.0739C38.0062 45.9208 37.8408 45.7436 37.6588 45.6619C36.9004 45.3215 34.8827 45.6572 33.945 45.5479C33.928 45.546 33.911 45.5435 33.8941 45.5413L33.8613 45.3179C35.0145 45.2101 36.1738 45.2125 37.3313 45.1946Z" fill="#FCFBF9"/>
<path d="M34.1445 46.2941C34.7834 46.2633 37.2191 46.0089 37.6064 46.3739C37.8823 46.6339 37.8669 47.0232 37.8634 47.3714C37.8602 47.6949 37.8852 48.1432 37.6233 48.3801C37.1568 48.802 34.9375 48.7587 34.213 48.7761C34.2251 47.9561 34.2055 47.1118 34.1445 46.2941Z" fill="#70666B"/>
<path d="M33.1498 45.3042L33.2861 45.3228C33.4699 45.3178 33.6541 45.3097 33.8379 45.3108L33.862 45.318L33.8947 45.5415C33.9553 45.7801 33.9755 46.0659 34.0937 46.2822L34.1446 46.2942C34.2056 47.1119 34.2251 47.9562 34.2131 48.7762L33.9622 48.7943L33.9881 49.5325C34.9754 49.5127 36.5592 49.589 37.4728 49.3301C37.8777 49.2154 38.1445 48.8337 38.5521 48.7633C38.4097 49.0963 38.1781 49.3276 37.93 49.5833C37.0664 49.8828 36.113 49.9068 35.2053 49.9158C34.8396 49.9194 34.4492 49.8975 34.0898 49.9662L33.9928 49.9188C33.7058 49.9747 33.4516 49.9387 33.1657 49.8995C32.8764 49.7881 32.6285 49.6713 32.4208 49.4336C31.8123 48.7373 31.927 47.3806 32.0033 46.526C32.0386 46.4508 32.0553 46.3497 32.0782 46.2687C32.296 45.8492 32.5247 45.6136 32.9296 45.3797L33.1498 45.3042Z" fill="#F9AA1A"/>
<path d="M33.1497 45.3042L33.286 45.3228C33.4698 45.3178 33.654 45.3097 33.8378 45.3108L33.8619 45.318L33.8946 45.5415C33.4876 45.5718 33.067 45.5944 32.7825 45.9247C32.652 46.0764 32.4459 46.4033 32.2736 46.4848L32.274 46.4535L32.0781 46.2687C32.2959 45.8492 32.5246 45.6136 32.9295 45.3797L33.1497 45.3042Z" fill="#F7F3CC"/>
<path d="M33.1497 45.3042L33.286 45.3228C32.7734 45.642 32.484 45.8654 32.274 46.4535L32.0781 46.2687C32.2959 45.8492 32.5246 45.6136 32.9295 45.3797L33.1497 45.3042Z" fill="#F9AA1A"/>
<path d="M32.0033 46.5258C32.0386 46.4507 32.0553 46.3495 32.0782 46.2686L32.2741 46.4533L32.2737 46.4846C32.0752 47.045 32.2073 48.2883 32.4745 48.8287C32.6051 49.0928 32.8327 49.3655 33.1187 49.466C33.2809 49.5229 33.8837 49.4919 33.9538 49.614C34.0016 49.6974 33.9899 49.8241 33.9928 49.9186C33.7058 49.9745 33.4516 49.9386 33.1657 49.8993C32.8764 49.7879 32.6285 49.6711 32.4208 49.4335C31.8123 48.7371 31.927 47.3804 32.0033 46.5258Z" fill="#EC9023"/>
<path d="M34.0932 46.2822L34.1441 46.2943C34.2051 47.112 34.2246 47.9562 34.2126 48.7763L33.9617 48.7943C33.8198 48.7725 33.6627 48.7546 33.5394 48.6749C33.3124 48.528 33.1839 48.2446 33.1388 47.987C33.0652 47.5653 33.1132 47.0336 33.3677 46.6807C33.5671 46.4041 33.7764 46.3412 34.0932 46.2822Z" fill="#440B0A"/>
<path d="M32.8077 50.5143C32.8227 50.4097 32.8132 50.3466 32.8857 50.2656C32.9728 50.3365 33.025 50.3882 33.0452 50.5043C33.0608 50.5948 33.057 50.6945 33.0579 50.7862C33.1824 51.6002 33.157 52.5365 33.1078 53.3588C33.0838 53.7612 33.0107 54.1703 33.0489 54.573L33.0897 54.3593L33.1206 54.3485C33.2404 54.5382 33.2642 54.7988 33.341 55.0105C33.6028 55.7317 34.225 56.3209 34.9824 56.4815C35.6151 56.6155 36.2829 56.4603 36.8158 56.1023C36.9814 55.991 37.1556 55.8667 37.2902 55.7186L37.3559 55.7016L37.5074 55.492C37.6668 55.9987 37.5814 58.0068 37.5818 58.6483C37.5828 60.7019 37.6196 62.7605 37.5282 64.8123C37.4985 65.4777 37.5024 66.2034 37.3917 66.8581C36.7674 66.8948 32.997 67.3246 32.7784 67.1444C32.771 67.1383 32.7661 67.1298 32.76 67.1224C32.6681 67.6652 32.5554 68.2802 32.2491 68.7494C32.0987 68.7484 31.9473 68.7583 31.797 68.7639C31.948 68.2023 32.1641 67.732 32.2097 67.1397C31.6095 67.1738 30.9992 67.2377 30.3987 67.2347C29.6199 67.2309 28.9138 66.9966 28.3601 66.4339C27.9888 66.0566 27.658 65.5387 27.5595 65.0117C27.364 63.9643 27.4977 62.2975 27.498 61.1823C27.4984 58.663 27.4678 56.1398 27.4992 53.6209C29.1147 54.237 31.0042 54.4941 32.7352 54.41C32.8137 53.1147 32.6616 51.8087 32.8077 50.5143Z" fill="#852E2B"/>
<path d="M32.8077 50.5143C32.8226 50.4097 32.8131 50.3466 32.8856 50.2656C32.9727 50.3365 33.0249 50.3882 33.0451 50.5043C33.0607 50.5948 33.0569 50.6945 33.0578 50.7862C33.1823 51.6002 33.1569 52.5365 33.1077 53.3588C33.0837 53.7612 33.0106 54.1703 33.0488 54.573C33.0414 56.1225 33.0115 57.6924 33.0547 59.2406C33.0162 61.8748 32.9427 64.4936 32.7599 67.1224C32.668 67.6652 32.5553 68.2802 32.249 68.7494C32.0986 68.7484 31.9472 68.7583 31.7969 68.7639C31.9479 68.2023 32.164 67.732 32.2096 67.1397C32.8584 62.9328 32.6916 58.6496 32.7351 54.41C32.8136 53.1147 32.6615 51.8087 32.8077 50.5143Z" fill="#440B0A"/>
<path d="M33.0487 54.5728L33.0895 54.3592L33.1204 54.3484C33.2402 54.5381 33.264 54.7987 33.3408 55.0104C33.6026 55.7316 34.2248 56.3208 34.9821 56.4814C35.6148 56.6154 36.2827 56.4602 36.8155 56.1021C36.9812 55.9909 37.1553 55.8666 37.2899 55.7185L37.3556 55.7014L37.5071 55.4919C37.6666 55.9986 37.5812 58.0067 37.5816 58.6482C37.5826 60.7018 37.6194 62.7604 37.528 64.8121C37.4983 65.4775 37.5022 66.2032 37.3914 66.858C36.7672 66.8946 32.9968 67.3245 32.7781 67.1443C32.7708 67.1382 32.7659 67.1296 32.7598 67.1223C32.9425 64.4935 33.0161 61.8747 33.0545 59.2405C33.0113 57.6923 33.0412 56.1224 33.0487 54.5728Z" fill="#EC9023"/>
<path d="M33.0483 54.5728L33.089 54.3592L33.12 54.3484C33.2397 54.5381 33.2636 54.7987 33.3404 55.0104C33.6022 55.7316 34.2243 56.3208 34.9817 56.4814C35.6144 56.6154 36.2822 56.4602 36.8151 56.1021C36.9808 55.9909 37.1549 55.8666 37.2895 55.7185L37.3552 55.7014C37.1879 56.3507 36.3437 57.3877 35.7649 57.7385C35.3922 57.9642 34.9649 58.0668 34.5384 57.9461C33.9741 57.7864 33.5328 57.2937 33.2619 56.7918C33.2012 56.6793 33.1461 56.5636 33.091 56.4482C33.0936 57.082 33.177 58.7457 33.0541 59.2405C33.0109 57.6923 33.0408 56.1224 33.0483 54.5728Z" fill="#BB6119"/>
<path d="M24.5483 35.8608C24.7949 36.4004 24.7472 37.173 24.8217 37.7653C24.9663 38.8564 25.0875 39.9501 25.1852 41.0464C25.357 42.8951 25.3711 44.8945 26.1881 46.5972C26.5135 47.2754 26.998 47.8346 27.5028 48.3837C27.5059 50.1253 27.5495 51.8804 27.4995 53.6207C27.4681 56.1397 27.4988 58.6628 27.4983 61.1822C27.4981 62.2973 27.3643 63.9641 27.5599 65.0115C27.6583 65.5385 27.9891 66.0564 28.3604 66.4337C28.9141 66.9964 29.6202 67.2307 30.399 67.2345C30.9995 67.2375 31.6098 67.1737 32.21 67.1395C32.1644 67.7319 31.9483 68.2021 31.7973 68.7637C30.8708 68.9768 28.8998 68.8794 27.9865 68.6556C26.8942 68.3879 25.2727 67.6085 24.1906 67.1557C23.3538 66.8055 22.5209 66.4433 21.6802 66.1028C20.9925 65.8242 20.295 65.5692 19.6168 65.2678C17.932 64.519 17.4413 63.9515 16.7823 62.2365C16.3745 60.8399 16.6034 58.2844 16.6007 56.7445C16.6994 56.6945 16.7967 56.642 16.8927 56.5871C16.9888 56.5322 17.0834 56.475 17.1766 56.4154C17.2698 56.3558 17.3615 56.2939 17.4516 56.2297C17.5417 56.1656 17.6301 56.0992 17.717 56.0307C17.8038 55.9621 17.8888 55.8915 17.9721 55.8187C18.0555 55.7459 18.1369 55.6711 18.2165 55.5943C18.2961 55.5175 18.3737 55.4387 18.4493 55.358C18.525 55.2773 18.5986 55.1947 18.6702 55.1104C19.7018 53.9155 20.2797 52.4887 20.7528 51.0051C20.8813 50.6022 21.0667 50.122 21.0346 49.695C21.7309 47.2829 21.6492 44.0742 21.7508 41.5561C21.8035 40.248 21.9378 38.9647 22.1163 37.6691C22.2755 37.6344 22.436 37.6 22.5922 37.5534C23.5668 37.263 24.0677 36.7314 24.5483 35.8608Z" fill="url(#paint1_linear_2795_90335)"/>
<path d="M58.6782 11.0217C59.9459 10.9539 61.056 10.7752 62.0753 11.685C64.9563 14.2562 66.5951 22.0127 67.1953 25.8168C67.3449 26.7653 67.5186 27.7315 67.5646 28.6913C67.5855 29.1263 67.5573 29.603 67.3958 30.0123C67.3043 30.1599 67.2089 30.3049 67.1094 30.4473C67.01 30.5896 66.9067 30.7292 66.7995 30.8658C66.6923 31.0024 66.5815 31.136 66.4669 31.2665C66.3524 31.397 66.2344 31.5243 66.1128 31.6483C65.9912 31.7723 65.8663 31.8929 65.738 32.01C65.6098 32.127 65.4785 32.2405 65.344 32.3503C65.2094 32.4602 65.072 32.5662 64.9316 32.6685C64.7913 32.7708 64.6482 32.8691 64.5024 32.9634C64.5155 33.0475 64.5332 33.1329 64.5386 33.2178C64.5345 33.8998 64.5546 34.5684 64.6137 35.2481L64.5777 35.4221C63.4102 36.3365 62.2602 37.2478 61.0112 38.052C60.6789 38.2659 60.3175 38.4201 59.985 38.6265C60.008 40.6282 60.1405 42.6317 60.152 44.6321C59.9641 44.7173 59.8051 44.7993 59.6423 44.93L59.6438 44.9489C59.4002 45.1664 59.2378 45.4867 59.1991 45.8114C59.1472 46.4387 59.1809 47.1261 59.2311 47.7539C59.3809 48.3161 59.6112 48.5518 60.1076 48.8382L60.1773 48.8781C60.1314 49.4668 60.1961 50.071 60.2072 50.6619C60.2248 51.6014 60.2118 52.5362 60.2118 53.4747C60.1387 53.9061 60.1209 54.3736 60.1696 54.8089L60.2026 55.1311C60.2156 56.2329 60.2191 57.336 60.2466 58.4376C60.303 60.6971 60.3777 62.9551 60.1463 65.2077L60.1312 65.232C59.0859 65.3489 58.0151 65.3578 56.9641 65.4426C52.9353 65.7767 48.903 66.0608 44.8672 66.295C42.3843 66.4571 39.8624 66.5604 37.392 66.8582C37.5028 66.2034 37.4989 65.4777 37.5286 64.8123C37.62 62.7606 37.5832 60.7019 37.5822 58.6483C37.5818 58.0068 37.6672 55.9988 37.5077 55.4921C37.6101 55.3065 37.7376 55.1302 37.8225 54.9358C38.1391 54.2107 38.0137 53.3179 37.9716 52.5483L37.9698 50.7064C37.9723 50.3573 37.9732 50.0096 37.9599 49.6605L37.9301 49.5834C38.1781 49.3276 38.4098 49.0964 38.5521 48.7633C38.6731 48.0221 38.7152 47.3579 38.6173 46.6099C38.5915 46.3335 38.523 46.0572 38.37 45.8226C38.1251 45.4471 37.7505 45.292 37.332 45.1948C37.2185 44.4558 37.2929 43.6547 37.2917 42.9072L37.2777 38.5931L37.2636 38.5675C37.3355 37.4262 37.2683 36.2435 37.2706 35.097L37.2654 34.8218C36.869 34.5917 36.4175 34.4329 35.9955 34.2531C35.5911 34.0763 35.1913 33.8896 34.7962 33.6928C34.2191 33.6149 33.5602 33.0596 33.0497 32.7765C32.1417 32.3155 31.7603 31.786 31.3906 30.8596L31.0378 29.8364C30.8707 29.195 30.6199 28.5533 30.4104 27.9229C29.8158 27.8549 29.1864 27.9046 28.5895 27.9241C27.6313 27.9556 26.6734 27.9955 25.7146 27.9675C25.8245 27.9317 25.8711 27.9289 25.9453 27.8307C26.1926 27.504 25.7213 27.0439 25.5899 26.763C25.5331 26.6414 25.5797 26.6411 25.5825 26.5265C25.5847 26.4381 25.5104 26.2895 25.4759 26.2061C25.2498 25.6602 24.8697 25.1537 24.7012 24.5903C24.602 24.2588 24.6482 23.8787 24.5892 23.5365L24.4477 23.4562C23.3444 24.0328 22.2367 24.629 21.217 25.3469C21.038 25.5382 18.9691 27.0393 18.7329 27.1575C18.3545 27.4604 17.7709 27.9893 17.3536 28.1931C17.3381 28.1044 17.3262 28.0152 17.3178 27.9255C16.9831 24.5995 17.6238 16.899 19.8126 14.2746C20.5348 13.4087 21.2993 13.2306 22.3803 13.1355C23.6918 12.9374 25.0484 13.0875 26.3694 12.9203C26.783 12.8225 27.3608 12.7664 27.7728 12.8818L28.5761 12.884C30.0295 12.9489 31.5614 12.7753 33.0194 12.698L39.6859 12.372C41.3505 12.2753 43.0163 12.1088 44.6836 12.0983C44.8303 12.1144 45.0041 12.0722 45.1546 12.0648L46.5733 11.9875L49.441 11.8339C49.8768 11.8086 50.3254 11.8291 50.7529 11.7332C52.515 11.5848 54.2957 11.6114 56.0544 11.4028C56.9122 10.8236 57.707 11.0261 58.6782 11.0217Z" fill="#08304A"/>
<path d="M22.3789 13.1353C23.6904 12.9372 25.047 13.0874 26.368 12.9202C30.5752 14.9627 32.5672 19.9269 34.0074 24.0782C34.48 25.4364 34.8982 26.8111 35.2622 28.2023C35.4531 28.9313 35.5787 29.6978 35.8085 30.4136C36.9398 31.262 38.1877 31.8749 39.4423 32.5168C40.9559 33.3058 42.5023 34.0242 44.0816 34.672C45.3602 35.2089 46.6505 35.73 48.0034 36.0504C47.3748 36.6254 46.6184 37.4274 46.4095 38.2834C43.2787 37.3395 40.2543 36.1415 37.264 34.8216C36.8676 34.5915 36.4161 34.4327 35.9941 34.2529C35.5897 34.0761 35.1899 33.8894 34.7948 33.6927C33.2978 32.4424 32.8978 29.851 32.3717 28.0599C32.0564 26.986 31.6948 25.911 31.3184 24.8568C30.1227 21.5081 28.1816 17.3859 25.5166 14.9479C24.8994 14.3832 24.1843 13.8206 23.4002 13.5076C23.1062 13.3903 22.6816 13.3521 22.431 13.1743C22.4133 13.1617 22.3963 13.1483 22.3789 13.1353Z" fill="#F5C85E"/>
<path d="M58.6778 11.0217C59.9455 10.9539 61.0556 10.7752 62.0749 11.685C64.9559 14.2562 66.5948 22.0127 67.1949 25.8168C67.3445 26.7654 67.5182 27.7315 67.5642 28.6913C67.5851 29.1263 67.5569 29.603 67.3954 30.0123C67.3039 30.1599 67.2085 30.3049 67.1091 30.4473C67.0096 30.5896 66.9063 30.7292 66.7991 30.8658C66.692 31.0024 66.5811 31.136 66.4666 31.2665C66.352 31.397 66.234 31.5243 66.1124 31.6483C65.9908 31.7723 65.8659 31.8929 65.7377 32.01C65.6094 32.127 65.4781 32.2405 65.3436 32.3504C65.2091 32.4602 65.0716 32.5662 64.9312 32.6685C64.7909 32.7708 64.6478 32.8691 64.502 32.9634C64.5151 33.0475 64.5328 33.1329 64.5382 33.2178C64.5341 33.8998 64.5542 34.5684 64.6134 35.2481L64.5773 35.4221C63.4098 36.3365 62.2598 37.2479 61.0109 38.052C60.6785 38.2659 60.3171 38.4201 59.9846 38.6265C59.9348 37.8371 60.0356 37.0304 59.9295 36.245C59.268 36.8486 57.0505 38.431 56.1961 38.615C56.0908 38.3872 55.9821 38.1318 55.9305 37.8862C55.302 36.875 54.9654 36.4186 53.9844 35.708C54.2954 35.4771 54.6891 35.3163 55.0347 35.1376C55.5848 34.8569 56.1284 34.564 56.6654 34.2588C59.4756 32.6518 62.3962 30.9605 64.7981 28.7714C64.0619 24.1976 63.2654 19.5132 61.3539 15.2597C60.832 14.0986 60.2509 12.9507 59.392 11.9961C59.0577 11.6245 58.6734 11.3643 58.2732 11.0728C58.4074 11.0513 58.5428 11.0375 58.6778 11.0217Z" fill="#F5C85E"/>
<path d="M59.8849 35.7979C59.9105 35.9475 59.922 36.0932 59.9287 36.2448C59.2673 36.8485 57.0497 38.4308 56.1953 38.6148C56.09 38.3871 55.9813 38.1316 55.9297 37.8861C57.2727 37.2403 58.5734 36.5049 59.8849 35.7979Z" fill="#440B0A"/>
<path d="M59.8848 35.798C60.4698 35.3854 61.1551 35.0678 61.7741 34.7038C62.7024 34.1579 63.6034 33.5581 64.5011 32.9634C64.5141 33.0474 64.5319 33.1329 64.5373 33.2178C64.5332 33.8998 64.5533 34.5684 64.6124 35.2481L64.5764 35.4221C63.4089 36.3365 62.2589 37.2478 61.0099 38.052C60.6776 38.2659 60.3162 38.4201 59.9837 38.6265C59.9339 37.8371 60.0347 37.0304 59.9286 36.2449C59.9218 36.0934 59.9103 35.9476 59.8848 35.798Z" fill="url(#paint2_linear_2795_90335)"/>
<path d="M17.3536 28.1931C17.3381 28.1044 17.3262 28.0152 17.3178 27.9255C16.9831 24.5995 17.6238 16.899 19.8126 14.2746C20.5348 13.4087 21.2993 13.2306 22.3803 13.1355C22.3977 13.1485 22.4147 13.1619 22.4324 13.1745C22.683 13.3523 23.1077 13.3905 23.4016 13.5078C24.1857 13.8207 24.9008 14.3834 25.518 14.9481C28.183 17.3861 30.1241 21.5082 31.3198 24.857C31.6962 25.9112 32.0578 26.9862 32.3731 28.06C32.8992 29.8512 33.2992 32.4426 34.7962 33.6928C34.2191 33.6149 33.5602 33.0596 33.0497 32.7765C32.1417 32.3155 31.7603 31.786 31.3906 30.8596L31.0378 29.8364C30.8707 29.195 30.6199 28.5533 30.4104 27.9229C29.8158 27.8549 29.1864 27.9046 28.5895 27.9241C27.6313 27.9556 26.6734 27.9955 25.7146 27.9675C25.8245 27.9317 25.8711 27.9289 25.9453 27.8307C26.1926 27.504 25.7213 27.0439 25.5899 26.763C25.5331 26.6414 25.5797 26.641 25.5825 26.5265C25.5847 26.4381 25.5104 26.2895 25.4759 26.206C25.2498 25.6602 24.8697 25.1537 24.7012 24.5903C24.602 24.2588 24.6482 23.8787 24.5892 23.5365L24.4477 23.4562C23.3444 24.0328 22.2367 24.629 21.217 25.3469C21.038 25.5382 18.9691 27.0393 18.7329 27.1575C18.3545 27.4604 17.7709 27.9893 17.3536 28.1931Z" fill="url(#paint3_linear_2795_90335)"/>
<path d="M27.9623 21.9141C28.7373 23.1166 29.4572 25.2358 29.9473 26.6206C30.0998 27.0512 30.2311 27.504 30.4099 27.9229C29.8153 27.8548 29.1859 27.9045 28.589 27.9241C27.6309 27.9555 26.6729 27.9955 25.7141 27.9674C25.8241 27.9316 25.8706 27.9288 25.9448 27.8307C26.1921 27.504 25.7208 27.0438 25.5895 26.763C25.5327 26.6414 25.5792 26.641 25.582 26.5265C25.5842 26.438 25.5099 26.2895 25.4754 26.206C25.2493 25.6602 24.8692 25.1537 24.7007 24.5903C24.6015 24.2588 24.6477 23.8787 24.5888 23.5365L24.4473 23.4562C25.2049 22.8725 27.0588 22.3359 27.9623 21.9141Z" fill="#703E0F"/>
<path d="M18.7324 27.1574C18.794 27.0923 18.8119 27.0433 18.823 26.9532C18.8614 26.6409 18.8373 26.2912 18.8475 25.9751C18.8653 25.3194 18.9004 24.6646 18.9528 24.0108C19.1198 21.9159 19.4868 19.3427 20.3069 17.4052C20.5575 16.8131 20.887 16.0655 21.5337 15.8208C22.2039 15.5671 22.8685 15.9227 23.4675 16.1983L23.4513 16.2377C23.1725 16.9029 22.8185 17.5114 22.5817 18.2004C21.9634 19.9996 21.6456 21.8573 21.3505 23.7302C21.2795 24.1806 21.0816 24.9138 21.2165 25.3468C21.0375 25.5381 18.9687 27.0392 18.7324 27.1574Z" fill="#6A4E1A"/>
<path d="M23.4669 16.1982C25.6236 17.8657 26.7157 19.5425 27.9618 21.9139C27.0582 22.3358 25.2043 22.8724 24.4467 23.4561C23.3433 24.0327 22.2357 24.6289 21.2159 25.3468C21.081 24.9138 21.279 24.1806 21.35 23.7301C21.645 21.8573 21.9629 19.9996 22.5811 18.2004C22.8179 17.5114 23.1719 16.9029 23.4507 16.2376L23.4669 16.1982Z" fill="#001D21"/>
<path d="M53.2657 24.5718C54.0076 24.2854 54.7237 23.8952 55.4301 23.5312C56.7946 22.8192 58.1493 22.089 59.4943 21.3408C60.2745 20.9084 61.0524 20.4388 61.8556 20.0513C62.6644 22.8353 63.2062 25.6526 63.6637 28.5119C62.1753 29.6677 60.6109 30.6871 59.0263 31.7034C58.2124 32.2253 57.4044 32.7698 56.5722 33.2612C55.7818 33.7279 54.9841 34.1966 54.1786 34.6363C53.8151 34.8347 53.3073 35.0057 52.9959 35.2711C51.4057 34.8723 50.2866 34.9356 48.7709 35.5757C48.7138 35.4963 48.6673 35.4473 48.5796 35.4016C48.0121 35.1061 47.3434 34.9321 46.7385 34.72C46.035 34.4733 45.3381 34.1896 44.6529 33.8964C43.3038 33.314 41.9757 32.6873 40.6684 32.0163C39.3611 31.3453 38.0776 30.6315 36.8178 29.875C36.4844 29.0507 36.3587 28.0986 36.098 27.2425C35.5243 25.3676 34.8816 23.5167 34.1699 21.6896C35.1854 22.0481 36.1776 22.4951 37.1902 22.8685C38.8767 23.4828 40.5907 24.0075 42.332 24.4427C43.0303 24.6199 43.7816 24.8541 44.4953 24.9376C44.5079 24.9342 44.5204 24.9307 44.533 24.9276C44.718 24.8806 44.9689 24.8399 45.1392 24.9511C45.3456 25.0859 45.3799 25.3435 45.4353 25.5647C46.031 26.1731 48.1359 26.6985 49.013 26.971C50.131 26.4572 51.2642 25.9779 52.3654 25.4284C52.3541 25.3123 52.3409 25.1945 52.3602 25.0785C52.3894 24.9033 52.4624 24.7181 52.6157 24.616C52.8361 24.4692 53.0248 24.5146 53.2657 24.5718Z" fill="#1D415C"/>
<path d="M46.0479 30.5605C46.0479 30.5948 46.034 30.6358 46.0265 30.6695C45.9789 30.7214 45.9569 30.7621 45.8871 30.7844C45.7171 30.8385 45.5576 30.7635 45.4079 30.6849C45.0149 30.4783 44.1982 29.8222 44.1038 29.3751C44.0737 29.2327 44.0999 29.1427 44.1854 29.0242C44.5168 29.5206 45.2716 30.3996 45.8794 30.5405C45.9353 30.5535 45.9909 30.5567 46.0479 30.5605Z" fill="#08304A"/>
<path d="M52.3667 25.4283C52.3554 25.3122 52.3423 25.1944 52.3615 25.0785C52.3907 24.9032 52.4637 24.718 52.617 24.6159C52.8374 24.4692 53.0261 24.5145 53.267 24.5718C53.6892 25.0525 54.0437 25.8056 53.9894 26.4582C53.9722 26.6645 53.9123 26.9613 53.724 27.0839C53.6224 27.1501 53.5063 27.1429 53.3962 27.1065C53.1641 27.0298 52.9827 26.8828 52.818 26.7084C52.114 27.0111 51.3905 27.2925 50.6979 27.6183C51.3729 27.8229 52.0447 28.0373 52.7134 28.2615C53.0042 28.1436 53.3577 28.0121 53.6696 28.1367C53.7955 28.187 53.883 28.2811 53.9311 28.4075C54.0319 28.6724 53.9367 28.9597 53.815 29.1995C53.648 29.5284 53.2983 30.0646 52.9343 30.1807C52.8085 30.2208 52.681 30.2164 52.5642 30.1517C52.3521 30.034 52.3168 29.8229 52.253 29.6089C51.5468 29.1736 49.8188 28.5642 49.0097 28.3659C48.1455 28.7619 47.2863 29.1514 46.4776 29.6554C46.5159 29.84 46.5701 30.0372 46.4483 30.2042C46.3498 30.3394 46.1798 30.4557 46.0492 30.5606C45.9922 30.5568 45.9365 30.5536 45.8807 30.5406C45.2729 30.3996 44.518 29.5207 44.1867 29.0243C44.1796 28.8979 44.214 28.7617 44.2847 28.6555C44.3733 28.5223 44.516 28.4483 44.6713 28.4229C44.9913 28.3704 45.2129 28.4602 45.4656 28.6493C45.9674 28.3521 46.5085 28.1476 47.0478 27.93C46.4921 27.6765 45.8387 27.5924 45.2442 27.4686C44.9648 27.5772 44.5835 27.7818 44.2824 27.7139C44.0465 27.6608 43.9557 27.4834 43.8412 27.2919C43.8326 26.9746 43.8098 26.7722 44.0191 26.5142C44.2039 25.9497 44.0144 25.3953 44.4966 24.9375C44.5092 24.9342 44.5217 24.9307 44.5343 24.9275C44.7194 24.8805 44.9702 24.8398 45.1405 24.9511C45.3469 25.0858 45.3812 25.3434 45.4366 25.5646C46.0323 26.1731 48.1372 26.6984 49.0144 26.971C50.1323 26.4571 51.2655 25.9779 52.3667 25.4283Z" fill="#F7F3CC"/>
<path d="M44.0191 26.5142C44.0205 26.8231 44.0504 27.0681 44.2786 27.3014C44.3864 27.4116 44.5244 27.4849 44.6818 27.4766C44.8397 27.4683 44.9787 27.3831 45.0793 27.2647C45.1348 27.1993 45.1786 27.1275 45.2221 27.0538C45.5402 27.1457 47.1789 27.6145 47.2951 27.7986C47.2127 27.859 47.1438 27.8951 47.0478 27.9299C46.4921 27.6765 45.8387 27.5924 45.2442 27.4686C44.9648 27.5772 44.5835 27.7817 44.2824 27.7139C44.0465 27.6608 43.9557 27.4834 43.8412 27.2919C43.8326 26.9745 43.8098 26.7722 44.0191 26.5142Z" fill="#08304A"/>
<path d="M56.053 11.4028C56.9849 11.4108 57.7256 11.6066 58.3991 12.2857C59.8191 13.7178 60.8541 16.5397 61.4952 18.4194C59.456 19.5381 57.4075 20.6394 55.3496 21.7231C54.5926 22.1187 53.8519 22.6066 53.0588 22.9228C52.9198 23.1983 52.7864 23.429 52.4743 23.5271C52.2053 23.6117 51.6541 23.5959 51.5181 23.9034C51.2765 24.4495 51.7718 25.4945 51.1118 25.8877C50.9336 25.9938 50.7403 25.9709 50.5498 25.9124C50.1515 25.79 49.874 25.5831 49.6813 25.2102C49.5912 25.0357 49.5248 24.8499 49.4582 24.6656C49.4366 24.7293 49.4394 24.6965 49.4509 24.7641L49.4248 24.7529C49.4464 25.0751 49.4747 25.3967 49.5095 25.7177C49.4088 25.9186 49.3183 26.1313 49.0886 26.2106C48.8876 26.28 48.6179 26.2668 48.4305 26.1631C48.2234 26.0486 48.1211 25.8258 48.0702 25.604C47.9991 25.2935 47.9977 24.9496 47.9813 24.6316C47.9146 24.9548 47.8605 25.2875 47.7716 25.6052C47.5537 25.8224 47.3245 26.0325 46.9966 26.0331C46.7894 26.0335 46.5389 25.9614 46.3887 25.8127C45.9239 25.3527 46.4511 24.2588 45.8992 23.9681C45.5589 23.7889 45.0195 23.8178 44.6353 23.6995C43.0016 23.2601 41.3409 22.9183 39.7284 22.401C37.6432 21.732 35.6341 20.8741 33.5668 20.1585C33.2633 19.67 33.021 19.1342 32.7413 18.6304C31.7792 16.8974 30.6676 15.1135 29.1265 13.831C28.7078 13.4827 28.2342 13.225 27.7994 12.9027L27.7715 12.8817L28.5748 12.884C30.0281 12.9489 31.5601 12.7753 33.018 12.698L39.6846 12.372C41.3492 12.2753 43.015 12.1088 44.6823 12.0983C44.829 12.1144 45.0028 12.0722 45.1533 12.0648L46.572 11.9874L49.4397 11.8339C49.8755 11.8086 50.3241 11.8291 50.7516 11.7331C52.5137 11.5848 54.2944 11.6114 56.053 11.4028Z" fill="#E43B31"/>
<path d="M44.6366 23.6994C43.9586 22.9205 44.2712 22.1852 43.9756 21.3135C43.6082 20.2302 42.727 19.3065 42.8147 18.0974C42.876 17.2507 43.3629 16.5177 43.992 15.9737C45.2268 14.9058 46.9373 14.4939 48.5408 14.6188C50.0641 14.7375 51.7093 15.3863 52.7095 16.5793C53.9521 18.0615 53.0861 19.2659 52.9716 20.906C52.9242 21.5835 53.1217 22.2509 53.06 22.9227C52.9211 23.1982 52.7877 23.4289 52.4755 23.5271C52.2066 23.6117 51.6554 23.5958 51.5194 23.9033C51.2777 24.4494 51.773 25.4944 51.113 25.8876C50.9348 25.9938 50.7416 25.9708 50.551 25.9123C50.1527 25.79 49.8752 25.5831 49.6825 25.2101C49.5924 25.0357 49.526 24.8499 49.4594 24.6655C49.4379 24.7293 49.4406 24.6964 49.4521 24.764L49.426 24.7528C49.4477 25.075 49.4759 25.3966 49.5108 25.7176C49.4101 25.9185 49.3195 26.1312 49.0898 26.2105C48.8888 26.28 48.6191 26.2668 48.4317 26.1631C48.2246 26.0485 48.1223 25.8257 48.0715 25.6039C48.0003 25.2934 47.999 24.9496 47.9825 24.6315C47.9159 24.9547 47.8618 25.2875 47.7729 25.6051C47.5549 25.8224 47.3257 26.0325 46.9978 26.033C46.7906 26.0334 46.5402 25.9614 46.3899 25.8126C45.9252 25.3526 46.4523 24.2587 45.9005 23.9681C45.5602 23.7889 45.0207 23.8177 44.6366 23.6994Z" fill="url(#paint4_linear_2795_90335)"/>
<path d="M48.5095 21.8818C48.7974 21.834 49.1087 21.8653 49.3642 22.0129C49.5741 22.134 49.7375 22.3307 49.7961 22.5679C49.8463 22.7709 49.8204 22.9864 49.7082 23.1645C49.5308 23.4459 49.2538 23.5229 48.9488 23.5845C48.7303 23.6304 48.4337 23.5814 48.2303 23.4952C47.9841 23.3909 47.7743 23.1875 47.6891 22.9311C47.6812 22.9067 47.6745 22.8821 47.6691 22.8571C47.6637 22.8321 47.6596 22.8069 47.6568 22.7814C47.6541 22.756 47.6526 22.7306 47.6524 22.705C47.6522 22.6795 47.6533 22.6539 47.6558 22.6285C47.6583 22.603 47.6621 22.5777 47.6671 22.5527C47.6722 22.5276 47.6785 22.5029 47.6861 22.4785C47.6937 22.4541 47.7025 22.4301 47.7126 22.4066C47.7226 22.3831 47.7339 22.3602 47.7463 22.3379C47.9149 22.0397 48.2002 21.9565 48.5095 21.8818Z" fill="#08304A"/>
<path d="M50.121 19.3385C50.3754 19.3348 50.6088 19.3587 50.8399 19.4723C50.8624 19.4836 50.8847 19.4954 50.9066 19.5079C50.9286 19.5203 50.9502 19.5332 50.9714 19.5467C50.9927 19.5602 51.0137 19.5742 51.0342 19.5888C51.0548 19.6033 51.075 19.6184 51.0949 19.634C51.1147 19.6496 51.1341 19.6657 51.1531 19.6822C51.1721 19.6988 51.1906 19.7158 51.2088 19.7333C51.2269 19.7508 51.2446 19.7688 51.2618 19.7872C51.2791 19.8056 51.2958 19.8244 51.312 19.8437C51.3283 19.863 51.3441 19.8827 51.3593 19.9027C51.3746 19.9228 51.3894 19.9432 51.4036 19.964C51.4178 19.9848 51.4315 20.006 51.4447 20.0275C51.4578 20.049 51.4704 20.0708 51.4825 20.0929C51.4945 20.1151 51.506 20.1375 51.517 20.1602C51.5279 20.183 51.5382 20.206 51.5479 20.2292C51.5577 20.2524 51.5669 20.2759 51.5754 20.2997C51.584 20.3234 51.5919 20.3473 51.5992 20.3714C51.6971 20.6858 51.691 21.0386 51.5295 21.3312C51.3384 21.6773 51.0368 21.7938 50.679 21.8959C50.3946 21.8793 50.1382 21.859 49.8778 21.7282C49.5328 21.5549 49.2526 21.255 49.1312 20.8856C49.0363 20.5968 49.0497 20.2672 49.1902 19.9951C49.3878 19.6124 49.733 19.46 50.121 19.3385Z" fill="#08304A"/>
<path d="M46.2858 19.4589C46.551 19.4485 46.7818 19.4629 47.0285 19.5696C47.072 19.5882 47.1145 19.6089 47.1559 19.6317C47.1973 19.6545 47.2375 19.6794 47.2765 19.7063C47.3154 19.7332 47.3528 19.7619 47.3889 19.7926C47.4249 19.8232 47.4594 19.8556 47.4922 19.8897C47.5249 19.9238 47.5559 19.9595 47.5851 19.9968C47.6144 20.0339 47.6416 20.0725 47.6669 20.1125C47.6923 20.1525 47.7155 20.1936 47.7367 20.2359C47.7579 20.2782 47.7769 20.3214 47.7937 20.3657C47.9112 20.6707 47.9251 21.0286 47.7842 21.3286C47.6165 21.6856 47.3037 21.8609 46.9461 21.9836C46.593 22.0387 46.2718 22.0358 45.9489 21.8622C45.9105 21.8416 45.8733 21.819 45.8372 21.7947C45.8011 21.7703 45.7663 21.7442 45.7328 21.7164C45.6993 21.6885 45.6672 21.6591 45.6366 21.628C45.6061 21.597 45.5772 21.5645 45.5498 21.5306C45.5225 21.4966 45.4969 21.4614 45.4731 21.425C45.4493 21.3885 45.4274 21.3509 45.4073 21.3122C45.3872 21.2735 45.3691 21.2339 45.353 21.1935C45.3369 21.153 45.3229 21.1118 45.3108 21.07C45.213 20.7326 45.243 20.3415 45.4229 20.036C45.6212 19.699 45.9209 19.5534 46.2858 19.4589Z" fill="#08304A"/>
<path d="M37.2655 34.8215C40.2558 36.1415 43.2802 37.3395 46.411 38.2834C46.6198 37.4273 47.3763 36.6254 48.0048 36.0504C48.2653 35.9124 48.5152 35.7257 48.7722 35.5755C50.288 34.9354 51.407 34.8721 52.9973 35.2709C53.3448 35.3829 53.6496 35.5709 53.9848 35.7078C54.9659 36.4183 55.3025 36.8747 55.9309 37.886C55.9826 38.1315 56.0913 38.387 56.1966 38.6147C57.0509 38.4308 59.2685 36.8484 59.93 36.2447C60.0361 37.0302 59.9353 37.8369 59.9851 38.6263C60.0081 40.628 60.1406 42.6315 60.152 44.6318C59.9642 44.7171 59.8052 44.7991 59.6424 44.9297L59.6439 44.9486C59.4003 45.1661 59.2379 45.4865 59.1991 45.8111C59.1473 46.4385 59.1809 47.1259 59.2312 47.7536C59.381 48.3158 59.6113 48.5516 60.1077 48.8379L60.1774 48.8779C60.1315 49.4665 60.1962 50.0708 60.2073 50.6617C60.2249 51.6011 60.2119 52.536 60.2119 53.4745C60.1388 53.9059 60.121 54.3734 60.1697 54.8087C60.1676 54.8988 60.1678 54.9668 60.1398 55.054C60.1036 55.0349 60.0931 55.032 60.0598 54.9993C59.4956 54.4467 59.6448 52.866 59.6529 52.1103C58.4695 52.2496 57.2823 52.3409 56.0916 52.3843L56.088 52.0282C56.0957 51.8755 56.0866 51.7182 56.0854 51.5651C56.1978 51.4743 56.3016 51.3707 56.4077 51.2725L56.447 50.4177C56.4379 50.1895 56.3592 49.9681 56.1901 49.8096C55.9952 49.6268 55.7616 49.6055 55.5085 49.584C54.9612 49.5373 54.4008 49.5741 53.852 49.5897C53.0143 49.612 52.1769 49.641 51.3396 49.6768C49.284 49.749 47.2289 49.8315 45.1741 49.9243C44.7227 49.9486 44.4655 49.9388 44.1486 50.2925C44.0627 50.5064 44.0339 50.7209 44.0007 50.9475L43.9808 50.9601C43.4426 50.8466 42.6218 50.9533 42.0499 50.9382C40.6959 50.9024 39.3186 50.8334 37.9699 50.7062C37.9723 50.3571 37.9733 50.0093 37.96 49.6603L37.9302 49.5832C38.1782 49.3274 38.4098 49.0961 38.5522 48.7631C38.6732 48.0219 38.7153 47.3577 38.6173 46.6097C38.5916 46.3333 38.5231 46.057 38.3701 45.8224C38.1252 45.4468 37.7506 45.2918 37.3321 45.1946C37.2186 44.4556 37.293 43.6545 37.2918 42.907L37.2777 38.5929L37.2637 38.5672C37.3355 37.426 37.2684 36.2433 37.2707 35.0968L37.2655 34.8215Z" fill="#852E2B"/>
<path d="M56.1953 38.6149C57.0497 38.4309 59.2673 36.8485 59.9287 36.2449C60.0348 37.0303 59.9341 37.8371 59.9838 38.6264C60.0069 40.6282 60.1393 42.6316 60.1508 44.632C59.963 44.7172 59.8039 44.7992 59.6412 44.9299C59.5573 44.84 59.5473 44.8009 59.5347 44.6796C59.4618 43.9803 59.5222 43.2412 59.5169 42.5376C59.5146 40.8402 59.5003 39.1429 59.4741 37.4457C58.5594 38.0851 57.405 38.8628 56.3564 39.2596C56.3163 39.042 56.2527 38.8285 56.1953 38.6149Z" fill="#5C1A18"/>
<path d="M60.0323 49.856C59.6028 49.6197 59.1145 49.5028 58.8108 49.0838C58.4377 48.5691 58.3913 46.9671 58.5134 46.327C58.5545 46.1118 58.6566 45.8523 58.8537 45.7347C58.9537 45.6749 59.0415 45.6648 59.1542 45.6958L59.1977 45.8112C59.1459 46.4386 59.1795 47.126 59.2298 47.7537C59.3796 48.3159 59.6099 48.5517 60.1062 48.838L60.176 48.878C60.1301 49.4666 60.1948 50.0709 60.2059 50.6618C60.2235 51.6012 60.2105 52.5361 60.2105 53.4746C60.1373 53.906 60.1196 54.3735 60.1683 54.8088C60.1662 54.8989 60.1664 54.9669 60.1384 55.0541C60.1022 55.035 60.0917 55.0321 60.0584 54.9994C59.4941 54.4468 59.6434 52.8661 59.6515 52.1104C58.468 52.2497 57.2809 52.341 56.0902 52.3844L56.0866 52.0283C56.0943 51.8756 56.0852 51.7183 56.084 51.5652C56.1964 51.4744 56.3002 51.3709 56.4062 51.2726L56.4456 50.4178C56.8759 50.2719 57.3871 50.2694 57.8371 50.2147C58.5762 50.1246 59.3057 50.0199 60.0323 49.856Z" fill="#5C1A18"/>
<path d="M37.2655 34.8215C40.2558 36.1415 43.2802 37.3395 46.411 38.2834C46.0262 39.8999 46.0162 41.5332 46.9131 42.9904C46.9593 43.0653 47.0073 43.139 47.057 43.2115C47.1068 43.2841 47.1584 43.3554 47.2117 43.4254C47.265 43.4954 47.32 43.564 47.3766 43.6314C47.4333 43.6987 47.4915 43.7645 47.5514 43.829C47.6113 43.8934 47.6728 43.9564 47.7358 44.0178C47.7987 44.0792 47.8632 44.1391 47.9291 44.1974C47.995 44.2557 48.0623 44.3123 48.131 44.3672C48.1997 44.4222 48.2697 44.4754 48.3411 44.527C48.4124 44.5785 48.4849 44.6283 48.5587 44.6762C48.6324 44.7242 48.7073 44.7703 48.7834 44.8147C48.8593 44.8589 48.9364 44.9013 49.0145 44.9418C49.0927 44.9824 49.1717 45.0209 49.2516 45.0575C49.3316 45.0942 49.4125 45.1288 49.4942 45.1615C49.5759 45.1941 49.6584 45.2248 49.7416 45.2534C49.8247 45.282 49.9086 45.3086 49.9931 45.3331C50.0776 45.3576 50.1627 45.38 50.2483 45.4003C51.5179 45.6925 52.9275 45.4748 54.0297 44.7759C54.3984 44.5421 54.7274 44.2441 55.0547 43.9567C55.0522 44.0441 55.0236 44.1018 54.9733 44.1736C54.254 45.1977 52.9935 45.8828 51.7766 46.0819C50.3282 46.319 48.8094 46.0319 47.6111 45.1617C46.2358 44.1628 45.68 42.8255 45.4281 41.1929C44.6741 41.1125 43.9129 40.8341 43.1866 40.6151C41.1948 40.006 39.2251 39.332 37.2777 38.5929L37.2637 38.5672C37.3355 37.426 37.2684 36.2433 37.2707 35.0968L37.2655 34.8215Z" fill="#5C1A18"/>
<path d="M48.7711 35.5757C50.2869 34.9355 51.406 34.8723 52.9962 35.2711C53.3437 35.3831 53.6485 35.5711 53.9838 35.708C54.9648 36.4185 55.3014 36.8749 55.9299 37.8862C55.9815 38.1317 56.0902 38.3872 56.1955 38.6149C56.2528 38.8285 56.3165 39.042 56.3566 39.2597C56.5326 40.6315 56.4048 41.8261 55.6817 43.0317C55.4888 43.3533 55.2542 43.6419 55.0536 43.9569C54.7263 44.2443 54.3974 44.5423 54.0286 44.7761C52.9264 45.475 51.5168 45.6927 50.2472 45.4005C50.1616 45.3802 50.0765 45.3578 49.9921 45.3333C49.9075 45.3087 49.8237 45.2822 49.7405 45.2536C49.6573 45.2249 49.5749 45.1943 49.4931 45.1616C49.4114 45.129 49.3306 45.0943 49.2506 45.0577C49.1706 45.0211 49.0916 44.9825 49.0135 44.942C48.9353 44.9015 48.8583 44.8591 48.7823 44.8148C48.7062 44.7705 48.6313 44.7244 48.5576 44.6764C48.4838 44.6284 48.4113 44.5787 48.34 44.5272C48.2687 44.4756 48.1986 44.4224 48.1299 44.3674C48.0612 44.3125 47.994 44.2559 47.9281 44.1976C47.8621 44.1393 47.7977 44.0794 47.7347 44.018C47.6717 43.9566 47.6102 43.8936 47.5503 43.8291C47.4904 43.7647 47.4322 43.6988 47.3756 43.6315C47.3189 43.5642 47.2639 43.4955 47.2106 43.4255C47.1573 43.3555 47.1057 43.2843 47.056 43.2117C47.0062 43.1392 46.9582 43.0654 46.9121 42.9905C46.0151 41.5334 46.0251 39.9001 46.4099 38.2836C46.6188 37.4275 47.3752 36.6255 48.0038 36.0505C48.2642 35.9126 48.5142 35.7259 48.7711 35.5757Z" fill="#F9AA1A"/>
<path d="M51.6758 35.3474C52.9703 35.5797 54.2165 35.8569 55.0174 37.001C55.4038 37.553 55.7591 38.6604 55.6395 39.329C55.6312 39.3757 55.6138 39.4122 55.5933 39.4544L55.5208 39.4765C55.135 39.2637 54.8923 38.3393 54.2352 37.9305C54.0012 37.7096 53.7718 37.4802 53.511 37.2909C53.1308 36.9751 52.6659 36.8314 52.1981 36.6996C52.001 36.2586 51.8553 35.7958 51.6758 35.3474Z" fill="#FEE35B"/>
<path d="M54.8865 39.9848C54.9127 40.2041 54.9017 40.4274 54.8818 40.6468C54.8049 41.4964 54.3877 42.3861 53.725 42.9346C53.0275 43.512 52.1129 43.7441 51.2219 43.6495C50.288 43.5504 49.4793 43.0991 48.8905 42.3676C48.2542 41.5771 48.0416 40.5752 48.1603 39.5793C48.2687 38.6697 48.6979 37.8303 49.4247 37.2615C50.2572 36.61 51.191 36.5774 52.1989 36.6997C52.6666 36.8314 53.1315 36.9752 53.5118 37.2909C53.497 37.2969 53.4829 37.305 53.4675 37.3089C53.216 37.3723 52.6952 37.0905 52.4275 37.0263C51.4013 36.78 50.3821 37.2647 49.7821 38.0993C49.2825 38.7939 49.118 39.6628 49.2659 40.5004C49.4069 41.2988 49.8364 42.02 50.5065 42.4825C51.1405 42.9202 51.8739 43.0722 52.6313 42.9297C53.3611 42.7925 53.9788 42.3532 54.389 41.7403C54.884 41.0005 54.7504 40.7679 54.8865 39.9848Z" fill="#852E2B"/>
<path d="M54.8857 39.9849C54.7496 40.7679 54.8832 41.0006 54.3882 41.7404C53.978 42.3532 53.3603 42.7925 52.6305 42.9298C51.8731 43.0722 51.1397 42.9203 50.5056 42.4826C49.8356 42.02 49.4061 41.2989 49.2651 40.5005C49.1172 39.6629 49.2817 38.7939 49.7813 38.0993C50.3813 37.2647 51.4005 36.78 52.4267 37.0264C52.6944 37.0906 53.2152 37.3724 53.4667 37.309C53.4821 37.3051 53.4962 37.297 53.511 37.291C53.7717 37.4803 54.0012 37.7097 54.2352 37.9307C54.5684 38.5795 54.9084 39.2336 54.8857 39.9849Z" fill="#CD2F2B"/>
<path d="M52.366 37.357C52.7028 37.303 53.0826 37.446 53.3608 37.6261C53.9363 37.9984 54.3674 38.6489 54.4978 39.3207C54.6126 39.9129 54.4989 40.5736 54.1453 41.0683C53.7624 41.6036 53.2109 41.7726 52.5971 41.874C52.5444 41.875 52.4917 41.8738 52.439 41.8706C52.3863 41.8674 52.3338 41.8621 52.2816 41.8547C52.2293 41.8473 52.1775 41.8378 52.126 41.8263C52.0744 41.8148 52.0235 41.8012 51.9731 41.7857C51.9227 41.7701 51.8729 41.7526 51.8238 41.733C51.7748 41.7135 51.7267 41.6921 51.6793 41.6687C51.632 41.6453 51.5857 41.6201 51.5404 41.5931C51.495 41.5661 51.4509 41.5373 51.4078 41.5068C50.8711 41.132 50.5113 40.5288 50.4 39.8873C50.2971 39.2938 50.4219 38.6658 50.7848 38.179C51.181 37.6476 51.7381 37.4479 52.366 37.357Z" fill="#E43B31"/>
<path d="M52.0206 37.7717C52.1238 37.7579 52.2381 37.7501 52.3414 37.7627C52.6627 37.8017 52.9533 38.0267 53.1352 38.2846C53.3471 38.585 53.4635 38.9967 53.3856 39.3613C53.3261 39.6392 53.1777 39.8134 52.9426 39.9631C52.524 39.8977 52.1775 39.796 51.8735 39.4767C51.6576 39.25 51.5153 38.9519 51.526 38.6347C51.5387 38.2551 51.7587 38.0142 52.0206 37.7717Z" fill="#F7F3CC"/>
<path d="M44.1471 50.2926C44.4641 49.9389 44.7212 49.9487 45.1726 49.9245C47.2274 49.8316 49.2826 49.7491 51.3381 49.677C52.1754 49.6411 53.0128 49.6121 53.8505 49.5899C54.3993 49.5742 54.9597 49.5375 55.507 49.5841C55.7601 49.6057 55.9937 49.627 56.1886 49.8097C56.3577 49.9682 56.4364 50.1896 56.4455 50.4178L56.4062 51.2727C56.3002 51.3709 56.1963 51.4744 56.0839 51.5653C56.0851 51.7183 56.0942 51.8757 56.0865 52.0283L56.0901 52.3844C57.2809 52.341 58.468 52.2497 59.6514 52.1104C59.6433 52.8661 59.4941 54.4468 60.0583 54.9994C60.0916 55.0321 60.1021 55.035 60.1383 55.0541C60.1663 54.9669 60.1661 54.8989 60.1682 54.8089L60.2012 55.131C60.2142 56.2328 60.2177 57.336 60.2452 58.4375C60.3016 60.6971 60.3763 62.955 60.1449 65.2076L60.1298 65.2319C59.0845 65.3489 58.0137 65.3577 56.9627 65.4425C52.9339 65.7766 48.9016 66.0607 44.8658 66.2949C42.3829 66.457 39.861 66.5603 37.3906 66.8581C37.5014 66.2033 37.4975 65.4776 37.5272 64.8122C37.6186 62.7605 37.5818 60.7018 37.5808 58.6482C37.5804 58.0067 37.6658 55.9987 37.5063 55.492C37.6087 55.3064 37.7362 55.1301 37.8211 54.9357C38.1377 54.2107 38.0123 53.3178 37.9702 52.5482L37.9684 50.7064C39.3171 50.8335 40.6945 50.9025 42.0484 50.9383C42.6203 50.9534 43.4411 50.8467 43.9793 50.9603L43.9992 50.9477C44.0324 50.721 44.0612 50.5065 44.1471 50.2926Z" fill="#852E2B"/>
<path d="M37.9688 50.7063C39.3174 50.8335 40.6948 50.9025 42.0487 50.9383C42.6206 50.9533 43.4414 50.8467 43.9796 50.9602C43.9969 51.7503 43.9309 52.5761 44.0165 53.3601L44.0128 56.4032C44.0127 56.9539 43.9846 57.5281 44.0278 58.0765C44.4079 58.6294 45.9121 59.3212 46.5577 59.7807C47.0908 60.1603 47.572 60.6183 48.0519 61.0621C48.4813 61.0115 48.9129 61.0071 49.3443 60.983C50.4838 60.9195 51.6441 60.8743 52.7728 60.7009C53.0629 60.4732 53.3129 60.1775 53.5727 59.9158C53.9527 59.5331 54.3484 59.2133 54.8021 58.9225L54.8187 58.9915C54.5465 59.5702 53.4273 60.2397 52.9205 60.7072C52.5339 61.0638 52.22 61.4943 51.8289 61.8525C51.2936 61.9465 50.736 61.9633 50.194 62C49.2762 62.0622 48.3577 62.1119 47.4384 62.149C46.7309 61.778 46.0695 61.3241 45.3842 60.9147C44.5424 60.4118 43.439 59.9773 42.7801 59.2418C42.7344 58.4219 42.7611 57.6115 42.7657 56.7915L42.7725 53.2582C41.1626 53.119 39.5677 52.7889 37.9705 52.5482L37.9688 50.7063Z" fill="#5C1A18"/>
<path d="M44.1486 50.2926C44.4656 49.9389 44.7227 49.9487 45.1741 49.9245C47.2289 49.8316 49.2841 49.7491 51.3397 49.677C52.1769 49.6411 53.0144 49.6121 53.8521 49.5899C54.4008 49.5742 54.9612 49.5375 55.5086 49.5841C55.7616 49.6057 55.9952 49.627 56.1901 49.8097C56.3593 49.9682 56.4379 50.1896 56.4471 50.4178L56.4077 51.2727C56.3017 51.3709 56.1979 51.4744 56.0854 51.5653C56.0866 51.7183 56.0957 51.8757 56.088 52.0283L56.0916 52.3844C56.1287 53.331 56.1066 54.2681 56.0897 55.2148C56.0727 56.1696 56.091 57.1786 55.8915 58.1165C55.554 58.4114 55.1101 58.6024 54.8033 58.9225C54.3497 59.2134 53.954 59.5331 53.574 59.9159C53.3141 60.1775 53.0641 60.4732 52.774 60.701C51.6454 60.8744 50.485 60.9196 49.3455 60.9831C48.9141 61.0071 48.4825 61.0115 48.0531 61.0621C47.5732 60.6184 47.092 60.1603 46.5589 59.7808C45.9133 59.3213 44.4091 58.6295 44.029 58.0766C43.9858 57.5282 44.014 56.9539 44.014 56.4032L44.0177 53.3602C43.9321 52.5761 43.9981 51.7503 43.9808 50.9603L44.0007 50.9477C44.034 50.721 44.0627 50.5065 44.1486 50.2926Z" fill="#F9AA1A"/>
<path d="M45.2473 52.322C46.624 53.3764 47.8331 54.9594 49.719 54.9245C49.7203 54.6508 49.7013 54.358 49.7339 54.0872C49.7691 54.4922 49.7884 54.8979 49.7916 55.3044C49.7934 55.7805 49.7308 56.3218 49.8378 56.7837C49.8888 57.0037 49.9912 57.2218 50.1713 57.3651C50.4283 57.5695 50.7266 57.5459 51.0322 57.5033C51.1298 57.4898 51.2704 57.4763 51.3337 57.3975C51.2417 57.3722 51.1696 57.3616 51.0742 57.363C51.3587 57.3662 51.5027 57.3397 51.756 57.2025C51.7466 57.4098 51.6606 57.639 51.5119 57.7863C51.2352 58.0603 50.8268 58.1312 50.4518 58.122C50.1809 58.1154 49.8809 58.054 49.691 57.8446C49.3427 57.4606 49.5372 56.0101 49.5651 55.4703C47.6338 55.4833 46.6444 54.2361 45.2267 53.1465L45.2148 53.112C45.2281 52.8488 45.2389 52.5855 45.2473 52.322Z" fill="#BB6119"/>
<path d="M49.7484 54.0001C49.7583 53.9191 49.7669 53.8316 49.8005 53.7566C49.8822 53.5747 50.0706 53.4737 50.2491 53.4084C50.6509 53.2616 51.342 53.2106 51.7345 53.395C51.9153 53.4994 51.9695 53.6088 52.0369 53.802C52.0349 54.1139 52.0284 54.4264 52.0317 54.7383L52.0268 55.3823C52.0444 55.9861 52.1327 56.6866 51.7565 57.2025C51.5032 57.3397 51.3591 57.3662 51.0747 57.363C51.1701 57.3616 51.2422 57.3722 51.3341 57.3975C51.2709 57.4763 51.1302 57.4898 51.0327 57.5034C50.7271 57.5459 50.4287 57.5695 50.1718 57.3652C49.9916 57.2218 49.8893 57.0037 49.8383 56.7837C49.7312 56.3218 49.7938 55.7805 49.7921 55.3045C49.7888 54.8979 49.7696 54.4922 49.7344 54.0872L49.7484 54.0001Z" fill="#FCFBF9"/>
<path d="M51.0122 55.9966C51.099 56.0113 51.1877 56.0366 51.2575 56.0928C51.3378 56.1574 51.376 56.2438 51.3712 56.3466C51.3628 56.5227 51.2649 56.6179 51.1482 56.735C51.0567 56.7203 50.9723 56.6956 50.8996 56.6347C50.817 56.5656 50.7915 56.4984 50.7892 56.3926C50.7851 56.2136 50.895 56.1135 51.0122 55.9966Z" fill="#225E70"/>
<path d="M51.0247 54.0889C51.1459 54.122 51.3082 54.1505 51.3873 54.2591C51.424 54.3096 51.4447 54.3663 51.4379 54.428C51.4187 54.6068 51.2889 54.693 51.1572 54.795C51.054 54.7838 50.9293 54.7457 50.8598 54.6639C50.7999 54.5934 50.7947 54.5229 50.8007 54.4352C50.8117 54.2764 50.9151 54.1896 51.0247 54.0889Z" fill="#225E70"/>
<path d="M49.7484 54.0001C49.7583 53.9191 49.7669 53.8316 49.8005 53.7566C49.8822 53.5747 50.0706 53.4737 50.2491 53.4084C50.6509 53.2616 51.342 53.2106 51.7345 53.395C51.3359 53.3983 50.4188 53.3261 50.1364 53.6372C49.8534 53.949 49.949 56.2002 50.0366 56.6602C50.0532 56.747 50.0774 56.8321 50.1034 56.9164C50.4159 57.2098 50.6576 57.3106 51.0747 57.363C51.1701 57.3616 51.2422 57.3722 51.3341 57.3975C51.2709 57.4763 51.1302 57.4898 51.0327 57.5034C50.7271 57.5459 50.4287 57.5695 50.1718 57.3652C49.9916 57.2218 49.8893 57.0037 49.8383 56.7837C49.7312 56.3218 49.7938 55.7805 49.7921 55.3045C49.7888 54.8979 49.7696 54.4922 49.7344 54.0872L49.7484 54.0001Z" fill="#352F3C"/>
<path d="M43.9808 50.9603L44.0007 50.9478C44.0434 51.3896 44.9277 52.0174 45.2476 52.3222C45.2392 52.5856 45.2284 52.849 45.2151 53.1122L45.227 53.1467C45.0008 54.1256 45.1388 56.5051 45.1596 57.5809C45.6924 58.1511 46.4663 58.454 47.0986 58.8955C47.5707 59.2252 47.9828 59.6363 48.4515 59.9732C49.155 60.0581 49.9425 59.9421 50.6493 59.8996C51.2605 59.863 51.8743 59.8596 52.4844 59.8159C52.7975 59.5308 53.1163 59.246 53.4462 58.9806C54.0649 58.4831 54.8058 58.034 55.2315 57.3492C55.2462 56.7079 55.34 53.1825 55.1879 52.857C55.4112 52.579 55.7907 52.2289 56.088 52.0284L56.0916 52.3845C56.1287 53.331 56.1066 54.2681 56.0897 55.2149C56.0727 56.1697 56.091 57.1787 55.8915 58.1166C55.554 58.4114 55.1101 58.6025 54.8033 58.9226C54.3497 59.2135 53.954 59.5332 53.574 59.916C53.3141 60.1776 53.0641 60.4733 52.774 60.701C51.6454 60.8745 50.485 60.9196 49.3455 60.9831C48.9141 61.0072 48.4825 61.0116 48.0531 61.0622C47.5733 60.6185 47.092 60.1604 46.5589 59.7809C45.9133 59.3213 44.4091 58.6296 44.029 58.0767C43.9858 57.5282 44.014 56.954 44.014 56.4033L44.0177 53.3603C43.9321 52.5762 43.9981 51.7504 43.9808 50.9603Z" fill="#EC9023"/>
<path d="M43.9808 50.9603L44.0007 50.9478C44.0434 51.3896 44.9277 52.0174 45.2476 52.3222C45.2392 52.5856 45.2284 52.849 45.2151 53.1122C44.8017 52.7956 44.4275 52.4356 44.0243 52.1072C44.0264 52.5215 44.0496 52.9475 44.0177 53.3603C43.9321 52.5762 43.9981 51.7504 43.9808 50.9603Z" fill="#AD4B0A"/>
<path d="M44.1479 50.2926C44.4648 49.9389 44.722 49.9487 45.1734 49.9245C47.2281 49.8316 49.2833 49.7491 51.3389 49.677C52.1761 49.6411 53.0136 49.6121 53.8513 49.5899C54.4001 49.5742 54.9605 49.5375 55.5078 49.5841C55.7609 49.6057 55.9945 49.627 56.1894 49.8097C56.3585 49.9682 56.4372 50.1896 56.4463 50.4178L56.4069 51.2727C56.3009 51.3709 56.1971 51.4744 56.0847 51.5653C56.0859 51.7183 56.095 51.8757 56.0873 52.0283C55.7899 52.2289 55.4105 52.5789 55.1872 52.8569C54.183 53.8283 53.3689 54.8771 52.0259 55.3825L52.0308 54.7384C52.0275 54.4265 52.034 54.114 52.036 53.8021C51.9686 53.6089 51.9144 53.4996 51.7336 53.3951C51.341 53.2107 50.6499 53.2617 50.2482 53.4085C50.0697 53.4738 49.8812 53.5748 49.7996 53.7567C49.7659 53.8317 49.7573 53.9192 49.7475 54.0002L49.7334 54.0873C49.7008 54.3582 49.7198 54.6509 49.7185 54.9246C47.8327 54.9595 46.6235 53.3765 45.2469 52.3221C44.927 52.0174 44.0427 51.3895 44 50.9477C44.0332 50.721 44.0619 50.5065 44.1479 50.2926Z" fill="#F5C85E"/>
<path d="M44.1479 50.2925C44.7097 50.9115 45.3508 51.4247 45.9803 51.9702C46.7919 52.6736 48.043 54.0155 49.1732 54.0516C49.3655 54.0578 49.5577 54.0275 49.7475 54.0001L49.7334 54.0872C49.7008 54.358 49.7198 54.6508 49.7185 54.9245C47.8327 54.9594 46.6235 53.3764 45.2469 52.322C44.9269 52.0172 44.0427 51.3894 44 50.9476C44.0332 50.7209 44.0619 50.5064 44.1479 50.2925Z" fill="#EC9023"/>
<path d="M52.0355 53.802C53.918 53.3635 54.7908 51.2951 56.4459 50.4177L56.4065 51.2726C56.3005 51.3708 56.1966 51.4743 56.0842 51.5651C56.0854 51.7182 56.0945 51.8755 56.0868 52.0282C55.7895 52.2287 55.41 52.5788 55.1867 52.8568C54.1825 53.8282 53.3684 54.877 52.0254 55.3823L52.0303 54.7383C52.027 54.4264 52.0335 54.1139 52.0355 53.802Z" fill="#F9AA1A"/>
<path d="M56.0842 51.5652C56.0854 51.7182 56.0945 51.8756 56.0868 52.0282C55.7895 52.2288 55.41 52.5789 55.1867 52.8568C54.1825 53.8282 53.3684 54.8771 52.0254 55.3824L52.0303 54.7383C53.1787 54.5374 54.0345 53.4657 54.832 52.6932C55.2364 52.3016 55.6567 51.9311 56.0842 51.5652Z" fill="#AD4B0A"/>
</g>
<defs>
<linearGradient id="paint0_linear_2795_90335" x1="62.4738" y1="48.8475" x2="62.4545" y2="47.6852" gradientUnits="userSpaceOnUse">
<stop stop-color="#F28C02"/>
<stop offset="1" stop-color="#FFB615"/>
</linearGradient>
<linearGradient id="paint1_linear_2795_90335" x1="27.7135" y1="36.4297" x2="23.5985" y2="68.0454" gradientUnits="userSpaceOnUse">
<stop stop-color="#2D0000"/>
<stop offset="1" stop-color="#622421"/>
</linearGradient>
<linearGradient id="paint2_linear_2795_90335" x1="62.8752" y1="36.9294" x2="61.6048" y2="34.6537" gradientUnits="userSpaceOnUse">
<stop stop-color="#E47915"/>
<stop offset="1" stop-color="#BD6C20"/>
</linearGradient>
<linearGradient id="paint3_linear_2795_90335" x1="18.3349" y1="29.5149" x2="30.3418" y2="21.7314" gradientUnits="userSpaceOnUse">
<stop stop-color="#8C693C"/>
<stop offset="1" stop-color="#AF843E"/>
</linearGradient>
<linearGradient id="paint4_linear_2795_90335" x1="48.2336" y1="14.6429" x2="47.7251" y2="26.0943" gradientUnits="userSpaceOnUse">
<stop stop-color="#F1F0D6"/>
<stop offset="1" stop-color="white"/>
</linearGradient>
</defs>
</svg>
