<svg width="80" height="80" viewBox="0 0 80 80" fill="none" xmlns="http://www.w3.org/2000/svg">
<g opacity="0.8">
<path d="M39.2121 3.68939L39.3083 3.68667C48.8437 3.45018 58.1819 7.0757 65.0849 13.6533C72.156 20.3911 76.1092 29.8003 76.3209 39.5312C76.3644 41.533 76.1884 43.5708 75.874 45.5457C74.7232 52.7746 71.4194 59.6887 66.3311 64.9803C59.635 71.9438 50.45 76.1099 40.771 76.2911C33.1193 76.5011 25.5308 74.1888 19.2539 69.8128C17.9166 68.8805 16.6228 67.8756 15.4346 66.7576C14.2396 65.6334 13.0824 64.4646 12.0327 63.2016C6.84193 56.956 3.9299 49.2367 3.68149 41.1231C3.45384 33.6877 5.45923 26.3673 9.54643 20.1412C10.8039 18.2255 12.2449 16.4616 13.8135 14.7941C14.9839 13.5498 16.2526 12.4362 17.6002 11.3894C21.3033 8.51312 25.5877 6.30254 30.1096 5.03842C33.0872 4.20598 36.1257 3.78216 39.2121 3.68939Z" fill="#1B273B"/>
<path d="M6.63086 48.3469L8.01559 49.1098L8.01731 49.1704L10.2125 54.8546C9.72988 54.7865 9.30527 54.46 8.80785 54.4306C8.46496 53.8029 8.20246 53.1236 7.94191 52.4586C7.41707 51.1193 6.96616 49.7461 6.63086 48.3469Z" fill="#FBB020"/>
<path d="M73.4209 48.0046L71.317 54.2737C70.8337 54.3348 70.3438 54.5287 69.8887 54.7009L71.2445 51.0499L71.9897 49.0232L72.014 48.8935C72.4785 48.767 73.0394 48.2957 73.4209 48.0046Z" fill="#FBB020"/>
<path d="M68.3998 50.0763L68.4563 50.147C68.6637 50.1769 68.9085 50.105 69.1116 50.0591C69.793 49.9049 70.4772 49.6535 71.1218 49.3867C71.3987 49.2721 71.6601 49.1239 71.9471 49.0355L71.989 49.0232L71.2438 51.0499L69.888 54.7009L69.8309 54.7405C69.5212 54.7962 69.2294 54.9172 68.926 54.9966C68.1229 55.2066 67.3883 55.332 66.5618 55.3966C66.3258 55.4151 66.0913 55.4926 65.8535 55.4686L68.3998 50.0763Z" fill="#CA6B17"/>
<path d="M8.01758 49.1704C8.44664 49.3515 8.84906 49.5879 9.27461 49.776C9.89406 50.0496 10.537 50.2645 11.177 50.484C11.4002 50.5606 11.6639 50.6892 11.9003 50.6974L12.0036 50.8221C12.3799 51.8678 12.8294 52.9226 13.3616 53.8991C13.6996 54.5191 14.1235 55.1246 14.4234 55.7591C14.3634 55.8335 14.3179 55.8574 14.2377 55.9078C13.2608 55.7574 12.367 55.5738 11.419 55.287C11.0187 55.166 10.6103 55.0496 10.2317 54.8702L10.2127 54.8545L8.01758 49.1704Z" fill="#CA6B17"/>
<path d="M69.8885 54.7009C70.3437 54.5287 70.8335 54.3348 71.3168 54.2737C70.4729 56.0645 69.5207 57.8227 68.398 59.4559C65.4958 63.6774 61.6672 67.133 57.2494 69.7094C55.4564 70.7551 53.546 71.7014 51.5897 72.4C43.2866 75.3653 33.77 75.0906 25.7743 71.2769C23.5643 70.2227 21.4708 69.0095 19.5014 67.5502C14.938 64.1684 11.1852 59.592 8.80859 54.4307C9.30602 54.4601 9.73063 54.7866 10.2132 54.8547L10.2322 54.8703C10.6108 55.0498 11.0191 55.1661 11.4195 55.2872C12.3675 55.574 13.2612 55.7575 14.2381 55.9079C14.3184 55.8575 14.3639 55.8336 14.4238 55.7592C15.8649 57.9938 17.5473 60.1037 19.5048 61.9087C19.6702 62.0611 19.8865 62.3759 20.078 62.4624L20.192 62.4416L20.0891 62.5174C19.825 62.5679 19.5109 62.8091 19.2532 62.9209C18.838 63.101 18.4141 63.2199 17.9747 63.3242C17.6762 63.3951 17.3673 63.4065 17.0622 63.4241C16.9137 63.4327 16.6987 63.4174 16.568 63.4864C19.6527 66.6054 23.4023 69.1113 27.4803 70.7428C28.5327 71.1638 29.6063 71.4857 30.6798 71.8413C31.0704 71.9706 31.478 72.0448 31.8748 72.1521C33.9441 72.712 36.1286 73.0055 38.2675 73.1231C38.8365 73.1545 39.42 73.1304 39.9903 73.1306C40.7065 73.1306 41.4373 73.1591 42.1521 73.1224C44.064 73.0242 46.0013 72.726 47.8644 72.2921C48.8393 72.065 49.8174 71.7788 50.7616 71.4467C51.2398 71.2786 51.7093 71.0809 52.1904 70.9224C52.9834 70.6609 53.7856 70.2564 54.5311 69.8826C57.1881 68.5503 59.5805 66.9379 61.8541 65.0263C62.3794 64.5847 62.9571 64.1282 63.4141 63.6188C62.8723 63.4857 62.3169 63.2199 61.8036 63.0024C61.2885 62.7841 60.6565 62.5681 60.2215 62.2191L60.1916 62.228L59.0787 61.5555C60.0534 60.5863 61.0334 59.6551 61.925 58.6041C62.8435 57.5216 63.6064 56.3535 64.4251 55.1996L64.9022 55.3082L65.7402 55.5001L65.8541 55.4686C66.0919 55.4926 66.3263 55.4151 66.5623 55.3966C67.3888 55.332 68.1234 55.2066 68.9266 54.9966C69.2299 54.9172 69.5217 54.7962 69.8314 54.7405L69.8885 54.7009Z" fill="#CC9330"/>
<path d="M10.2324 54.8701C10.611 55.0496 11.0194 55.1659 11.4197 55.287C12.3677 55.5738 13.2615 55.7573 14.2384 55.9077C14.3186 55.8573 14.3641 55.8334 14.4241 55.759C15.8652 57.9936 17.5475 60.1035 19.5051 61.9085C19.6704 62.0609 19.8867 62.3757 20.0782 62.4622L20.1923 62.4414L20.0894 62.5172C19.8252 62.5677 19.5112 62.8089 19.2534 62.9207C18.8382 63.1008 18.4144 63.2197 17.9749 63.324C17.6764 63.3949 17.3676 63.4063 17.0624 63.4239C16.9139 63.4325 16.6989 63.4172 16.5682 63.4862C14.8385 61.7374 13.2332 59.8639 11.9177 57.78C11.5398 57.1813 11.1879 56.5635 10.8495 55.9417C10.6495 55.574 10.492 55.203 10.2324 54.8701Z" fill="#B37B28"/>
<path d="M65.8535 55.4686C66.0913 55.4926 66.3258 55.4151 66.5618 55.3966C67.3883 55.332 68.1229 55.2066 68.926 54.9966C69.2294 54.9172 69.5212 54.7962 69.8309 54.7405C68.5701 57.322 66.845 59.7848 64.9665 61.952C64.4696 62.5252 63.9207 63.0542 63.4135 63.6188C62.8717 63.4857 62.3164 63.2199 61.803 63.0024C61.288 62.7842 60.6559 62.5681 60.2209 62.2191L60.191 62.228L59.0781 61.5555C60.0529 60.5863 61.0328 59.6551 61.9245 58.6042C62.843 57.5216 63.6059 56.3535 64.4245 55.1996L64.9016 55.3082L65.7396 55.5001L65.8535 55.4686Z" fill="url(#paint0_linear_2795_90323)"/>
<path d="M64.4245 55.1995L64.9016 55.3081L65.7396 55.4999L65.6438 55.5361L65.7312 55.5859C65.6449 55.7841 65.4654 55.9862 65.3445 56.1695C64.0879 58.0731 62.6556 59.8206 61.0412 61.4313C60.7947 61.6772 60.5118 62.0339 60.2209 62.2189L60.191 62.2278L59.0781 61.5553C60.0529 60.5862 61.0328 59.6549 61.9245 58.604C62.843 57.5214 63.6059 56.3534 64.4245 55.1995Z" fill="#FBB020"/>
<path d="M6.6315 48.3471C6.49506 47.9942 6.41811 47.572 6.3439 47.2011C6.23899 46.6769 6.14275 46.1528 6.05675 45.6251C5.26839 40.7873 5.52748 35.8894 6.75487 31.1457C9.02748 22.3625 14.9219 14.8278 22.7188 10.2485C30.5022 5.67704 39.9849 4.40425 48.7108 6.68047C51.0627 7.29398 53.3311 8.13917 55.5076 9.223C61.4666 12.1903 66.4912 17.0802 69.8266 22.8212C72.7941 27.929 74.2647 33.8309 74.3612 39.716C74.4067 42.4949 74.145 45.3153 73.4207 48.0046C73.0391 48.2956 72.4783 48.767 72.0137 48.8935L71.9894 49.0232L71.9476 49.0356C71.6605 49.1239 71.3991 49.2721 71.1223 49.3867C70.4776 49.6535 69.7935 49.9049 69.1121 50.0591C68.909 50.105 68.6641 50.1769 68.4568 50.1471L68.4003 50.0764C69.7176 46.6933 70.2348 42.9009 70.1562 39.2843L70.169 39.2357C70.1807 39.2908 70.1954 39.3367 70.2146 39.3892L70.2674 39.3908C70.4036 39.3902 70.5808 39.2738 70.7029 39.2152C71.4575 38.8535 72.1255 38.3831 72.7295 37.8021C73.0231 37.5197 73.0242 37.3639 73.0335 36.9728C73.05 36.7161 72.9902 36.4656 72.971 36.211C72.9561 36.0133 72.9662 35.8224 72.9339 35.6251C72.5558 33.3148 72.1158 31.0084 71.264 28.8156L70.043 25.7814C69.6176 24.936 69.2062 24.087 68.729 23.2682C67.5619 21.2655 66.1921 19.4566 64.662 17.7205C64.1537 17.1439 63.6136 16.6032 63.0615 16.0686C62.7872 15.8031 62.5188 15.5169 62.223 15.2759C61.7208 14.8666 61.2406 14.4292 60.7338 14.0239C59.7685 13.2521 58.7432 12.5375 57.6965 11.8807C52.8533 8.84096 47.35 7.20032 41.6504 6.93853C40.3345 6.87809 39.0079 6.84797 37.6939 6.97499L33.7302 7.48104C30.3762 8.06948 27.1303 9.29831 24.167 10.9635C21.0131 12.7357 18.1051 14.8262 15.6272 17.4792C14.5062 18.6792 13.5028 20.0163 12.5736 21.3694C11.883 22.3749 11.2292 23.3964 10.6521 24.472C8.99717 27.5559 7.91912 30.9264 7.2849 34.3596C7.08866 35.4221 6.88446 36.5127 6.91777 37.5987C6.74925 40.5496 6.82717 43.4971 7.37969 46.4079C7.55339 47.3231 7.80271 48.2057 8.01623 49.1099L6.6315 48.3471Z" fill="#FED851"/>
<path d="M70.1563 39.2842L70.1691 39.2356C70.1808 39.2907 70.1955 39.3366 70.2147 39.3891L70.2675 39.3907C70.4037 39.3901 70.5809 39.2737 70.703 39.2151C71.4576 38.8534 72.1256 38.383 72.7296 37.802C73.0232 37.5196 73.0243 37.3638 73.0336 36.9727C73.5237 40.9657 72.9604 45.0109 72.0138 48.8934L71.9895 49.0231L71.9477 49.0355C71.6606 49.1238 71.3992 49.272 71.1223 49.3866C70.4777 49.6534 69.7936 49.9048 69.1122 50.059C68.9091 50.1049 68.6642 50.1768 68.4569 50.147L68.4004 50.0763C69.7177 46.6932 70.2349 42.9008 70.1563 39.2842Z" fill="#CC9330"/>
<path d="M21.3209 61.9033C22.1335 62.6143 22.9995 63.2396 23.8937 63.8417C27.3901 66.1959 31.3962 67.7647 35.5604 68.4171C36.6538 68.5883 37.7684 68.6632 38.8726 68.7223C40.8955 68.8306 42.9476 68.6575 44.9409 68.3149C50.2016 67.4105 55.1002 65.1266 59.0791 61.5554L60.1919 62.2279L60.2219 62.219C60.6569 62.5681 61.2889 62.7841 61.804 63.0023C62.3173 63.2198 62.8727 63.4857 63.4145 63.6187C62.9575 64.1282 62.3798 64.5846 61.8545 65.0262C59.5809 66.9378 57.1885 68.5503 54.5315 69.8825C53.786 70.2564 52.9838 70.6609 52.1908 70.9223C51.7097 71.0809 51.2402 71.2785 50.762 71.4467C49.8178 71.7787 48.8397 72.065 47.8648 72.2921C46.0017 72.726 44.0644 73.0241 42.1525 73.1223C41.4377 73.159 40.7069 73.1306 39.9907 73.1305C39.4204 73.1303 38.8369 73.1544 38.2679 73.1231C36.129 73.0054 33.9445 72.712 31.8752 72.1521C31.4784 72.0447 31.0708 71.9705 30.6802 71.8412C29.6067 71.4857 28.533 71.1638 27.4807 70.7428C23.4027 69.1113 19.6531 66.6053 16.5684 63.4864C16.6991 63.4173 16.9141 63.4326 17.0626 63.424C17.3677 63.4064 17.6766 63.395 17.9751 63.3242C18.4145 63.2199 18.8384 63.101 19.2536 62.9208C19.5113 62.809 19.8254 62.5678 20.0895 62.5173L20.1924 62.4415C20.4583 62.1985 20.9852 62.0603 21.3209 61.9033Z" fill="#CA6B17"/>
<path d="M21.3212 61.9033C22.1338 62.6143 22.9998 63.2396 23.894 63.8417C27.3904 66.1959 31.3965 67.7647 35.5607 68.4171C36.6541 68.5883 37.7687 68.6632 38.8729 68.7223C40.8958 68.8306 42.9479 68.6575 44.9412 68.3149C50.202 67.4105 55.1005 65.1266 59.0794 61.5554L60.1923 62.2279C60.1086 62.4786 59.684 62.7738 59.4709 62.9581C57.564 64.608 55.4344 65.9432 53.1838 67.0688C51.56 67.8807 49.8078 68.5017 48.059 68.9788C45.7523 69.6082 43.3278 70.0152 40.9335 70.0725C39.6046 70.1042 38.2625 70.006 36.9398 69.8894C34.7625 69.6975 32.5008 69.2841 30.4248 68.5883C27.2309 67.5179 24.3802 65.9041 21.7133 63.8646C21.1687 63.4482 20.532 63.0469 20.0898 62.5173L20.1927 62.4415C20.4586 62.1985 20.9855 62.0603 21.3212 61.9033Z" fill="#CC9330"/>
<path d="M6.91766 37.5985C6.88434 36.5125 7.08855 35.4218 7.28479 34.3594C7.91901 30.9262 8.99706 27.5557 10.652 24.4718C11.2291 23.3962 11.8828 22.3747 12.5735 21.3692C13.5027 20.0161 14.5061 18.679 15.6271 17.479C18.105 14.826 21.013 12.7355 24.1669 10.9633C27.1302 9.2981 30.376 8.06927 33.7301 7.48083L37.6938 6.97478C39.0078 6.84776 40.3344 6.87788 41.6503 6.93831C47.3499 7.2001 52.8532 8.84075 57.6964 11.8804C58.7431 12.5373 59.7684 13.2519 60.7337 14.0237C61.2405 14.429 61.7206 14.8664 62.2229 15.2757C62.5187 15.5167 62.7871 15.8029 63.0614 16.0684C63.6135 16.6029 64.1536 17.1436 64.6619 17.7203C66.192 19.4564 67.5618 21.2653 68.7289 23.2679C69.2061 24.0868 69.6175 24.9358 70.0428 25.7811L71.2639 28.8154C72.1157 31.0082 72.5557 33.3146 72.9338 35.6249C72.9661 35.8222 72.956 36.0131 72.9709 36.2108C72.9901 36.4654 73.0499 36.7159 73.0334 36.9725C73.0241 37.3636 73.023 37.5195 72.7294 37.8019C72.1254 38.3829 71.4574 38.8533 70.7028 39.215C70.5807 39.2736 70.4035 39.39 70.2673 39.3906L70.2145 39.389C70.1953 39.3365 70.1806 39.2906 70.1689 39.2355L70.156 39.2841C70.084 39.0793 70.1048 38.7625 70.0882 38.5423C70.0452 37.9736 70.007 37.4004 69.941 36.8343C69.7802 35.4539 69.5183 34.0848 69.1989 32.7329C68.3054 28.952 66.555 25.234 64.2471 22.1093C63.8172 21.5272 63.3667 20.95 62.8986 20.3983C62.6628 20.1204 62.3989 19.8619 62.174 19.5758C61.986 19.3367 61.7449 19.123 61.5299 18.9072C61.1192 18.4947 60.7078 18.0986 60.2751 17.7096C57.3405 15.0701 53.8122 12.9727 50.0778 11.6871C49.5752 11.5141 49.0596 11.3809 48.5543 11.2165L45.0881 10.416C44.7273 10.3173 44.3362 10.3314 43.9752 10.2538C43.7317 10.2015 43.4871 10.2198 43.246 10.1741C42.8147 10.0924 42.3524 10.0899 41.9137 10.0634C39.9294 9.94364 37.9464 10.0101 35.9762 10.266C35.7121 10.3003 35.4164 10.3154 35.1599 10.3776L34.9585 10.42L34.4918 10.4988L33.655 10.6533L31.2272 11.2913L27.2971 12.8004C26.0846 13.3438 24.9018 14.0233 23.7839 14.7383C22.434 15.6015 21.1275 16.5526 19.9271 17.616C19.4068 18.0768 18.9088 18.5966 18.4262 19.0972C16.8424 20.7399 15.4106 22.57 14.242 24.5327C13.2635 26.1759 12.4913 27.8661 11.788 29.6408L11.3971 30.7761L11.2562 31.2309L11.0453 31.9481L11.0002 32.0897L10.7494 33.0897L10.3707 35.0489L9.99213 39.1335L9.96291 39.1152L9.88846 39.16L6.97229 37.2925L6.91766 37.5985Z" fill="#FBB020"/>
<path d="M9.99329 39.1336L10.3719 35.049L10.7506 33.0898L11.0013 32.0898L11.0465 31.9482L11.2573 31.231L11.3982 30.7763L11.7891 29.6409C12.4924 27.8662 13.2647 26.176 14.2431 24.5328C15.4118 22.5701 16.8436 20.74 18.4273 19.0973C18.9099 18.5967 19.408 18.077 19.9283 17.6161C21.1287 16.5527 22.4352 15.6016 23.785 14.7384C24.903 14.0234 26.0857 13.3439 27.2983 12.8005L31.2284 11.2914L33.6562 10.6534L34.493 10.4989L34.9597 10.4201L35.161 10.3777C35.4176 10.3155 35.7133 10.3004 35.9773 10.2661C37.9476 10.0102 39.9305 9.94375 41.9148 10.0635C42.3536 10.09 42.8159 10.0925 43.2472 10.1742C43.4882 10.2199 43.7329 10.2016 43.9763 10.2539C44.3373 10.3315 44.7284 10.3174 45.0892 10.4161L48.5555 11.2166C49.0608 11.381 49.5763 11.5142 50.0789 11.6872C53.8134 12.9728 57.3416 15.0702 60.2763 17.7097C60.7089 18.0988 61.1203 18.4948 61.5311 18.9073C61.746 19.1231 61.9872 19.3368 62.1752 19.5759C62.4001 19.862 62.664 20.1205 62.8998 20.3984C63.3679 20.9502 63.8184 21.5273 64.2483 22.1094C66.5562 25.2341 68.3066 28.9521 69.2 32.733C69.5195 34.0849 69.7813 35.454 69.9422 36.8344C70.0081 37.4005 70.0463 37.9738 70.0893 38.5424C70.1059 38.7626 70.0852 39.0794 70.1572 39.2842C70.2359 42.9008 69.7187 46.6932 68.4013 50.0762L65.855 55.4685L65.7411 55.5L64.9031 55.3081L64.426 55.1995C63.6073 56.3534 62.8445 57.5215 61.9259 58.6041C61.0343 59.655 60.0544 60.5863 59.0796 61.5554C55.1008 65.1266 50.2022 67.4105 44.9414 68.3148C42.9481 68.6575 40.896 68.8305 38.8731 68.7223C37.7689 68.6632 36.6544 68.5883 35.5609 68.417C31.3967 67.7647 27.3906 66.1959 23.8942 63.8417C23 63.2395 22.1341 62.6143 21.3215 61.9033C20.9858 62.0602 20.4588 62.1985 20.193 62.4415L20.0789 62.4623C19.8874 62.3759 19.6711 62.061 19.5058 61.9086C17.5482 60.1036 15.8659 57.9937 14.4248 55.7591C14.1249 55.1247 13.701 54.5191 13.3631 53.8991C12.8308 52.9227 12.3813 51.8678 12.005 50.8222L11.9017 50.6975C11.6653 50.6893 11.4016 50.5606 11.1784 50.4841C10.5384 50.2646 9.89547 50.0497 9.27602 49.776C8.85048 49.588 8.44805 49.3516 8.01899 49.1705L8.01727 49.1098C7.80375 48.2056 7.55443 47.323 7.38073 46.4078C6.82821 43.497 6.7503 40.5495 6.91881 37.5986L6.97344 37.2926L9.88962 39.1602L9.96407 39.1153L9.99329 39.1336Z" fill="#300F10"/>
<path d="M37.1734 45.9783C37.186 46.1726 37.1998 46.35 37.166 46.5429L36.9887 47.5776C36.277 47.3897 35.5598 47.1338 34.9336 46.7391L35.0088 46.5814L35.3816 46.8088C35.7027 46.9888 36.0698 47.1613 36.4446 47.0326C36.817 46.9046 37.0163 46.311 37.1734 45.9783Z" fill="#A65318"/>
<path d="M42.7181 46.082C42.9238 46.478 43.0736 46.8974 43.5385 47.0473C43.8717 47.1548 44.3295 46.9487 44.6185 46.7858C44.9452 46.6017 45.2163 46.382 45.4938 46.1316L45.4852 46.168C45.4688 46.2237 45.4421 46.2615 45.4098 46.3087L45.4767 46.3687L45.4402 46.4168C45.0645 46.7973 43.4985 47.5117 42.9688 47.5362L42.8951 47.4805C42.6941 47.2571 42.698 46.3876 42.7181 46.082Z" fill="#A65318"/>
<path d="M30.1848 52.8008L31.2237 53.6143L30.1081 54.4856C29.8421 54.1752 29.658 53.8215 29.2656 53.6555L29.4558 53.4762L30.1848 52.8008Z" fill="#A65318"/>
<path d="M37.8363 46.3669C37.9006 46.7807 37.9238 47.3819 38.3026 47.6409C38.4873 47.7672 38.6884 47.8198 38.9057 47.8534L38.9661 47.8633C39.667 47.973 41.0439 48.0691 41.6267 47.6446C41.9617 47.4006 42.0351 46.7912 42.0867 46.4029L42.1011 46.543C42.1656 46.8575 42.2366 47.2731 42.2147 47.597C42.2056 47.732 42.1369 47.8579 42.031 47.9398C41.5371 48.3219 38.903 48.1701 38.2612 48.0826C38.0998 48.0605 37.9056 47.9867 37.8138 47.8448C37.6249 47.553 37.749 46.6998 37.8363 46.3669Z" fill="#A65318"/>
<path d="M27.8809 52.0708L28.6275 51.4431C29.1278 51.9094 29.6217 52.4108 30.1847 52.8007L29.4556 53.4761C29.1166 53.1242 28.7776 52.8241 28.3877 52.531L27.8809 52.0708Z" fill="#FBB020"/>
<path d="M51.423 51.3418L52.2368 52.0514L50.4869 53.5184L49.6973 52.8069L51.423 51.3418Z" fill="#CC9330"/>
<path d="M54.0703 26.0337L60.018 22.5798L59.0306 23.6223C58.6003 23.7605 58.271 24.1738 57.9205 24.4469C57.3153 24.9184 56.6884 25.3626 56.0766 25.8251C55.5355 26.2343 54.9355 26.8068 54.3095 27.0737L54.0703 26.0337Z" fill="#FED851"/>
<path d="M54.3105 27.0737C54.9365 26.8068 55.5365 26.2343 56.0777 25.8252C56.6895 25.3626 57.3163 24.9185 57.9216 24.447C58.272 24.1739 58.6013 23.7606 59.0316 23.6223L54.5045 28.8393L54.3105 27.0737Z" fill="#CC9330"/>
<path d="M20.0879 22.5632L26.3154 25.8991L25.9209 27.3819C25.6077 27.0618 25.2261 26.8 24.8867 26.5072C23.7731 25.5463 22.662 24.5809 21.5063 23.6698C21.1918 23.4218 20.8545 23.0603 20.47 22.9384L20.0879 22.5632Z" fill="#FED851"/>
<path d="M20.4707 22.9382C20.8552 23.0601 21.1925 23.4217 21.507 23.6696C22.6627 24.5807 23.7738 25.5461 24.8874 26.5071C25.2268 26.7999 25.6084 27.0617 25.9216 27.3818L25.6876 29.0614L20.4707 22.9382Z" fill="#B37B28"/>
<path d="M58.1012 43.4775C58.1159 43.9573 57.8373 44.5428 57.6573 44.9837C56.8954 46.8495 55.8226 48.5994 54.6045 50.202C54.1502 50.7998 53.6528 51.3678 53.1716 51.9444L51.9883 50.8837C53.5602 49.3103 55.1272 47.7112 56.4607 45.9258C57.047 45.1408 57.5546 44.2908 58.1012 43.4775Z" fill="#A65318"/>
<path d="M24.5234 38.4381L27.7748 38.3962L28.58 39.4739C29.4667 40.5828 30.7681 41.1727 31.9597 41.8806L31.6269 43.4694C31.4858 43.3489 31.2445 43.2638 31.0776 43.1773C30.7905 43.0284 30.5091 42.8642 30.2333 42.6951C28.9371 41.9001 28.0737 40.7648 27.2301 39.5307L24.9295 39.5751L24.5234 38.4381Z" fill="#1B273B"/>
<path d="M27.6406 24.8721L28.1138 23.809C29.6724 20.678 32.4313 18.1547 35.7678 17.0539C39.4136 15.8511 43.1548 16.1496 46.5836 17.8801C48.772 18.9846 50.5911 20.8486 51.8095 22.9601C52.0565 23.3881 52.3309 23.8506 52.4856 24.3215C52.2694 24.1746 52.1296 23.7325 52.0016 23.5021C51.8517 23.2321 51.6842 22.9686 51.5046 22.7173C49.763 20.281 47.268 18.5737 44.4168 17.6872C43.5612 17.4212 42.6924 17.2575 41.8097 17.1141C41.3027 17.0318 40.7752 17.0331 40.263 17.032C38.4512 17.0281 36.8052 17.3561 35.1173 18.0063C34.6391 18.1906 34.1436 18.3605 33.7255 18.6632C32.5387 19.3209 31.4405 20.0599 30.4459 20.9907C30.1098 21.3054 29.7408 21.6556 29.4812 22.0361C29.0655 22.5416 28.6955 23.0809 28.3589 23.642C28.1878 23.9271 28.0336 24.2175 27.8845 24.5146C27.822 24.639 27.7704 24.806 27.6406 24.8721Z" fill="#FEFEFE"/>
<path d="M19.9492 26.1494C20.1822 25.8124 20.4159 25.4757 20.6598 25.1466C20.7626 25.008 20.8568 24.8377 20.9886 24.7268L25.6211 30.1056C25.6798 31.5052 25.806 32.8488 26.1168 34.2178L25.1612 34.2188L25.0703 32.256L19.9492 26.1494Z" fill="#B37B28"/>
<path d="M12.0039 50.8223C12.3608 50.9391 12.7046 51.0917 13.0766 51.1585C13.2077 51.1821 13.3011 51.2193 13.4289 51.1761C13.958 52.1703 14.4916 53.162 15.024 54.1545C15.2877 54.6461 15.5316 55.1645 15.8196 55.6408C16.0826 56.0757 16.413 56.5006 16.713 56.9131C18.0573 58.7616 19.6132 60.3863 21.3204 61.9034C20.9847 62.0603 20.4577 62.1986 20.1919 62.4416L20.0778 62.4624C19.8863 62.3759 19.67 62.0611 19.5047 61.9087C17.5471 60.1037 15.8648 57.9938 14.4237 55.7592C14.1238 55.1248 13.6999 54.5192 13.362 53.8992C12.8297 52.9227 12.3802 51.8679 12.0039 50.8223Z" fill="#FBB020"/>
<path d="M53.0342 25.7522C53.6341 28.1144 53.7597 30.4049 53.3556 32.8163C53.2682 33.3381 53.1086 33.842 53.0136 34.3612C52.2971 32.0976 50.9246 30.0342 49.5879 28.0918L49.8651 26.2231C49.9513 26.2788 50.0256 26.3059 50.1245 26.3284L50.1905 26.3427C50.6659 26.452 51.2488 26.4463 51.7337 26.3995C52.247 26.35 52.7016 26.1588 53.0342 25.7522Z" fill="#B37B28"/>
<path d="M29.2658 53.6555C29.6582 53.8215 29.8423 54.1753 30.1083 54.4857C29.4258 55.0368 28.7436 55.5918 28.0791 56.1647C27.5296 56.6385 27.0145 57.1515 26.3984 57.5396C26.7959 58.1915 27.074 58.8607 26.8809 59.6386C26.7581 60.1336 26.3616 60.6252 25.9182 60.8774C25.3762 61.1858 24.7166 61.245 24.1194 61.0753C23.5516 60.914 22.9766 60.4563 22.6945 59.9382C22.5445 59.6626 22.4466 59.3806 22.3586 59.0804C22.2899 58.8461 22.3006 58.5923 22.302 58.3501C21.4896 58.1361 20.8734 57.8459 20.4356 57.0881C20.1495 56.593 20.0538 55.9512 20.208 55.3977L20.3144 55.1063L20.5616 55.6414C20.6616 55.8865 20.8548 56.1668 21.0223 56.3749C21.5281 57.0034 22.1777 57.2316 22.9566 57.3135C22.9609 57.5972 22.9719 57.86 23.0881 58.1251C23.2265 58.4405 23.5335 58.7038 23.8531 58.8215L23.9041 58.8396L23.9952 58.8714C24.3193 58.965 24.7054 58.8979 24.9905 58.7272C25.4955 58.4247 25.6577 57.9063 25.804 57.375L25.6194 56.9039L29.2658 53.6555Z" fill="#B37B28"/>
<path d="M48.7578 53.5517L49.6966 52.8069L50.4862 53.5184L54.5477 57.0742C54.4139 57.5113 54.3891 57.8867 54.6027 58.3087C54.7725 58.6442 55.1362 58.8486 55.4878 58.9428C55.8159 59.0307 56.2168 58.9799 56.5083 58.8025C56.8491 58.5952 57.0574 58.3887 57.1432 57.9935L57.1868 57.7451L57.0102 57.3552C57.2979 57.3471 57.5699 57.3413 57.8516 57.2792C58.3155 57.1767 58.6976 56.9624 58.9659 56.5559C59.3131 56.0298 59.3599 55.4092 59.2256 54.8059L59.1956 54.6928C59.4558 54.8348 59.6354 55.1131 59.7334 55.3847C59.9431 55.9662 59.9889 56.5977 59.7079 57.166C59.4541 57.6792 58.9744 58.0969 58.428 58.2705L58.3589 58.2917C58.0951 58.3745 57.8352 58.4174 57.562 58.4585C57.6718 59.0084 57.6852 59.5217 57.4407 60.0391C57.1989 60.5507 56.7301 60.9524 56.1993 61.1345C55.6076 61.3374 54.9593 61.2911 54.3999 61.0169C53.8838 60.7639 53.5203 60.278 53.3436 59.7382C53.0987 58.9898 53.3101 58.4392 53.6514 57.7673L48.7578 53.5517Z" fill="#B37B28"/>
<path d="M45.2422 16.2701C45.2851 16.2544 45.3252 16.2247 45.3709 16.223C45.4376 16.2204 45.5777 16.2742 45.6478 16.2915C45.9416 16.3639 46.2334 16.4412 46.5232 16.5281L47.2708 16.7482L49.2833 17.4699C50.6457 17.9969 51.9852 18.7328 53.2116 19.5227C54.153 20.1289 55.0883 20.7793 55.9194 21.5327C56.3314 21.906 56.7565 22.3218 57.1248 22.7376C57.2441 22.8723 57.3384 23.0236 57.4632 23.1542L53.8666 25.2179L53.1837 23.5592C52.8387 22.7492 52.3499 21.9878 51.8412 21.2734C50.6028 19.5344 49.1002 18.1795 47.2204 17.1621C46.5856 16.8186 45.9098 16.5416 45.2422 16.2701Z" fill="#CA6B17"/>
<path d="M24.9297 39.5752L27.2303 39.5308C28.0739 40.7649 28.9373 41.9001 30.2335 42.6952C30.5093 42.8643 30.7907 43.0285 31.0778 43.1774C31.2448 43.2639 31.486 43.349 31.6271 43.4695C31.4304 45.0519 31.4084 46.5926 31.4729 48.1845C30.8126 47.6362 30.1457 47.1013 29.5271 46.5039C27.4825 44.5296 25.9928 42.2019 24.9297 39.5752Z" fill="#2E3D54"/>
<path d="M27.8812 52.0708L28.388 52.531C28.778 52.8242 29.117 53.1242 29.456 53.4761L29.2659 53.6554L25.6195 56.9038L25.8041 57.3749C25.6578 57.9062 25.4955 58.4246 24.9905 58.7271C24.7055 58.8978 24.3194 58.9649 23.9953 58.8713L23.9042 58.8395L23.8532 58.8214C23.5336 58.7037 23.2266 58.4404 23.0882 58.1249C22.972 57.8599 22.9609 57.597 22.9567 57.3134C22.1778 57.2315 21.5282 57.0033 21.0223 56.3748C20.8549 56.1667 20.6617 55.8864 20.5617 55.6413L20.3145 55.1062C20.377 54.9288 20.5155 54.7492 20.6441 54.6131C21.018 54.218 21.5877 53.9708 22.1289 53.9492C23.0523 53.9123 23.6795 54.4737 24.3142 55.062L27.8812 52.0708Z" fill="#FED851"/>
<path d="M52.2362 52.0515L55.7081 55.1523C56.0457 54.6341 56.5027 54.1682 57.1298 54.0261C57.7037 53.896 58.3029 53.9875 58.7987 54.3125C58.9563 54.4158 59.0907 54.5367 59.1958 54.6929L59.2258 54.806C59.3601 55.4093 59.3133 56.0299 58.9661 56.556C58.6977 56.9625 58.3157 57.1768 57.8518 57.2792C57.5701 57.3414 57.298 57.3472 57.0104 57.3553L57.187 57.7452L57.1434 57.9936C57.0576 58.3888 56.8492 58.5953 56.5084 58.8026C56.217 58.9799 55.8161 59.0308 55.488 58.9429C55.1363 58.8487 54.7727 58.6442 54.6028 58.3088C54.3893 57.8868 54.4141 57.5114 54.5479 57.0742L50.4863 53.5185L52.2362 52.0515Z" fill="#FED851"/>
<path d="M22.5117 22.9363C25.7389 19.6769 29.6781 17.4298 34.1009 16.2342C34.6313 16.0908 36.7671 15.4729 37.1516 15.6944C36.0096 15.9727 34.8655 16.3413 33.8066 16.8562C31.6095 17.9245 29.4064 19.7675 28.1289 21.8672C27.4998 22.9011 27.0111 23.938 26.5619 25.0592L22.5117 22.9363Z" fill="#CA6B17"/>
<path d="M19.7526 37.3538C20.3469 40.5159 21.7051 43.4125 23.6082 46.0014C24.1139 46.6894 24.6764 47.3242 25.2396 47.9639C26.1113 48.9541 27.028 49.9187 27.9708 50.8417L26.199 52.3147C25.6835 51.8771 25.2387 51.3622 24.7821 50.8676C22.6221 48.5284 20.7436 45.777 19.7302 42.7389C19.5825 42.2961 19.4188 41.8438 19.3164 41.3887L19.2625 41.1717L19.1493 40.7337C19.0184 40.1989 18.8534 39.5074 18.9098 38.9577C18.9194 38.8641 18.9262 38.7732 18.951 38.6817L18.9709 38.6134C19.0091 38.4689 19.05 38.3467 19.123 38.2149C19.2251 38.0304 19.3453 37.854 19.4848 37.6954C19.5694 37.5993 19.6726 37.5121 19.7332 37.3984L19.7526 37.3538Z" fill="#B37B28"/>
<path d="M29.4801 22.0361C29.7021 22.3147 29.7545 22.8759 29.8068 23.2239C29.8396 23.4414 29.8858 23.6819 29.8811 23.9017L30.7142 27.2573L31.004 28.3344L30.5279 29.0256C30.0856 29.5209 29.7542 30.1036 29.4179 30.6732C28.6161 32.0315 27.891 33.4028 27.4968 34.9429C27.3224 34.7875 27.1209 34.3218 27.0851 34.0872L27.0615 34.0843C27.028 34.0433 27.0107 34.0103 26.9952 33.9594C26.8635 33.528 26.7979 33.0668 26.7252 32.6225C26.3829 30.5305 26.4754 28.455 27.0763 26.4139C27.2335 25.88 27.3864 25.3706 27.6396 24.8721C27.7693 24.806 27.821 24.639 27.8835 24.5146C28.0326 24.2175 28.1868 23.9271 28.3579 23.642C28.6944 23.0809 29.0644 22.5416 29.4801 22.0361Z" fill="#B37B28"/>
<path d="M29.882 23.9016L30.7151 27.2572L31.0049 28.3343L30.5287 29.0255C30.0865 29.5208 29.7551 30.1036 29.4188 30.6732C28.617 32.0315 27.8919 33.4027 27.4977 34.9428C27.3233 34.7875 27.1218 34.3218 27.0859 34.0872C27.5145 32.585 28.3084 31.17 29.1824 29.8828C29.568 29.3148 29.964 28.7468 30.4127 28.2265C30.1952 27.1293 30.0862 26.0335 29.9673 24.9236C29.9326 24.5988 29.8366 24.2261 29.882 23.9016Z" fill="url(#paint1_linear_2795_90323)"/>
<path d="M47.6549 42.0901C47.6532 43.7813 47.651 45.4724 47.6521 47.1636C47.6524 47.6086 47.6548 48.0534 47.6575 48.4984C47.659 48.7416 47.6829 49.0102 47.6414 49.2498C47.5949 49.5172 47.4682 49.7109 47.2798 49.9006C46.7719 50.4124 46.0877 50.7424 45.4295 51.0182C43.6807 51.7512 41.7846 52.0793 39.8911 52.0694C37.9514 52.0592 35.9362 51.628 34.19 50.7787C33.6311 50.5069 33.0841 50.202 32.6382 49.7606C32.0501 49.1784 32.1499 47.9658 32.1478 47.2029C32.1462 46.6394 32.1449 46.0757 32.1492 45.5122C32.1569 44.4628 32.2664 43.3433 32.5198 42.3224C32.8238 42.5667 33.0696 42.8301 33.328 43.1199C32.8921 44.1121 32.6684 45.2041 33.0773 46.2521L33.0927 46.288C33.1493 46.2999 33.2519 46.3066 33.3006 46.3316C33.4019 46.3836 33.5301 46.5367 33.6218 46.6179C33.8143 46.7882 34.0094 46.9444 34.226 47.084C34.6315 47.3453 35.1133 47.5695 35.5766 47.7088L36.578 48.0399L36.6394 48.0565C36.867 48.125 37.0817 48.1199 37.3178 48.1221L37.5596 47.8898C38.0243 48.3495 38.5572 48.3504 39.1599 48.4717L39.3171 48.5028C39.8141 48.5663 40.3298 48.5002 40.8234 48.4478C41.1371 48.4145 41.4624 48.3965 41.7576 48.2763C41.9624 48.193 42.1486 48.0159 42.3228 47.8809C42.5923 48.0749 42.7789 48.1506 43.1179 48.1111C43.4378 48.0738 43.7644 47.9319 44.0623 47.8123C44.6468 47.5777 45.1785 47.3161 45.7077 46.9716C45.9312 46.8261 46.1829 46.6642 46.3489 46.4508C46.8111 45.8565 46.9182 45.2032 46.8629 44.4631C46.8525 44.3246 46.7885 44.1508 46.828 44.0191C46.8683 43.8849 46.8714 43.7338 46.8877 43.5938C47.0581 42.9901 47.2837 42.5919 47.6549 42.0901Z" fill="#CC9330"/>
<path d="M35.6543 48.4956C35.9147 48.4724 36.1591 48.6377 36.4071 48.7091C36.731 48.8025 37.0824 48.8851 37.4121 48.9514C38.4979 49.1697 39.6609 49.2859 40.766 49.2005C41.9026 49.1126 42.9964 48.8988 44.0829 48.5569C44.1644 48.5312 44.2442 48.4803 44.3162 48.5331L44.0725 48.6291C41.4563 49.614 38.223 49.6602 35.6543 48.4956Z" fill="#0D0E22"/>
<path d="M42.3239 47.8809C42.5934 48.0748 42.7799 48.1506 43.119 48.1111C43.4388 48.0738 43.7655 47.9319 44.0634 47.8123C44.6479 47.5777 45.1796 47.3161 45.7088 46.9716C45.9323 46.8261 46.184 46.6642 46.35 46.4508C46.8122 45.8565 46.9193 45.2032 46.864 44.4631C46.8536 44.3246 46.7896 44.1508 46.8291 44.0191C46.8694 43.8849 46.8724 43.7337 46.8888 43.5938C46.9077 43.8375 46.9198 44.0788 46.9671 44.319C47.0651 44.8161 47.2431 45.4063 47.1415 45.9131C47.0532 46.3534 46.7866 46.7503 46.5008 47.0876C45.9438 47.7449 45.1052 48.2141 44.3163 48.533C44.2442 48.4802 44.1644 48.5311 44.0829 48.5568C42.9964 48.8988 41.9026 49.1125 40.766 49.2004C39.6609 49.2858 38.4979 49.1696 37.4121 48.9513C37.0824 48.885 36.731 48.8024 36.4071 48.7091C36.1591 48.6376 35.9147 48.4723 35.6543 48.4955L35.6475 48.4932C34.5421 48.0652 33.6095 47.3752 33.0938 46.288C33.1504 46.2998 33.253 46.3066 33.3016 46.3316C33.403 46.3836 33.5312 46.5366 33.6229 46.6179C33.8154 46.7882 34.0105 46.9444 34.227 47.084C34.6326 47.3453 35.1144 47.5695 35.5777 47.7087L36.5791 48.0398L36.6405 48.0565C36.868 48.125 37.0828 48.1198 37.3188 48.1221L37.5606 47.8898C38.0254 48.3495 38.5583 48.3504 39.161 48.4717L39.3181 48.5028C39.8152 48.5663 40.3309 48.5002 40.8245 48.4478C41.1382 48.4145 41.4635 48.3965 41.7587 48.2763C41.9634 48.193 42.1497 48.0159 42.3239 47.8809Z" fill="#402B24"/>
<path d="M53.8189 34.8936L59.313 35.2775C59.761 37.4394 59.0122 39.5814 58.0672 41.506C57.6224 42.4119 57.1292 43.3032 56.575 44.1475C53.9931 48.0807 50.5135 51.254 46.6664 53.9188C44.5606 55.3775 42.3267 56.6968 39.9632 57.6948C38.4077 57.0311 36.9574 56.2177 35.5143 55.3389C32.2679 53.3621 29.2741 50.9987 26.6734 48.221C24.5639 45.9679 22.7323 43.469 21.5705 40.5891C21.1561 39.5618 20.8626 38.5173 20.6327 37.4344C20.5319 36.9596 20.3846 36.3807 20.4889 35.8966L20.4998 35.8442C20.5582 35.5881 20.7212 35.405 20.94 35.2694C21.0996 35.1705 21.241 35.1074 21.4268 35.0796C22.0093 34.9928 22.6621 35.0616 23.2528 35.0731C24.3005 35.0936 25.3821 35.112 26.4276 35.0531L26.7469 35.9464L26.6998 36.0116L21.4811 36.0143C21.4636 38.1775 22.4452 40.486 23.4677 42.3577C24.6478 44.5181 26.2285 46.4254 27.952 48.1697C28.53 48.7546 29.0864 49.3458 29.694 49.9023C31.6846 51.7254 33.9431 53.253 36.2413 54.6558C37.0874 55.1723 37.9397 55.6985 38.8341 56.1276C39.2077 56.3068 39.5643 56.484 39.9633 56.6015C40.9533 56.23 41.9135 55.6805 42.8315 55.1596C45.9208 53.4068 48.8507 51.3505 51.3753 48.8395C53.5384 46.6881 55.4467 44.3862 56.8925 41.6876C57.4939 40.5652 58.0394 39.3586 58.3002 38.1054C58.4303 37.4806 58.4416 36.8879 58.4434 36.2521C57.6047 36.2664 56.7341 36.1382 55.899 36.0549C55.1285 35.978 54.3269 35.9539 53.5692 35.7918L53.8189 34.8936Z" fill="#FED851"/>
<path d="M19.95 26.1494L25.071 32.2561L25.1619 34.2188C24.3967 34.2182 23.6315 34.2179 22.8663 34.2187C22.3542 34.2192 21.8386 34.2022 21.3287 34.2521L21.2603 34.258C20.8078 34.299 20.3794 34.5117 20.0889 34.8633C19.9076 35.0828 19.7967 35.3134 19.7218 35.586L19.7042 35.6487C19.5606 36.1887 19.6618 36.8118 19.7539 37.3537L19.7346 37.3984C19.674 37.5121 19.5707 37.5993 19.4862 37.6953C19.3467 37.8539 19.2265 38.0303 19.1244 38.2148C19.0514 38.3467 19.0104 38.4689 18.9723 38.6133L18.9524 38.6817C18.9275 38.7732 18.9208 38.864 18.9112 38.9577C18.8547 39.5073 19.0198 40.1989 19.1507 40.7336L19.2639 41.1717L19.3178 41.3886C19.4202 41.8438 19.5839 42.2961 19.7316 42.7389C20.745 45.7769 22.6235 48.5284 24.7835 50.8675C25.2401 51.3621 25.6849 51.8771 26.2003 52.3146L24.1932 53.9717C23.8337 53.6282 23.4529 53.3687 22.9693 53.2374L22.9043 53.2187C22.1699 53.0168 21.3492 53.1372 20.6969 53.5209C20.4314 53.6771 20.1928 53.8762 19.9882 54.1066C18.0893 51.2833 16.7511 48.2005 16.1077 44.8529C15.8818 43.6775 15.6908 42.4893 15.6354 41.2918C15.3925 36.0419 16.9969 30.4904 19.95 26.1494Z" fill="#CC9330"/>
<path d="M19.0059 21.2106C22.8403 16.9132 28.1022 13.7927 33.737 12.5655C35.292 12.2268 36.8504 12.0551 38.4368 11.9616C44.0562 11.6306 49.6281 13.0188 54.4859 15.8457C55.6933 16.5484 56.9569 17.3549 57.9959 18.2927L61.015 21.1502L57.4627 23.1541C57.3378 23.0235 57.2436 22.8722 57.1243 22.7375C56.7559 22.3217 56.3309 21.9059 55.9189 21.5326C55.0877 20.7792 54.1524 20.1288 53.2111 19.5226C51.9847 18.7327 50.6452 17.9968 49.2827 17.4698L47.2702 16.7481L46.5227 16.528C46.2329 16.4411 45.941 16.3638 45.6473 16.2914C45.5771 16.2741 45.437 16.2203 45.3703 16.2229C45.3247 16.2246 45.2845 16.2543 45.2416 16.27C43.2971 15.6125 41.2987 15.3185 39.2459 15.4423C38.5347 15.4852 37.854 15.5959 37.1512 15.6945C36.7667 15.4729 34.6309 16.0909 34.1005 16.2342C29.6777 17.4298 25.7385 19.6769 22.5113 22.9363L19.0059 21.2106Z" fill="#A65318"/>
<path d="M53.5687 35.792C54.3265 35.9541 55.1281 35.9782 55.8986 36.055C56.7337 36.1383 57.6043 36.2665 58.443 36.2522C58.4412 36.888 58.4298 37.4807 58.2998 38.1056C58.039 39.3588 57.4935 40.5654 56.8921 41.6878C55.4463 44.3864 53.538 46.6882 51.3749 48.8396C48.8503 51.3507 45.9204 53.407 42.8311 55.1597C41.913 55.6807 40.9529 56.2302 39.9629 56.6017C39.5638 56.4842 39.2073 56.307 38.8337 56.1278C37.9393 55.6986 37.0869 55.1725 36.2409 54.656C33.9427 53.2532 31.6841 51.7255 29.6936 49.9025C29.086 49.346 28.5295 48.7548 27.9516 48.1699C26.2281 46.4256 24.6473 44.5182 23.4673 42.3579C22.4448 40.4861 21.4632 38.1776 21.4807 36.0144L26.6994 36.0118L26.7465 35.9466L27.6285 38.1244L24.1059 38.1271C24.5186 39.8261 25.2742 41.3762 26.1916 42.8581C27.5774 45.0967 29.2423 47.0413 31.4698 48.4765C31.605 49.3818 31.7771 50.0586 32.5563 50.6383C32.5905 50.6637 32.6227 50.689 32.6623 50.7045C33.3686 50.9936 34.0262 51.4119 34.7355 51.7068C36.0668 52.26 37.4888 52.4768 38.9145 52.5851C39.079 52.5976 39.2341 52.6454 39.3947 52.6603C39.8491 52.7024 40.4115 52.6717 40.8622 52.5978C41.0709 52.5636 41.3829 52.5152 41.5926 52.5425C41.6994 52.5564 41.7377 52.555 41.8426 52.5196C42.0526 52.4488 42.3181 52.5221 42.4958 52.4444L42.5348 52.4216L42.5819 52.3986L42.6173 52.3806C42.7191 52.4179 42.8127 52.4306 42.914 52.3836C42.9784 52.3536 43.039 52.3257 43.1056 52.3002L43.2814 52.3389L43.4181 52.2157L43.6525 52.2614L43.7697 52.1443L43.9779 52.1768L44.0431 52.0457C44.1245 52.0963 44.1584 52.1057 44.2542 52.0986L44.3361 51.9857C44.4234 51.9912 44.3967 51.9824 44.468 52.0096L44.5119 52.0279L44.6095 51.8931L44.7072 51.9469L44.8244 51.908C44.8059 51.8497 44.8088 51.8801 44.8174 51.8165L44.8818 51.8556C44.9571 51.8871 44.9943 51.8643 45.0587 51.8305C45.0456 51.7693 45.0433 51.8016 45.0783 51.7353C45.1584 51.7901 45.1133 51.7736 45.215 51.7814L45.262 51.7201L45.2931 51.667L45.3908 51.7163L45.4627 51.6761L45.4494 51.6255L45.4884 51.5977L45.6056 51.637L45.6837 51.5883L45.675 51.504L45.7405 51.5236L45.8112 51.5504L45.8717 51.465C45.9177 51.4564 45.9534 51.4486 45.9955 51.4274C46.0547 51.3975 46.0152 51.414 46.0769 51.39C46.5647 51.1993 47.1281 50.8878 47.548 50.5776C47.616 50.5273 47.6591 50.4859 47.7451 50.4683L47.7947 50.4638C48.2889 49.89 48.3545 49.3638 48.3612 48.6285L48.8638 48.3064L48.7306 48.2505L48.3283 48.5057C48.31 48.2655 48.294 48.0331 48.3097 47.7922C48.401 46.8679 48.358 45.9161 48.3477 44.9873C48.3402 44.3123 48.3607 43.635 48.3379 42.9607L48.2887 41.7684C48.9538 41.4626 49.6505 41.122 50.2487 40.7004C51.2052 40.0261 52.0652 39.0234 52.5987 37.9827L52.7289 37.7884L53.5687 35.792Z" fill="#CC9330"/>
<path d="M32.6621 50.7043C33.3684 50.9934 34.026 51.4117 34.7353 51.7066C36.0666 52.2599 37.4886 52.4766 38.9143 52.585C39.0788 52.5975 39.2339 52.6453 39.3945 52.6601C39.8488 52.7022 40.4113 52.6715 40.862 52.5976C41.0706 52.5634 41.3827 52.515 41.5923 52.5423C41.6991 52.5562 41.7374 52.5549 41.8423 52.5195C42.0523 52.4486 42.3179 52.5219 42.4955 52.4442L42.5346 52.4214L42.5817 52.3984L42.6171 52.3804C42.7188 52.4177 42.8125 52.4304 42.9138 52.3834C42.9781 52.3534 43.0388 52.3255 43.1054 52.3L43.2812 52.3388L43.4179 52.2155L43.6523 52.2613L43.7695 52.1442L43.9777 52.1766L44.0429 52.0456C44.1243 52.0961 44.1582 52.1056 44.254 52.0985L44.3359 51.9855C44.4231 51.991 44.3965 51.9822 44.4677 52.0094L44.5116 52.0278L44.6093 51.8929L44.707 51.9467L44.8241 51.9078C44.8056 51.8496 44.8086 51.88 44.8172 51.8164L44.8816 51.8554C44.9569 51.887 44.9941 51.8641 45.0585 51.8303C45.0454 51.7691 45.043 51.8014 45.078 51.7351C45.1582 51.79 45.113 51.7734 45.2148 51.7812L45.2618 51.7199L45.2929 51.6668L45.3905 51.7161L45.4624 51.6759L45.4491 51.6253L45.4882 51.5975L45.6054 51.6368L45.6835 51.5882L45.6748 51.5039L45.7403 51.5234L45.811 51.5502L45.8715 51.4648C45.9174 51.4562 45.9531 51.4485 45.9952 51.4272C46.0545 51.3973 46.015 51.4139 46.0766 51.3898C46.5645 51.1992 47.1279 50.8876 47.5477 50.5775C47.6158 50.5271 47.6588 50.4857 47.7449 50.4682L47.7945 50.4636C47.4762 50.9937 47.0209 51.3266 46.5122 51.6591C45.7917 52.13 45.0213 52.5 44.2301 52.8342C43.7695 53.0287 43.3069 53.2365 42.8209 53.3606C42.2742 53.5002 41.6962 53.64 41.1342 53.6991C38.7355 53.951 36.4205 53.328 34.3683 52.0823C33.9987 51.8579 33.6528 51.6017 33.3095 51.3395C33.0785 51.1631 32.8023 50.9654 32.6621 50.7043Z" fill="#65401F"/>
<path d="M52.7292 37.7883C53.4242 37.9918 54.1645 38.1446 54.8833 38.2368C55.2035 38.2779 55.5895 38.2474 55.8935 38.3399L55.9494 38.4443C55.6923 39.2311 55.5252 40.0045 55.1763 40.7657C54.0335 43.2585 52.2502 45.5652 50.157 47.3334C49.7654 47.6642 49.3372 48.0387 48.8908 48.2935L48.8641 48.3064L48.7309 48.2504L48.3286 48.5056C48.3103 48.2654 48.2943 48.033 48.31 47.7922C48.4013 46.8678 48.3584 45.916 48.348 44.9872C48.3405 44.3122 48.361 43.6349 48.3382 42.9607L48.2891 41.7683C48.9541 41.4625 49.6508 41.1219 50.249 40.7003C51.2055 40.0261 52.0655 39.0233 52.599 37.9826L52.7292 37.7883Z" fill="#1B273B"/>
<path d="M52.7279 37.7883C53.4229 37.9918 54.1632 38.1446 54.882 38.2368C55.2022 38.2779 55.5882 38.2474 55.8922 38.3399L55.948 38.4443C55.7223 38.5184 55.4186 38.4543 55.1839 38.4304C54.3001 38.3401 53.4629 38.169 52.5977 37.9826L52.7279 37.7883Z" fill="#0D0E22"/>
<path d="M52.6027 39.0715L54.0185 39.5593C53.3122 41.491 52.0888 43.2119 50.8523 44.8381C50.1006 45.8265 49.3363 46.8012 48.4091 47.632C48.3523 47.6829 48.3355 47.7226 48.3086 47.7922C48.3999 46.8678 48.357 45.916 48.3466 44.9872C48.3391 44.3122 48.3596 43.6349 48.3368 42.9607C48.6957 42.7348 49.0848 42.5645 49.4395 42.3345C50.7276 41.4994 51.778 40.3622 52.6027 39.0715Z" fill="#2E3D54"/>
<path d="M9.99329 39.1336L10.3719 35.049L10.7506 33.0898L11.0013 32.0898L11.0465 31.9482L11.2573 31.231L11.3982 30.7763L11.7891 29.6409C12.4924 27.8662 13.2647 26.176 14.2431 24.5328C15.4118 22.5701 16.8436 20.74 18.4273 19.0973C18.9099 18.5967 19.408 18.077 19.9283 17.6161C21.1287 16.5527 22.4352 15.6016 23.785 14.7384C24.903 14.0234 26.0857 13.3439 27.2983 12.8005L31.2284 11.2914L33.6562 10.6534L34.493 10.4989L34.9597 10.4201L35.161 10.3777C35.4176 10.3155 35.7133 10.3004 35.9773 10.2661C37.9476 10.0102 39.9305 9.94375 41.9148 10.0635C42.3536 10.09 42.8159 10.0925 43.2472 10.1742C43.4882 10.2199 43.7329 10.2016 43.9763 10.2539C44.3373 10.3315 44.7284 10.3174 45.0892 10.4161L48.5555 11.2166C49.0608 11.381 49.5763 11.5142 50.0789 11.6872C53.8134 12.9728 57.3416 15.0702 60.2763 17.7097C60.7089 18.0988 61.1203 18.4948 61.5311 18.9073C61.746 19.1231 61.9872 19.3368 62.1752 19.5759C62.4001 19.862 62.664 20.1205 62.8998 20.3984C63.3679 20.9502 63.8184 21.5273 64.2483 22.1094C66.5562 25.2341 68.3066 28.9521 69.2 32.733C69.5195 34.0849 69.7813 35.454 69.9422 36.8344C70.0081 37.4005 70.0463 37.9738 70.0893 38.5424C70.1059 38.7626 70.0852 39.0794 70.1572 39.2842C70.2359 42.9008 69.7187 46.6932 68.4013 50.0762L65.855 55.4685L65.7411 55.5L64.9031 55.3081L64.426 55.1995L66.5292 51.2237C67.1292 49.8383 67.5766 48.3498 67.9268 46.883C68.2261 45.6296 68.4792 44.371 68.6107 43.0874C69.0939 38.3707 68.3846 33.512 66.6276 29.1117C64.3868 23.4998 60.3968 18.8067 55.2534 15.6413C54.1657 14.9719 53.02 14.3443 51.8455 13.8409C50.7278 13.362 49.5883 12.9159 48.4229 12.5668C43.8108 11.1849 38.8875 10.9277 34.1675 11.8892C32.6729 12.1937 31.1659 12.6024 29.7476 13.168C28.741 13.5694 27.7414 13.9852 26.7793 14.4857C22.1976 16.8689 18.2331 20.5087 15.5015 24.8959C14.7277 26.1386 14.0584 27.4834 13.4819 28.8282C11.2691 33.9895 10.6258 39.8825 11.6863 45.3992C12.066 47.3749 12.6851 49.3102 13.43 51.176C13.3022 51.2192 13.2088 51.182 13.0777 51.1584C12.7057 51.0916 12.3619 50.9391 12.005 50.8222L11.9017 50.6975C11.6653 50.6893 11.4016 50.5606 11.1784 50.4841C10.5384 50.2646 9.89547 50.0497 9.27602 49.776C8.85048 49.588 8.44805 49.3516 8.01899 49.1705L8.01727 49.1098C7.80375 48.2056 7.55443 47.323 7.38073 46.4078C6.82821 43.497 6.7503 40.5495 6.91881 37.5986L6.97344 37.2926L9.88962 39.1602L9.96407 39.1153L9.99329 39.1336Z" fill="#FED851"/>
<path d="M6.91881 37.5985L6.97344 37.2925L9.88962 39.1601L9.96407 39.1152L9.99329 39.1335C9.96298 41.5286 10.148 43.87 10.6156 46.2203C10.732 46.8051 10.8424 47.4461 11.0525 48.0033L11.9017 50.6974C11.6653 50.6892 11.4016 50.5605 11.1784 50.484C10.5384 50.2645 9.89548 50.0496 9.27602 49.7759C8.85048 49.5879 8.44805 49.3515 8.01899 49.1704L8.01727 49.1097C7.80375 48.2055 7.55443 47.3229 7.38073 46.4077C6.82821 43.4969 6.7503 40.5494 6.91881 37.5985Z" fill="#CC9330"/>
<path d="M33.7237 18.6632C34.1418 18.3605 34.6373 18.1906 35.1156 18.0063C36.8035 17.3561 38.4494 17.0281 40.2613 17.032C40.7734 17.0331 41.301 17.0318 41.8079 17.1141C42.6907 17.2575 43.5595 17.4212 44.415 17.6873C47.2662 18.5737 49.7613 20.281 51.5028 22.7173C51.6824 22.9686 51.8499 23.2322 51.9999 23.5022C52.1278 23.7326 52.2677 24.1746 52.4839 24.3215L53.0341 25.7522C52.7015 26.1587 52.2469 26.35 51.7335 26.3995C51.2486 26.4463 50.6657 26.452 50.1903 26.3427L50.1244 26.3283C50.0255 26.3059 49.9512 26.2787 49.8649 26.223L50.057 23.5069C49.84 24.0108 49.7627 24.6237 49.6368 25.1587C49.3944 26.1897 49.1357 27.2178 48.9096 28.2524C49.165 28.5183 49.3558 28.8453 49.556 29.1534C49.8671 29.6326 50.1683 30.1142 50.4477 30.6129C50.7135 30.8931 50.8979 31.2474 51.0935 31.5782C51.8028 32.7775 52.5351 34.2495 52.4873 35.678C52.4753 36.038 52.3707 36.378 52.2528 36.7156C51.8169 37.9649 50.9474 39.0312 49.9816 39.914C49.597 40.2655 49.1647 40.6032 48.71 40.8589C48.4005 41.033 48.0605 41.1396 47.7469 41.303C46.9093 41.7392 46.3076 42.5566 46.2517 43.5137C46.2173 44.1003 46.3666 44.8415 46.2043 45.399C46.1106 45.7213 45.8875 46.0064 45.6436 46.2319L45.4757 46.3687L45.4089 46.3087C45.4412 46.2615 45.4679 46.2237 45.4842 46.168L45.4928 46.1315C45.2153 46.3819 44.9443 46.6017 44.6176 46.7858C44.3286 46.9487 43.8708 47.1548 43.5376 47.0473C43.0727 46.8974 42.9228 46.478 42.7171 46.082L42.4566 44.786C42.2733 45.3003 42.2288 45.8735 42.0863 46.403C42.0347 46.7913 41.9613 47.4007 41.6263 47.6447C41.0435 48.0691 39.6667 47.973 38.9657 47.8634L38.9053 47.8535C38.688 47.8199 38.4869 47.7673 38.3022 47.641C37.9235 47.382 37.9002 46.7808 37.8359 46.367L37.6324 45.318C37.4492 45.325 37.4319 45.353 37.2859 45.4689C37.2551 45.639 37.2335 45.816 37.1731 45.9784C37.016 46.3112 36.8167 46.9048 36.4443 47.0327C36.0696 47.1615 35.7024 46.989 35.3813 46.809L35.0085 46.5815L34.9333 46.7392L34.2692 46.3197C33.852 46.0186 33.6951 45.739 33.6124 45.2374C33.4781 44.4229 33.6872 43.6877 34.1052 42.995C33.7089 42.5324 33.3159 42.0811 32.8305 41.7082C31.7882 40.9076 30.5363 40.378 29.6071 39.4347C28.7589 38.5734 28.126 37.4541 27.7577 36.3061C27.6114 35.8501 27.4942 35.4246 27.4961 34.9429C27.8903 33.4028 28.6153 32.0315 29.4172 30.6733C29.7535 30.1037 30.0849 29.5209 30.5271 29.0256L31.0033 28.3344L30.7135 27.2573L29.8804 23.9017C29.885 23.6819 29.8389 23.4414 29.8061 23.2239C29.7538 22.8759 29.7014 22.3148 29.4794 22.0362C29.739 21.6556 30.108 21.3054 30.4442 20.9907C31.4388 20.0599 32.537 19.3209 33.7237 18.6632Z" fill="#FED851"/>
<path d="M37.2871 45.4689L37.4004 44.5725L37.6336 45.318C37.4505 45.325 37.4331 45.3531 37.2871 45.4689Z" fill="#0D0E22"/>
<path d="M38.6272 41.2994C38.4284 41.2937 38.2114 41.2365 38.0358 41.1437C37.7278 40.9812 37.4668 40.673 37.3597 40.3421C37.2465 39.9922 37.2903 39.6526 37.4586 39.3273C37.6621 38.9337 37.9505 38.5932 38.2029 38.2312C38.496 37.8111 38.7789 37.3078 39.1516 36.958C39.2961 36.8225 39.469 36.7334 39.6582 36.6787C39.9516 36.5939 40.2322 36.6261 40.4943 36.7905C40.6631 36.8962 40.8189 37.074 40.9529 37.2207C41.8869 38.2432 42.1986 39.7382 42.4778 41.0488C41.9328 41.1855 41.3741 41.2414 40.8152 41.2813L40.4904 40.3603L40.589 40.3869C40.7507 40.6743 40.8197 40.8888 40.8764 41.2122C41.1471 41.18 41.4156 41.1384 41.6855 41.1012C41.8304 41.0813 41.9478 41.0858 42.0875 41.0351C42.1557 40.8591 42.084 40.5886 42.05 40.4032C41.9221 39.7053 41.7479 39.0455 41.4601 38.3947C41.2017 37.8103 40.8428 37.181 40.2343 36.9232C40.0464 36.8436 39.7363 36.8398 39.5507 36.9294C39.2498 37.0747 39.0421 37.4258 38.8633 37.6952C38.5177 38.2158 37.6041 39.5516 37.7466 40.1913L37.8174 40.4187C37.8992 40.6757 38.0949 41.0367 38.3529 41.1514C38.4593 41.1987 38.5421 41.2147 38.6272 41.2994Z" fill="#0D0E22"/>
<path d="M38.628 41.2996C38.5429 41.2149 38.46 41.1988 38.3537 41.1516C38.0957 41.0369 37.9 40.6759 37.8182 40.4188L37.7474 40.1915C37.6049 39.5518 38.5185 38.216 38.8641 37.6954C39.0429 37.426 39.2506 37.0749 39.5515 36.9296C39.7371 36.84 40.0472 36.8438 40.235 36.9234C40.8436 37.1812 41.2025 37.8105 41.4609 38.3949C41.7487 39.0457 41.9229 39.7055 42.0508 40.4034C42.0848 40.5888 42.1564 40.8593 42.0883 41.0353C41.9486 41.086 41.8312 41.0815 41.6863 41.1014C41.4164 41.1386 41.1479 41.1802 40.8772 41.2124C40.8205 40.889 40.7515 40.6745 40.5898 40.3871L40.4912 40.3605C40.3348 40.115 40.1779 39.7289 39.9504 39.5509C39.8033 39.6412 39.749 39.8761 39.6824 40.0292C39.5979 40.2235 39.1686 41.2176 38.9657 41.292C38.8986 41.3166 38.7296 41.326 38.6593 41.3102L38.628 41.2996Z" fill="#402B24"/>
<path d="M50.4489 30.6128C50.7147 30.893 50.8991 31.2473 51.0948 31.5781C51.804 32.7774 52.5363 34.2494 52.4885 35.678C52.4765 36.038 52.3719 36.3779 52.2541 36.7155C51.8181 37.9648 50.9486 39.0311 49.9828 39.9139C49.5982 40.2654 49.1659 40.6031 48.7113 40.8588C48.4017 41.0329 48.0617 41.1395 47.7481 41.3029C46.9105 41.7391 46.3088 42.5565 46.2529 43.5136C46.2185 44.1002 46.3678 44.8415 46.2055 45.3989C46.1118 45.7212 45.8888 46.0063 45.6448 46.2318L45.477 46.3687L45.4101 46.3086C45.4424 46.2614 45.4691 46.2237 45.4855 46.1679L45.4941 46.1315C45.5659 45.9204 45.7405 45.7515 45.8141 45.5288L45.8302 45.4697C45.9809 44.9449 45.8177 44.4997 45.7601 43.9746C45.7239 43.6458 45.7156 43.3109 45.6987 42.9807L44.2404 43.2818L44.547 43.0519C45.1526 42.5576 45.3044 41.9786 45.3895 41.2359L43.8535 40.463C44.5366 40.4804 45.2094 40.4519 45.8844 40.3351C47.5437 40.0483 48.9083 39.2355 49.8787 37.8462C50.5475 36.8888 51.0916 35.6284 51.1997 34.4598C51.2673 33.7291 51.1635 32.9744 50.9825 32.2669C50.8431 31.7222 50.5517 31.2023 50.4557 30.6531L50.4489 30.6128Z" fill="#CC9330"/>
<path d="M30.5271 29.0256L30.5212 29.0592C30.4015 29.6856 30.0357 30.337 29.8153 30.9425C29.5417 31.6942 29.2971 32.4811 29.1918 33.2766C28.9945 34.7694 29.3074 36.3958 30.1497 37.656C31.5244 39.7129 34.1898 39.8951 36.1526 41.1426C35.4985 41.0117 34.9026 40.9364 34.2331 40.914C34.5259 41.494 34.7171 42.0124 34.7749 42.6622C34.7917 42.8511 34.8198 43.0584 34.761 43.2423C34.6939 43.4522 34.5471 43.6388 34.4244 43.82C34.0728 44.3395 33.8285 44.7711 34.0904 45.3945L34.1167 45.4589C34.3008 45.9034 34.6107 46.3074 35.0085 46.5816L34.9333 46.7392L34.2692 46.3197C33.852 46.0186 33.6951 45.7391 33.6124 45.2374C33.4781 44.4229 33.6872 43.6877 34.1052 42.995C33.7089 42.5324 33.3159 42.0811 32.8305 41.7082C31.7882 40.9077 30.5363 40.3781 29.6071 39.4347C28.7589 38.5734 28.126 37.4542 27.7577 36.3061C27.6114 35.8501 27.4942 35.4246 27.4961 34.9429C27.8903 33.4028 28.6153 32.0316 29.4172 30.6733C29.7535 30.1037 30.0849 29.5209 30.5271 29.0256Z" fill="#B37B28"/>
<path d="M33.7248 18.6631L33.7068 18.7024C33.568 18.9947 33.3406 19.2007 33.1397 19.447C32.9517 19.6773 32.7868 19.9276 32.6242 20.1761C31.8432 21.3696 31.3752 22.8556 31.3648 24.2834C31.3616 24.716 31.3789 25.1312 31.5234 25.5442C31.8352 26.4349 32.7929 26.9522 33.6013 27.32C34.5334 27.7439 35.5609 28.0222 36.5574 28.2463C37.8577 28.5386 39.2579 28.6929 40.587 28.5267C42.1129 28.3359 43.5485 27.7681 45.0392 27.4215C46.1436 27.1648 47.2984 27.1108 48.4286 27.1365L47.7631 28.7692L47.078 29.1601L47.0642 29.2377L47.0215 29.266C46.7666 29.4161 46.4766 29.4993 46.2036 29.6082C45.7734 29.78 45.3449 29.9539 44.9123 30.1193C44.2206 30.3837 43.5252 30.6683 42.8114 30.867C40.5919 31.485 38.3359 31.2164 36.1832 30.4925C35.4058 30.2311 34.6368 29.9211 33.8728 29.6225C33.5763 29.5067 33.2373 29.315 32.9268 29.2542L32.8523 29.2414C32.4381 28.9803 31.947 28.8497 31.5702 28.5311C31.4502 28.2075 31.2309 27.3407 30.9358 27.1679C30.8216 27.1852 30.7953 27.1775 30.7145 27.2572L29.8815 23.9016C29.8861 23.6818 29.8399 23.4413 29.8072 23.2238C29.7548 22.8758 29.7024 22.3146 29.4805 22.0361C29.7401 21.6555 30.1091 21.3053 30.4452 20.9906C31.4398 20.0598 32.538 19.3208 33.7248 18.6631Z" fill="#CC9330"/>
<path d="M32.852 29.2415L32.9265 29.2543C33.2371 29.3151 33.5761 29.5068 33.8725 29.6226C34.6365 29.9212 35.4055 30.2312 36.1829 30.4926C38.3356 31.2165 40.5916 31.4851 42.8111 30.8671C43.5249 30.6684 44.2203 30.3838 44.912 30.1194C45.3446 29.954 45.7732 29.7801 46.2033 29.6083C46.4764 29.4994 46.7663 29.4162 47.0212 29.2661L47.0639 29.2378C48.1768 29.6294 49.0968 30.4132 49.6147 31.486C50.1488 32.5921 50.2795 33.9186 49.8736 35.0876C49.5296 36.0779 48.8035 36.9665 47.8491 37.4157C46.7312 37.9417 45.5774 37.9579 44.42 37.5404C43.1875 37.0959 42.1741 36.1395 41.6223 34.9547C41.4243 34.5296 41.3023 34.0644 41.2755 33.5961C41.2246 33.5665 41.1725 33.5331 41.1132 33.5225C40.9146 33.4869 40.5968 33.5713 40.3905 33.5862C39.827 33.6272 39.2499 33.6737 38.6851 33.6833C38.6498 34.0169 38.6101 34.3508 38.5127 34.6731C38.1926 35.7322 37.4521 36.7072 36.4647 37.2252C35.4093 37.779 34.2028 37.996 33.0468 37.6159C31.8932 37.2366 30.985 36.5261 30.4364 35.433C29.9192 34.4023 29.8139 33.1774 30.1788 32.0805C30.6242 30.7415 31.6127 29.8585 32.852 29.2415Z" fill="#0D0E22"/>
<path d="M38.1953 31.5168C39.3755 31.7509 40.5831 31.77 41.7691 31.5765C41.4347 32.2558 41.2477 32.8324 41.2752 33.5961C41.2244 33.5665 41.1722 33.5331 41.1129 33.5225C40.9143 33.4868 40.5966 33.5713 40.3902 33.5862C39.8267 33.6272 39.2496 33.6737 38.6848 33.6832C38.6629 32.9068 38.5129 32.224 38.1953 31.5168Z" fill="#B37B28"/>
<path d="M32.8906 29.7639C33.3241 29.8339 33.6684 30.0353 34.0679 30.1965C34.5774 30.402 35.0967 30.5954 35.6126 30.7845C36.2492 31.0181 36.8989 31.1726 37.5402 31.3829C38.051 32.2002 38.3338 33.2177 38.18 34.1819C38.1185 34.5672 38.0305 34.9388 37.8714 35.2967C37.4177 36.3172 36.5232 37.0323 35.4969 37.4331L35.4628 37.4446C34.4669 37.7737 33.3022 37.5966 32.3783 37.1277C31.4949 36.6793 30.7817 35.7824 30.4793 34.8423C30.1953 33.959 30.1473 33.1205 30.4529 32.2313C30.8841 30.9769 31.731 30.332 32.8906 29.7639Z" fill="#402B24"/>
<path d="M34.0878 31.2986C34.6601 31.2232 35.3342 31.425 35.814 31.7301L35.8597 31.7596L35.8999 31.7847C36.4378 32.133 36.8303 32.8249 36.9583 33.4426C37.0953 34.1043 36.9338 34.7032 36.5608 35.258L36.5237 35.3125C36.0988 35.9443 35.4142 36.3366 34.688 36.5193C34.3354 36.554 33.9101 36.5757 33.5687 36.4695L33.5159 36.4518C33.3065 36.3838 33.1174 36.2971 32.9312 36.1787C32.2704 35.7589 31.8768 35.0722 31.7225 34.3156C31.5876 33.6547 31.7824 32.981 32.1539 32.4296C32.6301 31.7229 33.2833 31.457 34.0878 31.2986Z" fill="#0D0E22"/>
<path d="M33.0469 35.5284L33.4756 35.595C33.9598 35.6829 34.6713 35.5034 35.1437 35.3857C35.4388 35.3122 35.7081 35.2249 36.0155 35.2382C35.5742 35.6949 35.0515 36.0081 34.4022 36.0243C34.247 36.0282 34.097 36.0184 33.9442 35.9907L33.885 35.9804C33.5899 35.9243 33.2548 35.7438 33.0469 35.5284Z" fill="#940F14"/>
<path d="M32.3262 33.2461C32.5559 32.6806 32.8834 32.2499 33.4598 32.0044C34.0063 31.7717 34.6235 31.7879 35.1675 32.0173C35.6133 32.2053 36.073 32.5629 36.2509 33.0274C36.2955 33.144 36.3391 33.2659 36.3609 33.389C35.968 33.1122 35.6745 32.7913 35.2159 32.6004C34.4929 32.2995 33.6624 32.4113 33.0021 32.8183C32.7879 32.9504 32.5918 33.1411 32.3602 33.2332L32.3262 33.2461Z" fill="#940F14"/>
<path d="M32.3269 33.2462L32.3609 33.2333C32.5925 33.1411 32.7886 32.9504 33.0028 32.8184C33.6632 32.4113 34.4936 32.2995 35.2166 32.6004C35.6753 32.7913 35.9687 33.1123 36.3616 33.3891C36.5114 33.9095 36.4802 34.4586 36.2239 34.943C36.1691 35.0468 36.0927 35.1485 36.017 35.2383C35.7096 35.225 35.4402 35.3123 35.1451 35.3858C34.6728 35.5035 33.9613 35.683 33.4771 35.5952L33.0483 35.5285C32.7517 35.3277 32.537 35.0923 32.3836 34.7624C32.1504 34.2606 32.1414 33.7586 32.3269 33.2462Z" fill="#C31C1B"/>
<path d="M46.8744 29.6523C47.7661 30.0344 48.7417 30.6683 49.2734 31.4988C49.8612 32.4166 50.0143 33.5267 49.7772 34.5811C49.5382 35.6438 48.951 36.4741 48.0243 37.0477C47.0901 37.626 45.9994 37.6412 44.9614 37.3995C44.0823 36.9985 43.2721 36.6628 42.6458 35.8851C42.2623 35.409 41.971 34.8612 41.8362 34.2606L41.8206 34.1893C41.7451 33.8627 41.7241 33.5138 41.7786 33.1813C41.8759 32.5871 42.0423 31.9647 42.4472 31.5002C43.3653 31.1604 44.294 30.8767 45.2051 30.5109C45.8125 30.267 46.3471 30.0515 46.8744 29.6523Z" fill="#402B24"/>
<path d="M45.5559 31.2654C45.9642 31.2259 46.4003 31.321 46.7626 31.5128C47.4731 31.889 47.8616 32.4898 48.092 33.2422C48.1181 33.3276 48.1431 33.4069 48.1545 33.4961C48.2401 34.1666 47.9821 34.8998 47.5707 35.4263C47.1387 35.9792 46.3871 36.2884 45.7065 36.3696C45.4733 36.3711 45.2476 36.3583 45.0174 36.3152C44.396 36.1987 43.7892 35.8337 43.4295 35.3106L43.3854 35.2459C43.0181 34.7135 42.9264 34.1289 43.0041 33.4961C43.0536 33.0932 43.2076 32.6796 43.4585 32.3574C43.9887 31.6764 44.7187 31.3644 45.5559 31.2654Z" fill="#0D0E22"/>
<path d="M43.6406 33.2894C43.7785 32.8178 44.0888 32.3641 44.528 32.1255C45.0681 31.8322 45.6251 31.7593 46.2153 31.9369C46.7305 32.0919 47.1649 32.4285 47.4148 32.909C47.4895 33.0524 47.5309 33.2022 47.5709 33.3581C47.3058 33.2336 47.087 32.9304 46.8091 32.7775C46.265 32.4779 45.5407 32.3607 44.9389 32.5535L44.8835 32.5722C44.6338 32.6522 44.4205 32.7394 44.2048 32.8915C44.0238 33.0191 43.8727 33.1704 43.6738 33.273L43.6406 33.2894Z" fill="#940F14"/>
<path d="M43.64 33.2894L43.6732 33.273C43.8722 33.1704 44.0232 33.0191 44.2042 32.8915C44.4199 32.7394 44.6332 32.6521 44.8829 32.5722L44.9383 32.5534C45.5401 32.3606 46.2644 32.4778 46.8086 32.7774C47.0864 32.9303 47.3052 33.2335 47.5703 33.358L47.5918 33.4319C47.7069 33.8784 47.5368 34.4518 47.3036 34.8351C47.03 35.2848 46.5734 35.5773 46.066 35.6942C45.4698 35.8315 44.8802 35.7441 44.357 35.4234C43.9782 35.1911 43.6536 34.8501 43.5519 34.4037L43.5415 34.3555C43.464 34.0063 43.5108 33.6206 43.64 33.2894Z" fill="#C31C1B"/>
<path d="M18.5273 21.759L20.9878 24.7267C20.856 24.8376 20.7618 25.0079 20.659 25.1465C20.4151 25.4756 20.1814 25.8122 19.9484 26.1493C16.9954 30.4902 15.391 36.0418 15.6339 41.2916C15.6893 42.4892 15.8802 43.6773 16.1062 44.8528C16.7496 48.2004 18.0878 51.2832 19.9867 54.1065C19.5244 54.7667 19.2093 55.5035 19.3619 56.3285L19.4052 56.5233C19.6119 57.4226 20.1042 58.2465 20.8975 58.7438C21.1324 58.8911 21.4049 58.9899 21.663 59.09C21.7937 60.0314 22.159 60.7987 22.9287 61.3786C23.5421 61.8408 24.3442 62.0922 25.1144 61.976C25.9513 61.8497 26.6597 61.439 27.1468 60.7478L27.2619 60.5808C27.4922 60.0432 27.6 59.5848 27.6648 59.0016C27.5961 58.571 27.5333 58.1882 27.39 57.7729L31.8405 54.0243C34.46 55.7074 37.0618 57.4761 39.9708 58.6306C40.7357 58.3875 41.4588 57.9822 42.1687 57.613C44.2043 56.5542 46.0937 55.3658 47.9767 54.0609L52.8096 58.0009C52.6822 58.5066 52.5804 58.9531 52.6062 59.4797C52.6419 60.2133 52.9924 60.8503 53.539 61.333C54.1165 61.843 54.9651 62.0791 55.7288 62.0188C56.4699 61.9602 57.1241 61.6258 57.5937 61.0467C58.0454 60.4897 58.2807 59.7863 58.2138 59.0704C58.741 58.8974 59.2801 58.7248 59.7061 58.3525C60.2077 57.9141 60.6271 57.2832 60.6628 56.6C60.715 55.6004 60.4773 54.8038 59.7964 54.06C59.4045 53.7475 58.9019 53.4093 58.4001 53.3176L57.9427 53.2472C57.0496 53.1815 56.3249 53.5033 55.6621 54.0726L53.1712 51.9444C53.6524 51.3678 54.1497 50.7998 54.6041 50.202C55.8222 48.5994 56.895 46.8495 57.6569 44.9837C57.8369 44.5428 58.1155 43.9573 58.1008 43.4775C58.1716 43.2479 58.3206 43.0142 58.4312 42.8002C58.6582 42.3613 58.8922 41.9246 59.0991 41.4758C59.4413 40.7336 59.7099 39.9722 59.9344 39.1869C60.0556 38.763 60.185 38.3229 60.2327 37.8834C60.3524 36.7816 60.2115 35.6273 60.1016 34.5297L54.0448 34.0933L54.4333 32.0832L54.5839 29.9754L61.661 21.8665C61.861 22.0703 62.0214 22.313 62.1944 22.5401C62.4945 22.9344 62.7954 23.3289 63.0801 23.7347C65.7549 27.5461 67.3846 32.0134 67.969 36.6233C68.889 43.881 66.8579 51.5383 62.3501 57.3111C60.7975 59.2996 58.9903 61.1235 56.9655 62.6319C56.1626 63.23 55.297 63.7433 54.428 64.2378C51.2801 66.029 47.7563 67.3802 44.1418 67.81C42.4246 68.0142 40.7191 68.0698 38.9912 68.0281C37.9789 68.0036 36.9742 67.9586 35.969 67.8259C30.9689 67.1656 26.212 65.1314 22.2635 62.0023C21.4828 61.3836 20.7565 60.6928 20.0506 59.9914C19.3122 59.2577 18.5959 58.5075 17.942 57.6965C14.7477 53.7349 12.5676 48.6936 11.9785 43.6301C11.239 37.2733 12.4691 30.8961 15.8571 25.4296C16.6569 24.139 17.5868 22.9479 18.5273 21.759Z" fill="#A65318"/>
<path d="M31.2745 56.1108C32.0111 56.699 32.7954 57.1662 33.6045 57.6447C34.9902 58.4641 36.4053 59.2089 37.8666 59.8833C38.5499 60.1987 39.2493 60.4707 39.9285 60.7967C40.9813 60.3634 42.0233 59.9149 43.037 59.3946C44.695 58.5436 46.2809 57.5509 47.8743 56.5866C48.71 57.2169 49.533 57.8875 50.3402 58.5547C51.1195 59.199 51.8982 59.8913 52.7784 60.3953C51.3283 61.2519 49.8764 62.059 48.3055 62.6789C45.2508 63.8843 41.788 64.4679 38.5046 64.2835C37.861 64.2473 37.2154 64.142 36.5793 64.0422C35.7718 63.9155 34.9653 63.7732 34.1734 63.5679C32.0855 63.0265 30.1607 62.2156 28.2841 61.1613C27.956 60.977 27.563 60.8012 27.2637 60.5809C27.494 60.0433 27.6018 59.585 27.6666 59.0018C28.1064 58.7516 28.4852 58.4238 28.8755 58.1055C29.6805 57.449 30.4591 56.7526 31.2745 56.1108Z" fill="#CA6B17"/>
<path d="M54.434 32.0833C54.8051 31.8118 55.0854 31.4526 55.3911 31.1133C55.7757 30.6863 56.172 30.2689 56.5634 29.8482C57.2004 29.1636 57.8436 28.4762 58.4966 27.807C58.8198 27.4758 59.1672 27.1637 59.4801 26.823C59.7002 26.5833 59.8937 26.3201 60.1105 26.0779C60.8343 27.2464 61.5084 28.4243 62.0718 29.6798C63.5793 33.0393 64.3042 36.6498 64.2634 40.3262C64.245 41.9761 64.0969 43.655 63.7187 45.2631C63.0767 47.9934 62.012 50.4512 60.6007 52.8673C60.4475 53.1294 60.2788 53.3814 60.1164 53.6378C60.0265 53.7798 59.9377 53.9634 59.797 54.0601C59.4052 53.7476 58.9025 53.4094 58.4008 53.3177L57.9434 53.2473C57.0502 53.1816 56.3255 53.5034 55.6627 54.0727L53.1719 51.9445C53.653 51.3679 54.1504 50.7999 54.6048 50.2021C55.8228 48.5995 56.8956 46.8496 57.6575 44.9838C57.8376 44.5429 58.1161 43.9574 58.1014 43.4776C58.1722 43.248 58.3212 43.0143 58.4319 42.8003C58.6588 42.3614 58.8928 41.9247 59.0998 41.4759C59.442 40.7337 59.7105 39.9723 59.9351 39.187C60.0562 38.7631 60.1856 38.323 60.2334 37.8835C60.353 36.7817 60.2122 35.6274 60.1023 34.5298L54.0455 34.0933L54.434 32.0833Z" fill="#CA6B17"/>
</g>
<defs>
<linearGradient id="paint0_linear_2795_90323" x1="69.2587" y1="59.4399" x2="60.6934" y2="58.7024" gradientUnits="userSpaceOnUse">
<stop stop-color="#DA6E09"/>
<stop offset="1" stop-color="#D58609"/>
</linearGradient>
<linearGradient id="paint1_linear_2795_90323" x1="27.4764" y1="29.0138" x2="30.0143" y2="30.5738" gradientUnits="userSpaceOnUse">
<stop/>
<stop offset="1" stop-color="#0A1030"/>
</linearGradient>
</defs>
</svg>
