<svg width="24" height="24" viewBox="0 0 24 24" fill="none" xmlns="http://www.w3.org/2000/svg">
<path d="M5.41488 13.3508C4.12488 13.5609 2.82 13.6832 1.5 13.7061L1.54125 15.9109C3.105 15.8803 4.64637 15.7275 6.16869 15.46C6.08244 15.2689 6.00369 15.0741 5.93619 14.8715L5.4187 13.3469L5.41488 13.3508Z" fill="white"/>
<path d="M22.4993 6.80519L20.9655 5.25C20.2118 6.02185 19.4168 6.74024 18.5918 7.41275C19.0343 8.02412 19.2593 8.76159 19.2293 9.53728L19.2218 9.71305C20.3768 8.83037 21.4718 7.85991 22.4993 6.80519Z" fill="white"/>
<path d="M15.3491 6.85873L7.62035 8.67376C6.13909 9.02148 5.28035 10.6034 5.77535 12.0669L6.64535 14.6232C7.58284 17.3858 10.3054 19.0901 13.1479 18.6927C16.0392 18.2915 18.2292 15.8307 18.3492 12.8617L18.4804 9.50302C18.5479 7.78354 16.9916 6.47259 15.3491 6.85873ZM14.8128 13.0872C14.7603 13.2477 14.7416 13.4196 14.7453 13.5877V13.6107C14.7453 13.8399 14.6403 14.0463 14.4791 14.18C14.0965 14.501 13.8341 14.9595 13.8303 15.4677V16.2166C13.8303 16.423 13.6653 16.5873 13.4666 16.5873H11.2766C11.0741 16.5873 10.9128 16.4191 10.9128 16.2166V15.4677C10.9128 14.9633 10.6466 14.5048 10.2641 14.18C10.1028 14.0463 9.99783 13.8399 9.99783 13.6107V13.5877C10.0053 13.4158 9.98283 13.2477 9.93033 13.0872C9.85533 12.8426 9.81408 12.5828 9.81408 12.3115C9.81408 10.8748 10.9578 9.70923 12.3679 9.70923C13.778 9.70923 14.9218 10.8747 14.9218 12.3115C14.9218 12.5828 14.8805 12.8426 14.8055 13.0872H14.8128Z" fill="white"/>
<path d="M12 12.7662V12.3841C12 12.1739 11.8313 12.002 11.625 12.002C11.4187 12.002 11.25 12.1739 11.25 12.3841V12.7662C11.25 12.9763 11.4187 13.1483 11.625 13.1483C11.8313 13.1483 12 12.9763 12 12.7662Z" fill="white"/>
<path d="M13.125 12.002C12.9187 12.002 12.75 12.1739 12.75 12.3841V12.7662C12.75 12.9763 12.9187 13.1483 13.125 13.1483C13.3313 13.1483 13.5 12.9763 13.5 12.7662V12.3841C13.5 12.1739 13.3313 12.002 13.125 12.002Z" fill="white"/>
<path d="M12.5781 13.5762C12.4881 13.4157 12.2631 13.4157 12.1731 13.5762L11.8468 14.1532C11.7381 14.3442 11.9218 14.5697 12.1243 14.5009L12.3006 14.4398C12.3493 14.4245 12.4018 14.4245 12.4506 14.4398L12.6268 14.5009C12.8331 14.5697 13.0131 14.3442 12.9043 14.1532L12.5781 13.5762Z" fill="white"/>
</svg>
