<svg width="32" height="32" viewBox="0 0 32 32" fill="none" xmlns="http://www.w3.org/2000/svg">
<path d="M9.33371 14.0001C9.57338 14.0401 9.80308 14.0801 10.0327 14.1151C10.0777 12.1351 10.1975 10.14 10.3972 8.16497C10.0377 8.11497 9.68321 8.05997 9.33371 7.99997C8.64967 7.87497 7.42135 7.65498 6.27295 7.08496C5.68876 9.08996 5.36419 10.9448 5.18945 12.5448C5.34923 12.5598 5.49903 12.6098 5.63882 12.6998C6.56253 13.2898 7.80597 13.7301 9.33371 14.0001Z" fill="#34C3C0"/>
<path d="M15.5052 14.4948V8.49479C14.0722 8.48479 12.6691 8.40979 11.3858 8.27979C11.191 10.2598 11.0712 12.2548 11.0312 14.2347C12.3993 14.3947 13.9274 14.4798 15.5052 14.4948Z" fill="#34C3C0"/>
<path d="M16.504 14.4948C18.0868 14.4798 19.6147 14.3948 20.9779 14.2398C20.9379 12.2548 20.8181 10.2596 20.6233 8.27979C19.3351 8.40979 17.932 8.48478 16.5039 8.49479L16.504 14.4948Z" fill="#34C3C0"/>
<path d="M21.6115 8.16473C21.8112 10.1397 21.9311 12.1347 21.976 14.1148C22.2057 14.0798 22.4354 14.0398 22.675 13.9998C24.2029 13.7298 25.4462 13.2898 26.3698 12.6998C26.5096 12.6098 26.6594 12.5598 26.8191 12.5448C26.6444 10.9448 26.3198 9.08977 25.7356 7.08496C24.5872 7.65495 23.3589 7.87498 22.6849 7.99997C22.3303 8.05997 21.971 8.11473 21.6115 8.16473Z" fill="#34C3C0"/>
<path d="M7.11648 25.2801C8.02022 25.7351 9.05879 25.9201 9.67793 26.0301C9.9925 26.0851 10.327 26.1401 10.6865 26.1851C10.4219 24.1951 10.2321 22.17 10.1273 20.1451C9.72286 20.0951 9.33837 20.0351 8.98388 19.9701C7.48595 19.7051 6.18774 19.2801 5.11914 18.7051C5.32885 21.2201 5.81818 23.4152 6.35743 25.22C6.45729 25.185 6.56215 25.17 6.667 25.17C6.82179 25.17 6.97669 25.2051 7.11648 25.2801Z" fill="#34C3C0"/>
<path d="M15.5057 26.4952V20.4951C13.9928 20.4851 12.4999 20.4001 11.1367 20.2651C11.2466 22.2901 11.4413 24.3103 11.7159 26.3C12.8843 26.415 14.1827 26.4852 15.5057 26.4952Z" fill="#34C3C0"/>
<path d="M16.5041 20.495V26.495C17.8272 26.485 19.1254 26.415 20.2937 26.3C20.5683 24.31 20.7631 22.2901 20.8729 20.2651C19.5098 20.4001 18.017 20.485 16.5041 20.495Z" fill="#34C3C0"/>
<path d="M21.8815 20.145C21.7766 22.17 21.5869 24.1949 21.3223 26.185C21.6818 26.14 22.0163 26.085 22.3309 26.03C22.95 25.92 23.9886 25.735 24.8923 25.28C25.0321 25.205 25.1869 25.17 25.3417 25.17C25.4465 25.17 25.5514 25.185 25.6512 25.22C26.1905 23.415 26.6798 21.22 26.8895 18.7051C25.816 19.2801 24.5228 19.7051 23.0248 19.9701C22.6703 20.0351 22.2859 20.095 21.8815 20.145Z" fill="#34C3C0"/>
<path d="M24.4573 3.5C24.4573 4.32874 20.6725 5.00001 16.0041 5.00001C11.3356 5.00001 7.55078 4.32874 7.55078 3.5C7.55078 2.67127 11.3356 2 16.0041 2C20.6725 2 24.4573 2.67127 24.4573 3.5Z" fill="#34C3C0"/>
<path d="M26.9097 13.5396C25.9411 14.1596 24.6229 14.6695 22.8504 14.9845C22.426 15.0595 21.9716 15.1295 21.4923 15.1845C19.8645 15.3895 17.9672 15.4996 16.0048 15.4996C14.0424 15.4996 12.1452 15.3895 10.5173 15.1845C10.038 15.1295 9.58362 15.0595 9.15921 14.9845C7.38666 14.6695 6.06848 14.1596 5.09986 13.5396C5.02496 14.4746 5 15.2996 5 15.9996C5 16.5096 5.00999 17.0095 5.03495 17.4996C6.0136 18.1346 7.34677 18.6646 9.15438 18.9846C9.59876 19.0646 10.0731 19.1346 10.5774 19.1946C12.1852 19.3896 14.0625 19.4996 16 19.4996C17.9375 19.4996 19.8149 19.3896 21.4226 19.1946C21.9269 19.1346 22.4012 19.0646 22.8456 18.9846C24.6531 18.6646 25.9863 18.1346 26.965 17.4996C26.99 17.0096 27 16.5095 27 15.9996C27 15.2996 26.975 14.4746 26.9001 13.5396H26.9097Z" fill="#34C3C0"/>
<path d="M20.6636 27.2699C19.2555 27.4199 17.6577 27.4999 16.005 27.4999C14.3523 27.4999 12.7545 27.4199 11.3465 27.2699C10.6874 27.1999 10.0683 27.1149 9.50405 27.0149C8.85496 26.8999 7.70155 26.6949 6.66797 26.1699C6.96755 27.0699 7.27213 27.8499 7.55174 28.4999C8.11595 29.5599 11.7958 29.9999 16.005 29.9999C20.2143 29.9999 23.8943 29.5599 24.4583 28.4999C24.7379 27.8499 25.0425 27.0699 25.3421 26.1699C24.3085 26.6949 23.1551 26.8999 22.506 27.0149C21.9418 27.1149 21.3226 27.1999 20.6636 27.2699Z" fill="#34C3C0"/>
<path d="M10.9963 7.2347C12.4892 7.4047 14.2117 7.4997 16.0044 7.4997C17.7971 7.4997 19.5196 7.40469 21.0125 7.2347C21.5418 7.1697 22.0411 7.0947 22.5055 7.0147C23.1746 6.8947 24.3779 6.67969 25.4364 6.11968C25.2717 5.60967 25.0819 5.08467 24.8772 4.55469C23.4192 5.71968 19.4498 5.99968 16.0044 5.99968C12.5589 5.99968 8.58964 5.71968 7.13149 4.55469C6.92678 5.08467 6.73703 5.60467 6.57227 6.11968C7.6308 6.67969 8.83413 6.8947 9.50323 7.0147C9.96758 7.0947 10.467 7.1697 10.9963 7.2347Z" fill="#34C3C0"/>
</svg>
