<svg width="17" height="16" viewBox="0 0 17 16" fill="none" xmlns="http://www.w3.org/2000/svg">
<path d="M7.32381 3.99714C8.50923 3.99714 9.46975 3.72571 9.46975 3.39715C9.46975 3.09143 8.65805 2.84287 7.60988 2.80286C7.67996 2.19142 8.1004 1.88287 8.85661 1.88287C9.42888 1.88287 9.91939 1.79716 10.3194 1.63429C10.3369 1.71429 10.3515 1.79429 10.3603 1.87715L10.3982 2.28572L10.7311 2.03429C10.9997 1.83143 11.3208 1.70859 11.6596 1.68001L12.0771 1.64287L11.8201 1.31716C11.6128 1.0543 11.4873 0.740025 11.4581 0.408577L11.4201 0L11.0873 0.251429C10.8187 0.454291 10.4975 0.577135 10.1588 0.605716L9.74129 0.642858L9.99822 0.968564C10.0333 1.01428 10.0625 1.05999 10.0917 1.10856C9.76464 1.24285 9.35003 1.31143 8.8566 1.31143C7.33543 1.31143 7.06681 2.33142 7.02301 2.76571C7.02301 2.78 7.02301 2.79142 7.02009 2.80285C5.97775 2.84285 5.17773 3.09429 5.17773 3.39714C5.17773 3.72572 6.13847 3.99714 7.32381 3.99714Z" fill="white"/>
<path d="M9.25169 13.5315C8.90423 13.2515 8.70569 12.8401 8.70569 12.4001V12.3715C8.71153 12.2058 8.69401 12.0658 8.65022 11.9372C8.53343 11.5772 8.47503 11.2029 8.47503 10.8229C8.47503 8.8144 10.1101 7.17435 12.148 7.10578C11.6137 6.33721 10.8984 5.70006 10.0546 5.26294V5.49722C10.0546 6.58293 7.96396 6.66864 7.32471 6.66864C6.68545 6.66864 4.59482 6.58292 4.59482 5.49722V5.26294C2.75247 6.22009 1.5 8.11442 1.5 10.2972C1.5 13.4458 4.1073 15.9972 7.32489 15.9972C8.23293 15.9972 9.09133 15.7887 9.85632 15.4258V14.643C9.85632 14.2401 9.63442 13.8344 9.25193 13.5287L9.25169 13.5315Z" fill="white"/>
<path d="M12.279 7.67139C10.5009 7.67139 9.05859 9.08283 9.05859 10.8228C9.05859 11.1513 9.11115 11.4656 9.2075 11.7628C9.27174 11.9599 9.29801 12.1656 9.28925 12.3713V12.3999C9.28925 12.677 9.42064 12.9256 9.62209 13.0885C10.1068 13.477 10.4367 14.0313 10.4396 14.6456V15.5485C10.4396 15.797 10.6469 15.9999 10.898 15.9999H11.1024V15.037C11.1024 14.8799 11.2338 14.7513 11.3944 14.7513C11.555 14.7513 11.6864 14.8799 11.6864 15.037V15.9999H11.9871V15.037C11.9871 14.8799 12.1185 14.7513 12.2791 14.7513C12.4396 14.7513 12.571 14.8799 12.571 15.037V15.9999H12.8718V15.037C12.8718 14.8799 13.0032 14.7513 13.1637 14.7513C13.3243 14.7513 13.4557 14.8799 13.4557 15.037V15.9999H13.6601C13.9112 15.9999 14.1185 15.797 14.1185 15.5485V14.6456C14.1214 14.0313 14.4543 13.477 14.936 13.0885C15.1375 12.9256 15.2689 12.677 15.2689 12.3999V12.3713C15.2601 12.1656 15.2893 11.9599 15.3535 11.7628C15.447 11.4656 15.4995 11.1513 15.4995 10.8228C15.4995 9.08275 14.057 7.67139 12.279 7.67139ZM10.9534 11.6743C10.5563 11.6743 10.2352 11.36 10.2352 10.9715C10.2352 10.5829 10.5563 10.2686 10.9534 10.2686C11.3505 10.2686 11.6717 10.5829 11.6717 10.9715C11.6717 11.36 11.3505 11.6743 10.9534 11.6743ZM12.6031 13.5943L12.3753 13.52C12.314 13.5 12.2468 13.5 12.1826 13.52L11.9549 13.5943C11.6921 13.68 11.4614 13.4029 11.5987 13.1686L12.0162 12.4572C12.133 12.2601 12.4221 12.2601 12.5359 12.4572L12.9534 13.1686C13.0907 13.4029 12.86 13.6801 12.5972 13.5943H12.6031ZM13.6045 11.6743C13.2075 11.6743 12.8863 11.36 12.8863 10.9715C12.8863 10.5829 13.2075 10.2686 13.6045 10.2686C14.0016 10.2686 14.3228 10.5829 14.3228 10.9715C14.3228 11.36 14.0016 11.6743 13.6045 11.6743Z" fill="white"/>
<path d="M7.32367 6.09736C8.50909 6.09736 9.4696 5.82878 9.4696 5.49736V4.19165C8.80099 4.53166 7.74695 4.56879 7.32367 4.56879C6.90039 4.56879 5.84629 4.52879 5.17773 4.19165V5.49736C5.17773 5.82879 6.13832 6.09736 7.32367 6.09736Z" fill="white"/>
</svg>
