<svg width="15" height="15" viewBox="0 0 15 15" fill="none" xmlns="http://www.w3.org/2000/svg">
<g clip-path="url(#clip0_1_161)">
<path d="M7.48309 0C7.6357 0.000283095 7.788 0.00731254 7.93999 0.0210884C8.09198 0.0348642 8.24306 0.0553326 8.39324 0.0824936C8.92367 0.174134 9.42194 0.365736 9.89018 0.627955C10.0441 0.71414 10.1986 0.800957 10.3441 0.901077C10.8323 1.23729 11.2803 1.69212 11.6207 2.17654C12.1512 2.93129 12.4479 3.75985 12.507 4.68097C12.5132 4.76624 12.5169 4.85161 12.5181 4.9371C12.5192 5.02259 12.5178 5.10803 12.5138 5.19343C12.5099 5.27884 12.5033 5.36404 12.4943 5.44906C12.4852 5.53407 12.4736 5.61874 12.4595 5.70305C12.8643 6.05664 13.264 6.41588 13.6586 6.78077C13.8604 6.96424 14.0731 7.13899 14.2668 7.33093C14.1189 7.51954 13.9407 7.69127 13.7799 7.86919C13.4795 8.20161 13.1844 8.54042 12.8885 8.87689L9.30572 12.9472L8.26648 14.1321C8.01531 14.418 7.75812 14.7001 7.52347 15C7.4547 14.9579 7.00652 14.4168 6.91744 14.3136L6.24383 13.5457L2.72466 9.55704L1.48599 8.15606C1.24282 7.88247 1.00712 7.60215 0.74707 7.34412C0.81258 7.27915 0.885521 7.21988 0.954546 7.15844C1.10381 7.02443 1.25413 6.89162 1.40551 6.76001L2.56428 5.72162C2.52537 5.52727 2.51486 5.32249 2.51048 5.12459C2.50933 5.08404 2.50868 5.04348 2.50854 5.00291C2.50839 4.96234 2.50875 4.92178 2.50961 4.88122C2.51046 4.84066 2.51181 4.80011 2.51368 4.75959C2.51554 4.71906 2.5179 4.67857 2.52076 4.63811C2.52363 4.59764 2.52699 4.55722 2.53086 4.51683C2.53472 4.47644 2.53908 4.43612 2.54393 4.39585C2.5488 4.35557 2.55416 4.31536 2.56002 4.27522C2.56587 4.23507 2.57222 4.195 2.57907 4.15501C2.58591 4.11504 2.59326 4.07514 2.60109 4.03534C2.60893 3.99553 2.61725 3.95583 2.62607 3.91623C2.63489 3.87664 2.64419 3.83716 2.65399 3.79778C2.66378 3.75842 2.67406 3.71918 2.68482 3.68006C2.69559 3.64094 2.70683 3.60197 2.71855 3.56315C2.73029 3.52431 2.74249 3.48562 2.75517 3.44709C2.76786 3.40855 2.78103 3.37018 2.79467 3.33197C2.80829 3.29377 2.8224 3.25574 2.83699 3.21788C2.85156 3.18002 2.8666 3.14235 2.8821 3.10486C2.89761 3.06738 2.91358 3.03009 2.93002 2.993C2.94645 2.9559 2.96333 2.91902 2.98067 2.88235C2.99802 2.84567 3.01582 2.80922 3.03406 2.77299C3.05231 2.73676 3.071 2.70075 3.09014 2.66497C3.10927 2.6292 3.12884 2.59368 3.14886 2.55839C3.16887 2.52311 3.18932 2.48808 3.2102 2.4533C3.23108 2.41852 3.2524 2.384 3.27414 2.34974C3.29587 2.31549 3.31803 2.28151 3.3406 2.24781C3.36318 2.2141 3.38617 2.18068 3.40957 2.14754C3.43297 2.11441 3.45679 2.08157 3.481 2.04902C3.50522 2.01648 3.52984 1.98424 3.55486 1.9523C3.57987 1.92036 3.60528 1.88874 3.63107 1.85743C3.65687 1.82611 3.68305 1.79513 3.70962 1.76447C3.73617 1.73381 3.76311 1.70348 3.79043 1.67349C3.81774 1.64349 3.84542 1.61384 3.87347 1.58453C4.84934 0.568686 6.07626 0.0292002 7.48309 0Z" fill="#0D0D0D"/>
<path d="M8.61951 11.69C8.71645 11.6901 8.81339 11.6896 8.91033 11.6885C8.8379 11.8531 8.7459 12.0092 8.66461 12.1696C8.39747 12.6967 8.11256 13.2145 7.84432 13.7411C7.81331 13.8065 7.78139 13.8715 7.74856 13.936C7.73786 13.6907 7.73942 13.4448 7.73669 13.1993C7.7334 12.9132 7.72825 12.627 7.72126 12.3409C7.71725 12.1239 7.71835 11.907 7.70175 11.6904L8.61951 11.69Z" fill="white"/>
<path d="M6.10159 11.6846C6.50678 11.7024 6.92001 11.6985 7.32548 11.6867C7.31064 11.8822 7.30864 12.079 7.30151 12.2749C7.28279 12.7977 7.27117 13.3207 7.26665 13.8438C7.26645 13.8701 7.26815 13.8958 7.25914 13.9208C7.20592 13.8754 6.59989 12.6423 6.51687 12.4796L6.10159 11.6846Z" fill="white"/>
<path d="M7.30115 0.516344C7.38197 0.506359 7.47159 0.512295 7.5532 0.513133C7.61887 0.514124 7.68448 0.516584 7.75003 0.520513C7.8156 0.524441 7.88104 0.529834 7.94635 0.536691C8.01167 0.543548 8.0768 0.551863 8.14174 0.561636C8.20669 0.571407 8.27138 0.582627 8.33583 0.595295C8.40027 0.607964 8.4644 0.622067 8.52821 0.637604C8.59202 0.653142 8.65545 0.6701 8.71851 0.688477C8.78155 0.706855 8.84416 0.726633 8.90633 0.747813C8.9685 0.768992 9.03016 0.791551 9.09132 0.815491C9.12631 0.829129 9.16113 0.843197 9.19578 0.857697C9.23043 0.872185 9.26491 0.887093 9.2992 0.902421C9.33348 0.91776 9.36757 0.933513 9.40147 0.949681C9.43538 0.965848 9.46908 0.982431 9.50258 0.999427C9.53606 1.01641 9.56935 1.03381 9.60242 1.05161C9.63549 1.06941 9.66834 1.08762 9.70096 1.10623C9.73359 1.12484 9.76598 1.14385 9.79815 1.16325C9.83031 1.18264 9.86223 1.20243 9.89391 1.22261C9.92559 1.2428 9.95701 1.26336 9.98819 1.28431C10.0194 1.30526 10.0503 1.32658 10.0809 1.34828C10.1116 1.36999 10.142 1.39207 10.1721 1.41451C10.2022 1.43695 10.232 1.45976 10.2616 1.48294C10.2911 1.50612 10.3204 1.52966 10.3494 1.55354C10.3784 1.57744 10.4071 1.60168 10.4354 1.62627C10.4638 1.65086 10.4919 1.6758 10.5197 1.70107C10.5475 1.72636 10.5749 1.75197 10.6021 1.77793C10.6292 1.80387 10.6561 1.83014 10.6826 1.85675C10.7091 1.88336 10.7353 1.91029 10.7611 1.93753C10.787 1.96477 10.8125 1.99234 10.8377 2.02021C10.8629 2.04808 10.8877 2.07625 10.9122 2.10472C10.9367 2.13321 10.9608 2.16198 10.9846 2.19104C11.0084 2.2201 11.0318 2.24946 11.0549 2.2791C11.078 2.30875 11.1007 2.33866 11.123 2.36886C11.1453 2.39905 11.1673 2.42951 11.1889 2.46024C11.2105 2.49098 11.2317 2.52196 11.2525 2.55321C11.2734 2.58446 11.2938 2.61596 11.3139 2.64772C11.334 2.67946 11.3536 2.71145 11.3729 2.74369C11.3922 2.77592 11.4111 2.80838 11.4296 2.84107C11.4481 2.87376 11.4662 2.90667 11.4838 2.93981C11.5015 2.97295 11.5188 3.00629 11.5357 3.03984C11.5525 3.0734 11.569 3.10716 11.585 3.14112C11.6011 3.17508 11.6167 3.20923 11.6319 3.24357C11.9916 4.0724 12.0781 4.9197 11.9135 5.806C11.8715 6.03194 11.8224 6.2615 11.7377 6.47582C11.8073 6.68626 11.8692 6.89921 11.9395 7.10932C12.0215 7.35428 12.1108 7.59823 12.1864 7.84519C11.9079 8.09972 11.6218 8.34749 11.3397 8.59816C11.2119 8.7117 11.0792 8.82198 10.9573 8.94172C10.5213 8.83743 10.1051 8.65328 9.67029 8.54625C9.74998 8.92355 9.8155 9.30421 9.88961 9.68269C9.94956 9.98879 10.0234 10.2986 10.0598 10.6084C9.96082 10.6649 9.86707 10.7353 9.7728 10.7993C9.56243 10.9422 9.35403 11.0893 9.14029 11.227C9.01837 10.7655 8.88467 10.3075 8.73921 9.85286C8.71909 9.79066 8.71276 9.72353 8.6899 9.66235C8.68365 9.64561 8.67645 9.63282 8.66227 9.62166C8.70635 9.75508 8.72684 9.9632 8.7543 10.1091C8.82617 10.4908 8.90223 10.8722 8.96357 11.2557C8.7808 11.2653 8.59594 11.2606 8.41288 11.2607C8.15904 11.2607 7.90545 11.2625 7.65169 11.2552C7.64658 11.0125 7.62367 10.7711 7.60919 10.5289C7.58922 10.1949 7.57378 9.86185 7.54357 9.52855C7.538 9.48783 7.53526 9.44672 7.5318 9.40577C7.46659 10.0214 7.43693 10.6385 7.39057 11.2554C6.94869 11.2605 6.50679 11.2613 6.06488 11.2577C6.15194 10.6882 6.29658 10.1266 6.37589 9.55648C6.32952 9.69102 6.29485 9.83166 6.25408 9.9682C6.12471 10.3951 6.00892 10.8256 5.90673 11.2598C5.75828 11.1715 5.6196 11.0648 5.48009 10.9632C5.3085 10.8383 5.13642 10.715 4.96879 10.5848C5.03799 10.2068 5.1007 9.82746 5.16496 9.44866C5.21602 9.14777 5.27088 8.84583 5.31275 8.54356C4.91757 8.66375 4.53984 8.85046 4.14175 8.96111C4.0086 8.87345 3.83908 8.71014 3.71348 8.60026C3.42517 8.34689 3.13895 8.09119 2.8548 7.83318C2.91669 7.67572 2.95946 7.51013 3.01066 7.34889L3.28863 6.46712C3.13506 6.1157 3.04145 5.63523 3.01209 5.25155C2.92437 4.10516 3.3537 2.95549 4.09545 2.09013C4.1169 2.06537 4.13862 2.04085 4.1606 2.01657C4.18258 1.99227 4.20481 1.96822 4.22731 1.94441C4.2498 1.92059 4.27254 1.89701 4.29554 1.87369C4.31855 1.85036 4.34179 1.82729 4.36528 1.80445C4.38878 1.78162 4.41251 1.75905 4.43648 1.73672C4.46046 1.7144 4.48467 1.69233 4.50913 1.67052C4.53357 1.64873 4.55825 1.62719 4.58316 1.60591C4.60806 1.58463 4.6332 1.56362 4.65856 1.54289C4.68391 1.52215 4.70948 1.50168 4.73528 1.48148C4.76107 1.46129 4.78708 1.44138 4.8133 1.42174C4.83952 1.40211 4.86595 1.38276 4.89259 1.36368C4.91922 1.34462 4.94606 1.32584 4.9731 1.30733C5.00014 1.28884 5.02737 1.27064 5.0548 1.25273C5.08223 1.23482 5.10984 1.21719 5.13764 1.19986C5.16545 1.18254 5.19343 1.16553 5.2216 1.14881C5.24977 1.13208 5.27811 1.11566 5.30663 1.09955C5.33515 1.08342 5.36384 1.06761 5.3927 1.05211C5.42156 1.03661 5.45058 1.02142 5.47976 1.00653C5.50894 0.991655 5.53828 0.977086 5.56778 0.962824C5.59727 0.948572 5.62691 0.934638 5.65671 0.921022C5.6865 0.907394 5.71644 0.89409 5.74651 0.881108C5.77659 0.868138 5.8068 0.855485 5.83716 0.843149C5.8675 0.830813 5.89797 0.818805 5.92858 0.807124C5.95918 0.795442 5.9899 0.784089 6.02075 0.773065C6.0516 0.762041 6.08257 0.751348 6.11364 0.740986C6.14472 0.730625 6.1759 0.720597 6.20719 0.710903C6.23848 0.701209 6.26988 0.69185 6.30137 0.682828C6.33287 0.673806 6.36445 0.665121 6.39612 0.656773C6.4278 0.648427 6.45956 0.64042 6.49141 0.632753C6.52326 0.625084 6.55519 0.617758 6.58719 0.610774C6.6192 0.60379 6.65128 0.597149 6.68342 0.590852C6.71557 0.584554 6.74779 0.5786 6.78006 0.572991C6.9525 0.542804 7.12676 0.529631 7.30115 0.516344Z" fill="white"/>
<path d="M7.51695 6.42026C7.54782 6.47701 7.56354 6.55629 7.58311 6.61881L7.71121 7.02491L8.28745 8.82975C8.03052 8.84622 7.76687 8.8349 7.50916 8.83502L6.7399 8.8355C6.76312 8.71827 6.80794 8.60125 6.84427 8.48733C6.91232 8.27264 6.98193 8.05847 7.05312 7.84481L7.37042 6.86641C7.41915 6.71772 7.46363 6.56738 7.51695 6.42026Z" fill="#0D0D0D"/>
<path d="M4.57389 4.51602C4.66253 4.54315 4.75345 4.56327 4.84254 4.58929L6.07016 4.94486C6.28079 5.00567 6.49338 5.06242 6.70249 5.12814C6.7244 5.23229 6.75866 5.33361 6.78151 5.43759C6.83812 5.69517 6.82941 5.98052 6.74767 6.23177C6.62181 6.61863 6.34749 6.93015 5.98572 7.1164C5.74942 7.22981 5.49488 7.29478 5.23153 7.279C4.84538 7.25588 4.50352 7.08202 4.24795 6.79409C4.23979 6.7848 4.23175 6.77541 4.22384 6.76593C4.21592 6.75645 4.20811 6.74687 4.20043 6.73719C4.19274 6.7275 4.18518 6.71773 4.17773 6.70787C4.17029 6.698 4.16297 6.68804 4.15578 6.678C4.14858 6.66794 4.14151 6.65781 4.13457 6.64758C4.12763 6.63735 4.12081 6.62705 4.11413 6.61666C4.10744 6.60626 4.10089 6.59579 4.09446 6.58524C4.08802 6.57468 4.08173 6.56404 4.07557 6.55333C4.0694 6.54262 4.06337 6.53184 4.05747 6.52098C4.05157 6.51012 4.04581 6.49919 4.04019 6.48819C4.03456 6.47717 4.02907 6.4661 4.02373 6.45496C4.01838 6.44382 4.01317 6.43261 4.0081 6.42134C4.00301 6.41008 3.99808 6.39875 3.99329 6.38735C3.9885 6.37596 3.98385 6.36452 3.97934 6.35301C3.97484 6.3415 3.97048 6.32994 3.96625 6.31833C3.96203 6.30671 3.95795 6.29505 3.95402 6.28332C3.95009 6.27161 3.9463 6.25985 3.94266 6.24804C3.93902 6.23623 3.93552 6.22437 3.93218 6.21247C3.92884 6.20058 3.92564 6.18864 3.92259 6.17666C3.91954 6.16469 3.91664 6.15268 3.91388 6.14062C3.91113 6.12858 3.90853 6.1165 3.90608 6.10439C3.90363 6.09227 3.90133 6.08013 3.89917 6.06797C3.89702 6.05579 3.89502 6.0436 3.89317 6.03138C3.89132 6.01916 3.88962 6.00692 3.88808 5.99466C3.88653 5.9824 3.88514 5.97012 3.8839 5.95782C3.88266 5.94553 3.88158 5.93322 3.88064 5.92089C3.8797 5.90857 3.87892 5.89624 3.87828 5.8839C3.87766 5.87156 3.87718 5.8592 3.87686 5.84685C3.87654 5.8345 3.87636 5.82214 3.87634 5.80978C3.87633 5.79742 3.87647 5.78506 3.87676 5.7727C3.87705 5.76036 3.8775 5.74801 3.87809 5.73566C3.87868 5.72332 3.87943 5.71098 3.88033 5.69866C3.91726 5.13974 4.17965 4.86231 4.57389 4.51602Z" fill="#0D0D0D"/>
<path d="M10.4341 4.50191C10.4488 4.49863 10.4606 4.49749 10.4749 4.50393C10.5278 4.52778 10.5824 4.58056 10.625 4.61913C10.8181 4.79415 10.9594 4.98518 11.0609 5.22671C11.2121 5.58607 11.2039 5.98801 11.0547 6.34616C11.05 6.35779 11.0451 6.36936 11.0401 6.38086C11.0351 6.39237 11.03 6.40381 11.0247 6.41517C11.0194 6.42655 11.0139 6.43786 11.0084 6.4491C11.0028 6.46034 10.9971 6.47152 10.9912 6.48262C10.9854 6.49371 10.9794 6.50474 10.9732 6.51568C10.9671 6.52663 10.9608 6.5375 10.9544 6.5483C10.948 6.55909 10.9415 6.5698 10.9348 6.58043C10.9282 6.59106 10.9214 6.60161 10.9144 6.61207C10.9075 6.62254 10.9004 6.63291 10.8932 6.64319C10.8861 6.65348 10.8787 6.66367 10.8713 6.67377C10.8639 6.68388 10.8563 6.69389 10.8486 6.7038C10.8409 6.71371 10.8331 6.72353 10.8252 6.73325C10.8172 6.74298 10.8092 6.7526 10.801 6.76212C10.7928 6.77165 10.7845 6.78106 10.7761 6.79038C10.7677 6.79969 10.7592 6.8089 10.7505 6.818C10.7419 6.8271 10.7332 6.83609 10.7243 6.84498C10.7154 6.85386 10.7065 6.86263 10.6974 6.8713C10.6883 6.87995 10.6791 6.8885 10.6698 6.89694C10.6605 6.90537 10.6511 6.91368 10.6416 6.92189C10.6321 6.93009 10.6225 6.93817 10.6128 6.94612C10.6031 6.95409 10.5933 6.96192 10.5834 6.96963C10.5735 6.97735 10.5636 6.98494 10.5535 6.99241C10.5434 6.99988 10.5332 7.00722 10.5229 7.01444C10.5127 7.02165 10.5023 7.02873 10.4919 7.03568C10.4814 7.04265 10.4709 7.04948 10.4603 7.05617C10.4497 7.06287 10.439 7.06943 10.4282 7.07585C10.4174 7.08228 10.4066 7.08857 10.3956 7.09473C10.3847 7.10089 10.3737 7.10691 10.3626 7.1128C10.3515 7.11867 10.3404 7.12442 10.3291 7.13002C10.3179 7.13563 10.3066 7.1411 10.2953 7.14643C10.2839 7.15176 10.2725 7.15694 10.261 7.16198C10.2495 7.16702 10.2379 7.17191 10.2263 7.17667C9.85746 7.32635 9.44383 7.31199 9.07985 7.15702C8.73786 7.00447 8.46208 6.69891 8.32518 6.35246C8.17325 5.96791 8.19243 5.49762 8.35686 5.11995C8.55221 5.04456 8.76197 4.99834 8.96274 4.93905L9.97008 4.63546C10.1244 4.58947 10.2806 4.55066 10.4341 4.50191Z" fill="#0D0D0D"/>
</g>
<defs>
<clipPath id="clip0_1_161">
<rect width="15" height="15" fill="white"/>
</clipPath>
</defs>
</svg>
