<svg width="24" height="24" viewBox="0 0 24 24" fill="none" xmlns="http://www.w3.org/2000/svg">
<path d="M8.77367 6.26426L12 9.49059L15.2263 6.26426L14.625 4.125C14.625 2.67534 15.8003 1.5 17.25 1.5C18.6996 1.5 19.875 2.67534 19.875 4.125C21.3246 4.125 22.5 5.30034 22.5 6.75C22.5 8.19965 21.3246 9.375 19.875 9.375L17.7357 8.77367L14.5094 12L17.7357 15.2263L19.875 14.625C21.3246 14.625 22.5 15.8003 22.5 17.25C22.5 18.6997 21.3246 19.875 19.875 19.875C19.875 21.3247 18.6996 22.5 17.25 22.5C15.8003 22.5 14.625 21.3247 14.625 19.875L15.2263 17.7358L12 14.5094L8.77367 17.7358L9.375 19.875C9.375 21.3247 8.19965 22.5 6.75 22.5C5.30034 22.5 4.125 21.3247 4.125 19.875C2.67534 19.875 1.5 18.6997 1.5 17.25C1.5 15.8003 2.67534 14.625 4.125 14.625L6.26425 15.2263L9.49058 12L6.26425 8.77367L4.125 9.375C2.67534 9.375 1.5 8.19965 1.5 6.75C1.5 5.30034 2.67534 4.125 4.125 4.125C4.125 2.67534 5.30034 1.5 6.75 1.5C8.19965 1.5 9.375 2.67534 9.375 4.125L8.77367 6.26426Z" fill="black"/>
</svg>
