<svg width="57" height="21" viewBox="0 0 57 21" fill="none" xmlns="http://www.w3.org/2000/svg">
<path d="M28.1542 0.0315324C30.4238 -0.131833 32.4375 0.324178 34.2351 1.76091C37.0492 4.01067 38.0304 7.16182 38.3287 10.5714C39.3917 9.45156 40.2147 8.92738 41.8081 8.77142C42.4556 8.70804 43.1636 8.83759 43.6198 9.33618C44.6434 10.4549 44.2465 12.5256 44.0737 13.8814C45.0686 14.4129 46.8069 14.1462 47.9574 14.333C52.0595 14.9988 54.7658 17.7298 57 20.9422L26.6714 21L0 20.9675C1.23898 18.5437 2.74871 16.4261 4.99118 14.8016C7.66033 12.868 10.0661 12.3093 13.3034 12.7907C13.472 12.4697 12.6666 9.76896 12.9906 8.49726C13.2723 7.39153 13.9644 6.30699 15.0072 5.76258C15.7777 5.36044 16.6485 5.30927 17.4652 5.60118C19.5059 6.33022 20.3253 8.26524 21.2115 10.0415C21.3286 7.93629 21.6491 5.92141 22.701 4.05169C23.9584 1.81687 25.7374 0.71677 28.1542 0.0315324Z" fill="#EFEFEF"/>
</svg>
