<?xml version="1.0" encoding="utf-8" ?>
<svg xmlns="http://www.w3.org/2000/svg" xmlns:xlink="http://www.w3.org/1999/xlink" width="1024" height="1024">
	<defs>
		<linearGradient id="gradient_0" gradientUnits="userSpaceOnUse" x1="796.50549" y1="873.99567" x2="460.09872" y2="446.72189">
			<stop offset="0" stop-color="#703912"/>
			<stop offset="1" stop-color="#B77F2D"/>
		</linearGradient>
	</defs>
	<path fill="url(#gradient_0)" d="M800.381 185.993L801.221 183.895C800.127 182.924 799.51 182.428 799.021 181C799.19 180.595 799.168 180.037 799.527 179.784C799.634 179.709 800.556 179.853 800.746 179.783C801.675 179.443 802.996 177.25 804.229 176.616L805 176.25L806.5 175.5L807.489 175.374L808.107 174.411L809.167 174.363C810.14 173.047 811.206 172.729 812.672 172.174C813.383 172.282 814 172.35 814.717 172.242C817.243 171.861 818.709 172.322 820.834 173.737L821.604 174.258L821.72 173.523L821.387 172.637C822.796 173.343 823.126 173.049 824.621 172.708C914.114 254.616 967.894 371.196 973.334 492.26C975.562 541.822 970.118 592.12 956.449 639.847C936.733 708.69 899.968 772.128 851.655 824.821C769.407 914.525 653.113 968.519 531.565 973.66C466.728 976.402 400.376 965.438 340 941.402C288.705 920.981 239.342 889.677 198.766 852.309C168.388 824.334 141.894 791.881 119.764 757.046C115.524 750.372 110.493 743.184 107.2 736.005C107.091 734.958 106.888 733.846 107.098 732.805L107.223 732.386C106.476 730.845 106.706 730.115 107.172 728.504L108 727.744C108.537 727.143 108.931 726.948 109.447 726.431L109.997 725.74C110.481 725.243 110.817 725.178 111.243 724.536L111.532 724.059C112.298 723.666 111.985 723.885 112.667 723.282C113.67 722.395 114.639 721.299 116 720.995L116.83 720.864C119.866 719.645 120.308 717.998 123.973 718.302L124.777 718.975C125.449 719.377 126.045 719.537 126.647 720.093C127.563 720.941 128.088 721.49 129.359 721.75L130.348 721.927L137.227 733.719C156.26 763.866 177.022 792.269 202.269 817.54C284.129 899.478 396.791 945.75 512.613 945.487C626.773 945.227 738.958 896.914 819.197 815.976C874.789 759.899 915.28 688.894 933.75 611.991C941.898 578.062 945.466 543.294 945.279 508.427C944.772 414.098 913.391 318.534 854.913 244.196C843.236 229.352 830.261 215.142 816.921 201.794L800.381 185.993Z"/>
	<defs>
		<linearGradient id="gradient_1" gradientUnits="userSpaceOnUse" x1="466.56738" y1="455.11032" x2="225.85226" y2="151.18106">
			<stop offset="0" stop-color="#B67D2D"/>
			<stop offset="1" stop-color="#E9AF40"/>
		</linearGradient>
	</defs>
	<path fill="url(#gradient_1)" d="M107.2 736.005C70.7499 671.692 52.4337 598.529 50.155 524.852C48.2422 463.007 59.1607 399.196 82.2285 341.725C103.833 287.899 137.009 237.634 176.668 195.477C259.647 107.27 377.4 53.8991 498.544 50.3197C548.072 48.8564 597.952 54.9564 645.47 69.1875C711.711 89.0258 774.337 125.263 824.621 172.708C823.126 173.049 822.796 173.343 821.387 172.637L821.72 173.523L821.604 174.258L820.834 173.737C818.709 172.322 817.243 171.861 814.717 172.242C814 172.35 813.383 172.282 812.672 172.174C811.206 172.729 810.14 173.047 809.167 174.363L808.107 174.411L807.489 175.374L806.5 175.5L805 176.25L804.229 176.616C802.996 177.25 801.675 179.443 800.746 179.783C800.556 179.853 799.634 179.709 799.527 179.784C799.168 180.037 799.19 180.595 799.021 181C799.51 182.428 800.127 182.924 801.221 183.895L800.381 185.993L773.123 163.863C760.999 154.583 748.019 146.488 735.038 138.485C727.58 133.888 719.591 128.635 711.561 125.153L653.078 174.511L624.325 163.506C591.294 152.651 556.922 146.383 522.224 144.438C496.139 144.536 470.663 146.039 444.927 150.641C372.141 163.656 303.5 200.485 251.506 252.806C192.053 312.634 155.735 391.495 147.466 475.33C145.989 490.3 146.017 505.284 146.001 520.311C130.748 536.187 117.722 553.553 100.996 568.132L81.7851 584.822L94.0216 631.907C95.8497 638.979 97.3386 646.414 99.7435 653.299C104.557 667.082 110.015 681.095 116.395 694.235C120.881 703.476 126.267 712.542 130.348 721.927L129.359 721.75C128.088 721.49 127.563 720.941 126.647 720.093C126.045 719.537 125.449 719.377 124.777 718.975L123.973 718.302C120.308 717.998 119.866 719.645 116.83 720.864L116 720.995C114.639 721.299 113.67 722.395 112.667 723.282C111.985 723.885 112.298 723.666 111.532 724.059L111.243 724.536C110.817 725.178 110.481 725.243 109.997 725.74L109.447 726.431C108.931 726.948 108.537 727.143 108 727.744L107.172 728.504C106.706 730.115 106.476 730.845 107.223 732.386L107.098 732.805C106.888 733.846 107.091 734.958 107.2 736.005Z"/>
	<path fill="#FED64F" d="M81.5512 580.946C80.9022 568.596 78.3913 556.271 76.9647 543.991C76.3814 538.969 76.2754 533.769 76.0919 528.715C74.4835 484.419 79.363 438.609 91.1632 395.857C95.0111 381.916 99.9622 368.524 105.241 355.083C111.53 339.071 118.239 323.399 126.133 308.097C140.066 281.087 158.044 255.673 177.761 232.606C233.33 167.594 305.734 119.612 387.343 94.0727C493.58 60.8255 613.324 73.649 711.561 125.153L653.078 174.511L624.325 163.506C591.294 152.651 556.922 146.383 522.224 144.438L558.911 100.199C552.376 98.9554 545.759 98.7583 539.137 98.2909C523.222 97.1675 507.909 96.7341 491.956 97.7708L463.895 100.069C398.581 108.501 334.693 132.289 280.209 169.392C212.299 215.637 157.699 283.102 126.953 359.301C116.913 384.184 109.559 410.675 104.504 437C97.5827 473.039 95.6227 509.918 98.1778 546.496L99.3668 564.104C99.5531 565.729 99.5837 567.133 98.549 568.5C96.8329 570.767 94.0116 572.562 91.8188 574.376L83 582.003L82.1718 581.91L81.5512 580.946Z"/>
	<path fill="#FEBA30" d="M81.5512 580.946L82.1718 581.91L83 582.003L91.8188 574.376C94.0116 572.562 96.8329 570.767 98.549 568.5C99.5837 567.133 99.5531 565.729 99.3668 564.104L98.1778 546.496C95.6227 509.918 97.5827 473.039 104.504 437C109.559 410.675 116.913 384.184 126.953 359.301C157.699 283.102 212.299 215.637 280.209 169.392C334.693 132.289 398.581 108.501 463.895 100.069L491.956 97.7708C507.909 96.7341 523.222 97.1675 539.137 98.2909C545.759 98.7583 552.376 98.9554 558.911 100.199L522.224 144.438C496.139 144.536 470.663 146.039 444.927 150.641C372.141 163.656 303.5 200.485 251.506 252.806C192.053 312.634 155.735 391.495 147.466 475.33C145.989 490.3 146.017 505.284 146.001 520.311C130.748 536.187 117.722 553.553 100.996 568.132L81.7851 584.822L81.5512 580.946Z"/>
	<path fill="#FEBA30" d="M711.561 125.153C719.591 128.635 727.58 133.888 735.038 138.485C748.019 146.488 760.999 154.583 773.123 163.863L800.381 185.993L816.921 201.794C830.261 215.142 843.236 229.352 854.913 244.196C913.391 318.534 944.772 414.098 945.279 508.427C945.466 543.294 941.898 578.062 933.75 611.991C915.28 688.894 874.789 759.899 819.197 815.976C738.958 896.914 626.773 945.227 512.613 945.487C396.791 945.75 284.129 899.478 202.269 817.54C177.022 792.269 156.26 763.866 137.227 733.719L151.348 714.331L167.684 688.452C171.977 681.492 176.198 673.721 181.249 667.333C187.839 679.435 194.04 692.017 201.278 703.721C227.289 745.779 261.067 783.965 301.556 812.591C324.648 828.917 350.963 842.462 377.035 853.282C392.895 858.697 408.786 864.242 425.053 868.331C455.523 875.992 486.285 878.628 517.632 878.525C557.651 877.583 598.144 869.88 635.876 856.519C726.719 824.352 804.105 754.394 845.309 667.412C859.522 637.409 869.763 605.668 875.123 572.876C882.68 526.638 880.548 476.251 869.805 430.653C865.525 412.488 859.308 395.419 853.02 377.903L852.776 377.226C846.225 359.383 836.662 341.753 826.833 325.533C794.535 272.231 748.95 227.947 695.372 196.228C681.718 188.145 667.447 181.214 653.078 174.511L711.561 125.153Z"/>
	<path fill="#E79E2E" d="M377.035 853.282C392.895 858.697 408.786 864.242 425.053 868.331C455.523 875.992 486.285 878.628 517.632 878.525L477.402 921.964C464.724 922.153 452.188 919.634 439.8 917.229C406.336 910.732 373.072 901.81 341.819 888.01L377.035 853.282Z"/>
	<path fill="#D87717" d="M853.02 377.903C865.236 364.287 875.455 349.828 884.397 333.873C899.21 365.688 910.001 399.806 916.345 434.314L921.075 469C923.154 487.042 924.292 505.348 923.747 523.538C922.458 566.63 913.705 610.464 898.927 650.954C861.661 753.058 784.976 838.136 686.234 884.086C637.001 906.997 583.983 920.978 529.566 922.929C524.024 923.128 518.4 922.768 512.853 922.683L477.402 921.964L517.632 878.525C557.651 877.583 598.144 869.88 635.876 856.519C726.719 824.352 804.105 754.394 845.309 667.412C859.522 637.409 869.763 605.668 875.123 572.876C882.68 526.638 880.548 476.251 869.805 430.653C865.525 412.488 859.308 395.419 853.02 377.903Z"/>
	<path fill="#864515" d="M522.224 144.438C556.922 146.383 591.294 152.651 624.325 163.506L653.078 174.511C667.447 181.214 681.718 188.145 695.372 196.228C748.95 227.947 794.535 272.231 826.833 325.533C836.662 341.753 846.225 359.383 852.776 377.226L853.02 377.903C859.308 395.419 865.525 412.488 869.805 430.653C880.548 476.251 882.68 526.638 875.123 572.876C869.763 605.668 859.522 637.409 845.309 667.412C804.105 754.394 726.719 824.352 635.876 856.519C598.144 869.88 557.651 877.583 517.632 878.525C486.285 878.628 455.523 875.992 425.053 868.331C408.786 864.242 392.895 858.697 377.035 853.282C350.963 842.462 324.648 828.917 301.556 812.591C261.067 783.965 227.289 745.779 201.278 703.721C194.04 692.017 187.839 679.435 181.249 667.333C176.198 673.721 171.977 681.492 167.684 688.452L151.348 714.331L137.227 733.719L130.348 721.927C126.267 712.542 120.881 703.476 116.395 694.235C110.015 681.095 104.557 667.082 99.7435 653.299C97.3386 646.414 95.8497 638.979 94.0216 631.907L81.7851 584.822L100.996 568.132C117.722 553.553 130.748 536.187 146.001 520.311C146.017 505.284 145.989 490.3 147.466 475.33C155.735 391.495 192.053 312.634 251.506 252.806C303.5 200.485 372.141 163.656 444.927 150.641C470.663 146.039 496.139 144.536 522.224 144.438Z"/>
	<path fill="#B06C21" d="M437.012 747.974C437.646 748.077 437.991 748.023 438.49 748.447C439.898 751.675 447.526 755.814 450.499 757.888C446.405 756.854 442.375 755.41 438.25 754.53C433.749 753.57 429.174 753.347 424.648 752.605C428.78 750.936 433.071 750.155 437.012 747.974Z"/>
	<path fill="#6F3207" d="M398.219 821.392C402.71 821.456 407.233 823.326 411.732 823.79C416.232 824.253 421.126 823.395 425.527 824.307C428.102 824.84 430.641 826.034 433.153 826.851C436.253 827.859 439.543 828.511 442.75 829.082L443.066 829.75L441.01 830.946C438.066 831.906 435.069 832.86 432 833.325C423.114 834.671 412.537 833.341 405.138 827.903L404.5 827.425C402.114 825.668 400.214 823.565 398.219 821.392Z"/>
	<path fill="#E79E2E" d="M492.776 763.687C496.381 765.776 501.766 768.265 504.542 771.248L453.204 802.256L441.664 809.263C439.489 810.576 437.186 812.171 434.75 812.934C430.47 814.275 424.965 813.965 420.718 812.739C414.36 810.903 409.068 807.055 405.955 801.133C404.61 798.574 403.875 796.344 403.454 793.5L403.316 792.641C402.829 789.394 403.02 786.121 403.127 782.851C406.637 786.012 407.201 790.35 409.832 794.076C412.448 797.782 416.759 801.284 421.377 801.87C423.979 802.2 426.729 801.779 429.174 800.853C442.005 795.99 454.252 787.109 466.065 780.117L482.162 770.456C485.726 768.333 489.553 766.31 492.776 763.687Z"/>
	<path fill="#FEBA30" d="M472.309 751.801L483.464 758.375C486.626 759.982 490.027 761.42 492.776 763.687C489.553 766.31 485.726 768.333 482.162 770.456L466.065 780.117C454.252 787.109 442.005 795.99 429.174 800.853C426.729 801.779 423.979 802.2 421.377 801.87C416.759 801.284 412.448 797.782 409.832 794.076C407.201 790.35 406.637 786.012 403.127 782.851L404.038 779.25C406.477 772.3 411.346 768.874 417.545 765.606C421.279 764.178 425.718 763.168 429.713 763.814L430.5 763.952C434.774 764.628 438.172 766.299 441.952 768.312L472.309 751.801Z"/>
	<path fill="#FED64F" d="M472.309 751.801L483.464 758.375C475.476 764.328 466.617 768.873 457.796 773.449C450.77 777.093 444.247 780.731 436.695 783.237C435.289 782.998 434.253 781.473 433.245 780.474L426.042 773.41C423.248 770.819 419.827 768.702 417.545 765.606C421.279 764.178 425.718 763.168 429.713 763.814L430.5 763.952C434.774 764.628 438.172 766.299 441.952 768.312L472.309 751.801Z"/>
	<path fill="#B06C21" d="M297.369 777.032C302.897 776.921 308.263 777.613 313.75 777.961C320.615 778.396 327.632 778.352 334.5 777.999C350.869 777.159 367.283 772.836 382.88 767.98C388.19 766.327 393.372 764.209 398.739 762.785C397.181 765.183 395.199 767.228 393.645 769.613C389.918 775.33 387.951 780.75 386.81 787.465C386.039 792.002 386.235 797.288 387.302 801.75C389.111 809.315 392.71 814.787 397.332 820.892C374.093 815.285 351.271 805.9 329.813 795.467C318.633 790.031 307.427 784.385 297.369 777.032Z"/>
	<path fill="#B06C21" d="M511.216 791.774L571.211 823.864C549.422 830.152 527.309 832.912 504.691 833.771L444.756 829.792L511.216 791.774Z"/>
	<path fill="#FED64F" d="M100.996 568.132C117.722 553.553 130.748 536.187 146.001 520.311C147.863 552.9 152.441 584.879 162.008 616.174C167.377 633.737 174.13 650.44 181.249 667.333C176.198 673.721 171.977 681.492 167.684 688.452L151.348 714.331L137.227 733.719L130.348 721.927C126.267 712.542 120.881 703.476 116.395 694.235C110.015 681.095 104.557 667.082 99.7435 653.299C97.3386 646.414 95.8497 638.979 94.0216 631.907L81.7851 584.822L100.996 568.132Z"/>
	<path fill="#FEF277" d="M100.996 568.132C102.926 573.242 103.434 579.208 104.505 584.589L109.65 607.746C117.187 639.154 129.188 670.523 143.505 699.44C145.964 704.408 148.036 709.862 151.348 714.331L137.227 733.719L130.348 721.927C126.267 712.542 120.881 703.476 116.395 694.235C110.015 681.095 104.557 667.082 99.7435 653.299C97.3386 646.414 95.8497 638.979 94.0216 631.907L81.7851 584.822L100.996 568.132Z"/>
	<defs>
		<linearGradient id="gradient_2" gradientUnits="userSpaceOnUse" x1="845.67633" y1="654.55933" x2="585.26068" y2="665.57135">
			<stop offset="0" stop-color="#955620"/>
			<stop offset="1" stop-color="#B56B23"/>
		</linearGradient>
	</defs>
	<path fill="url(#gradient_2)" d="M834.309 490.269L840.913 480.241L841.354 494.859C841.463 498.476 841.805 502.386 840.683 505.879C841.483 514.653 839.804 524.229 839.057 533C833.311 600.399 802.905 666.153 759.884 717.811C729.167 754.695 688.965 784.943 645.19 804.544C639.26 807.199 633.343 810.09 627.182 812.167C632.309 803.036 634.691 795.068 633.037 784.5L632.911 783.608C631.543 774.35 626.129 764.963 618.5 759.506C610.908 754.074 601.549 752.831 592.512 754.528C589.143 755.161 585.916 756.514 582.716 757.711C613.102 735.564 645.215 714.753 672.306 688.516L688.332 718.597C692.923 712.905 697.6 707.26 701.49 701.054C711.441 685.183 717.176 667.417 720.394 649.063L721.582 618.529L720.582 618.978L720.99 593.908C723.031 591.763 725.498 590.139 727.824 588.324L741.384 577.67L758.406 563.089C784.732 540.062 809.239 515.393 832.548 489.345L834.309 490.269Z"/>
	<path fill="#B06C21" d="M834.309 490.269L840.913 480.241L841.354 494.859C841.463 498.476 841.805 502.386 840.683 505.879L815.211 542.711C803.004 559.54 789.643 575.802 775.914 591.414L736.271 633.438C731.052 638.722 725.358 643.538 720.394 649.063L721.582 618.529L720.582 618.978L720.99 593.908C723.031 591.763 725.498 590.139 727.824 588.324L741.384 577.67L758.406 563.089C784.732 540.062 809.239 515.393 832.548 489.345L834.309 490.269Z"/>
	<path fill="#9E5718" d="M832.548 489.345L834.309 490.269C827.355 504.482 817.842 516.782 808.063 529.146C793.162 547.983 777.436 565.717 759.873 582.122L734.657 605.898C731.004 609.205 726.521 612.091 723.171 615.618C722.382 616.45 721.959 617.464 721.582 618.529L720.582 618.978L720.99 593.908C723.031 591.763 725.498 590.139 727.824 588.324L741.384 577.67L758.406 563.089C784.732 540.062 809.239 515.393 832.548 489.345Z"/>
	<path fill="#D09134" d="M314.898 459.55L319.856 471.82L332.65 495.647C342.507 510.592 354.15 524.948 367.793 536.616L387.047 551.509C390.342 553.924 393.612 556.553 397.375 558.203C399.926 560.967 399.465 563.75 399.44 567.244C399.375 576.493 398.087 587.233 399.915 596.269C402.641 609.735 417.237 618.357 428.962 623.2C425.748 626.748 421.922 629.381 418.125 632.266L402.593 644.063C398.743 646.942 394.504 649.878 391.036 653.199C394.481 656.859 397.84 660.389 401.87 663.429C405.112 665.939 409.253 670.026 412.901 671.671L490.363 719.604L512.675 732.349L515.402 730.391C519.226 732.445 523.412 734.074 526.462 737.25L526.478 739.23C529.165 741.798 532.581 743.067 535.783 744.849C540.067 747.233 544.634 750.804 549.474 751.798L549.989 751.998L582.742 768.399C586.198 766.789 589.203 765.552 593 764.934L593.835 764.787C598.689 763.986 605.47 766.523 609.541 769.208C611.892 770.965 614.015 772.845 615.382 775.487C617.149 778.072 618.66 780.764 619.503 783.803C621.054 789.394 619.435 795.585 616.612 800.5C613.452 806.003 606.948 811.26 600.712 812.718C597.75 813.41 593.783 813.193 590.929 812.235C580.681 808.795 570.358 801.184 561.04 795.662L512.212 766.784C509.977 768.405 507.154 770.318 504.542 771.248C501.766 768.265 496.381 765.776 492.776 763.687C490.027 761.42 486.626 759.982 483.464 758.375L472.309 751.801C474.288 750.003 477.022 748.999 479.15 747.294L461.612 737.551L459.048 739.343C453.954 742.899 447.541 745.115 441.835 747.518C440.742 747.978 439.645 748.208 438.49 748.447C437.991 748.023 437.646 748.077 437.012 747.974C433.071 750.155 428.78 750.936 424.648 752.605C417.482 753.401 410.468 755.513 404.218 759.13C402.324 760.226 400.635 761.761 398.739 762.785C393.372 764.209 388.19 766.327 382.88 767.98C367.283 772.836 350.869 777.159 334.5 777.999C327.632 778.352 320.615 778.396 313.75 777.961C308.263 777.613 302.897 776.921 297.369 777.032L295.123 775.852C288.67 772.304 282.522 767.341 276.601 762.957C244.518 739.201 218.238 710.659 196.646 677.11C191.271 668.758 184.95 659.023 182.136 649.493C182.178 644.419 179.303 639.25 177.631 634.523L173.548 620.995L168.655 603.259L166.421 593.824L314.898 459.55Z"/>
	<path fill="#864515" d="M336.65 693.644L337.747 694.301L339.781 724.69C330.822 719.04 322.314 708.933 316.626 700.043L323.467 697.681C327.822 695.976 331.906 693.922 336.65 693.644Z"/>
	<path fill="#D87717" d="M387.047 551.509C390.342 553.924 393.612 556.553 397.375 558.203L376.75 585.452C373.799 589.323 369.314 593.991 367.296 598.357C364.543 599.193 361.067 599.168 358.247 598.725L357.5 598.599C350.353 597.451 345.867 593.897 340.663 589.184C344.513 584.981 349.271 581.718 353.721 578.174L374.358 561.848C378.58 558.605 383.619 555.603 387.047 551.509Z"/>
	<path fill="#9E5718" d="M316.626 700.043L315.541 698.75C298.687 674.22 291.754 641.244 296.122 611.939C296.886 606.812 300.821 586.134 304.138 583.693C303.008 590.128 301.752 596.708 301.492 603.25C300.388 631.038 309.784 657.943 325.733 680.502L336.65 693.644C331.906 693.922 327.822 695.976 323.467 697.681L316.626 700.043Z"/>
	<path fill="#E79E2E" d="M314.898 459.55L319.856 471.82L332.65 495.647C326.929 501.268 320.567 505.999 314.313 510.994L289.5 530.933L196.244 604.021L180.941 615.75C178.964 617.269 175.902 620.266 173.548 620.995L168.655 603.259L166.421 593.824L314.898 459.55Z"/>
	<path fill="#D09134" d="M314.898 459.55L319.856 471.82C315.415 474.219 311.463 478.921 307.75 482.354L287.898 500.395L211.164 567.529L188.158 587.663C181.894 593.163 175.715 598.781 168.655 603.259L166.421 593.824L314.898 459.55Z"/>
	<path fill="#FEBA30" d="M304.138 583.693C308.387 569.51 314.034 555.641 322.709 543.523C325.085 559.974 329.864 576.179 340.663 589.184C345.867 593.897 350.353 597.451 357.5 598.599L358.247 598.725C361.067 599.168 364.543 599.193 367.296 598.357C369.314 593.991 373.799 589.323 376.75 585.452L397.375 558.203C399.926 560.967 399.465 563.75 399.44 567.244C399.375 576.493 398.087 587.233 399.915 596.269C402.641 609.735 417.237 618.357 428.962 623.2C425.748 626.748 421.922 629.381 418.125 632.266L402.593 644.063C398.743 646.942 394.504 649.878 391.036 653.199C394.481 656.859 397.84 660.389 401.87 663.429C405.112 665.939 409.253 670.026 412.901 671.671L490.363 719.604L512.675 732.349L515.402 730.391C519.226 732.445 523.412 734.074 526.462 737.25L526.478 739.23C529.165 741.798 532.581 743.067 535.783 744.849C540.067 747.233 544.634 750.804 549.474 751.798L549.989 751.998L582.742 768.399C586.198 766.789 589.203 765.552 593 764.934L593.835 764.787C598.689 763.986 605.47 766.523 609.541 769.208C611.892 770.965 614.015 772.845 615.382 775.487C617.149 778.072 618.66 780.764 619.503 783.803C621.054 789.394 619.435 795.585 616.612 800.5C613.452 806.003 606.948 811.26 600.712 812.718C597.75 813.41 593.783 813.193 590.929 812.235C580.681 808.795 570.358 801.184 561.04 795.662L512.212 766.784C509.977 768.405 507.154 770.318 504.542 771.248C501.766 768.265 496.381 765.776 492.776 763.687C490.027 761.42 486.626 759.982 483.464 758.375L472.309 751.801C474.288 750.003 477.022 748.999 479.15 747.294L461.612 737.551L459.048 739.343C453.954 742.899 447.541 745.115 441.835 747.518C440.742 747.978 439.645 748.208 438.49 748.447C437.991 748.023 437.646 748.077 437.012 747.974C432.334 746.077 427.884 743.026 423.679 740.268L398.039 721.813L369.706 700.77C364.986 696.973 360.869 692.301 355.9 688.851C352.995 686.834 349.528 685.179 345.94 685.84L345.25 685.978C343.786 686.249 342.961 686.62 341.652 687.357C340.727 687.878 339.862 688.383 338.86 688.745L338.065 689.021C338.007 690.775 338.045 692.571 337.747 694.301L336.65 693.644L325.733 680.502C309.784 657.943 300.388 631.038 301.492 603.25C301.752 596.708 303.008 590.128 304.138 583.693Z"/>
	<defs>
		<linearGradient id="gradient_3" gradientUnits="userSpaceOnUse" x1="409.44107" y1="772.62" x2="575.88696" y2="693.5047">
			<stop offset="0" stop-color="#FFBA0A"/>
			<stop offset="1" stop-color="#D2A21E"/>
		</linearGradient>
	</defs>
	<path fill="url(#gradient_3)" d="M338.018 685.186C338.868 679.951 339.475 674.458 342.588 669.969C343.743 668.303 345.88 665.574 347.973 665.245L348.57 665.171C351.012 664.761 352.439 664.596 354.846 665.343C360.875 664.45 366.843 668.838 371.901 671.573C381.523 676.777 390.186 681.95 399 688.489L433.849 712.34L461.286 728.565L545.24 775.907L571.185 789.481C577.079 792.589 583.109 796.251 589.294 798.694C592.09 799.798 595.249 800.794 598.285 800.432C602.516 799.926 608.011 796.928 610.573 793.5C614.845 787.787 614.772 782.211 615.382 775.487C617.149 778.072 618.66 780.764 619.503 783.803C621.054 789.394 619.435 795.585 616.612 800.5C613.452 806.003 606.948 811.26 600.712 812.718C597.75 813.41 593.783 813.193 590.929 812.235C580.681 808.795 570.358 801.184 561.04 795.662L512.212 766.784C509.977 768.405 507.154 770.318 504.542 771.248C501.766 768.265 496.381 765.776 492.776 763.687C490.027 761.42 486.626 759.982 483.464 758.375L472.309 751.801C474.288 750.003 477.022 748.999 479.15 747.294L461.612 737.551L459.048 739.343C453.954 742.899 447.541 745.115 441.835 747.518C440.742 747.978 439.645 748.208 438.49 748.447C437.991 748.023 437.646 748.077 437.012 747.974C432.334 746.077 427.884 743.026 423.679 740.268L398.039 721.813L369.706 700.77C364.986 696.973 360.869 692.301 355.9 688.851C352.995 686.834 349.528 685.179 345.94 685.84L345.25 685.978C343.786 686.249 342.961 686.62 341.652 687.357C340.727 687.878 339.862 688.383 338.86 688.745L338.065 689.021L338.018 685.186Z"/>
	<path fill="#D87717" d="M479.15 747.294C487.319 751.368 495.219 756.412 503.016 761.164C506.032 763.003 509.455 764.579 512.212 766.784C509.977 768.405 507.154 770.318 504.542 771.248C501.766 768.265 496.381 765.776 492.776 763.687C490.027 761.42 486.626 759.982 483.464 758.375L472.309 751.801C474.288 750.003 477.022 748.999 479.15 747.294Z"/>
	<path fill="#9E5718" d="M338.018 685.186C338.868 679.951 339.475 674.458 342.588 669.969C343.743 668.303 345.88 665.574 347.973 665.245L348.57 665.171C351.012 664.761 352.439 664.596 354.846 665.343L461.612 737.551L459.048 739.343C453.954 742.899 447.541 745.115 441.835 747.518C440.742 747.978 439.645 748.208 438.49 748.447C437.991 748.023 437.646 748.077 437.012 747.974C432.334 746.077 427.884 743.026 423.679 740.268L398.039 721.813L369.706 700.77C364.986 696.973 360.869 692.301 355.9 688.851C352.995 686.834 349.528 685.179 345.94 685.84L345.25 685.978C343.786 686.249 342.961 686.62 341.652 687.357C340.727 687.878 339.862 688.383 338.86 688.745L338.065 689.021L338.018 685.186Z"/>
	<defs>
		<linearGradient id="gradient_4" gradientUnits="userSpaceOnUse" x1="622.22186" y1="730.90381" x2="295.41116" y2="606.24738">
			<stop offset="0" stop-color="#FCD142"/>
			<stop offset="1" stop-color="#FFF97E"/>
		</linearGradient>
	</defs>
	<path fill="url(#gradient_4)" d="M304.138 583.693C308.387 569.51 314.034 555.641 322.709 543.523C325.085 559.974 329.864 576.179 340.663 589.184C345.867 593.897 350.353 597.451 357.5 598.599L358.247 598.725C361.067 599.168 364.543 599.193 367.296 598.357C369.314 593.991 373.799 589.323 376.75 585.452L397.375 558.203C399.926 560.967 399.465 563.75 399.44 567.244C399.375 576.493 398.087 587.233 399.915 596.269C402.641 609.735 417.237 618.357 428.962 623.2C425.748 626.748 421.922 629.381 418.125 632.266L402.593 644.063C398.743 646.942 394.504 649.878 391.036 653.199C394.481 656.859 397.84 660.389 401.87 663.429C405.112 665.939 409.253 670.026 412.901 671.671L490.363 719.604L512.675 732.349L515.402 730.391C519.226 732.445 523.412 734.074 526.462 737.25L526.478 739.23C529.165 741.798 532.581 743.067 535.783 744.849C540.067 747.233 544.634 750.804 549.474 751.798L549.989 751.998L582.742 768.399C586.198 766.789 589.203 765.552 593 764.934L593.835 764.787C598.689 763.986 605.47 766.523 609.541 769.208L608.24 770.717C605.603 771.586 602.103 773.023 599.327 772.692C595.206 772.2 591.814 773.146 587.826 774.114C586.2 775.75 585.49 778.035 584.611 780.134C575.463 777.758 567.186 773.753 558.629 769.716L516.103 747.856C480.28 728.686 445.209 709.367 411.695 686.306C394.529 674.494 373.222 657.76 369.446 635.928C367.931 627.168 368.456 616.246 373.75 608.916L374.181 608.327L365.987 611.25C358.256 613.139 348.849 610.314 342.25 606.329C330.092 598.987 323.57 585.056 320.121 571.832L319.25 575.653C312.482 607.881 317.284 637.988 330.25 667.994C332.745 673.767 334.573 679.892 338.018 685.186L338.065 689.021C338.007 690.775 338.045 692.571 337.747 694.301L336.65 693.644L325.733 680.502C309.784 657.943 300.388 631.038 301.492 603.25C301.752 596.708 303.008 590.128 304.138 583.693Z"/>
	<path fill="#D87717" d="M512.675 732.349L515.402 730.391C519.226 732.445 523.412 734.074 526.462 737.25L526.478 739.23L512.675 732.349Z"/>
	<path fill="#D09134" d="M397.375 558.203C399.926 560.967 399.465 563.75 399.44 567.244C399.375 576.493 398.087 587.233 399.915 596.269C402.641 609.735 417.237 618.357 428.962 623.2C425.748 626.748 421.922 629.381 418.125 632.266L402.593 644.063C398.743 646.942 394.504 649.878 391.036 653.199L385.544 645.76C375.443 629.81 381.062 609.316 384.784 592.213C383.403 592.115 380.432 594.102 379.079 594.75C375.31 596.554 371.369 597.515 367.296 598.357C369.314 593.991 373.799 589.323 376.75 585.452L397.375 558.203Z"/>
	<path fill="#B06C21" d="M182.136 649.493C178.559 644.38 176.603 637.959 174.399 632.136C163.884 604.353 158.529 574.367 155.75 544.864L154.266 522.354C153.02 505.612 154.51 487.714 156.366 471.033C161.843 421.797 177.54 373.078 202.679 330.314C215.589 308.355 230.769 288.214 247.51 269.047C257.267 257.876 268.467 247.835 279.788 238.288C338.124 189.092 413.573 158.361 489.847 153.761C577.149 148.496 667.673 177.35 733.182 235.844C779.225 276.956 809.026 333.98 826.677 392.389C834.015 416.671 839.28 442.313 840.649 467.664L840.966 476.62C840.975 477.034 841.163 478.749 841.015 479.112C840.672 479.954 839.361 481.224 838.756 481.989L832.548 489.345C809.239 515.393 784.732 540.062 758.406 563.089L741.384 577.67L727.824 588.324C725.498 590.139 723.031 591.763 720.99 593.908L720.582 618.978C716.908 645.852 706.344 668.602 689.593 689.825C684.859 683.239 680.719 675.937 676.483 669C675.397 667.222 673.87 663.639 672.297 662.417C647.081 687.308 617.185 708.034 587.458 727.155L560.378 743.854C557.824 745.412 550.46 748.981 549.474 751.798C544.634 750.804 540.067 747.233 535.783 744.849C532.581 743.067 529.165 741.798 526.478 739.23L526.462 737.25C523.412 734.074 519.226 732.445 515.402 730.391L512.675 732.349L490.363 719.604C499.603 714.081 509.452 710.017 518.821 704.734C551.446 686.339 583.181 665.122 610.249 639.116C616.051 633.542 621.965 629.463 626.407 622.529C630.169 616.656 632.245 609.873 634.08 603.211C635.085 599.562 635.876 595.545 637.519 592.137C639.431 588.172 642.505 584.957 644.639 581.123L663.75 545.318C666.128 540.716 672.923 530.389 671.33 525.395C682.451 510.905 692.975 496.866 701.353 480.566C726.45 431.738 727.772 374.96 711.21 323.347C705.041 303.804 694.805 285.175 682.767 268.655L670.64 253.064C664.385 246.165 657.52 238.739 650.384 232.752C615.088 203.136 569.824 184.628 523.721 182.377C466.5 179.583 409.401 198.66 366.774 237.312C327.952 272.513 304.828 323.38 302.555 375.646L302.571 385.401C302.548 391.797 302.359 398.825 303.301 405.134C305.048 423.438 308.3 442.327 314.898 459.55L166.421 593.824L168.655 603.259L173.548 620.995L177.631 634.523C179.303 639.25 182.178 644.419 182.136 649.493Z"/>
	<defs>
		<linearGradient id="gradient_5" gradientUnits="userSpaceOnUse" x1="692.08453" y1="685.53076" x2="587.84491" y2="619.29443">
			<stop offset="0" stop-color="#CA8E25"/>
			<stop offset="1" stop-color="#F4C649"/>
		</linearGradient>
	</defs>
	<path fill="url(#gradient_5)" d="M515.402 730.391L577 692.977C596.893 680.651 620.21 668.001 634.984 649.443C638.109 645.518 640.865 641.294 642.344 636.453C643.827 631.594 643.984 626.224 643.997 621.184C644.024 611.294 642.913 601.531 641.828 591.718L642.067 591.504L665.9 601.55C669.667 597.638 673.553 593.708 676.874 589.402C689.641 572.845 696.968 552.701 704.45 533.411C713.886 552.478 719.362 572.694 720.99 593.908L720.582 618.978C716.908 645.852 706.344 668.602 689.593 689.825C684.859 683.239 680.719 675.937 676.483 669C675.397 667.222 673.87 663.639 672.297 662.417C647.081 687.308 617.185 708.034 587.458 727.155L560.378 743.854C557.824 745.412 550.46 748.981 549.474 751.798C544.634 750.804 540.067 747.233 535.783 744.849C532.581 743.067 529.165 741.798 526.478 739.23L526.462 737.25C523.412 734.074 519.226 732.445 515.402 730.391Z"/>
	<path fill="#D09134" d="M163.145 575.521L161.674 554.397C160.689 535.145 160.922 514.919 163.153 495.75C164.795 481.634 167.59 467.484 170.695 453.618C175.938 430.21 182.858 406.759 192.494 384.75C208.638 347.879 230.702 314.984 257.734 285.242C316.323 220.778 405.079 177.517 492.27 173.469C509.223 172.682 526.432 172.751 543.337 174.468C576.149 177.8 609.075 186.761 639.413 199.622C643.064 201.17 646.908 202.255 650.5 203.936C658.885 207.859 666.907 213.029 674.906 217.689C691.686 227.465 708.557 239.029 722.927 252.129L698.925 277.145C697.274 279.003 695.95 281.102 694.316 282.985C691.569 279.998 689.511 275.983 687.25 272.604C684.2 268.048 680.921 263.708 677.411 259.5C675.243 256.901 673.594 254.837 670.64 253.064C664.385 246.165 657.52 238.739 650.384 232.752C615.088 203.136 569.824 184.628 523.721 182.377C466.5 179.583 409.401 198.66 366.774 237.312C327.952 272.513 304.828 323.38 302.555 375.646L302.571 385.401C302.548 391.797 302.359 398.825 303.301 405.134C305.048 423.438 308.3 442.327 314.898 459.55L166.421 593.824L163.145 575.521Z"/>
	<path fill="#E79E2E" d="M303.301 405.134C305.048 423.438 308.3 442.327 314.898 459.55L166.421 593.824L163.145 575.521L163.275 575.038C163.74 573.611 165.226 572.3 166.195 571.153L173.384 562.427L210.209 517.579L272.142 441.964L300.78 407.029C301.534 406.164 302.317 405.691 303.301 405.134Z"/>
	<path fill="#FED64F" d="M302.571 385.401L302.555 375.646C304.828 323.38 327.952 272.513 366.774 237.312C409.401 198.66 466.5 179.583 523.721 182.377C569.824 184.628 615.088 203.136 650.384 232.752C657.52 238.739 664.385 246.165 670.64 253.064L682.767 268.655C694.805 285.175 705.041 303.804 711.21 323.347C727.772 374.96 726.45 431.738 701.353 480.566C692.975 496.866 682.451 510.905 671.33 525.395C672.923 530.389 666.128 540.716 663.75 545.318L644.639 581.123C642.505 584.957 639.431 588.172 637.519 592.137C635.876 595.545 635.085 599.562 634.08 603.211C632.245 609.873 630.169 616.656 626.407 622.529C621.965 629.463 616.051 633.542 610.249 639.116C583.181 665.122 551.446 686.339 518.821 704.734C509.452 710.017 499.603 714.081 490.363 719.604L412.901 671.671C409.253 670.026 405.112 665.939 401.87 663.429C397.84 660.389 394.481 656.859 391.036 653.199C394.504 649.878 398.743 646.942 402.593 644.063L418.125 632.266C421.922 629.381 425.748 626.748 428.962 623.2C417.237 618.357 402.641 609.735 399.915 596.269C398.087 587.233 399.375 576.493 399.44 567.244C399.465 563.75 399.926 560.967 397.375 558.203C393.612 556.553 390.342 553.924 387.047 551.509L367.793 536.616C354.15 524.948 342.507 510.592 332.65 495.647L319.856 471.82L314.898 459.55C308.3 442.327 305.048 423.438 303.301 405.134C302.359 398.825 302.548 391.797 302.571 385.401Z"/>
	<path fill="#6F3207" d="M497.421 510.761C495.285 511.261 492.041 511.963 489.919 511.347L489 511.041C485.458 509.879 482.483 508.024 480.348 504.881C477.622 500.869 477.794 495.445 478.65 490.875C480.121 483.021 485.544 475.433 489.862 468.861C496.58 458.636 502.439 448.959 512.616 441.767L513.013 442.129C525.028 453.212 532.445 466.978 538.25 482.092C540.534 488.038 542.859 494.416 542.994 500.857C543.07 504.45 542.264 506.801 539.795 509.348C540.488 505.697 540.226 501.54 539.157 497.98L538.944 497.257C537.553 492.64 535.2 488.331 532.886 484.119C527.265 473.886 520.727 464.695 511.682 457.24C503.751 465.401 497.145 473.552 490.685 482.929C487.249 487.918 483.825 492.69 481.891 498.5L481.667 499.158C481.008 501.166 480.727 503.321 481.82 505.245C483.095 507.49 486.609 509.66 489.094 510.26C491.702 510.889 495.114 509.659 497.421 510.761Z"/>
	<path fill="#B06C21" d="M497.421 510.761C495.114 509.659 491.702 510.889 489.094 510.26C486.609 509.66 483.095 507.49 481.82 505.245C480.727 503.321 481.008 501.166 481.667 499.158L481.891 498.5C483.825 492.69 487.249 487.918 490.685 482.929C497.145 473.552 503.751 465.401 511.682 457.24C520.727 464.695 527.265 473.886 532.886 484.119C535.2 488.331 537.553 492.64 538.944 497.257L539.157 497.98C540.226 501.54 540.488 505.697 539.795 509.348C536.342 512.001 532.24 511.914 528.042 511.464C524 511.03 518.479 508.307 516.035 505.056C513.824 502.113 513.147 498.022 512.274 494.51C509.11 500.432 505.406 508.678 498.25 510.573L497.421 510.761Z"/>
	<path fill="#D87717" d="M395.651 350.37C392.215 348.917 388.417 348.514 384.756 347.983C376.448 346.776 368.841 346.545 360.517 347.803C362.913 344.536 368.185 341.275 371.899 339.834C390.771 332.512 409.574 344.82 425.727 353.439L454.861 368.935C467.64 375.559 480.976 381.633 495.14 384.548C515.504 388.74 536.324 385.008 555.175 376.788C571.68 369.591 586.899 359.606 602.858 351.336C612.182 346.504 621.922 341.738 632.276 339.583L633 339.438C638.136 338.381 643.681 338 648.815 339.248C655.35 340.835 660.35 342.923 665.725 347.002C655.771 345.882 644.38 345.627 634.857 349.205L634.448 349.364C629.574 350.129 625.199 352.287 620.656 354.125C597.296 363.581 575.788 376.898 552.948 387.432C549.304 389.112 545.46 390.441 541.668 391.748C539.923 392.349 537.579 392.743 536.156 393.894C533.63 393.211 529.013 394.992 526.257 395.25L511.224 395.99C503.016 396.008 494.709 394.547 486.744 392.664C477.042 390.965 467.522 385.059 458.845 380.536L424.046 362.571C414.515 357.782 405.941 353.309 395.651 350.37Z"/>
	<path fill="#FEF277" d="M378.166 268.029L380.111 265.75C412.173 232.685 459.915 211.7 506.031 210.732C550.561 209.798 599.534 225.312 632.091 256.596L632.196 257.092C633.543 263.125 639.803 268.553 643.376 273.559L652.787 287.806C658.625 297.281 662.975 306.779 666.178 317.426C657.979 309.511 649.511 301.648 640.514 294.639C602.689 265.17 556.938 245.77 508.463 246.565C471.258 247.175 431.542 262.1 401.119 283.133C384.942 294.317 370.42 307.639 355.257 320.121C357.107 312.048 359.585 304.202 363.032 296.661C365.008 292.339 367.257 288.241 369.727 284.184C372.386 279.815 377.914 273.169 378.166 268.029Z"/>
	<path fill="#B06C21" d="M395.651 350.37C405.941 353.309 414.515 357.782 424.046 362.571L458.845 380.536C467.522 385.059 477.042 390.965 486.744 392.664C487.899 398.007 487.995 403.585 488.057 409.038C486.864 420.017 484.915 431.089 479.258 440.75C471.742 453.585 459.015 463.223 444.607 466.934C427.422 471.361 409.223 469.035 393.985 459.814C379.534 451.068 369.098 435.992 365.275 419.588C361.421 403.047 363.704 384.771 372.748 370.364C377.487 361.212 386.361 354.426 395.651 350.37Z"/>
	<path fill="#6F3207" d="M395.651 350.37C405.941 353.309 414.515 357.782 424.046 362.571L458.845 380.536C467.522 385.059 477.042 390.965 486.744 392.664C487.899 398.007 487.995 403.585 488.057 409.038C487.69 409.501 487.254 409.693 486.75 409.989L435.86 383.629C419.882 375.509 403.991 367.358 387.231 360.968C385.149 361.771 383.059 362.545 381.138 363.694L380.5 364.085C377.606 365.82 375.548 368.277 373.294 370.75L372.748 370.364C377.487 361.212 386.361 354.426 395.651 350.37Z"/>
	<path fill="#B06C21" d="M536.156 393.894C537.579 392.743 539.923 392.349 541.668 391.748C545.46 390.441 549.304 389.112 552.948 387.432C575.788 376.898 597.296 363.581 620.656 354.125C625.199 352.287 629.574 350.129 634.448 349.364C638.288 352.057 642.129 354.794 645.434 358.142C654.013 366.835 660.095 379.326 662.167 391.349C663.17 397.172 663.081 403.175 662.905 409.065C662.776 423.607 654.596 439.366 644.406 449.367C631.282 462.247 614.373 469.839 595.796 469.442C578.325 469.068 561.951 462.133 550.048 449.295C540.31 438.793 535.867 425.138 535.026 411.092L536.156 393.894Z"/>
	<path fill="#6F3207" d="M536.156 393.894C537.579 392.743 539.923 392.349 541.668 391.748C545.46 390.441 549.304 389.112 552.948 387.432C575.788 376.898 597.296 363.581 620.656 354.125C625.199 352.287 629.574 350.129 634.448 349.364C638.288 352.057 642.129 354.794 645.434 358.142C654.013 366.835 660.095 379.326 662.167 391.349C663.17 397.172 663.081 403.175 662.905 409.065C662.321 405.518 662.265 401.876 661.558 398.364C658.403 382.694 650.25 370.495 638.306 360.171L564.214 396.966L544.367 406.841C541.593 408.215 538.015 410.526 535.026 411.092L536.156 393.894Z"/>
	<defs>
		<linearGradient id="gradient_6" gradientUnits="userSpaceOnUse" x1="617.64154" y1="543.54773" x2="407.52036" y2="208.58693">
			<stop offset="0" stop-color="#3C3946"/>
			<stop offset="1" stop-color="#4B4F58"/>
		</linearGradient>
	</defs>
	<path fill="url(#gradient_6)" d="M302.571 385.401L302.555 375.646C304.828 323.38 327.952 272.513 366.774 237.312C409.401 198.66 466.5 179.583 523.721 182.377C569.824 184.628 615.088 203.136 650.384 232.752C657.52 238.739 664.385 246.165 670.64 253.064L682.767 268.655C694.805 285.175 705.041 303.804 711.21 323.347L711.116 324.236C710.917 326.759 712.463 330.196 713.062 332.739L715.189 344.079C716.611 353.25 717.341 362.488 717.824 371.752C718.094 376.935 717.477 382.228 717.105 387.405C714.603 422.291 702.14 454.877 682.622 483.715C675.005 494.968 665.939 506.392 655.922 515.586C651.278 519.849 646.594 524.666 641.546 528.395L621.868 542.868L608.147 551.254C606.075 552.453 602.095 554.023 600.723 555.933C600.697 557.519 601.112 561.206 600.221 562.372C600.055 548.152 598.711 532.414 610.705 522.206C614.296 519.148 618.657 516.831 622.5 514.081C632.089 507.222 640.939 498.452 648.693 489.58C678.371 455.626 692.855 411.77 689.699 366.88C688.855 354.869 685.891 342.907 682.049 331.53C672.162 302.246 655.381 276.858 632.091 256.596C599.534 225.312 550.561 209.798 506.031 210.732C459.915 211.7 412.173 232.685 380.111 265.75L378.166 268.029C349.801 298.114 331.758 340.26 333.067 381.97C334.102 414.971 344.196 449.662 363.502 476.611C369.456 484.923 376.658 492.413 384.114 499.39C390.075 504.969 396.54 510.193 403.107 515.039C407.996 518.647 413.927 521.588 417.92 526.235C421.034 529.859 422.736 534.018 422.927 538.767L422.551 552.53L421.993 552.363C414.376 549.59 407.169 543.691 400.528 539.151C362.529 513.173 331.199 476.646 315.501 433C312.317 424.145 309.809 415.174 307.535 406.047L304.417 392.22C304.017 390.291 303.947 387.786 302.983 386.073L302.571 385.401Z"/>
	<defs>
		<linearGradient id="gradient_7" gradientUnits="userSpaceOnUse" x1="544.35516" y1="296.33014" x2="447.65598" y2="628.12836">
			<stop offset="0" stop-color="#101525"/>
			<stop offset="1" stop-color="#3B323F"/>
		</linearGradient>
	</defs>
	<path fill="url(#gradient_7)" d="M600.221 562.372C601.112 561.206 600.697 557.519 600.723 555.933C602.095 554.023 606.075 552.453 608.147 551.254L621.868 542.868L641.546 528.395C646.594 524.666 651.278 519.849 655.922 515.586C665.939 506.392 675.005 494.968 682.622 483.715C702.14 454.877 714.603 422.291 717.105 387.405C717.477 382.228 718.094 376.935 717.824 371.752C717.341 362.488 716.611 353.25 715.189 344.079L713.062 332.739C712.463 330.196 710.917 326.759 711.116 324.236L711.21 323.347C727.772 374.96 726.45 431.738 701.353 480.566C692.975 496.866 682.451 510.905 671.33 525.395C672.923 530.389 666.128 540.716 663.75 545.318L644.639 581.123C642.505 584.957 639.431 588.172 637.519 592.137C635.876 595.545 635.085 599.562 634.08 603.211C632.245 609.873 630.169 616.656 626.407 622.529C621.965 629.463 616.051 633.542 610.249 639.116C583.181 665.122 551.446 686.339 518.821 704.734C509.452 710.017 499.603 714.081 490.363 719.604L412.901 671.671C409.253 670.026 405.112 665.939 401.87 663.429C397.84 660.389 394.481 656.859 391.036 653.199C394.504 649.878 398.743 646.942 402.593 644.063L418.125 632.266C421.922 629.381 425.748 626.748 428.962 623.2C417.237 618.357 402.641 609.735 399.915 596.269C398.087 587.233 399.375 576.493 399.44 567.244C399.465 563.75 399.926 560.967 397.375 558.203C393.612 556.553 390.342 553.924 387.047 551.509L367.793 536.616C354.15 524.948 342.507 510.592 332.65 495.647L319.856 471.82L314.898 459.55C308.3 442.327 305.048 423.438 303.301 405.134C302.359 398.825 302.548 391.797 302.571 385.401L302.983 386.073C303.947 387.786 304.017 390.291 304.417 392.22L307.535 406.047C309.809 415.174 312.317 424.145 315.501 433C331.199 476.646 362.529 513.173 400.528 539.151C407.169 543.691 414.376 549.59 421.993 552.363L422.551 552.53L422.931 583.821C425.293 586.584 426.738 586.777 430 588.024C438.708 591.352 447.163 593.343 456.385 594.655L469.133 595.249C469.31 592.529 468.982 588.569 470.528 586.356L470.719 585.759C471.231 584.021 470.968 581.65 470.982 579.841L470.945 565.744C470.867 561.834 470.306 557.316 471.848 553.629C472.454 552.182 473.361 550.665 474.726 549.829C476.676 548.635 479.499 548.835 481.599 549.548C483.462 550.18 484.927 551.832 485.679 553.608C486.196 554.831 486.41 555.942 486.534 557.25L486.624 558.15L487.07 590.417C487.615 592.739 487.383 595.19 487.901 597.551L490 598.555L536.2 597.978L537.364 588.331L537.465 587.869L537.568 564.593C537.592 561.322 536.972 556.146 538.905 553.487C539.989 551.996 541.464 550.723 543.364 550.51C545.484 550.272 547.858 551.156 549.384 552.618C550.288 553.484 551.18 554.782 551.405 556.026C551.893 558.721 551.531 562.181 551.528 564.957L551.634 583.21C552.755 587.021 552.695 591.152 552.867 595.1C563 594.413 572.85 591.463 582.5 588.505C588.51 586.663 593.875 583.257 599.579 580.731L600.25 580.438C600.46 578.302 600.138 576 600.107 573.845L600.221 562.372Z"/>
	<path fill="#E79E2E" d="M422.931 583.821C425.293 586.584 426.738 586.777 430 588.024C438.708 591.352 447.163 593.343 456.385 594.655L469.133 595.249C469.31 592.529 468.982 588.569 470.528 586.356L470.889 611.75C463.29 610.241 456.053 608.153 448.738 605.595C442.491 603.41 435.996 600.956 430.704 596.87C426.437 593.575 423.541 589.242 422.931 583.821Z"/>
	<path fill="#E79E2E" d="M600.25 580.438C599.548 586.949 599.356 592.412 593.75 596.813C589.655 600.027 584.673 601.682 579.845 603.449C570.702 606.796 561.265 609.485 551.782 611.693L551.634 583.21C552.755 587.021 552.695 591.152 552.867 595.1C563 594.413 572.85 591.463 582.5 588.505C588.51 586.663 593.875 583.257 599.579 580.731L600.25 580.438Z"/>
	<path fill="#E79E2E" d="M537.465 587.869L537.608 613.329C531.715 614.424 525.734 615.551 519.742 615.907C508.826 616.555 497.682 615.457 486.882 613.97L487.07 590.417C487.615 592.739 487.383 595.19 487.901 597.551L490 598.555L536.2 597.978L537.364 588.331L537.465 587.869Z"/>
	<path fill="#D87717" d="M671.33 525.395C672.923 530.389 666.128 540.716 663.75 545.318L644.639 581.123C642.505 584.957 639.431 588.172 637.519 592.137C635.876 595.545 635.085 599.562 634.08 603.211C632.245 609.873 630.169 616.656 626.407 622.529C621.965 629.463 616.051 633.542 610.249 639.116C583.181 665.122 551.446 686.339 518.821 704.734C509.452 710.017 499.603 714.081 490.363 719.604L412.901 671.671C409.253 670.026 405.112 665.939 401.87 663.429C397.84 660.389 394.481 656.859 391.036 653.199C394.504 649.878 398.743 646.942 402.593 644.063L418.125 632.266C421.922 629.381 425.748 626.748 428.962 623.2L469.526 634.143L492.72 636.96C498.406 638.237 505.586 638.004 511.456 637.977C539.229 637.85 567.572 634.261 593.5 624.003C600.729 621.143 608.597 617.696 614.09 612.051C621.92 604.006 621.524 594.433 621.498 584.066L621.358 566.319C626.591 562.738 632.172 559.663 637.295 555.923C649.752 546.827 660.454 536.259 671.33 525.395Z"/>
	<path fill="#D09134" d="M469.526 634.143L492.72 636.96C491.835 637.967 490.936 638.911 489.767 639.595C483.427 643.301 475.514 645.759 468.704 648.582L427.365 665.827C422.733 667.737 417.14 669.066 412.901 671.671C409.253 670.026 405.112 665.939 401.87 663.429C406.729 660.117 413.202 658.174 418.639 655.901L455.483 640.633C460.042 638.723 465.58 637.137 469.526 634.143Z"/>
	<path fill="#D87717" d="M428.962 623.2L469.526 634.143C465.58 637.137 460.042 638.723 455.483 640.633L418.639 655.901C413.202 658.174 406.729 660.117 401.87 663.429C397.84 660.389 394.481 656.859 391.036 653.199C394.504 649.878 398.743 646.942 402.593 644.063L418.125 632.266C421.922 629.381 425.748 626.748 428.962 623.2Z"/>
</svg>
