<svg width="25" height="24" viewBox="0 0 25 24" fill="none" xmlns="http://www.w3.org/2000/svg">
<path d="M16.6946 8.11084H12.6504L14.7085 11.6748H19.1211L17.0546 8.31073C16.9826 8.18739 16.8386 8.11084 16.6946 8.11084Z" fill="#549BF8"/>
<path d="M12.3066 20.0192L19.0738 12.5254H14.6866L12.3066 20.0192Z" fill="#549BF8"/>
<path d="M13.3118 5.36759C13.6379 5.44415 14.6288 6.43935 14.6924 6.74557C14.6924 6.97948 14.8829 7.17937 15.1158 7.17937C15.3445 7.17937 15.5266 7.00925 15.5393 6.78384V6.75833C15.6155 6.43084 16.5938 5.44415 16.9241 5.36759C17.1528 5.36334 17.3433 5.17621 17.3433 4.94655C17.3433 4.71689 17.1739 4.52975 16.9495 4.52125H16.9241C16.5938 4.4447 15.6028 3.44949 15.5393 3.14328C15.5393 2.90936 15.353 2.70947 15.1158 2.70947C14.8914 2.70947 14.7051 2.87959 14.6966 3.105C14.6966 3.11351 14.6924 3.12201 14.6924 3.13052C14.6204 3.46225 13.6252 4.45745 13.3245 4.517C13.0916 4.517 12.8926 4.70838 12.8926 4.9423C12.8926 5.17196 13.062 5.35909 13.2822 5.36759H13.3118Z" fill="#549BF8"/>
<path d="M22.6061 8.51051C22.5976 8.51051 22.5891 8.51051 22.5807 8.50625C22.2504 8.43395 21.2594 7.43875 21.1959 7.13254C21.1959 6.89862 21.0053 6.69873 20.7724 6.69873C20.5437 6.69873 20.3616 6.86885 20.3489 7.09426V7.11978C20.2727 7.45151 19.2818 8.44246 18.9811 8.50625C18.744 8.50625 18.5449 8.69764 18.5449 8.93155C18.5449 9.16121 18.7143 9.34409 18.9388 9.35685H18.9642C19.2945 9.43341 20.2854 10.4286 20.3489 10.7348C20.3489 10.9687 20.5353 11.1686 20.7724 11.1686C20.9969 11.1686 21.1832 10.9985 21.1917 10.7731C21.1959 10.7646 21.1959 10.7561 21.1959 10.7476C21.2679 10.4201 22.2504 9.43341 22.5807 9.35685C22.8051 9.3526 22.9999 9.16547 22.9999 8.93581C22.9999 8.70614 22.8348 8.52327 22.6061 8.51051Z" fill="#549BF8"/>
<path d="M18.6631 4.58064C18.9256 4.6657 19.6625 5.40572 19.726 5.62263C19.726 5.85654 19.9166 6.06494 20.1495 6.06494C20.3739 6.06494 20.556 5.90332 20.5687 5.68217C20.5687 5.66941 20.5729 5.6609 20.5729 5.64814C20.6534 5.38871 21.3776 4.66145 21.6359 4.58064C21.8561 4.56788 22.0509 4.385 22.0509 4.1596C22.0509 3.93419 21.89 3.74705 21.6655 3.73855C21.657 3.7343 21.6443 3.7343 21.6359 3.7343C21.3733 3.65349 20.6365 2.90921 20.5729 2.69231C20.5729 2.4584 20.3866 2.25 20.1495 2.25C19.925 2.25 19.7429 2.41161 19.7302 2.63277C19.7302 2.64553 19.726 2.65403 19.726 2.66679C19.6455 2.93048 18.9087 3.6705 18.6885 3.7343C18.4556 3.7343 18.248 3.92143 18.248 4.15534C18.248 4.385 18.409 4.56788 18.6334 4.58064H18.6631Z" fill="#549BF8"/>
<path d="M8.47075 8.11084H4.42653C4.28255 8.11084 4.1428 8.18739 4.06657 8.31073L2 11.6748H6.41264L8.47075 8.11084Z" fill="#549BF8"/>
<path d="M2.05469 12.5254L8.8134 20.0234L6.43345 12.5254H2.05469Z" fill="#549BF8"/>
<path d="M7.32227 12.5254L10.1553 21.4524C10.168 21.495 10.1892 21.5375 10.2146 21.5758C10.2231 21.5885 10.2358 21.597 10.2443 21.6098C10.2612 21.6311 10.2824 21.6481 10.3078 21.6693C10.3332 21.6863 10.3586 21.6991 10.3882 21.7119C10.4094 21.7246 10.4348 21.7331 10.4645 21.7374C10.4941 21.7459 10.528 21.7501 10.5619 21.7501C10.6212 21.7501 10.6804 21.7374 10.7313 21.7119C10.7609 21.7034 10.7863 21.6863 10.8075 21.6693C10.8075 21.6693 10.8075 21.6693 10.8117 21.6693C10.8371 21.6481 10.8583 21.6311 10.8752 21.6098C10.8837 21.597 10.8964 21.5885 10.9049 21.5758C10.9303 21.5375 10.9515 21.495 10.9642 21.4524L13.7972 12.5254H7.32227Z" fill="#549BF8"/>
<path d="M7.39062 11.6748H13.7301L11.7906 8.31924C11.7143 8.19165 11.5746 8.11084 11.4221 8.11084H9.69858C9.54613 8.11084 9.40638 8.19165 9.33015 8.31924L7.39062 11.6748Z" fill="#549BF8"/>
</svg>
