<svg width="80" height="80" viewBox="0 0 80 80" fill="none" xmlns="http://www.w3.org/2000/svg">
<g clip-path="url(#clip0_5570_114214)">
<g clip-path="url(#clip1_5570_114214)">
<rect width="80" height="80" fill="#4E00CC"/>
<path d="M-18.8542 11.9046L2.1951 23.7187C11.3236 28.8422 9.70581 42.4436 -0.369802 45.2829C-2.07368 45.763 -3.86401 45.8521 -5.60714 45.5435L-6.65358 45.3583C-21.1285 42.7956 -31.404 59.1045 -22.844 71.0551L-22.0836 72.1167C-15.7893 80.9041 -2.98439 81.6233 4.25432 73.5959L25.1338 50.4417C30.0417 44.9992 38.018 43.583 44.4995 47.0036L47.0513 48.3503C52.8368 51.4036 55.3895 58.3275 52.9705 64.4055L46.804 79.8999C45.1699 84.006 49.1133 88.134 53.2898 86.6892C53.7979 86.5134 54.3304 86.4181 54.8679 86.4066L83.0455 85.8064C107.337 85.2889 126.592 65.1456 126.015 40.8554L125.302 10.8799C125.059 0.688865 116.009 -7.02698 105.908 -5.65446C94.286 -4.07529 87.6691 8.47066 92.9292 18.9538L98.605 30.2654C101.956 36.9429 97.8591 44.9528 90.484 46.1449C81.6003 47.5809 74.8115 38.3723 78.8104 30.3107L80.8298 26.2398C84.2679 19.3091 81.0937 10.9176 73.9295 7.99718L71.9189 7.1776C63.7499 3.84763 54.912 10.212 55.4805 19.0153C56.1494 29.3751 44.2006 35.6031 36.0913 29.1214L35.1707 28.3856C28.945 23.4093 28.92 13.9506 35.1193 8.94155L54.6934 -6.87433C64.4919 -14.7915 60.8354 -30.5216 48.5494 -33.3052C38.8468 -35.5034 29.7126 -27.8672 30.1565 -17.9286L30.7439 -4.77546C30.836 -2.71313 30.262 -0.675896 29.1068 1.035C23.8142 8.87338 11.5731 5.16505 11.5202 -4.29267L11.4405 -18.5541C11.3763 -30.0454 -1.7233 -36.5863 -10.9475 -29.7329L-21.0346 -22.2382C-32.892 -13.4284 -31.7359 4.67463 -18.8542 11.9046Z" fill="#5B00ED"/>
<path fill-rule="evenodd" clip-rule="evenodd" d="M27.1251 50.0409C27.1251 50.0409 35.0976 48.8889 35.0203 43.198C34.943 37.5072 30.9075 39.241 30.9075 39.241L26.3087 40.524L24.7765 40.4682L21.2131 39.6571L19.7886 39.2645L19.0195 40.3227L21.1622 43.6224L19.8766 44.4915L20.573 46.0978L22.8738 47.3408L21.9608 48.059L21.7115 49.0159L24.709 50.5415L27.1251 50.0409Z" fill="#FFCF00"/>
<path fill-rule="evenodd" clip-rule="evenodd" d="M20.3904 41.9028C20.3904 41.9028 23.1787 42.7811 24.6373 42.7186C26.0959 42.6562 25.8499 43.6247 25.8499 43.6247L20.5588 44.0301L20.1951 44.7671C20.1951 44.7671 23.7153 46.4948 25.3956 45.9594C27.0759 45.4242 27.5723 45.2575 28.3562 44.3213C29.1401 43.385 28.9395 45.0297 28.9395 45.0297L28.7959 46.273L27.7394 47.2106L27.0702 50.0522L23.7464 50.052L21.5746 48.8266L22.2663 48.2856C22.2663 48.2856 24.4526 48.9485 25.5943 47.81C26.7359 46.6715 25.7642 46.5512 25.7642 46.5512L22.8732 47.3408L20.5724 46.0979L19.7344 44.7671L20.0077 44.0973L20.5647 43.3145L20.3904 41.9028Z" fill="#F1A700"/>
<path d="M25.6014 46.3196C25.6014 46.3196 25.2116 46.8532 23.9859 47.3468C22.7599 47.8405 21.7764 47.8577 21.5328 48.5348C21.2892 49.2119 24.008 50.8277 27.1258 50.0413" stroke="black" stroke-miterlimit="1.5" stroke-linecap="round" stroke-linejoin="round"/>
<path d="M25.764 43.5306C25.764 43.5306 25.2807 43.9875 23.1364 43.953C20.9919 43.9185 20.0705 43.5122 19.8881 44.394C19.7055 45.2758 21.4437 47.3688 24.3203 47.2013" stroke="black" stroke-miterlimit="1.5" stroke-linecap="round" stroke-linejoin="round"/>
<path d="M22.165 43.9126C22.165 43.9126 18.3648 41.4627 19.1185 39.8747C19.8719 38.287 21.7326 40.0902 24.7122 40.4609C28.1966 40.8941 30.9075 39.2413 30.9075 39.2413" stroke="black" stroke-miterlimit="1.5" stroke-linecap="round" stroke-linejoin="round"/>
<path fill-rule="evenodd" clip-rule="evenodd" d="M35.9084 62.1209C35.9084 62.1209 36.3725 60.9825 38.169 61.1642C39.9656 61.346 40.0535 62.765 40.0535 62.765L39.6013 66.8961L40.0016 68.6404L45.859 68.6488V63.152C45.859 63.152 47.1165 58.9531 49.5663 61.8126C50.2402 62.5992 49.3036 62.5535 49.3036 62.5535L49.2898 64.9737L49.722 67.6724L50.8417 69.7828L50.8109 70.4008L50.6039 72.1135L39.9423 72.6213L26.3535 72.4404L26.521 71.2856L28.6444 69.2822L31.4356 68.5235L34.8503 68.4158L35.9084 68.5235V62.1209Z" fill="#FF8900"/>
<path fill-rule="evenodd" clip-rule="evenodd" d="M35.9085 64.9451C35.9085 64.9451 38.9176 67.9903 37.5209 69.3617C36.1241 70.7332 30.2341 69.9256 28.6597 70.7599C27.0852 71.5942 26.373 72.3067 26.373 72.3067H50.488L51.1708 70.3216L49.4781 67.1541L49.5244 62.1209L45.8591 63.1519V65.8377C45.8591 65.8377 48.7172 67.0232 48.3842 68.8592C48.0512 70.6952 39.8972 70.0692 38.8267 70.7198C37.7563 71.3703 35.7678 71.7572 36.6391 70.8927C37.5104 70.0283 39.742 68.7057 39.742 68.7057L39.7505 67.5456L40.0536 62.7649L35.9085 62.1209V64.9451Z" fill="#DD6D0C"/>
<path d="M26.3203 72.2908H50.4407" stroke="black" stroke-miterlimit="1.5" stroke-linecap="round" stroke-linejoin="round"/>
<path d="M26.3586 72.307C26.3586 72.307 25.8854 67.0822 36.6408 68.6195" stroke="black" stroke-miterlimit="1.5" stroke-linecap="round" stroke-linejoin="round"/>
<path d="M36.3078 72.307C36.3078 72.307 35.8346 67.0822 46.5901 68.6195" stroke="black" stroke-miterlimit="1.5" stroke-linecap="round" stroke-linejoin="round"/>
<path d="M35.9102 68.525V62.1212" stroke="black" stroke-miterlimit="1.5" stroke-linecap="round" stroke-linejoin="round"/>
<path d="M45.8613 68.5249V63.1523" stroke="black" stroke-miterlimit="1.5" stroke-linecap="round" stroke-linejoin="round"/>
<path d="M29.3889 72.3071C29.3889 72.3071 29.2839 69.8632 34.0895 70.3218" stroke="black" stroke-miterlimit="1.5" stroke-linecap="round" stroke-linejoin="round"/>
<path d="M39.34 72.3071C39.34 72.3071 39.2351 69.8632 44.0407 70.3218" stroke="black" stroke-miterlimit="1.5" stroke-linecap="round" stroke-linejoin="round"/>
<path d="M49.5666 61.8129C49.5666 61.8129 48.9421 66.0444 49.5536 67.3479C50.1651 68.6518 51.8244 70.2164 50.4891 72.3069" stroke="black" stroke-miterlimit="1.5" stroke-linecap="round" stroke-linejoin="round"/>
<path d="M40.0548 62.7655C40.0548 62.7655 38.9313 67.0175 40.1341 68.6115" stroke="black" stroke-miterlimit="1.5" stroke-linecap="round" stroke-linejoin="round"/>
<path fill-rule="evenodd" clip-rule="evenodd" d="M55.3701 44.4642C55.3701 44.4642 52.6731 47.5278 52.3871 52.069C52.101 56.6104 53.3237 57.5794 55.2812 57.7232C57.2387 57.8668 58.4974 57.3611 58.4974 57.3611L59.9297 56.4143V55.2725L61.4283 54.4857L62.6604 53.3267L62.1989 51.2994L63.2491 48.7535L63.6966 47.2348L62.244 45.9683L62.3807 43.1691L61.4824 42.7112L59.9297 43.229L59.0417 41.1131L58.1784 41.6144L56.1679 43.963L55.3701 44.4642Z" fill="#FFCF00"/>
<path fill-rule="evenodd" clip-rule="evenodd" d="M55.4297 48.3278C55.4297 48.3278 59.1542 48.8226 60.8395 47.3636C62.5249 45.9047 61.6853 47.239 61.6853 47.239C61.6853 47.239 59.2623 50.4405 60.7931 49.7188C62.3238 48.9971 62.6963 49.0861 62.6963 49.0861L61.2353 51.8741L62.3058 51.479L62.7125 53.8977L61.6275 54.5848L59.9299 55.5247L59.3371 57.0754L55.6831 57.7489C55.6831 57.7489 57.0226 53.7888 56.5487 51.2148C56.0748 48.6406 55.4297 48.3278 55.4297 48.3278Z" fill="#F1A700"/>
<path d="M55.3711 44.4646C55.8351 44.2169 56.299 43.9032 56.7117 43.5072C58.3113 41.9718 58.1387 41.0387 58.9318 41.094C59.7221 41.1493 59.7059 42.7338 59.1179 44.4646" stroke="black" stroke-miterlimit="1.5" stroke-linecap="round" stroke-linejoin="round"/>
<path d="M59.3789 43.5466C59.3789 43.5466 61.0972 42.4147 62.0548 42.778C63.0151 43.1414 62.0413 46.4278 61.2455 47.2046" stroke="black" stroke-miterlimit="1.5" stroke-linecap="round" stroke-linejoin="round"/>
<path d="M61.9745 45.921C61.9745 45.921 65.0874 46.2329 62.9456 49.2187C60.8038 52.2048 60.9171 52.7241 60.9171 52.7241" stroke="black" stroke-miterlimit="1.5" stroke-linecap="round" stroke-linejoin="round"/>
<path d="M61.8476 50.8301C61.8476 50.8301 63.7628 52.8729 61.7181 54.2931C59.6761 55.7134 59.3821 54.7495 58.5 55.2869" stroke="black" stroke-miterlimit="1.5" stroke-linecap="round" stroke-linejoin="round"/>
<path d="M59.9209 55.106C59.9209 55.106 60.3363 58.223 55.2812 57.6544" stroke="black" stroke-miterlimit="1.5" stroke-linecap="round" stroke-linejoin="round"/>
<path fill-rule="evenodd" clip-rule="evenodd" d="M31.0593 40.2044L29.4704 42.27L29.0997 45.4859L28.2881 47.2321L27.1348 51.8098L27.9049 55.2516L30.9063 59.3785L37.7776 62.4417L44.1179 62.8086L46.6616 63.0824L48.4937 62.4801L50.7111 61.3424L55.368 58.2013L56.6845 52.9546L56.6748 50.8532L55.1684 44.0964L52.1996 38.4205L48.2109 35.4198L43.8857 34.2631H39.404L35.1744 35.019L31.6938 37.1443L30.9291 38.8673L31.0593 40.2044Z" fill="#FFCF00"/>
<path fill-rule="evenodd" clip-rule="evenodd" d="M28.9512 56.6909C28.9512 56.6909 34.255 60.4498 39.4035 57.2086C39.9964 56.8353 42.486 57.9634 42.486 57.9634C42.486 57.9634 44.1515 59.6339 45.6022 58.2715C47.0531 56.909 47.6266 58.2683 48.6005 57.2512C49.5743 56.2341 48.0713 54.7121 48.0713 54.7121C48.0713 54.7121 52.4389 51.0389 50.8498 44.3937C49.2606 37.7485 39.1519 36.7144 39.1519 36.7144L43.8852 34.2631L47.2195 35.0071L51.2126 37.6784L54.8379 42.5203L55.9566 47.634L56.6839 52.9546L56.108 56.7015L53.9485 59.339L49.9271 61.7444L47.8222 62.7006L44.9899 63.0824L43.6868 62.4749L38.8739 63.0824L34.1017 61.3371L30.6489 59.0252L28.9665 56.7015" fill="#F1A700"/>
<path d="M32.403 47.004C31.7972 47.268 29.3996 48.0652 29.2129 50.8645" stroke="white" stroke-miterlimit="1.5" stroke-linecap="round" stroke-linejoin="round"/>
<path d="M32.1692 41.465C31.2583 41.9079 31.1225 42.0468 30.6777 42.5686" stroke="white" stroke-miterlimit="1.5" stroke-linecap="round" stroke-linejoin="round"/>
<path d="M38.1588 41.8002C37.6518 42.2824 37.5922 42.3029 37.2793 42.858" stroke="white" stroke-miterlimit="1.5" stroke-linecap="round" stroke-linejoin="round"/>
<path d="M44.4863 34.2624C44.4863 34.2624 53.2493 35.1067 55.3678 44.9238" stroke="black" stroke-miterlimit="1.5" stroke-linecap="round" stroke-linejoin="round"/>
<path d="M55.3691 44.9245C55.4176 46.2701 57.0788 50.2859 56.8236 52.1491" stroke="black" stroke-miterlimit="1.5" stroke-linecap="round" stroke-linejoin="round"/>
<path d="M35.5159 44.6071C35.5159 44.6071 30.0653 43.0935 27.6653 48.1341C25.9657 51.7031 27.9998 57.3492 32.5858 60.5358C37.1395 63.7002 43.6879 62.5683 43.6879 62.5683" stroke="black" stroke-miterlimit="1.5" stroke-linecap="round" stroke-linejoin="round"/>
<path d="M42.4864 57.9639C42.4864 57.9639 40.6535 58.3307 39.1523 57.0044" stroke="black" stroke-miterlimit="1.5" stroke-linecap="round" stroke-linejoin="round"/>
<path d="M44.7557 60.7214C44.7557 60.7214 41.6074 60.8543 40.8203 57.879" stroke="black" stroke-miterlimit="1.5" stroke-linecap="round" stroke-linejoin="round"/>
<path d="M43.2422 60.4734C43.2422 60.4734 43.5513 63.0527 45.5137 63.1482C47.4762 63.2437 47.6348 61.5934 47.6348 61.5934" stroke="black" stroke-miterlimit="1.5" stroke-linecap="round" stroke-linejoin="round"/>
<path d="M47.2754 62.4532C47.2754 62.4532 50.5768 62.9679 50.4231 59.0255" stroke="black" stroke-miterlimit="1.5" stroke-linecap="round" stroke-linejoin="round"/>
<path d="M48.8516 59.5025C48.8516 59.5025 51.0864 59.171 51.2024 57.0044" stroke="black" stroke-miterlimit="1.5" stroke-linecap="round" stroke-linejoin="round"/>
<path d="M33.0295 51.3746C33.0295 51.3746 31.7967 51.6554 32.6276 52.6346" stroke="black" stroke-miterlimit="1.5" stroke-linecap="round" stroke-linejoin="round"/>
<path d="M44.2266 55.7399C44.2266 55.7399 45.6177 55.6566 46.3705 55.3175C47.1234 54.9784 48.0718 54.7125 48.0718 54.7125" stroke="black" stroke-miterlimit="1.5" stroke-linecap="round" stroke-linejoin="round"/>
<path d="M49.9277 61.3374C49.9277 61.3374 56.3065 60.8287 56.8217 52.0662" stroke="black" stroke-miterlimit="1.5" stroke-linecap="round" stroke-linejoin="round"/>
<path d="M44.3707 45.9212C44.3707 45.9212 44.538 47.3784 40.625 47.0776" stroke="black" stroke-miterlimit="1.5" stroke-linecap="round" stroke-linejoin="round"/>
<path d="M36.8899 45.3622C36.8899 45.3622 34.2895 44.5567 35.9247 41.9032" stroke="black" stroke-miterlimit="1.5" stroke-linecap="round" stroke-linejoin="round"/>
<path d="M35.3848 39.6569C35.3848 39.6569 36.0284 40.375 37.5204 39.7778" stroke="black" stroke-miterlimit="1.5" stroke-linecap="round" stroke-linejoin="round"/>
<path d="M29.2998 45.921C29.2998 45.921 27.2225 42.5055 31.5117 40.2679" stroke="black" stroke-miterlimit="1.5" stroke-linecap="round" stroke-linejoin="round"/>
<path d="M31.1608 40.4608C31.1608 40.4608 30.0464 38.2966 32.4812 36.3809" stroke="black" stroke-miterlimit="1.5" stroke-linecap="round" stroke-linejoin="round"/>
<path d="M32.4824 36.3805C32.4824 36.3805 35.9501 33.3585 44.4883 34.2631" stroke="black" stroke-miterlimit="1.5" stroke-linecap="round" stroke-linejoin="round"/>
<path fill-rule="evenodd" clip-rule="evenodd" d="M35.2603 36.6465L37.4956 37.207L40.3824 36.105L41.4824 35.003H43.69L45.4552 33.4385L45.9114 32.7158L47.0927 32.3683L47.5383 30.8135L47.6406 29.1549L49.2017 28.7307L49.7417 27.2917L48.861 24.7748L50.5082 22.7582L50.0317 21.5747L48.5852 20.8123L47.5277 20.9471L46.8831 17.7479L44.9954 15.8657L43.69 14.7722V12.6394L42.6117 11.6928L41.4824 12.5092L40.8992 13.4619L38.0697 11.1395L35.1905 9.68168L33.4826 9.57479L32.6011 10.0068L32.4394 11.4738L33.3034 13.1878L29.2809 14.2205L27.4613 15.6697L28.7008 16.8659L27.0958 19.1378L26.4277 25.9169L27.2302 31.8962L28.7509 34.2943L31.4206 35.7254L33.0663 36.9047L35.2603 36.6465Z" fill="#FFCF00"/>
<path fill-rule="evenodd" clip-rule="evenodd" d="M26.6191 29.301C26.6191 29.301 30.7039 34.0662 35.8359 32.4905C40.968 30.9149 41.2121 27.1065 41.1408 27.2096C41.0693 27.3128 42.6142 24.6133 42.6142 24.6133C42.6142 24.6133 45.2245 22.4038 45.3125 19.7469C45.4004 17.0901 45.671 16.5393 45.671 16.5393L47.0436 18.5442L47.3883 21.025L45.846 22.302C45.846 22.302 44.6827 23.8486 45.1576 24.5245C45.6325 25.2003 46.3293 25.3447 46.3293 25.3447C46.3293 25.3447 44.513 26.1828 45.3051 27.0054C46.0973 27.8281 46.3886 28.0582 46.3886 28.0582C46.3886 28.0582 45.6675 28.4052 45.5285 29.5058C45.3896 30.6062 44.8622 31.4285 44.8622 31.4285L45.1708 32.6579L44.1549 34.5909L43.6901 35.0029L41.5274 35.4359L39.5043 36.4402L36.9467 37.2069L34.0765 36.7857L31.4207 35.7254L29.1887 35.0173L27.2302 31.8961L26.6191 29.301Z" fill="#F1A700"/>
<path d="M33.0371 15.435C34.2064 15.4315 34.0167 15.184 35.9507 15.4527" stroke="white" stroke-miterlimit="1.5" stroke-linecap="round" stroke-linejoin="round"/>
<path d="M27.3242 18.5428C27.3242 18.5428 28.0417 16.6327 30.9127 15.7917" stroke="black" stroke-miterlimit="1.5" stroke-linecap="round" stroke-linejoin="round"/>
<path d="M31.4146 35.4711C31.4146 35.4711 26.9276 35.6367 26.507 28.139C26.0865 20.6414 27.325 18.5427 27.325 18.5427" stroke="black" stroke-miterlimit="1.5" stroke-linecap="round" stroke-linejoin="round"/>
<path d="M29.3304 16.4615C29.3304 16.4615 26.6249 16.397 27.7098 15.1262C28.7947 13.8557 32.445 13.2194 35.4346 13.7918" stroke="black" stroke-miterlimit="1.5" stroke-linecap="round" stroke-linejoin="round"/>
<path d="M34.0923 13.6164C34.0923 13.6164 30.994 11.3467 32.6127 9.79942C34.2312 8.25187 38.8512 11.3961 40.9561 13.58" stroke="black" stroke-miterlimit="1.5" stroke-linecap="round" stroke-linejoin="round"/>
<path d="M40.9551 13.58C40.9551 13.58 41.5448 11.2591 43.051 11.7884C44.557 12.3176 43.5476 14.8233 43.5476 14.8233" stroke="black" stroke-miterlimit="1.5" stroke-linecap="round" stroke-linejoin="round"/>
<path d="M43.5488 14.8232C43.5488 14.8232 47.6687 15.9877 47.3884 21.0245" stroke="black" stroke-miterlimit="1.5" stroke-linecap="round" stroke-linejoin="round"/>
<path d="M41.1387 27.2114C41.1387 27.2114 42.4564 26.3229 42.6128 24.614" stroke="black" stroke-miterlimit="1.5" stroke-linecap="round" stroke-linejoin="round"/>
<path d="M31.4141 35.4712C31.4141 35.4712 32.4445 36.9607 34.306 36.709C36.1678 36.4571 36.8608 35.6926 36.8608 35.6926" stroke="black" stroke-miterlimit="1.5" stroke-linecap="round" stroke-linejoin="round"/>
<path d="M34.6523 36.6542C34.6523 36.6542 36.1325 37.7232 38.629 36.9026C41.1252 36.0821 41.4799 35.0076 41.4799 35.0076" stroke="black" stroke-miterlimit="1.5" stroke-linecap="round" stroke-linejoin="round"/>
<path d="M45.8457 22.302C45.8457 22.302 47.9241 19.7135 49.7687 21.3862C51.6119 23.0589 49.0093 24.6866 48.0903 24.5126" stroke="black" stroke-miterlimit="1.5" stroke-linecap="round" stroke-linejoin="round"/>
<path d="M48.0903 24.5127C48.0903 24.5127 50.2116 25.9108 49.7201 27.9064C49.2289 29.9023 46.3887 28.0604 46.3887 28.0604" stroke="black" stroke-miterlimit="1.5" stroke-linecap="round" stroke-linejoin="round"/>
<path d="M47.1313 28.4588C47.1313 28.4588 48.5084 31.4158 46.7642 32.4616C45.0197 33.5075 44.4883 30.1138 44.4883 30.1138" stroke="black" stroke-miterlimit="1.5" stroke-linecap="round" stroke-linejoin="round"/>
<path d="M45.4535 32.372C45.4535 32.372 45.2812 33.7966 43.6875 35.0078" stroke="black" stroke-miterlimit="1.5" stroke-linecap="round" stroke-linejoin="round"/>
<path d="M28.7049 27.0762C31.1254 27.0762 33.0876 25.114 33.0876 22.6935C33.0876 20.273 31.1254 18.3108 28.7049 18.3108C26.2845 18.3108 24.3223 20.273 24.3223 22.6935C24.3223 25.114 26.2845 27.0762 28.7049 27.0762Z" fill="white"/>
<path fill-rule="evenodd" clip-rule="evenodd" d="M30.6102 18.7458C32.0764 19.4549 33.0885 20.957 33.0885 22.6935C33.0885 25.1124 31.1247 27.0762 28.7058 27.0762C27.1752 27.0762 25.8268 26.2899 25.043 25.0995C25.6189 25.3781 26.265 25.5344 26.9473 25.5344C29.3662 25.5344 31.33 23.5705 31.33 21.1517C31.33 20.2634 31.0651 19.4366 30.6102 18.7458Z" fill="#BEBEBE"/>
<path d="M28.7049 27.0762C31.1254 27.0762 33.0876 25.114 33.0876 22.6935C33.0876 20.273 31.1254 18.3108 28.7049 18.3108C26.2845 18.3108 24.3223 20.273 24.3223 22.6935C24.3223 25.114 26.2845 27.0762 28.7049 27.0762Z" stroke="black" stroke-miterlimit="1.5" stroke-linecap="round" stroke-linejoin="round"/>
<path d="M28.7951 23.5682C29.1188 23.5682 29.3812 23.3058 29.3812 22.9821C29.3812 22.6584 29.1188 22.396 28.7951 22.396C28.4714 22.396 28.209 22.6584 28.209 22.9821C28.209 23.3058 28.4714 23.5682 28.7951 23.5682Z" fill="#EBEBEB" stroke="black" stroke-miterlimit="1.5" stroke-linecap="round" stroke-linejoin="round"/>
<mask id="mask0_5570_114214" style="mask-type:luminance" maskUnits="userSpaceOnUse" x="32" y="18" width="9" height="10">
<path d="M36.4963 27.0747C38.9159 27.0747 40.8774 25.1132 40.8774 22.6936C40.8774 20.274 38.9159 18.3125 36.4963 18.3125C34.0767 18.3125 32.1152 20.274 32.1152 22.6936C32.1152 25.1132 34.0767 27.0747 36.4963 27.0747Z" fill="white"/>
</mask>
<g mask="url(#mask0_5570_114214)">
<path d="M36.4963 27.0747C38.9159 27.0747 40.8774 25.1132 40.8774 22.6936C40.8774 20.274 38.9159 18.3125 36.4963 18.3125C34.0767 18.3125 32.1152 20.274 32.1152 22.6936C32.1152 25.1132 34.0767 27.0747 36.4963 27.0747Z" fill="white"/>
<path fill-rule="evenodd" clip-rule="evenodd" d="M38.6697 18.8899C39.988 19.6455 40.8769 21.0666 40.8769 22.6937C40.8769 25.1117 38.9138 27.0748 36.4958 27.0748C34.8103 27.0748 33.3458 26.1208 32.6133 24.7239C33.254 25.0912 33.9962 25.3011 34.787 25.3011C37.205 25.3011 39.1681 23.338 39.1681 20.9201C39.1681 20.1876 38.988 19.4969 38.6697 18.8899Z" fill="#BEBEBE"/>
</g>
<path d="M36.4921 27.0762C38.9125 27.0762 40.8747 25.114 40.8747 22.6935C40.8747 20.273 38.9125 18.3108 36.4921 18.3108C34.0716 18.3108 32.1094 20.273 32.1094 22.6935C32.1094 25.114 34.0716 27.0762 36.4921 27.0762Z" stroke="black" stroke-miterlimit="1.5" stroke-linecap="round" stroke-linejoin="round"/>
<path d="M36.5878 23.5682C36.9114 23.5682 37.1737 23.3059 37.1737 22.9823C37.1737 22.6588 36.9114 22.3964 36.5878 22.3964C36.2643 22.3964 36.002 22.6588 36.002 22.9823C36.002 23.3059 36.2643 23.5682 36.5878 23.5682Z" fill="#EBEBEB" stroke="black" stroke-miterlimit="1.5" stroke-linecap="round" stroke-linejoin="round"/>
<path fill-rule="evenodd" clip-rule="evenodd" d="M35.5776 34.3237L36.5518 33.1123L38.6609 33.1634L40.0882 32.1071L40.5347 30.3715L39.8659 28.7827L38.3607 27.7458L36.124 27.6917L34.6237 26.9765L31.7374 25.6493L29.8825 26.2842L27.4097 27.7574L25.0964 27.9712L21.4312 27.2312L19.4898 27.1798L18.699 27.8207L18.2031 29.9346L19.3226 31.5171L22.1988 32.4106L25.3038 32.7549L28.1383 34.9339L31.0814 35.4757L34.3784 35.2101L35.5776 34.3237Z" fill="#FF8900"/>
<path fill-rule="evenodd" clip-rule="evenodd" d="M18.6172 29.4678C18.6172 29.4678 19.168 28.7259 20.7731 28.7268C22.3781 28.7278 25.7292 30.9052 28.7148 31.2528C33.2084 31.7758 34.395 29.4875 36.7151 29.4678C39.035 29.4479 38.6027 30.8203 38.5947 31.3447C38.5865 31.8769 39.2715 31.314 40.4852 30.5625C41.0037 30.2414 39.4043 32.613 39.4043 32.613L36.9274 33.2861L35.5772 34.3237L33.4854 35.4757H29.747L27.5741 34.6664L25.3034 32.7549L20.7529 32.4612L18.793 31.3447L18.6172 29.4678Z" fill="#DD6D0C"/>
<path d="M22.8984 27.7568C27.2593 29.7149 27.1784 28.6325 31.9911 26.3921" stroke="white" stroke-miterlimit="1.5" stroke-linecap="round" stroke-linejoin="round"/>
<path d="M35.3242 28.7773C36.7916 28.4102 36.9325 28.3756 38.2574 28.4716" stroke="white" stroke-miterlimit="1.5" stroke-linecap="round" stroke-linejoin="round"/>
<path d="M30.0574 27.8089L29.8926 28.0889" stroke="black" stroke-miterlimit="1.5" stroke-linecap="round" stroke-linejoin="round"/>
<path d="M32.3367 27.8089L32.1719 28.0889" stroke="black" stroke-miterlimit="1.5" stroke-linecap="round" stroke-linejoin="round"/>
<path d="M37.5441 30.9749C37.5441 30.9749 36.7162 30.5174 35.9067 31.1213C35.0975 31.7253 32.0248 33.4169 27.9151 32.4766C23.8055 31.5362 22.2752 29.6542 20.7878 29.9703C19.3002 30.2865 19.3223 31.2093 19.3223 31.2093" stroke="black" stroke-miterlimit="1.5" stroke-linecap="round" stroke-linejoin="round"/>
<path d="M36.5523 33.1127C36.5523 33.1127 39.0332 33.9441 40.1729 31.9706C41.3125 29.9969 39.533 27.7418 38.0211 27.7019C36.5091 27.6617 35.9003 28.0401 34.4329 26.8238C32.9654 25.6075 31.8052 25.372 30.2331 25.9525C28.6613 26.5333 27.5883 28.073 26.2603 28.175C24.9326 28.2767 20.9325 25.9668 19.1249 27.4092C17.317 28.8515 18.0783 31.358 20.5001 32.099C22.9222 32.8398 27.1925 32.2949 27.1925 32.2949" stroke="black" stroke-miterlimit="1.5" stroke-linecap="round" stroke-linejoin="round"/>
<path d="M25.0977 32.4617C25.0977 32.4617 26.8259 35.2954 30.5185 35.4632C33.9405 35.6185 35.5787 34.324 35.5787 34.324" stroke="black" stroke-miterlimit="1.5" stroke-linecap="round" stroke-linejoin="round"/>
<path fill-rule="evenodd" clip-rule="evenodd" d="M42.7885 41.9028C42.7885 41.9028 42.3862 39.0243 44.953 39.6075C47.5198 40.1906 48.4326 42.6345 50.7794 44.2652C53.1261 45.8959 54.7301 45.5736 54.7301 45.5736L56.8583 45.6916L57.3788 46.9952L56.6046 48.4456L57.643 49.1889L58.5679 50.1608L57.813 51.9226L55.3694 52.0644L54.489 52.306L52.855 53.5174L48.6628 52.115L45.546 48.0799L43.3246 43.4673L42.7885 41.9028Z" fill="#FFCF00"/>
<path fill-rule="evenodd" clip-rule="evenodd" d="M45.1016 46.5234C45.1016 46.5234 48.6221 51.0324 50.2005 50.7739C51.7789 50.5154 50.6665 49.1402 50.6665 49.1402C50.6665 49.1402 54.8563 51.1359 55.6182 49.9295C56.3802 48.723 55.08 48.6728 55.08 48.6728L50.8944 46.9049C50.8944 46.9049 55.0255 47.4902 55.7625 46.7553C56.4994 46.0204 56.6857 45.682 56.6857 45.682L57.3584 46.5234L56.6857 48.2934L58.3834 49.4894L58.3938 50.8719L56.6813 51.9883L54.6611 52.0044L52.8549 53.5174L49.3057 52.149L45.9262 48.6728L45.1016 46.5234Z" fill="#F1A700"/>
<path d="M42.7891 41.903C42.7891 41.903 44.6738 48.3818 48.2779 51.3744C51.8817 54.3672 54.0397 53.3317 54.6629 52.0045" stroke="black" stroke-miterlimit="1.5" stroke-linecap="round" stroke-linejoin="round"/>
<path d="M50.7812 44.2643C50.7812 44.2643 52.2271 45.2888 53.8186 45.5115C55.4074 45.7342 56.8803 45.2098 57.3307 46.1239C58.0752 47.6373 55.224 48.4448 55.224 48.4448" stroke="black" stroke-miterlimit="1.5" stroke-linecap="round" stroke-linejoin="round"/>
<path d="M50.7821 47.2047C50.7821 47.2047 53.2287 48.3991 56.6303 48.647C60.0318 48.8949 58.5428 52.765 55.3706 52.0647C52.1983 51.3642 50.4746 49.3805 50.4746 49.3805" stroke="black" stroke-miterlimit="1.5" stroke-linecap="round" stroke-linejoin="round"/>
</g>
</g>
<defs>
<clipPath id="clip0_5570_114214">
<rect width="80" height="80" rx="20" fill="white"/>
</clipPath>
<clipPath id="clip1_5570_114214">
<rect width="80" height="80" fill="white"/>
</clipPath>
</defs>
</svg>
