<svg width="168" height="200" viewBox="0 0 168 200" fill="none" xmlns="http://www.w3.org/2000/svg">
<path d="M83.612 0C87.8997 0.0412406 92.3157 0.55448 96.4495 1.72172C96.9407 1.85943 97.4296 2.00455 97.9162 2.15708C98.403 2.30961 98.8873 2.46949 99.3692 2.63672C99.8511 2.80393 100.33 2.9784 100.807 3.16015C101.284 3.3419 101.757 3.53083 102.228 3.72693C102.699 3.92303 103.167 4.12623 103.632 4.33653C104.096 4.54683 104.558 4.76411 105.016 4.98839C105.474 5.21267 105.929 5.44384 106.38 5.68191C106.831 5.91997 107.278 6.16482 107.722 6.41644C108.166 6.66807 108.605 6.92637 109.041 7.19133C109.477 7.45629 109.909 7.7278 110.336 8.00584C110.764 8.2839 111.188 8.56837 111.607 8.85925C112.026 9.15014 112.44 9.44731 112.85 9.75077C113.26 10.0542 113.665 10.3638 114.066 10.6796C114.466 10.9953 114.862 11.317 115.253 11.6448C115.644 11.9725 116.03 12.3061 116.41 12.6455C116.791 12.985 117.167 13.3301 117.537 13.6809C117.907 14.0317 118.272 14.3881 118.632 14.75C118.991 15.1118 119.345 15.4791 119.693 15.8516C120.042 16.2243 120.384 16.6022 120.721 16.9852C121.058 17.3682 121.389 17.7562 121.714 18.1492C122.039 18.5422 122.359 18.94 122.672 19.3427C122.985 19.7455 123.291 20.153 123.592 20.5649C123.893 20.9769 124.187 21.3934 124.475 21.8142C124.763 22.2352 125.045 22.6605 125.32 23.0899C125.595 23.5194 125.864 23.953 126.126 24.3906C126.388 24.8283 126.644 25.2698 126.892 25.715C127.141 26.1605 127.383 26.6095 127.618 27.0621C127.853 27.5149 128.081 27.9711 128.302 28.4306C128.523 28.8902 128.738 29.353 128.945 29.8191C129.152 30.2852 129.352 30.7544 129.545 31.2265C129.738 31.6987 129.924 32.1738 130.102 32.6517C130.281 33.1294 130.452 33.6098 130.616 34.0928C131.194 35.7395 131.668 37.4157 132.039 39.1214C132.351 40.5334 132.391 43.5238 133.058 44.6125C134.366 46.748 137.366 48.0372 139.67 48.6623C146.059 50.3949 153.063 49.1877 158.826 46.0759C160.518 45.1622 162.02 43.9685 163.683 43.0122C159.982 58.4708 151.012 69.8619 137.405 77.9983C135.766 78.9843 134.084 79.8908 132.359 80.718C130.62 81.5512 128.305 82.2492 126.842 83.4994C126.811 83.5262 126.78 83.5539 126.749 83.5813C126.767 84.4041 126.895 85.1908 127.038 85.9994C128.326 86.6915 129.576 87.4643 130.408 88.7038C131.614 90.5005 131.798 93.0692 131.388 95.1414C130.538 99.4471 127.522 103.908 123.865 106.323C121.34 107.991 119.097 108.528 116.129 107.927L116.125 118.273C116.124 120.174 116.214 122.128 116.067 124.024C116.015 124.697 115.904 125.404 115.659 126.035C114.974 127.8 113.321 129.45 112.16 130.944C113.574 130.307 114.951 129.52 116.345 128.834C120.846 126.633 125.299 124.341 129.707 121.96C131.898 120.776 134.613 119.576 136.604 118.15C138.053 117.113 139.393 115.749 140.385 114.267C142.848 110.588 141.065 106.939 145.38 103.795C145.509 103.702 145.64 103.612 145.773 103.526C145.907 103.439 146.042 103.356 146.179 103.276C146.317 103.196 146.456 103.12 146.597 103.047C146.738 102.974 146.881 102.904 147.025 102.838C147.169 102.772 147.315 102.709 147.463 102.65C147.611 102.591 147.759 102.536 147.91 102.484C148.06 102.432 148.211 102.384 148.364 102.34C148.516 102.296 148.67 102.255 148.824 102.218C148.979 102.182 149.134 102.149 149.29 102.119C149.447 102.09 149.603 102.065 149.761 102.043C149.918 102.022 150.076 102.004 150.234 101.99C150.392 101.976 150.551 101.966 150.71 101.96C150.868 101.954 151.027 101.952 151.186 101.953C151.345 101.955 151.504 101.961 151.662 101.97C151.821 101.979 151.979 101.993 152.137 102.01C152.295 102.027 152.452 102.048 152.609 102.073C155.142 102.484 157.462 104.007 158.941 106.095C160.732 108.625 160.697 111.461 160.206 114.386C163.127 115.609 165.44 116.852 166.818 119.854C166.88 119.993 166.94 120.134 166.995 120.276C167.051 120.418 167.104 120.562 167.152 120.706C167.201 120.851 167.247 120.997 167.288 121.144C167.33 121.291 167.368 121.438 167.403 121.587C167.438 121.736 167.469 121.885 167.496 122.035C167.523 122.186 167.547 122.336 167.567 122.488C167.587 122.639 167.603 122.791 167.616 122.943C167.629 123.095 167.638 123.248 167.643 123.4C167.648 123.553 167.65 123.706 167.647 123.858C167.645 124.011 167.639 124.164 167.63 124.316C167.62 124.468 167.607 124.621 167.59 124.772C167.573 124.924 167.552 125.075 167.528 125.226C167.504 125.377 167.476 125.527 167.444 125.676C167.412 125.826 167.377 125.974 167.338 126.122C167.299 126.27 167.257 126.416 167.211 126.562C167.165 126.708 167.116 126.852 167.063 126.995C167.006 127.147 166.945 127.298 166.88 127.447C166.815 127.597 166.747 127.744 166.675 127.89C166.603 128.036 166.527 128.18 166.448 128.322C166.369 128.464 166.286 128.604 166.2 128.742C166.114 128.88 166.025 129.015 165.932 129.149C165.839 129.282 165.743 129.413 165.643 129.542C165.544 129.671 165.441 129.797 165.336 129.921C165.23 130.044 165.121 130.165 165.01 130.284C164.898 130.402 164.783 130.517 164.666 130.63C164.549 130.742 164.429 130.852 164.306 130.958C164.183 131.065 164.057 131.169 163.93 131.269C163.802 131.369 163.671 131.466 163.538 131.56C163.405 131.654 163.27 131.745 163.133 131.832C162.996 131.919 162.856 132.002 162.715 132.083C162.574 132.163 162.43 132.24 162.285 132.313C162.14 132.386 161.993 132.455 161.844 132.521C159.155 133.728 155.949 133.649 153.28 132.421C152.088 131.873 150.969 131.127 149.74 130.665C148.101 130.05 146.406 130.031 144.731 130.533C143.018 131.046 141.4 132.017 139.813 132.833L132.925 136.385L113.833 146.272C110.304 148.079 106.824 149.934 103.215 151.58C105.041 152.386 106.804 153.331 108.581 154.237C111.589 155.758 114.579 157.312 117.552 158.901L134.547 167.864C136.387 168.846 138.221 169.839 140.05 170.842C141.099 171.427 142.134 172.095 143.224 172.599C143.404 172.684 143.589 172.761 143.777 172.828C143.965 172.895 144.156 172.952 144.35 173C144.544 173.048 144.74 173.087 144.937 173.115C145.135 173.144 145.334 173.162 145.533 173.171C149.048 173.327 151.05 170.663 154.743 170.057C157.336 169.632 159.896 170.308 162.021 171.838C164.09 173.327 165.425 175.46 165.819 177.986C165.845 178.144 165.867 178.302 165.885 178.461C165.903 178.62 165.917 178.779 165.927 178.939C165.937 179.098 165.943 179.258 165.945 179.418C165.946 179.577 165.944 179.737 165.938 179.897C165.932 180.057 165.922 180.216 165.908 180.376C165.893 180.535 165.875 180.694 165.853 180.852C165.83 181.01 165.804 181.168 165.774 181.325C165.744 181.482 165.71 181.638 165.672 181.793C165.633 181.948 165.591 182.103 165.545 182.256C165.5 182.409 165.45 182.561 165.396 182.711C165.343 182.862 165.285 183.011 165.224 183.159C165.163 183.307 165.098 183.453 165.03 183.597C164.961 183.742 164.889 183.884 164.814 184.025C164.738 184.166 164.659 184.305 164.576 184.442C164.493 184.578 164.407 184.713 164.318 184.845C164.228 184.978 164.136 185.108 164.039 185.236C162.4 187.445 159.935 188.469 157.289 188.864C157.722 191.351 158 193.665 156.757 195.988C155.798 197.78 154.146 198.902 152.232 199.482C149.324 200.364 146.076 200.134 143.387 198.686C141.429 197.633 139.976 195.929 139.682 193.67C139.524 192.454 139.504 191.25 139.131 190.071C138.542 188.21 137.319 186.567 135.776 185.386C134.365 184.305 132.778 183.479 131.223 182.631C128.06 180.905 124.801 179.339 121.601 177.677L85.2434 159.225C84.7284 158.946 84.2028 158.702 83.6705 158.459C82.5484 159.161 81.296 159.706 80.1218 160.322L71.0249 165.006L43.4353 179.324C41.1931 180.508 38.9163 181.627 36.6716 182.809C35.0825 183.645 33.468 184.453 32.065 185.589C30.4316 186.912 28.948 188.682 28.5743 190.806C28.4324 191.613 28.4322 192.451 28.344 193.266C28.148 195.079 27.3048 196.625 25.8685 197.753C23.6 199.534 20.482 200.064 17.6713 199.71C15.3717 199.42 12.9058 198.353 11.4786 196.465C9.79983 194.245 9.81565 191.491 10.164 188.852L9.99501 188.813C7.2303 188.166 4.73818 186.615 3.25793 184.142C1.98284 182.011 1.78537 179.262 2.40377 176.886C3.01656 174.533 4.66265 172.459 6.76733 171.253C9.40553 169.742 12.9212 169.401 15.7674 170.514C17.1726 171.064 18.4722 171.846 19.9452 172.226C21.3179 172.58 22.9671 172.636 24.3275 172.199C26.1404 171.617 27.8762 170.591 29.5685 169.726L37.3695 165.734L51.3884 158.511C55.8293 156.222 60.3313 153.926 64.6251 151.372C62.3067 150.226 59.9428 149.171 57.6182 148.037C52.441 145.488 47.2884 142.891 42.1606 140.244L30.0735 134.043C28.175 133.079 26.2857 131.975 24.3264 131.15C21.8687 130.115 19.5842 130.141 17.1838 131.32C16.157 131.824 15.1742 132.424 14.1085 132.847C11.6438 133.824 8.81896 133.675 6.4005 132.623C3.92169 131.546 2.01488 129.757 1.03692 127.208C0.979912 127.057 0.926645 126.904 0.877123 126.75C0.827601 126.597 0.781894 126.442 0.740001 126.286C0.698248 126.13 0.660307 125.973 0.626183 125.815C0.592197 125.657 0.562096 125.498 0.535878 125.339C0.509661 125.18 0.487397 125.02 0.469086 124.859C0.450776 124.699 0.436487 124.538 0.426222 124.377C0.415819 124.216 0.409506 124.054 0.407287 123.893C0.404929 123.731 0.406594 123.57 0.412281 123.408C0.41783 123.247 0.42747 123.085 0.441203 122.925C0.454798 122.764 0.472414 122.603 0.494054 122.443C0.515694 122.283 0.541219 122.124 0.570627 121.965C0.600174 121.806 0.633605 121.648 0.67092 121.491C0.708235 121.334 0.749433 121.177 0.794516 121.022C0.83946 120.867 0.888289 120.713 0.941002 120.561C0.993714 120.408 1.05017 120.257 1.11038 120.107C1.17044 119.957 1.23425 119.808 1.30181 119.662C2.67136 116.64 4.79332 115.425 7.77734 114.321C7.19139 111.824 7.15311 109.288 8.37555 106.973C8.45018 106.834 8.52814 106.698 8.60943 106.563C8.69086 106.428 8.77555 106.296 8.86349 106.165C8.95144 106.035 9.04257 105.907 9.1369 105.781C9.23123 105.655 9.32861 105.532 9.42904 105.411C9.52947 105.289 9.63289 105.171 9.73928 105.055C9.84568 104.939 9.95485 104.826 10.0668 104.716C10.1789 104.605 10.2936 104.498 10.411 104.393C10.5283 104.288 10.6482 104.186 10.7705 104.088C10.893 103.989 11.0178 103.893 11.145 103.8C11.2722 103.708 11.4016 103.619 11.5331 103.532C11.6647 103.446 11.7985 103.364 11.9343 103.284C12.0699 103.205 12.2075 103.128 12.3471 103.056C12.4866 102.983 12.6279 102.914 12.7709 102.849C12.914 102.783 13.0584 102.721 13.2044 102.663C13.3504 102.604 13.4979 102.549 13.6467 102.498C13.7954 102.447 13.9454 102.4 14.0966 102.356C14.2472 102.311 14.399 102.269 14.5519 102.231C14.7046 102.193 14.8582 102.159 15.0128 102.129C15.1671 102.099 15.3222 102.073 15.478 102.051C15.6339 102.028 15.7903 102.01 15.947 101.996C16.1036 101.981 16.2606 101.971 16.4179 101.964C16.5752 101.957 16.7325 101.955 16.8898 101.956C17.0473 101.958 17.2046 101.963 17.3617 101.972C17.5188 101.981 17.6755 101.995 17.832 102.012C17.9884 102.029 18.1444 102.05 18.2997 102.075C18.4551 102.1 18.6098 102.129 18.7637 102.162C18.9177 102.195 19.0707 102.231 19.2228 102.272C19.3749 102.312 19.5259 102.356 19.6757 102.405C19.8257 102.453 19.9743 102.504 20.1214 102.56C20.2688 102.615 20.4145 102.675 20.5588 102.737C20.7031 102.8 20.8457 102.867 20.9868 102.937C21.1278 103.007 21.2668 103.081 21.404 103.158C25.7659 105.593 25.762 108.15 26.9954 112.448C27.061 112.685 27.1354 112.919 27.2185 113.151C27.3016 113.382 27.3931 113.611 27.4931 113.835C27.5933 114.06 27.7016 114.281 27.8182 114.497C27.9347 114.714 28.0591 114.926 28.1915 115.133C28.3238 115.341 28.4637 115.543 28.6111 115.74C28.7585 115.937 28.913 116.128 29.0747 116.313C29.2363 116.499 29.4047 116.678 29.5797 116.851C29.7548 117.024 29.936 117.19 30.1234 117.349C32.4402 119.34 35.9086 120.723 38.6464 122.126C44.452 125.102 50.3536 127.927 56.0453 131.113C54.5066 129.479 52.8651 127.773 52.0746 125.628C51.8794 125.098 51.7902 124.569 51.745 124.01C51.589 122.078 51.6988 120.071 51.698 118.132L51.6543 108.278C49.08 108.139 46.7479 107.49 44.5593 106.097C40.9644 103.809 37.7448 99.8899 36.8129 95.671C36.0869 92.3844 36.6337 89.3567 38.7794 86.7356C39.6525 85.669 40.6729 84.6534 41.4072 83.4873L41.489 83.3558C36.1164 81.3911 30.8563 78.4175 26.1667 75.1574C15.5003 67.7426 6.85764 56.2912 4.53905 43.3164C7.14395 45.1339 9.6985 46.8374 12.7162 47.9207C18.182 49.8824 25.6032 50.1096 30.9095 47.5855C31.9391 47.0959 34.2202 45.8761 34.5991 44.7109C34.6127 44.6697 34.6235 44.6275 34.6366 44.5863C34.9974 43.4631 35.1582 42.3055 35.3955 41.153C35.7167 39.6149 36.0766 38.0858 36.475 36.5658C36.6074 36.0903 36.747 35.6167 36.8936 35.1452C37.0401 34.6739 37.1936 34.2047 37.3543 33.7378C37.5148 33.271 37.6823 32.8067 37.8568 32.3447C38.0312 31.883 38.2124 31.4239 38.4005 30.9675C38.5885 30.511 38.7833 30.0574 38.985 29.6067C39.1865 29.1561 39.3947 28.7086 39.6096 28.2642C39.8245 27.8197 40.046 27.3785 40.2742 26.9406C40.5023 26.5028 40.7368 26.0685 40.9777 25.6376C41.2187 25.2068 41.466 24.7796 41.7197 24.3561C41.9736 23.9326 42.2336 23.513 42.4998 23.0972C42.766 22.6815 43.0384 22.2698 43.3169 21.8621C43.5953 21.4545 43.8798 21.0512 44.1704 20.6519C44.4609 20.2528 44.7573 19.8581 45.0595 19.4678C45.3618 19.0774 45.6698 18.6917 45.9836 18.3107C46.2974 17.9295 46.6168 17.5531 46.9418 17.1814C47.2667 16.8098 47.5971 16.4431 47.9331 16.0813C57.4199 6.01096 69.7787 0.426327 83.612 0Z" fill="#0D0D0D"/>
<path d="M92.2329 17.1866C92.2524 17.093 92.272 16.9992 92.294 16.9059C92.5466 15.8375 92.8764 14.858 93.8873 14.2716C94.7689 13.7601 95.9724 13.6462 96.9387 13.9573C97.9025 14.2675 98.6972 15.0093 99.1297 15.9186C99.5994 16.9057 99.6672 18.0868 99.2727 19.1111C98.9539 19.9386 98.333 20.6519 97.503 20.9903C96.3428 21.4628 95.2339 21.1195 94.1478 20.6559C91.7813 22.2912 89.4723 24.0049 87.1042 25.6385C89.4409 27.4777 91.9438 29.1458 94.3301 30.9278C95.199 30.7074 96.0519 30.5726 96.9137 30.9159C97.5775 31.1802 98.0744 31.7037 98.353 32.3568C98.7562 33.3019 98.6924 34.3269 98.3066 35.2663C97.693 36.761 96.5575 37.7094 95.0881 38.2897C94.3931 38.4886 93.6752 38.5329 92.9803 38.3097C92.2173 38.0646 91.6117 37.5213 91.2661 36.8003C90.7462 35.7154 90.9669 34.7127 91.3562 33.6413C88.9428 31.8046 86.4885 29.8098 83.8682 28.2835C81.6976 29.7434 78.6524 31.8672 76.7089 33.5674C76.8558 34.082 77.0365 34.6186 77.0851 35.1529C77.1592 35.9657 76.9863 36.7578 76.4276 37.3729C75.8463 38.013 74.9765 38.4287 74.1103 38.4447C72.9197 38.4672 71.7528 37.8038 70.9438 36.9684C70.1 36.0968 69.527 34.8556 69.562 33.6284C69.5851 32.8235 69.8947 32.0645 70.5 31.5239C71.4507 30.6754 72.6215 30.6015 73.8231 30.6729C74.6856 30.1764 75.4882 29.501 76.2899 28.9107C77.7841 27.8032 79.2869 26.7074 80.7983 25.6235C79.4476 24.3012 75.6168 21.7129 73.9189 20.7216C73.5437 20.8804 73.1569 21.0159 72.7578 21.1005C71.8512 21.2926 70.9359 21.1655 70.1666 20.6326C69.3601 20.0737 68.8237 19.1654 68.661 18.2037C68.6503 18.1387 68.6413 18.0734 68.6339 18.0079C68.6266 17.9424 68.6209 17.8768 68.6169 17.8109C68.6127 17.7451 68.6103 17.6793 68.6096 17.6134C68.6089 17.5475 68.6099 17.4816 68.6125 17.4157C68.615 17.3498 68.6192 17.2841 68.6252 17.2185C68.6312 17.1529 68.6387 17.0874 68.6479 17.0221C68.6572 16.9569 68.6681 16.8919 68.6805 16.8271C68.693 16.7623 68.7072 16.6979 68.723 16.634C68.7388 16.57 68.7562 16.5065 68.7752 16.4434C68.7942 16.3801 68.8148 16.3175 68.8368 16.2555C68.859 16.1934 68.8827 16.1318 68.908 16.0709C68.9332 16.01 68.96 15.9498 68.9883 15.8903C69.0166 15.8308 69.0463 15.7721 69.0776 15.7141C69.1089 15.656 69.1416 15.5987 69.1758 15.5424C69.2099 15.4861 69.2455 15.4306 69.2825 15.376C69.3194 15.3214 69.3577 15.2678 69.3974 15.2151C70.0451 14.3616 70.9149 13.9682 71.9534 13.8241C72.9093 13.8674 73.7817 14.0094 74.5483 14.6419C75.3169 15.2761 75.7035 16.228 75.8011 17.2006C78.6757 18.9813 81.5036 21.0539 84.1809 23.1162C86.7669 21.0267 89.5341 19.1278 92.2329 17.1866Z" fill="white"/>
<path d="M111.057 106.262L111.197 106.381C111.365 112.397 111.423 118.415 111.37 124.433C110.423 126.107 108.815 127.585 107.49 128.974C105.784 130.764 104.023 132.503 102.304 134.281C100.858 135.777 95.6063 141.547 94.0302 142.346C92.7759 142.981 91.0711 143.121 89.6866 143.151C87.2431 143.203 84.7845 143.144 82.339 143.149C80.0903 143.154 77.6155 143.36 75.4101 142.942C74.3922 142.749 73.5603 142.477 72.8054 141.735C71.6491 140.598 70.56 139.379 69.436 138.209L62.9702 131.466C61.1754 129.572 59.2149 127.767 57.5209 125.785C57.1468 125.347 56.7527 124.856 56.5736 124.302C56.2003 123.149 56.4032 115.311 56.3932 113.639C56.3323 111.281 56.3086 108.921 56.322 106.562C56.9161 106.801 57.4745 107.105 57.997 107.475C60.11 108.948 61.6038 111.12 61.8194 113.733C61.8937 114.634 61.7998 115.564 61.9831 116.454C62.5204 119.064 67.8865 123.451 70.2431 124.959C70.3037 124.202 70.2394 123.319 70.7668 122.719C71.383 122.489 72.1934 122.74 72.8116 122.904C75.2388 123.55 75.4968 124.278 76.6858 126.339C76.7728 125.951 76.852 125.505 77.0337 125.151C77.3148 124.603 77.9107 124.192 78.4931 124.028C79.5943 123.717 81.0271 123.984 82.0129 124.534C83.2874 125.245 83.7341 126.256 84.0958 127.591C84.2271 126.908 84.3709 126.271 84.7708 125.685C85.4139 124.742 86.3836 124.187 87.5016 124.005C88.4695 123.848 89.6314 123.877 90.444 124.496C91.157 125.038 91.2671 125.643 91.3868 126.474C91.852 125.715 92.3046 124.829 92.9174 124.179C93.8753 123.164 95.9401 122.673 97.3223 122.632C97.7019 123.121 97.5371 124.213 97.525 124.819C97.5583 124.797 97.5916 124.775 97.6247 124.752C99.953 123.16 104.921 119.358 105.81 116.653C106.198 115.473 105.994 114.122 106.235 112.888C106.811 109.934 108.634 107.905 111.057 106.262Z" fill="white"/>
<path d="M81.8765 53.0576C81.9435 53.0511 82.011 53.0474 82.0782 53.0449C84.1079 52.9912 86.1352 53.0383 88.1602 53.1864C90.1853 53.3344 92.1981 53.5824 94.1984 53.9304C95.9514 54.2209 97.7261 54.471 99.4558 54.882C104.72 56.1321 109.83 58.3868 114.408 61.2495C115.998 62.2439 117.734 63.2718 119.098 64.5639C122.251 67.5511 122.003 72.2024 121.972 76.1952C121.954 78.5976 121.89 81.0159 121.98 83.4171C122.055 85.4429 122.355 88.2682 123.962 89.7101C124.598 90.2805 125.4 90.6637 126.006 91.257C126.518 91.7588 126.783 92.3856 126.776 93.1036C126.751 95.4803 124.059 99.6969 122.375 101.385C121.08 102.684 119.338 103.886 117.453 103.095C116.518 102.703 115.666 102.131 114.709 101.783C113.819 101.459 112.822 101.346 111.878 101.351C109.418 101.364 107.156 102.41 105.454 104.173C102.665 107.064 102.083 111.34 102.14 115.183C101.818 115.692 101.397 116.179 100.912 116.543C100.554 116.812 100.125 116.976 99.6741 116.883C98.6464 116.67 97.8541 115.066 97.3199 114.249C97.3039 115.349 97.3316 116.636 96.9044 117.666C96.5858 118.433 95.9936 118.98 95.2209 119.278C94.4447 119.577 93.3201 119.744 92.5369 119.38C91.3496 118.828 90.9077 116.056 90.4636 114.876C90.4774 116.123 90.7254 118.625 89.9349 119.629C89.4707 120.219 88.5541 120.447 87.8481 120.531C86.8997 120.642 85.6238 120.616 84.8672 119.969C84.1375 119.345 84.232 117.852 84.1922 116.971C84.1473 116.379 84.0975 115.788 84.043 115.197C83.8558 116.472 84.0805 118.755 83.2168 119.749C82.7215 120.319 81.9562 120.54 81.2263 120.593C80.2658 120.662 79.0323 120.503 78.3082 119.815C77.3663 118.92 77.5858 116.292 77.5438 115.071C76.8946 116.35 76.895 118.162 75.865 119.201C75.4251 119.644 74.7772 119.797 74.17 119.765C73.1386 119.711 72.0626 119.188 71.3885 118.405C70.412 117.272 70.5568 115.547 70.6617 114.162C70.1415 115.225 69.6781 116.367 68.8335 117.216C68.1034 117.063 67.317 116.815 66.7382 116.324C65.8258 115.55 66.2704 114.227 66.1807 113.168C65.8786 109.603 64.7758 105.92 61.9391 103.574C59.6434 101.675 56.7716 100.921 53.9444 102.074C52.7428 102.563 51.5728 103.259 50.2519 103.354C48.7656 103.46 47.4127 102.702 46.3251 101.758C44.1667 99.8842 42.1164 96.9539 41.922 94.0183C41.7298 91.1142 43.3328 90.8887 44.7221 89.0264C45.3409 88.1968 45.6613 87.0923 45.905 86.1004C46.7991 82.4601 46.5403 78.5406 46.3977 74.8287C46.3249 72.9373 46.1224 70.9702 46.5944 69.1158C46.9876 67.57 47.863 66.1599 48.9065 64.9693C50.6256 63.0073 52.8422 61.5446 55.0724 60.2272C63.5919 55.1947 72.1032 53.6614 81.8765 53.0576Z" fill="white"/>
<path d="M83.8558 85.3867C84.1178 85.4005 84.3569 85.4269 84.6107 85.4968C86.3692 85.9814 87.8093 88.1883 88.6641 89.6729C90.6624 93.144 92.6737 98.1803 91.5459 102.227C91.2346 103.343 90.6241 104.305 89.5769 104.855C88.6206 105.357 87.3732 105.467 86.3455 105.133C85.1817 104.755 84.5625 103.927 84.0552 102.875C83.998 102.794 84.0394 102.828 83.9133 102.799L83.8194 102.965C83.2075 104.036 82.6908 104.789 81.4251 105.106C81.3577 105.123 81.2899 105.138 81.2216 105.151C81.1535 105.164 81.085 105.176 81.0162 105.186C80.9474 105.196 80.8785 105.204 80.8094 105.211C80.7402 105.217 80.6709 105.222 80.6015 105.225C80.5322 105.229 80.4628 105.23 80.3933 105.23C80.3238 105.23 80.2543 105.228 80.185 105.224C80.1156 105.221 80.0463 105.216 79.9771 105.209C79.908 105.202 79.8391 105.193 79.7705 105.183C79.7017 105.172 79.6332 105.16 79.5651 105.147C79.497 105.133 79.4293 105.118 79.362 105.101C79.2946 105.084 79.2277 105.065 79.1612 105.045C79.0948 105.025 79.0288 105.003 78.9634 104.98C78.898 104.956 78.8332 104.931 78.769 104.904C78.7049 104.878 78.6415 104.85 78.5786 104.82C78.5158 104.79 78.4537 104.759 78.3924 104.726C78.3312 104.693 78.2708 104.659 78.2112 104.624C77.2053 104.014 76.6356 102.981 76.3828 101.856C75.4529 97.721 77.598 92.3183 79.8154 88.8685C80.7545 87.4073 82.0816 85.7706 83.8558 85.3867Z" fill="#0D0D0D"/>
<path d="M101.53 64.5994C101.784 64.5686 102.039 64.5499 102.295 64.5434C106.172 64.4235 109.935 65.61 112.78 68.3069C115.591 70.9706 117.159 74.4472 117.245 78.3165C117.324 81.894 116.342 85.5081 113.81 88.1327C111.421 90.6095 108.496 91.5658 105.111 91.6151C101.509 91.521 97.8518 90.1446 95.0034 87.9511C91.9407 85.5923 89.8198 82.4458 89.3365 78.5604C89.313 78.3654 89.2945 78.1699 89.2809 77.9741C89.2672 77.7781 89.2583 77.5819 89.2543 77.3856C89.2504 77.1892 89.2514 76.9928 89.2572 76.7966C89.263 76.6001 89.2737 76.4041 89.2892 76.2083C89.3048 76.0126 89.3252 75.8173 89.3504 75.6224C89.3755 75.4276 89.4056 75.2336 89.4405 75.0404C89.4753 74.847 89.515 74.6547 89.5595 74.4634C89.6039 74.2721 89.653 74.082 89.7068 73.8931C89.7608 73.7043 89.8194 73.5169 89.8825 73.3308C89.9456 73.145 90.0133 72.9607 90.0858 72.778C90.158 72.5954 90.2348 72.4148 90.3161 72.2359C90.3974 72.0571 90.483 71.8805 90.5731 71.706C90.6632 71.5313 90.7576 71.3591 90.8563 71.1893C90.9549 71.0195 91.0577 70.8522 91.1646 70.6875C91.2714 70.5227 91.3823 70.3606 91.4973 70.2014C91.6123 70.0421 91.7312 69.8859 91.854 69.7326C94.2069 66.7656 97.8295 65.039 101.53 64.5994Z" fill="#0D0D0D"/>
<path d="M63.1418 64.6014C66.0418 64.2088 69.4971 64.9835 72.0098 66.4518C74.9006 68.141 77.2956 70.8468 78.1223 74.139C78.9408 77.3989 78.496 80.9689 76.7606 83.8584C74.3711 87.8373 69.9239 90.1635 65.5555 91.2797C65.0836 91.3805 64.6086 91.4635 64.1304 91.5287C61.0419 91.9397 57.8082 91.3271 55.3134 89.3824C52.6286 87.2896 51.0447 83.8944 50.6716 80.5573C50.2303 76.6124 51.2278 72.7436 53.7191 69.631C56.1505 66.5929 59.2997 65.0115 63.1418 64.6014Z" fill="#0D0D0D"/>
</svg>
