<svg width="104" height="22" viewBox="0 0 104 22" fill="none" xmlns="http://www.w3.org/2000/svg">
<g clip-path="url(#clip0_5022_73459)">
<path d="M90.4264 16.4335L91.7173 14.6888C91.8599 14.4904 92.0887 14.3836 92.3272 14.3836H95.1889C95.4432 14.3836 95.7072 14.3836 95.9712 14.3836C96.5864 14.3836 96.9472 13.6917 96.5969 13.1882C96.4491 12.9796 96.3065 12.7711 96.1692 12.5828L94.462 10.1106C94.1672 9.67821 93.5266 9.6731 93.2221 10.1004L88.0169 17.3339C87.8749 17.5323 87.6462 17.6493 87.4022 17.6493H84.5407C83.9207 17.6493 83.5649 16.9474 83.9258 16.4437L91.3416 6.17338C91.8854 5.43579 92.673 4.75415 93.9279 4.75415C95.1836 4.75415 95.9158 5.37983 96.4746 6.17338L103.702 16.4488C104.052 16.9524 103.697 17.6442 103.082 17.6442H91.0265C90.4158 17.6391 90.0603 16.932 90.4264 16.4335Z" fill="white"/>
<path d="M81.5635 17.639H77.9937C77.8082 17.639 77.628 17.5718 77.4836 17.4529L73.7489 14.2537C73.3265 13.8919 72.9711 13.5869 72.6723 13.3285C72.1624 12.8892 71.3794 13.251 71.3794 13.9332C71.3794 13.9384 71.3794 13.9436 71.3794 13.9488V16.8637C71.3794 17.2979 71.029 17.6493 70.5963 17.6493H68.0876C67.6549 17.6493 67.3047 17.2979 67.3047 16.8637V5.53974C67.3047 5.1056 67.6549 4.75415 68.0876 4.75415H70.5963C71.029 4.75415 71.3794 5.1056 71.3794 5.53974V7.73631C71.3794 7.87586 71.3794 8.02574 71.3794 8.16529C71.3691 8.84238 72.1572 9.21445 72.6671 8.77C72.966 8.51157 73.3111 8.21698 73.7077 7.89137L77.2673 4.92988C77.4064 4.811 77.5867 4.75415 77.7618 4.75415H80.9712C81.7232 4.75415 82.0478 5.72064 81.4348 6.16512L78.3439 8.44955C77.2519 9.261 76.5255 9.79331 75.9332 10.1964C75.485 10.5014 75.4695 11.1629 75.9177 11.4885C76.5462 11.9382 77.3446 12.5378 78.4058 13.3906L82.0426 16.2486C82.635 16.7035 82.3104 17.6441 81.5635 17.639Z" fill="white"/>
<path d="M65.9088 17.6493H63.6849C63.3066 17.6493 63.0059 17.3029 63.0059 16.8789V5.52455C63.0059 5.09541 63.3112 4.75415 63.6849 4.75415H65.9088C66.287 4.75415 66.5878 5.10057 66.5878 5.52455V16.8789C66.5924 17.3081 66.287 17.6493 65.9088 17.6493Z" fill="white"/>
<path d="M62.2901 15.1054V16.8789C62.2901 17.3081 61.9266 17.6493 61.4818 17.6493H50.9196C50.4694 17.6493 50.1113 17.3029 50.1113 16.8789V5.52455C50.1113 5.09541 50.4748 4.75415 50.9196 4.75415H53.5669C54.0172 4.75415 54.3753 5.10057 54.3753 5.52455V13.5646C54.3753 13.9938 54.7387 14.335 55.1836 14.335H61.4764C61.9266 14.335 62.2901 14.6814 62.2901 15.1054Z" fill="white"/>
<path d="M49.3688 15.095L49.3951 16.8686C49.4004 17.2977 49.047 17.6493 48.6092 17.6493H37.2858C36.8481 17.6493 36.5 17.3029 36.5 16.8789V5.52455C36.5 5.09541 36.8534 4.75415 37.2858 4.75415H48.5671C49.0048 4.75415 49.3529 5.10057 49.3529 5.52972V7.33939C49.3424 7.76336 48.9942 8.10978 48.5618 8.10978H41.4577C41.0199 8.10978 40.6718 8.4562 40.6718 8.88022C40.6718 9.30931 41.0251 9.65058 41.4577 9.65058H48.5724C49.0101 9.65058 49.3582 9.99703 49.3582 10.421V11.8119C49.3582 12.241 49.0048 12.5822 48.5724 12.5822H41.4577C41.0199 12.5822 40.6718 12.9287 40.6718 13.3526V13.5646C40.6718 13.9938 41.0251 14.335 41.4577 14.335H48.5829C49.0101 14.335 49.3635 14.6712 49.3688 15.095Z" fill="white"/>
<path d="M34.9927 17.6493H32.406C31.9624 17.6493 31.6097 17.3029 31.6097 16.8789V13.4458C31.6097 13.0166 31.2516 12.6753 30.8133 12.6753H24.3251C23.8815 12.6753 23.5288 13.0218 23.5288 13.4458V16.8789C23.5288 17.3081 23.1706 17.6493 22.7324 17.6493H20.103C19.6593 17.6493 19.3066 17.3029 19.3066 16.8789V5.52455C19.3066 5.09541 19.6647 4.75415 20.103 4.75415H22.7271C23.1706 4.75415 23.5234 5.10057 23.5234 5.52455V8.54927C23.5234 8.97843 23.8815 9.3197 24.3197 9.3197H30.808C31.2516 9.3197 31.6043 8.97324 31.6043 8.54927V5.52455C31.6043 5.09541 31.9624 4.75415 32.4006 4.75415H34.9874C35.431 4.75415 35.7837 5.10057 35.7837 5.52455V16.8789C35.789 17.3081 35.4363 17.6493 34.9927 17.6493Z" fill="white"/>
<path d="M8.53946 21.9479C8.33345 21.9479 8.16351 21.7753 8.16351 21.566L8.16865 17.5386L6.08287 19.4633C5.94382 19.5941 5.72752 19.5941 5.58331 19.4686C5.43911 19.3379 5.41336 19.1234 5.52666 18.9665L7.40644 16.2101L3.63658 18.1087C3.46148 18.1924 3.25548 18.1349 3.15248 17.9727C3.04947 17.8053 3.09068 17.5909 3.24003 17.4706L7.16954 14.3585L1.11304 15.3156C0.922496 15.3471 0.74224 15.2215 0.69074 15.0332C0.64439 14.8449 0.747391 14.6461 0.932792 14.5834L6.98413 12.4389L1.83921 11.5863C1.64351 11.555 1.50961 11.3771 1.52505 11.1783C1.5405 10.9796 1.70015 10.8279 1.89586 10.8279H10.6664L8.54976 10.4775C8.3798 10.4461 8.25621 10.3101 8.2356 10.1323C8.2253 9.9597 8.32316 9.79751 8.4828 9.73996L12.0261 8.4899L8.62701 9.02338C8.45706 9.0496 8.29225 8.96063 8.2253 8.7985C8.15835 8.64159 8.2047 8.45329 8.3386 8.34868L10.4811 6.65401L8.73001 7.53796C8.5755 7.61642 8.39011 7.57457 8.28195 7.44905C8.1738 7.31828 8.15835 7.12476 8.25621 6.98354L9.0905 5.76484L8.81752 6.0159C8.70941 6.12051 8.54976 6.14667 8.41585 6.07867C8.28195 6.02114 8.18925 5.87991 8.18925 5.72823L8.1944 0.837756C8.1944 0.628538 8.36436 0.455933 8.57036 0.455933C8.77636 0.455933 8.94635 0.628538 8.94635 0.837756L8.94116 4.8652L11.0269 2.9404C11.166 2.80964 11.3823 2.80964 11.5265 2.93517C11.6707 3.0607 11.6964 3.28038 11.5832 3.43729L9.70852 6.19374L13.4784 4.29509C13.6535 4.2114 13.8595 4.26893 13.9625 4.43107C14.0655 4.59322 14.0243 4.8129 13.8801 4.9332L9.94542 8.04532L16.007 7.09337C16.1976 7.06199 16.3779 7.18752 16.4293 7.37582C16.4757 7.56412 16.3728 7.76287 16.1873 7.82564L10.1359 9.96489L15.2809 10.8174C15.4766 10.8488 15.6105 11.0267 15.5951 11.2254C15.5847 11.3771 15.487 11.5026 15.3478 11.5497C15.3015 11.5706 15.25 11.5811 15.1934 11.5811H6.50002L8.56006 11.9263C8.73001 11.9577 8.8536 12.0937 8.87419 12.2715C8.88968 12.4441 8.78666 12.6063 8.62701 12.6638L5.06831 13.9244L8.48795 13.3856C8.65791 13.3595 8.82271 13.4484 8.88968 13.6106C8.95665 13.7675 8.91027 13.9557 8.77636 14.0603L6.63908 15.7497L8.3798 14.8711C8.5343 14.7926 8.71971 14.8345 8.82782 14.9599C8.93597 15.0907 8.95146 15.2842 8.8536 15.4255L8.01415 16.6546L8.29225 16.3983C8.4004 16.2938 8.56006 16.2676 8.69396 16.3356C8.82782 16.3931 8.92057 16.5344 8.92057 16.686L8.91538 21.5765C8.91538 21.7805 8.74546 21.9479 8.53946 21.9479Z" fill="white"/>
</g>
<defs>
<clipPath id="clip0_5022_73459">
<rect width="103.84" height="22" fill="white"/>
</clipPath>
</defs>
</svg>
