<svg width="104" height="22" viewBox="0 0 104 22" fill="none" xmlns="http://www.w3.org/2000/svg">
<g clip-path="url(#clip0_5022_73515)">
<path d="M90.4264 16.4333L91.7173 14.6885C91.8599 14.4902 92.0887 14.3833 92.3272 14.3833H95.1889C95.4432 14.3833 95.7072 14.3833 95.9712 14.3833C96.5864 14.3833 96.9472 13.6915 96.5969 13.1879C96.4491 12.9794 96.3065 12.7708 96.1692 12.5826L94.462 10.1104C94.1672 9.67796 93.5266 9.67286 93.2221 10.1002L88.0169 17.3337C87.8749 17.5321 87.6462 17.6491 87.4022 17.6491H84.5407C83.9207 17.6491 83.5649 16.9471 83.9258 16.4435L91.3416 6.17314C91.8854 5.43555 92.673 4.75391 93.9279 4.75391C95.1836 4.75391 95.9158 5.37959 96.4746 6.17314L103.702 16.4486C104.052 16.9521 103.697 17.644 103.082 17.644H91.0265C90.4158 17.6389 90.0603 16.9318 90.4264 16.4333Z" fill="black"/>
<path d="M81.5635 17.6387H77.9937C77.8082 17.6387 77.628 17.5716 77.4836 17.4527L73.7489 14.2534C73.3265 13.8917 72.9711 13.5867 72.6723 13.3283C72.1624 12.889 71.3794 13.2508 71.3794 13.9329C71.3794 13.9381 71.3794 13.9433 71.3794 13.9485V16.8634C71.3794 17.2976 71.029 17.6491 70.5963 17.6491H68.0876C67.6549 17.6491 67.3047 17.2976 67.3047 16.8634V5.5395C67.3047 5.10536 67.6549 4.75391 68.0876 4.75391H70.5963C71.029 4.75391 71.3794 5.10536 71.3794 5.5395V7.73607C71.3794 7.87562 71.3794 8.0255 71.3794 8.16505C71.3691 8.84214 72.1572 9.2142 72.6671 8.76975C72.966 8.51133 73.3111 8.21673 73.7077 7.89112L77.2673 4.92963C77.4064 4.81075 77.5867 4.75391 77.7618 4.75391H80.9712C81.7232 4.75391 82.0478 5.72039 81.4348 6.16488L78.3439 8.44931C77.2519 9.26076 76.5255 9.79307 75.9332 10.1962C75.485 10.5012 75.4695 11.1627 75.9177 11.4883C76.5462 11.938 77.3446 12.5375 78.4058 13.3903L82.0426 16.2484C82.635 16.7033 82.3104 17.6439 81.5635 17.6387Z" fill="black"/>
<path d="M65.9088 17.6491H63.6849C63.3066 17.6491 63.0059 17.3026 63.0059 16.8787V5.5243C63.0059 5.09516 63.3112 4.75391 63.6849 4.75391H65.9088C66.287 4.75391 66.5878 5.10033 66.5878 5.5243V16.8787C66.5924 17.3078 66.287 17.6491 65.9088 17.6491Z" fill="black"/>
<path d="M62.2901 15.1052V16.8787C62.2901 17.3078 61.9266 17.6491 61.4818 17.6491H50.9196C50.4694 17.6491 50.1113 17.3026 50.1113 16.8787V5.5243C50.1113 5.09516 50.4748 4.75391 50.9196 4.75391H53.5669C54.0172 4.75391 54.3753 5.10033 54.3753 5.5243V13.5644C54.3753 13.9936 54.7387 14.3347 55.1836 14.3347H61.4764C61.9266 14.3347 62.2901 14.6812 62.2901 15.1052Z" fill="black"/>
<path d="M49.3688 15.0948L49.3951 16.8684C49.4004 17.2974 49.047 17.6491 48.6092 17.6491H37.2858C36.8481 17.6491 36.5 17.3026 36.5 16.8787V5.5243C36.5 5.09516 36.8534 4.75391 37.2858 4.75391H48.5671C49.0048 4.75391 49.3529 5.10033 49.3529 5.52948V7.33914C49.3424 7.76312 48.9942 8.10954 48.5618 8.10954H41.4577C41.0199 8.10954 40.6718 8.45596 40.6718 8.87998C40.6718 9.30907 41.0251 9.65033 41.4577 9.65033H48.5724C49.0101 9.65033 49.3582 9.99679 49.3582 10.4208V11.8116C49.3582 12.2408 49.0048 12.582 48.5724 12.582H41.4577C41.0199 12.582 40.6718 12.9284 40.6718 13.3524V13.5644C40.6718 13.9936 41.0251 14.3347 41.4577 14.3347H48.5829C49.0101 14.3347 49.3635 14.6709 49.3688 15.0948Z" fill="black"/>
<path d="M34.9927 17.6491H32.406C31.9624 17.6491 31.6097 17.3026 31.6097 16.8787V13.4455C31.6097 13.0163 31.2516 12.6751 30.8133 12.6751H24.3251C23.8815 12.6751 23.5288 13.0215 23.5288 13.4455V16.8787C23.5288 17.3078 23.1706 17.6491 22.7324 17.6491H20.103C19.6593 17.6491 19.3066 17.3026 19.3066 16.8787V5.5243C19.3066 5.09516 19.6647 4.75391 20.103 4.75391H22.7271C23.1706 4.75391 23.5234 5.10033 23.5234 5.5243V8.54903C23.5234 8.97819 23.8815 9.31945 24.3197 9.31945H30.808C31.2516 9.31945 31.6043 8.973 31.6043 8.54903V5.5243C31.6043 5.09516 31.9624 4.75391 32.4006 4.75391H34.9874C35.431 4.75391 35.7837 5.10033 35.7837 5.5243V16.8787C35.789 17.3078 35.4363 17.6491 34.9927 17.6491Z" fill="black"/>
<path d="M8.53946 21.948C8.33345 21.948 8.16351 21.7754 8.16351 21.5661L8.16865 17.5387L6.08287 19.4635C5.94382 19.5942 5.72752 19.5942 5.58331 19.4687C5.43911 19.338 5.41336 19.1235 5.52666 18.9666L7.40644 16.2102L3.63658 18.1088C3.46148 18.1925 3.25548 18.135 3.15248 17.9728C3.04947 17.8055 3.09068 17.591 3.24003 17.4707L7.16954 14.3586L1.11304 15.3158C0.922496 15.3472 0.74224 15.2216 0.69074 15.0333C0.64439 14.8451 0.747391 14.6463 0.932792 14.5835L6.98413 12.439L1.83921 11.5864C1.64351 11.5551 1.50961 11.3772 1.52505 11.1784C1.5405 10.9797 1.70015 10.828 1.89586 10.828H10.6664L8.54976 10.4776C8.3798 10.4462 8.25621 10.3102 8.2356 10.1324C8.2253 9.95982 8.32316 9.79764 8.4828 9.74008L12.0261 8.49003L8.62701 9.0235C8.45706 9.04972 8.29225 8.96076 8.2253 8.79862C8.15835 8.64171 8.2047 8.45341 8.3386 8.3488L10.4811 6.65414L8.73001 7.53809C8.5755 7.61654 8.39011 7.5747 8.28195 7.44917C8.1738 7.3184 8.15835 7.12488 8.25621 6.98366L9.0905 5.76497L8.81752 6.01602C8.70941 6.12064 8.54976 6.14679 8.41585 6.07879C8.28195 6.02126 8.18925 5.88003 8.18925 5.72835L8.1944 0.837878C8.1944 0.62866 8.36436 0.456055 8.57036 0.456055C8.77636 0.456055 8.94635 0.62866 8.94635 0.837878L8.94116 4.86532L11.0269 2.94052C11.166 2.80976 11.3823 2.80976 11.5265 2.93529C11.6707 3.06082 11.6964 3.2805 11.5832 3.43741L9.70852 6.19386L13.4784 4.29521C13.6535 4.21152 13.8595 4.26905 13.9625 4.43119C14.0655 4.59334 14.0243 4.81302 13.8801 4.93332L9.94542 8.04544L16.007 7.09349C16.1976 7.06211 16.3779 7.18764 16.4293 7.37594C16.4757 7.56424 16.3728 7.763 16.1873 7.82576L10.1359 9.96501L15.2809 10.8176C15.4766 10.849 15.6105 11.0268 15.5951 11.2255C15.5847 11.3772 15.487 11.5027 15.3478 11.5498C15.3015 11.5707 15.25 11.5812 15.1934 11.5812H6.50002L8.56006 11.9264C8.73001 11.9578 8.8536 12.0938 8.87419 12.2717C8.88968 12.4442 8.78666 12.6064 8.62701 12.6639L5.06831 13.9245L8.48795 13.3857C8.65791 13.3596 8.82271 13.4485 8.88968 13.6107C8.95665 13.7676 8.91027 13.9558 8.77636 14.0604L6.63908 15.7499L8.3798 14.8712C8.5343 14.7927 8.71971 14.8346 8.82782 14.9601C8.93597 15.0908 8.95146 15.2843 8.8536 15.4256L8.01415 16.6548L8.29225 16.3984C8.4004 16.2939 8.56006 16.2677 8.69396 16.3357C8.82782 16.3932 8.92057 16.5345 8.92057 16.6861L8.91538 21.5766C8.91538 21.7806 8.74546 21.948 8.53946 21.948Z" fill="black"/>
</g>
<defs>
<clipPath id="clip0_5022_73515">
<rect width="103.84" height="22" fill="white"/>
</clipPath>
</defs>
</svg>
