<svg width="1024" height="1024" viewBox="0 0 1024 1024" fill="none" xmlns="http://www.w3.org/2000/svg">
<path d="M226.64 195.08C235.657 186.405 245.513 178.49 255.403 170.837C324.404 117.441 411.695 85.3693 498.992 82.58C607.487 79.1134 717.162 120.572 796.308 194.939C812.994 188.103 830.336 182.438 847.347 176.456C865.792 169.97 884.173 163.138 902.781 157.148C883.76 186.207 864.446 215.073 844.786 243.704C851.224 251.046 856.987 259.107 862.671 267.036C899.327 318.173 923.13 377.653 934.756 439.326C937.526 454.021 940.322 469.055 940.523 484.051C932.086 479.044 923.812 473.891 915.699 468.371L892.282 454.116C882.96 449.84 873.905 443.023 865.24 437.485C857.264 432.185 848.26 427.934 840.869 421.86L832.278 417.481C831.175 424.107 830.516 434.218 826.987 440.006C825.728 435.156 826.657 429.185 826.523 424.157C826.211 412.399 821.18 400.417 816.336 389.868C825.956 371.77 830.683 351.36 831.781 330.998C819.463 334.673 807.57 339.667 795.152 343.227C790.634 344.168 785.759 344.824 781.385 346.266C755.45 306.982 719.802 266.639 678.147 243.623C677.02 237.265 673.734 230.101 671.625 223.903C669.041 216.052 664.806 208.772 660.57 201.715C645.279 176.235 627.92 158.412 603.981 140.872C594.423 135.7 584.842 130.535 574.749 126.467C538.576 111.89 499.164 110.176 461.766 121.203C444.898 126.176 428.915 134.049 414.412 143.964C388.118 165.755 365.775 189.424 353.671 222.029C351.415 229.509 349.373 237.149 346.683 244.481C306.461 265.931 266.357 304.461 243.819 344.249C238.041 343.107 232.283 341.914 226.536 340.62C221.55 339.331 216.71 337.902 211.961 335.891C207.24 333.891 202.234 330.849 197.23 329.776C195.874 329.484 194.536 329.639 193.331 330.366C191.645 331.383 190.76 333.188 190.39 335.063C188.446 344.924 202.213 384.646 208.329 393.501C208.425 393.64 208.531 393.771 208.633 393.906C201.815 404.253 198.598 417.005 194.942 428.745C193.664 432.848 192.556 437.409 190.486 441.179C188.172 434.576 186.402 427.697 184.234 421.026C175.19 426.599 166.14 432.235 157.312 438.143L131.86 453.59L106.779 469.457C99.1683 475.122 90.6382 479.75 82.4608 484.558C82.2968 471.421 84.9813 457.979 87.3111 445.095C98.2287 384.718 120.197 327.773 154.953 277.023C162.385 266.17 169.869 255.102 179.074 245.657C157.902 216.197 137.917 185.78 117.154 156.017C136.763 162.725 156.221 170.011 175.761 176.932C192.711 182.935 209.892 188.543 226.64 195.08Z" fill="#0B406C"/>
<path d="M832.702 264.796C877.92 320.464 907.912 397.224 915.699 468.371L892.282 454.116C888.736 440.108 886.184 425.889 882.434 411.915C872.55 375.075 856.959 338.203 835.877 306.341C831.029 299.015 826.122 289.928 819.074 284.563C822.38 277.336 827.512 270.763 832.702 264.796Z" fill="#27E7B1"/>
<path d="M191.24 264.733C195.808 270.921 200.367 277.111 204.819 283.383C173.796 325.604 149.4 372.9 137.084 424.045C134.807 433.498 132.143 443.849 131.86 453.59L106.779 469.457C113.56 414.305 131.65 359.055 160.002 311.092C169.514 295.001 180.406 279.944 191.24 264.733Z" fill="#27E7B1"/>
<path d="M230.193 222.032C241.501 210.121 254.293 199.594 267.222 189.5C334.264 137.158 416.962 107.055 502.047 104.814C596.14 102.336 690.233 136.406 763.398 195.011C773.5 203.103 782.832 212.066 792.211 220.968C811.644 214.418 830.54 206.557 849.67 199.197C843.887 206.36 838.634 214.096 833.188 221.526L801.823 264.229C797.679 260.051 794.181 255.042 790.304 250.586C751.618 206.131 696.79 171.923 641.884 151.479C629.653 146.925 617.137 141.774 603.981 140.872C594.423 135.7 584.842 130.535 574.749 126.467C538.576 111.89 499.164 110.176 461.766 121.203C444.898 126.176 428.915 134.049 414.412 143.964C402.693 143.914 391.215 149.673 380.496 153.935C341.798 169.324 308.428 187.389 275.483 213.023C264.845 221.301 254.385 229.954 244.8 239.447C238.943 245.248 233.444 251.401 228.109 257.682C225.676 260.547 223.442 263.892 220.77 266.494C215.083 259.215 210.121 250.918 204.906 243.273C194.993 228.738 184.963 214.373 174.474 200.246L230.193 222.032Z" fill="#27E7B1"/>
<path d="M220.77 266.494C223.442 263.892 225.676 260.547 228.109 257.682C233.444 251.401 238.943 245.248 244.8 239.447C254.385 229.954 264.845 221.301 275.483 213.023C308.428 187.389 341.798 169.324 380.496 153.935C391.215 149.673 402.693 143.914 414.412 143.964C388.118 165.755 365.775 189.424 353.671 222.029C351.415 229.509 349.373 237.149 346.683 244.481C306.461 265.931 266.357 304.461 243.819 344.249C238.041 343.107 232.283 341.914 226.536 340.62C221.55 339.331 216.71 337.902 211.961 335.891C207.24 333.891 202.234 330.849 197.23 329.776C195.874 329.484 194.536 329.639 193.331 330.366C191.645 331.383 190.76 333.188 190.39 335.063C188.446 344.924 202.213 384.646 208.329 393.501C208.425 393.64 208.531 393.771 208.633 393.906C201.815 404.253 198.598 417.005 194.942 428.745C193.664 432.848 192.556 437.409 190.486 441.179C188.172 434.576 186.402 427.697 184.234 421.026C175.19 426.599 166.14 432.235 157.312 438.143L131.86 453.59C132.143 443.849 134.807 433.498 137.084 424.045C149.4 372.9 173.796 325.604 204.819 283.383C208.884 288.22 212.199 293.755 215.627 299.051C224.16 297.502 232.999 296.639 241.638 295.845C234.45 286.502 226.844 276.583 220.77 266.494Z" fill="#10B58E"/>
<path d="M226.536 340.62C258.087 290.775 300.226 248.056 353.671 222.029C351.415 229.509 349.373 237.149 346.683 244.481C306.461 265.931 266.357 304.461 243.819 344.249C238.041 343.107 232.283 341.914 226.536 340.62Z" fill="#FEFEFE"/>
<path d="M603.981 140.872C617.137 141.774 629.653 146.925 641.884 151.479C696.79 171.923 751.618 206.131 790.304 250.586C794.181 255.042 797.679 260.051 801.823 264.229C800.946 265.473 800.226 265.976 800.353 267.525C804.158 273.051 812.084 282.015 817.941 285.248L818.838 284.997L819.074 284.563C826.122 289.928 831.029 299.015 835.877 306.341C856.959 338.203 872.55 375.075 882.434 411.915C886.184 425.889 888.736 440.108 892.282 454.116C882.96 449.84 873.905 443.023 865.24 437.485C857.264 432.185 848.26 427.934 840.869 421.86L832.278 417.481C831.175 424.107 830.516 434.218 826.987 440.006C825.728 435.156 826.657 429.185 826.523 424.157C826.211 412.399 821.18 400.417 816.336 389.868C825.956 371.77 830.683 351.36 831.781 330.998C819.463 334.673 807.57 339.667 795.152 343.227C790.634 344.168 785.759 344.824 781.385 346.266C755.45 306.982 719.802 266.639 678.147 243.623C677.02 237.265 673.734 230.101 671.625 223.903C669.041 216.052 664.806 208.772 660.57 201.715C645.279 176.235 627.92 158.412 603.981 140.872Z" fill="#10B58E"/>
<path d="M832.278 417.481L833.739 406.249C836.601 411.285 838.859 416.433 840.869 421.86L832.278 417.481Z" fill="#FEFEFE"/>
<path d="M671.625 223.903C679.802 225.148 689.113 232.634 695.814 237.355C725.827 258.498 753.746 282.311 775.607 312.063C780.164 318.264 794.195 336.417 795.152 343.227C790.634 344.168 785.759 344.824 781.385 346.266C755.45 306.982 719.802 266.639 678.147 243.623C677.02 237.265 673.734 230.101 671.625 223.903Z" fill="#FEFEFE"/>
<path d="M82.0532 494.636C89.7997 499.019 97.5735 503.355 105.05 508.191C112.772 512.099 120.866 515.858 127.938 520.885C139.563 527.241 151.048 533.82 162.597 540.31C167.719 543.189 174.265 545.972 178.703 549.723C184.153 552.227 189.248 554.538 194.024 558.223C194.235 558.385 194.453 558.539 194.668 558.698C198.879 576.735 201.743 593.534 207.564 611.375C230.151 680.605 276.212 741.964 338.301 780.477C349.28 787.287 360.724 794.136 373.082 798.065L373.512 798.43C377.184 801.591 379.384 805.321 384.24 806.76L384.768 802.539L385.65 799.047C385.64 788.942 385.975 779.096 386.868 769.031C400.422 790.54 413.661 806.485 433.821 822.122C437.848 825.246 442.18 828.875 446.565 831.441C446.461 838.318 446.192 845.651 451.359 850.972C451.424 851.038 451.51 851.082 451.585 851.137C460.606 865.616 471.219 878.867 480.564 893.071C486.183 900.65 491.418 908.599 496.435 916.588C501.486 923.174 506.387 930.021 511.892 936.232C516.774 929.776 521.221 922.904 526.316 916.633C531.373 908.99 536.533 901.459 541.888 894.022C544.104 889.992 547.042 886.145 549.589 882.291C557.424 870.439 566.098 858.594 572.901 846.126C574.084 844.885 574.974 842.86 575.859 841.366L575.989 831.547C581.695 827.558 587.6 823.925 593.544 820.308C600.608 819.377 607.482 816.83 614.176 814.461C640.761 805.056 666.305 792.197 689.94 776.845C745.822 740.546 788.898 685.156 810.715 622.211C817.682 602.112 822.048 581.259 826.473 560.488C831.986 556.459 838.047 553.608 844.139 550.578C861.764 541.349 878.875 530.667 896.218 520.88C903.418 516.699 910.69 512.65 917.96 508.594C925.508 503.898 933.292 499.769 940.923 495.24C942.209 590.365 918.506 673.35 866.463 753.044C859.844 763.181 852.474 772.892 845.339 782.674C849.604 787.724 853.361 793.295 857.265 798.63L878.852 828.302C888.466 841.56 899.171 854.497 907.773 868.411C871.279 855.382 833.917 845.045 797.475 831.864C784.778 841.691 773.03 852.548 759.838 861.778C692.291 909.033 614.606 935.12 532.306 939.238C442.428 943.736 352.691 918.165 276.957 870.081C258.733 858.511 241.288 846.085 225.254 831.591C189.096 845.073 152.358 857.041 116.108 870.312C126.475 853.653 138.439 837.983 149.951 822.11C159.825 808.496 169.342 794.609 179.073 780.89C122.287 711.994 88.7349 627.221 83.0186 538.156C82.0994 523.835 81.25 508.947 82.0532 494.636Z" fill="#0B406C"/>
<path d="M105.05 508.191C112.772 512.099 120.866 515.858 127.938 520.885C128.371 591.482 151.607 665.096 191.473 723.288C196.341 730.393 201.382 739.54 207.21 745.652C202.152 751.352 197.293 757.13 192.496 763.053C180.664 746.444 168.746 729.902 158.566 712.2C122.831 650.059 105.232 579.665 105.05 508.191Z" fill="#27E7B1"/>
<path d="M917.96 508.594C918.637 569.463 904.961 628.547 879.436 683.738C874.958 693.422 869.79 702.804 864.88 712.274C857.345 726.807 841.703 754.287 830.75 765.498C826.322 758.997 821.816 752.538 817.475 745.981C826.28 734.965 833.161 722.788 840.125 710.568C865.17 666.616 881.039 624.654 889.826 574.613C891.492 565.126 893.037 555.387 893.92 545.796C894.657 537.798 894.85 529.645 896.085 521.712L896.218 520.88C903.418 516.699 910.69 512.65 917.96 508.594Z" fill="#27E7B1"/>
<path d="M215.304 757.23L215.813 757.682C221.513 762.797 226.445 769.044 231.673 774.654C240.524 784.15 249.982 793.502 259.878 801.915C309.756 844.317 366.087 871.258 429.854 885.55C446.113 889.194 463.853 892.866 480.564 893.071C486.183 900.65 491.418 908.599 496.435 916.588C488.808 916.465 481.055 915.535 473.439 914.924C399.275 908.978 328.233 880.719 268.229 837.009C257.199 828.975 246.811 820.185 236.453 811.315C219.604 812.647 202.786 815.136 185.907 816.556C189.164 808.664 193.603 801.186 197.544 793.609C203.782 781.613 209.795 769.585 215.304 757.23Z" fill="#27E7B1"/>
<path d="M805.288 761.726L833.482 802.872C838.608 810.272 844.129 817.418 848.816 825.111C829.253 819.231 809.738 813.067 789.938 808.027C718.996 876.566 625.11 915.632 526.316 916.633C531.373 908.99 536.533 901.459 541.888 894.022C557.741 894.218 574.296 890.466 589.702 887.086C600.218 884.779 610.789 882.552 621.132 879.545C671.329 864.95 718.513 839.356 758.983 806.406C767.79 799.236 776.35 791.387 784.254 783.235C791.245 776.023 797.656 768.304 805.288 761.726Z" fill="#27E7B1"/>
<path d="M896.218 520.88L896.085 521.712C894.85 529.645 894.657 537.798 893.92 545.796C893.037 555.387 891.492 565.126 889.826 574.613C881.039 624.654 865.17 666.616 840.125 710.568C833.161 722.788 826.28 734.965 817.475 745.981L813.531 739.91C809.332 744.206 804.823 748.234 800.752 752.645C802.081 755.824 803.544 758.754 805.288 761.726C797.656 768.304 791.245 776.023 784.254 783.235C776.35 791.387 767.79 799.236 758.983 806.406C718.513 839.356 671.329 864.95 621.132 879.545C610.789 882.552 600.218 884.779 589.702 887.086C574.296 890.466 557.741 894.218 541.888 894.022C544.104 889.992 547.042 886.145 549.589 882.291C557.424 870.439 566.098 858.594 572.901 846.126C574.084 844.885 574.974 842.86 575.859 841.366L575.989 831.547C581.695 827.558 587.6 823.925 593.544 820.308C600.608 819.377 607.482 816.83 614.176 814.461C640.761 805.056 666.305 792.197 689.94 776.845C745.822 740.546 788.898 685.156 810.715 622.211C817.682 602.112 822.048 581.259 826.473 560.488C831.986 556.459 838.047 553.608 844.139 550.578C861.764 541.349 878.875 530.667 896.218 520.88Z" fill="#10B58E"/>
<path d="M844.139 550.578C830.24 644.286 789.775 723.532 712.659 780.64C672.664 810.258 623.961 829.668 575.859 841.366L575.989 831.547C581.695 827.558 587.6 823.925 593.544 820.308C600.608 819.377 607.482 816.83 614.176 814.461C640.761 805.056 666.305 792.197 689.94 776.845C745.822 740.546 788.898 685.156 810.715 622.211C817.682 602.112 822.048 581.259 826.473 560.488C831.986 556.459 838.047 553.608 844.139 550.578Z" fill="#FEFEFE"/>
<path d="M127.938 520.885C139.563 527.241 151.048 533.82 162.597 540.31C167.719 543.189 174.265 545.972 178.703 549.723C184.153 552.227 189.248 554.538 194.024 558.223C194.235 558.385 194.453 558.539 194.668 558.698C198.879 576.735 201.743 593.534 207.564 611.375C230.151 680.605 276.212 741.964 338.301 780.477C349.28 787.287 360.724 794.136 373.082 798.065L373.512 798.43C377.184 801.591 379.384 805.321 384.24 806.76L384.768 802.539L385.65 799.047C385.64 788.942 385.975 779.096 386.868 769.031C400.422 790.54 413.661 806.485 433.821 822.122C437.848 825.246 442.18 828.875 446.565 831.441C446.461 838.318 446.192 845.651 451.359 850.972C451.424 851.038 451.51 851.082 451.585 851.137C460.606 865.616 471.219 878.867 480.564 893.071C463.853 892.866 446.113 889.194 429.854 885.55C366.087 871.258 309.756 844.317 259.878 801.915C249.982 793.502 240.524 784.15 231.673 774.654C226.445 769.044 221.513 762.797 215.813 757.682L215.304 757.23C216.544 752.45 219.273 747.286 221.125 742.62C224.047 735.261 226.64 727.8 229.198 720.308C222.004 728.873 214.591 737.249 207.21 745.652C201.382 739.54 196.341 730.393 191.473 723.288C151.607 665.096 128.371 591.482 127.938 520.885Z" fill="#10B58E"/>
<path d="M385.992 788.706C395.127 792.546 399.335 799.462 405.239 806.895C398.337 805.731 391.565 804.198 384.768 802.539L385.65 799.047C386.1 795.607 386.013 792.167 385.992 788.706Z" fill="#FEFEFE"/>
<path d="M178.703 549.723C184.153 552.227 189.248 554.538 194.024 558.223C194.235 558.385 194.453 558.539 194.668 558.698C198.879 576.735 201.743 593.534 207.564 611.375C230.151 680.605 276.212 741.964 338.301 780.477C349.28 787.287 360.724 794.136 373.082 798.065L373.512 798.43C377.184 801.591 379.384 805.321 384.24 806.76C390.863 806.065 399.568 810.236 405.99 812.016C410.196 813.182 414.431 814.092 418.707 814.95C418.568 821.234 418.253 827.498 417.91 833.773C402.139 827.587 386.072 822.071 370.563 815.231C355.183 808.447 340.525 800.218 326.445 791.06C256.882 745.81 208.479 675.109 187.036 595.449C182.971 580.349 181.936 564.937 178.703 549.723Z" fill="#FEFEFE"/>
<path d="M414.412 143.964C428.915 134.049 444.898 126.176 461.766 121.203C499.164 110.176 538.576 111.89 574.749 126.467C584.842 130.535 594.423 135.7 603.981 140.872C627.92 158.412 645.279 176.235 660.57 201.715C664.806 208.772 669.041 216.052 671.625 223.903C673.734 230.101 677.02 237.265 678.147 243.623C719.802 266.639 755.45 306.982 781.385 346.266C785.759 344.824 790.634 344.168 795.152 343.227C807.57 339.667 819.463 334.673 831.781 330.998C830.683 351.36 825.956 371.77 816.336 389.868C821.18 400.417 826.211 412.399 826.523 424.157C826.657 429.185 825.728 435.156 826.987 440.006C830.516 434.218 831.175 424.107 832.278 417.481L840.869 421.86C848.26 427.934 857.264 432.185 865.24 437.485C873.905 443.023 882.96 449.84 892.282 454.116L915.699 468.371C923.812 473.891 932.086 479.044 940.523 484.051C943.376 486.153 946.427 487.938 949.458 489.768C946.664 491.54 943.521 493.215 940.923 495.24C933.292 499.769 925.508 503.898 917.96 508.594C910.69 512.65 903.418 516.699 896.218 520.88C878.875 530.667 861.764 541.349 844.139 550.578C838.047 553.608 831.986 556.459 826.473 560.488C822.048 581.259 817.682 602.112 810.715 622.211C788.898 685.156 745.822 740.546 689.94 776.845C666.305 792.197 640.761 805.056 614.176 814.461C607.482 816.83 600.608 819.377 593.544 820.308C587.6 823.925 581.695 827.558 575.989 831.547L575.859 841.366C574.974 842.86 574.084 844.885 572.901 846.126C566.098 858.594 557.424 870.439 549.589 882.291C547.042 886.145 544.104 889.992 541.888 894.022C536.533 901.459 531.373 908.99 526.316 916.633C521.221 922.904 516.774 929.776 511.892 936.232C506.387 930.021 501.486 923.174 496.435 916.588C491.418 908.599 486.183 900.65 480.564 893.071C471.219 878.867 460.606 865.616 451.585 851.137C451.51 851.082 451.424 851.038 451.359 850.972C446.192 845.651 446.461 838.318 446.565 831.441C442.18 828.875 437.848 825.246 433.821 822.122C413.661 806.485 400.422 790.54 386.868 769.031C385.975 779.096 385.64 788.942 385.65 799.047L384.768 802.539L384.24 806.76C379.384 805.321 377.184 801.591 373.512 798.43L373.082 798.065C360.724 794.136 349.28 787.287 338.301 780.477C276.212 741.964 230.151 680.605 207.564 611.375C201.743 593.534 198.879 576.735 194.668 558.698C194.453 558.539 194.235 558.385 194.024 558.223C189.248 554.538 184.153 552.227 178.703 549.723C174.265 545.972 167.719 543.189 162.597 540.31C151.048 533.82 139.563 527.241 127.938 520.885C120.866 515.858 112.772 512.099 105.05 508.191C97.5733 503.355 89.7995 499.019 82.053 494.636C79.6287 492.656 76.8258 491.189 74.1235 489.629L82.4606 484.558C90.638 479.75 99.1681 475.122 106.779 469.457L131.86 453.59L157.312 438.143C166.14 432.235 175.19 426.599 184.234 421.026C186.402 427.697 188.172 434.576 190.486 441.179C192.556 437.409 193.664 432.848 194.942 428.745C198.598 417.005 201.815 404.253 208.633 393.906C208.531 393.771 208.425 393.64 208.329 393.501C202.213 384.646 188.446 344.924 190.39 335.063C190.76 333.188 191.645 331.383 193.331 330.366C194.536 329.639 195.874 329.484 197.23 329.776C202.234 330.849 207.24 333.891 211.961 335.891C216.71 337.902 221.55 339.331 226.536 340.62C232.283 341.914 238.041 343.107 243.819 344.249C266.357 304.461 306.461 265.931 346.683 244.481C349.373 237.149 351.415 229.509 353.671 222.029C365.775 189.424 388.118 165.755 414.412 143.964Z" fill="#000002"/>
<path d="M327.765 430.371L328.591 430.454C330.371 433.825 328.286 449.539 327.89 454.141C323.493 452.14 319.178 449.888 314.838 447.76L304.979 442.304C312.359 437.932 320.07 434.148 327.765 430.371Z" fill="#022B57"/>
<path d="M353.972 646.09C359.416 643.316 361.282 637.165 366.133 633.896L366.663 634.743C361.462 659.69 355.84 683.556 355.951 709.233C355.97 713.828 355.754 718.692 356.431 723.24C356.648 729.146 359.569 747.739 358.749 751.623C345.025 717.633 344.9 681.215 353.972 646.09Z" fill="#FDC704"/>
<path d="M367.176 592.47C369.269 594.544 371.218 596.803 373.207 598.98C374.936 598.602 376.651 598.156 378.369 597.726C376.616 606.074 371.603 611.326 368.089 618.693C368.014 623.866 366.471 629.381 366.775 634.393L366.663 634.743L366.133 633.896C361.282 637.165 359.416 643.316 353.972 646.09C354.202 644.796 354.393 643.892 354.112 642.585C352.656 641.949 351.135 642.644 349.607 643C343.036 644.591 336.411 646.193 329.655 646.718C348.867 627.615 356.045 616.739 367.176 592.47Z" fill="#FDC704"/>
<path d="M368.089 618.693C368.014 623.866 366.471 629.381 366.775 634.393L366.663 634.743L366.133 633.896C361.282 637.165 359.416 643.316 353.972 646.09C354.202 644.796 354.393 643.892 354.112 642.585C352.656 641.949 351.135 642.644 349.607 643C351.252 639.722 365.231 621.725 368.089 618.693Z" fill="#D29B06"/>
<path d="M645.465 597.633C649.246 595.354 653.007 593.053 656.915 590.993C666.234 613.929 676.26 630.021 694.347 647.099C681.7 643.596 669.974 637.414 659.941 628.968C668.685 661.741 681.233 671.841 676.71 710.168C675.798 717.897 674.513 727.18 671.826 734.518C671.201 733.558 671.127 732.678 671.061 731.561C670.363 719.79 671.059 708.345 669.211 696.56C663.925 662.848 653.287 630.707 645.465 597.633Z" fill="#FDC704"/>
<path d="M353.118 418.109L353.059 418.726C352.269 426.406 350.385 433.947 349.692 441.642C347.372 467.417 351.878 492.116 358.15 517.016C357.191 518.589 356.251 520.178 355.255 521.728C349.904 527.877 344.553 534.111 338.859 539.946C352.895 553.943 366.618 568.224 381.568 581.234L372.429 585.712C357.168 570.273 341.272 555.579 326.478 539.667C333.893 531.573 341.166 522.913 349.978 516.306C339.663 487.312 337.306 452.77 342.535 422.386C346.121 421.136 349.615 419.576 353.118 418.109Z" fill="#FEFEFE"/>
<path d="M218.152 385.098C218.265 385.203 218.38 385.306 218.491 385.413C222.176 388.96 224.776 393.813 227.991 397.806C233.379 404.496 248.15 420.165 257.346 420.484C257.522 420.49 257.698 420.472 257.873 420.466L258.229 420.76C260.749 424.25 264.219 427.228 267.419 430.099C285.722 446.525 307.405 456.66 329.422 467.047C329.436 473.42 329.841 479.811 330.127 486.178C319.799 481.963 309.455 477.406 299.624 472.123C270.62 456.534 248.006 434.952 230.068 407.492C225.508 400.512 220.56 393.131 218.152 385.098Z" fill="#A1660F"/>
<path d="M426.671 673.099C439.341 670.219 451.526 665.653 464.24 662.949C501.31 655.066 536.983 656.197 573.449 666.253C581.918 668.588 590.445 671.007 598.606 674.283C599.116 679.081 599.524 683.916 600.212 688.691C537.234 662.663 493.392 662.948 430.126 686.392C428.688 682.089 427.785 677.502 426.671 673.099Z" fill="#FDC704"/>
<path d="M789.048 378.767C793.211 374.292 795.403 369.088 800.856 365.821C804.839 366.978 808.211 368.975 811.723 371.121C788.236 424.174 751.28 463.36 696.605 484.599C695.027 485.212 693.441 485.803 691.851 486.384C692.585 480.117 693.445 473.673 693.608 467.367C733.264 447.791 760.437 429.061 782.906 389.615C785.642 386.611 788.43 382.856 789.048 378.767Z" fill="#D29B06"/>
<path d="M678.147 243.623C719.802 266.639 755.45 306.982 781.385 346.266C760.805 348.066 740.839 345.43 722.808 334.85C704.801 324.284 690.205 308.247 685.601 287.473C684.281 281.519 684.264 275.2 683.471 269.149C682.333 260.464 680.317 252.093 678.147 243.623Z" fill="#087E8C"/>
<path d="M346.683 244.481C340.132 270.742 344.285 292.447 325.021 314.661C319.008 321.594 312.172 327.508 304.297 332.233C285.832 343.312 264.998 346.08 243.819 344.249C266.357 304.461 306.461 265.931 346.683 244.481Z" fill="#087E8C"/>
<path d="M575.989 831.547L575.859 841.366C574.974 842.86 574.084 844.885 572.901 846.126C566.098 858.594 557.424 870.439 549.589 882.291C547.042 886.145 544.104 889.992 541.888 894.022C536.533 901.459 531.373 908.99 526.316 916.633C521.221 922.904 516.774 929.776 511.892 936.232C506.387 930.021 501.486 923.174 496.435 916.588C491.418 908.599 486.183 900.65 480.564 893.071C471.219 878.867 460.606 865.616 451.585 851.137C451.51 851.082 451.424 851.038 451.359 850.972C446.192 845.651 446.461 838.318 446.565 831.441C452.813 834.971 458.823 839.125 464.907 842.945C479.817 852.304 495.565 862.163 511.581 869.468C518.616 866.521 525.353 862.087 531.943 858.26C541.414 852.76 551.005 847.343 560.269 841.497C565.463 838.218 570.495 834.302 575.989 831.547Z" fill="#FDC704"/>
<path d="M575.989 831.547L575.859 841.366C574.974 842.86 574.084 844.885 572.901 846.126C572.427 846.244 571.905 846.241 571.478 846.481C568.829 847.967 562.285 854.979 559.485 857.419C545.893 869.266 528.337 884.765 512.15 892.749C496.629 884.757 478.112 871.493 463.936 860.994C460.81 858.679 455.192 851.286 451.585 851.137C451.51 851.082 451.424 851.038 451.359 850.972C446.192 845.651 446.461 838.318 446.565 831.441C452.813 834.971 458.823 839.125 464.907 842.945C479.817 852.304 495.565 862.163 511.581 869.468C518.616 866.521 525.353 862.087 531.943 858.26C541.414 852.76 551.005 847.343 560.269 841.497C565.463 838.218 570.495 834.302 575.989 831.547Z" fill="#D29B06"/>
<path d="M336.232 371.093C350.54 367.688 364.097 362.792 378.1 358.406C394.4 353.301 411.08 348.71 427.796 345.173C454.458 339.533 482.345 335.692 509.635 335.411C566.801 334.823 650.019 350.457 699.141 380.799C719.272 393.235 728.494 402.48 754.408 400.556C761.11 400.058 767.92 397.858 774.586 397.896C763.236 410.92 747.002 419.261 733.148 429.284C623.923 368.721 499.393 356.914 379.731 391.202C358.855 397.184 338.239 404.951 318.757 414.577C307.566 420.107 296.818 426.482 285.655 432.037C277.61 428.486 266.576 422.524 258.229 420.76L257.873 420.466C247.353 408.066 239.557 394.329 233.974 379.07C248.993 383.269 263.733 385.581 279.368 384.185C311.954 381.276 343.186 366.268 364.299 341.057C365.449 344.141 364.443 348.644 363.043 351.549C358.442 361.096 344.864 365.599 336.232 371.093Z" fill="#022B57"/>
<path d="M353.118 418.109C374.881 409.06 397.289 402.232 420.241 396.931C506.424 377.023 590.028 386.033 671.721 418.616C671.859 426.139 673.823 433.177 674.565 440.597C676.609 461.031 674.227 483.137 667.347 502.521C664.447 479.018 668.05 454.981 646.89 438.627C633.984 428.651 618.034 423.528 602.676 418.675C581.562 430.633 560.908 444.044 540.553 457.244C539.614 455.004 538.603 452.777 537.885 450.456C554.094 438.902 570.466 427.722 586.053 415.317C536.345 405.505 485.965 404.902 436.315 415.399C452.047 427.769 470.463 437.094 485.238 450.624C484.817 453.039 484.461 455.487 483.96 457.886C464.322 445.18 443.769 432.719 425.094 418.65C403.643 425.01 380.942 431.661 369.466 452.697C363.922 462.858 362.088 472.982 361.156 484.388C360.893 487.609 360.339 491.486 361.307 494.624C361.549 495.41 361.73 495.729 362.429 496.172C362.685 496.334 363.117 496.472 363.41 496.576C366.284 499.043 368.807 502.001 371.387 504.774L371.526 505.978C368.965 510.774 369.057 515.834 370.649 520.949C374.757 534.142 385.04 545.062 397.219 551.259C420.253 562.979 448.851 559.894 472.564 552.051C481.307 549.16 489.928 544.912 498.781 542.537C503.314 535.722 507.537 528.705 511.937 521.804C516.213 528.883 520.312 536.769 525.618 543.1C566.046 557.899 600.194 566.603 641.845 547.404C652.638 542.429 662.143 535.611 671.382 528.214C676.292 531.637 680.724 535.378 685.359 539.149C675.57 551.555 664.31 563.036 651.126 571.856C646.507 574.946 641.492 577.342 636.831 580.352C630.935 578.733 625.216 576.415 619.292 574.809C610.536 572.433 601.474 571.074 592.545 569.494C592.15 599.053 592.488 628.662 592.472 658.227L567.987 651.709C568.035 643.304 570.522 620.533 565.839 614.311C564.621 613.78 564.653 613.842 563.377 614.253L564.027 614.589L563.106 614.45C562.948 614.602 562.781 614.746 562.632 614.906C558.554 619.294 560.269 643.642 560.476 650.27C551.557 648.756 542.571 646.984 533.54 646.33C533.504 638.304 535.081 625.151 533.381 617.653C533.021 616.063 531.797 614.314 530.364 613.531C529.639 613.135 529.432 613.398 528.711 613.62C524.48 618.814 526.015 638.272 526.09 645.546C516.525 644.651 506.849 644.866 497.277 645.52C497.517 638.218 499.092 622.599 497.346 616.265C497.026 615.106 496.426 614.251 495.298 613.736C494.034 613.159 493.452 613.527 492.325 614.057C488.034 619.433 490.024 638.387 490.215 645.823C480.876 646.666 472.027 648.462 462.884 650.482C462.8 640.267 463.848 629.895 463.149 619.704C463.008 617.648 462.958 615.102 460.978 613.9C459.884 613.235 459.294 613.552 458.251 613.972C453.463 619.653 455.347 644.385 455.824 652.117C447.987 653.632 440.25 655.825 432.553 657.928C430.359 628.194 432.969 598.033 431.734 568.235C429.825 568.383 428.002 568.71 426.124 569.076C417.101 570.897 407.882 572.438 399.039 575.004C393.059 576.74 387.387 579.061 381.568 581.234C366.618 568.224 352.895 553.943 338.859 539.946C344.553 534.111 349.904 527.877 355.255 521.728C356.251 520.178 357.191 518.589 358.15 517.016C351.878 492.116 347.372 467.417 349.692 441.642C350.385 433.947 352.269 426.406 353.059 418.726L353.118 418.109Z" fill="url(#paint0_linear_1_14429)"/>
<path d="M355.255 521.728C360.539 537.507 372.133 548.866 386.793 556.206C394.234 559.932 402.419 562.832 410.453 565.05C414.297 566.112 423.059 567.365 426.124 569.076C417.101 570.897 407.882 572.438 399.039 575.004C393.059 576.74 387.387 579.061 381.568 581.234C366.618 568.224 352.895 553.943 338.859 539.946C344.553 534.111 349.904 527.877 355.255 521.728Z" fill="#67D1DD"/>
<path d="M498.781 542.537C503.314 535.722 507.537 528.705 511.937 521.804C516.213 528.883 520.312 536.769 525.618 543.1C530.127 552.03 535.999 560.346 540.791 569.159C538.643 575.888 537.008 582.872 535.155 589.693C527.12 586.68 519.387 582.64 511.743 578.764C504.042 582.628 496.335 586.469 488.565 590.192L483.408 568.749C488.778 560.145 493.961 551.463 498.781 542.537Z" fill="#022B57"/>
<path d="M203.387 345.25C232.076 355.957 262.765 361.481 292.491 351.103C304.967 346.747 316.377 339.524 326.065 330.571C339.881 317.803 349.565 302.392 352.48 283.633C353.752 275.45 354.159 267.144 355.644 258.987C358.533 243.112 363.78 227.627 370.866 213.129C388.312 177.435 421.791 147.567 459.457 134.838C498.468 121.656 543.778 124.073 580.799 142.466C624.056 163.958 657.239 206.078 668.496 253.041C672.189 268.445 671.959 284.639 677.115 299.708C684.428 321.076 702.456 338.702 722.6 348.344C754.272 363.505 786.529 359.657 818.471 348.262C816.568 356.027 814.557 363.628 811.723 371.121C808.211 368.975 804.839 366.978 800.856 365.821C795.403 369.088 793.211 374.292 789.048 378.767C783.459 381.086 777.692 382.808 771.721 383.81C752.573 387.022 733.255 383.649 715.042 377.53C684.676 367.326 669.381 353.733 654.168 325.822C649.477 317.215 645.083 308.462 641.91 299.164C636.92 284.542 633.436 269.459 627.434 255.181C616.738 229.734 599.089 206.264 576.548 190.188C553.044 173.425 524.66 163.57 495.687 168.471C475.36 171.91 456.188 181.14 440.194 194.045C414.862 214.483 398.111 243.721 391.099 275.336C388.336 287.788 386.977 300.495 382.123 312.403C377.89 322.789 370.742 331.955 364.299 341.057C343.186 366.268 311.954 381.276 279.368 384.185C263.733 385.581 248.993 383.269 233.974 379.07C239.557 394.329 247.353 408.066 257.873 420.466C257.698 420.472 257.522 420.49 257.346 420.484C248.15 420.165 233.379 404.496 227.991 397.806C224.776 393.813 222.176 388.96 218.491 385.413C218.38 385.306 218.265 385.203 218.152 385.098C211.587 372.516 207.594 358.743 203.387 345.25Z" fill="#FDC704"/>
<path d="M436.315 415.399C485.965 404.902 536.345 405.505 586.053 415.317C570.466 427.722 554.094 438.902 537.885 450.456C538.603 452.777 539.614 455.004 540.553 457.244C560.908 444.044 581.562 430.633 602.676 418.675C618.034 423.528 633.984 428.651 646.89 438.627C668.05 454.981 664.447 479.018 667.347 502.521C674.227 483.137 676.609 461.031 674.565 440.597C673.823 433.177 671.859 426.139 671.721 418.616C674.619 419.804 677.534 420.95 680.351 422.323C684.582 454.681 685.674 485.209 672.828 516.057C679.322 521.245 691.773 529.317 692.77 538.405C693.341 543.61 689.979 548.443 686.755 552.204C675.385 565.466 661.158 575.769 646.285 584.725L636.831 580.352C641.492 577.342 646.507 574.946 651.126 571.856C664.31 563.036 675.57 551.555 685.359 539.149C680.724 535.378 676.292 531.637 671.382 528.214C662.143 535.611 652.638 542.429 641.845 547.404C600.194 566.603 566.046 557.899 525.618 543.1C520.312 536.769 516.213 528.883 511.937 521.804C507.537 528.705 503.314 535.722 498.781 542.537C489.928 544.912 481.307 549.16 472.564 552.051C448.851 559.894 420.253 562.979 397.219 551.259C385.04 545.062 374.757 534.142 370.649 520.949C369.057 515.834 368.965 510.774 371.526 505.978L371.387 504.774C368.807 502.001 366.284 499.043 363.41 496.576C363.117 496.472 362.685 496.334 362.429 496.172C361.73 495.729 361.549 495.41 361.307 494.624C360.339 491.486 360.893 487.609 361.156 484.388C362.088 472.982 363.922 462.858 369.466 452.697C380.942 431.661 403.643 425.01 425.094 418.65C443.769 432.719 464.322 445.18 483.96 457.886C484.461 455.487 484.817 453.039 485.238 450.624C470.463 437.094 452.047 427.769 436.315 415.399Z" fill="#FEFEFE"/>
<path d="M532.314 470.653C559.459 468.878 586.56 460.737 611.184 449.35C620.24 445.162 629.152 439.711 638.414 436.107C651.586 451.718 659.946 470.396 658.287 491.181C658.208 492.164 658.055 493.107 657.867 494.074C655.31 490.21 655.299 481.406 653.753 476.584C650.097 465.178 644.326 453.786 638.66 443.269C632.066 451.135 625.753 456.903 616.556 461.584C593.269 471.303 568.987 480.05 543.833 483.422C539.46 484.116 535.126 484.862 530.712 484.068C523.47 475.078 520.232 470.041 521.541 458.061C522.035 453.54 522.647 449.011 523.306 444.51C524.617 454.741 524.446 462.839 532.314 470.653Z" fill="#000002"/>
<path d="M392.78 440.51C400.456 444.004 407.897 447.976 415.658 451.287C439.208 461.332 465.422 468.788 491.03 470.667C499.167 461.215 498.957 454.466 499.364 442.81C500.398 448.217 501.327 453.657 501.93 459.131C503.207 470.722 499.026 476.691 492.167 485.243C485.21 483.775 478.095 483.152 471.091 481.933C459.708 479.953 448.472 477.005 437.46 473.525C429.798 471.103 422.134 468.398 414.757 465.204C408.941 462.686 403.153 459.66 397.222 457.471C389.532 466.762 382.467 476.997 377.868 488.206C375.693 493.509 374.432 499.929 371.387 504.774C368.807 502.001 366.284 499.043 363.41 496.576C368.19 474.375 376.674 456.667 392.78 440.51Z" fill="#000002"/>
<path d="M397.222 457.471C403.153 459.66 408.941 462.686 414.757 465.204C422.134 468.398 429.798 471.103 437.46 473.525C448.472 477.005 459.708 479.953 471.091 481.933C478.095 483.152 485.21 483.775 492.167 485.243C489.57 504.917 485.028 523.611 468.473 536.32C454.963 546.691 436.67 551.2 419.838 548.958C404.489 546.914 390.631 539.526 381.272 527.032C376.49 520.648 373.838 513.537 371.526 505.978L371.387 504.774C374.432 499.929 375.693 493.509 377.868 488.206C382.467 476.997 389.532 466.762 397.222 457.471Z" fill="#44A52A"/>
<path d="M430.566 477.547C433.903 477.036 437.279 477.348 440.475 478.42C445.219 480.012 449.158 483.276 451.374 487.79C453.547 492.217 453.774 497.353 452.133 501.99C449.78 508.633 444.962 511.977 438.847 514.777C435.334 515.204 431.9 515.235 428.508 514.106C423.878 512.565 420.103 509.202 417.952 504.831C415.667 500.188 415.264 494.641 417.087 489.776C419.517 483.287 424.57 480.229 430.566 477.547Z" fill="#FEFEFE"/>
<path d="M638.66 443.269C644.326 453.786 650.097 465.178 653.753 476.584C655.299 481.406 655.31 490.21 657.867 494.074C656.729 504.659 653.229 514.178 646.966 522.84C637.092 536.498 621.658 546.155 605.005 548.818C588.343 551.483 569.596 547.123 555.98 537.109C538.129 523.981 533.944 504.757 530.712 484.068C535.126 484.862 539.46 484.116 543.833 483.422C568.987 480.05 593.269 471.303 616.556 461.584C625.753 456.903 632.066 451.135 638.66 443.269Z" fill="#44A52A"/>
<path d="M616.556 461.584C623.543 469.682 628.088 478.482 627.278 489.468C626.526 499.658 621.583 509.258 613.776 515.834C605.349 522.933 594.596 526.369 583.622 525.355C572.111 524.291 561.393 518.691 554.111 509.689C547.894 502.003 544.746 493.201 543.833 483.422C568.987 480.05 593.269 471.303 616.556 461.584Z" fill="#58E71E"/>
<path d="M595.807 483.513C597.897 483.453 600.016 483.371 602.01 484.1C604.965 485.179 607.437 487.28 608.749 490.161C609.975 492.856 610.055 496.059 608.9 498.791C607.205 502.795 604.069 504.44 600.263 505.986C598.265 505.948 596.37 505.87 594.452 505.251C591.494 504.297 588.945 502.277 587.54 499.48C586.208 496.831 586.123 493.66 587.23 490.918C588.874 486.847 592.003 485.128 595.807 483.513Z" fill="#000002"/>
<path d="M364.299 341.057C370.742 331.955 377.89 322.789 382.123 312.403C386.977 300.495 388.336 287.788 391.099 275.336C398.111 243.721 414.862 214.483 440.194 194.045C456.188 181.14 475.36 171.91 495.687 168.471C524.66 163.57 553.044 173.425 576.548 190.188C599.089 206.264 616.738 229.734 627.434 255.181C633.436 269.459 636.92 284.542 641.91 299.164C645.083 308.462 649.477 317.215 654.168 325.822C669.381 353.733 684.676 367.326 715.042 377.53C733.255 383.649 752.573 387.022 771.721 383.81C777.692 382.808 783.459 381.086 789.048 378.767C788.43 382.856 785.642 386.611 782.906 389.615C779.513 391.632 777.062 394.883 774.586 397.896C767.92 397.858 761.11 400.058 754.408 400.556C728.494 402.48 719.272 393.235 699.141 380.799C650.019 350.457 566.801 334.823 509.635 335.411C482.345 335.692 454.458 339.533 427.796 345.173C411.08 348.71 394.4 353.301 378.1 358.406C364.097 362.792 350.54 367.688 336.232 371.093C344.864 365.599 358.442 361.096 363.043 351.549C364.443 348.644 365.449 344.141 364.299 341.057Z" fill="#0B406C"/>
<path d="M559.481 267.989C563.538 270.171 575.799 279.265 576.633 283.823C577.259 287.245 565.427 291.551 562.785 293.405C559.767 295.524 556.824 298.812 555.002 301.982L555.145 302.303C556.373 302.137 557.336 302.033 558.578 302.197L559.025 302.907C558.969 303.873 558.856 304.473 558.411 305.355C557.1 307.957 553.839 309.612 551.227 310.525C547.347 311.882 541.691 312.98 537.896 311C535.911 309.964 535.495 308.284 534.865 306.298L543.737 294.254C538.495 291.454 532.159 289.475 527.837 285.322C527.436 284.171 527.578 283.237 527.835 282.075C528.537 278.896 530.43 275.186 533.322 273.477C534.932 272.525 536.723 272.302 538.514 272.847C543.814 274.461 546.393 281.04 548.58 285.545L559.481 267.989Z" fill="#FEFEFE"/>
<path d="M509.654 181.703C512.685 181.404 515.707 181.522 518.737 181.798C531.108 182.927 543.26 188.401 551.206 198.134C558.95 207.621 562.273 220.854 560.919 232.941C558.586 253.761 550.823 256.222 537.131 268.173C532.887 271.877 529.382 276.458 524.928 279.926C518.733 284.752 510.801 286.663 503.877 282.037C501.752 280.617 499.071 277.833 496.584 277.512C497.284 279.591 498.065 281.776 497.198 283.922C495.281 288.668 486.008 291.665 481.503 293.619C484.7 297.861 487.767 302.107 490.653 306.57C489.493 308.789 488.502 310.614 485.988 311.456C480.08 313.433 472.97 310.19 467.758 307.501C467.638 307.368 467.514 307.239 467.4 307.101C464.196 303.223 468.074 303.211 468.468 299.686C465.175 292.029 454.444 291.297 450.009 285.519C449.271 284.559 448.977 283.616 449.264 282.437C450.334 278.055 461.572 270.671 465.42 268.224C469.179 273.943 472.522 279.939 475.738 285.976C478.64 280.473 481.279 275.404 486.275 271.5C489.464 272.824 492.604 274.305 495.757 275.716C490.36 269.501 483.587 265.465 477.309 260.28C468.68 253.154 463.898 242.697 462.821 231.656C461.672 219.874 464.657 206.986 472.322 197.774C481.507 186.735 495.934 183.003 509.654 181.703Z" fill="#FEFEFE"/>
<path d="M511.239 248.477C515.469 249.432 519.521 250.676 523.637 252.031L523.335 258.266C520.035 260.017 516.712 261.097 513.079 261.888L512.405 261.858C508.887 261.663 504.754 261.34 502.38 258.391C501.044 256.732 500.435 254.657 500.586 252.554C502.652 250.648 508.462 249.476 511.239 248.477Z" fill="#000002"/>
<path d="M526.026 222.063C530.125 222.243 533.586 222.571 536.99 225.152C540.879 228.102 542.826 232.675 543.31 237.433C543.571 240.002 543.334 243.843 541.312 245.767C540.123 246.898 539.712 246.807 538.137 246.892C534.487 246.087 530.358 245.189 527.079 243.357C522.186 240.624 520.711 236.854 519.263 231.77C519.543 230.766 519.825 229.764 520.136 228.77C521.258 225.191 522.728 223.765 526.026 222.063Z" fill="#000002"/>
<path d="M492.876 222.549C494.926 222.367 496.985 222.309 498.944 223.023C501.108 223.813 503.048 224.984 503.938 227.205C504.961 229.758 504.381 232.89 503.369 235.351C501.045 240.997 496.518 243.444 491.214 245.671L482.849 247.527C481.117 241.799 479.115 235.065 482.317 229.469C484.666 225.365 488.58 223.825 492.876 222.549Z" fill="#000002"/>
<path d="M190.486 441.179C192.556 437.409 193.664 432.848 194.942 428.745C198.598 417.005 201.815 404.253 208.633 393.906C211.625 399.452 214.687 404.952 217.785 410.439C245.241 453.674 283.91 483.678 332.548 499.79C333.485 504.546 334.368 509.29 335.767 513.938C327.296 522.379 319.155 530.988 311.314 540.018L355.974 584.758C343.978 614.883 328.654 637.443 297.928 650.688C292.141 653.182 286.236 655.202 280.107 656.68C301.588 659.186 316.946 658.964 338.478 657.879C332.077 701.736 334.799 747.68 362.243 784.626C365.555 789.084 370.305 793.373 373.082 798.065C360.724 794.136 349.28 787.287 338.301 780.477C276.212 741.964 230.151 680.605 207.564 611.375C201.743 593.534 198.879 576.735 194.668 558.698C194.453 558.539 194.235 558.385 194.024 558.223C189.248 554.538 184.153 552.227 178.703 549.723C174.265 545.972 167.719 543.189 162.597 540.31C151.048 533.82 139.563 527.241 127.938 520.885C120.866 515.858 112.772 512.099 105.05 508.191C97.5733 503.355 89.7995 499.019 82.053 494.636C79.6287 492.656 76.8258 491.189 74.1235 489.629L82.4606 484.558C90.638 479.75 99.1681 475.122 106.779 469.457L131.86 453.59L157.312 438.143C166.14 432.235 175.19 426.599 184.234 421.026C186.402 427.697 188.172 434.576 190.486 441.179Z" fill="#087E8C"/>
<path d="M190.486 441.179C192.556 437.409 193.664 432.848 194.942 428.745C198.598 417.005 201.815 404.253 208.633 393.906C211.625 399.452 214.687 404.952 217.785 410.439C214.439 420.586 210.982 430.716 207.901 440.946C205.181 449.981 202.841 459.221 199.686 468.11C196.143 459.215 193.216 450.356 190.486 441.179Z" fill="#FEFEFE"/>
<path d="M157.312 438.143C166.14 432.235 175.19 426.599 184.234 421.026C186.402 427.697 188.172 434.576 190.486 441.179C193.216 450.356 196.143 459.215 199.686 468.11C212.841 507.551 226.49 547.015 241.313 585.859C231.72 580.2 221.541 574.871 212.47 568.406C211.242 553.18 166.554 453.583 157.312 438.143Z" fill="#D29B06"/>
<path d="M157.312 438.143C166.554 453.583 211.242 553.18 212.47 568.406C206.466 565.323 200.58 561.954 194.668 558.698C194.453 558.539 194.235 558.385 194.024 558.223C189.248 554.538 184.153 552.227 178.703 549.723C174.265 545.972 167.719 543.189 162.597 540.31C151.048 533.82 139.563 527.241 127.938 520.885C120.866 515.858 112.772 512.099 105.05 508.191C97.5733 503.355 89.7995 499.019 82.053 494.636C79.6287 492.656 76.8258 491.189 74.1235 489.629L82.4606 484.558C90.638 479.75 99.1681 475.122 106.779 469.457L131.86 453.59L157.312 438.143Z" fill="#FDC704"/>
<path d="M816.336 389.868C821.18 400.417 826.211 412.399 826.523 424.157C826.657 429.185 825.728 435.156 826.987 440.006C830.516 434.218 831.175 424.107 832.278 417.481L840.869 421.86C848.26 427.934 857.264 432.185 865.24 437.485C873.905 443.023 882.96 449.84 892.282 454.116L915.699 468.371C923.812 473.891 932.086 479.044 940.523 484.051C943.376 486.153 946.427 487.938 949.458 489.768C946.664 491.54 943.521 493.215 940.923 495.24C933.292 499.769 925.508 503.898 917.96 508.594C910.69 512.65 903.418 516.699 896.218 520.88C878.875 530.667 861.764 541.349 844.139 550.578C838.047 553.608 831.986 556.459 826.473 560.488C822.048 581.259 817.682 602.112 810.715 622.211C788.898 685.156 745.822 740.546 689.94 776.845C666.305 792.197 640.761 805.056 614.176 814.461C607.482 816.83 600.608 819.377 593.544 820.308C598.784 814.748 605.639 810.69 611.231 805.452C624.689 792.844 633.615 777.729 642.362 761.741C643.556 774.654 641.934 786.382 639.637 799.042C654.31 789.462 665.816 778.356 674.642 763.085C693.851 729.849 694.359 694.215 684.775 657.948C705.867 663.126 724.502 663.076 746.016 661.887C705.092 641.049 688.412 627.667 669.12 584.465C677.632 577.775 685.992 571.13 693.373 563.159C699.499 556.543 706.043 548.172 705.448 538.612C704.733 527.124 694.383 519.473 686.481 512.483C687.925 508.089 689.071 503.641 689.672 499.052C726.549 487.298 760.739 465.884 785.708 436.047C793.077 427.241 799.457 417.661 805.517 407.925C808.888 401.797 812.717 395.856 816.336 389.868Z" fill="url(#paint1_linear_1_14429)"/>
<path d="M816.336 389.868C821.18 400.417 826.211 412.399 826.523 424.157C826.657 429.185 825.728 435.156 826.987 440.006C825.444 450.97 822.065 461.059 818.587 471.51C817.366 464.303 817.085 456.96 815.844 449.744C813.403 435.555 809.378 421.774 805.517 407.925C808.888 401.797 812.717 395.856 816.336 389.868Z" fill="#FEFEFE"/>
<path d="M832.278 417.481L840.869 421.86C848.26 427.934 857.264 432.185 865.24 437.485L826.442 532.804C822.536 542.654 817.675 552.239 814.148 562.214C813.53 563.96 812.719 565.72 813.345 567.578C813.382 567.689 813.445 567.788 813.495 567.894C805.512 573.019 797.137 577.442 789.035 582.37C794.948 562.898 799.483 542.985 804.788 523.341C809.455 506.057 814.983 489.071 818.587 471.51C822.065 461.059 825.444 450.97 826.987 440.006C830.516 434.218 831.175 424.107 832.278 417.481Z" fill="#D29B06"/>
<path d="M865.24 437.485C873.905 443.023 882.96 449.84 892.282 454.116L915.699 468.371C923.812 473.891 932.086 479.044 940.523 484.051C943.376 486.153 946.427 487.938 949.458 489.768C946.664 491.54 943.521 493.215 940.923 495.24C933.292 499.769 925.508 503.898 917.96 508.594C910.69 512.65 903.418 516.699 896.218 520.88C878.875 530.667 861.764 541.349 844.139 550.578C838.047 553.608 831.986 556.459 826.473 560.488C822.09 562.85 817.896 565.582 813.495 567.894C813.445 567.788 813.382 567.689 813.345 567.578C812.719 565.72 813.53 563.96 814.148 562.214C817.675 552.239 822.536 542.654 826.442 532.804L865.24 437.485Z" fill="#FDC704"/>
<path d="M386.698 594.402C397.007 590.839 407.204 587.17 417.956 585.169L418.311 657.746C418.346 664.086 416.712 670.26 416.447 676.579C415.732 693.625 419.239 712.384 424.922 728.481C423.882 718.861 420.886 681.555 425.687 674.145C426.001 673.661 426.267 673.461 426.671 673.099C427.785 677.502 428.688 682.089 430.126 686.392C493.392 662.948 537.234 662.663 600.212 688.691C601.969 699.955 601.154 710.985 601.707 722.303C606.088 699.191 606.272 676.561 606.467 653.143L606.503 586.729C611.193 587.806 615.823 588.987 620.398 590.491C628.037 593.004 637.381 598.022 645.465 597.633C653.287 630.707 663.925 662.848 669.211 696.56C671.059 708.345 670.363 719.79 671.061 731.561C671.127 732.678 671.201 733.558 671.826 734.518L670.708 738.502C668.381 749.222 662.068 758.52 656.95 768.062C653.862 753.922 648.783 741.969 639.51 730.705C626.42 785.077 594.012 805.943 549.661 833.13C537.175 840.784 524.299 848.701 511.196 855.248C497.71 848.089 484.874 840.227 471.915 832.163C447.95 817.248 423.301 801.852 406.41 778.654C398.071 767.201 393.029 754.361 385.71 742.437C382.407 749.81 379.163 757.152 376.998 764.961C375.667 769.763 374.912 774.68 373.692 779.496C368.174 771.122 360.921 761.579 358.749 751.623C359.569 747.739 356.648 729.146 356.431 723.24C355.754 718.692 355.97 713.828 355.951 709.233C355.84 683.556 361.462 659.69 366.663 634.743L366.775 634.393C366.471 629.381 368.014 623.866 368.089 618.693C371.603 611.326 376.616 606.074 378.369 597.726C381.121 596.568 383.923 595.507 386.698 594.402Z" fill="#A55322"/>
<path d="M378.369 597.726C381.121 596.568 383.923 595.507 386.698 594.402C387.252 606.552 379.816 620.837 371.795 629.587C370.23 631.294 368.496 632.845 366.775 634.393C366.471 629.381 368.014 623.866 368.089 618.693C371.603 611.326 376.616 606.074 378.369 597.726Z" fill="#A1660F"/>
<path d="M402.795 624.381C403.343 631.102 399.767 638.539 399.509 645.422C398.782 664.792 399.816 684.38 405.265 703.07C407.517 710.795 410.518 718.366 413.229 725.943C411.871 723.806 410.712 721.566 409.529 719.33C401.559 704.821 394.866 690.452 392.143 673.938C390.383 663.263 389.418 648.001 393.981 637.88C396.161 633.044 399.717 628.682 402.795 624.381Z" fill="#FDC704"/>
<path d="M621.062 631.752C625.974 634.949 629.445 645.981 631.069 651.284C639.517 678.884 630.376 705.116 617.447 729.504C616.21 731.78 614.988 734.012 613.515 736.149C622.502 701.371 626.015 667.468 621.062 631.752Z" fill="#FDC704"/>
<path d="M566.169 802.604C573.923 794.908 581.877 787.308 589.101 779.107C611.333 753.867 643.05 709.489 643.034 674.754C643.032 670.652 642.9 666.269 642.212 662.22C641.601 658.624 639.784 654.317 639.88 650.712C642.294 656.084 643.896 661.765 645.525 667.413C651.626 688.57 651.809 707.067 643.974 727.876C643.474 729.204 642.921 730.509 642.336 731.802C649.322 742.328 654.107 751.922 657.489 764.11C659.322 761.408 660.99 758.689 662.399 755.738C664.816 750.673 666.679 742.326 670.708 738.502C668.381 749.222 662.068 758.52 656.95 768.062C653.862 753.922 648.783 741.969 639.51 730.705C626.42 785.077 594.012 805.943 549.661 833.13C537.175 840.784 524.299 848.701 511.196 855.248C497.71 848.089 484.874 840.227 471.915 832.163C447.95 817.248 423.301 801.852 406.41 778.654C398.071 767.201 393.029 754.361 385.71 742.437C382.407 749.81 379.163 757.152 376.998 764.961C375.667 769.763 374.912 774.68 373.692 779.496C368.174 771.122 360.921 761.579 358.749 751.623C359.569 747.739 356.648 729.146 356.431 723.24C356.415 717.458 357.768 713.012 359.335 707.506C363.726 692.073 370.496 678.298 380.571 665.73C376.16 695.361 391.859 724.66 408.997 747.771C424.002 768.006 443.508 784.5 464.536 798.198C452.119 770.339 439.494 736.178 446.377 705.384C453.903 737.269 471.218 766.604 490.821 792.556C498.223 802.355 506.345 811.623 513.547 821.567C541.053 781.259 558.943 741.125 560.176 691.727C562.521 699.406 565.381 706.952 567.393 714.726C572.761 735.465 573.342 757.095 570.486 778.266C569.385 786.425 567.15 794.455 566.169 802.604Z" fill="#6F311C"/>
<defs>
<linearGradient id="paint0_linear_1_14429" x1="533.759" y1="385.233" x2="488.442" y2="665.387" gradientUnits="userSpaceOnUse">
<stop stop-color="#5FD6DE"/>
<stop offset="1" stop-color="#A6F1F7"/>
</linearGradient>
<linearGradient id="paint1_linear_1_14429" x1="820.774" y1="622.244" x2="610.04" y2="608.647" gradientUnits="userSpaceOnUse">
<stop stop-color="#097787"/>
<stop offset="1" stop-color="#108F95"/>
</linearGradient>
</defs>
</svg>
