<svg width="1024" height="1024" viewBox="0 0 1024 1024" fill="none" xmlns="http://www.w3.org/2000/svg">
<path d="M818.318 153.913C827.778 137.29 842.284 126.484 860.75 121.445C870.155 118.878 882.582 116.652 892.211 118.75C893.963 119.878 894.331 121.517 894.743 123.451C898.23 139.823 895.615 155.453 890.587 171.153C897.183 170.468 903.599 169.748 910.25 170.015C920.458 170.426 940.871 175.055 948.794 181.849L949.381 182.376C943.723 207.259 932.811 231.192 910.5 245.032L906.982 247.046C899.391 242.989 891.6 241.363 884.346 236.276C878.44 233.568 873.231 230.07 867.986 226.279C870.622 220.199 871.91 215.815 872 209.143C871.344 206 870.574 203.222 869.157 200.308C866.05 193.918 859.704 188.368 852.946 186.185C846.031 183.952 840.988 185.401 834.726 188.537C832.448 186.351 830.791 181.97 829.371 179.141C825.266 170.968 820.735 162.765 818.318 153.913Z" fill="#B91434"/>
<path d="M882.178 128.208C882.695 128.195 882.311 128.175 883.25 128.634L880.544 147.031C878.369 157.485 874.008 167.556 864.568 173.477L863.911 173.872L858.376 176.75C851.414 179.528 844.373 177.846 837.785 174.969C835.379 172.79 834.099 170.769 832.574 167.901C833.25 161.149 835.229 155.355 839.416 150C849.915 136.57 865.623 130.214 882.178 128.208Z" fill="#EE2B4A"/>
<path d="M873.486 132.401C873.312 132.819 873.265 133.013 872.912 133.379C871.565 134.775 869.216 135.927 867.571 137.08C864.695 139.096 862.001 141.274 859.451 143.688C855.993 146.961 852.588 150.402 849.47 154C845.91 158.107 842.988 161.989 838.369 165.008L838.125 162.906C837.759 157.347 840.581 151.833 844.171 147.75C852.093 138.738 861.407 133.121 873.486 132.401Z" fill="#FEABB0"/>
<path d="M872 209.143L872.427 208.981C874.493 208.164 875.644 207.075 876.51 205C877.426 202.804 878.155 200.768 879.477 198.75L879.804 198.243C885.367 189.976 897.192 185.611 906.625 183.981C916.236 182.32 926.773 183.477 935.865 187.006C934.483 199.466 928.998 210.318 922.544 220.892C920.656 223.987 918.677 227.799 915.841 230.12C908.029 236.513 893.755 235.211 884.346 236.276C878.44 233.568 873.231 230.07 867.986 226.279C870.622 220.199 871.91 215.815 872 209.143Z" fill="#EE2B4A"/>
<path d="M907.001 187.209C914.425 186.781 922.008 187.673 929.425 188.157C928.27 191.278 927.409 194.487 925.971 197.5C922.619 204.52 916.777 210.61 909.89 214.255L909.13 214.65C906.817 215.88 904.749 216.743 902.249 217.486C894.618 219.109 888.92 219.288 881.598 216.19L881.452 215.218C880.771 209.198 880.678 202.199 884.835 197.354C890.424 190.841 898.67 187.868 907.001 187.209Z" fill="#F6637B"/>
<path d="M906.982 247.046C909.517 248.596 912.893 249.462 915.722 250.399L931.875 255.221C935.298 256.09 939.686 256.791 942.735 258.673C944.281 259.628 945.516 261.261 945.821 263.071C946.35 266.198 944.076 269.429 942.257 271.748C938.333 276.749 933.032 280.93 927.983 284.731C913.217 295.848 895.024 305.311 876.464 307.443L892.192 320.56C908.845 334.91 923.015 351.238 932.156 371.446C949.3 409.344 950.001 449.825 935.259 488.609C922.626 521.847 894.882 549.099 862.678 563.539C831.545 577.498 796.747 578.061 764.966 565.99C761.44 579.995 756.97 592.219 745.26 601.621C732.922 611.527 718.612 615.511 702.938 613.802C688.204 612.196 674.674 604.273 665.529 592.689C656.672 581.47 652.017 566.215 653.812 551.968C654.682 545.07 656.42 538.645 658.747 532.101C647.726 537.995 636.434 540.929 624.248 536.471C622.471 535.82 620.923 534.957 619.326 533.946C619.049 533.771 617.576 532.717 617.402 532.695C616.994 532.643 616.873 533.324 616.607 533.637L613.659 537.047C606.081 545.56 597.85 551.031 586.522 552.963C571.821 555.47 558.807 549.861 547.145 541.48L333.152 753.451L359.667 780.186C365.297 775.01 371.672 767.055 379.75 766.255C383.586 765.875 386.958 767.521 389.793 769.998C395.699 775.16 401.018 781.405 406.596 786.95C414.701 795.007 424.406 802.986 431.206 812.141C433.218 814.85 434.923 817.657 435.016 821.126C435.144 825.897 432.524 829.411 429.363 832.689L401.163 861.149C396.932 865.402 392.309 871.154 387.431 874.497C385.666 875.707 383.29 876.15 381.181 876.125C379.996 876.111 378.706 876.014 377.67 875.385C371.89 871.88 366.559 865.297 361.737 860.481L335.897 834.711L322.894 848.285C330.06 855.079 359.151 881.107 361.144 888.252C361.786 890.553 361.913 894.151 360.534 896.194C358.607 899.049 355.863 901.426 353.412 903.821L341.845 915.185L323.672 933.403C319.968 937.117 316.324 941.095 312.25 944.403C310.377 945.924 308.958 946.666 306.583 947.05C304.663 947.361 300.804 947.545 299.217 946.274L298.75 945.869L220.262 867.379L202.246 885.123C198.134 889.198 193.517 894.87 188.495 897.67C183.468 900.475 174.798 900.297 168.982 901.059L112.88 907.431C106.639 902.227 100.022 896.209 96.3925 888.813C98.4266 873.506 103.491 858.042 107.328 843.065L111.757 826.263C112.483 823.631 113.084 820.428 114.553 818.104C117.547 813.369 123.066 809.183 127.036 805.211L151.939 780.196L86.7229 715.712C81.9599 710.432 78.0816 703.52 78.627 696.175C78.8934 692.588 80.4326 689.375 82.4625 686.459C86.5828 680.539 92.8735 675.616 98.0219 670.528C102.962 665.645 107.641 660.39 112.849 655.792C118.043 651.207 124.003 648.936 130.984 649.478C139.252 650.12 146.59 659.319 151.98 664.906L164.973 678.804L182.182 660.981C174.115 653.82 164.551 645.938 158.265 637.141C154.797 632.289 152.647 627.397 153.839 621.28C154.448 618.153 155.747 615.743 157.665 613.237C163.056 606.195 170.177 600.41 176.477 594.204L187.562 583.242C190.286 580.56 193.078 577.594 196.359 575.591C201.871 572.226 209.261 571.029 215.489 572.84C218.652 573.76 221.467 575.754 224.003 577.802C229.373 582.137 233.918 587.533 238.8 592.401L250.979 604.453C253.78 607.24 256.864 610.09 258.802 613.572L259.25 614.395C260.657 616.949 260.743 619.17 260.449 622.011C259.396 632.191 247.133 642.19 239.727 648.394L260.973 670.544L261.283 670.931L470.811 462.498C468.296 454.525 465.413 448.678 465.41 440.018C465.406 430.985 468.241 422.486 474.014 415.489C477.697 411.024 482.282 407.185 486.354 403.069C487.378 402.035 490.121 399.854 490.589 398.737C491.076 397.575 490.365 392.81 490.366 391.268C490.366 387.594 490.768 384.557 492.465 381.234C495.1 376.074 499.785 371.807 503.871 367.789L526.186 346.549L516.699 338.622C510.368 343.095 504.377 346.435 496.87 348.463C482.421 352.365 465.873 350.495 452.898 342.915C439.907 335.325 429.908 323.008 426.066 308.365C422.283 293.942 424.344 278.268 431.932 265.438C440.458 251.02 454.05 243.541 469.776 239.453C465.541 219.528 466.318 200.734 471.35 181.046C480.213 146.368 503.803 117.459 534.388 99.4168C568.261 79.4353 609.234 74.8797 647.118 84.7864C678.163 92.9047 708.326 112.202 726.738 138.798C733.651 148.785 738.565 159.56 744.65 169.974L749.546 154.398C757.457 133.923 771.937 118.168 792.14 109.387C795.404 107.968 801.01 105.452 804.449 107.391C809.093 110.007 810.397 125.435 811.429 130.201L815.185 145.128L818.318 153.913C820.735 162.765 825.266 170.968 829.371 179.141C830.791 181.97 832.448 186.351 834.726 188.537C840.988 185.401 846.031 183.952 852.946 186.185C859.704 188.368 866.05 193.918 869.157 200.308C870.574 203.222 871.344 206 872 209.143C871.91 215.815 870.622 220.199 867.986 226.279C873.231 230.07 878.44 233.568 884.346 236.276C891.6 241.363 899.391 242.989 906.982 247.046ZM441.957 306.062C445.239 317.094 452.202 325.689 462.345 331.113C469.449 334.911 478.258 336.679 486.25 335.613L487.169 335.502C497.45 334.173 506.789 328.51 513.097 320.337L519.557 310.231C528.072 318.879 536.234 325.984 547.176 331.519C550.867 333.386 555.257 334.587 558.769 336.622L569.646 339.852C570.34 340.076 570.929 340.212 571.648 340.296L573.842 320.897C575.852 313.255 577.511 305.67 580.316 298.25C583.16 290.726 587.116 283.585 590.682 276.383C592.946 271.987 596.118 268.128 599.25 264.331C611.216 249.824 625.114 239.564 641.77 231.029C652.474 224.515 667.693 221.748 680.075 220.948C680.046 217.331 679.205 213.585 678.682 210.001L694.216 210.469C707.705 210.604 720.187 212.691 732.954 217.093C738.125 218.876 743.486 221.576 748.86 222.542C746.879 216.807 744.62 211.137 741.754 205.779C739.835 202.191 737.423 198.746 735.874 194.981C733.318 188.769 732.219 182.003 729.602 175.817C716.06 143.813 692.983 121.078 662 105.98C631.072 90.9092 594.707 90.9115 562.592 102.03C532.661 112.393 507.264 136.022 493.632 164.42C481.821 189.024 477.137 220.58 486.223 246.789L489.188 254.761C482.905 253.521 477.325 253.079 471 254.365L470.144 254.533C461.216 256.352 451.815 262.396 446.837 270.093C440.644 279.67 438.131 290.635 440.621 301.818C440.95 303.299 441.397 304.655 441.957 306.062ZM815.108 299.145L815.353 300.126C818.29 311.704 822.487 322.812 822.492 334.991L812.674 335.071C814.285 366.21 803.574 398.842 782.616 422.053C772.378 433.391 760.048 443.182 746.506 450.253C730.163 457.911 714.441 461.759 696.479 462.904C692.542 463.155 688.547 462.89 684.63 463.202C685.039 465.32 685.884 467.646 687.53 469.124L697.682 489.024C703.305 498.778 710.144 507.264 717.705 515.563C705.078 515.442 692.597 517.145 683.073 526.291C678.816 530.379 675.021 535.682 672.837 541.176C668.806 549.258 667.639 558.752 669.724 567.563C672.193 577.995 679.067 587.807 688.234 593.418C696.675 598.585 708.359 600.795 718.023 598.321L719 598.067L720.875 597.593C731.045 594.738 741.055 586.534 746.021 577.266C752.352 565.451 751.459 553.885 747.781 541.405C759.989 547.498 770.909 552.797 784.259 556.025C813.09 562.996 846.152 556.871 871.292 541.411C899.41 524.12 918.888 495.917 926.534 463.929C934.64 430.015 928.451 393.397 910.133 363.799C896.916 342.445 875.923 323.698 853.53 312.51C841.204 306.352 828.469 302.325 815.108 299.145Z" fill="#521631"/>
<path d="M317.934 768.337C319.347 766.904 320.386 765.981 322.25 765.193L324.201 767.173L320.645 770.629C319.513 770.106 318.779 769.223 317.934 768.337Z" fill="#E38D11"/>
<path d="M324.201 767.173L331.418 773.729L326.924 778.123L326.638 778.063C324.925 776.234 320.638 772.979 320.645 770.629L324.201 767.173Z" fill="#F4AE24"/>
<path d="M97.6753 693.466C103.429 685.717 111.206 679.445 118.111 672.75C120.72 670.22 123.621 666.267 126.75 664.516C128.091 663.765 128.377 664.015 129.721 664.491L103.195 691.19L100.707 692.368C99.7206 692.831 98.713 693.145 97.6753 693.466Z" fill="#FEC536"/>
<path d="M239.203 614.849L245.77 620.98L217.873 648.004L211.923 643.095C213.518 640.537 216.888 638.006 219.085 635.878C225.766 629.409 233.222 622.842 238.803 615.391L239.203 614.849Z" fill="#CA8413"/>
<path d="M832.751 212.177C833.69 206.855 834.626 202.526 839.25 199.111C841.767 197.251 845.446 196.624 848.472 197.317C852.607 198.266 856.257 201.152 858.422 204.758C860.237 207.783 861.405 211.642 860.446 215.158C858.955 220.632 855.298 223.68 850.829 226.726L847.271 228.551L843.704 225.205C839.778 221.167 836.253 217.039 833.222 212.283L832.751 212.177Z" fill="#F4AE24"/>
<path d="M833.222 212.283C836.063 210.434 840.642 211.15 843.839 211.721C845.427 212.868 846.836 213.87 847.949 215.5L848.251 215.935C849.219 217.45 849.046 219.327 848.85 221.05L850.829 226.726L847.271 228.551L843.704 225.205C839.778 221.167 836.253 217.039 833.222 212.283Z" fill="#FCDA53"/>
<path d="M843.704 225.205L848.85 221.05L850.829 226.726L847.271 228.551L843.704 225.205Z" fill="#C0AB65"/>
<path d="M363.486 840.789L394.302 811.097L411.885 827.607L381.595 858.798L363.486 840.789Z" fill="#CA8413"/>
<path d="M244.695 674.457L251.177 680.519L163.154 769.51L157.223 763.536L166.473 752.728L244.695 674.457Z" fill="#CA8413"/>
<path d="M97.6753 693.466C98.713 693.145 99.7206 692.831 100.707 692.368L103.195 691.19L107.622 698.395C108.064 700.305 111.357 702.881 112.849 704.173L134.67 722.212C138.963 725.953 142.648 730.3 147.075 733.918L166.473 752.728L157.223 763.536C144.698 752.924 133.581 740.374 121.995 728.756C112.198 718.931 100.973 709.283 92.3491 698.448L97.6753 693.466Z" fill="#FCDA53"/>
<path d="M759.118 180.117C763.987 160.954 771.222 138.886 789.333 128.128L793.01 126.019C794.355 128.319 794.696 131.921 795.343 134.5L799.176 148.208C804.145 165.098 812.221 181.014 821.33 196.001C824.743 201.616 828.176 207.407 832.751 212.177L833.222 212.283C836.253 217.039 839.778 221.167 843.704 225.205L847.271 228.551L874.466 249.597L873.839 249.728C869.043 250.457 853.943 240.9 849.5 237.988L844.5 234.433C837.517 229.364 832.16 222.517 827.091 215.626C815.168 199.42 805.89 181.739 798.542 163.023C794.978 153.945 792.516 144.35 788.62 135.431C783.609 142.44 778.664 149.756 774.863 157.502C772.961 161.38 771.325 165.421 769.907 169.5C768.472 173.63 767.29 180.974 763.5 183.446C762.968 183.379 762.475 183.345 761.965 183.142C760.555 182.582 759.846 181.346 759.118 180.117Z" fill="url(#paint0_linear_1_14417)"/>
<path d="M201.979 752.81C203.184 750.528 205.415 748.646 207.208 746.804L217.523 736.36L249.452 704.265L433.37 520.424L459.573 495.079L475.909 478.874C478.513 476.29 482.002 471.864 485.5 470.674L487.586 472.592L429.653 529.641L278.13 680.093L215.418 740.955C211.268 744.757 206.902 750.1 201.979 752.81Z" fill="#F4AE24"/>
<path d="M325.046 872.752L343.958 891.287L305.031 929.763L286.377 910.918C292.74 907.03 298.489 899.453 303.786 894.199C310.809 887.234 318.915 880.518 325.046 872.752Z" fill="#CA8413"/>
<path d="M239.098 864.753L229.718 855.395C231.211 852.929 234.402 850.485 236.504 848.442L250.239 835.009L317.934 768.337C318.779 769.223 319.513 770.106 320.645 770.629C320.638 772.979 324.925 776.234 326.638 778.063L239.098 864.753Z" fill="#CA8413"/>
<path d="M562.155 466.393L611.004 513.305C607.549 518.804 604.45 524.104 599.901 528.821C594.328 534.601 586.783 537.919 578.75 537.973C572.779 538.014 565.695 536.192 560.625 533.058C555.359 529.804 551.083 524.834 546.724 520.479L528.03 501.736L562.155 466.393Z" fill="#D94A22"/>
<path d="M508.071 412.564L562.155 466.393L528.03 501.736L501.871 476.085C496.304 470.564 490.208 465.18 485.746 458.695C483.191 454.981 481.244 450.843 480.473 446.382L480.329 445.5C479.209 438.989 480.438 432.011 484.028 426.413C489.767 417.464 498.303 414.802 508.071 412.564Z" fill="#F97620"/>
<path d="M201.979 752.81C206.902 750.1 211.268 744.757 215.418 740.955L278.13 680.093L429.653 529.641L487.586 472.592L495.985 480.797L257.748 717.028L173.985 799.93L150.127 823.65C146.423 827.308 141.893 830.959 138.714 835.053C135.838 838.756 134.605 844.679 132.966 849.048L121.08 880.867C118.668 883.738 115.138 885.082 111.845 886.723C114.303 871.52 119.194 856.066 123.195 841.165C124.272 837.152 125.167 830.487 127.327 827.092C128.739 824.871 131.405 822.879 133.32 821.064L145.314 809.434L201.979 752.81Z" fill="#FEFEFE"/>
<path d="M331.418 773.729L332.125 774.304C336.533 777.924 340.477 782.127 344.498 786.165C349.399 791.085 354.296 795.881 358.63 801.321C365.609 795.987 372.301 790.421 378.237 783.918L379.75 783.407C383.157 785.327 385.654 788.382 388.352 791.151L400.133 803.183L418.479 821.251L411.885 827.607L394.302 811.097L363.486 840.789L336.309 813.974L300.516 849.225L325.046 872.752C318.915 880.518 310.809 887.234 303.786 894.199C298.489 899.453 292.74 907.03 286.377 910.918L239.098 864.753L326.638 778.063L326.924 778.123L331.418 773.729Z" fill="#FEC536"/>
<path d="M267.322 839.021C279.711 847.064 289.056 858.208 297.28 870.302C285.39 861.765 273.763 852.427 267.322 839.021Z" fill="#FEFEFE"/>
<path d="M331.418 773.729L332.125 774.304C336.533 777.924 340.477 782.127 344.498 786.165C349.399 791.085 354.296 795.881 358.63 801.321C365.609 795.987 372.301 790.421 378.237 783.918C379.251 785.998 380.556 787.776 381.905 789.644C376.193 796.255 370.437 803.473 363.875 809.239L360.5 808.426C351.788 805.817 344.914 797.776 338.711 791.558C334.55 787.387 329.864 783.289 326.924 778.123L331.418 773.729Z" fill="#FEFEFE"/>
<path d="M204.215 660.464C198.788 656.608 194.254 651.327 189.591 646.596L167.746 624.457L188.887 603.367C193.655 598.572 198.395 593.065 203.8 588.999C205.2 587.946 206.606 586.754 208.359 586.414C211.04 588.083 213.708 589.566 215.713 592.061L239.203 614.849L238.803 615.391C233.222 622.842 225.766 629.409 219.085 635.878C216.888 638.006 213.518 640.537 211.923 643.095L217.873 648.004L244.695 674.457L166.473 752.728L147.075 733.918C142.648 730.3 138.963 725.953 134.67 722.212L112.849 704.173C111.357 702.881 108.064 700.305 107.622 698.395L103.195 691.19L129.721 664.491L155.183 690.459C158.982 692.965 161.251 697.423 164.902 699.832L204.215 660.464Z" fill="#FEC536"/>
<path d="M208.359 586.414C211.04 588.083 213.708 589.566 215.713 592.061L215.772 592.521C216.786 599.277 226.35 600.191 225.25 607.85L224.472 608.199C219.823 606.177 216.338 601.278 213.232 597.428L182.707 628.47C179.502 627.594 177.225 624.892 174.981 622.598C176.37 618.902 181.114 615.495 184.014 612.848L197.95 599.44C201.925 595.535 206.699 591.871 208.359 586.414Z" fill="#FEFEFE"/>
<path d="M129.721 664.491L155.183 690.459L155.346 690.909C158.84 700.098 167.35 706.835 171.618 715.715C165.406 712.916 160.947 707.663 155.907 703.195L136.647 686.243C134.211 684.106 131.271 680.771 128.387 679.372C121.709 685.775 115.121 692.997 107.622 698.395L103.195 691.19L129.721 664.491Z" fill="#FEFEFE"/>
<path d="M204.215 660.464C198.788 656.608 194.254 651.327 189.591 646.596L167.746 624.457L188.887 603.367C193.655 598.572 198.395 593.065 203.8 588.999C205.2 587.946 206.606 586.754 208.359 586.414C206.699 591.871 201.925 595.535 197.95 599.44L184.014 612.848C181.114 615.495 176.37 618.902 174.981 622.598C177.225 624.892 179.502 627.594 182.707 628.47C184.676 629.252 186.52 630.07 188.252 631.305C192.016 633.988 195.462 637.593 198.929 640.668C206.32 647.226 213.835 653.722 220.589 660.948C222.602 663.101 225.224 665.31 226.35 668.099C226.727 669.031 226.698 669.772 226.597 670.75C224.997 672.258 225.062 672.482 222.75 672.547C219.861 671.061 217.259 669.512 214.647 667.569C211.668 665.353 207.936 661.001 204.215 660.464Z" fill="#FCDA53"/>
<path d="M509.435 375.772C511.938 371.619 516.349 366.864 521.197 365.662C524.182 364.922 527.723 364.989 530.365 366.685C535.011 369.669 538.115 374.465 542.577 377.512L634.637 467.863L648.678 482.457C654.571 488.656 658.708 494.51 658.505 503.5C658.371 509.381 654.756 516.073 650.299 519.895C647.147 522.597 642.515 524.008 638.5 524.565L637.531 524.704C629.88 525.762 622.274 522.768 616.308 518.116L611.004 513.305L562.155 466.393L508.071 412.564C504.035 407.453 498.081 403.694 494.467 398.253C493.366 396.597 492.214 394.185 492.734 392.157C493.824 387.907 497.35 385.641 500.841 383.494L509.435 375.772Z" fill="#537479"/>
<path d="M630.648 477.462C637.356 483.806 649.93 492.877 650.133 502.682C650.227 507.253 648.462 511.291 645.25 514.523C642.691 517.098 639.234 518.993 635.536 518.978C625.499 518.936 615.1 505.385 608.586 498.739L630.648 477.462Z" fill="#6A8A8F"/>
<path d="M588.198 435.885L630.648 477.462L608.586 498.739L567.349 458.023C573.883 450.137 581.542 443.602 588.198 435.885Z" fill="#94B6B7"/>
<path d="M509.435 375.772C514.077 374.244 518.894 372.755 523.852 373.038C533.378 380.605 541.145 389.445 549.722 397.978L588.198 435.885C581.542 443.602 573.883 450.137 567.349 458.023L521.071 412.287L507.763 399.337C505.372 397.023 501.925 394.271 500.456 391.242C499.267 388.791 500.138 385.946 500.841 383.494L509.435 375.772Z" fill="#B8E1D9"/>
<path d="M512.873 380.899C515.557 380.928 518.265 381.293 520.702 382.496C521.907 383.091 523.025 383.843 524.016 384.75C527.651 388.082 530.622 392.206 534.069 395.75C539.959 401.806 546.614 407.377 551.983 413.893C553.396 415.607 555.014 417.758 555.665 419.904C556.433 422.438 556.017 426.027 554.846 428.374L552.104 427.779C547.434 426.593 543.858 421.853 540.445 418.704C529.434 408.55 518.655 399.128 510.81 386.156C511.35 384.313 512.073 382.644 512.873 380.899Z" fill="#FEFEFE"/>
<path d="M759.118 180.117C759.846 181.346 760.555 182.582 761.965 183.142C762.475 183.345 762.968 183.379 763.5 183.446C767.29 180.974 768.472 173.63 769.907 169.5C771.325 165.421 772.961 161.38 774.863 157.502C778.664 149.756 783.609 142.44 788.62 135.431C792.516 144.35 794.978 153.945 798.542 163.023C805.89 181.739 815.168 199.42 827.091 215.626C832.16 222.517 837.517 229.364 844.5 234.433L849.5 237.988C853.943 240.9 869.043 250.457 873.839 249.728L874.466 249.597L896.01 260.571L916.194 266.954C917.984 267.546 921.207 268.215 922.549 269.398C901.762 286.339 872.704 298.468 845.551 295.64C832.22 294.252 820.944 290.059 808.845 284.525C810.95 289.008 812.413 295.176 815.108 299.145L815.353 300.126C818.29 311.704 822.487 322.812 822.492 334.991L812.674 335.071C811.772 331.281 811.533 327.371 810.716 323.547C807.284 307.493 801.735 288.476 791.194 275.583C790.843 274.735 790.297 273.9 789.819 273.111C785.531 266.029 779.547 259.592 773.553 253.918C758.063 239.25 741.997 229.835 721.309 224.673C707.338 221.673 694.324 221.122 680.075 220.948C680.046 217.331 679.205 213.585 678.682 210.001L694.216 210.469C707.705 210.604 720.187 212.691 732.954 217.093C738.125 218.876 743.486 221.576 748.86 222.542C751.507 225.089 756.025 226.726 759.308 228.42C754.73 212.096 755.222 196.463 759.118 180.117Z" fill="#EE2B4A"/>
<path d="M678.682 210.001L694.216 210.469C707.705 210.604 720.187 212.691 732.954 217.093C738.125 218.876 743.486 221.576 748.86 222.542C751.507 225.089 756.025 226.726 759.308 228.42C765.101 234.245 772.795 238.195 778.75 244.031C783.513 248.699 788.006 254.156 792.189 259.35L797.981 266.512C798.818 267.536 799.811 269.133 800.895 269.845C802.842 271.123 806.178 271.886 808.436 272.808L829.66 281.416C825.172 277.975 820.308 275.272 815.997 271.561C800.309 258.056 789.508 238.18 785.103 218.118C788.508 223.684 791.32 229.43 795.378 234.606C806.514 248.809 825.217 258.329 842.531 262.582C856.302 265.964 870.674 266.119 884.579 263.412C888.31 262.686 892.496 262.006 896.01 260.571L916.194 266.954C917.984 267.546 921.207 268.215 922.549 269.398C901.762 286.339 872.704 298.468 845.551 295.64C832.22 294.252 820.944 290.059 808.845 284.525C810.95 289.008 812.413 295.176 815.108 299.145L815.353 300.126C818.29 311.704 822.487 322.812 822.492 334.991L812.674 335.071C811.772 331.281 811.533 327.371 810.716 323.547C807.284 307.493 801.735 288.476 791.194 275.583C790.843 274.735 790.297 273.9 789.819 273.111C785.531 266.029 779.547 259.592 773.553 253.918C758.063 239.25 741.997 229.835 721.309 224.673C707.338 221.673 694.324 221.122 680.075 220.948C680.046 217.331 679.205 213.585 678.682 210.001Z" fill="#B91434"/>
<path d="M519.103 503.127L541.644 524.678L255.696 809.17L193.103 871.695L185.098 879.864C183.964 881.123 182.265 883.619 180.722 884.322C178.851 885.174 174.433 885.188 172.25 885.514L119.155 892.723L111.845 886.723C115.138 885.082 118.668 883.738 121.08 880.867C127.428 878.086 133.61 873.654 139.562 870.054C150.238 863.596 161.772 857.662 171.371 849.64C176.253 845.559 180.664 840.638 185.176 836.134L209.408 811.953L287.249 734.375L445.302 576.45L496.171 525.623L519.103 503.127Z" fill="#CA8413"/>
<path d="M495.985 480.797L519.103 503.127L496.171 525.623L445.302 576.45L287.249 734.375L209.408 811.953L185.176 836.134C180.664 840.638 176.253 845.559 171.371 849.64C161.772 857.662 150.238 863.596 139.562 870.054C133.61 873.654 127.428 878.086 121.08 880.867L132.966 849.048C134.605 844.679 135.838 838.756 138.714 835.053C141.893 830.959 146.423 827.308 150.127 823.65L173.985 799.93L257.748 717.028L495.985 480.797Z" fill="#FEC536"/>
<path d="M815.108 299.145C828.469 302.325 841.204 306.352 853.53 312.51C875.923 323.698 896.916 342.445 910.133 363.799C928.451 393.397 934.64 430.015 926.534 463.929C918.888 495.917 899.41 524.12 871.292 541.411C846.152 556.871 813.09 562.996 784.259 556.025C770.909 552.797 759.989 547.498 747.781 541.405C751.459 553.885 752.352 565.451 746.021 577.266C741.055 586.534 731.045 594.738 720.875 597.593L719 598.067L718.023 598.321C708.359 600.795 696.675 598.585 688.234 593.418C679.067 587.807 672.193 577.995 669.724 567.563C667.639 558.752 668.806 549.258 672.837 541.176C675.021 535.682 678.816 530.379 683.073 526.291C692.597 517.145 705.078 515.442 717.705 515.563C710.144 507.264 703.305 498.778 697.682 489.024L687.53 469.124C685.884 467.646 685.039 465.32 684.63 463.202C688.547 462.89 692.542 463.155 696.479 462.904C714.441 461.759 730.163 457.911 746.506 450.253C760.048 443.182 772.378 433.391 782.616 422.053C803.574 398.842 814.285 366.21 812.674 335.071L822.492 334.991C822.487 322.812 818.29 311.704 815.353 300.126L815.108 299.145ZM812.674 335.071C814.285 366.21 803.574 398.842 782.616 422.053C772.378 433.391 760.048 443.182 746.506 450.253C748.087 452.855 750.317 456.483 750.704 459.51C759.022 476.844 771.15 491.314 789.562 498.162C805.464 504.076 824.078 502.903 839.401 495.736C854.361 488.739 866.956 474.834 872.541 459.293C878.798 441.88 878.088 423.08 870.102 406.344C863.438 392.379 851.998 380.768 838.098 373.927C832.786 371.313 826.989 369.502 821.415 367.515C822.158 360.742 823.727 353.046 823.497 346.288C823.371 342.569 822.601 338.808 822.492 334.991L812.674 335.071Z" fill="#CA8413"/>
<path d="M684.63 463.202C688.547 462.89 692.542 463.155 696.479 462.904C714.441 461.759 730.163 457.911 746.506 450.253C748.087 452.855 750.317 456.483 750.704 459.51C747.382 461.751 743.422 463.06 739.644 464.311C728.535 467.987 716.473 470.072 704.743 469.952C699.038 469.893 693.223 468.72 687.53 469.124C685.884 467.646 685.039 465.32 684.63 463.202Z" fill="#B91434"/>
<path d="M812.674 335.071L822.492 334.991C822.601 338.808 823.371 342.569 823.497 346.288C823.727 353.046 822.158 360.742 821.415 367.515C826.989 369.502 832.786 371.313 838.098 373.927C851.998 380.768 863.438 392.379 870.102 406.344C878.088 423.08 878.798 441.88 872.541 459.293C866.956 474.834 854.361 488.739 839.401 495.736C824.078 502.903 805.464 504.076 789.562 498.162C771.15 491.314 759.022 476.844 750.704 459.51C750.317 456.483 748.087 452.855 746.506 450.253C760.048 443.182 772.378 433.391 782.616 422.053C803.574 398.842 814.285 366.21 812.674 335.071ZM819.777 384.271C817.363 392.567 814.624 400.381 810.627 408.067C800.393 427.744 784.29 443.836 766.063 456.165C773.718 469.816 783.211 480.307 798.759 484.702L808 486.518C811.111 486.552 814.432 486.705 817.517 486.272C827.727 484.84 838.386 479.065 845.715 471.916C855.464 462.407 861.186 448.123 861.294 434.563C861.403 420.854 855.747 406.993 845.992 397.336C840.708 392.104 834.783 389.125 827.804 386.741C825.174 385.843 822.333 385.32 819.777 384.271Z" fill="#521631"/>
<path d="M697.682 489.024C712.597 488.809 728.555 487.991 742.49 482.191C746.973 488.51 751.406 494.254 757.212 499.471C768.772 509.858 783.705 516.188 798.922 518.72C817.861 521.871 840.421 516.97 856.032 505.693C875.099 491.92 888.203 472.071 891.88 448.749C895.88 423.384 890.029 398.475 874.79 377.743C868.011 368.521 858.07 359.854 848.125 354.309C844.88 352.5 841.437 350.905 838 349.498C837.308 349.214 835.054 348.641 834.696 348.237C833.518 346.909 832.961 341.628 832.448 339.748C830.909 334.119 828.871 328.947 826.706 323.545C833.358 325.82 840.104 327.954 846.455 331.004C869.307 341.974 891.825 361.901 903.088 384.92C916.173 411.662 917.342 442.471 907.646 470.539C898.718 496.387 877.755 518.753 853.104 530.356C829.128 541.642 800.597 543.396 775.706 534.049C768.047 531.174 760.869 527.177 753.899 522.943L739.748 532.743C739.056 533.215 738.376 533.343 738.396 534.301L738.823 535.899C741.239 544.758 739.481 554.71 734.75 562.506C730.24 569.938 723.123 574.98 714.719 577.074C709.474 578.381 703.664 578.198 698.5 576.61L697.833 576.409C688.954 573.647 682.625 567.627 678.467 559.5C675.53 553.759 674.649 547.308 672.837 541.176C675.021 535.682 678.816 530.379 683.073 526.291C692.597 517.145 705.078 515.442 717.705 515.563C710.144 507.264 703.305 498.778 697.682 489.024Z" fill="#FEC536"/>
<path d="M700.944 533.526C705.44 533.305 710.151 533.906 714 536.439C718.059 539.109 721.118 543.218 721.989 548.054L722.103 548.75C722.794 552.598 722.088 556.273 720.341 559.769C717.474 565.506 712.843 568.139 707.013 570.072C703.248 570.676 698.786 570.364 695.279 568.79C690.724 566.746 687.576 562.019 685.975 557.42C684.428 552.975 685.885 547.206 687.968 543.192C690.808 537.719 695.284 535.349 700.944 533.526Z" fill="#FEFEFE"/>
<path d="M441.957 306.062C441.397 304.655 440.95 303.299 440.621 301.818C438.131 290.635 440.644 279.67 446.837 270.093C451.815 262.396 461.216 256.352 470.144 254.533L471 254.365C477.325 253.079 482.905 253.521 489.188 254.761L486.223 246.789C477.137 220.58 481.821 189.024 493.632 164.42C507.264 136.022 532.661 112.393 562.592 102.03C594.707 90.9115 631.072 90.9092 662 105.98C692.983 121.078 716.06 143.813 729.602 175.817C732.219 182.003 733.318 188.769 735.874 194.981C737.423 198.746 739.835 202.191 741.754 205.779C744.62 211.137 746.879 216.807 748.86 222.542C743.486 221.576 738.125 218.876 732.954 217.093C720.187 212.691 707.705 210.604 694.216 210.469L678.682 210.001C679.205 213.585 680.046 217.331 680.075 220.948C667.693 221.748 652.474 224.515 641.77 231.029C625.114 239.564 611.216 249.824 599.25 264.331C596.118 268.128 592.946 271.987 590.682 276.383C587.116 283.585 583.16 290.726 580.316 298.25C577.511 305.67 575.852 313.255 573.842 320.897L571.648 340.296C570.929 340.212 570.34 340.076 569.646 339.852L558.769 336.622C555.257 334.587 550.867 333.386 547.176 331.519C536.234 325.984 528.072 318.879 519.557 310.231L513.097 320.337C506.789 328.51 497.45 334.173 487.169 335.502L486.25 335.613C478.258 336.679 469.449 334.911 462.345 331.113C452.202 325.689 445.239 317.094 441.957 306.062ZM590.682 276.383C592.946 271.987 596.118 268.128 599.25 264.331C611.216 249.824 625.114 239.564 641.77 231.029C652.474 224.515 667.693 221.748 680.075 220.948C680.046 217.331 679.205 213.585 678.682 210.001C671.963 188.115 659.844 170.394 639.177 159.338C628.131 153.429 613.984 150.432 601.5 151.915C583.764 154.022 566.141 162.357 554.767 176.432C544.659 188.941 538.873 206.422 540.611 222.531C542.365 238.797 550.491 254.252 563.355 264.448C571.505 270.908 580.809 273.767 590.682 276.383Z" fill="#FCDA53"/>
<path d="M472.994 264.519C477.214 264.535 481.433 265.132 485.148 267.228C489.429 269.644 492.931 274.286 494.181 278.998C495.371 283.484 494.409 289.654 491.957 293.533C488.835 298.474 484.003 301.128 478.466 302.558C474.247 302.677 470.76 302.661 466.852 300.83C462.262 298.679 458.496 294.347 456.83 289.58C455.178 284.852 455.63 279.756 457.909 275.292C461.229 268.789 466.458 266.572 472.994 264.519Z" fill="#FEFEFE"/>
<path d="M595.294 107.708L598.737 107.572C613.592 107.254 627.957 111.174 641.48 117.067C645.181 118.68 649.615 120.447 652.562 123.256C629.07 118.513 603.877 115.23 580.472 122.486C555.204 130.32 529.952 149.616 517.628 173.221C514.856 178.273 512.587 183.557 510.538 188.937L505.285 203.679C503.976 207.391 502.999 211.152 500 213.899L498.891 213.75C496.743 211.267 496.061 208.862 495.761 205.647C495.291 200.609 496.245 195.63 497.216 190.71C500.388 174.628 506.68 159.076 517.25 146.4C522.068 140.621 527.089 134.991 532.937 130.224C550.94 115.549 572.588 109.699 595.294 107.708Z" fill="#FEFEFE"/>
<path d="M441.957 306.062C445.552 307.909 448.523 311.007 451.625 313.561C455.397 316.666 460.665 319.559 465.265 321.272C476.692 325.527 487.05 324.586 498 319.518C504.783 316.38 511.301 310.302 514.85 303.72C517.124 299.503 518.645 294.811 520.341 290.337C533.111 302.586 546.091 310.585 562.403 317.228C564.966 305.55 568.907 296.117 573.994 285.3C565.27 281.792 557.285 278.139 549.942 272.171C535.994 260.834 527.159 241.603 525.347 223.921C523.25 203.462 531.158 181.016 544.076 165.226C557.634 148.652 577.354 138.197 598.633 136.232C621.978 134.075 644.807 140.676 662.969 155.589C680.177 169.718 689.703 189.039 694.216 210.469L678.682 210.001C671.963 188.115 659.844 170.394 639.177 159.338C628.131 153.429 613.984 150.432 601.5 151.915C583.764 154.022 566.141 162.357 554.767 176.432C544.659 188.941 538.873 206.422 540.611 222.531C542.365 238.797 550.491 254.252 563.355 264.448C571.505 270.908 580.809 273.767 590.682 276.383C587.116 283.585 583.16 290.726 580.316 298.25C577.511 305.67 575.852 313.255 573.842 320.897L571.648 340.296C570.929 340.212 570.34 340.076 569.646 339.852L558.769 336.622C555.257 334.587 550.867 333.386 547.176 331.519C536.234 325.984 528.072 318.879 519.557 310.231L513.097 320.337C506.789 328.51 497.45 334.173 487.169 335.502L486.25 335.613C478.258 336.679 469.449 334.911 462.345 331.113C452.202 325.689 445.239 317.094 441.957 306.062Z" fill="#CA8413"/>
<path d="M558.769 336.622L562.304 317.24C566.129 318.108 570.5 318.774 573.842 320.897L571.648 340.296C570.929 340.212 570.34 340.076 569.646 339.852L558.769 336.622Z" fill="#704C2C"/>
<path d="M590.682 276.383C580.809 273.767 571.505 270.908 563.355 264.448C550.491 254.252 542.365 238.797 540.611 222.531C538.873 206.422 544.659 188.941 554.767 176.432C566.141 162.357 583.764 154.022 601.5 151.915C613.984 150.432 628.131 153.429 639.177 159.338C659.844 170.394 671.963 188.115 678.682 210.001C679.205 213.585 680.046 217.331 680.075 220.948C667.693 221.748 652.474 224.515 641.77 231.029C625.114 239.564 611.216 249.824 599.25 264.331C596.118 268.128 592.946 271.987 590.682 276.383ZM605.669 166.699C589.838 168.472 576.146 173.479 565.906 186.301C558.116 196.056 554.231 209.232 555.657 221.657C557.053 233.832 563.201 244.766 572.89 252.25C576.554 255.08 580.599 257.034 584.566 259.369L598.541 243.453C616.174 226.124 638.675 214.365 662.96 209.572C658.739 194.887 648.281 181.173 634.812 173.738C625.944 168.842 615.846 166.064 605.669 166.699Z" fill="#521631"/>
<path d="M680.075 220.948C694.324 221.122 707.338 221.673 721.309 224.673C741.997 229.835 758.063 239.25 773.553 253.918C779.547 259.592 785.531 266.029 789.819 273.111C790.297 273.9 790.843 274.735 791.194 275.583C801.735 288.476 807.284 307.493 810.716 323.547C811.533 327.371 811.772 331.281 812.674 335.071C814.285 366.21 803.574 398.842 782.616 422.053C772.378 433.391 760.048 443.182 746.506 450.253C730.163 457.911 714.441 461.759 696.479 462.904C692.542 463.155 688.547 462.89 684.63 463.202C675.618 465.379 666.196 468.375 658.469 473.627C654.797 476.123 651.753 479.283 648.678 482.457L634.637 467.863L542.577 377.512C555.094 367.007 565.882 355.877 571.648 340.296L573.842 320.897C575.852 313.255 577.511 305.67 580.316 298.25C583.16 290.726 587.116 283.585 590.682 276.383C592.946 271.987 596.118 268.128 599.25 264.331C611.216 249.824 625.114 239.564 641.77 231.029C652.474 224.515 667.693 221.748 680.075 220.948Z" fill="#FEC536"/>
<path d="M680.075 220.948C694.324 221.122 707.338 221.673 721.309 224.673C720.507 225.224 719.985 225.638 719 225.8C716.454 226.22 713.305 225.511 710.639 225.613L680.187 226.801C674.954 226.907 669.724 227.266 664.553 228.108L649.615 231.096C647.972 231.381 645.661 232.018 644.013 231.797C643.216 231.691 642.496 231.347 641.77 231.029C652.474 224.515 667.693 221.748 680.075 220.948Z" fill="#F4AE24"/>
<path d="M653.714 367.69C656.115 367.388 659.484 366.915 661.734 367.976C663.19 368.663 664.583 370 665.127 371.534C666.558 375.571 664.349 382.556 663.713 386.817C662.424 395.464 662.292 407.527 657.988 415.274C655.744 419.313 652.088 421.971 647.655 423.163C643.92 424.168 639.777 423.523 636.5 421.482C634 419.926 631.715 417.128 631.123 414.207C630.215 409.737 633.942 404.449 636.199 400.847L640.734 394.1C635.413 396.936 629.416 400.586 623.506 401.955C620.598 402.629 617.301 401.942 614.85 400.25C611.617 398.019 608.997 394.669 608.3 390.75C607.592 386.768 608.469 382.373 610.906 379.104C616.769 371.239 628.41 370.954 637.214 369.873L653.714 367.69Z" fill="#57342B"/>
<path d="M685.276 233.207L685.69 233.157C691.6 232.761 700.449 232.37 705.209 236.414C706.918 237.867 708.506 239.832 708.535 242.189C708.595 247.021 703.594 250.657 699.704 252.603C691.641 256.635 681.466 257.609 672.774 259.921C645.3 267.227 618.821 279.604 598.985 300.314C596.874 302.995 594.709 305.772 593.033 308.75C591.594 311.306 590.693 314.152 589.239 316.732C590.075 309.361 591.368 301.544 593.946 294.573C597.381 285.287 603.176 276.694 609.509 269.149C628.789 246.182 656.047 235.681 685.276 233.207Z" fill="#FEFEFE"/>
<path d="M717.316 337.622C726.791 336.564 736.847 339.697 744.34 345.548C751.933 351.478 757.478 361.246 758.524 370.848C759.647 381.163 756.385 391.771 749.722 399.672C742.974 407.672 733.965 411.906 723.622 412.757C719.77 413.464 715.31 412.789 711.537 411.921C701.692 409.657 693.072 403.396 687.847 394.773C683.161 387.039 680.989 377.577 683.231 368.671L683.473 367.75C684.735 362.741 686.513 358.379 689.401 354.079C696.099 344.103 705.908 339.803 717.316 337.622Z" fill="#57342B"/>
<path d="M716.527 342.181C723.728 341.751 731.41 342.502 737.75 346.221C745.974 351.047 751.277 358.899 753.579 368.049C755.447 375.472 754.084 385.163 750.092 391.731C744.35 401.175 735.917 405.913 725.442 408.366C716.658 409.629 707.886 408.218 700.453 403.102C693.471 398.296 688.428 389.768 686.952 381.492L686.8 380.59C686.15 376.868 686.16 372.517 687.141 368.853L687.381 368C688.683 363.228 690.532 359.053 693.56 355.131C699.409 347.559 707.056 343.345 716.527 342.181Z" fill="#704C2C"/>
<path d="M654.833 275.656C658.164 275.477 661.245 275.521 664.525 276.293C674.761 278.702 683.483 284.879 688.97 293.923C694.132 302.433 695.756 312.333 693.517 322C692.419 326.74 690.476 331.151 687.75 335.184C680.663 345.665 670.66 350.104 658.625 352.49C649.753 352.582 640.909 351.582 633.383 346.331C625.12 340.565 619.507 331.556 617.781 321.64C616.006 311.444 618.426 301.12 624.514 292.75C632.274 282.081 642.111 277.697 654.833 275.656Z" fill="#57342B"/>
<path d="M653.861 279.619C656.889 279.379 659.996 279.622 663 280.031C670.228 281.015 678.408 286.009 682.712 291.867C688.308 299.483 691.71 308.444 690.216 317.997L690.09 318.75C689.229 324.17 687.374 329.082 684.074 333.5C677.654 342.098 669.129 346.312 658.616 347.892C655.518 347.984 652.473 348.106 649.394 347.671C644.131 346.928 639.696 345.696 635.214 342.779C628.358 338.317 624.114 330.636 622.481 322.765C620.587 313.636 621.932 303.797 627.197 295.978C633.893 286.032 642.381 281.854 653.861 279.619Z" fill="#704C2C"/>
<path d="M791.194 275.583C801.735 288.476 807.284 307.493 810.716 323.547C811.533 327.371 811.772 331.281 812.674 335.071C814.285 366.21 803.574 398.842 782.616 422.053C772.378 433.391 760.048 443.182 746.506 450.253C730.163 457.911 714.441 461.759 696.479 462.904C692.542 463.155 688.547 462.89 684.63 463.202C675.618 465.379 666.196 468.375 658.469 473.627C654.797 476.123 651.753 479.283 648.678 482.457L634.637 467.863C639.164 462.575 643.404 457.435 649.198 453.456C660.903 445.415 674.455 442.311 688.115 439.28C695.309 437.684 702.49 436.165 709.455 433.706C733.014 425.392 753.13 410.146 768.349 390.463C787.585 365.583 796.189 333.379 794.493 302.25C794.006 293.298 792.356 284.455 791.194 275.583Z" fill="#CA8413"/>
<defs>
<linearGradient id="paint0_linear_1_14417" x1="842.231" y1="183.191" x2="774.945" y2="213.346" gradientUnits="userSpaceOnUse">
<stop stop-color="#FF4B63"/>
<stop offset="1" stop-color="#FF908A"/>
</linearGradient>
</defs>
</svg>
