<svg width="24" height="24" viewBox="0 0 24 24" fill="none" xmlns="http://www.w3.org/2000/svg">
<path d="M4.11343 3.85874C4.11343 3.62249 4.01441 3.405 3.85825 3.25126C3.69829 3.09751 3.4812 3 3.24128 3C2.7614 3 2.36914 3.38251 2.36914 3.85874V4.39125H4.11343V3.85874Z" fill="#F87C56"/>
<path d="M2.36719 20.1412C2.36719 20.6174 2.75947 20.9999 3.23933 20.9999C3.47927 20.9999 3.69635 20.9024 3.8563 20.7486C4.01244 20.5949 4.11147 20.3774 4.11147 20.1412V19.6086H2.36719V20.1412Z" fill="#F87C56"/>
<path d="M21.631 3.85874C21.631 3.38249 21.2387 3 20.7589 3C20.5189 3 20.3018 3.0975 20.1419 3.25126C19.9857 3.405 19.8867 3.62251 19.8867 3.85874V4.39125H21.631V3.85874Z" fill="#F87C56"/>
<path d="M19.8867 20.1412C19.8867 20.3774 19.9857 20.5949 20.1419 20.7486C20.3019 20.9024 20.5189 20.9999 20.7589 20.9999C21.2387 20.9999 21.631 20.6174 21.631 20.1412V19.6086H19.8867V20.1412Z" fill="#F87C56"/>
<path d="M6.2406 9.28503C6.34343 9.17628 6.46911 9.09377 6.60242 9.02251C7.16608 8.71503 7.84781 8.62503 8.4762 8.77877C8.74661 8.84252 8.99796 8.95127 9.26837 9.02626C9.74826 9.15751 10.2662 9.17626 10.7575 9.07876C10.9898 9.03751 11.226 8.95876 11.3973 8.7975C11.5306 8.67 11.6144 8.50499 11.6716 8.32499C11.8201 7.87125 11.7896 7.37625 11.8886 6.90751C11.9267 6.72376 11.9877 6.54377 12.0638 6.375H18.3022C18.2908 6.285 18.2756 6.195 18.2641 6.105C18.2603 6.07125 18.2565 6.0375 18.2565 6C18.2565 5.86875 18.2718 5.745 18.3022 5.625H5.696C5.72646 5.745 5.7417 5.86874 5.7417 6C5.7417 6.0375 5.73789 6.07125 5.73408 6.105C5.53223 7.51125 5.39893 8.93627 5.3418 10.3611C5.5665 10.2299 5.75692 10.0537 5.89783 9.8324C6.01589 9.64866 6.09589 9.45 6.2406 9.28503Z" fill="#F87C56"/>
<path d="M18.6797 12.8738C18.2037 13.0913 17.7847 13.4138 17.5524 13.8675C17.4001 14.1601 17.3163 14.5163 17.0307 14.6925C16.8593 14.7975 16.646 14.8088 16.4403 14.8163C15.8272 14.8388 15.214 14.8425 14.6008 14.8313C14.0143 14.8163 13.3592 14.8163 12.9365 15.2175C12.5976 15.5438 12.4985 16.0725 12.1215 16.3575C11.912 16.515 11.6454 16.5788 11.4359 16.7288C11.1427 16.9388 11.0094 17.2688 10.9561 17.625H8.40064C8.40064 17.4188 8.22926 17.25 8.01979 17.25C7.81032 17.25 7.63894 17.4188 7.63894 17.625H5.69658C5.70801 17.715 5.72324 17.805 5.73467 17.895C5.73848 17.9288 5.74228 17.9625 5.74228 18C5.74228 18.1275 5.71943 18.2513 5.66992 18.375H18.3295C18.28 18.2513 18.2572 18.1276 18.2572 18C18.2572 17.9625 18.261 17.9288 18.2648 17.895C18.5047 16.2376 18.6455 14.55 18.6797 12.8738Z" fill="#F87C56"/>
<path d="M16.5055 7.56379C16.3569 7.41754 16.117 7.41754 15.9685 7.56379L15.4315 8.09253L14.8945 7.56379C14.746 7.41754 14.506 7.41754 14.3575 7.56379C14.209 7.71004 14.209 7.9463 14.3575 8.09253L14.8945 8.62127L14.3575 9.15002C14.209 9.29627 14.209 9.53253 14.3575 9.67876C14.4337 9.75376 14.5289 9.78751 14.6279 9.78751C14.7269 9.78751 14.8221 9.75001 14.8983 9.67876L15.4353 9.15002L15.9723 9.67876C16.0485 9.75376 16.1437 9.78751 16.2427 9.78751C16.3417 9.78751 16.4369 9.75001 16.5131 9.67876C16.6617 9.53251 16.6617 9.29625 16.5131 9.15002L15.9761 8.62127L16.5131 8.09253C16.6617 7.94628 16.6617 7.71002 16.5131 7.56379H16.5055Z" fill="#F87C56"/>
<path d="M11.8789 12.4387C11.6694 12.4387 11.498 12.6075 11.498 12.8137C11.498 13.02 11.6694 13.1887 11.8789 13.1887H12.5949C12.8044 13.1887 12.9757 13.02 12.9757 12.8137C12.9757 12.6075 12.8044 12.4387 12.5949 12.4387H11.8789Z" fill="#F87C56"/>
<path d="M14.4185 12.1051C14.2624 12.2213 14.091 12.3113 13.9082 12.3676C13.7063 12.4276 13.5921 12.6376 13.6568 12.8363C13.7063 12.9976 13.8587 13.1026 14.0186 13.1026C14.0567 13.1026 14.0948 13.0951 14.1329 13.0838C14.4033 13.0013 14.6585 12.8701 14.887 12.6976C15.0508 12.5701 15.0812 12.3338 14.9517 12.1726C14.8222 12.0076 14.5861 11.9776 14.4185 12.1051Z" fill="#F87C56"/>
<path d="M10.443 12.4387H10.024C9.90598 12.4387 9.78792 12.4462 9.67366 12.465C9.46419 12.495 9.32328 12.6862 9.35375 12.8887C9.38041 13.0762 9.54417 13.2112 9.72697 13.2112C9.74601 13.2112 9.76505 13.2075 9.7841 13.2075C9.86027 13.1962 9.94025 13.1887 10.024 13.1887H10.443C10.6563 13.1887 10.8238 13.02 10.8238 12.8137C10.8238 12.6075 10.6563 12.4387 10.443 12.4387Z" fill="#F87C56"/>
<path d="M8.49941 14.2386C8.56415 14.0586 8.66317 13.8936 8.78885 13.7474C8.92596 13.5899 8.90692 13.3536 8.74696 13.2186C8.587 13.0836 8.34707 13.1024 8.20996 13.2599C8.02335 13.4736 7.87862 13.7174 7.78341 13.9799C7.71105 14.1749 7.81007 14.3924 8.00811 14.4599C8.05382 14.4786 8.09571 14.4861 8.14141 14.4861C8.29375 14.4861 8.44227 14.3886 8.49941 14.2386Z" fill="#F87C56"/>
<path d="M7.63867 15.5061V16.2148C7.63867 16.4211 7.81005 16.5898 8.01952 16.5898C8.22899 16.5898 8.40037 16.4211 8.40037 16.2148V15.5061C8.40037 15.2999 8.22899 15.1311 8.01952 15.1311C7.81005 15.1311 7.63867 15.2999 7.63867 15.5061Z" fill="#F87C56"/>
<path d="M15.3161 11.5838C15.339 11.5876 15.3656 11.5913 15.3885 11.5913C15.5675 11.5913 15.7275 11.4676 15.7617 11.2876C15.7922 11.1413 15.8036 10.9913 15.8036 10.8413C15.8036 10.6351 15.6322 10.4663 15.4228 10.4663C15.2133 10.4663 15.0419 10.6351 15.0419 10.8413C15.0419 10.9426 15.0305 11.0438 15.0114 11.1451C14.9696 11.3476 15.1067 11.5463 15.3123 11.5838L15.3161 11.5838Z" fill="#F87C56"/>
<path d="M4.11263 5.14136H2.37214C2.13221 5.14136 1.91512 5.23886 1.75518 5.39261C1.50763 5.63636 1.5 5.9401 1.5 6.0001C1.82372 8.22384 1.93416 10.2488 1.93416 12.0001C1.93416 14.2463 1.75135 16.2639 1.5 18.0001C1.5 18.4726 1.88848 18.8588 2.37214 18.8588H4.11263C4.97717 18.3638 4.98477 18.0601 4.98477 18.0001C4.73342 16.2638 4.55061 14.2462 4.55061 12.0001C4.55061 9.75393 4.73342 7.73625 4.98477 6.0001C4.98477 5.52759 4.59629 5.14136 4.11263 5.14136Z" fill="#F87C56"/>
<path d="M22.5004 6.0001C22.5004 5.94385 22.4928 5.6401 22.2452 5.39261C22.0891 5.23886 21.8682 5.14136 21.6283 5.14136H19.8878C19.4079 5.14136 19.0156 5.52387 19.0156 6.0001C19.267 7.73635 19.4498 9.75393 19.4498 12.0001C19.4498 14.2462 19.267 16.2639 19.0156 18.0001C19.0156 18.0563 19.0232 18.3601 19.8878 18.8588H21.6283C22.1081 18.8588 22.5004 18.4763 22.5004 18.0001C22.249 16.2638 22.0662 14.2462 22.0662 12.0001C22.0662 10.2488 22.1767 8.22393 22.5004 6.0001Z" fill="#F87C56"/>
</svg>
