<svg width="160" height="160" viewBox="0 0 160 160" fill="none" xmlns="http://www.w3.org/2000/svg">
<path d="M79.6494 0C81.7608 0.00506265 83.8682 0.0987844 85.9717 0.281164C89.546 0.611028 93.0926 1.36173 96.5438 2.3322C107.074 5.29334 116.798 10.7598 123.85 19.2419C130.78 27.578 133.324 38.9047 132.336 49.54C130.903 64.9602 122.662 77.4675 110.955 87.2092C111.798 87.9908 112.783 88.6654 113.675 89.3964C115.187 90.6372 116.623 91.9607 117.982 93.3669C124.963 100.651 130.044 110.077 131.199 120.195C131.693 124.528 131.544 128.883 131.547 133.234C131.551 138.513 131.653 143.81 131.54 149.086C133.268 149.059 136.648 148.627 137.952 149.833C138.574 150.409 138.821 151.213 138.848 152.041C138.89 153.373 139.063 156.554 138.783 157.716C138.66 158.226 138.423 158.69 138.054 159.066C137.665 159.463 137.003 159.805 136.451 159.869C134.473 160.096 132.347 159.952 130.35 159.952L118.891 159.952L80.6369 159.96L42.1622 159.956L30.5345 159.942C28.4492 159.945 26.2784 160.08 24.2054 159.928C23.3754 159.867 22.6732 159.769 22.0199 159.207C21.3052 158.591 21.0135 157.768 20.9737 156.844C20.9264 155.747 20.8898 152.117 21.1052 151.223C21.2232 150.734 21.4568 150.276 21.8082 149.913C22.1638 149.545 22.6149 149.307 23.1075 149.178C24.4272 148.833 27.074 149.03 28.5224 149.032C28.3953 143.752 28.4917 138.471 28.4948 133.19C28.497 129.62 28.3175 126.018 28.5873 122.456C28.615 122.125 28.6462 121.795 28.6809 121.464C28.7157 121.134 28.754 120.804 28.7958 120.475C28.8375 120.145 28.8828 119.816 28.9318 119.488C28.9806 119.159 29.0329 118.831 29.0887 118.504C29.1446 118.177 29.2039 117.85 29.2667 117.524C29.3295 117.198 29.3958 116.872 29.4655 116.548C29.5354 116.223 29.6087 115.899 29.6854 115.576C29.762 115.253 29.8421 114.93 29.9258 114.609C30.0094 114.288 30.0964 113.967 30.1868 113.648C30.2773 113.328 30.3712 113.01 30.4684 112.692C30.5657 112.375 30.6663 112.058 30.7704 111.743C30.8744 111.427 30.9817 111.113 31.0925 110.8C31.2032 110.487 31.3173 110.175 31.4347 109.864C31.5521 109.554 31.6729 109.244 31.797 108.936C31.9209 108.628 32.0482 108.321 32.1789 108.016C32.3095 107.711 32.4434 107.407 32.5804 107.104C32.7175 106.802 32.8578 106.501 33.0013 106.201C33.1448 105.902 33.2915 105.604 33.4414 105.307C33.5913 105.011 33.7444 104.716 33.9006 104.423C34.0567 104.13 34.216 103.839 34.3784 103.549C34.5408 103.26 34.7063 102.972 34.8749 102.685C35.0435 102.399 35.2152 102.115 35.3899 101.833C35.5645 101.55 35.7421 101.269 35.9228 100.991C36.1034 100.712 36.287 100.435 36.4735 100.161C36.6601 99.8859 36.8496 99.6132 37.0421 99.3424C37.2344 99.0718 37.4297 98.8032 37.6279 98.5366C37.826 98.2701 38.027 98.0058 38.2308 97.7435C38.4346 97.4813 38.6412 97.2213 38.8506 96.9636C39.0598 96.7057 39.2719 96.4501 39.4867 96.1969C39.7015 95.9436 39.9191 95.6927 40.1393 95.4441C40.3595 95.1955 40.5823 94.9492 40.8077 94.7054C41.0331 94.4615 41.2612 94.2201 41.4918 93.9811C43.8622 91.4947 46.4452 89.4025 49.0397 87.1738C47.7262 86.205 46.473 85.0885 45.2922 83.9619C34.621 73.7819 28.0852 61.3105 27.7457 46.3817C27.486 34.9616 30.6182 25.1218 38.6034 16.7772C49.3625 5.53405 64.3033 0.313421 79.6494 0Z" fill="#0D0D0D"/>
<path d="M79.5785 57.0977C79.897 57.0703 80.1757 57.0753 80.4845 57.1676C82.2343 57.6895 84.5956 62.1831 85.4701 63.8423C86.4602 65.7203 87.9939 68.1373 87.2694 70.3228C86.9562 71.2674 86.3083 72.0787 85.4035 72.5123C84.4266 72.9803 83.4275 72.97 82.4315 72.5718C81.3356 72.1336 80.6952 71.318 80.2304 70.2741C80.1797 70.1292 80.1145 69.9987 80.0445 69.8622C79.4752 70.2721 79.531 71.4975 77.9536 72.3326C77.0423 72.8152 75.9349 72.9305 74.9539 72.5935C74.0903 72.2965 73.358 71.6199 72.9729 70.7945C72.414 69.5975 72.5478 68.3333 73.0058 67.1377C73.8696 64.8826 76.5056 59.8434 78.0717 58.1588C78.517 57.6798 78.9832 57.362 79.5785 57.0977Z" fill="white"/>
<path d="M35.6081 34.6378C46.8645 34.5057 56.6675 35.1322 67.2379 39.4076C70.5519 40.748 73.8463 42.3774 76.5432 44.7656C75.9262 48.9706 74.3035 52.3836 70.8837 55.061C70.7784 55.1426 70.6722 55.2229 70.565 55.3019C70.4579 55.3808 70.3497 55.4583 70.2405 55.5346C70.1315 55.6109 70.0215 55.6858 69.9105 55.7594C69.7995 55.8329 69.6877 55.9051 69.5749 55.9758C69.4621 56.0466 69.3485 56.116 69.234 56.184C69.1195 56.2519 69.0043 56.3184 68.8882 56.3835C68.772 56.4487 68.6551 56.5124 68.5373 56.5745C68.4197 56.6368 68.3013 56.6976 68.182 56.7568C68.0628 56.8161 67.9429 56.8739 67.8223 56.9302C67.7016 56.9864 67.5803 57.0413 67.4584 57.0946C67.3364 57.1479 67.2137 57.1997 67.0904 57.2499C66.9671 57.3002 66.8433 57.3489 66.7188 57.3961C66.5943 57.4434 66.4693 57.489 66.3437 57.5331C66.218 57.5772 66.0919 57.6197 65.9652 57.6608C65.8385 57.7017 65.7114 57.741 65.5838 57.7789C65.4561 57.8168 65.328 57.853 65.1995 57.8877C65.0709 57.9223 64.942 57.9554 64.8127 57.9869C64.6833 58.0183 64.5536 58.0481 64.4235 58.0764C64.2933 58.1046 64.1629 58.1313 64.0321 58.1564C63.9014 58.1814 63.7703 58.2048 63.639 58.2266C63.5077 58.2483 63.3761 58.2684 63.2442 58.2869C63.1125 58.3055 62.9804 58.3223 62.8481 58.3376C62.7159 58.3529 62.5835 58.3665 62.4509 58.3785C62.3183 58.3904 62.1856 58.4007 62.0528 58.4093C61.9199 58.418 61.7869 58.4251 61.6539 58.4305C61.5209 58.4358 61.3878 58.4395 61.2547 58.4417C61.1216 58.4437 60.9885 58.4442 60.8554 58.443C60.7222 58.4418 60.5892 58.4389 60.4562 58.4344C60.3231 58.4299 60.19 58.4237 60.0571 58.4159C59.9243 58.4081 59.7915 58.3987 59.6588 58.3876C59.5261 58.3765 59.3936 58.3638 59.2613 58.3495C59.129 58.3351 58.9968 58.3191 58.8648 58.3015C55.643 57.8942 52.5305 56.4015 50.5199 53.7993C48.9013 51.7046 48.3451 48.9619 48.7057 46.3618C49.2176 42.6706 51.4522 39.9113 54.3328 37.7299C53.2058 37.4526 52.0094 37.3557 50.8584 37.2063C47.0699 36.7151 43.3202 36.4579 39.4988 36.5173C38.6838 38.9989 38.3894 41.5793 38.4396 44.1819C38.4451 44.4985 38.4555 44.8148 38.4707 45.1308C38.486 45.447 38.5061 45.7629 38.5311 46.0784C38.5561 46.394 38.5859 46.7091 38.6206 47.0238C38.6552 47.3384 38.6946 47.6523 38.7389 47.9657C38.7832 48.2792 38.8323 48.5919 38.8862 48.9038C38.94 49.2157 38.9987 49.5267 39.0622 49.8367C39.1256 50.1469 39.1937 50.456 39.2666 50.764C39.3396 51.072 39.4172 51.3788 39.4995 51.6844C39.5819 51.9901 39.6689 52.2944 39.7605 52.5974C39.8522 52.9003 39.9485 53.2018 40.0496 53.5019C40.1505 53.8018 40.256 54.1001 40.366 54.3969C40.4762 54.6937 40.5908 54.9887 40.71 55.2819C40.8291 55.5751 40.9527 55.8665 41.0808 56.156C41.209 56.4454 41.3415 56.7328 41.4783 57.0181C41.6153 57.3036 41.7566 57.5869 41.9023 57.8679C42.0478 58.1489 42.1977 58.4277 42.352 58.7041C42.5061 58.9805 42.6645 59.2545 42.8271 59.526C42.9897 59.7977 43.1565 60.0667 43.3273 60.3331C43.4982 60.5995 43.6731 60.8633 43.852 61.1245C44.031 61.3855 44.2139 61.6438 44.4008 61.8993C44.5877 62.1547 44.7785 62.4072 44.9731 62.6568C45.1677 62.9065 45.3661 63.1531 45.5684 63.3966C45.7706 63.6401 45.9765 63.8805 46.1861 64.1177C46.3957 64.3549 46.6089 64.5888 46.8257 64.8194C47.0424 65.0501 47.2626 65.2773 47.4864 65.5012C47.7101 65.7251 47.9373 65.9455 48.1678 66.1625C48.3984 66.3793 48.6322 66.5926 48.8692 66.8024C49.1063 67.0121 49.3465 67.2182 49.5898 67.4205C49.8332 67.6229 50.0797 67.8215 50.3292 68.0164C50.5787 68.2111 50.8312 68.4019 51.0866 68.589C51.3419 68.7761 51.6 68.9592 51.8611 69.1383C52.122 69.3175 52.3856 69.4925 52.652 69.6635C53.5782 70.2667 54.5273 70.8312 55.4994 71.357C57.3491 72.3429 59.2533 73.1599 60.7791 74.6418C63.3054 77.0949 63.4992 80.1211 63.4724 83.4381C63.4588 85.1184 63.4121 86.8067 63.4438 88.4864C63.4656 89.6421 63.7797 90.6998 64.6503 91.5064C66.1278 92.8751 68.8677 92.4029 70.7428 92.3514C70.7299 90.175 70.728 87.9986 70.737 85.8222C70.7386 85.0823 70.6475 84.3028 70.7026 83.5698C70.7194 83.3452 70.7738 83.0618 70.9099 82.8757C71.0523 82.6809 71.2527 82.5477 71.4939 82.5112C71.719 82.4771 71.9204 82.4973 72.0989 82.6528C72.3221 82.847 72.4075 83.1637 72.4499 83.4444C72.5698 84.2366 72.4613 85.1088 72.4635 85.9112L72.4904 92.3422C74.7305 92.3676 76.9722 92.3468 79.2125 92.3425C79.2106 91.2879 79.0121 83.5411 79.375 83.0028C79.4949 82.825 79.6718 82.7214 79.8858 82.7038C80.141 82.6828 80.5197 82.7965 80.6928 82.9945C81.1045 83.4655 80.8986 91.1709 80.8935 92.361L87.5928 92.3266L87.6277 86.5292C87.6267 85.6125 87.5279 84.6521 87.6194 83.7407C87.656 83.3742 87.7294 82.9124 87.9574 82.6095C88.0915 82.4312 88.1942 82.4093 88.4054 82.381C88.6439 82.4641 88.8082 82.5561 88.9884 82.7377C89.1977 82.9486 89.2838 83.2128 89.3121 83.5044C89.3955 84.3606 89.2948 85.3269 89.2923 86.1945C89.2839 88.2421 89.2881 90.2897 89.3048 92.3373C90.6672 92.3456 92.6086 92.5521 93.8963 92.2005C95.0932 91.8735 95.9491 90.886 96.2571 89.7033C96.5027 88.7596 96.4279 87.726 96.4166 86.7588C96.3772 83.4503 95.8643 79.3048 97.6823 76.3696C99.7383 73.0501 103.347 72.338 106.469 70.441C106.738 70.2783 107.005 70.1115 107.269 69.9406C107.533 69.7698 107.794 69.5949 108.052 69.4162C108.311 69.2374 108.567 69.0547 108.82 68.8682C109.073 68.6817 109.323 68.4914 109.57 68.2972C109.818 68.1031 110.062 67.9052 110.303 67.7036C110.544 67.5021 110.782 67.297 111.018 67.0881C111.253 66.8794 111.484 66.6671 111.713 66.4513C111.941 66.2356 112.167 66.0163 112.389 65.7936C112.611 65.571 112.829 65.345 113.044 65.1157C113.259 64.8865 113.471 64.6539 113.679 64.4182C113.887 64.1826 114.091 63.9438 114.292 63.7019C114.493 63.4599 114.69 63.215 114.883 62.9672C115.077 62.7193 115.266 62.4685 115.452 62.2149C115.637 61.9612 115.819 61.7048 115.997 61.4457C116.175 61.1866 116.349 60.9248 116.519 60.6604C116.689 60.3959 116.855 60.129 117.017 59.8595C120.471 53.9863 122.236 46.9758 121.297 40.1814C121.129 38.9674 120.817 37.7808 120.512 36.5954C115.696 36.4266 110.846 37.096 106.084 37.7328C107.729 39.4167 109.205 41.0838 110.176 43.2608C111.288 45.7533 111.714 48.7792 110.697 51.3728C109.629 54.096 107.231 56.1464 104.599 57.2926C101.084 58.8236 96.9025 58.786 93.3493 57.3889C89.1818 55.7502 86.1671 52.7321 84.3779 48.6592C83.8333 47.385 83.6488 46.015 83.4341 44.6574C83.6518 44.4791 83.8727 44.3046 84.0967 44.134C85.8997 42.7642 87.865 41.6593 89.8869 40.6492C98.2286 36.4825 107.492 34.9412 116.753 34.7527C119.241 34.702 121.943 34.6239 124.408 34.9669C125.267 38.6275 125.583 42.155 125.521 45.9133C125.394 53.6841 122.853 61.948 118.706 68.5152C116.49 72.0244 113.815 75.1542 110.878 78.0748C109.556 79.3928 108.175 80.6463 106.736 81.8352C105.751 82.6528 104.67 83.4218 103.758 84.3172C102.905 85.1544 102.336 86.1612 102.345 87.3844C102.35 88.2148 102.613 89.097 103.137 89.7494C104.15 91.01 105.773 91.7857 107.049 92.7621C109.206 94.4124 111.335 96.1811 113.235 98.1258C113.467 98.3591 113.696 98.5951 113.921 98.834C114.147 99.0728 114.37 99.3144 114.59 99.5589C114.81 99.8032 115.027 100.05 115.24 100.3C115.454 100.55 115.665 100.802 115.872 101.057C116.08 101.312 116.284 101.569 116.486 101.829C116.687 102.089 116.885 102.351 117.08 102.616C117.275 102.881 117.466 103.148 117.654 103.417C117.842 103.687 118.027 103.959 118.209 104.233C118.39 104.507 118.568 104.783 118.743 105.061C118.918 105.34 119.089 105.62 119.257 105.903C119.425 106.186 119.589 106.47 119.75 106.757C119.911 107.044 120.068 107.332 120.222 107.623C120.375 107.914 120.525 108.206 120.672 108.5C120.818 108.795 120.961 109.091 121.101 109.388C121.24 109.686 121.375 109.986 121.507 110.287C121.639 110.588 121.767 110.89 121.891 111.195C122.016 111.499 122.136 111.805 122.253 112.112C122.37 112.419 122.483 112.728 122.592 113.038C122.702 113.348 122.807 113.659 122.909 113.972C123.01 114.285 123.108 114.598 123.202 114.913C123.296 115.228 123.386 115.544 123.472 115.862C123.558 116.179 123.64 116.497 123.718 116.817C123.797 117.136 123.871 117.456 123.941 117.777C124.012 118.098 124.078 118.42 124.141 118.743C124.203 119.065 124.261 119.389 124.316 119.713C124.37 120.037 124.421 120.362 124.467 120.687C124.514 121.013 124.556 121.339 124.595 121.665C124.633 121.992 124.668 122.319 124.698 122.646C124.729 122.973 124.755 123.301 124.777 123.629C124.8 123.957 124.818 124.285 124.832 124.613C124.846 124.942 124.857 125.27 124.863 125.599C124.869 125.928 124.871 126.256 124.869 126.585C124.759 134.485 122.412 143.292 116.604 148.954C115.751 149.073 114.848 149.025 113.986 149.026L109.788 149.027L94.8952 149.021L43.3809 149.034C41.9046 147.516 40.6469 145.78 39.5449 143.975C37.3317 140.349 35.9897 136.227 35.3765 132.038C33.6843 120.478 37.5312 108.868 45.1626 100.109C45.7678 99.4191 46.3901 98.7448 47.0296 98.0863C47.669 97.4279 48.3246 96.786 48.9965 96.1609C49.6686 95.5356 50.356 94.9279 51.0588 94.3377C51.7616 93.7473 52.4789 93.1752 53.2107 92.6212C54.3279 91.781 55.7262 91.2172 56.7233 90.241C57.2438 89.7314 57.6067 89.047 57.764 88.3376C58.0102 87.2266 57.6971 85.9519 56.9997 85.0581C56.27 84.1229 53.2426 81.9673 52.1289 81.0321C48.0893 77.6397 44.4208 73.6364 41.6204 69.1544C36.2719 60.5944 33.4689 50.3104 34.5434 40.2056C34.7431 38.328 35.1862 36.4749 35.6081 34.6378Z" fill="white"/>
<path d="M79.7569 110.084C80.53 110.049 81.3485 110.149 82.0108 110.577C82.7424 111.051 83.4064 111.698 84.0663 112.264L87.4815 115.22L96.3389 122.919L108.901 133.763C112.219 136.586 115.577 139.384 118.816 142.297C118.051 144.021 116.896 145.499 115.714 146.949C112.595 146.908 109.475 146.988 106.356 146.986L80.5371 147.002L44.3275 147.012C43.2834 145.597 42.2109 144.203 41.1816 142.777C43.6039 140.464 46.1903 138.361 48.6909 136.137C54.118 131.24 59.5984 126.404 65.1322 121.629L73.5842 114.187C74.8754 113.068 76.1852 111.819 77.5772 110.831C78.2738 110.336 78.931 110.188 79.7569 110.084Z" fill="#0D0D0D"/>
</svg>
