<?xml version="1.0" encoding="utf-8" ?>
<svg xmlns="http://www.w3.org/2000/svg" xmlns:xlink="http://www.w3.org/1999/xlink" width="1024" height="1024">
	<path fill="#E5F6F9" d="M894.335 475.877C896.347 484.258 896.432 493.432 896.665 502.023Q897.056 514.381 896.624 526.737Q896.193 539.094 894.94 551.394Q893.688 563.695 891.621 575.884Q889.554 588.074 886.681 600.1Q885.529 604.755 884.264 609.381Q882.999 614.006 881.622 618.6Q880.245 623.193 878.757 627.752Q877.268 632.311 875.669 636.832Q874.07 641.353 872.362 645.834Q870.654 650.315 868.837 654.753Q867.02 659.191 865.096 663.583Q863.171 667.975 861.141 672.32Q859.11 676.664 856.975 680.958Q854.839 685.252 852.599 689.492Q850.36 693.732 848.018 697.917Q845.676 702.102 843.233 706.228Q840.79 710.355 838.247 714.421Q835.704 718.486 833.063 722.489Q830.422 726.492 827.685 730.429Q824.947 734.367 822.115 738.236Q819.282 742.106 816.357 745.906Q813.431 749.705 810.414 753.432Q807.396 757.16 804.289 760.812Q801.182 764.465 797.987 768.041Q794.792 771.617 791.511 775.115Q788.23 778.612 784.865 782.028Q781.499 785.445 778.052 788.778Q774.605 792.112 771.077 795.361Q767.55 798.609 763.944 801.771Q760.339 804.933 756.658 808.006Q752.977 811.08 749.222 814.063Q745.467 817.045 741.641 819.936Q737.814 822.827 733.919 825.623Q730.023 828.42 726.061 831.121Q722.098 833.822 718.071 836.426Q714.044 839.03 709.955 841.535Q705.98 844.015 701.944 846.395Q697.909 848.775 693.815 851.054Q689.722 853.333 685.573 855.51Q681.424 857.686 677.223 859.759Q673.021 861.832 668.769 863.8Q664.517 865.767 660.217 867.628Q655.918 869.49 651.573 871.244Q647.229 872.997 642.842 874.643Q638.455 876.288 634.029 877.823Q629.602 879.359 625.139 880.784Q620.676 882.209 616.179 883.523Q611.682 884.836 607.153 886.038Q602.625 887.239 598.068 888.328Q593.511 889.416 588.928 890.391Q584.345 891.366 579.74 892.226Q575.135 893.087 570.509 893.832Q565.884 894.578 561.241 895.209Q556.599 895.839 551.942 896.354Q547.285 896.869 542.617 897.268Q537.949 897.666 533.272 897.949Q528.596 898.232 523.913 898.398Q519.231 898.564 514.546 898.614Q509.861 898.664 505.177 898.597Q500.492 898.53 495.81 898.347Q491.129 898.164 486.453 897.864Q481.778 897.565 477.111 897.149Q472.444 896.733 467.789 896.202Q463.135 895.67 458.494 895.023Q453.854 894.376 449.231 893.613Q444.609 892.851 440.006 891.974Q435.404 891.096 430.825 890.105Q426.246 889.114 421.693 888.009Q417.09 886.857 412.516 885.594Q407.942 884.33 403.401 882.956Q398.859 881.582 394.352 880.097Q389.845 878.612 385.376 877.019Q380.906 875.425 376.477 873.723Q372.048 872.02 367.661 870.211Q363.275 868.401 358.934 866.485Q354.593 864.57 350.3 862.549Q346.006 860.528 341.764 858.403Q337.521 856.278 333.331 854.05Q329.141 851.823 325.007 849.494Q320.873 847.165 316.797 844.736Q312.72 842.307 308.704 839.78Q304.688 837.253 300.735 834.628Q296.782 832.004 292.894 829.284Q289.005 826.564 285.185 823.75Q281.364 820.937 277.613 818.031Q273.861 815.125 270.182 812.128Q266.503 809.132 262.898 806.047Q259.292 802.962 255.763 799.79Q252.234 796.618 248.783 793.361Q245.333 790.104 241.962 786.764Q238.592 783.424 235.303 780.003Q232.015 776.582 228.811 773.081Q225.607 769.581 222.49 766.004Q219.372 762.427 216.342 758.775Q213.312 755.123 210.373 751.399Q207.433 747.674 204.584 743.879Q201.736 740.084 198.981 736.221Q196.226 732.357 193.566 728.428Q190.905 724.499 188.342 720.506Q185.778 716.513 183.312 712.459Q180.867 708.438 178.521 704.359Q176.175 700.279 173.929 696.144Q171.684 692.008 169.541 687.818Q167.398 683.629 165.358 679.388Q163.318 675.147 161.383 670.857Q159.448 666.567 157.619 662.232Q155.789 657.896 154.067 653.516Q152.344 649.137 150.73 644.717Q149.115 640.296 147.61 635.838Q146.104 631.379 144.708 626.885Q143.312 622.391 142.027 617.864Q140.742 613.337 139.568 608.779Q138.394 604.222 137.333 599.638Q136.271 595.053 135.322 590.444Q134.373 585.834 133.538 581.203Q132.702 576.572 131.981 571.922Q131.259 567.271 130.651 562.605Q130.044 557.938 129.551 553.258Q129.058 548.578 128.68 543.887Q128.303 539.197 128.04 534.498Q127.777 529.799 127.63 525.096Q127.482 520.392 127.45 515.686Q127.418 510.981 127.502 506.275Q127.585 501.57 127.784 496.868Q127.983 492.167 128.297 487.471Q128.611 482.776 129.04 478.089Q129.469 473.403 130.013 468.729Q130.557 464.054 131.215 459.395Q131.874 454.735 132.646 450.093Q133.419 445.451 134.305 440.829Q135.191 436.207 136.19 431.608Q137.189 427.01 138.301 422.437Q139.455 417.777 140.722 413.147Q141.99 408.517 143.371 403.919Q144.752 399.321 146.245 394.759Q147.738 390.196 149.343 385.672Q150.948 381.147 152.664 376.664Q154.379 372.18 156.204 367.74Q158.029 363.3 159.962 358.906Q161.896 354.512 163.936 350.166Q165.977 345.821 168.124 341.527Q170.27 337.233 172.522 332.993Q174.773 328.753 177.128 324.57Q179.483 320.386 181.939 316.262Q184.396 312.138 186.953 308.075Q189.51 304.012 192.167 300.013Q194.823 296.014 197.576 292.082Q200.33 288.149 203.179 284.286Q206.028 280.422 208.971 276.629Q211.915 272.837 214.95 269.118Q217.985 265.398 221.111 261.755Q224.237 258.111 227.451 254.545Q230.665 250.98 233.966 247.494Q237.267 244.008 240.652 240.604Q244.037 237.2 247.505 233.881Q250.973 230.561 254.521 227.328Q258.069 224.094 261.696 220.949Q265.322 217.803 269.025 214.748Q272.728 211.692 276.504 208.728Q280.281 205.765 284.129 202.894Q287.977 200.024 291.894 197.249Q295.812 194.474 299.796 191.797Q303.78 189.119 307.829 186.539Q311.878 183.96 315.989 181.481C405.597 127.076 504.047 114.092 605.449 138.905C587.09 138.839 569.371 139.686 551.109 141.568C544.604 139.917 535.987 141.986 529.405 142.992Q522.16 144.065 514.974 145.483Q507.788 146.902 500.679 148.663Q493.569 150.425 486.552 152.525Q479.535 154.625 472.627 157.058Q465.719 159.492 458.935 162.254Q452.151 165.016 445.508 168.1Q438.864 171.183 432.376 174.582Q425.888 177.98 419.57 181.686Q415.816 183.902 412.117 186.209Q408.419 188.517 404.777 190.913Q401.136 193.31 397.555 195.796Q393.973 198.281 390.453 200.853Q386.934 203.425 383.478 206.082Q380.022 208.739 376.632 211.48Q373.242 214.221 369.92 217.044Q366.598 219.867 363.347 222.77Q360.095 225.674 356.915 228.655Q353.735 231.637 350.629 234.696Q347.523 237.755 344.492 240.888Q341.462 244.022 338.509 247.229Q335.556 250.436 332.682 253.714Q329.808 256.992 327.016 260.339Q324.223 263.686 321.513 267.101Q318.803 270.516 316.177 273.995Q313.551 277.475 311.011 281.018Q308.471 284.561 306.019 288.165Q303.566 291.769 301.202 295.432Q298.838 299.094 296.565 302.814Q294.291 306.533 292.109 310.307Q289.927 314.081 287.838 317.907Q285.749 321.733 283.754 325.609Q281.759 329.486 279.859 333.409Q277.959 337.333 276.156 341.302Q274.353 345.271 272.647 349.282Q270.942 353.294 269.334 357.346Q267.727 361.399 266.22 365.489Q264.712 369.579 263.305 373.705Q261.898 377.831 260.592 381.99Q259.286 386.149 258.082 390.339Q256.878 394.529 255.777 398.747C233.567 486.484 243.866 579.482 290.604 657.736C323.845 713.392 368.49 756.114 426.704 784.973Q434.437 788.846 442.365 792.302Q450.293 795.758 458.393 798.787Q466.494 801.816 474.745 804.409Q482.995 807.003 491.372 809.153C575.399 830.322 654.301 818.867 728.592 774.334Q731.389 772.622 734.153 770.856Q736.917 769.09 739.646 767.271Q742.375 765.451 745.068 763.579Q747.761 761.708 750.417 759.784Q753.074 757.86 755.692 755.886Q758.311 753.911 760.891 751.886Q763.47 749.86 766.01 747.786Q768.551 745.711 771.05 743.587Q773.549 741.464 776.007 739.292Q778.465 737.12 780.88 734.901Q783.295 732.682 785.667 730.417Q788.039 728.152 790.366 725.841Q792.693 723.53 794.976 721.174Q797.258 718.819 799.494 716.42Q801.73 714.02 803.919 711.578Q806.108 709.136 808.25 706.652Q810.391 704.168 812.484 701.642Q814.577 699.117 816.62 696.552Q818.664 693.987 820.657 691.382Q822.651 688.778 824.593 686.135Q826.536 683.493 828.427 680.813Q830.318 678.133 832.156 675.417Q833.995 672.701 835.781 669.95Q837.566 667.199 839.298 664.414Q841.03 661.629 842.708 658.811Q844.386 655.993 846.009 653.143Q847.631 650.293 849.199 647.411Q850.766 644.53 852.277 641.62Q853.788 638.709 855.242 635.769Q856.697 632.829 858.094 629.862Q859.491 626.895 860.831 623.901Q862.17 620.907 863.451 617.888C867.174 609.05 871.897 599.808 874.235 590.519Q874.554 589.243 874.833 587.958C882.747 560.388 889.273 532.957 892.372 504.402C893.401 494.925 893.792 485.391 894.335 475.877Z"/>
	<path fill="#51CFF6" d="M874.833 587.958Q874.554 589.243 874.235 590.519C871.897 599.808 867.174 609.05 863.451 617.888Q862.17 620.907 860.831 623.901Q859.491 626.895 858.094 629.862Q856.697 632.829 855.242 635.769Q853.788 638.709 852.277 641.62Q850.766 644.53 849.199 647.411Q847.631 650.293 846.009 653.143Q844.386 655.993 842.708 658.811Q841.03 661.629 839.298 664.414Q837.566 667.199 835.781 669.95Q833.995 672.701 832.156 675.417Q830.318 678.133 828.427 680.813Q826.536 683.493 824.593 686.135Q822.651 688.778 820.657 691.382Q818.664 693.987 816.62 696.552Q814.577 699.117 812.484 701.642Q810.391 704.168 808.25 706.652Q806.108 709.136 803.919 711.578Q801.73 714.02 799.494 716.42Q797.258 718.819 794.976 721.175Q792.693 723.53 790.366 725.841Q788.039 728.152 785.667 730.417Q783.295 732.682 780.88 734.901Q778.465 737.12 776.007 739.292Q773.549 741.464 771.05 743.587Q768.551 745.711 766.01 747.786Q763.47 749.86 760.891 751.886Q758.311 753.911 755.692 755.885Q753.074 757.86 750.417 759.784Q747.761 761.708 745.068 763.579Q742.375 765.451 739.646 767.271Q736.917 769.09 734.153 770.856Q731.389 772.622 728.592 774.334C654.301 818.867 575.399 830.322 491.372 809.153Q482.995 807.003 474.745 804.409Q466.494 801.816 458.393 798.787Q450.293 795.758 442.365 792.302Q434.437 788.846 426.704 784.973C368.49 756.114 323.845 713.392 290.604 657.736C243.866 579.482 233.567 486.484 255.777 398.747Q256.878 394.529 258.082 390.339Q259.286 386.149 260.592 381.99Q261.898 377.831 263.305 373.705Q264.712 369.579 266.22 365.489Q267.727 361.399 269.334 357.346Q270.942 353.294 272.647 349.282Q274.353 345.271 276.156 341.302Q277.959 337.333 279.859 333.409Q281.759 329.486 283.754 325.609Q285.749 321.733 287.838 317.907Q289.927 314.081 292.109 310.307Q294.291 306.533 296.565 302.814Q298.838 299.094 301.202 295.432Q303.566 291.769 306.019 288.165Q308.471 284.561 311.011 281.018Q313.551 277.475 316.177 273.995Q318.803 270.516 321.513 267.101Q324.223 263.686 327.016 260.339Q329.808 256.992 332.682 253.714Q335.556 250.436 338.509 247.229Q341.462 244.022 344.492 240.888Q347.523 237.755 350.629 234.696Q353.735 231.637 356.915 228.655Q360.095 225.673 363.347 222.77Q366.598 219.867 369.92 217.044Q373.242 214.221 376.632 211.48Q380.022 208.739 383.478 206.082Q386.934 203.425 390.453 200.853Q393.973 198.281 397.555 195.796Q401.136 193.31 404.777 190.913Q408.419 188.517 412.117 186.209Q415.816 183.902 419.57 181.686Q425.888 177.98 432.376 174.582Q438.864 171.183 445.508 168.1Q452.151 165.016 458.935 162.254Q465.719 159.492 472.627 157.058Q479.535 154.625 486.552 152.525Q493.569 150.425 500.679 148.663Q507.788 146.902 514.974 145.483Q522.16 144.065 529.405 142.992C535.987 141.986 544.604 139.917 551.109 141.568C540.525 143.572 529.921 145.673 519.583 148.737C514.564 150.224 509.589 152.468 504.597 153.812C504.555 153.95 504.516 154.089 504.47 154.226C502.94 158.821 491.15 168.982 487.193 173.445C479.466 182.159 472.955 191.883 466.861 201.783Q464.478 205.578 462.217 209.447Q459.956 213.316 457.819 217.255Q455.682 221.193 453.67 225.198Q451.659 229.202 449.775 233.268Q447.891 237.334 446.138 241.458Q444.384 245.582 442.761 249.759Q441.139 253.936 439.65 258.163Q438.161 262.389 436.807 266.661Q435.452 270.933 434.234 275.245Q433.015 279.557 431.934 283.906Q430.853 288.255 429.91 292.636Q428.968 297.017 428.164 301.425Q427.361 305.834 426.697 310.266Q426.034 314.698 425.511 319.148Q424.989 323.599 424.607 328.064Q424.226 332.529 423.986 337.004Q423.747 341.478 423.649 345.958Q423.551 350.439 423.595 354.919Q423.64 359.4 423.826 363.878Q424.012 368.355 424.34 372.824Q424.668 377.293 425.137 381.75Q425.607 386.207 426.217 390.646Q426.828 395.085 427.578 399.503Q428.329 403.921 429.22 408.313Q430.11 412.705 431.139 417.066Q432.168 421.428 433.335 425.754Q434.502 430.081 435.805 434.368Q437.108 438.656 438.547 442.9Q439.985 447.144 441.558 451.34Q443.13 455.536 444.834 459.681Q446.539 463.825 448.374 467.914Q450.208 472.002 452.172 476.03Q453.713 479.204 455.332 482.34Q456.95 485.476 458.644 488.572Q460.338 491.668 462.107 494.721Q463.876 497.775 465.718 500.784Q467.561 503.794 469.477 506.758Q471.392 509.721 473.379 512.638Q475.366 515.554 477.423 518.421Q479.48 521.288 481.607 524.104Q483.733 526.921 485.928 529.684Q488.122 532.448 490.383 535.157Q492.644 537.867 494.971 540.52Q497.297 543.174 499.687 545.77Q502.077 548.366 504.53 550.903Q506.982 553.44 509.496 555.917Q512.01 558.394 514.583 560.809Q517.156 563.224 519.787 565.575Q522.419 567.927 525.106 570.214Q527.794 572.5 530.536 574.721Q533.279 576.942 536.075 579.095Q538.87 581.248 541.718 583.333Q544.565 585.418 547.462 587.432Q550.36 589.447 553.305 591.391Q556.25 593.334 559.242 595.206Q562.234 597.077 565.271 598.875Q568.307 600.673 571.386 602.396Q574.465 604.12 577.586 605.768Q580.706 607.416 583.866 608.988Q587.025 610.559 590.222 612.054Q593.419 613.548 596.651 614.964Q599.884 616.38 603.149 617.717Q606.415 619.054 609.713 620.311Q613.01 621.568 616.337 622.745C686.565 647.27 764.646 645.708 832.153 613.043C839.27 609.599 846.257 605.953 852.961 601.755C858.837 598.076 864.745 593.627 870.973 590.615C872.163 589.62 873.535 588.809 874.833 587.958Z"/>
	<path fill="#0C4A88" d="M495.135 157.229C494.998 157.46 494.871 157.696 494.724 157.92C492.433 161.438 480.811 167.615 476.767 170.327Q467.273 176.587 458.365 183.654Q449.457 190.722 441.203 198.544Q437.897 201.674 434.687 204.901Q431.477 208.129 428.365 211.451Q425.253 214.773 422.243 218.188Q419.232 221.602 416.325 225.105Q413.418 228.608 410.617 232.197Q407.817 235.786 405.125 239.457Q402.434 243.128 399.854 246.878Q397.274 250.629 394.807 254.455Q392.341 258.281 389.99 262.179Q387.64 266.077 385.407 270.045Q383.175 274.012 381.062 278.044Q378.95 282.076 376.96 286.17Q374.969 290.264 373.103 294.416Q371.236 298.568 369.495 302.774Q367.754 306.98 366.139 311.236Q364.525 315.492 363.039 319.795Q361.554 324.098 360.198 328.444Q358.842 332.789 357.617 337.173Q356.392 341.557 355.299 345.977Q354.206 350.396 353.247 354.845Q352.287 359.295 351.461 363.772Q350.636 368.248 349.945 372.748Q349.254 377.247 348.698 381.765Q348.143 386.283 347.723 390.816Q347.303 395.349 347.019 399.892Q346.736 404.435 346.589 408.985Q346.442 413.535 346.431 418.087Q346.421 422.639 346.547 427.19Q346.673 431.74 346.936 436.284Q347.198 440.829 347.597 445.364Q347.996 449.898 348.531 454.419Q349.066 458.939 349.736 463.442Q350.256 466.882 350.861 470.308Q351.465 473.734 352.154 477.145Q352.842 480.555 353.614 483.947Q354.385 487.34 355.24 490.712Q356.095 494.085 357.032 497.435Q357.969 500.786 358.988 504.112Q360.007 507.439 361.107 510.739Q362.207 514.04 363.388 517.313Q364.569 520.585 365.829 523.828Q367.09 527.071 368.429 530.281Q369.769 533.492 371.187 536.669Q372.605 539.846 374.101 542.987Q375.596 546.129 377.168 549.232Q378.74 552.336 380.388 555.4Q382.035 558.464 383.758 561.487Q385.48 564.51 387.276 567.49Q389.071 570.47 390.94 573.405Q392.808 576.34 394.748 579.228Q396.687 582.116 398.697 584.956Q400.707 587.796 402.786 590.585Q404.865 593.375 407.012 596.113Q409.158 598.851 411.372 601.535Q413.585 604.219 415.863 606.849Q418.141 609.478 420.483 612.051Q422.825 614.623 425.23 617.138Q427.634 619.653 430.1 622.107Q432.565 624.562 435.09 626.956Q437.614 629.35 440.197 631.681Q442.78 634.012 445.419 636.279Q448.058 638.546 450.752 640.747Q453.446 642.949 456.193 645.084Q458.94 647.219 461.738 649.286Q464.543 651.348 467.399 653.34Q470.254 655.332 473.158 657.252Q476.062 659.173 479.012 661.022Q481.962 662.87 484.957 664.646Q487.952 666.421 490.99 668.122Q494.028 669.823 497.106 671.448Q500.185 673.073 503.303 674.622Q506.421 676.171 509.576 677.643Q512.732 679.114 515.922 680.507Q519.113 681.901 522.337 683.215Q525.561 684.529 528.817 685.763Q532.072 686.997 535.357 688.15Q538.642 689.304 541.954 690.376Q545.267 691.448 548.604 692.438Q551.942 693.428 555.303 694.335Q558.665 695.242 562.047 696.066Q565.43 696.89 568.832 697.631Q572.234 698.371 575.653 699.027Q579.072 699.684 582.506 700.255Q585.94 700.827 589.388 701.314Q592.835 701.8 596.293 702.202Q599.752 702.604 603.219 702.92Q606.686 703.236 610.16 703.466Q613.634 703.697 617.112 703.841Q620.591 703.986 624.072 704.045Q627.553 704.104 631.034 704.077Q634.516 704.05 637.996 703.937Q641.475 703.824 644.951 703.625Q648.427 703.426 651.897 703.142Q655.367 702.857 658.829 702.487Q662.29 702.117 665.742 701.662Q669.194 701.206 672.633 700.666Q676.867 700.023 681.084 699.271Q685.3 698.521 689.497 697.662Q693.693 696.804 697.866 695.84Q702.038 694.875 706.185 693.805Q710.332 692.734 714.451 691.559Q718.569 690.383 722.656 689.103Q726.744 687.823 730.797 686.439Q734.85 685.056 738.867 683.569Q742.884 682.083 746.861 680.495Q750.839 678.907 754.775 677.218Q758.711 675.529 762.603 673.741Q766.494 671.953 770.339 670.066Q774.184 668.179 777.98 666.195Q781.775 664.211 785.519 662.131Q789.263 660.051 792.953 657.876Q796.643 655.702 800.276 653.434Q814.481 644.475 827.708 634.127Q836.061 627.725 843.891 620.692C847.47 617.48 851.069 613.657 854.941 610.869C855.771 610.271 856.365 610.112 857.406 610.101C851.621 619.806 843.371 628.294 835.485 636.314C806.738 665.547 773.89 688.203 735.593 703.14Q732.078 704.544 728.528 705.859Q724.979 707.175 721.398 708.402Q717.817 709.629 714.207 710.766Q710.597 711.904 706.959 712.951Q703.322 713.998 699.659 714.955Q695.997 715.911 692.312 716.777Q688.627 717.642 684.921 718.415Q681.216 719.188 677.493 719.869Q673.769 720.55 670.03 721.138Q666.29 721.726 662.538 722.221Q658.785 722.716 655.021 723.117Q651.257 723.518 647.484 723.826Q643.712 724.134 639.932 724.347Q636.153 724.561 632.37 724.681Q628.586 724.8 624.801 724.826Q621.016 724.851 617.232 724.783Q613.447 724.714 609.665 724.551Q605.883 724.388 602.107 724.131Q598.33 723.875 594.561 723.524Q590.792 723.173 587.033 722.729Q583.274 722.285 579.527 721.747Q575.78 721.21 572.048 720.579Q568.316 719.948 564.6 719.225Q560.885 718.502 557.188 717.687Q553.492 716.871 549.817 715.964Q546.142 715.057 542.491 714.058Q538.84 713.06 535.214 711.971Q531.589 710.883 527.992 709.704Q524.395 708.526 520.828 707.258Q517.262 705.99 513.728 704.634Q510.194 703.278 506.694 701.835Q503.195 700.391 499.733 698.861C428.274 667.344 371.484 605.61 343.491 533.039Q342.167 529.522 340.93 525.973Q339.692 522.425 338.542 518.847Q337.391 515.269 336.329 511.664Q335.266 508.06 334.292 504.43Q333.318 500.8 332.432 497.148Q331.547 493.496 330.751 489.823Q329.956 486.15 329.25 482.459Q328.544 478.767 327.929 475.06Q327.313 471.352 326.789 467.631Q326.264 463.91 325.831 460.177Q325.397 456.444 325.055 452.701Q324.713 448.959 324.462 445.209Q324.212 441.459 324.053 437.704Q323.894 433.95 323.827 430.192Q323.76 426.435 323.784 422.677Q323.809 418.919 323.926 415.162Q324.042 411.406 324.25 407.654Q324.459 403.901 324.758 400.155Q325.058 396.409 325.45 392.671Q325.841 388.934 326.324 385.207Q326.806 381.479 327.38 377.765Q327.953 374.051 328.617 370.352Q329.281 366.653 330.036 362.972Q330.79 359.29 331.634 355.628Q332.478 351.966 333.411 348.325Q334.344 344.685 335.366 341.068Q336.388 337.452 337.498 333.861Q338.608 330.271 339.805 326.709Q341.003 323.146 342.287 319.614Q343.571 316.082 344.941 312.583Q346.311 309.083 347.766 305.618Q349.221 302.153 350.76 298.725C378.914 235.498 430.022 182.179 495.135 157.229Z"/>
	<path fill="#1C64AA" d="M495.135 157.229C497.756 155.41 501.456 154.204 504.597 153.812C504.555 153.95 504.516 154.089 504.47 154.226C502.94 158.821 491.15 168.982 487.193 173.445C479.466 182.159 472.955 191.883 466.861 201.783Q464.478 205.578 462.217 209.447Q459.956 213.316 457.819 217.255Q455.682 221.193 453.67 225.198Q451.659 229.202 449.775 233.268Q447.891 237.334 446.138 241.458Q444.384 245.582 442.761 249.759Q441.139 253.936 439.65 258.163Q438.161 262.389 436.807 266.661Q435.452 270.933 434.234 275.245Q433.015 279.557 431.934 283.906Q430.853 288.255 429.91 292.636Q428.968 297.017 428.164 301.425Q427.361 305.834 426.697 310.266Q426.034 314.698 425.511 319.148Q424.989 323.599 424.607 328.064Q424.226 332.529 423.986 337.004Q423.747 341.478 423.649 345.958Q423.551 350.439 423.595 354.919Q423.64 359.4 423.826 363.878Q424.012 368.355 424.34 372.824Q424.668 377.293 425.137 381.75Q425.607 386.207 426.217 390.646Q426.828 395.085 427.578 399.503Q428.329 403.921 429.22 408.313Q430.11 412.705 431.139 417.066Q432.168 421.428 433.335 425.754Q434.502 430.081 435.805 434.368Q437.108 438.656 438.547 442.9Q439.985 447.144 441.558 451.34Q443.13 455.536 444.834 459.681Q446.539 463.825 448.374 467.914Q450.208 472.002 452.172 476.03Q453.713 479.204 455.332 482.34Q456.95 485.476 458.644 488.572Q460.338 491.668 462.107 494.721Q463.876 497.775 465.718 500.784Q467.561 503.794 469.477 506.758Q471.392 509.721 473.379 512.638Q475.366 515.554 477.423 518.421Q479.48 521.288 481.607 524.104Q483.733 526.921 485.928 529.684Q488.122 532.448 490.383 535.157Q492.644 537.867 494.971 540.52Q497.297 543.174 499.687 545.77Q502.077 548.366 504.53 550.903Q506.982 553.44 509.496 555.917Q512.01 558.394 514.583 560.809Q517.156 563.224 519.787 565.575Q522.419 567.927 525.106 570.214Q527.794 572.5 530.536 574.721Q533.279 576.942 536.075 579.095Q538.87 581.248 541.718 583.333Q544.565 585.418 547.462 587.432Q550.36 589.447 553.305 591.391Q556.25 593.334 559.242 595.206Q562.234 597.077 565.271 598.875Q568.307 600.673 571.386 602.396Q574.465 604.12 577.586 605.768Q580.706 607.416 583.866 608.988Q587.025 610.559 590.222 612.054Q593.419 613.548 596.651 614.964Q599.884 616.38 603.149 617.717Q606.415 619.054 609.713 620.311Q613.01 621.568 616.337 622.745C686.565 647.27 764.646 645.708 832.153 613.043C839.27 609.599 846.257 605.953 852.961 601.755C858.837 598.076 864.745 593.627 870.973 590.615C867.806 597.126 862.93 605.307 857.406 610.101C856.365 610.112 855.771 610.271 854.941 610.869C851.069 613.657 847.47 617.48 843.891 620.692Q836.061 627.725 827.708 634.127Q814.481 644.475 800.276 653.434Q796.643 655.702 792.953 657.876Q789.263 660.051 785.519 662.131Q781.775 664.211 777.98 666.195Q774.184 668.179 770.339 670.066Q766.494 671.953 762.602 673.741Q758.711 675.529 754.775 677.218Q750.839 678.907 746.861 680.495Q742.884 682.083 738.867 683.569Q734.85 685.056 730.797 686.439Q726.744 687.823 722.656 689.103Q718.569 690.383 714.451 691.559Q710.332 692.734 706.185 693.805Q702.038 694.875 697.866 695.84Q693.693 696.804 689.497 697.662Q685.3 698.521 681.084 699.271Q676.867 700.023 672.633 700.666Q669.194 701.206 665.742 701.662Q662.29 702.117 658.829 702.487Q655.367 702.857 651.897 703.142Q648.427 703.426 644.951 703.625Q641.475 703.824 637.996 703.937Q634.516 704.05 631.034 704.077Q627.553 704.104 624.072 704.045Q620.591 703.986 617.112 703.841Q613.634 703.697 610.16 703.466Q606.686 703.236 603.219 702.92Q599.752 702.604 596.293 702.202Q592.835 701.801 589.388 701.314Q585.94 700.827 582.506 700.255Q579.072 699.684 575.653 699.027Q572.234 698.371 568.832 697.631Q565.43 696.89 562.047 696.066Q558.665 695.242 555.304 694.335Q551.942 693.428 548.604 692.438Q545.267 691.448 541.954 690.376Q538.642 689.304 535.357 688.15Q532.072 686.997 528.817 685.763Q525.561 684.529 522.337 683.215Q519.113 681.901 515.922 680.507Q512.732 679.114 509.576 677.643Q506.421 676.171 503.303 674.622Q500.185 673.073 497.106 671.448Q494.028 669.823 490.99 668.122Q487.952 666.421 484.957 664.646Q481.962 662.87 479.012 661.022Q476.062 659.173 473.158 657.252Q470.254 655.332 467.399 653.34Q464.543 651.348 461.738 649.286Q458.94 647.219 456.193 645.084Q453.446 642.949 450.752 640.747Q448.058 638.546 445.419 636.279Q442.78 634.012 440.197 631.681Q437.614 629.349 435.09 626.956Q432.565 624.562 430.1 622.107Q427.634 619.653 425.23 617.138Q422.825 614.623 420.483 612.051Q418.141 609.478 415.863 606.849Q413.585 604.219 411.372 601.535Q409.158 598.851 407.012 596.113Q404.865 593.375 402.786 590.585Q400.707 587.796 398.697 584.956Q396.687 582.116 394.748 579.228Q392.808 576.34 390.94 573.405Q389.071 570.47 387.276 567.49Q385.48 564.51 383.758 561.487Q382.035 558.464 380.388 555.4Q378.74 552.336 377.168 549.232Q375.596 546.129 374.101 542.987Q372.605 539.846 371.187 536.669Q369.769 533.492 368.429 530.281Q367.09 527.071 365.829 523.828Q364.569 520.585 363.388 517.313Q362.207 514.04 361.107 510.739Q360.007 507.439 358.988 504.112Q357.969 500.786 357.032 497.435Q356.095 494.085 355.24 490.712Q354.385 487.34 353.614 483.947Q352.842 480.555 352.154 477.145Q351.465 473.734 350.861 470.308Q350.256 466.882 349.736 463.442Q349.066 458.939 348.531 454.419Q347.996 449.898 347.597 445.364Q347.198 440.829 346.936 436.284Q346.673 431.74 346.547 427.19Q346.421 422.639 346.431 418.087Q346.442 413.535 346.589 408.985Q346.736 404.435 347.019 399.892Q347.303 395.349 347.723 390.816Q348.143 386.283 348.698 381.765Q349.254 377.247 349.945 372.748Q350.636 368.248 351.461 363.772Q352.287 359.295 353.247 354.845Q354.206 350.396 355.299 345.977Q356.392 341.557 357.617 337.173Q358.842 332.789 360.198 328.444Q361.554 324.098 363.039 319.795Q364.525 315.492 366.139 311.236Q367.754 306.98 369.495 302.774Q371.236 298.568 373.103 294.416Q374.969 290.264 376.96 286.17Q378.95 282.076 381.062 278.044Q383.175 274.012 385.407 270.045Q387.64 266.077 389.99 262.179Q392.341 258.281 394.807 254.455Q397.274 250.629 399.854 246.878Q402.434 243.128 405.125 239.457Q407.817 235.786 410.617 232.197Q413.418 228.608 416.325 225.105Q419.232 221.602 422.243 218.188Q425.253 214.773 428.365 211.451Q431.477 208.129 434.687 204.901Q437.897 201.674 441.203 198.544Q449.457 190.722 458.365 183.654Q467.273 176.587 476.767 170.327C480.811 167.615 492.433 161.438 494.724 157.92C494.871 157.696 494.998 157.46 495.135 157.229Z"/>
</svg>
