<svg width="32" height="32" viewBox="0 0 32 32" fill="none" xmlns="http://www.w3.org/2000/svg">
<path d="M16.0005 24.0951C13.183 24.0951 10.3598 23.8593 7.61671 23.3876C7.15952 23.309 6.71949 23.2024 6.28516 23.0676V24.0502C6.28516 24.5723 6.65661 25.0383 7.17668 25.145C10.6056 25.8692 13.6289 26.0714 16.0004 26.0714C19.4465 26.0714 22.4355 25.6559 24.8129 25.1506C25.3386 25.0383 25.7158 24.5835 25.7158 24.0502V23.062C25.2643 23.208 24.7957 23.3203 24.3157 23.4045C21.5954 23.8649 18.795 24.1007 16.0007 24.1007L16.0005 24.0951Z" fill="#34C3C0"/>
<path d="M30.4587 12.5407C29.0757 13.1302 27.0869 13.4278 25.4753 11.5245C22.6864 8.24 20.4576 5.5 16.0001 5.5C11.5427 5.5 9.30799 8.23986 6.52499 11.5245C4.90767 13.4278 2.9246 13.1302 1.53577 12.5407C0.735688 12.1982 -0.127267 12.8944 0.0156325 13.7422C0.0499217 13.9555 0.0956407 14.1689 0.14136 14.371C1.42149 15.0503 2.7702 15.1907 2.7702 15.1907C3.03308 15.2188 3.29026 15.2356 3.55313 15.2356C4.46751 15.2356 5.33617 15.0391 6.13054 14.6573C6.92492 14.2755 7.65068 13.7085 8.27933 12.9674L8.44506 12.7709C11.2396 9.46955 12.8454 7.75143 16 7.75143C19.1546 7.75143 20.7606 9.46944 23.555 12.7709L23.7207 12.9674C24.978 14.4496 26.6124 15.2356 28.447 15.2356C28.7098 15.2356 28.967 15.2188 29.2299 15.1907C29.2299 15.1907 30.5729 15.0503 31.853 14.371H31.8587C31.9045 14.1633 31.9502 13.9443 31.9845 13.7253C32.1273 12.8831 31.2587 12.2038 30.4587 12.5407Z" fill="#34C3C0"/>
<path d="M28.4474 16.3585C26.2643 16.3585 24.3268 15.4322 22.8412 13.6861L22.6754 13.4839C19.8409 10.1377 18.5322 8.87451 16.0005 8.87451C13.4687 8.87451 12.1601 10.1378 9.3255 13.4897L9.15977 13.6862C8.42827 14.5508 7.57676 15.2133 6.63382 15.6681C5.67942 16.1285 4.63934 16.3587 3.55349 16.3587C3.26775 16.3587 2.97056 16.3418 2.65052 16.3082C2.60481 16.3082 1.66757 16.2015 0.570312 15.7916C1.26751 17.7005 2.35335 19.1042 3.37632 20.0813C3.37632 20.0869 3.39347 20.0981 3.4049 20.1093C4.61074 21.2547 6.16519 22.0014 7.81659 22.2821C10.9369 22.8155 13.7143 22.9727 16.0061 22.9727C19.075 22.9727 21.8066 22.6864 24.1269 22.2934C25.8642 22.0014 27.4758 21.2098 28.7273 19.9915C29.7217 19.0202 30.7675 17.639 31.4362 15.7917C30.3389 16.2015 29.4074 16.3026 29.356 16.3082C29.0359 16.3419 28.7388 16.3587 28.453 16.3587L28.4474 16.3585ZM19.7151 15.8757C19.6351 16.1115 19.6065 16.3642 19.6122 16.6112V16.6449C19.6122 16.9817 19.4522 17.2849 19.2064 17.4814C18.6235 17.953 18.2235 18.6268 18.2178 19.3735V20.4739C18.2178 20.7771 17.9663 21.0185 17.6635 21.0185H14.326C14.0174 21.0185 13.7716 20.7715 13.7716 20.4739V19.3735C13.7716 18.6324 13.3659 17.9586 12.783 17.4814C12.5372 17.2849 12.3772 16.9817 12.3772 16.6449V16.6112C12.3886 16.3585 12.3544 16.1115 12.2743 15.8757C12.16 15.5164 12.0972 15.1346 12.0972 14.7359C12.0972 12.6249 13.8402 10.9124 15.9891 10.9124C18.1381 10.9124 19.8811 12.6248 19.8811 14.7359C19.8811 15.1346 19.8182 15.5164 19.7039 15.8757H19.7151Z" fill="#34C3C0"/>
<path d="M15.4281 15.4041V14.8427C15.4281 14.5339 15.171 14.2812 14.8566 14.2812C14.5423 14.2812 14.2852 14.5339 14.2852 14.8427V15.4041C14.2852 15.7129 14.5423 15.9656 14.8566 15.9656C15.171 15.9656 15.4281 15.7129 15.4281 15.4041Z" fill="#34C3C0"/>
<path d="M17.1438 14.2808C16.8294 14.2808 16.5723 14.5334 16.5723 14.8422V15.4037C16.5723 15.7125 16.8294 15.9651 17.1438 15.9651C17.4581 15.9651 17.7152 15.7125 17.7152 15.4037V14.8422C17.7152 14.5334 17.4581 14.2808 17.1438 14.2808Z" fill="#34C3C0"/>
<path d="M16.3088 16.5885C16.1717 16.3527 15.8288 16.3527 15.6916 16.5885L15.1944 17.4363C15.0287 17.717 15.303 18.0482 15.6173 17.9472L15.8859 17.8574C15.9602 17.8349 16.0402 17.8349 16.1145 17.8574L16.3831 17.9472C16.6974 18.0483 16.9717 17.717 16.806 17.4363L16.3088 16.5885Z" fill="#34C3C0"/>
</svg>
