<svg width="17" height="16" viewBox="0 0 17 16" fill="none" xmlns="http://www.w3.org/2000/svg">
<path d="M7.95382 6.30438C8.05092 6.20713 8.20778 6.20713 8.30487 6.30438L8.91237 6.91279C9.93067 6.22708 11.3224 6.33181 12.2237 7.23445L14.1309 9.14451L9.64678 13.6354L7.7396 11.7253C6.83832 10.8227 6.73374 9.42873 7.41843 8.40899L6.81093 7.80058C6.71383 7.70333 6.71383 7.54623 6.81093 7.449L7.95382 6.30438Z" fill="white"/>
<path d="M15.4272 9.69376L15.0313 9.29729C14.9342 9.20004 14.7581 9.21812 14.679 9.29729L9.79912 14.1845C9.70202 14.2818 9.70202 14.4395 9.79912 14.5374L10.195 14.9338C10.2921 15.0311 10.4682 15.013 10.5473 14.9338L15.4272 10.0466C15.5243 9.94933 15.5243 9.79161 15.4272 9.69376Z" fill="white"/>
<path d="M2.35128 1.84094C2.3712 1.82099 2.39111 1.80104 2.41103 1.78359C3.51149 0.738805 5.30407 0.738805 6.40449 1.78359C7.27341 2.60894 7.54977 3.86073 7.10909 4.97527C6.95971 5.35179 7.06926 5.81557 7.38047 6.12976L7.40039 6.1522L6.65347 6.90025L6.63355 6.87781C6.01858 6.25942 5.81692 5.35927 6.12564 4.58379C6.40698 3.87564 6.2327 3.07772 5.67749 2.55165C4.97788 1.88838 3.83755 1.88838 3.13788 2.55165C3.12543 2.56411 3.11049 2.57658 3.09804 2.58905C2.75695 2.93315 2.56523 3.38697 2.55777 3.87321C2.5503 4.37689 2.742 4.85315 3.09804 5.20972C3.09804 5.20972 1.46222 5.39923 1.49967 3.85824C1.51959 3.09273 1.81349 2.3796 2.35128 1.84094Z" fill="white"/>
</svg>
