<svg width="16" height="16" viewBox="0 0 16 16" fill="none" xmlns="http://www.w3.org/2000/svg">
<path d="M9.04328 4.27406L9.04328 6.95673L11.7259 6.95672L12.3653 5.81734C12.968 5.21465 13.9453 5.21465 14.548 5.81734C15.1507 6.42003 15.1507 7.39731 14.548 8C15.1507 8.60269 15.1507 9.57997 14.548 10.1827C13.9453 10.7853 12.968 10.7854 12.3653 10.1827L11.7259 9.04328H9.04328V11.7259L10.1827 12.3653C10.7853 12.968 10.7853 13.9453 10.1827 14.548C9.57997 15.1507 8.60269 15.1507 8 14.548C7.39731 15.1507 6.42003 15.1507 5.81734 14.548C5.21465 13.9453 5.21465 12.968 5.81734 12.3653L6.95672 11.7259V9.04328H4.27406L3.63468 10.1827C3.03199 10.7854 2.0547 10.7854 1.45202 10.1827C0.849328 9.57998 0.849328 8.60269 1.45202 8C0.849328 7.39731 0.849328 6.42003 1.45202 5.81734C2.0547 5.21465 3.03199 5.21465 3.63468 5.81734L4.27406 6.95672L6.95672 6.95673L6.95672 4.27406L5.81734 3.63468C5.21465 3.03199 5.21465 2.0547 5.81734 1.45202C6.42003 0.849328 7.39731 0.849328 8 1.45202C8.60269 0.849328 9.57998 0.849328 10.1827 1.45202C10.7854 2.0547 10.7854 3.03199 10.1827 3.63468L9.04328 4.27406Z" fill="white"/>
</svg>
