<svg width="190" height="200" viewBox="0 0 190 200" fill="none" xmlns="http://www.w3.org/2000/svg">
<path d="M70.8818 57.8173C71.0983 57.7922 71.195 57.782 71.3876 57.8901C71.4377 58.5871 70.2062 63.0604 69.9813 64.0832C69.7078 64.1618 69.4363 64.245 69.1713 64.3492C68.2379 64.716 67.7336 65.1812 67.3379 66.1055C66.495 68.0743 66.1606 70.5115 65.7033 72.6076C62.9206 85.3645 63.3806 98.9532 68.1432 111.184C63.3464 114.268 59.1721 117.643 55.1431 121.688C55.8083 118.665 56.1917 115.567 56.8498 112.532C57.902 107.68 59.5407 102.99 61.4668 98.422C52.4048 99.6304 44.4103 104.506 37.1614 109.815C37.3065 109.423 37.4577 109.033 37.615 108.645C40.0717 102.511 42.768 96.2827 46.2435 90.65C47.2972 88.9424 48.4994 87.3277 49.6731 85.7017C39.4025 86.6265 31.8554 89.9682 23.3281 95.6309C32.3171 81.8835 45.4062 68.4497 60.4675 61.5177C63.8249 59.9723 67.3469 58.8721 70.8818 57.8173Z" fill="#0D0D0D"/>
<path d="M95.6056 0C96.1907 0.0319364 96.6926 0.158931 97.1362 0.563003C98.266 1.59161 98.0296 3.84071 98.0523 5.24383C99.0694 4.9039 100.095 4.55174 101.162 4.40976C107.797 3.52717 109.344 9.98011 114.596 10.5679C117.851 10.9318 119.246 8.52721 122.098 8.01237C124.002 7.66877 126.122 8.1067 127.97 8.55694C123.611 8.66116 122.768 10.0053 119.995 13.0362C118.832 14.3082 117.588 15.4049 116.224 16.4515C119.171 17.3224 120.538 15.5468 123.217 15.1544C125.579 14.8083 127.835 15.4186 130.058 16.1442C122.334 16.4855 120.417 23.3479 114.39 22.9337C109.4 22.5907 107.963 16.886 102.927 16.5439C100.967 16.4106 99.3874 17.2047 97.9473 18.444C97.7678 25.54 97.9182 32.6805 97.9058 39.7822C101.953 39.8326 106.019 39.7196 110.069 39.7136C111.638 39.7114 113.341 39.5629 114.893 39.7368C115.194 39.7703 115.481 39.8721 115.763 39.9789C115.876 40.0536 115.986 40.1322 116.093 40.2146C116.618 40.6234 117.05 41.2382 117.111 41.9143C117.176 42.6232 116.897 43.5058 116.407 44.0264C115.31 45.1913 112.799 44.7493 111.315 44.7502C111.595 47.7619 111.952 50.7644 112.388 53.7577C105.162 55.4275 97.9618 57.2969 90.7633 59.0831C85.0383 60.5038 79.275 61.8221 73.5938 63.4123C75.0414 55.8259 77.6702 51.5634 80.8484 44.8199C79.2704 44.798 75.7695 45.1682 74.6024 44.1383C74.1415 43.7318 73.9882 43.2012 73.9749 42.6049C73.9564 41.7805 74.0939 41.0365 74.6933 40.4329C74.9994 40.1248 75.4082 39.848 75.8414 39.7703C77.389 39.4936 79.7155 39.7043 81.3344 39.7085L93.3822 39.7224L93.3716 12.9149L93.3853 6.35031C93.378 5.00792 93.2893 3.61581 93.3846 2.27982C93.4177 1.81779 93.5086 1.43921 93.7642 1.04821C94.1966 0.38668 94.8611 0.139311 95.6056 0Z" fill="#0D0D0D"/>
<path d="M132.292 52.4108C132.632 52.3653 132.976 52.3927 133.29 52.5359C133.762 52.7506 134.145 53.1243 134.311 53.6213C134.467 54.0868 134.451 54.6525 134.214 55.089C133.61 56.2021 131.727 56.3974 130.606 56.6949C129.127 59.3355 128.156 62.458 127.115 65.3065C121.575 80.4691 120.126 97.6975 125.102 113.213C125.99 115.981 127.155 118.586 128.381 121.218C129.613 121.168 131.118 120.972 132.163 121.769C132.514 122.037 132.787 122.421 132.82 122.872C132.856 123.356 132.621 123.824 132.284 124.159C132.198 124.243 132.107 124.321 132.009 124.391C131.911 124.461 131.808 124.523 131.699 124.576C131.591 124.629 131.48 124.673 131.364 124.708C131.249 124.743 131.132 124.768 131.012 124.784C129.909 124.924 128.655 124.803 127.536 124.796L120.948 124.78L98.0205 124.815C97.8044 127.883 97.9188 131.023 97.9245 134.1C97.9027 138.374 97.9278 142.647 97.9998 146.92L114.348 146.927C117.62 146.932 120.964 147.086 124.225 146.861C127.981 142.608 131.765 138.381 135.577 134.178C137.557 131.963 139.732 129.234 141.787 127.188C142.116 126.86 142.497 126.485 142.946 126.344C144.614 125.817 150.41 126.132 152.511 126.146C152.559 120.008 152.564 113.871 152.527 107.734L152.557 69.7023C151.388 69.1686 150.409 68.5513 149.703 67.4359C148.934 66.2204 148.761 64.8326 149.094 63.4395C149.429 62.0354 150.275 60.8561 151.528 60.1318C152.821 59.3847 154.405 59.1516 155.847 59.5566C155.932 59.58 156.016 59.6055 156.099 59.6332C156.183 59.6609 156.265 59.6906 156.347 59.7224C156.429 59.7541 156.51 59.7879 156.591 59.8237C156.671 59.8596 156.75 59.8974 156.829 59.9371C156.907 59.977 156.985 60.0188 157.061 60.0625C157.137 60.1062 157.212 60.1518 157.286 60.1993C157.36 60.2467 157.433 60.296 157.505 60.3472C157.576 60.3982 157.647 60.4511 157.715 60.5056C157.784 60.5604 157.852 60.6167 157.918 60.6747C157.984 60.7327 158.049 60.7923 158.112 60.8537C158.175 60.9149 158.236 60.9777 158.296 61.042C158.356 61.1063 158.415 61.1721 158.471 61.2395C158.528 61.3067 158.583 61.3754 158.636 61.4454C158.689 61.5153 158.741 61.5866 158.79 61.6593C158.84 61.7318 158.888 61.8056 158.934 61.8807C158.979 61.9555 159.023 62.0316 159.066 62.1089C159.779 63.4249 159.806 65.0297 159.368 66.4422C158.839 68.1483 157.69 68.9896 156.199 69.8023L156.202 74.3422C157.576 75.2145 159.152 75.8442 160.613 76.5575C163.31 77.9028 166.02 79.2208 168.743 80.5117L189.358 90.525C182.389 93.5189 175.705 97.0354 169.014 100.59C164.765 102.847 160.449 105.014 156.317 107.482C155.987 109.518 156.192 111.855 156.194 113.923C156.19 118.008 156.207 122.093 156.245 126.178C162.846 126.102 169.447 126.085 176.048 126.129C178.352 126.137 182.09 125.875 184.211 126.166C185.183 126.3 186.064 126.674 186.812 127.317C187.957 128.3 188.686 129.793 188.79 131.295C188.797 131.387 188.801 131.479 188.803 131.571C188.805 131.664 188.804 131.756 188.802 131.848C188.799 131.94 188.794 132.033 188.786 132.125C188.779 132.217 188.769 132.308 188.757 132.4C188.744 132.491 188.73 132.582 188.713 132.673C188.696 132.764 188.677 132.854 188.656 132.944C188.634 133.033 188.61 133.123 188.584 133.211C188.558 133.3 188.53 133.387 188.499 133.474C188.469 133.562 188.436 133.648 188.401 133.733C188.366 133.818 188.329 133.903 188.289 133.986C188.25 134.07 188.208 134.152 188.165 134.233C188.121 134.315 188.076 134.395 188.028 134.474C187.98 134.553 187.931 134.631 187.879 134.707C187.827 134.784 187.774 134.859 187.718 134.932C187.663 135.006 187.606 135.078 187.546 135.149C187.487 135.22 187.426 135.289 187.363 135.357C185.605 137.247 183.529 137.123 181.178 137.211C180.752 139.935 180.453 142.659 179.836 145.353C176.33 160.671 168.539 175.918 156.933 186.676C151.275 191.994 142.626 198.435 134.838 199.705C132.749 200.045 130.614 199.936 128.505 199.934L120.111 199.934L89.9497 199.912L68.1299 199.918C64.1854 199.928 58.445 200.247 54.7318 199.556C49.2649 198.54 43.8796 195.241 39.4083 192.032C25.6894 182.184 15.7961 166.922 10.932 150.871C9.58322 146.42 8.71782 141.875 7.96212 137.294C7.04398 137.257 6.11392 137.177 5.22998 136.915C3.56788 136.424 2.14255 135.324 1.32796 133.78C0.660542 132.516 0.452833 131.046 0.905747 129.675C1.38265 128.23 2.45942 127.017 3.79536 126.311C3.84615 124.964 3.54133 117.821 3.81445 117.073C4.29109 116.815 4.93291 116.833 5.46614 116.817C7.80696 116.746 10.161 116.815 12.5032 116.823L24.5737 116.825L33.089 116.789C34.8789 116.773 36.6865 116.694 38.4734 116.795C38.5385 117.63 38.7541 118.754 38.2381 119.484C38.0999 119.679 37.9602 119.854 37.9106 120.095C37.5835 121.688 37.8327 124.567 37.8541 126.314C40.7844 126.315 43.7192 126.225 46.648 126.257C48.4675 127.838 50.1 129.718 51.7606 131.462C54.1562 133.978 56.5681 136.473 58.8963 139.053C61.2692 141.681 63.559 144.404 66.0424 146.929C75.1047 146.798 84.1777 146.956 93.2413 146.924C93.4185 144.058 93.2863 141.108 93.2817 138.234C93.2746 133.776 93.3256 129.305 93.2261 124.848C88.4228 124.643 83.5697 124.787 78.7596 124.788C76.765 124.789 74.6566 124.928 72.6736 124.711C72.1911 124.658 71.7676 124.578 71.3977 124.244C70.9785 123.867 70.7527 123.294 70.7452 122.735C70.7391 122.271 70.8845 121.786 71.2368 121.467C72.167 120.624 74.285 120.976 75.4386 121.039C74.9967 119.858 74.2907 118.708 73.7113 117.583C72.7707 115.802 71.9427 113.969 71.2275 112.085C67.9873 103.446 66.9486 93.5987 67.6282 84.4323C67.8063 82.0315 68.1811 79.6408 68.5439 77.2615C68.9939 74.3091 69.6538 70.4777 70.8766 67.7815C72.5824 67.0454 74.7058 66.7848 76.5289 66.3473L88.3416 63.4552L132.292 52.4108Z" fill="#0D0D0D"/>
<path d="M7.32565 120.383L14.0621 120.383C14.0702 122.314 14.0681 124.245 14.0559 126.176C11.8115 126.264 9.55105 126.21 7.30469 126.21L7.32565 120.383Z" fill="white"/>
<path d="M17.3169 120.379C19.5783 120.346 21.844 120.366 24.1059 120.36L24.105 126.206L17.3118 126.22C17.2903 124.273 17.292 122.326 17.3169 120.379Z" fill="white"/>
<path d="M31.3794 120.421C32.3942 120.405 33.4091 120.402 34.424 120.413L34.3923 126.226L30.5687 126.238L27.4345 126.233C27.4233 124.314 27.4317 122.395 27.4598 120.476C28.7616 120.419 30.0759 120.437 31.3794 120.421Z" fill="white"/>
<path d="M95.1308 161.235C96.6434 161.077 98.2296 161.52 99.5075 162.324C101.074 163.31 102.305 164.891 102.703 166.715C103.1 168.539 102.784 170.643 101.755 172.209C100.497 174.124 98.537 174.971 96.3708 175.43C94.4914 175.491 92.909 175.251 91.3331 174.159C89.7937 173.093 88.7513 171.555 88.4427 169.694C88.1265 167.787 88.5721 165.719 89.7226 164.155C91.0107 162.404 93.0299 161.522 95.1308 161.235Z" fill="white"/>
<path d="M130.52 161.232C132.328 161.08 134.047 161.446 135.538 162.511C137.127 163.647 138.072 165.383 138.36 167.298C138.64 169.153 138.222 171.033 137.097 172.544C135.792 174.297 133.955 175.103 131.842 175.397C130.043 175.568 128.292 175.138 126.825 174.069C125.248 172.921 124.26 171.244 123.987 169.318C123.971 169.204 123.958 169.089 123.948 168.973C123.938 168.858 123.931 168.743 123.927 168.627C123.923 168.512 123.921 168.396 123.922 168.28C123.924 168.165 123.928 168.049 123.935 167.933C123.942 167.818 123.952 167.703 123.964 167.588C123.977 167.473 123.992 167.358 124.011 167.244C124.029 167.13 124.05 167.016 124.074 166.903C124.098 166.79 124.124 166.677 124.153 166.565C124.183 166.453 124.215 166.342 124.25 166.232C124.284 166.121 124.322 166.012 124.362 165.903C124.402 165.795 124.445 165.688 124.49 165.581C124.536 165.475 124.584 165.37 124.634 165.266C124.685 165.161 124.738 165.059 124.793 164.957C124.849 164.856 124.907 164.756 124.968 164.657C125.028 164.558 125.091 164.461 125.156 164.366C125.221 164.27 125.289 164.177 125.359 164.084C126.62 162.41 128.487 161.536 130.52 161.232Z" fill="white"/>
<path d="M59.5245 161.133C61.3903 161.153 63.1867 161.804 64.5597 163.085C64.6468 163.168 64.7318 163.252 64.8146 163.339C64.8976 163.426 64.9783 163.514 65.0567 163.605C65.1353 163.695 65.2115 163.788 65.2854 163.882C65.3592 163.976 65.4308 164.073 65.4999 164.171C65.5691 164.269 65.6358 164.368 65.7001 164.469C65.7642 164.571 65.8259 164.673 65.885 164.778C65.9442 164.882 66.0007 164.988 66.0545 165.095C66.1084 165.202 66.1595 165.31 66.2079 165.42C66.2565 165.529 66.3023 165.64 66.3454 165.752C66.3884 165.864 66.4286 165.977 66.466 166.091C66.5035 166.205 66.538 166.319 66.5697 166.435C66.6015 166.551 66.6303 166.667 66.6562 166.784C66.6822 166.901 66.7053 167.019 66.7255 167.137C66.7455 167.255 66.7627 167.373 66.7769 167.492C66.7912 167.612 66.8025 167.731 66.8109 167.85C66.8193 167.97 66.8247 168.09 66.827 168.21C66.8306 168.327 66.8311 168.445 66.8286 168.562C66.8262 168.68 66.8208 168.797 66.8125 168.915C66.8041 169.032 66.7927 169.149 66.7785 169.265C66.7642 169.382 66.747 169.498 66.7268 169.614C66.7067 169.73 66.6836 169.845 66.6575 169.96C66.6315 170.075 66.6026 170.189 66.571 170.302C66.5392 170.415 66.5046 170.527 66.4673 170.639C66.4298 170.75 66.3895 170.861 66.3465 170.97C66.3036 171.08 66.2579 171.188 66.2095 171.295C66.1609 171.402 66.1097 171.508 66.0559 171.612C66.0022 171.717 65.9457 171.82 65.8866 171.922C65.8276 172.024 65.7661 172.124 65.7021 172.222C65.6379 172.321 65.5713 172.418 65.5023 172.513C65.4333 172.608 65.362 172.702 65.2885 172.793C65.2148 172.885 65.1388 172.974 65.0605 173.062C64.9822 173.15 64.9018 173.236 64.8193 173.319C63.3805 174.806 61.623 175.418 59.5832 175.454C57.8171 175.461 56.1989 174.992 54.8183 173.864C54.7275 173.788 54.6387 173.711 54.5517 173.631C54.4646 173.552 54.3796 173.47 54.2966 173.386C54.2134 173.302 54.1324 173.217 54.0536 173.129C53.9747 173.041 53.898 172.952 53.8234 172.861C53.7488 172.769 53.6765 172.676 53.6064 172.581C53.5364 172.486 53.4687 172.39 53.4034 172.292C53.3379 172.193 53.2749 172.094 53.2144 171.993C53.1538 171.891 53.0957 171.789 53.0401 171.685C52.9846 171.581 52.9316 171.475 52.8812 171.369C52.8307 171.262 52.7828 171.154 52.7375 171.045C52.6922 170.936 52.6496 170.826 52.6097 170.715C52.5698 170.604 52.5326 170.493 52.498 170.38C52.4636 170.267 52.4318 170.153 52.4027 170.039C52.3737 169.925 52.3475 169.81 52.3241 169.694C52.3007 169.579 52.2801 169.463 52.2623 169.346C52.2445 169.229 52.2295 169.112 52.2173 168.995C52.0394 167.159 52.6682 165.261 53.839 163.846C55.3279 162.046 57.2569 161.337 59.5245 161.133Z" fill="white"/>
<path d="M94.4231 70.7534C97.0497 70.6194 99.9877 71.6956 101.929 73.4632C103.847 75.2106 104.906 77.7869 105.01 80.3573C105.162 84.1128 103.635 87.1425 101.159 89.8415C102.366 90.9208 103.574 92.0124 104.906 92.936C104.94 92.8482 104.976 92.7607 105.011 92.6734C105.349 91.853 105.839 91.1847 106.701 90.8546C107.379 90.595 108.181 90.6451 108.839 90.9435C108.924 90.9828 109.008 91.0262 109.089 91.0737C109.17 91.1212 109.249 91.1727 109.325 91.2282C109.401 91.2835 109.474 91.3425 109.545 91.4052C109.615 91.4678 109.682 91.5337 109.745 91.603C109.809 91.6723 109.869 91.7446 109.926 91.8199C109.982 91.8953 110.035 91.9732 110.084 92.0537C110.133 92.1341 110.178 92.2168 110.218 92.3017C110.259 92.3866 110.295 92.4734 110.327 92.5619C110.556 93.1912 110.556 93.9065 110.248 94.5088C109.562 95.8461 108.702 95.5305 107.634 96.1045C107.138 96.3707 107.239 98.2776 107.064 98.8217C106.902 99.3253 106.605 99.7149 106.127 99.9512C105.395 100.313 104.291 100.401 103.525 100.1C102.921 99.8627 102.316 99.3377 102.081 98.7208C101.784 97.9415 102.065 97.1741 102.366 96.4484C101.03 95.4164 99.786 94.2722 98.4671 93.2179L96.9733 93.9191C96.827 93.9767 96.6798 94.0252 96.5277 94.0663C94.5422 94.6008 93.0021 94.0681 91.2828 93.0749C90.0742 94.1702 88.6259 95.1429 87.5597 96.3762C87.62 96.9026 87.6592 97.4685 87.6019 97.9973C87.527 98.6861 87.2046 99.3772 86.6548 99.8124C86.1339 100.225 85.4506 100.387 84.796 100.301C84.1454 100.215 83.5572 99.8727 83.1793 99.3333C82.5905 98.4928 82.6737 97.5694 82.8293 96.6141C82.0892 96.4806 81.3618 96.3601 80.7398 95.9063C80.2316 95.5355 79.8727 95.0217 79.7859 94.3905C79.6915 93.7017 79.9329 92.9992 80.3728 92.4699C80.8171 91.9354 81.4602 91.5776 82.157 91.5218C83.2274 91.4359 84.0282 91.9866 84.7825 92.6663C85.9964 91.8407 87.2081 91.0347 88.4765 90.2944C86.9521 87.7066 85.3405 84.7279 85.043 81.7025C85.0281 81.5377 85.0174 81.3726 85.0108 81.2072C85.0041 81.0418 85.0016 80.8764 85.0032 80.7111C85.0047 80.5455 85.0104 80.3802 85.0202 80.2151C85.03 80.0499 85.0438 79.885 85.0617 79.7205C85.0797 79.556 85.1018 79.392 85.1279 79.2286C85.154 79.0652 85.1841 78.9026 85.2182 78.7406C85.2525 78.5787 85.2907 78.4178 85.3328 78.2577C85.375 78.0977 85.4211 77.9389 85.4711 77.7812C85.5212 77.6234 85.5751 77.467 85.6329 77.3119C85.6908 77.157 85.7524 77.0035 85.8179 76.8515C85.8834 76.6996 85.9525 76.5493 86.0253 76.4006C86.0983 76.252 86.1749 76.1054 86.2551 75.9608C86.3353 75.816 86.419 75.6733 86.5063 75.5326C86.5935 75.3921 86.6842 75.2538 86.7784 75.1177C86.8726 74.9816 86.97 74.8479 87.0708 74.7166C87.1716 74.5854 87.2756 74.4567 87.3827 74.3306C89.1799 72.197 91.66 70.9838 94.4231 70.7534Z" fill="white"/>
<path d="M94.1879 85.9313C94.3054 85.9282 94.423 85.9233 94.5404 85.9273C95.0352 85.9441 95.5197 86.1537 95.8529 86.5252C95.8897 86.5662 95.9243 86.6091 95.9567 86.6539C95.9889 86.6987 96.0188 86.7451 96.0463 86.7929C96.0738 86.8407 96.0987 86.8899 96.1209 86.9405C96.1433 86.991 96.1628 87.0425 96.1796 87.095C96.1965 87.1476 96.2106 87.2008 96.222 87.2548C96.2332 87.3088 96.2415 87.3633 96.2471 87.4184C96.2527 87.4733 96.2554 87.5283 96.2551 87.5835C96.2549 87.6386 96.2518 87.6937 96.2458 87.7486C96.18 88.406 95.8071 88.8157 95.318 89.2169C95.1326 89.2593 94.9388 89.2924 94.7479 89.2867C94.3813 89.2752 93.9547 89.1063 93.703 88.8347C93.37 88.4747 93.2563 87.9982 93.2969 87.5181C93.3552 86.8258 93.6624 86.3605 94.1879 85.9313Z" fill="#0D0D0D"/>
<path d="M89.7763 82.1006C90.3089 82.041 90.8094 81.98 91.3204 82.1813C91.3982 82.2124 91.4743 82.2473 91.5486 82.286C91.6229 82.3246 91.6951 82.367 91.7651 82.4131C91.8351 82.459 91.9027 82.5083 91.9677 82.5609C92.0329 82.6138 92.0952 82.6696 92.1547 82.7285C92.2141 82.7875 92.2705 82.8493 92.3239 82.9141C92.3772 82.9787 92.4271 83.0458 92.4736 83.1154C92.5201 83.1851 92.563 83.2569 92.6025 83.3308C92.6418 83.4048 92.6773 83.4806 92.7091 83.5581C92.9481 84.1344 92.9688 84.7932 92.723 85.3706C92.4202 86.081 91.8777 86.4079 91.1915 86.6941C90.7927 86.7226 90.3819 86.7469 89.9884 86.6586C89.3409 86.5134 88.7282 86.0967 88.3894 85.5222C88.3494 85.4555 88.313 85.3869 88.2804 85.3163C88.2477 85.2458 88.2189 85.1738 88.1938 85.1002C88.1688 85.0265 88.1479 84.9517 88.1309 84.8757C88.1139 84.8 88.1009 84.7234 88.0921 84.6462C88.0833 84.569 88.0786 84.4914 88.0782 84.4136C88.0776 84.3359 88.0812 84.2583 88.089 84.1809C88.0967 84.1036 88.1085 84.0268 88.1245 83.9507C88.1404 83.8747 88.1604 83.7996 88.1844 83.7256C88.451 82.8922 89.0363 82.4927 89.7763 82.1006Z" fill="#0D0D0D"/>
<path d="M99.3281 81.9766C99.8033 81.9755 100.207 81.9892 100.637 82.2079C101.235 82.5118 101.687 83.0067 101.884 83.6533C101.907 83.7248 101.925 83.7974 101.94 83.8709C101.956 83.9444 101.967 84.0184 101.975 84.093C101.982 84.1676 101.986 84.2424 101.987 84.3174C101.987 84.3925 101.983 84.4673 101.976 84.5419C101.968 84.6166 101.957 84.6908 101.943 84.7644C101.928 84.8378 101.909 84.9104 101.887 84.9822C101.865 85.0539 101.84 85.1243 101.81 85.1934C101.781 85.2624 101.749 85.3299 101.713 85.3958C101.316 86.1358 100.689 86.4649 99.9203 86.7159C99.3692 86.7229 98.8911 86.7145 98.393 86.4523C97.8626 86.1734 97.4678 85.7024 97.3056 85.1239C97.2841 85.0444 97.2666 84.9642 97.253 84.8831C97.2395 84.802 97.2299 84.7204 97.2243 84.6383C97.2189 84.5564 97.2174 84.4743 97.2199 84.392C97.2226 84.3098 97.2292 84.2279 97.2398 84.1464C97.2504 84.0649 97.265 83.984 97.2837 83.9038C97.3023 83.8238 97.3248 83.7448 97.3512 83.667C97.3776 83.589 97.4078 83.5126 97.4417 83.4377C97.4756 83.3628 97.5131 83.2897 97.5543 83.2185C97.9748 82.4814 98.534 82.1896 99.3281 81.9766Z" fill="#0D0D0D"/>
</svg>
