<svg width="156" height="200" viewBox="0 0 156 200" fill="none" xmlns="http://www.w3.org/2000/svg">
<path d="M76.8962 0.00529781C87.7677 -0.172823 97.2816 4.14624 104.65 12.1107C106.771 14.4036 108.786 17.0012 110.194 19.7959C110.886 21.1674 111.179 22.6826 111.706 24.1191C113.219 28.2434 115.445 32.6753 118.657 35.7339C122.187 39.0963 126.902 40.9323 131.724 41.3126C133.426 41.447 135.14 41.3771 136.845 41.3396C135.663 43.7854 134.661 46.0549 132.699 48.0118C128.231 52.4688 124.157 52.7192 118.201 52.7041L110.709 52.6791L110.713 70.3707C110.714 72.692 111.028 77.1115 110.516 79.1862C110.135 80.7315 109.2 81.9043 108.155 83.0629C108.868 84.5225 109.708 85.9739 110.632 87.3088C114.198 92.4574 122.46 99.2959 128.663 100.415C123.149 103.261 116.483 103.649 110.385 103.761C115.981 110.281 122.398 115.981 130.05 119.961C129.152 120.238 128.248 120.495 127.338 120.731C126.428 120.967 125.513 121.182 124.592 121.376C123.672 121.569 122.748 121.741 121.82 121.892C120.892 122.043 119.961 122.172 119.027 122.279C118.093 122.387 117.157 122.472 116.219 122.536C115.281 122.6 114.342 122.643 113.402 122.663C112.461 122.684 111.521 122.682 110.582 122.659C109.642 122.636 108.703 122.591 107.765 122.524C108.382 123.951 109.012 125.372 109.653 126.789C115.694 129.278 121.697 131.854 127.663 134.517C131.363 136.129 135.131 137.266 138.461 139.644C142.611 142.608 145.661 146.372 147.542 151.133C148.937 154.662 149.265 158.11 149.728 161.824C150.108 164.924 150.508 168.021 150.931 171.115C152.329 180.734 153.835 190.336 155.451 199.921C152.557 199.991 149.649 199.914 146.754 199.914L129.502 199.931L80.8563 199.981L28.5156 199.977C19.2355 199.972 9.93424 199.835 0.65625 200C1.10847 196.986 1.44622 193.948 1.86029 190.928L4.07737 175.158C4.54154 171.658 5.02919 168.162 5.54033 164.669C6.37202 158.695 7.06891 152.85 10.1198 147.514C11.6484 144.84 13.4874 142.323 15.9188 140.401C19.7366 137.383 24.5353 135.592 28.9969 133.746C34.728 131.374 40.4819 129.127 46.4816 127.514C47.346 125.938 47.9179 124.076 48.4607 122.364C42.647 123.07 36.5973 122.334 30.9362 120.961C29.228 120.547 27.5608 120.018 25.863 119.572C31.5402 117.102 35.2821 114.058 39.5748 109.697C41.3474 107.896 43.076 106.04 44.4438 103.905C40.3134 103.684 36.192 103.332 32.2336 102.051C30.8335 101.598 29.4624 101.007 28.0967 100.458C28.6506 100.287 29.2011 100.104 29.7481 99.9118C37.6921 97.0635 43.5764 90.0582 47.1026 82.6373C47.0029 82.5253 46.9072 82.4101 46.8153 82.2916C46.7235 82.173 46.6359 82.0516 46.5524 81.9272C46.4689 81.8028 46.3896 81.6757 46.3147 81.5458C46.2398 81.416 46.1693 81.2838 46.1034 81.1492C46.0375 81.0146 45.9762 80.8779 45.9195 80.7391C45.8629 80.6003 45.811 80.4598 45.7639 80.3175C45.717 80.1752 45.6748 80.0314 45.6375 79.8862C45.6002 79.741 45.5678 79.5947 45.5404 79.4474C45.1484 77.2643 45.4044 73.6803 45.404 71.3804C45.4027 65.1862 45.5067 58.9748 45.3713 52.7833L38.3493 52.7795C35.7614 52.773 33.0703 52.8567 30.535 52.273C29.0785 51.9378 27.6918 51.3352 26.388 50.6117C22.7941 48.6169 20.0047 45.0008 18.8793 41.0687C20.771 41.3449 22.6862 41.5266 24.5995 41.4302C31.5316 41.0809 36.2595 37.6013 40.2006 32.1446C41.1199 30.8721 42.1135 29.524 42.7888 28.1061C43.4454 26.7274 43.8597 25.2657 44.3752 23.8325C44.8489 22.533 45.4054 21.2699 46.0449 20.0435C47.6837 16.8505 49.7757 13.9699 52.1909 11.3196C58.684 4.19456 67.333 0.434562 76.8962 0.00529781Z" fill="#0D0D0D"/>
<path d="M77.7378 181.441C78.2036 181.492 78.6062 181.558 79.0066 181.817C79.5471 182.167 79.9205 182.699 80.0413 183.334C80.0561 183.408 80.067 183.484 80.0742 183.56C80.0813 183.635 80.0845 183.711 80.0838 183.788C80.0831 183.864 80.0786 183.94 80.0702 184.016C80.0618 184.091 80.0495 184.167 80.0333 184.241C80.0172 184.316 79.9974 184.389 79.9737 184.462C79.9501 184.534 79.9229 184.605 79.892 184.675C79.8612 184.745 79.8269 184.813 79.789 184.879C79.7512 184.945 79.7101 185.009 79.6658 185.071C79.2163 185.695 78.671 185.878 77.9435 186.018C77.5367 185.977 77.1489 185.93 76.7797 185.742C76.2543 185.474 75.8476 185.016 75.6715 184.451C75.6485 184.377 75.6295 184.302 75.6142 184.226C75.599 184.15 75.5877 184.073 75.5803 183.996C75.573 183.918 75.5697 183.841 75.5704 183.763C75.5711 183.685 75.5758 183.608 75.5844 183.531C75.593 183.454 75.6056 183.377 75.6222 183.301C75.6387 183.225 75.659 183.15 75.6832 183.077C75.7075 183.003 75.7355 182.931 75.7673 182.86C75.7989 182.789 75.8341 182.72 75.8729 182.653C76.3132 181.898 76.9208 181.639 77.7378 181.441Z" fill="white"/>
<path d="M77.4029 162.549C77.7878 162.539 78.1874 162.511 78.5577 162.636C78.6306 162.661 78.7022 162.69 78.7723 162.723C78.8425 162.755 78.9109 162.791 78.9774 162.83C79.0438 162.869 79.1081 162.912 79.1705 162.958C79.2327 163.004 79.2924 163.053 79.3497 163.104C79.407 163.156 79.4615 163.211 79.5132 163.268C79.5651 163.325 79.614 163.385 79.6598 163.447C79.7055 163.51 79.7481 163.574 79.7875 163.64C79.8268 163.707 79.8626 163.775 79.895 163.845C79.9269 163.916 79.9553 163.988 79.9801 164.062C80.0049 164.136 80.026 164.211 80.0435 164.286C80.0609 164.362 80.0746 164.439 80.0846 164.516C80.0945 164.593 80.1006 164.67 80.103 164.748C80.1052 164.826 80.1037 164.903 80.0984 164.981C80.0931 165.059 80.084 165.136 80.0711 165.212C80.0583 165.289 80.0417 165.365 80.0215 165.44C80.001 165.515 79.9771 165.589 79.9495 165.662C79.6455 166.462 79.06 166.829 78.3023 167.142C77.8402 167.169 77.4117 167.192 76.9769 167.007C76.9085 166.978 76.8418 166.945 76.7767 166.909C76.7114 166.873 76.6481 166.834 76.5867 166.792C76.5253 166.75 76.4662 166.705 76.4091 166.657C76.3522 166.609 76.2977 166.558 76.2456 166.505C76.1935 166.452 76.1441 166.396 76.0976 166.338C76.0509 166.28 76.0072 166.22 75.9663 166.158C75.9255 166.096 75.8878 166.031 75.8531 165.966C75.8186 165.9 75.7873 165.832 75.7592 165.763C75.7294 165.689 75.7034 165.614 75.6812 165.538C75.659 165.462 75.6406 165.384 75.6261 165.306C75.6115 165.228 75.6009 165.149 75.5942 165.07C75.5876 164.991 75.585 164.911 75.5862 164.831C75.5874 164.752 75.5925 164.673 75.6018 164.594C75.6108 164.515 75.6239 164.436 75.641 164.359C75.6579 164.281 75.6787 164.204 75.7034 164.129C75.728 164.053 75.7563 163.979 75.7883 163.906C76.1234 163.156 76.6645 162.833 77.4029 162.549Z" fill="white"/>
<path d="M86.3981 30.7709C86.6792 30.7671 87.0738 30.7228 87.3392 30.8222C87.6709 30.9468 88.025 31.2325 88.1508 31.5745C88.3229 32.0418 88.2181 32.4254 88.0195 32.8655C87.9277 33.0691 87.877 33.1271 87.8847 33.3538C88.2774 33.4735 88.7212 33.5834 89.0554 33.8328C89.3412 34.0461 89.507 34.3865 89.5414 34.7383C89.5812 35.1442 89.4368 35.5296 89.163 35.8283C88.8946 36.1208 88.5114 36.3053 88.1126 36.3088C87.6449 36.313 87.3315 36.1095 87.0113 35.79C86.8918 35.6707 86.7683 35.5577 86.6442 35.4432C86.3928 35.5459 86.3838 35.6208 86.24 35.8562C86.2851 36.0329 86.3343 36.1751 86.4155 36.3403C86.558 36.6302 86.7381 36.9095 86.6962 37.2464C86.6645 37.5003 86.5234 37.6953 86.3366 37.8588C85.953 38.1947 85.0716 38.3974 84.5785 38.285C84.3422 38.2309 84.2116 38.1538 84.0984 37.9355C83.9498 37.6489 83.9757 37.0588 84.0829 36.7682C84.1474 36.5929 84.1563 36.6525 84.1508 36.4816C84.1498 36.452 84.143 36.4231 84.1391 36.394C82.5461 35.0394 80.441 34.8761 78.6367 33.9647L78.6835 33.7395C78.807 33.6578 78.9382 33.576 79.0543 33.4831C79.4722 33.1483 79.4839 32.5412 79.555 32.0472C80.1487 31.8766 81.0962 31.2241 81.5423 31.243C81.801 31.5244 81.8037 31.7921 81.8857 32.1609C82.6484 32.5657 83.6652 32.9871 84.5148 33.1445C85.732 33.3701 85.0827 31.6367 86.2983 30.835C86.3314 30.8132 86.365 30.7922 86.3981 30.7709Z" fill="white"/>
<path d="M68.446 30.6708C68.7337 30.6389 69.05 30.6276 69.3358 30.6863C70.6048 30.9465 70.0289 32.1706 70.5143 32.9212C71.0363 33.1528 72.0087 32.8891 72.5573 32.752C74.6528 32.2285 73.3949 32.1861 74.0484 31.1177C74.4853 31.1404 74.8474 31.632 75.2698 31.7622C75.7187 31.9006 76.1522 31.5723 76.6103 31.8092C76.5558 32.1295 76.4873 32.4933 76.5101 32.818C76.5441 33.2985 76.8493 33.5688 77.1982 33.855L77.2934 33.9315C75.8212 34.5095 74.3092 34.964 72.8506 35.5842C72.4127 35.814 72.0105 36.1035 71.6019 36.3809C71.7315 36.7641 71.9154 37.2534 71.7424 37.6497C71.6063 37.9612 71.316 38.1373 70.9988 38.217C70.5818 38.3218 69.9631 38.3015 69.6056 38.0306C68.7016 37.3457 69.5456 36.4681 69.4651 35.6351C69.1431 35.3689 68.0617 36.3341 67.3091 36.3383C67.0552 36.3398 66.7952 36.2408 66.6325 36.0385C66.3428 35.6785 66.2564 35.0057 66.2761 34.5632C66.3283 33.3879 67.2575 33.7654 67.8611 33.1855C67.867 32.8216 67.6703 32.6398 67.4743 32.3396C67.6592 31.5417 67.7984 31.1989 68.446 30.6708Z" fill="white"/>
<path d="M77.2158 10.0553C78.8419 9.78375 80.9757 10.2851 82.4334 11.0111C84.6476 12.114 86.5525 14.3086 87.3177 16.663C88.1865 19.3359 87.6505 22.5021 86.3892 24.9649C85.2866 27.1182 83.6893 28.6625 81.369 29.3976C81.2424 30.0223 81.0879 30.806 80.5424 31.2121C80.1633 31.4945 79.8333 31.4247 79.3983 31.3438L79.2647 31.3176C78.9807 31.7019 79.0853 32.6076 78.7339 33.2093C78.7142 33.2432 78.6937 33.2768 78.6735 33.3103C78.5354 33.4189 78.3983 33.4984 78.2389 33.5709C77.8905 33.729 77.6982 33.746 77.3366 33.6158C76.7422 33.0455 76.9407 32.1107 76.7185 31.3673C76.4833 31.2308 76.4093 31.3262 76.1554 31.3899C75.8491 31.4671 75.5304 31.5442 75.2533 31.3381C74.7922 30.9956 74.7436 30.3171 74.6991 29.7997C74.1733 29.3676 73.5358 29.046 72.9815 28.6451C70.4753 26.8321 69.0846 23.7749 68.6395 20.7752C68.2806 18.3558 68.7729 15.8697 70.2614 13.8979C71.9277 11.691 74.5146 10.419 77.2158 10.0553Z" fill="white"/>
<path d="M77.748 26.4734C77.917 26.4702 78.0743 26.4763 78.2401 26.5132C78.7248 26.6208 79.028 26.7476 79.2986 27.1707C79.3362 27.36 79.3659 27.5026 79.2951 27.6917C79.1269 28.1403 78.6682 28.3305 78.272 28.5299C78.0665 28.5471 77.8478 28.559 77.643 28.5307C77.2946 28.4827 76.9205 28.2621 76.7503 27.9502C76.622 27.7154 76.6184 27.4353 76.7197 27.1902C76.9069 26.7375 77.3277 26.6321 77.748 26.4734Z" fill="#0D0D0D"/>
<path d="M74.4439 21.043C74.7611 21.0948 75.0668 21.1524 75.3639 21.2801C76.0326 21.5677 76.5723 22.0837 76.8333 22.7697C76.8618 22.8426 76.8864 22.9169 76.9071 22.9925C76.9279 23.068 76.9446 23.1444 76.9572 23.2217C76.9699 23.299 76.9785 23.3768 76.983 23.455C76.9876 23.5332 76.988 23.6114 76.9843 23.6896C76.9806 23.7679 76.9729 23.8457 76.961 23.9232C76.9491 24.0006 76.9332 24.0772 76.9134 24.153C76.8934 24.2287 76.8696 24.3032 76.8419 24.3765C76.8141 24.4498 76.7826 24.5215 76.7474 24.5913C76.3478 25.3715 75.6909 25.643 74.8951 25.8734C74.2173 25.8797 73.6575 25.9052 73.0638 25.5197C72.5302 25.1736 72.1618 24.6446 72.0415 24.0182C71.9209 23.3898 72.04 22.7393 72.4046 22.2097C72.9073 21.4793 73.6057 21.208 74.4439 21.043Z" fill="#0D0D0D"/>
<path d="M81.055 21.1563C81.5431 21.1078 82.0088 21.0963 82.4775 21.267C82.5544 21.2945 82.6298 21.3257 82.7037 21.3607C82.7775 21.3955 82.8495 21.4339 82.9197 21.476C82.9897 21.5179 83.0576 21.5632 83.1233 21.6118C83.189 21.6605 83.2521 21.7122 83.3126 21.767C83.3731 21.8218 83.4308 21.8794 83.4858 21.9399C83.5407 22.0005 83.5925 22.0635 83.6413 22.129C83.69 22.1946 83.7353 22.2624 83.7774 22.3324C83.8195 22.4024 83.858 22.4743 83.8931 22.5481C83.9258 22.617 83.955 22.6874 83.9805 22.7593C84.0061 22.8311 84.0279 22.9041 84.0459 22.9784C84.064 23.0524 84.0782 23.1272 84.0887 23.2027C84.0991 23.2783 84.1056 23.3542 84.1082 23.4304C84.1109 23.5067 84.1096 23.5829 84.1044 23.6589C84.0994 23.7351 84.0905 23.8107 84.0776 23.8859C84.0646 23.9611 84.0479 24.0354 84.0275 24.1088C84.007 24.1823 83.9828 24.2546 83.955 24.3256C83.6212 25.1699 82.9752 25.5917 82.1727 25.9319C81.7022 25.9781 81.2125 25.9728 80.7624 25.8135C80.1336 25.591 79.599 25.1392 79.3191 24.5287C79.286 24.4568 79.2567 24.3833 79.2313 24.3084C79.2058 24.2335 79.1843 24.1574 79.1667 24.0803C79.1491 24.003 79.1355 23.9251 79.126 23.8465C79.1165 23.768 79.1111 23.6891 79.1097 23.6098C79.1084 23.5307 79.1112 23.4517 79.1181 23.3729C79.1251 23.294 79.136 23.2156 79.151 23.1379C79.1661 23.0602 79.1851 22.9835 79.208 22.9077C79.2309 22.8319 79.2578 22.7576 79.2885 22.6846C79.629 21.8718 80.2732 21.4793 81.055 21.1563Z" fill="#0D0D0D"/>
<path d="M100.404 115.73C101.436 117.021 103.048 122.007 103.714 123.845L108.667 137.881C109.54 140.412 111.015 143.965 111.539 146.515C109.495 145.728 107.51 144.777 105.502 143.901C101.73 142.254 97.9725 140.608 94.227 138.896C93.1358 139.605 92.0961 140.402 91.0185 141.133C88.0432 143.122 85.0897 145.143 82.1579 147.196C80.7055 148.212 79.289 149.29 77.8015 150.254C74.488 148.066 71.3157 145.642 68.1309 143.273C66.2365 141.864 64.1028 140.485 62.4084 138.839C58.1625 140.615 53.9749 142.557 49.7456 144.378C47.9576 145.148 46.1701 146.003 44.3281 146.633C44.8678 144.236 45.9186 141.852 46.7507 139.535C47.4836 137.728 48.0633 135.824 48.7032 133.981C50.802 127.934 52.6937 121.743 55.1274 115.821C55.9008 117.423 56.4096 119.17 57.1513 120.796C58.8437 124.507 61.3373 128.329 64.1204 131.318C64.9997 132.262 65.9771 133.123 66.9266 133.996C67.3011 131.094 67.9564 128.309 69.1133 125.615C71.1671 131.072 73.2135 135.168 78.0275 138.798C82.3651 135.777 85.6306 130.439 86.9799 125.39C88.1842 128.159 88.8379 130.859 89.0469 133.88C94.3635 129.843 98.5964 122.095 100.404 115.73Z" fill="white"/>
<path d="M70.7273 52.7423C75.3802 52.632 80.0517 52.7356 84.7064 52.7345C91.8285 52.7333 98.9559 52.6821 106.078 52.7783L106.073 69.3304C106.074 71.6704 106.333 75.629 105.886 77.7593C105.658 78.8436 105.019 79.8869 104.245 80.6737C102.835 82.1063 100.965 82.6468 99.0028 82.6482C98.9682 88.0185 99.1965 93.4238 99.0079 98.7886C95.6236 97.0137 92.721 95.4408 88.9934 94.4244C79.5279 91.8436 69.6998 92.4348 60.756 96.5948C59.488 97.1845 58.2813 97.9043 57.0682 98.5974C56.8993 93.3435 57.3012 88.0315 56.9261 82.7897L55.5654 82.5801C54.1805 82.182 52.9875 81.6044 51.969 80.5592C51.1566 79.7255 50.4078 78.5134 50.1893 77.3595C49.8354 75.4902 50.087 72.3966 50.083 70.4101C50.0725 64.5523 50.097 58.6947 50.1564 52.8372L61.0405 52.788C62.5894 52.7829 64.4946 52.5687 66.0156 52.8622C67.2907 53.1083 70.0757 55.2032 71.3584 56.0135L79.0038 60.7688C80.9351 61.9766 82.8589 63.3136 84.9301 64.2675C84.9118 65.0296 84.9439 65.8179 85.0932 66.567C85.1146 66.6764 85.1387 66.7852 85.1655 66.8934C85.1922 67.0016 85.2216 67.1091 85.2538 67.2159C85.2859 67.3225 85.3207 67.4284 85.3582 67.5335C85.3955 67.6385 85.4354 67.7424 85.4779 67.8455C85.5205 67.9486 85.5656 68.0506 85.6131 68.1513C85.6606 68.2521 85.7107 68.3517 85.7632 68.4501C85.8158 68.5484 85.8707 68.6453 85.928 68.7409C85.9853 68.8365 86.045 68.9306 86.1071 69.0233C86.169 69.1158 86.2332 69.2069 86.2997 69.2965C86.3663 69.3859 86.435 69.4736 86.5058 69.5596C86.5767 69.6457 86.6497 69.73 86.7247 69.8124C86.7998 69.8947 86.8768 69.9753 86.9557 70.0539C87.0349 70.1325 87.1158 70.2091 87.1985 70.2837C87.2814 70.3584 87.366 70.4308 87.4524 70.5011C87.5389 70.5716 87.6271 70.6399 87.7168 70.706C87.8067 70.7719 87.8981 70.8357 87.991 70.8972C88.0876 70.9608 88.1857 71.0219 88.2854 71.0806C88.385 71.1393 88.4861 71.1955 88.5885 71.2492C88.691 71.3027 88.7948 71.3537 88.8999 71.402C89.005 71.4504 89.1112 71.4961 89.2185 71.5391C89.3259 71.5822 89.4343 71.6224 89.5437 71.6599C89.653 71.6975 89.7632 71.7323 89.8743 71.7643C89.9856 71.7962 90.0975 71.8253 90.21 71.8517C90.3226 71.878 90.4358 71.9015 90.5496 71.9222C90.6634 71.9427 90.7776 71.9605 90.8924 71.9754C91.0071 71.9902 91.1222 72.0022 91.2375 72.0113C91.3527 72.0202 91.4681 72.0264 91.5838 72.0297C91.6994 72.0329 91.815 72.0332 91.9306 72.0306C92.0462 72.0279 92.1617 72.0224 92.2772 72.014C92.3925 72.0056 92.5075 71.9943 92.6222 71.98C92.737 71.9658 92.8513 71.9487 92.9652 71.9287C93.0792 71.9087 93.1925 71.8858 93.3053 71.8601C93.4143 71.8344 93.5226 71.806 93.6303 71.775C93.738 71.7438 93.8449 71.7101 93.9508 71.6737C94.0568 71.6374 94.1617 71.5985 94.2657 71.5569C94.3698 71.5153 94.4728 71.4711 94.5745 71.4244C94.6764 71.3778 94.7771 71.3286 94.8764 71.2769C94.9758 71.2253 95.0739 71.1712 95.1706 71.1146C95.2673 71.058 95.3626 70.9991 95.4565 70.9378C95.5503 70.8766 95.6425 70.8131 95.7331 70.7473C95.8238 70.6813 95.9128 70.6132 96 70.5431C96.0873 70.4728 96.1728 70.4004 96.2564 70.3259C96.3401 70.2514 96.4219 70.1748 96.5017 70.0963C96.5816 70.0177 96.6595 69.9372 96.7354 69.8548C96.8113 69.7723 96.8851 69.6881 96.9568 69.6021C97.0285 69.516 97.0981 69.4282 97.1654 69.3386C97.2328 69.2492 97.2979 69.158 97.3606 69.0652C97.4235 68.9724 97.484 68.8781 97.5422 68.7824C98.5571 67.1358 98.7879 65.0873 98.3175 63.2239C97.9179 61.6408 96.7765 60.1673 95.3578 59.3581C95.2562 59.2994 95.1532 59.2431 95.049 59.1893C94.9447 59.1356 94.8391 59.0845 94.7322 59.0358C94.6254 58.9872 94.5175 58.9412 94.4085 58.8979C94.2993 58.8546 94.1893 58.814 94.0783 58.7761C93.9672 58.7381 93.8553 58.7028 93.7426 58.6704C93.6298 58.6378 93.5163 58.6081 93.4022 58.5813C93.2878 58.5543 93.173 58.5302 93.0577 58.5088C92.9422 58.4874 92.8264 58.4689 92.7101 58.4532C92.5938 58.4376 92.4772 58.4247 92.3602 58.4146C92.2433 58.4047 92.1263 58.3976 92.009 58.3933C91.8917 58.3889 91.7744 58.3875 91.657 58.3891C91.5397 58.3905 91.4225 58.3947 91.3054 58.4018C91.1883 58.4091 91.0714 58.4192 90.9547 58.432C90.8381 58.4449 90.7218 58.4606 90.6058 58.4792C90.4899 58.4977 90.3746 58.519 90.2599 58.5432C90.145 58.5673 90.0308 58.5943 89.9173 58.6241C87.7837 59.195 86.4842 60.4908 85.4127 62.362C82.7266 60.9806 80.1634 59.1709 77.6088 57.5548C75.4152 56.1672 73.1107 54.8728 70.9802 53.3972C70.7481 53.2362 70.4883 53.0777 70.3755 52.8091L70.7273 52.7423Z" fill="white"/>
<path d="M77.9231 71.207C78.5862 72.2228 79.1564 74.3831 79.563 75.5777C80.6427 78.7341 81.6941 81.8999 82.7172 85.0752C81.1152 85.0741 79.5122 85.1041 77.9105 85.1209C76.3519 85.1428 74.7932 85.1525 73.2344 85.1498C75.0355 80.6089 76.2439 75.8016 77.9231 71.207Z" fill="#0D0D0D"/>
<path d="M77.9459 76.9766C78.7057 77.7426 79.8416 82.0852 80.1846 83.2716L78.0757 83.2894C77.3262 83.2959 76.5844 83.2762 75.8359 83.2364C76.4303 81.103 77.171 79.049 77.9459 76.9766Z" fill="white"/>
<path d="M63.3787 58.3687C64.8387 58.2767 66.1224 58.3786 67.4445 59.0597C67.5462 59.1128 67.6466 59.1684 67.7456 59.2264C67.8445 59.2844 67.942 59.3448 68.038 59.4075C68.134 59.4703 68.2285 59.5354 68.3215 59.6029C68.4143 59.6703 68.5054 59.7399 68.5949 59.8118C68.6842 59.8837 68.7717 59.9578 68.8576 60.034C68.9434 60.1102 69.0272 60.1884 69.1091 60.2686C69.1912 60.349 69.2711 60.4313 69.349 60.5156C69.4268 60.5997 69.5027 60.6857 69.5765 60.7736C69.6501 60.8616 69.7216 60.9513 69.7909 61.0428C69.8603 61.1342 69.9273 61.2273 69.992 61.3221C70.0567 61.4169 70.119 61.5131 70.179 61.6108C70.2391 61.7086 70.2967 61.8079 70.3518 61.9085C70.407 62.0091 70.4597 62.111 70.5098 62.2142C70.5599 62.3173 70.6075 62.4217 70.6526 62.5272C70.6976 62.6327 70.74 62.7393 70.7799 62.8469C70.8196 62.9545 70.8567 63.0631 70.8912 63.1725C71.4229 64.8875 71.2002 66.8047 70.3505 68.3799C69.2922 70.3414 67.637 71.393 65.5465 72.0054C63.793 72.2461 62.2531 72.0641 60.7444 71.0775C60.6491 71.0158 60.5553 70.9519 60.4631 70.8856C60.3708 70.8192 60.2802 70.7507 60.1913 70.68C60.1026 70.6092 60.0156 70.5363 59.9303 70.4613C59.8451 70.3862 59.7617 70.3092 59.6802 70.23C59.5987 70.1509 59.5193 70.0699 59.4418 69.9868C59.3644 69.9037 59.2891 69.8187 59.2158 69.7319C59.1426 69.6453 59.0715 69.5568 59.0026 69.4665C58.9337 69.3762 58.867 69.2842 58.8026 69.1906C58.7383 69.0971 58.6763 69.002 58.6166 68.9052C58.557 68.8087 58.4997 68.7107 58.4447 68.6113C58.3899 68.5118 58.3376 68.411 58.2877 68.309C58.2378 68.207 58.1904 68.1038 58.1455 67.9995C58.1008 67.8951 58.0586 67.7897 58.0189 67.6832C57.9794 67.5768 57.9425 67.4695 57.9082 67.3612C57.8738 67.253 57.8422 67.144 57.8132 67.0341C57.7843 66.9242 57.7581 66.8137 57.7346 66.7026C57.7104 66.5852 57.6892 66.4673 57.6709 66.3489C57.6526 66.2304 57.6372 66.1115 57.6248 65.9923C57.6123 65.8732 57.6029 65.7538 57.5965 65.634C57.59 65.5144 57.5865 65.3947 57.586 65.2749C57.5856 65.155 57.5881 65.0352 57.5935 64.9155C57.599 64.7958 57.6074 64.6762 57.6189 64.5568C57.6304 64.4376 57.6448 64.3187 57.6623 64.2C57.6796 64.0815 57.6999 63.9634 57.7231 63.8459C57.7464 63.7284 57.7726 63.6114 57.8017 63.4952C57.8308 63.3789 57.8627 63.2633 57.8975 63.1486C57.9325 63.034 57.9702 62.9203 58.0107 62.8075C58.0511 62.6947 58.0944 62.583 58.1405 62.4723C58.1866 62.3617 58.2355 62.2523 58.2871 62.1441C58.3385 62.0358 58.3927 61.929 58.4495 61.8236C58.5064 61.7181 58.5659 61.614 58.628 61.5114C58.69 61.409 58.7546 61.308 58.8217 61.2087C59.9303 59.5707 61.4807 58.7465 63.3787 58.3687Z" fill="#0D0D0D"/>
</svg>
