<svg width="25" height="24" viewBox="0 0 25 24" fill="none" xmlns="http://www.w3.org/2000/svg">
<path d="M13.9568 2.78525L16.0568 7.06551C16.2225 7.40302 16.5415 7.63653 16.9115 7.69016L21.6075 8.37671C22.9397 8.57145 23.472 10.2185 22.5074 11.1632L19.1097 14.4961C18.8423 14.7585 18.7201 15.1364 18.7832 15.5069L19.5855 20.2114C19.8127 21.5465 18.4207 22.564 17.2287 21.9335L13.0289 19.712C12.6983 19.5371 12.303 19.5371 11.9724 19.712L7.77258 21.9335C6.58071 22.5639 5.18863 21.5457 5.41584 20.2114L6.21807 15.5069C6.28123 15.1364 6.15901 14.7585 5.8916 14.4961L2.49226 11.1641C1.52844 10.2184 2.05997 8.57211 3.39211 8.37755L8.08815 7.69101C8.45809 7.63654 8.77801 7.40301 8.94288 7.06635L11.0428 2.7861C11.6391 1.57144 13.36 1.57144 13.9564 2.78527L13.9568 2.78525Z" fill="#F87C56"/>
</svg>
