<svg width="24" height="24" viewBox="0 0 24 24" fill="none" xmlns="http://www.w3.org/2000/svg">
<path d="M3.9082 14.319C5.14815 14.319 6.343 14.319 7.5604 14.319C7.5604 14.0017 7.5604 13.6844 7.5604 13.3671C7.17715 13.2992 6.81644 13.3445 6.43318 13.3898C6.07247 13.4351 5.68921 13.5031 5.30596 13.5484C6.38809 11.8941 6.5459 10.2624 5.1256 8.69873C5.50886 8.69873 5.91466 8.69873 6.29791 8.69873C6.343 8.69873 6.36555 8.72139 6.41064 8.74405C7.19969 9.28795 7.83094 9.94515 8.1691 10.8743C8.41709 11.5995 8.43964 12.3473 8.32691 13.0952C8.19165 13.911 7.94366 14.6815 7.65058 15.4294C7.65058 15.4521 7.62804 15.4747 7.62804 15.4974C7.51532 15.7693 7.53786 15.9506 7.69567 16.0639C7.89857 16.2226 8.05638 16.0866 8.23674 15.9733C8.75526 15.656 9.27378 15.3614 9.7923 15.0441C9.85994 14.9988 9.92757 14.9762 9.9952 14.9535C9.9952 15.0668 9.9952 15.1801 9.9952 15.2934C10.0177 15.5654 10.2206 15.7467 10.4686 15.7013C10.649 15.6787 10.7392 15.5654 10.7392 15.3841C10.7392 15.1575 10.7392 14.9535 10.7392 14.7269C10.7392 14.6815 10.7617 14.5909 10.8068 14.5682C10.9646 14.5002 11.1224 14.4323 11.3253 14.3643C11.3253 14.8628 11.3253 15.3387 11.3253 15.8147C11.3253 15.86 11.2802 15.9053 11.2351 15.9506C9.81485 16.8798 8.28183 17.1517 6.61354 16.8571C6.47827 16.8345 6.32046 16.8571 6.23028 16.9024C6.1401 16.9478 6.07247 17.1064 6.09501 17.2197C6.11756 17.3104 6.20774 17.4463 6.32046 17.4917C6.52336 17.5596 6.72626 17.605 6.92916 17.6276C8.43964 17.8089 9.88248 17.5596 11.2126 16.7891C11.934 16.3812 12.5878 15.8826 13.0838 15.2028C13.1063 15.1575 13.174 15.1348 13.2191 15.1348C14.3914 15.1575 15.3833 14.6815 16.2626 13.9564C17.3672 13.0725 18.4494 12.166 19.5315 11.2822C19.5991 11.2142 19.6668 11.1689 19.757 11.1009C19.8922 11.0103 20.0275 11.0329 20.1628 11.1462C20.2755 11.2596 20.2755 11.4182 20.1853 11.5315C20.0951 11.6448 19.9599 11.7581 19.8471 11.8488C19.3061 12.302 18.7425 12.7553 18.2014 13.2085C17.5927 13.7524 17.1643 14.4323 16.8938 15.2028C16.6233 15.9506 16.4429 16.7438 16.1724 17.4917C15.9469 18.1262 15.6088 18.7381 15.1579 19.2366C15.0903 19.3046 14.9775 19.35 14.8874 19.35C12.2046 19.35 9.54432 19.35 6.86153 19.35C6.77135 19.35 6.65863 19.3046 6.56845 19.2593C5.68921 18.6701 5.1256 17.8543 4.76489 16.8798C4.40418 16.0413 4.17874 15.1801 3.9082 14.319ZM14.9099 16.5398C15.1804 16.5398 15.3833 16.3359 15.3833 16.0639C15.3833 15.792 15.1804 15.6107 14.9099 15.6107C14.6394 15.6107 14.4365 15.8147 14.4365 16.0639C14.459 16.3585 14.6394 16.5398 14.9099 16.5398ZM6.38809 16.1093C6.38809 15.8373 6.18519 15.6334 5.9372 15.6334C5.68921 15.6334 5.46377 15.8373 5.46377 16.0866C5.46377 16.3585 5.66667 16.5852 5.91466 16.5852C6.18519 16.5852 6.38809 16.3812 6.38809 16.1093ZM13.1514 17.5823C13.422 17.5823 13.6249 17.401 13.6023 17.1291C13.6023 16.8571 13.3994 16.6532 13.1514 16.6532C12.8809 16.6532 12.678 16.8798 12.678 17.1291C12.7005 17.401 12.9034 17.5823 13.1514 17.5823ZM11.4831 18.2168C11.7537 18.2168 11.934 18.0355 11.934 17.7636C11.934 17.5143 11.7311 17.2877 11.5057 17.2877C11.2351 17.2877 11.0322 17.469 11.0322 17.7409C11.0097 18.0129 11.1901 18.2168 11.4831 18.2168Z" fill="white"/>
<path d="M8.57392 14.9308C8.70919 14.5002 8.82191 14.0923 8.93463 13.7071C9.20517 12.5966 9.22771 11.4862 8.77682 10.3984C8.52883 9.80916 8.16812 9.28793 7.69469 8.85735C7.67214 8.83468 7.62706 8.78936 7.53688 8.72137C8.61901 8.72137 9.65606 8.72137 10.7156 8.72137C10.7156 8.20014 10.7156 7.70158 10.7156 7.18035C10.0168 7.24833 9.43061 7.49762 8.88954 7.9282C8.84446 7.97352 8.77682 7.99618 8.70919 7.99618C8.19067 7.99618 7.6496 7.99618 7.13108 7.99618C7.06344 7.99618 6.97327 7.95086 6.92818 7.90553C6.79291 7.81489 6.68019 7.70158 6.54492 7.61093C6.56747 7.58826 6.59001 7.54294 6.59001 7.52028C6.92818 7.52028 7.26634 7.52028 7.60451 7.52028C7.60451 7.13502 7.60451 6.79509 7.60451 6.43249C7.60451 6.27386 7.60451 6.09256 7.62706 5.93393C7.62706 5.79795 7.71723 5.7073 7.87504 5.68464C8.01031 5.66198 8.14558 5.7073 8.19067 5.86594C8.21321 5.95659 8.21321 6.04724 8.23576 6.13789C8.23576 6.59113 8.23576 7.04437 8.23576 7.52028C8.43866 7.52028 8.59647 7.52028 8.77682 7.52028C8.82191 7.52028 8.88955 7.42963 8.91209 7.36164C9.04736 6.5458 8.91209 5.77529 8.37102 5.11809C8.34848 5.09542 8.34848 5.09542 8.34848 5.0501C9.16008 5.0501 9.97168 5.0501 10.7833 5.0501C10.7833 3.87167 10.7833 2.7159 10.7833 1.5148C11.2567 1.5148 11.7076 1.46948 12.1359 1.53746C12.3614 1.56012 12.6094 1.71876 12.7672 1.87739C13.2632 2.39862 13.9395 2.46661 14.5933 1.96804C14.458 2.46661 14.2326 2.82921 13.7591 3.07849C14.3228 3.16914 14.8187 3.07849 15.2471 2.78388C15.1794 3.41842 14.5257 4.0303 13.8493 4.09829C13.3759 4.14361 12.9475 4.0303 12.6094 3.69037C12.3163 3.39576 11.9556 3.30511 11.5498 3.3731C11.392 3.39576 11.3018 3.46375 11.3018 3.66771C11.3243 4.12095 11.3018 4.57419 11.3018 5.07276C12.1585 5.00478 12.9025 5.18607 13.3984 5.93393C13.7366 6.45516 13.8944 7.36164 13.7591 8.01885C13.1054 7.29366 12.2487 7.13502 11.3469 7.13502C11.3469 7.65625 11.3469 8.17748 11.3469 8.72137C11.4371 8.72137 11.5272 8.72137 11.5949 8.72137C12.2036 8.72137 12.8123 8.67605 13.3984 8.90267C14.7962 9.4239 15.5402 10.489 15.7881 11.9394C15.9009 12.5286 15.8332 13.1178 15.698 13.7297C15.45 13.6391 15.202 13.5484 14.954 13.4804C13.7817 13.1858 12.6094 13.2991 11.4371 13.6164C10.4451 13.8884 9.54333 14.3643 8.6641 14.9081C8.64156 14.8855 8.61901 14.8855 8.57392 14.9308Z" fill="white"/>
<path d="M10.9193 20.0979C12.6102 20.0979 14.301 20.0979 15.9693 20.0979C16.0144 20.0979 16.0595 20.0979 16.1046 20.0979C16.3525 20.1205 16.4878 20.2565 16.5103 20.4378C16.5329 20.6644 16.3976 20.823 16.1496 20.891C16.1045 20.891 16.0369 20.9137 15.9918 20.9137C12.6102 20.9137 9.20595 20.9137 5.82428 20.9137C5.7341 20.9137 5.64392 20.9137 5.57629 20.8684C5.39594 20.8004 5.28321 20.5964 5.3283 20.3925C5.35085 20.2338 5.50866 20.0979 5.71156 20.0979C6.27517 20.0752 6.86132 20.0752 7.42494 20.0752C8.59725 20.0979 9.76956 20.0979 10.9193 20.0979Z" fill="white"/>
<path d="M11.2351 22.5C10.6264 22.5 9.99514 22.5 9.38644 22.5C9.09336 22.5 8.93555 22.3413 8.93555 22.092C8.93555 21.8654 9.1159 21.7068 9.38644 21.7068C10.6264 21.7068 11.8663 21.7068 13.1063 21.7068C13.3768 21.7068 13.5572 21.8654 13.5572 22.092C13.5572 22.3413 13.3768 22.5 13.1063 22.5C12.475 22.5 11.8663 22.5 11.2351 22.5Z" fill="white"/>
<path d="M17.096 19.35C16.8931 19.35 16.6902 19.35 16.4873 19.35C16.352 19.35 16.1942 19.3273 16.1491 19.1687C16.104 19.0101 16.1717 18.9194 16.2618 18.8061C16.4197 18.6475 16.5775 18.5795 16.7804 18.6021C17.096 18.6021 17.3891 18.6021 17.7047 18.6021C17.9752 18.6021 18.1556 18.7381 18.1556 18.9647C18.1556 19.1914 17.9978 19.3273 17.7272 19.3727C17.7047 19.3727 17.6821 19.3727 17.6596 19.3727C17.5018 19.35 17.2989 19.35 17.096 19.35Z" fill="white"/>
<path d="M5.46338 19.35C4.9674 19.35 4.53906 19.35 4.11071 19.35C3.88527 19.35 3.75 19.1687 3.75 18.9647C3.75 18.7607 3.88527 18.6248 4.11071 18.6021C4.29107 18.5795 4.49397 18.6021 4.67432 18.6021C4.71941 18.6021 4.7645 18.6021 4.78704 18.6248C4.98994 18.8514 5.21539 19.078 5.46338 19.35Z" fill="white"/>
</svg>
