<?xml version="1.0" encoding="utf-8" ?>
<svg xmlns="http://www.w3.org/2000/svg" xmlns:xlink="http://www.w3.org/1999/xlink" width="1024" height="1024">
	<path d="M798.955 956.86L812.301 1024L807.118 1024L799.395 963.797C798.975 961.511 799.004 959.179 798.955 956.86Z"/>
	<path d="M686.125 761.628L687.094 759.703L783.389 815.332L786.814 856.271C787.531 863.678 789.173 871.905 788.979 879.273L780.804 816.597L767.697 809.743L716.864 781.147C706.283 775.081 695.756 769.149 686.125 761.628Z"/>
	<path fill="#310301" d="M776.121 247.01L776.867 247.048C780.337 247.196 783.324 246.891 785.947 244.326C791.651 238.751 791.734 229.465 791.585 222.069C791.416 213.646 788.373 204.483 785.105 196.798C800.794 206.577 815.053 221.763 819.3 240.252C824.282 261.943 816.975 283.929 807.7 303.383C804.091 310.952 800.292 318.439 795.822 325.543C780.59 349.754 762.057 371.089 738.553 387.524L737.923 387.205C739.814 384.886 742.758 383.191 744.989 381.139L756.046 370.127C770.25 355.579 782.716 338.538 793.081 321.074C806.561 298.36 820.8 266.395 813.751 239.657C811.477 231.036 808.166 223.76 802.444 216.856L791.909 203.846C796.628 215.371 800.051 229.235 795.063 241.319C793.929 244.067 792.41 246.885 789.516 248.07L788.25 248.512L787.753 248.687C785.099 249.531 780.018 249.235 777.5 248.08C776.919 247.814 776.564 247.457 776.121 247.01Z"/>
	<path fill="#630810" d="M270.23 510.21C272.854 509.768 275.141 510.323 277.72 510.757L290.457 512.953L312.49 516.104L313.289 516.75L314.065 516.411C316.842 515.326 328.452 517.072 332.264 517.283L330.908 532.095L330.972 535.866C331.147 537.412 331.518 539.199 331.446 540.739C332.922 549.97 332.574 560.267 331.799 569.535C331.216 576.495 330.681 583.258 329.295 590.123C325.199 610.402 316.188 630.38 304.069 647.132C289.83 666.818 272.589 683.612 252.901 697.853L253.007 697.395C253.943 693.226 254.611 688.745 254.668 684.472L251.284 612.12L242.446 614.437C218.38 619.75 194.108 617.586 171.956 606.494C164.452 602.736 157.352 597.887 150.273 593.387C153.051 592.473 156.535 592.715 159.479 592.151C170.626 590.014 180.716 586.873 190.75 581.415C201.46 575.591 211.357 566.748 218.75 557.104C226.408 547.115 233.056 535.988 242.112 527.161C247.088 522.311 252.653 518.63 258.629 515.145C261.815 513.288 265.03 510.944 268.546 509.787L270.23 510.21Z"/>
	<path d="M254.668 684.472L251.284 612.12L242.446 614.437C218.38 619.75 194.108 617.586 171.956 606.494C164.452 602.736 157.352 597.887 150.273 593.387C153.051 592.473 156.535 592.715 159.479 592.151C170.626 590.014 180.716 586.873 190.75 581.415C201.46 575.591 211.357 566.748 218.75 557.104C226.408 547.115 233.056 535.988 242.112 527.161C247.088 522.311 252.653 518.63 258.629 515.145C261.815 513.288 265.03 510.944 268.546 509.787L270.23 510.21C261.794 515.429 252.365 519.092 245.359 526.384C242.954 528.716 240.389 531.027 238.196 533.556C231.657 541.098 226.541 549.734 220.526 557.662C203.777 579.734 180.581 590.83 153.439 594.209L168.764 603.176C183.681 613.204 206.161 617.226 223.895 615.875C232.07 615.253 240.886 613.034 248.971 611.444L251.912 610.75C253.418 580.117 267.499 552.254 290.055 531.666C294.944 527.203 300.903 523.495 306.618 520.192L307.543 520.25C281.426 536.71 263.14 560.762 256.2 591.081C253.536 602.722 252.712 614.833 253.085 626.747C253.565 642.079 256.009 657.244 256.023 672.614C256.027 675.881 256.438 679.649 255.311 682.75L254.668 684.472Z"/>
	<path fill="#900C10" d="M245.359 526.384L245.887 526.381L278.62 524.003C267.076 532.123 258.871 543.882 251.939 555.992C244.438 569.097 237.424 584.742 224.5 593.449C212.999 601.197 196.997 605.151 183.159 604.436C178.442 604.192 173.453 602.568 168.764 603.176L153.439 594.209C180.581 590.83 203.777 579.734 220.526 557.662C226.541 549.734 231.657 541.098 238.196 533.556C240.389 531.027 242.954 528.716 245.359 526.384Z"/>
	<path fill="#900C10" d="M331.446 540.739C330.353 543.462 330.738 546.727 330.739 549.636L330.777 564.838C330.762 565.871 330.485 565.906 330.352 566.75C329.781 570.378 330.075 574.124 329.354 577.75C329.121 578.926 329.521 580.123 329.053 581.275C328.746 582.032 328.846 581.541 328.79 582.594C328.544 587.16 327.154 591.544 326.3 596C326.151 596.778 326.058 597.462 325.809 598.221L324.791 601.784L322.04 610.003C321.85 610.636 321.719 611.091 321.43 611.704L320.299 614.25L319.544 616.003C318.747 618.165 317.637 620.124 316.752 622.253L316.255 623.5L307.744 638.828L304.288 644L298.794 651.5L298.014 652.503C296.739 654.33 294.989 655.926 293.811 657.75C291.541 661.263 288.312 664.135 285.385 667.15C276.628 676.171 267.025 684.591 257.339 692.741C258.413 688.22 260.191 684.162 261.5 679.766L265.826 662.203C271.313 636.473 273.546 610.629 283.888 586.081C287.984 576.358 293.216 567.543 298.631 558.538C305.398 547.283 312.17 536.75 320.896 526.863C317.76 533.267 315.078 539.738 313.194 546.63C311.608 552.436 310.769 558.378 309.509 564.25C305.563 582.648 301.974 601.173 294.364 618.485C296.328 616.556 297.989 614.101 299.645 611.904C310.238 597.846 314.379 581.747 317.988 564.797C319.398 558.177 320.423 551.466 322.769 545.085C324.088 541.499 327.289 533.751 330.908 532.095L330.972 535.866C331.147 537.412 331.518 539.199 331.446 540.739Z"/>
	<path fill="#FCFCFC" d="M310.727 413.874L311.269 413.25C315.257 420.105 317.792 428.418 320.818 435.8L336.577 473.844C340.771 483.706 345.121 494.006 350.512 503.274C355.904 492.127 362.291 479.952 362.456 467.25C362.564 458.993 360.014 450.425 357.315 442.693L333.577 385.149C337.847 390.767 341.383 397.499 344.729 403.71C356.493 425.549 368.284 452.999 364.766 478.394C362.635 493.778 356.217 508.591 348.442 521.898C346.645 524.974 344.787 527.962 342.633 530.805C342.281 531.27 339.216 534.957 339.223 535.194C339.268 536.669 344.157 542.86 345.185 544.24C355.283 557.791 369.925 563.42 385.268 568.984L421.434 582.125C427.557 584.694 435.335 588.26 439.864 593.25C448.738 603.028 449.278 618.349 447.56 630.733L443.757 650.799L514.807 689.791C516.681 691.553 519.278 693.026 521.504 694.319C527.595 697.86 536.699 702.806 543.975 700.708L544.5 700.54C549.274 699.055 553.386 696.058 557.294 693.022C564.909 687.105 570.919 681.015 576.451 673.118C577.759 673.389 579.259 674.923 580.339 675.757L588.805 682.02C594.359 685.862 601.177 690.587 608.313 689.165L609 689.014C612.358 688.341 615.17 686.311 617.94 684.387C624.127 680.09 629.899 675.03 635.596 670.106L655.221 653.324L670.777 637.888L665.976 631.25C665.934 628.044 664.341 624.613 663.423 621.525C661.068 613.611 658.698 604.431 659.167 596.153C660.316 575.903 674.131 560.533 687.25 546.427L700.66 531.158C704.403 526.769 709.152 521.849 710.891 516.247L711.115 515.5C711.996 512.622 712.833 506.949 711.849 504.116C711.467 503.015 711.688 503.97 711.484 502.994C709.633 494.098 702.525 487.256 699.954 478.578L699.75 477.867C698.349 473.236 700.39 467.215 701.465 462.554L704.99 447.58L710.002 430.714C711.6 424.218 712.872 417.46 713.209 410.784L720.168 412.286C719.48 427.093 716.201 442.616 711.87 456.757C710.374 461.643 708.603 466.535 706.612 471.241C706.327 471.916 704.71 474.731 704.75 475.255C704.828 476.269 706.955 478.986 707.546 479.902L715.486 492.812C719.117 498.727 725.538 506.734 723.579 514.127C721.979 520.162 716.644 525.155 712.434 529.494C701.549 540.717 689.491 551.11 679.629 563.255C674.975 568.986 670.474 575.333 667.872 582.305C665.315 589.157 664.74 598.596 665.673 605.825C666.869 615.088 671.644 622.376 674.562 631L674.833 631.772C676.081 635.437 675.894 639.078 674.137 642.532C671.002 648.693 664.683 653.496 658.858 656.976C670.084 662.681 681.146 668.608 691.541 675.75C719.773 695.147 745.546 721.879 763.674 750.955C767.258 756.703 770.185 762.847 773.377 768.815C770.687 766.22 767.987 763.391 764.968 761.185C748.714 749.311 726.768 743.747 706.799 744.169L690.914 745.645L693.59 728.495C684.777 713.294 669.199 700.438 655.686 689.48C653.318 687.559 650.309 684.466 647.525 683.322C644.702 680.49 641.116 678.373 637.951 675.929C631.816 679.635 626.766 684.8 621.055 689.107L606.172 699.058C600.54 696.714 595.028 694.435 589.75 691.326C585.933 689.078 582.486 686.407 578.559 684.282C577.315 684.517 576.601 685.507 575.76 686.379C567.692 693.921 559.49 700.893 549.486 705.758L546.66 706.677C543.339 707.827 540.747 708.277 537.237 707.651C526.251 705.69 517.841 699.854 508.441 694.195C497.977 687.896 487.197 680.947 476.177 675.754C474.667 674.42 472.773 673.842 470.922 673.114L450.56 662.596L437.311 655.433L440.671 634.07C430.191 639.2 420.096 645.245 410.107 651.272C384.581 666.671 359.723 684.196 340.592 707.317C337.114 711.52 333.373 715.784 331.092 720.792C333.194 726.294 335.693 731.721 338.288 737.006C339.865 740.218 345.738 750.091 345.883 752.948C344.182 753.619 342.566 753.615 340.81 753.974C317.921 756.172 294.083 764.288 273.977 775.408C261.574 782.267 249.408 791.011 238.183 799.612L262.241 746.25C290.72 695.27 338.856 658.653 392.914 637.895C408.649 631.853 424.584 627.688 440.755 623.129C440.843 617.548 440.116 609.658 437.768 604.61C432.825 593.982 416.862 589.209 406.65 585.584L374.468 574.509C361.84 569.479 348.817 563.581 340.352 552.513C337.305 548.528 335.21 544.196 333.217 539.617L330.972 535.866L330.908 532.095L332.264 517.283C328.452 517.072 316.842 515.326 314.065 516.411L313.289 516.75L312.49 516.104L290.457 512.953L277.72 510.757C275.141 510.323 272.854 509.768 270.23 510.21L268.546 509.787C266.705 508.395 264.158 507.735 261.983 507.023C257.026 505.402 251.978 504.198 247.082 502.371C240.467 499.902 233.923 496.977 227.554 493.932C230.792 491.915 232.077 485.954 233.737 482.53C235.811 478.253 237.974 473.971 240.42 469.895C246.762 459.324 254.62 450.561 262.827 441.48C276.18 426.705 290.767 413.018 306.584 400.897L307.427 401.659C307.769 405.304 309.16 410.534 310.727 413.874Z"/>
	<path fill="#1E0000" d="M306.584 400.897L307.427 401.659C307.769 405.304 309.16 410.534 310.727 413.874C315.38 431.333 321.798 448.202 328.924 464.786L344.95 499.539C345.751 501.213 348.545 505.18 348.759 506.785C348.8 507.096 347.452 509.392 347.187 509.851L341.491 518.619C339.144 522.859 335.979 527.501 332.819 531.173C332.305 534.059 332.553 536.777 333.217 539.617L330.972 535.866L330.908 532.095L332.264 517.283C328.452 517.072 316.842 515.326 314.065 516.411L313.289 516.75L312.49 516.104L290.457 512.953L277.72 510.757C275.141 510.323 272.854 509.768 270.23 510.21L268.546 509.787C266.705 508.395 264.158 507.735 261.983 507.023C257.026 505.402 251.978 504.198 247.082 502.371C240.467 499.902 233.923 496.977 227.554 493.932C230.792 491.915 232.077 485.954 233.737 482.53C235.811 478.253 237.974 473.971 240.42 469.895C246.762 459.324 254.62 450.561 262.827 441.48C276.18 426.705 290.767 413.018 306.584 400.897Z"/>
	<path fill="#A03129" d="M332.819 531.173C332.204 526.431 333.154 522.247 334.247 517.669L341.491 518.619C339.144 522.859 335.979 527.501 332.819 531.173Z"/>
	<defs>
		<linearGradient id="gradient_0" gradientUnits="userSpaceOnUse" x1="158.64172" y1="215.38332" x2="728.13019" y2="345.1178">
			<stop offset="0" stop-color="#330603"/>
			<stop offset="1" stop-color="#560001"/>
		</linearGradient>
	</defs>
	<path fill="url(#gradient_0)" d="M227.554 493.932C217.339 489.094 207.699 482.959 198.511 476.407C179.981 463.194 162.538 447.006 149.492 428.274C133.84 405.801 123.048 374.773 128.136 347.254C131.773 327.58 142.263 312.66 158.596 301.391C157.53 313.677 156.527 323.695 163.433 334.643C169.735 344.632 180.28 351.398 191.75 353.91C202.056 356.167 212.586 354.543 221.555 348.823C249.014 331.311 248.15 289.85 250.833 261.289C251.851 250.455 253.563 239.654 255.857 229.017C260.865 205.797 267.656 182.911 278.479 161.671C295.477 128.313 322.959 99.8062 354.357 79.6539C413.763 41.5235 488.105 29.3027 556.908 44.2072C587.195 50.7681 616.354 62.0889 642.933 78.1064C682.828 102.148 718.58 138.599 741.828 178.973C748.796 191.074 754.867 203.683 760.673 216.375C765.302 226.493 769.606 237.012 775.64 246.382L776.121 247.01C776.564 247.457 776.919 247.814 777.5 248.08C780.018 249.235 785.099 249.531 787.753 248.687L788.25 248.512L789.516 248.07C792.41 246.885 793.929 244.067 795.063 241.319C800.051 229.235 796.628 215.371 791.909 203.846L802.444 216.856L800.802 216.167L800.25 216.778C801.15 221.647 803.698 226.36 805.081 231.172C809.611 246.94 807.933 263.691 798.468 277.387C790.039 289.584 777.408 296.192 763.062 298.789C756.833 299.916 749.533 300.179 743.25 299.379C730.431 297.745 717.614 294.172 705.069 291.125L655.941 279.397L633.735 274.889C630.085 274.201 626.432 273.901 622.869 272.818C622.111 272.588 622.359 272.682 621.351 272.827L620.577 274.199C620.489 271.957 619.19 269.65 618.311 267.609L617.576 267.321C618.49 270.036 619.831 273.392 618.412 276.159C617.895 277.167 617.224 277.743 616.135 278.063L614 278.508L613.443 278.613C608.925 279.4 603.871 279.127 599.348 278.472C599.468 274.866 600.472 268.064 597.46 265.524C596.907 265.057 596.83 265.064 596.25 264.807C594.689 265.262 594.268 265.518 593.521 267C592.134 269.748 592.269 273.513 592.115 276.524C590.415 277.296 588.323 277.024 586.489 277.03C582.133 277.045 576.769 277.659 572.694 276.197C572.658 272.915 573.177 268.169 571.731 265.25C570.039 264.571 569.92 264.755 568.25 265.255C565.15 268.422 565.33 272.503 565.312 276.714L565.323 277.294C564.939 278.212 564.493 278.909 563.964 279.75C560.167 281.594 551.44 280.91 547.278 279.662C545.523 279.136 544.094 278.318 543.352 276.552C541.731 272.69 543.298 266.959 544.748 263.248C545.475 261.388 547.608 255.863 548.99 254.785C549.479 254.404 552.381 254.418 553.37 253.975L553 253.643C549.395 253.533 545.99 253.508 542.417 254.044L542.408 255.177C540.334 254.566 538.239 253.967 536.312 252.97C534.049 251.799 530.386 248.502 528.036 248.206C525.214 247.851 520.379 249.441 517.587 250.047L495.425 254.817C493.085 255.385 490.255 256.656 487.939 256.784L487.485 257.178C485.59 258.805 483.746 259.908 481.526 261.022L478.606 262.413C475.184 263.836 471.199 266.496 468.287 268.753C467.237 269.566 467.83 269.151 466.83 269.752C461.614 272.889 457.32 277.333 453.381 281.903C451.774 283.767 450.003 285.343 448.793 287.517L438.234 305.033C437.045 306.528 436.597 308.431 435.842 310.165C434.084 314.203 431.927 318.36 431.622 322.821L392.488 341.25C373.232 351.388 355.447 363.6 337.875 376.369C327.236 384.1 316.105 391.793 306.584 400.897C290.767 413.018 276.18 426.705 262.827 441.48C254.62 450.561 246.762 459.324 240.42 469.895C237.974 473.971 235.811 478.253 233.737 482.53C232.077 485.954 230.792 491.915 227.554 493.932Z"/>
	<path fill="#F7B412" d="M612.79 117.003C619.648 105.397 624.612 92.3952 629.439 79.8448C642.617 86.9033 653.233 97.1613 664.054 107.294L646.606 133.037C639.578 142.456 631.541 151.296 623.672 160.018C614.614 153.222 605.421 148.294 594.665 144.655C598.754 139.776 604.446 133.488 606.575 127.5C609.06 125.553 611.325 119.905 612.79 117.003Z"/>
	<path fill="#900C10" d="M606.575 127.5C605.713 127.766 605.337 128.439 604.859 129.178L593.384 144.885C587.06 143.58 580.882 142.829 574.446 142.377L571.142 134.434C565.184 122.233 557.993 111.824 549.529 101.239C533.379 81.0395 514.643 64.101 490.998 53.0995C483.727 49.7168 476.294 47.1857 468.73 44.5835L499.92 44.064C504.49 47.2149 512.749 48.3783 518.114 49.8329C525.672 51.882 533.252 53.9648 540.555 56.8127C558.069 63.6422 574.91 71.7953 591 81.5265C600.757 87.4278 610.241 94.4443 619.547 101.05L613.806 113.346C613.229 114.601 612.552 115.569 612.79 117.003C611.325 119.905 609.06 125.553 606.575 127.5Z"/>
	<path fill="#F7B412" d="M409.074 60.1986C424.674 54.812 439.914 50.6399 456.072 47.3119C459.68 46.5688 464.322 44.9846 467.932 45.4066C470.03 45.6518 472.181 46.8115 474.18 47.5088C480.961 49.8743 487.74 52.7184 494.193 55.8887C506.551 61.9602 517.309 70.3978 527.369 79.684C546.799 97.6189 562.441 118.079 573.113 142.383C565.48 142.618 558.265 143.934 550.881 145.754L543.458 148.307L531.684 136.966C530.014 134.845 527.579 132.874 525.643 130.964L514.825 120.416C482.299 89.102 436.375 72.0206 391.918 68.0938L390.62 67.7991L390.502 67.25C395.754 64.3098 403.178 61.4567 409.074 60.1986Z"/>
	<defs>
		<linearGradient id="gradient_1" gradientUnits="userSpaceOnUse" x1="467.79492" y1="110.6926" x2="483.68643" y2="83.125076">
			<stop offset="0" stop-color="#ED7F08"/>
			<stop offset="1" stop-color="#C46D16"/>
		</linearGradient>
	</defs>
	<path fill="url(#gradient_1)" d="M391.918 68.0938L390.62 67.7991L390.502 67.25C395.754 64.3098 403.178 61.4567 409.074 60.1986C411.697 61.8987 418.507 61.2078 421.804 61.6413L437.825 64.5589C446.645 66.5825 455.491 68.9579 463.881 72.3866C493.142 84.344 518.181 105.48 538.486 129.34C542.966 134.606 546.513 140.436 550.881 145.754L543.458 148.307L531.684 136.966C530.014 134.845 527.579 132.874 525.643 130.964L514.825 120.416C482.299 89.102 436.375 72.0206 391.918 68.0938Z"/>
	<path fill="#A03129" d="M499.92 44.064C544.901 43.8124 590.896 55.5363 630.299 77.3363C655.185 91.1049 678.56 109.608 698.75 129.577C714.771 145.423 728.231 163.872 740.051 183L748.511 197.5C752.458 204.977 771.184 244.272 775.64 246.382L776.121 247.01C776.564 247.457 776.919 247.814 777.5 248.08C780.018 249.235 785.099 249.531 787.753 248.687L788.25 248.512L789.516 248.07C792.41 246.885 793.929 244.067 795.063 241.319C800.051 229.235 796.628 215.371 791.909 203.846L802.444 216.856L800.802 216.167L800.25 216.778C801.15 221.647 803.698 226.36 805.081 231.172C809.611 246.94 807.933 263.691 798.468 277.387C790.039 289.584 777.408 296.192 763.062 298.789C756.833 299.916 749.533 300.179 743.25 299.379C730.431 297.745 717.614 294.172 705.069 291.125L655.941 279.397L633.735 274.889C630.085 274.201 626.432 273.901 622.869 272.818C622.111 272.588 622.359 272.682 621.351 272.827L620.577 274.199C620.489 271.957 619.19 269.65 618.311 267.609L617.576 267.321C615.947 264.858 614.919 261.753 613.877 258.989C613.884 257.696 613.849 256.501 614.237 255.25L616.445 254.182C623.124 257.635 630.48 259.263 637.645 261.442C663.308 269.248 689.714 276.568 716.424 279.668C736.046 281.946 754.055 278.596 769.681 266.305C763.319 254.948 755.536 243.976 748.492 233C725.828 197.681 702.456 163.92 674.293 132.73C669.93 127.899 665.151 121.44 659.676 117.96C661.247 114.166 663.893 110.466 665.748 106.736L649.464 92.8297C642.894 87.2681 636.863 82.0291 628.992 78.3085L619.547 101.05C610.241 94.4443 600.757 87.4278 591 81.5265C574.91 71.7953 558.069 63.6422 540.555 56.8127C533.252 53.9648 525.672 51.882 518.114 49.8329C512.749 48.3783 504.49 47.2149 499.92 44.064Z"/>
	<path fill="#900C10" d="M659.676 117.96C665.151 121.44 669.93 127.899 674.293 132.73C702.456 163.92 725.828 197.681 748.492 233C755.536 243.976 763.319 254.948 769.681 266.305C754.055 278.596 736.046 281.946 716.424 279.668C689.714 276.568 663.308 269.248 637.645 261.442C630.48 259.263 623.124 257.635 616.445 254.182C619.004 253.404 621.467 251.73 623.549 250.061C624.608 249.212 625.701 248.551 626.809 247.778C628.713 246.451 630.451 244.525 632.107 242.891C640.331 234.773 645.055 226.107 647.129 214.75C648.076 209.563 647.849 204.165 646.892 199.002C646.572 197.276 646.098 195.685 645.62 194C643.183 185.415 639.474 177.665 634.125 170.5C631.703 167.255 628.772 163.771 625.486 161.385L624.682 160.819C633.853 151.494 642.373 141.785 650.262 131.337L659.676 117.96Z"/>
	<path fill="#FCFCFC" d="M558.612 145.441C581.875 141.405 602.215 145.907 621.558 159.643C634.38 168.749 643.411 184.684 645.941 200.141C647.872 211.937 644.92 224.709 637.887 234.375C633.368 240.584 627.239 246.575 620.627 250.527C619.393 251.265 612.454 254.34 612.637 255.268C612.889 256.547 613.418 257.772 613.877 258.989C614.919 261.753 615.947 264.858 617.576 267.321C618.49 270.036 619.831 273.392 618.412 276.159C617.895 277.167 617.224 277.743 616.135 278.063L614 278.508L613.443 278.613C608.925 279.4 603.871 279.127 599.348 278.472C599.468 274.866 600.472 268.064 597.46 265.524C596.907 265.057 596.83 265.064 596.25 264.807C594.689 265.262 594.268 265.518 593.521 267C592.134 269.748 592.269 273.513 592.115 276.524C590.415 277.296 588.323 277.024 586.489 277.03C582.133 277.045 576.769 277.659 572.694 276.197C572.658 272.915 573.177 268.169 571.731 265.25C570.039 264.571 569.92 264.755 568.25 265.255C565.15 268.422 565.33 272.503 565.312 276.714L565.323 277.294C564.939 278.212 564.493 278.909 563.964 279.75C560.167 281.594 551.44 280.91 547.278 279.662C545.523 279.136 544.094 278.318 543.352 276.552C541.731 272.69 543.298 266.959 544.748 263.248C545.475 261.388 547.608 255.863 548.99 254.785C549.479 254.404 552.381 254.418 553.37 253.975L553 253.643C549.395 253.533 545.99 253.508 542.417 254.044L542.266 254.002C532.914 251.811 524.422 243.576 519.091 235.929C509.025 221.491 507.383 203.476 510.383 186.58C512.755 179.258 515.398 173.187 519.974 167C524.729 160.571 531.066 156.73 537.538 152.314C544.313 149.321 551.207 146.392 558.612 145.441Z"/>
	<path d="M542.797 227.223C542.348 226.748 541.942 226.312 541.601 225.75C537.817 219.532 537.378 212.2 539.259 205.288C540.878 199.339 545.462 193.579 550.903 190.658C555.232 188.334 561.509 187.611 566.25 189.109C570.719 190.522 574.462 193.164 576.745 197.304L576.198 197.105C574.404 196.285 572.987 194.606 571.314 193.536C566.215 190.276 559.713 189.659 553.981 191.424C549.21 192.893 544.33 196.975 542.033 201.38C538.758 207.662 538.368 215.283 540.835 221.9C541.477 223.622 542.518 225.128 543.121 226.877L542.797 227.223Z"/>
	<path d="M584.905 229.92L585.941 230.682C588.941 233.225 590.493 236.787 592.75 239.923C593.929 241.561 595.866 243.179 596.038 245.25C595.159 246.272 594.466 246.846 593.142 247.218C590.3 248.018 588.588 247.198 586.172 245.797L585 245.18C584.052 245.671 583.034 246.235 582 246.514C580.497 246.921 578.291 246.294 577 245.498C575.587 244.626 575.345 244.08 575.051 242.5C576.685 237.717 581.459 233.534 584.905 229.92Z"/>
	<path fill="#144056" d="M614.578 192.084C618.035 191.731 621.829 192.784 624.785 194.56C629.711 197.519 631.733 202.916 632.956 208.25C634.285 214.049 632.451 221.463 629.15 226.312C625.975 230.976 621.632 233.701 616.115 234.698C612.432 234.896 608.761 234.629 605.629 232.479C600.935 229.256 598.004 223.976 596.844 218.5C595.596 212.605 596.576 206.633 599.894 201.585C603.665 195.849 607.952 193.445 614.578 192.084Z"/>
	<path fill="#144056" d="M542.797 227.223L543.121 226.877C542.518 225.128 541.477 223.622 540.835 221.9C538.368 215.283 538.758 207.662 542.033 201.38C544.33 196.975 549.21 192.893 553.981 191.424C559.713 189.659 566.215 190.276 571.314 193.536C572.987 194.606 574.404 196.285 576.198 197.105L576.745 197.304C580.731 203.104 582.6 210.409 581.194 217.414C579.939 223.666 575.996 229.786 570.477 233.102C565.945 235.826 559.821 236.251 554.75 234.886C550.767 233.814 544.975 230.856 542.797 227.223Z"/>
	<path fill="#9FBEC4" d="M537.538 152.314C544.313 149.321 551.207 146.392 558.612 145.441L558.297 145.791C555.722 148.482 551.789 149.219 548.695 151.198C535.271 159.785 526.921 173.273 526.922 189.312C526.924 209.574 538.086 227.014 548.215 243.771L552.947 250.959C553.537 251.812 554.627 252.998 554.934 253.978C555.338 255.268 554.872 257.54 554.687 258.889L552.882 270.61C552.693 271.765 552.016 273.84 552.473 274.892L565.323 277.294C564.939 278.212 564.493 278.909 563.964 279.75C560.167 281.594 551.44 280.91 547.278 279.662C545.523 279.136 544.094 278.318 543.352 276.552C541.731 272.69 543.298 266.959 544.748 263.248C545.475 261.388 547.608 255.863 548.99 254.785C549.479 254.404 552.381 254.418 553.37 253.975L553 253.643C549.395 253.533 545.99 253.508 542.417 254.044L542.266 254.002C532.914 251.811 524.422 243.576 519.091 235.929C509.025 221.491 507.383 203.476 510.383 186.58C512.755 179.258 515.398 173.187 519.974 167C524.729 160.571 531.066 156.73 537.538 152.314Z"/>
	<path fill="#630810" d="M391.918 68.0938C436.375 72.0206 482.299 89.102 514.825 120.416L525.643 130.964C527.579 132.874 530.014 134.845 531.684 136.966C531.708 137.394 531.59 137.854 531.755 138.25C532.366 139.717 540.649 147.144 542.234 148.729C540.492 149.802 538.835 150.677 537.538 152.314C531.066 156.73 524.729 160.571 519.974 167C515.398 173.187 512.755 179.258 510.383 186.58C507.383 203.476 509.025 221.491 519.091 235.929C524.422 243.576 532.914 251.811 542.266 254.002L542.417 254.044L542.408 255.177C540.334 254.566 538.239 253.967 536.312 252.97C534.049 251.799 530.386 248.502 528.036 248.206C525.214 247.851 520.379 249.441 517.587 250.047L495.425 254.817C493.085 255.385 490.255 256.656 487.939 256.784C473.622 259.59 459.529 264.366 445.812 269.29C399.908 285.768 356.925 308.46 316.503 335.734L284.346 358.473C278.509 362.602 271.734 368.277 265.047 370.799L263.541 372.5C260.52 376.03 256.729 378.471 253.163 381.413C241.181 391.295 230.186 400.192 214.36 402.617C196.483 405.356 175.917 399.895 161.331 389.229C148.744 380.025 139.329 367.295 137.105 351.549C135.224 338.23 143.518 325.907 151.069 315.756C152.196 325.267 154.364 333.305 160.285 341.06C169.159 352.681 181.993 359.534 196.406 361.321C206.67 362.593 219.143 359.759 227.359 353.236C233.451 348.4 239.123 342.656 243.208 335.991C258.271 311.419 255.142 278.46 258.613 250.859C266.274 189.953 293.724 132.891 342.833 94.9555C352.927 87.1579 363.686 80.5165 374.946 74.5656C379.334 72.2466 385.827 68.4962 390.832 69.1555L391.918 68.0938Z"/>
	<path fill="#310301" d="M391.918 68.0938C436.375 72.0206 482.299 89.102 514.825 120.416C514.423 120.368 513.997 120.416 513.617 120.274C512.996 120.042 511.996 119.002 511.426 118.59L500.488 110.135C493.161 104.771 485.394 99.2648 477.394 94.9651C469.722 90.8415 461.139 86.6168 452.922 83.7321C446.693 81.5454 440.051 80.0836 433.691 78.2882L414.93 72.7997C407.1 70.9277 398.815 70.1023 390.832 69.1555L391.918 68.0938Z"/>
	<defs>
		<linearGradient id="gradient_2" gradientUnits="userSpaceOnUse" x1="357.91507" y1="318.29294" x2="352.84183" y2="309.7388">
			<stop offset="0" stop-color="#170000"/>
			<stop offset="1" stop-color="#290001"/>
		</linearGradient>
	</defs>
	<path fill="url(#gradient_2)" d="M265.047 370.799C267.925 367.394 271.982 364.696 275.5 361.998L291.895 349.363L324.856 326.623C358.638 304.667 394.291 285.569 432.221 271.75C449.594 265.421 467.754 260.208 485.677 255.714C499.349 252.287 512.844 248.577 526.887 246.992L522.593 242.907C514.533 234.81 507.847 218.721 507.38 207.375C507.229 203.698 507.39 200.025 507.67 196.36C507.763 195.129 508.257 194.088 508.261 192.909C508.265 191.844 508.198 192.206 508.383 191.22L508.537 190.502L508.755 189.25C509.048 188.422 509.274 188.441 509.302 187.44L509.291 186.75L510.383 186.58C507.383 203.476 509.025 221.491 519.091 235.929C524.422 243.576 532.914 251.811 542.266 254.002L542.417 254.044L542.408 255.177C540.334 254.566 538.239 253.967 536.312 252.97C534.049 251.799 530.386 248.502 528.036 248.206C525.214 247.851 520.379 249.441 517.587 250.047L495.425 254.817C493.085 255.385 490.255 256.656 487.939 256.784C473.622 259.59 459.529 264.366 445.812 269.29C399.908 285.768 356.925 308.46 316.503 335.734L284.346 358.473C278.509 362.602 271.734 368.277 265.047 370.799Z"/>
	<path fill="#D0D9BF" d="M620.577 274.199L621.351 272.827C622.359 272.682 622.111 272.588 622.869 272.818C626.432 273.901 630.085 274.201 633.735 274.889L655.941 279.397L705.069 291.125C717.614 294.172 730.431 297.745 743.25 299.379C749.533 300.179 756.833 299.916 763.062 298.789C777.408 296.192 790.039 289.584 798.468 277.387C807.933 263.691 809.611 246.94 805.081 231.172C803.698 226.36 801.15 221.647 800.25 216.778L800.802 216.167L802.444 216.856C808.166 223.76 811.477 231.036 813.751 239.657C820.8 266.395 806.561 298.36 793.081 321.074C782.716 338.538 770.25 355.579 756.046 370.127L744.989 381.139C742.758 383.191 739.814 384.886 737.923 387.205L738.553 387.524L720.933 400.502L720.241 411.778L720.168 412.286L713.209 410.784C712.872 417.46 711.6 424.218 710.002 430.714L704.99 447.58L701.465 462.554C700.39 467.215 698.349 473.236 699.75 477.867L699.954 478.578C702.525 487.256 709.633 494.098 711.484 502.994C711.688 503.97 711.467 503.015 711.849 504.116C712.833 506.949 711.996 512.622 711.115 515.5L710.891 516.247C709.152 521.849 704.403 526.769 700.66 531.158L687.25 546.427C674.131 560.533 660.316 575.903 659.167 596.153C658.698 604.431 661.068 613.611 663.423 621.525C664.341 624.613 665.934 628.044 665.976 631.25L670.777 637.888L655.221 653.324L635.596 670.106C629.899 675.03 624.127 680.09 617.94 684.387C615.17 686.311 612.358 688.341 609 689.014L608.313 689.165C601.177 690.587 594.359 685.862 588.805 682.02L580.339 675.757C579.259 674.923 577.759 673.389 576.451 673.118C570.919 681.015 564.909 687.105 557.294 693.022C553.386 696.058 549.274 699.055 544.5 700.54L543.975 700.708C536.699 702.806 527.595 697.86 521.504 694.319C519.278 693.026 516.681 691.553 514.807 689.791L443.757 650.799L447.56 630.733C449.278 618.349 448.738 603.028 439.864 593.25C435.335 588.26 427.557 584.694 421.434 582.125L385.268 568.984C369.925 563.42 355.283 557.791 345.185 544.24C344.157 542.86 339.268 536.669 339.223 535.194C339.216 534.957 342.281 531.27 342.633 530.805C344.787 527.962 346.645 524.974 348.442 521.898C356.217 508.591 362.635 493.778 364.766 478.394C368.284 452.999 356.493 425.549 344.729 403.71C341.383 397.499 337.847 390.767 333.577 385.149L357.315 442.693C360.014 450.425 362.564 458.993 362.456 467.25C362.291 479.952 355.904 492.127 350.512 503.274C345.121 494.006 340.771 483.706 336.577 473.844L320.818 435.8C317.792 428.418 315.257 420.105 311.269 413.25L310.727 413.874C309.16 410.534 307.769 405.304 307.427 401.659L306.584 400.897C316.105 391.793 327.236 384.1 337.875 376.369C355.447 363.6 373.232 351.388 392.488 341.25L431.622 322.821C431.927 318.36 434.084 314.203 435.842 310.165C436.597 308.431 437.045 306.528 438.234 305.033L448.793 287.517C450.003 285.343 451.774 283.767 453.381 281.903C457.32 277.333 461.614 272.889 466.83 269.752C467.83 269.151 467.237 269.566 468.287 268.753C471.199 266.496 475.184 263.836 478.606 262.413L481.526 261.022C483.746 259.908 485.59 258.805 487.485 257.178L487.939 256.784C490.255 256.656 493.085 255.385 495.425 254.817L517.587 250.047C520.379 249.441 525.214 247.851 528.036 248.206C530.386 248.502 534.049 251.799 536.312 252.97C538.239 253.967 540.334 254.566 542.408 255.177L542.417 254.044C545.99 253.508 549.395 253.533 553 253.643L553.37 253.975C552.381 254.418 549.479 254.404 548.99 254.785C547.608 255.863 545.475 261.388 544.748 263.248C543.298 266.959 541.731 272.69 543.352 276.552C544.094 278.318 545.523 279.136 547.278 279.662C551.44 280.91 560.167 281.594 563.964 279.75C564.493 278.909 564.939 278.212 565.323 277.294L565.312 276.714C565.33 272.503 565.15 268.422 568.25 265.255C569.92 264.755 570.039 264.571 571.731 265.25C573.177 268.169 572.658 272.915 572.694 276.197C576.769 277.659 582.133 277.045 586.489 277.03C588.323 277.024 590.415 277.296 592.115 276.524C592.269 273.513 592.134 269.748 593.521 267C594.268 265.518 594.689 265.262 596.25 264.807C596.83 265.064 596.907 265.057 597.46 265.524C600.472 268.064 599.468 274.866 599.348 278.472C603.871 279.127 608.925 279.4 613.443 278.613L614 278.508L616.135 278.063C617.224 277.743 617.895 277.167 618.412 276.159C619.831 273.392 618.49 270.036 617.576 267.321L618.311 267.609C619.19 269.65 620.489 271.957 620.577 274.199Z"/>
	<path d="M480.604 649.036C487.313 639.298 494.858 630.818 504.003 623.298L513.458 616.205C513.945 615.854 516.439 614.363 516.641 613.933C516.931 613.313 515.965 608.333 515.886 607.292C515.587 603.325 515.715 591.672 519 589.153C519.241 590.754 518.552 592.96 518.395 594.622C517.974 599.072 518.156 603.83 518.893 608.235C519.072 609.302 519.208 610.967 519.867 611.808C536.875 602.005 553.936 597.505 573.233 594.952L572.025 568.256C573.941 577.07 574.897 585.757 576.034 594.694C585.138 594.653 594.237 594.598 603.25 596.114C611.381 597.482 619.012 600.172 626.718 603.017L626.283 590.725C625.945 586.472 624.825 581.326 625.948 577.179L629.894 604.181C634.678 606.396 639.504 608.63 643.903 611.558C652.512 617.287 659.548 624.75 666.458 632.359C661.236 629.645 656.523 624.34 651.843 620.675C645.138 615.424 637.778 611.727 630.057 608.253L630.382 619.982C628.974 615.717 627.775 611.688 627.166 607.225C611.095 600.725 593.642 597.597 576.323 598.712L577.75 611.232C575.666 607.621 574.879 603.045 573.962 599.006C554.694 601.747 537.328 606.212 520.103 615.536L525.769 632.229C524.283 630.255 522.786 628.276 521.638 626.082C520.399 623.716 519.163 619.452 517.331 617.711C504.18 626.462 492.364 636.309 483.219 649.308L477.587 655.853L480.604 649.036Z"/>
	<path d="M567.516 496.411L582.079 511.511C588.08 519.057 593.86 528.506 592.449 538.511C592.104 540.959 591.083 544.131 588.963 545.602C583.042 549.712 576.174 541.657 573.01 537.453C571.968 536.069 569.852 532.594 568.25 532.354L566.068 534.713C562.37 539.269 556.039 548.077 549.75 548.628C547.822 548.797 545.282 548.578 543.813 547.193C541.519 545.029 540.561 541.376 540.662 538.306C540.82 533.532 542.755 528.665 544.946 524.5C550.595 513.766 558.852 504.772 567.516 496.411Z"/>
	<path fill="#B6BD9A" d="M529.984 315.34C532.708 313.732 536.525 313.66 539.623 313.364C552.324 312.15 566.975 312.391 579.439 314.887C575.893 322.622 575.443 332.057 576.679 340.43C576.435 343.535 577.409 346.53 578.25 349.486C580.946 358.963 585.811 367.979 592.222 375.463C597.32 381.414 603.561 385.815 610.078 390.052C603.846 397.303 599.083 403.941 594.907 412.626C589.709 407.916 584.187 403.922 579.37 398.736C570.522 389.209 564.006 378.845 553.014 371.395C550.478 375.435 548.629 379.876 546.296 384.037C539.733 395.741 530.82 405.918 519.855 413.684C516.629 405.491 512.807 399.022 507.503 391.999L511.393 388.837C525.354 377.183 536.013 363.488 537.551 344.808C538.013 339.21 538.196 331.276 534.368 326.796C531.868 324.445 530.806 318.613 529.984 315.34Z"/>
	<path d="M576.679 340.43C582.452 358.616 593.447 372.991 610.507 381.857C634.407 394.279 661.724 397.365 687.75 402.772C696.648 404.62 705.124 406.992 713.782 409.738C715.998 410.316 718.135 410.859 720.241 411.778L720.168 412.286L713.209 410.784L689.145 408.364C697.79 425.452 702.302 444.208 696.151 462.983C690.998 478.712 679.69 494.191 664.743 501.782C653.23 507.629 641.98 508.58 629.719 504.48C614.762 499.479 602.181 485.587 595.547 471.659C587.082 453.889 587.57 432.924 594.133 414.679L594.907 412.626C599.083 403.941 603.846 397.303 610.078 390.052C603.561 385.815 597.32 381.414 592.222 375.463C585.811 367.979 580.946 358.963 578.25 349.486C577.409 346.53 576.435 343.535 576.679 340.43Z"/>
	<path fill="#0B2A37" d="M654.909 403.767L684.313 408.209C691.502 418.793 695.577 431.471 695.377 444.352C695.303 449.112 694.484 453.888 693.749 458.58C687.915 453.296 684.351 445.223 678 440.434L677.381 441.323C676.504 439.535 676.375 436.063 675.853 433.976C674.235 427.499 671.083 421.106 666.917 415.875C665.955 414.666 664.678 413.838 663.668 412.69L663.339 412.289C663.126 409.634 656.946 405.842 654.909 403.767Z"/>
	<path fill="#144056" d="M666.013 496.702C662.986 500.076 656.804 502.516 652.453 503.561L651.75 503.722L648.012 504.377C635.596 505.453 622.739 498.533 613.637 490.561C600.703 479.232 594.284 462.587 593.199 445.769C592.293 431.715 595.641 417.668 603.089 405.674C606.117 400.798 609.84 396.533 613.618 392.239C626.506 398.44 640.956 401.128 654.909 403.767C656.946 405.842 663.126 409.634 663.339 412.289L663.668 412.69C664.678 413.838 665.955 414.666 666.917 415.875C671.083 421.106 674.235 427.499 675.853 433.976C676.375 436.063 676.504 439.535 677.381 441.323L678 440.434C684.351 445.223 687.915 453.296 693.749 458.58L692.195 462.561C687.119 477.059 678.662 487.925 666.013 496.702Z"/>
	<path fill="#296B81" d="M666.013 496.702C662.831 497.167 659.994 498.726 656.992 499.841C652.208 501.619 647.276 502.389 642.21 501.649C640.155 501.349 638.134 501.16 636.141 500.541C619.827 495.48 610.451 483.931 602.771 469.332C606.249 473.245 609.414 477.507 613.333 481.005C619.4 486.42 629.111 490.457 637.069 491.929C639.87 492.447 642.643 492.993 645.5 493.068C659.856 493.442 673.732 484.647 682.606 473.808C685.73 469.994 687.825 465.791 691.425 462.35L692.195 462.561C687.119 477.059 678.662 487.925 666.013 496.702Z"/>
	<path d="M637.556 412.735C641.083 410.66 646.596 409.14 650.617 408.475C655.891 407.602 659.223 409.372 663.339 412.289L663.668 412.69C664.678 413.838 665.955 414.666 666.917 415.875C671.083 421.106 674.235 427.499 675.853 433.976C676.375 436.063 676.504 439.535 677.381 441.323C677.505 443.408 677.324 445.417 677.07 447.485C675.94 456.68 670.444 466.59 663.077 472.25C657.49 476.543 650.145 478.739 643.114 477.713L642.25 477.574C640.692 477.343 639.341 477.07 637.859 476.503C630.192 473.572 624.36 468.529 621.042 460.993C616.989 451.789 618.85 438.71 622.374 429.58C621.687 427.935 621.169 426.031 621.064 424.25C620.935 422.052 622.123 419.8 623.542 418.217C627.256 414.072 632.225 412.96 637.556 412.735Z"/>
	<path fill="#FCFCFC" d="M622.374 429.58C621.687 427.935 621.169 426.031 621.064 424.25C620.935 422.052 622.123 419.8 623.542 418.217C627.256 414.072 632.225 412.96 637.556 412.735C640.324 414.033 643.301 415.339 644.431 418.444C645.375 421.036 645.373 423.934 644.094 426.423C642.459 429.605 639.203 432.701 635.75 433.828C633.191 434.664 628.328 434.437 626 432.918C624.652 432.039 623.447 430.775 622.374 429.58Z"/>
	<path fill="#0B2A37" d="M380.358 421.33L385.071 383.067C387.192 381.532 389.947 380.807 392.397 379.905L404.49 375.17L463.324 348.315L497.434 330.701C508.041 325.141 518.606 319.212 529.984 315.34C530.806 318.613 531.868 324.445 534.368 326.796C538.196 331.276 538.013 339.21 537.551 344.808C536.013 363.488 525.354 377.183 511.393 388.837L507.503 391.999C512.807 399.022 516.629 405.491 519.855 413.684C521.665 419.127 523.571 424.574 524.51 430.25C527.453 448.038 524.045 466.269 516.042 482.337C507.94 498.607 492.392 512.112 475.049 517.671C464.651 521.005 454.194 522.002 443.5 519.374C449.254 518.989 454.958 518.942 460.649 517.925C469.526 516.338 479.761 511.792 487.372 506.896C483.939 506.957 480.773 508.17 477.422 508.765C470.889 509.927 463.118 510.607 456.502 510.409L456.161 510.567L451.927 509.757C437.056 506.371 424.183 497.519 416.043 484.542C404.863 466.718 404.537 449.079 409.125 429.08C403.064 428.631 396.869 428.522 390.956 427.044L390.046 426.813L380.308 423.265C379.282 422.633 378.215 422.291 377.75 421.156L380.358 421.33Z"/>
	<path fill="#144056" d="M482.59 421.936C486.155 423.495 488.8 425.438 491.454 428.25L491 428.869L486.222 428.928C485.461 428.207 484.507 427.586 483.672 426.943L482.59 421.936Z"/>
	<path fill="#144056" d="M421.392 463.054C426.883 469.207 432.349 475.998 439.003 480.92C447.701 487.354 459.579 493.479 470.742 491.692C483.076 489.717 491.487 483.972 501.34 476.805L497.023 486.398L494.962 489.75C489.363 497.867 481.554 502.71 472.056 504.692L469.306 505.246C459.466 506.828 447.854 502.921 440 497.041C429.217 488.968 423.21 476.139 421.392 463.054Z"/>
	<path d="M534.368 326.796C538.196 331.276 538.013 339.21 537.551 344.808C536.013 363.488 525.354 377.183 511.393 388.837L507.503 391.999C512.807 399.022 516.629 405.491 519.855 413.684C521.665 419.127 523.571 424.574 524.51 430.25C527.453 448.038 524.045 466.269 516.042 482.337C507.94 498.607 492.392 512.112 475.049 517.671C464.651 521.005 454.194 522.002 443.5 519.374C449.254 518.989 454.958 518.942 460.649 517.925C469.526 516.338 479.761 511.792 487.372 506.896C494.311 503.859 501.785 495.758 506.37 489.949C519.406 473.432 523.866 453.145 521.346 432.413L520.108 425.267C518.118 414.976 512.202 401.917 504.771 394.416C497.715 398.099 491.16 402.685 484.038 406.286C476.86 409.916 469.206 412.637 461.709 415.534C445.574 421.77 429.693 428.249 412.124 428.687C411.389 434.01 410.577 439.387 410.505 444.766C410.294 460.48 415.051 476.297 424.706 488.805C429.241 494.681 435.586 499.287 441.885 503.111C444.834 504.902 455.19 508.016 456.502 510.409L456.161 510.567L451.927 509.757C437.056 506.371 424.183 497.519 416.043 484.542C404.863 466.718 404.537 449.079 409.125 429.08C403.064 428.631 396.869 428.522 390.956 427.044L390.046 426.813L380.308 423.265C379.282 422.633 378.215 422.291 377.75 421.156L380.358 421.33C386.437 422.68 392.125 422.44 398.25 422.025C406.731 421.45 415.194 420.338 423.5 418.5C448.382 412.995 472.56 403.773 494.595 390.97C507.182 383.656 520.421 374.36 528.336 361.856C535.174 351.053 537.217 339.287 534.368 326.796Z"/>
	<path d="M459.835 422.035C462.95 418.805 466.75 415.604 471.5 415.519C474.621 415.464 477.756 416.428 479.937 418.72L482.59 421.936L483.672 426.943C484.507 427.586 485.461 428.207 486.222 428.928C492.853 442.054 497.407 456.309 492.763 471.007L492.519 471.75C491.661 474.416 490.496 477.277 488.931 479.613C486.328 483.499 481.813 486.991 477.201 487.972L476.5 488.111L475.856 488.254C469.083 489.667 461.566 486.846 456.035 483.014C448.902 478.072 445.992 469.672 444.314 461.557C442.017 450.45 444.899 438.679 450.506 429C451.921 426.558 454.241 423.927 456.71 422.524C457.883 421.857 458.521 422.006 459.835 422.035Z"/>
	<path fill="#FCFCFC" d="M459.835 422.035C462.95 418.805 466.75 415.604 471.5 415.519C474.621 415.464 477.756 416.428 479.937 418.72L482.59 421.936L483.672 426.943L483.152 429.113C481.965 433.438 479.748 436.24 475.769 438.358C472.704 439.989 467.818 440.493 464.565 439.21C461.991 438.194 459.109 435.311 458.129 432.737C456.632 428.802 458.225 425.583 459.835 422.035Z"/>
	<path fill="#D0D9BF" d="M380.358 421.33L385.071 383.067C387.192 381.532 389.947 380.807 392.397 379.905L404.49 375.17L463.324 348.315L497.434 330.701C508.041 325.141 518.606 319.212 529.984 315.34C530.806 318.613 531.868 324.445 534.368 326.796C537.217 339.287 535.174 351.053 528.336 361.856C520.421 374.36 507.182 383.656 494.595 390.97C472.56 403.773 448.382 412.995 423.5 418.5C415.194 420.338 406.731 421.45 398.25 422.025C392.125 422.44 386.437 422.68 380.358 421.33Z"/>
	<path fill="#A2A687" d="M620.577 274.199L621.351 272.827C622.359 272.682 622.111 272.588 622.869 272.818C626.432 273.901 630.085 274.201 633.735 274.889L655.941 279.397L705.069 291.125C717.614 294.172 730.431 297.745 743.25 299.379C749.533 300.179 756.833 299.916 763.062 298.789C777.408 296.192 790.039 289.584 798.468 277.387C807.933 263.691 809.611 246.94 805.081 231.172C803.698 226.36 801.15 221.647 800.25 216.778L800.802 216.167L802.444 216.856C808.166 223.76 811.477 231.036 813.751 239.657C820.8 266.395 806.561 298.36 793.081 321.074C782.716 338.538 770.25 355.579 756.046 370.127L744.989 381.139C742.758 383.191 739.814 384.886 737.923 387.205L738.553 387.524L720.933 400.502L720.241 411.778C718.135 410.859 715.998 410.316 713.782 409.738C705.124 406.992 696.648 404.62 687.75 402.772C661.724 397.365 634.407 394.279 610.507 381.857C593.447 372.991 582.452 358.616 576.679 340.43C575.443 332.057 575.893 322.622 579.439 314.887C566.975 312.391 552.324 312.15 539.623 313.364C536.525 313.66 532.708 313.732 529.984 315.34C518.606 319.212 508.041 325.141 497.434 330.701L463.324 348.315L404.49 375.17L392.397 379.905C389.947 380.807 387.192 381.532 385.071 383.067L380.358 421.33L377.75 421.156C378.215 422.291 379.282 422.633 380.308 423.265L390.046 426.813L390.956 427.044C396.869 428.522 403.064 428.631 409.125 429.08C404.537 449.079 404.863 466.718 416.043 484.542C424.183 497.519 437.056 506.371 451.927 509.757L456.161 510.567L455.42 510.873C449.14 513.423 441.067 511.429 435 508.882C419.288 502.288 404.941 486.638 398.737 470.906L395.537 461.216C388.536 475.619 384.685 490.931 379.79 506.097L370.219 531.515C381.159 539.75 392.353 547.799 404.005 555.009C419.005 564.292 434.942 571.66 448.91 582.61C453.826 586.464 458.862 590.846 462.452 596L462.89 596.609C470.59 607.518 474.321 644.079 480.604 649.036L477.587 655.853L483.219 649.308C486.544 658.075 492.516 666.076 498.607 673.122C501.184 676.103 504.038 678.93 506.934 681.605C509.348 683.836 513.855 686.626 514.807 689.791L443.757 650.799L447.56 630.733C449.278 618.349 448.738 603.028 439.864 593.25C435.335 588.26 427.557 584.694 421.434 582.125L385.268 568.984C369.925 563.42 355.283 557.791 345.185 544.24C344.157 542.86 339.268 536.669 339.223 535.194C339.216 534.957 342.281 531.27 342.633 530.805C344.787 527.962 346.645 524.974 348.442 521.898C356.217 508.591 362.635 493.778 364.766 478.394C368.284 452.999 356.493 425.549 344.729 403.71C341.383 397.499 337.847 390.767 333.577 385.149L357.315 442.693C360.014 450.425 362.564 458.993 362.456 467.25C362.291 479.952 355.904 492.127 350.512 503.274C345.121 494.006 340.771 483.706 336.577 473.844L320.818 435.8C317.792 428.418 315.257 420.105 311.269 413.25L310.727 413.874C309.16 410.534 307.769 405.304 307.427 401.659L306.584 400.897C316.105 391.793 327.236 384.1 337.875 376.369C355.447 363.6 373.232 351.388 392.488 341.25L431.622 322.821C431.927 318.36 434.084 314.203 435.842 310.165C436.597 308.431 437.045 306.528 438.234 305.033L448.793 287.517C450.003 285.343 451.774 283.767 453.381 281.903C457.32 277.333 461.614 272.889 466.83 269.752C467.83 269.151 467.237 269.566 468.287 268.753C471.199 266.496 475.184 263.836 478.606 262.413L481.526 261.022C483.746 259.908 485.59 258.805 487.485 257.178L487.939 256.784C490.255 256.656 493.085 255.385 495.425 254.817L517.587 250.047C520.379 249.441 525.214 247.851 528.036 248.206C530.386 248.502 534.049 251.799 536.312 252.97C538.239 253.967 540.334 254.566 542.408 255.177L542.417 254.044C545.99 253.508 549.395 253.533 553 253.643L553.37 253.975C552.381 254.418 549.479 254.404 548.99 254.785C547.608 255.863 545.475 261.388 544.748 263.248C543.298 266.959 541.731 272.69 543.352 276.552C544.094 278.318 545.523 279.136 547.278 279.662C551.44 280.91 560.167 281.594 563.964 279.75C564.493 278.909 564.939 278.212 565.323 277.294L565.312 276.714C565.33 272.503 565.15 268.422 568.25 265.255C569.92 264.755 570.039 264.571 571.731 265.25C573.177 268.169 572.658 272.915 572.694 276.197C576.769 277.659 582.133 277.045 586.489 277.03C588.323 277.024 590.415 277.296 592.115 276.524C592.269 273.513 592.134 269.748 593.521 267C594.268 265.518 594.689 265.262 596.25 264.807C596.83 265.064 596.907 265.057 597.46 265.524C600.472 268.064 599.468 274.866 599.348 278.472C603.871 279.127 608.925 279.4 613.443 278.613L614 278.508L616.135 278.063C617.224 277.743 617.895 277.167 618.412 276.159C619.831 273.392 618.49 270.036 617.576 267.321L618.311 267.609C619.19 269.65 620.489 271.957 620.577 274.199Z"/>
	<path fill="#C1EAEE" d="M380.308 423.265L390.046 426.813L380.673 432.741L377.939 427.011L380.308 423.265Z"/>
	<path d="M438.234 305.033L438.549 306.297C444.626 305.244 451.514 301.55 457.377 299.475C473.024 293.939 489.237 290.143 505.841 289.224C521.237 288.372 536.789 287.929 551.681 292.404C554.42 293.227 556.996 293.555 559.198 295.526C609.986 296.127 661.942 303.653 707.994 326.151C718.021 331.049 729.044 336.799 736.97 344.823C741.687 349.599 745.149 355.186 745.03 362.099C744.871 371.376 740.428 379.252 736.266 387.25L736.922 387.672L737.923 387.205L738.553 387.524L720.933 400.502C720.655 389.936 719.253 379.621 717.397 369.224C716.407 363.681 715.543 357.927 713.815 352.568L705.933 327.169C689.755 319.471 671.747 313.809 654.446 309.348C585.862 291.662 515.223 295.27 448.448 318.87C410.658 332.226 375.016 350.874 342.525 374.32L325.126 387.491L314.238 396.471C312.095 398.233 309.885 400.353 307.427 401.659L306.584 400.897C316.105 391.793 327.236 384.1 337.875 376.369C355.447 363.6 373.232 351.388 392.488 341.25L431.622 322.821C431.927 318.36 434.084 314.203 435.842 310.165C436.597 308.431 437.045 306.528 438.234 305.033Z"/>
	<path fill="#630810" d="M438.234 305.033L438.549 306.297C444.626 305.244 451.514 301.55 457.377 299.475C473.024 293.939 489.237 290.143 505.841 289.224C521.237 288.372 536.789 287.929 551.681 292.404C554.42 293.227 556.996 293.555 559.198 295.526C525.189 298.262 491.684 302.72 458.982 312.861L431.622 322.821C431.927 318.36 434.084 314.203 435.842 310.165C436.597 308.431 437.045 306.528 438.234 305.033Z"/>
	<path fill="#D0D9BF" d="M579.439 314.887L579.965 314.988C590.173 316.87 600.699 317.518 610.984 319.016C636.093 322.675 661.541 327.807 685.173 337.275C692.713 340.296 700.517 343.71 706.988 348.714L713.815 352.568C715.543 357.927 716.407 363.681 717.397 369.224C719.253 379.621 720.655 389.936 720.933 400.502L720.241 411.778C718.135 410.859 715.998 410.316 713.782 409.738C705.124 406.992 696.648 404.62 687.75 402.772C661.724 397.365 634.407 394.279 610.507 381.857C593.447 372.991 582.452 358.616 576.679 340.43C575.443 332.057 575.893 322.622 579.439 314.887Z"/>
	<path fill="#FCFCFC" d="M706.988 348.714L713.815 352.568C715.543 357.927 716.407 363.681 717.397 369.224C719.253 379.621 720.655 389.936 720.933 400.502L720.241 411.778C718.135 410.859 715.998 410.316 713.782 409.738C716.239 397.8 714.414 384.321 712.141 372.507L709.351 360C708.501 356.884 706.258 351.857 706.988 348.714Z"/>
	<path fill="#900C10" d="M620.577 274.199L621.351 272.827C622.359 272.682 622.111 272.588 622.869 272.818C626.432 273.901 630.085 274.201 633.735 274.889L655.941 279.397L705.069 291.125C717.614 294.172 730.431 297.745 743.25 299.379C749.533 300.179 756.833 299.916 763.062 298.789C777.408 296.192 790.039 289.584 798.468 277.387C807.933 263.691 809.611 246.94 805.081 231.172C803.698 226.36 801.15 221.647 800.25 216.778L800.802 216.167L802.444 216.856C808.166 223.76 811.477 231.036 813.751 239.657C820.8 266.395 806.561 298.36 793.081 321.074C782.716 338.538 770.25 355.579 756.046 370.127L744.989 381.139C742.758 383.191 739.814 384.886 737.923 387.205L736.922 387.672L736.266 387.25C740.428 379.252 744.871 371.376 745.03 362.099C745.149 355.186 741.687 349.599 736.97 344.823C729.044 336.799 718.021 331.049 707.994 326.151C661.942 303.653 609.986 296.127 559.198 295.526C556.996 293.555 554.42 293.227 551.681 292.404C536.789 287.929 521.237 288.372 505.841 289.224C489.237 290.143 473.024 293.939 457.377 299.475C451.514 301.55 444.626 305.244 438.549 306.297L438.234 305.033L448.793 287.517C450.003 285.343 451.774 283.767 453.381 281.903C457.32 277.333 461.614 272.889 466.83 269.752C467.83 269.151 467.237 269.566 468.287 268.753C471.199 266.496 475.184 263.836 478.606 262.413L481.526 261.022C483.746 259.908 485.59 258.805 487.485 257.178L487.939 256.784C490.255 256.656 493.085 255.385 495.425 254.817L517.587 250.047C520.379 249.441 525.214 247.851 528.036 248.206C530.386 248.502 534.049 251.799 536.312 252.97C538.239 253.967 540.334 254.566 542.408 255.177L542.417 254.044C545.99 253.508 549.395 253.533 553 253.643L553.37 253.975C552.381 254.418 549.479 254.404 548.99 254.785C547.608 255.863 545.475 261.388 544.748 263.248C543.298 266.959 541.731 272.69 543.352 276.552C544.094 278.318 545.523 279.136 547.278 279.662C551.44 280.91 560.167 281.594 563.964 279.75C564.493 278.909 564.939 278.212 565.323 277.294L565.312 276.714C565.33 272.503 565.15 268.422 568.25 265.255C569.92 264.755 570.039 264.571 571.731 265.25C573.177 268.169 572.658 272.915 572.694 276.197C576.769 277.659 582.133 277.045 586.489 277.03C588.323 277.024 590.415 277.296 592.115 276.524C592.269 273.513 592.134 269.748 593.521 267C594.268 265.518 594.689 265.262 596.25 264.807C596.83 265.064 596.907 265.057 597.46 265.524C600.472 268.064 599.468 274.866 599.348 278.472C603.871 279.127 608.925 279.4 613.443 278.613L614 278.508L616.135 278.063C617.224 277.743 617.895 277.167 618.412 276.159C619.831 273.392 618.49 270.036 617.576 267.321L618.311 267.609C619.19 269.65 620.489 271.957 620.577 274.199Z"/>
	<path d="M542.417 254.044C545.99 253.508 549.395 253.533 553 253.643L553.37 253.975C552.381 254.418 549.479 254.404 548.99 254.785C547.608 255.863 545.475 261.388 544.748 263.248C543.298 266.959 541.731 272.69 543.352 276.552C544.094 278.318 545.523 279.136 547.278 279.662C551.44 280.91 560.167 281.594 563.964 279.75C564.493 278.909 564.939 278.212 565.323 277.294L565.312 276.714C565.33 272.503 565.15 268.422 568.25 265.255C569.92 264.755 570.039 264.571 571.731 265.25C573.177 268.169 572.658 272.915 572.694 276.197C576.769 277.659 582.133 277.045 586.489 277.03C588.323 277.024 590.415 277.296 592.115 276.524C592.269 273.513 592.134 269.748 593.521 267C594.268 265.518 594.689 265.262 596.25 264.807C596.83 265.064 596.907 265.057 597.46 265.524C600.472 268.064 599.468 274.866 599.348 278.472C603.871 279.127 608.925 279.4 613.443 278.613L614 278.508L616.135 278.063C617.224 277.743 617.895 277.167 618.412 276.159C619.831 273.392 618.49 270.036 617.576 267.321L618.311 267.609C619.19 269.65 620.489 271.957 620.577 274.199C619.875 275.717 619.154 277.577 617.771 278.61C613.431 281.855 603.029 280.643 597.939 279.903C598.006 276.778 598.773 270.253 596.885 267.67L596.094 268.022C594.456 271.125 594.72 274.196 594.048 277.5C593.79 278.771 593.326 279.645 592.204 280.357C589.086 282.337 576.022 281.765 572.25 280.823C570.007 277.463 569.963 272.687 569.495 268.755C568.473 272.01 567.945 278.201 565.25 280.463C561.906 283.27 555.15 281.846 551.215 281.434C549.106 281.213 546.988 280.94 545.051 280.01C543.592 279.309 542.549 278.227 542.048 276.67C539.917 270.047 544.643 261.031 547.385 255.25L547 254.434C545.195 254.344 544.094 254.541 542.408 255.177L542.417 254.044Z"/>
	<path fill="#C1EAEE" d="M572.694 276.197C576.769 277.659 582.133 277.045 586.489 277.03C588.323 277.024 590.415 277.296 592.115 276.524C592.24 277.703 592.147 278.352 591.75 279.469C586.099 280.655 579.433 281.207 573.75 279.902C572.709 278.505 572.826 277.899 572.694 276.197Z"/>
	<path fill="#144056" d="M340.81 753.974C342.566 753.615 344.182 753.619 345.883 752.948C345.738 750.091 339.865 740.218 338.288 737.006C335.693 731.721 333.194 726.294 331.092 720.792C333.373 715.784 337.114 711.52 340.592 707.317C359.723 684.196 384.581 666.671 410.107 651.272C420.096 645.245 430.191 639.2 440.671 634.07L437.311 655.433L450.56 662.596L470.922 673.114C472.773 673.842 474.667 674.42 476.177 675.754C487.197 680.947 497.977 687.896 508.441 694.195C517.841 699.854 526.251 705.69 537.237 707.651C540.747 708.277 543.339 707.827 546.66 706.677L549.486 705.758C559.49 700.893 567.692 693.921 575.76 686.379C576.601 685.507 577.315 684.517 578.559 684.282C582.486 686.407 585.933 689.078 589.75 691.326C595.028 694.435 600.54 696.714 606.172 699.058L621.055 689.107C626.766 684.8 631.816 679.635 637.951 675.929C641.116 678.373 644.702 680.49 647.525 683.322C650.309 684.466 653.318 687.559 655.686 689.48C669.199 700.438 684.777 713.294 693.59 728.495L690.914 745.645L687.094 759.703L686.125 761.628C695.756 769.149 706.283 775.081 716.864 781.147L767.697 809.743L780.804 816.597L788.979 879.273L798.955 956.86C799.004 959.179 798.975 961.511 799.395 963.797L807.118 1024L803.687 1024L753.694 1024L716.981 1024L715.301 1024L609.269 1024L594.874 1024L490.766 1024L473.11 1024L407.86 1024L328.831 1024L323.323 1024L272.731 1024L238.458 1024L188.663 1024L184.239 1024L198.422 963.5L210.967 909.864L226.983 855.241L233.641 832.887C234.258 830.959 234.941 827.62 236.12 826.052C237.706 823.944 242.134 821.775 244.357 820.338L269.019 804.789L314.565 776.197L335.272 763.26C339.258 760.673 343.754 758.007 347.056 754.59L347.351 754.273C345.297 753.811 342.918 754.002 340.81 753.974Z"/>
	<path d="M596.657 996.011C599.043 999.539 600.73 1004.06 602.371 1008L609.269 1024L594.874 1024L597.249 1022.46C600.082 1021.86 603.151 1020.14 605.838 1018.98C603.485 1013.36 601.552 1007.32 598.492 1002.05L596.657 996.011Z"/>
	<path fill="#9FBEC4" d="M598.492 1002.05C601.552 1007.32 603.485 1013.36 605.838 1018.98C603.151 1020.14 600.082 1021.86 597.249 1022.46C596.013 1017.23 594.105 1011.71 591.918 1006.79L598.492 1002.05Z"/>
	<path fill="#9FBEC4" d="M473.11 1024L480.313 1010.38C484.7 1012.56 488.866 1014.4 493.573 1015.77C492.25 1018.26 491.47 1021.27 490.766 1024L473.11 1024Z"/>
	<path fill="#9FBEC4" d="M501.105 995.841L489.877 990.925L497.15 977.131C500.335 978.581 503.53 979.542 506.929 980.316L501.105 995.841Z"/>
	<path fill="#9FBEC4" d="M585.902 970.065C587.169 974.398 589.048 978.453 590.717 982.64C591.457 984.498 592.556 986.635 592.7 988.627L585.339 992.271L584.033 992.703C582.104 987.115 579.02 981.954 575.955 976.927C579.598 975.002 582.725 972.663 585.902 970.065Z"/>
	<path d="M715.301 1024C716.196 983.053 721.127 942.258 732.998 903C735.627 894.307 738.061 884.851 742.675 876.993L736.117 897.962C732.454 904.235 731.24 911.845 729.542 918.827C724.189 940.828 720.778 963.41 719.195 986C718.31 998.633 718.354 1011.42 716.981 1024L715.301 1024Z"/>
	<path fill="#E98C17" d="M633.45 982.358C629.876 984.967 626.183 986.908 621.641 987C616.508 987.105 612.121 985.147 608.426 981.577C604.192 977.485 601.872 971.641 602.021 965.75C602.153 960.501 604.081 956.958 607.835 953.434L607.921 954.373C607.996 955.48 607.769 956.248 607.483 957.301C606.534 960.783 606.647 964.724 608.25 967.969L608.547 968.587C611.449 974.392 617.404 977.7 623.352 979.611C626.656 980.673 630.262 981.037 633.45 982.358Z"/>
	<path fill="#E98C17" d="M474.942 976.652C473.98 979.409 472.329 981.963 470.296 984.049C466.828 987.608 462.347 989.994 457.327 990.017C451.609 990.044 446.349 987.755 442.418 983.594C438.518 979.466 436.662 974.122 436.925 968.487C437.188 962.846 439.659 958.035 443.893 954.334C448.989 949.878 454.338 949.314 460.79 949.679L460.408 949.944C459.135 950.803 458.406 950.979 456.925 951.363L454.421 952.374L453.918 952.582C452.077 953.381 450.696 954.835 449.177 956.103C447.726 957.313 447.099 960.386 446.996 962.22C446.709 967.298 449.716 973.371 453.25 976.921C455.081 978.76 456.559 979.69 459 980.457L459.928 980.768C461.816 981.327 464.909 980.999 466.596 980.123C469.197 978.772 472.037 977.084 474.942 976.652Z"/>
	<path fill="#FCFCFC" d="M591.918 1006.79C594.105 1011.71 596.013 1017.23 597.249 1022.46L594.874 1024L490.766 1024C491.47 1021.27 492.25 1018.26 493.573 1015.77C513.469 1021.7 533.772 1023.37 554.252 1019.59C559.121 1018.69 564.555 1017.72 569.138 1015.88C571.113 1015.77 573.335 1014.75 575.205 1014.12C581.012 1012.15 586.481 1009.61 591.918 1006.79Z"/>
	<path fill="#F7B412" d="M460.79 949.679L464.411 950.904C469.643 953.49 473.252 957.23 475.13 962.859C476.139 965.884 476.089 969.203 476.13 972.359C475.772 973.746 475.5 975.343 474.942 976.652C472.037 977.084 469.197 978.772 466.596 980.123C464.909 980.999 461.816 981.327 459.928 980.768L459 980.457C456.559 979.69 455.081 978.76 453.25 976.921C449.716 973.371 446.709 967.298 446.996 962.22C447.099 960.386 447.726 957.313 449.177 956.103C450.696 954.835 452.077 953.381 453.918 952.582L454.421 952.374L456.925 951.363C458.406 950.979 459.135 950.803 460.408 949.944L460.79 949.679Z"/>
	<path fill="#FFFE46" d="M464.411 950.904C469.643 953.49 473.252 957.23 475.13 962.859C476.139 965.884 476.089 969.203 476.13 972.359L473.539 973.75C473.276 973.715 472.976 973.783 472.75 973.645C472.515 973.501 470.668 966.216 470.291 965.234C468.24 959.899 464.323 956.449 460.398 952.511L460.507 951.75L464.411 950.904Z"/>
	<path fill="#F7B412" d="M607.835 953.434C610.781 950.071 616.104 947.785 620.581 947.474C625.035 947.165 631.228 950.012 634.316 952.993C638.071 956.619 640.516 961.949 640.459 967.219C640.4 972.73 637.749 978.27 633.785 982.048L633.45 982.358C630.262 981.037 626.656 980.673 623.352 979.611C617.404 977.7 611.449 974.392 608.547 968.587L608.25 967.969C606.647 964.724 606.534 960.783 607.483 957.301C607.769 956.248 607.996 955.48 607.921 954.373L607.835 953.434Z"/>
	<path fill="#900C10" d="M564.591 980.421C563.695 980.247 563.005 980.033 562.104 980.299C559.275 981.134 555.957 981.225 553.009 981.519C545.235 982.293 536.906 982.758 529.093 982.298C527.08 982.18 524.343 982.55 522.476 981.988C521.07 981.564 519.708 981.866 518.308 981.515C517.61 981.34 516.97 981.2 516.25 981.108C509.8 980.287 503.375 978.653 497.206 976.649L505.201 959.077L508.567 959.5C520.03 961.507 530.956 963.408 542.679 963.427C545.962 963.432 549.575 963.714 552.815 963.203L572.537 960.092L580.329 958.043C582.682 961.518 584.938 965.975 585.902 970.065C582.725 972.663 579.598 975.002 575.955 976.927C572.339 978.163 568.372 979.837 564.591 980.421Z"/>
	<path fill="#900C10" d="M585.339 992.271L586.185 992.296C588.577 992.308 591.162 990.048 593.574 989.449L596.657 996.011L598.492 1002.05L591.918 1006.79C586.481 1009.61 581.012 1012.15 575.205 1014.12C573.335 1014.75 571.113 1015.77 569.138 1015.88C565.603 1015.57 561.405 1017.31 557.866 1017.98C549.869 1019.48 541.388 1020.52 533.256 1020.6C530.706 1020.62 527.897 1020.86 525.374 1020.5L509.25 1018.6C499.197 1016.93 489.899 1013.91 480.643 1009.72L489.299 992.043C507.789 999.003 526.16 1006.99 543.239 1016.91C544.966 1015.31 546.709 1013.54 548.639 1012.2C550.69 1010.77 552.746 1009.7 554.57 1007.96L554.909 1007.63C555.803 1006.38 558.962 1005.1 560.358 1004.33L584.033 992.703L585.339 992.271Z"/>
	<path fill="#FCFCFC" d="M564.591 980.421C568.372 979.837 572.339 978.163 575.955 976.927C579.02 981.954 582.104 987.115 584.033 992.703L560.358 1004.33C558.962 1005.1 555.803 1006.38 554.909 1007.63C550.824 1009.36 546.587 1012.24 543.277 1015.18L542.762 1015.65C529.302 1007.53 515.622 1001.78 501.105 995.841L506.929 980.316C520.999 983.504 535.75 984.498 550.113 983.004C554.897 982.506 560.003 981.923 564.591 980.421Z"/>
	<path fill="#0B2A37" d="M716.981 1024C718.354 1011.42 718.31 998.633 719.195 986C720.778 963.41 724.189 940.828 729.542 918.827C731.24 911.845 732.454 904.235 736.117 897.962L736.181 898.67C736.565 903.313 735.896 907.968 735.704 912.614L735.7 936.608C737.151 966.067 745.026 995.896 753.694 1024L716.981 1024Z"/>
	<path fill="#296B81" d="M767.697 809.743L780.804 816.597L788.979 879.273L798.955 956.86C799.004 959.179 798.975 961.511 799.395 963.797L807.118 1024L803.687 1024C799.549 1015.79 797.696 1004.99 795.321 996.075L789.043 972.297L780.882 932.5L768.75 868.335L764.869 833.54C751.055 853.182 736.574 872.353 725.521 893.767L714.365 917.447L705.847 938.121C708.996 923.288 714.07 908.765 719.471 894.613C726.474 876.259 734.542 857.874 744.955 841.171C751.846 830.119 759.842 820.093 767.697 809.743Z"/>
	<path fill="#0B2A37" d="M347.351 754.273L347.986 754.5L349.882 759.049C362.055 780.975 373.786 803.879 388.215 824.39C410.556 856.149 439.317 882.559 472.507 902.577C485.758 910.568 499.679 917.764 514.592 922.108C515.526 922.38 516.412 922.569 517.384 922.653L517 923.438C504.773 924.712 493.213 921.057 481.753 917.14C470.939 913.444 459.959 908.999 450.094 903.17C439.393 896.847 429.419 889.223 419.772 881.413C396.221 862.348 376.233 839.316 359.832 813.876L348.872 795.321C331.747 814.784 310.183 829.588 290.881 846.711C298.708 853.459 305.145 861.543 311.764 869.438C340.661 903.903 362.737 942.561 384.75 981.59C392.584 995.479 401.375 1009.44 407.86 1024L328.831 1024L323.323 1024L272.731 1024L238.458 1024L188.663 1024L184.239 1024L198.422 963.5L210.967 909.864L226.983 855.241L233.641 832.887C234.258 830.959 234.941 827.62 236.12 826.052C237.706 823.944 242.134 821.775 244.357 820.338L269.019 804.789L314.565 776.197L335.272 763.26C339.258 760.673 343.754 758.007 347.056 754.59L347.351 754.273Z"/>
	<path d="M323.323 1024C325.747 1006.8 329.712 990.01 333.308 973.042C335.025 964.941 335.817 956.178 338.817 948.433C338.939 955.329 336.991 963.156 336.085 970.029L328.831 1024L323.323 1024Z"/>
	<path d="M347.351 754.273L347.986 754.5L349.882 759.049L240.674 827.057C251.854 830.036 263.007 836.301 272.58 842.75C294.705 857.657 313.439 876.589 326.916 899.719C334.557 912.832 340.507 928.423 342.807 943.468C339.916 938.362 338.502 932.794 336.129 927.469C329.714 913.07 321.856 899.634 312.646 886.862C310.302 883.612 307.768 879.426 304.111 877.545C301.582 874.028 298.406 871.014 295.324 867.992C287.066 859.895 277.829 853.038 268.714 845.957L240.198 828.321C236.265 838.509 233.419 849.16 230.489 859.668L220.136 897.121L204.502 954.073L196.875 987.41L188.663 1024L184.239 1024L198.422 963.5L210.967 909.864L226.983 855.241L233.641 832.887C234.258 830.959 234.941 827.62 236.12 826.052C237.706 823.944 242.134 821.775 244.357 820.338L269.019 804.789L314.565 776.197L335.272 763.26C339.258 760.673 343.754 758.007 347.056 754.59L347.351 754.273Z"/>
	<path fill="#0B2A37" d="M188.663 1024L196.875 987.41L204.502 954.073L220.136 897.121L230.489 859.668C233.419 849.16 236.265 838.509 240.198 828.321L268.714 845.957C265.56 855.792 264.268 866.644 262.343 876.812L251.208 938.035L242.471 989.625C240.68 1000.88 238.41 1012.56 238.458 1024L188.663 1024Z"/>
	<path fill="#144056" d="M268.714 845.957C277.829 853.038 287.066 859.895 295.324 867.992C298.406 871.014 301.582 874.028 304.111 877.545L304.254 877.928C305.746 881.684 308.768 885.274 310.945 888.713C316.935 898.176 322.814 907.843 327.671 917.943C328.456 919.575 330.319 922.728 330.323 924.474C330.326 925.682 329.263 928.014 328.885 929.227C326.844 935.771 324.27 942.162 321.64 948.49C309.843 976.877 293.957 1001.78 272.731 1024L238.458 1024C238.41 1012.56 240.68 1000.88 242.471 989.625L251.208 938.035L262.343 876.812C264.268 866.644 265.56 855.792 268.714 845.957Z"/>
	<path fill="#9FBEC4" d="M340.81 753.974C342.566 753.615 344.182 753.619 345.883 752.948C345.738 750.091 339.865 740.218 338.288 737.006C335.693 731.721 333.194 726.294 331.092 720.792C333.373 715.784 337.114 711.52 340.592 707.317C359.723 684.196 384.581 666.671 410.107 651.272C420.096 645.245 430.191 639.2 440.671 634.07L437.311 655.433L450.56 662.596L470.922 673.114C472.773 673.842 474.667 674.42 476.177 675.754C487.197 680.947 497.977 687.896 508.441 694.195C517.841 699.854 526.251 705.69 537.237 707.651C540.747 708.277 543.339 707.827 546.66 706.677L549.486 705.758C559.49 700.893 567.692 693.921 575.76 686.379C576.601 685.507 577.315 684.517 578.559 684.282C582.486 686.407 585.933 689.078 589.75 691.326C595.028 694.435 600.54 696.714 606.172 699.058L621.055 689.107C626.766 684.8 631.816 679.635 637.951 675.929C641.116 678.373 644.702 680.49 647.525 683.322C650.309 684.466 653.318 687.559 655.686 689.48C669.199 700.438 684.777 713.294 693.59 728.495L690.914 745.645L687.094 759.703L686.125 761.628L674.746 789.018C656.147 828.842 631.354 863.946 603.038 897.393C593.124 910.364 582.513 919.348 567.497 925.822L558.707 909.405C557.612 907.389 556.321 904.291 554.422 903.044L580.059 956.997L568.742 960.198C550.181 963.521 532.562 962.538 514.036 959.665L505.554 957.922L514.236 937.399C516.055 932.491 517.265 927.4 518.474 922.316L517.384 922.653C516.412 922.569 515.526 922.38 514.592 922.108C499.679 917.764 485.758 910.568 472.507 902.577C439.317 882.559 410.556 856.149 388.215 824.39C373.786 803.879 362.055 780.975 349.882 759.049L347.986 754.5L347.351 754.273C345.297 753.811 342.918 754.002 340.81 753.974Z"/>
	<path d="M434.228 743.667C438.139 740.645 444.844 739.76 449.555 738.519C455.923 736.841 462.249 734.603 468.818 733.84L458.688 770.611C458.367 767.688 459.892 764.872 460.742 762.136L464.011 750.8C465.212 746.481 466.083 742.199 466.807 737.774L435.485 746.072L434.228 743.667Z"/>
	<path fill="#C1EAEE" d="M574.206 778.945L583.858 772.543C584.311 781.91 583.119 792.984 576.492 800.185C565.344 812.3 545.138 818.486 529 818.978C515.216 819.398 503.706 816.357 491.159 810.878C483.396 807.488 475.494 803.062 469.393 797.107C463.85 791.699 458.524 782.479 458.363 774.545L458.384 773.966C459.547 773.727 460.269 773.992 461.386 774.338C462.336 775.156 463.309 775.775 464.37 776.436C475.283 781.579 485.74 785.921 497.19 789.678L502.737 791.206C504.026 791.618 505.43 791.799 506.75 792.161L508.502 792.451C510.129 792.704 511.669 793.14 513.315 793.206C514.446 793.25 513.957 793.134 514.744 793.453C516.033 793.977 517.51 793.541 518.877 793.934C522.103 794.862 528.452 794.352 531.75 793.745C533.03 793.509 534.446 793.459 535.75 793.245C536.873 793.061 537.651 793.045 538.75 792.745L540.497 792.449L545.296 791.312C546.004 791.177 546.569 790.945 547.25 790.745L556.732 787.719L559.25 786.7L560.108 786.342C563.959 784.699 568.06 782.911 571.642 780.758C572.383 780.313 573.716 779.652 574.206 778.945Z"/>
	<defs>
		<linearGradient id="gradient_3" gradientUnits="userSpaceOnUse" x1="544.97418" y1="962.95856" x2="517.39111" y2="794.90112">
			<stop offset="0" stop-color="#DCE1EA"/>
			<stop offset="1" stop-color="#C0ECEF"/>
		</linearGradient>
	</defs>
	<path fill="url(#gradient_3)" d="M463.492 802.605C464.773 802.253 464.675 802.173 465.815 802.829C471.623 806.17 476.951 810.311 482.834 813.564C503.191 824.822 526.464 828.453 549.121 822.497C558.264 820.093 567.963 815.39 575.956 810.32L563.638 839.071L544.625 879.05C543.48 881.452 539.666 887.269 539.601 889.698C539.555 891.434 541.018 894.417 541.576 896.137C545.732 908.953 550.378 921.825 555.964 934.089C559.979 942.905 565.472 951.046 568.742 960.198C550.181 963.521 532.562 962.538 514.036 959.665L505.554 957.922L514.236 937.399C516.055 932.491 517.265 927.4 518.474 922.316C519.494 921.805 520.397 921.64 521.5 921.408C523.653 919.932 524.764 913.391 525.472 910.854L525.582 909.099L525.742 908.735C526.821 905.286 526.978 900.908 527.462 897.312C527.562 896.568 528.057 894.559 527.912 893.905C527.494 892.028 523.604 887.895 522.337 886.24L509.253 868.675L463.492 802.605Z"/>
	<path fill="#9FBEC4" d="M525.472 910.854C528.061 921.599 517.766 948.77 514.036 959.665L505.554 957.922L514.236 937.399C516.055 932.491 517.265 927.4 518.474 922.316C519.494 921.805 520.397 921.64 521.5 921.408C523.653 919.932 524.764 913.391 525.472 910.854Z"/>
	<path fill="#B6BD9A" d="M470.922 673.114C472.773 673.842 474.667 674.42 476.177 675.754C487.197 680.947 497.977 687.896 508.441 694.195C517.841 699.854 526.251 705.69 537.237 707.651C540.747 708.277 543.339 707.827 546.66 706.677L549.486 705.758L550.25 706.245C555.45 703.871 560.056 700.849 564.465 697.216C564.322 700.568 564.07 703.829 564.549 707.158L564.557 707.393L565.118 729.635C565.168 731.643 564.897 735.758 565.899 737.407L565.851 739.751C567.136 745.212 567.858 750.949 569.755 756.25L570.786 759.732C571.174 760.905 571.349 762.072 571.764 763.25L572.517 765.516L575.909 776.58L575.723 776.816L574.206 778.945C573.716 779.652 572.383 780.313 571.642 780.758C568.06 782.911 563.959 784.699 560.108 786.342L559.25 786.7L556.732 787.719L547.25 790.745C546.569 790.945 546.004 791.177 545.296 791.312L540.497 792.449L538.75 792.745C537.651 793.045 536.873 793.061 535.75 793.245C534.446 793.459 533.03 793.509 531.75 793.745C528.452 794.352 522.103 794.862 518.877 793.934C517.51 793.541 516.033 793.977 514.744 793.453C513.957 793.134 514.446 793.25 513.315 793.206C511.669 793.14 510.129 792.704 508.502 792.451L506.75 792.161C505.43 791.799 504.026 791.618 502.737 791.206L497.19 789.678C485.74 785.921 475.283 781.579 464.37 776.436C463.309 775.775 462.336 775.156 461.386 774.338C460.635 773.562 460.147 773.037 459.162 772.545C458.205 772.068 458.652 772.557 458.121 771.5L458.688 770.611L468.818 733.84C471.907 717.69 472.29 700.008 470.945 683.629C470.674 680.324 469.719 676.224 470.922 673.114Z"/>
	<path fill="#D0D9BF" d="M559.318 710.14C560.687 708.463 561.976 706.613 563.75 705.347L564.557 707.393L565.118 729.635C565.168 731.643 564.897 735.758 565.899 737.407L565.851 739.751C567.136 745.212 567.858 750.949 569.755 756.25L570.786 759.732C571.174 760.905 571.349 762.072 571.764 763.25L572.517 765.516L575.909 776.58L575.723 776.816L575.513 776.771C574.278 776.618 573.096 776.545 571.876 776.251C565.333 774.675 559.55 770.631 556.147 764.753C548.651 751.804 550.42 736.169 554.999 722.5C556.32 718.557 558.059 714.814 559.147 710.788L559.318 710.14Z"/>
	<path fill="#D0D9BF" d="M470.922 673.114C472.773 673.842 474.667 674.42 476.177 675.754L479.395 691.112C481.591 709.926 484.795 729.641 481.641 748.5C480.429 755.745 478.105 763.213 473.527 769.088C471.172 772.111 467.985 775.107 464.37 776.436C463.309 775.775 462.336 775.156 461.386 774.338C460.635 773.562 460.147 773.037 459.162 772.545C458.205 772.068 458.652 772.557 458.121 771.5L458.688 770.611L468.818 733.84C471.907 717.69 472.29 700.008 470.945 683.629C470.674 680.324 469.719 676.224 470.922 673.114Z"/>
	<path fill="#757A60" d="M476.177 675.754C487.197 680.947 497.977 687.896 508.441 694.195C517.841 699.854 526.251 705.69 537.237 707.651C540.747 708.277 543.339 707.827 546.66 706.677L549.486 705.758L550.25 706.245C555.45 703.871 560.056 700.849 564.465 697.216C564.322 700.568 564.07 703.829 564.549 707.158L564.557 707.393L563.75 705.347C561.976 706.613 560.687 708.463 559.318 710.14C550.132 717.283 538.823 723.381 526.723 722.404C507.316 720.836 491.499 705.149 479.395 691.112L476.177 675.754Z"/>
	<path fill="#835723" d="M621.055 689.107C626.766 684.8 631.816 679.635 637.951 675.929C641.116 678.373 644.702 680.49 647.525 683.322C650.309 684.466 653.318 687.559 655.686 689.48C669.199 700.438 684.777 713.294 693.59 728.495L690.914 745.645L687.094 759.703L686.125 761.628L674.746 789.018C656.147 828.842 631.354 863.946 603.038 897.393C593.124 910.364 582.513 919.348 567.497 925.822L558.707 909.405C557.612 907.389 556.321 904.291 554.422 903.044L553.881 901.995L550.144 894.71C549.845 894.122 548.936 892.791 548.9 892.263C548.826 891.181 552.797 884.664 553.486 883.339C566.852 857.633 580.857 832.297 590.419 804.862C593.214 796.843 596.038 788.364 597.195 779.924C598.2 772.597 597.73 764.392 596.77 757.079C593.106 763.031 588.974 767.784 583.858 772.543L574.206 778.945L575.723 776.816L575.909 776.58L572.517 765.516L571.764 763.25C571.349 762.072 571.174 760.905 570.786 759.732L569.755 756.25C567.858 750.949 567.136 745.212 565.851 739.751L565.899 737.407C564.897 735.758 565.168 731.643 565.118 729.635L564.557 707.393L564.549 707.158C564.07 703.829 564.322 700.568 564.465 697.216C560.056 700.849 555.45 703.871 550.25 706.245L549.486 705.758C559.49 700.893 567.692 693.921 575.76 686.379C576.601 685.507 577.315 684.517 578.559 684.282C582.486 686.407 585.933 689.078 589.75 691.326C595.028 694.435 600.54 696.714 606.172 699.058L621.055 689.107Z"/>
	<path fill="#54350E" d="M575.76 686.379C576.601 685.507 577.315 684.517 578.559 684.282C582.486 686.407 585.933 689.078 589.75 691.326C595.028 694.435 600.54 696.714 606.172 699.058L621.055 689.107C625.95 694.445 630.559 699.758 634.299 705.991C641.915 718.685 644.09 732.032 643.481 746.584C642.408 772.253 631.297 797.666 619.7 820.188C617.595 824.275 615.931 829.014 613.25 832.745L612.926 832C621.2 814.843 629.696 793.273 628.474 773.953C627.983 766.192 625.709 758.295 623.179 750.98C619.025 738.967 613.748 727.47 606.457 717.027C608.379 725.658 613.228 737.829 611.041 746.555L610.078 744.497L607.596 730.497L605.621 722.423C604.945 719.55 603.872 716.947 602.201 714.496L601.858 714L594.719 704.967C591.507 700.475 586.832 696.377 582.886 692.532C580.728 690.429 578.485 687.712 575.76 686.379Z"/>
	<path fill="#AF7325" d="M603.038 897.393C601.393 894.149 608.123 885.805 610.207 882.951C618.129 872.102 624.977 860.628 631.703 849.013C645.58 825.048 657.549 800.01 667.135 774.023L678.595 738.081C675.646 730.636 670.31 723.792 665.241 717.648C654.717 704.894 643.338 694.315 631.13 683.267C632.11 681.546 636.16 679.174 637.808 677.805C641.049 679.072 643.532 681.863 646.701 683.037L647.525 683.322C650.309 684.466 653.318 687.559 655.686 689.48C669.199 700.438 684.777 713.294 693.59 728.495L690.914 745.645L687.094 759.703L686.125 761.628L674.746 789.018C656.147 828.842 631.354 863.946 603.038 897.393Z"/>
	<defs>
		<linearGradient id="gradient_4" gradientUnits="userSpaceOnUse" x1="525.23187" y1="716.54749" x2="611.00488" y2="864.98181">
			<stop offset="0" stop-color="#3C2201"/>
			<stop offset="1" stop-color="#5C421B"/>
		</linearGradient>
	</defs>
	<path fill="url(#gradient_4)" d="M575.76 686.379C578.485 687.712 580.728 690.429 582.886 692.532C586.832 696.377 591.507 700.475 594.719 704.967L601.858 714L602.201 714.496C603.872 716.947 604.945 719.55 605.621 722.423L607.596 730.497L610.078 744.497L611.041 746.555C611.033 753.417 611.355 760.513 610.85 767.347C610.248 775.501 608.702 783.76 606.504 791.635C603.23 803.372 598.183 814.763 592.75 825.639L562.654 881.685C559.916 886.959 555.867 893.253 554.192 898.886C553.889 899.905 553.906 900.943 553.881 901.995L550.144 894.71C549.845 894.122 548.936 892.791 548.9 892.263C548.826 891.181 552.797 884.664 553.486 883.339C566.852 857.633 580.857 832.297 590.419 804.862C593.214 796.843 596.038 788.364 597.195 779.924C598.2 772.597 597.73 764.392 596.77 757.079C593.106 763.031 588.974 767.784 583.858 772.543L574.206 778.945L575.723 776.816L575.909 776.58L572.517 765.516L571.764 763.25C571.349 762.072 571.174 760.905 570.786 759.732L569.755 756.25C567.858 750.949 567.136 745.212 565.851 739.751L565.899 737.407C564.897 735.758 565.168 731.643 565.118 729.635L564.557 707.393L564.549 707.158C564.07 703.829 564.322 700.568 564.465 697.216C560.056 700.849 555.45 703.871 550.25 706.245L549.486 705.758C559.49 700.893 567.692 693.921 575.76 686.379Z"/>
	<path d="M565.899 737.407L566.25 736.153C570.54 737.041 574.627 738.641 578.746 740.106C584.198 742.044 589.708 743.984 594.807 746.75C595.256 748.18 595.445 749.226 595.472 750.724L576.628 743.319C573.666 742.134 568.964 739.429 565.851 739.751L565.899 737.407Z"/>
	<path fill="#9FBEC4" d="M565.851 739.751C568.964 739.429 573.666 742.134 576.628 743.319L595.472 750.724C596.363 752.943 596.79 754.047 595.855 756.374C593.446 762.369 587.227 768.066 582.417 772.112C580.651 773.596 578.454 775.642 576.282 776.469L575.909 776.58L572.517 765.516L571.764 763.25C571.349 762.072 571.174 760.905 570.786 759.732L569.755 756.25C567.858 750.949 567.136 745.212 565.851 739.751Z"/>
	<path fill="#54350E" d="M340.81 753.974C342.566 753.615 344.182 753.619 345.883 752.948C345.738 750.091 339.865 740.218 338.288 737.006C335.693 731.721 333.194 726.294 331.092 720.792C333.373 715.784 337.114 711.52 340.592 707.317C359.723 684.196 384.581 666.671 410.107 651.272C420.096 645.245 430.191 639.2 440.671 634.07L437.311 655.433L450.56 662.596L470.922 673.114C469.719 676.224 470.674 680.324 470.945 683.629C472.29 700.008 471.907 717.69 468.818 733.84C462.249 734.603 455.923 736.841 449.555 738.519C444.844 739.76 438.139 740.645 434.228 743.667L435.485 746.072C437.634 751.315 439.564 758.997 443.466 763.137L443.165 763.75C443.576 766.541 445.553 769.679 446.77 772.23L462.717 801.917L463.492 802.605L509.253 868.675L522.337 886.24C523.604 887.895 527.494 892.028 527.912 893.905C528.057 894.559 527.562 896.568 527.462 897.312C526.978 900.908 526.821 905.286 525.742 908.735L525.582 909.099L525.472 910.854C524.764 913.391 523.653 919.932 521.5 921.408C520.397 921.64 519.494 921.805 518.474 922.316L517.384 922.653C516.412 922.569 515.526 922.38 514.592 922.108C499.679 917.764 485.758 910.568 472.507 902.577C439.317 882.559 410.556 856.149 388.215 824.39C373.786 803.879 362.055 780.975 349.882 759.049L347.986 754.5L347.351 754.273C345.297 753.811 342.918 754.002 340.81 753.974Z"/>
	<path fill="#391A02" d="M404.712 773.598C393.849 759.59 385.273 744.098 379.321 727.391C379.009 726.515 378.199 724.763 378.194 723.851C378.187 722.796 379.035 720.854 379.343 719.794C380.631 715.363 382.187 711.094 384.209 706.942C389.029 697.047 396.167 688.575 404.488 681.418C407.268 679.027 410.038 676.525 413.307 674.828C409.388 679.293 405.219 684.21 402.485 689.5L402.103 690.229C400.74 692.868 399.951 695.342 399.417 698.25L399.292 698.876C398.529 702.937 398.794 707.46 398.899 711.596C399.388 730.994 403.788 748.605 411.12 766.494C412.857 770.733 414.527 775.448 417.061 779.28L417.185 779.434C427.315 798.214 441.523 816.416 456.025 832L455.75 832.55C444.221 821.247 432.559 810.163 422.278 797.661C415.959 789.976 410.48 781.691 404.712 773.598Z"/>
	<path fill="#391A02" d="M450.56 662.596L470.922 673.114C469.719 676.224 470.674 680.324 470.945 683.629C472.29 700.008 471.907 717.69 468.818 733.84C462.249 734.603 455.923 736.841 449.555 738.519C444.844 739.76 438.139 740.645 434.228 743.667C428.765 728.674 424.982 713.713 422.77 697.899C424.001 694.588 426.126 691.628 428.028 688.669C432.28 682.054 437.116 675.489 442.578 669.831C445.025 667.297 447.97 665.032 450.56 662.596Z"/>
	<path fill="#835723" d="M394.743 800.752L370.007 762.5L370.25 761.889L396.02 792.962L404.712 773.598C410.48 781.691 415.959 789.976 422.278 797.661C432.559 810.163 444.221 821.247 455.75 832.55L456.025 832C441.523 816.416 427.315 798.214 417.185 779.434C423.58 777.645 433.216 779.879 439.842 780.765C443.439 781.245 447.308 781.437 450.823 782.296C454.16 788.947 457.503 795.472 461.75 801.599L462.717 801.917L463.492 802.605L509.253 868.675L522.337 886.24C523.604 887.895 527.494 892.028 527.912 893.905C528.057 894.559 527.562 896.568 527.462 897.312C526.978 900.908 526.821 905.286 525.742 908.735L525.582 909.099L524.963 909.75C524.241 913.141 522.797 916.406 521.844 919.752C507.166 915.39 493.28 907.458 480.255 899.522C469.352 892.879 458.451 886.227 448.256 878.517C431.95 866.184 417.562 851.781 404.321 836.25C398.022 828.861 390.939 820.213 386.199 811.721L394.743 800.752Z"/>
	<path fill="#391A02" d="M394.743 800.752L370.007 762.5L370.25 761.889L396.02 792.962L470.233 860.25C468.942 860.522 467.088 858.881 465.935 858.124C454.78 850.8 443.119 843.755 432.421 835.778C423.771 829.328 415.987 822.311 408.192 814.861C403.532 810.408 398.59 805.941 394.743 800.752Z"/>
</svg>
