<?xml version="1.0" encoding="utf-8" ?>
<svg xmlns="http://www.w3.org/2000/svg" xmlns:xlink="http://www.w3.org/1999/xlink" width="1024" height="1024">
	<path fill="#FEDA38" d="M236.807 597.374C239.99 600.191 241.826 608.78 243.22 612.849C245.526 619.583 247.896 626.206 250.95 632.645C253.737 638.52 257.03 644.186 259.705 650.103C253.293 656.369 244.667 660.765 237.096 665.522L205.67 685.558C182.629 700.385 160.265 716.372 137.105 730.976C134.989 732.31 133.102 733.621 130.571 733.923C134.777 727.407 140.034 721.293 144.862 715.211L171.197 682.077L206.763 636.288C216.695 623.274 226.36 609.982 236.807 597.374Z"/>
	<path fill="#FE9F22" d="M723.364 317.399L888.644 287.211L888.79 288.296C883.231 293.62 871 299.434 864.135 303.478C836.74 319.618 809.004 335.078 781.961 351.821C774.578 356.391 765.392 360.651 758.986 366.494C748.214 349.269 736.963 332.545 723.364 317.399Z"/>
	<path fill="#FEB72D" d="M286.6 125.137L372.08 192.046C390.754 206.57 409.801 220.634 427.751 236.06C408.618 243.329 390.147 250.029 372.353 260.311C365.627 252.527 355.784 234.761 349.819 225.277C332.9 198.376 316.273 171.17 298.849 144.6C294.974 138.69 288.364 132.005 286.6 125.137Z"/>
	<path fill="#FE9F22" d="M368.538 761.122C384.096 769.387 399.334 776.267 415.866 782.297C419.612 783.664 423.721 785.608 427.613 786.416C382.648 822.744 336.61 857.765 292.242 894.835C292.476 892.794 293.285 891.245 294.259 889.476C299.035 880.798 304.407 872.41 309.403 863.851L338.264 813.732Q346.08 800.222 353.706 786.605C358.468 778.009 363.012 769.264 368.538 761.122Z"/>
	<path fill="#FEB72D" d="M129.341 286.464C153.09 291.716 177.07 295.482 201.002 299.758Q249.38 308.414 297.598 317.914C293.619 325.762 285.939 332.058 280.817 339.212C273.79 349.026 268.034 359.569 261.213 369.443C253.744 365.405 246.64 360.517 239.448 355.992L203.8 333.742C179.949 318.931 155.176 304.905 132.038 289.022C130.918 288.253 130.145 287.555 129.341 286.464Z"/>
	<path fill="#FEDA38" d="M510.754 61.6195C513.05 66.8426 512.026 75.1222 511.941 80.7457C511.105 86.4587 511.465 92.5869 511.469 98.3596L511.514 127.825L511.629 223.467C499.031 221.692 482.567 224.33 469.956 226.463C464.115 227.451 458.334 228.788 452.407 229.061C452.032 229.078 451.658 229.108 451.283 229.129C454 222.658 455.947 215.727 458.19 209.07L470.395 173.469Q489.96 117.322 510.754 61.6195Z"/>
	<path fill="#FE9F22" d="M451.765 793.147C459.119 794.281 466.455 795.782 473.826 796.751C486.402 798.402 499.306 799.035 511.987 799.041C510.152 813.226 511.317 828.004 511.371 842.301L511.55 917.762C511.598 928.038 512.318 938.4 512.023 948.661C511.933 951.806 512.101 959.552 510.295 962.071C507.273 955.306 505.003 947.984 502.612 940.966Q497.406 925.538 492 910.179Q471.268 851.874 451.765 793.147Z"/>
	<path fill="#FEDA38" d="M121.493 284.556L129.341 286.464C130.145 287.555 130.918 288.253 132.038 289.022C155.176 304.905 179.949 318.931 203.8 333.742L239.448 355.992C246.64 360.517 253.744 365.405 261.213 369.443C256.812 378.809 251.577 387.729 247.675 397.337C243.831 406.8 241.322 416.901 237.054 426.156C219.915 406.223 203.834 385.15 187.316 364.678L121.493 284.556Z"/>
	<path fill="#FEB72D" d="M318.619 724.488C328.325 732.259 337.754 740.655 347.907 747.827C354.577 752.539 362.042 756.213 368.538 761.122C363.012 769.264 358.468 778.009 353.706 786.605Q346.08 800.222 338.264 813.732L309.403 863.851C304.407 872.41 299.035 880.798 294.259 889.476C293.285 891.245 292.476 892.794 292.242 894.835C289.755 896.86 287.134 898.738 284.564 900.658C286.063 894.822 286.881 888.838 287.999 882.922L294.052 851.81L318.619 724.488Z"/>
	<path fill="#FB771A" d="M511.987 799.041C518.425 798.981 524.918 799.236 531.342 798.781C545.566 797.774 559.796 794.66 573.811 792.123C563.632 819.11 554.732 846.668 545.004 873.835C533.845 904.997 521.699 936.145 512.575 967.961C511.807 966.02 510.91 964.062 510.295 962.071C512.101 959.552 511.933 951.806 512.023 948.661C512.318 938.4 511.598 928.038 511.55 917.762L511.371 842.301C511.317 828.004 510.152 813.226 511.987 799.041Z"/>
	<path fill="#FEDA38" d="M318.832 297.07C311.596 254.65 302.554 212.329 293.897 170.172Q291.194 157.021 288.284 143.914C286.923 137.788 284.353 130.459 284.504 124.226L285.034 123.86L286.6 125.137C288.364 132.005 294.974 138.69 298.849 144.6C316.273 171.17 332.9 198.376 349.819 225.277C355.784 234.761 365.627 252.527 372.353 260.311C360.734 267.074 349.096 274.136 338.249 282.1C331.681 286.923 325.631 292.603 318.832 297.07Z"/>
	<path fill="#FE9F22" d="M510.754 61.6195L512.414 57.4089C518.55 71.097 523.375 85.3377 528.375 99.4693L547.625 153.996L565.791 206.05C568.504 213.93 571.942 222.104 574.01 230.155C569.64 229.721 565.25 228.529 560.921 227.746Q552.302 226.275 543.607 225.363C533.186 224.229 522.324 224.866 512.077 223.014L512.044 130.498C512.045 113.956 512.519 97.2735 511.941 80.7457C512.026 75.1222 513.05 66.8426 510.754 61.6195Z"/>
	<path fill="#FB771A" d="M888.644 287.211Q894.624 285.835 900.59 284.396C888.783 297.824 877.995 311.936 866.756 325.823Q845.427 351.692 824.74 378.076C811.82 394.831 799.524 412.804 785.377 428.522C784.636 424.746 782.965 420.771 781.765 417.104C775.846 399.023 767.865 383.254 758.986 366.494C765.392 360.651 774.578 356.391 781.961 351.821C809.004 335.078 836.74 319.618 864.135 303.478C871 299.434 883.231 293.62 888.79 288.296L888.644 287.211Z"/>
	<path fill="#FEB72D" d="M259.705 650.103C267.965 663.693 276.259 677.014 286.056 689.567C291.283 696.264 297.125 702.451 302.553 708.981C271.949 713.264 241.496 719.157 211.05 724.455C183.002 729.337 154.836 733.619 126.832 738.74C127.947 737.142 129.056 735.155 130.571 733.923C133.102 733.621 134.989 732.31 137.105 730.976C160.265 716.372 182.629 700.385 205.67 685.558L237.096 665.522C244.667 660.765 253.293 656.369 259.705 650.103Z"/>
	<path fill="#FB771A" d="M791.949 452.162C827.556 464.673 863.495 476.343 899.277 488.351C921.048 495.657 942.701 503.8 964.726 510.285C962.048 511.327 959.357 512.526 956.574 513.25C942.026 519.555 926.483 524.226 911.61 529.797C871.715 544.74 831.563 559.223 791.907 574.772C792.769 566.986 794.987 559.44 796.049 551.695C797.953 537.801 798.051 523.989 797.997 510.007C798.18 490.308 794.768 471.572 791.949 452.162Z"/>
	<path fill="#FB771A" d="M785.445 598.969C794.348 609.203 802.752 619.926 811.369 630.402C841.372 666.876 870.862 704.256 903.045 738.814L775.15 716.67C757.531 713.598 739.737 710.93 722.2 707.455C728.168 702.065 733.456 695.357 738.441 689.059C759.93 661.912 775.137 631.944 785.445 598.969Z"/>
	<defs>
		<linearGradient id="gradient_0" gradientUnits="userSpaceOnUse" x1="143.18498" y1="556.70514" x2="164.86061" y2="439.62552">
			<stop offset="0" stop-color="#FEB626"/>
			<stop offset="1" stop-color="#FFDC45"/>
		</linearGradient>
	</defs>
	<path fill="url(#gradient_0)" d="M59.5666 510.511C116.111 488.915 173.783 470.258 230.881 450.206C227.296 476.962 223.284 503.53 225.195 530.643C226.243 545.518 229.329 559.846 231.051 574.575C224.599 572.462 218.205 569.757 211.834 567.387L167.952 550.868L59.5666 510.511Z"/>
	<path fill="#FB771A" d="M706.721 723.11C710.381 740.542 712.888 758.196 715.87 775.753L728.643 848.097C731.758 865.728 734.333 884.045 739.022 901.315C725.808 888.973 711.205 877.913 696.988 866.75L623.473 809.161C613.758 801.503 603.61 794.319 594.206 786.288C599.329 785.203 604.559 782.821 609.493 781.003C641.788 769.105 682.48 747.94 706.721 723.11Z"/>
	<path fill="#FCE299" d="M451.283 229.129C451.658 229.108 452.032 229.078 452.407 229.061C458.334 228.788 464.115 227.451 469.956 226.463C482.567 224.33 499.031 221.692 511.629 223.467L511.887 261.991C478.586 262.166 446.873 269.109 416.03 281.366C403.399 285.264 390.915 292.871 379.894 300.054C342.417 324.483 310.983 355.905 289.976 395.708C276.041 422.113 260.546 470.382 262.481 500.086C262.401 512.645 262.362 525.175 263.546 537.692Q263.769 540.296 264.048 542.894Q264.328 545.492 264.664 548.083Q265.001 550.674 265.394 553.258Q265.787 555.841 266.236 558.415Q266.685 560.99 267.19 563.553Q267.696 566.117 268.257 568.669Q268.818 571.221 269.435 573.76Q270.052 576.3 270.724 578.825Q271.396 581.35 272.124 583.86Q272.851 586.37 273.633 588.863Q274.415 591.356 275.251 593.832Q276.087 596.308 276.977 598.764Q277.867 601.221 278.811 603.658Q279.754 606.095 280.751 608.51Q281.747 610.926 282.796 613.319Q283.845 615.712 284.946 618.082Q286.048 620.452 287.2 622.797Q288.353 625.142 289.556 627.461Q290.76 629.781 292.014 632.073Q293.268 634.366 294.572 636.631Q295.876 638.895 297.228 641.131Q298.581 643.366 299.983 645.572Q301.384 647.777 302.834 649.951Q304.283 652.126 305.779 654.268Q307.276 656.41 308.819 658.519Q310.362 660.628 311.95 662.703Q313.539 664.777 315.172 666.817Q316.806 668.856 318.484 670.86Q320.162 672.863 321.883 674.829Q323.604 676.795 325.367 678.723Q327.131 680.651 328.936 682.541Q330.742 684.43 332.588 686.279Q334.363 688.067 336.173 689.82Q337.984 691.572 339.829 693.288Q341.674 695.004 343.554 696.682Q345.433 698.36 347.346 700.001Q349.258 701.641 351.204 703.242Q353.149 704.844 355.126 706.406Q357.103 707.968 359.111 709.49Q361.119 711.013 363.157 712.494Q365.195 713.976 367.262 715.416Q369.33 716.856 371.426 718.255Q373.522 719.653 375.645 721.009Q377.769 722.365 379.919 723.678Q382.07 724.992 384.246 726.261Q386.422 727.531 388.624 728.757Q390.825 729.983 393.051 731.164Q395.276 732.345 397.525 733.482Q399.774 734.618 402.045 735.709Q404.316 736.8 406.609 737.845Q408.902 738.891 411.215 739.89Q413.528 740.889 415.861 741.841Q418.194 742.793 420.545 743.699Q422.897 744.604 425.266 745.462Q427.635 746.32 430.021 747.13Q432.407 747.94 434.808 748.702Q437.21 749.464 439.626 750.177Q442.043 750.891 444.473 751.556Q446.904 752.221 449.347 752.837Q451.79 753.453 454.245 754.02Q456.7 754.587 459.166 755.105Q461.632 755.622 464.108 756.09Q466.584 756.558 469.069 756.976Q471.553 757.394 474.046 757.762C486.836 759.769 499.579 760.057 512.427 761.3C513.036 773.576 513.862 786.853 511.987 799.041C499.306 799.035 486.402 798.402 473.826 796.751C466.455 795.782 459.119 794.281 451.765 793.147C449.326 790.953 432.073 787.614 427.613 786.416C423.721 785.608 419.612 783.664 415.866 782.297C399.334 776.267 384.096 769.387 368.538 761.122C362.042 756.213 354.577 752.539 347.907 747.827C337.754 740.655 328.325 732.259 318.619 724.488C317.457 720.964 305.856 711.07 302.553 708.981C297.125 702.451 291.283 696.264 286.056 689.567C276.259 677.014 267.965 663.693 259.705 650.103C257.03 644.186 253.737 638.52 250.95 632.645C247.896 626.206 245.526 619.583 243.22 612.849C241.826 608.78 239.99 600.191 236.807 597.374C237.646 594.393 232.74 577.876 231.051 574.575C229.329 559.846 226.243 545.518 225.195 530.643C223.284 503.53 227.296 476.962 230.881 450.206C234.272 443.534 235.516 433.573 237.054 426.156C241.322 416.901 243.831 406.8 247.675 397.337C251.577 387.729 256.812 378.809 261.213 369.443C268.034 359.569 273.79 349.026 280.817 339.212C285.939 332.058 293.619 325.762 297.598 317.914L298.705 317.882C300.964 316.509 316.421 300.005 318.832 297.07C325.631 292.603 331.681 286.923 338.249 282.1C349.096 274.136 360.734 267.074 372.353 260.311C390.147 250.029 408.618 243.329 427.751 236.06C435.391 234.422 444.222 232.485 451.283 229.129Z"/>
	<path fill="#FEB72D" d="M511.629 223.467L511.514 127.825L511.469 98.3596C511.465 92.5869 511.105 86.4587 511.941 80.7457C512.519 97.2735 512.045 113.956 512.044 130.498L512.077 223.014C522.324 224.866 533.186 224.229 543.607 225.363Q552.302 226.275 560.921 227.746C565.25 228.529 569.64 229.721 574.01 230.155C576.042 232.5 591.651 235.387 595.567 236.321C618.38 217.664 641.995 199.938 665.145 181.699C687.223 164.305 708.818 146.377 731.403 129.625C733.826 127.371 736.514 125.468 739.177 123.512C732.59 157.93 727 192.47 720.639 226.916C716.074 251.643 710.227 276.513 707.3 301.486C708.55 303.519 721.255 316.409 723.364 317.399C736.963 332.545 748.214 349.269 758.986 366.494C767.865 383.254 775.846 399.023 781.765 417.104C782.965 420.771 784.636 424.746 785.377 428.522C785.955 432.726 789.309 449.721 791.949 452.162C794.768 471.572 798.18 490.308 797.997 510.007C798.051 523.989 797.953 537.801 796.049 551.695C794.987 559.44 792.769 566.986 791.907 574.772C789.422 578.493 785.436 594.382 785.445 598.969C775.137 631.944 759.93 661.912 738.441 689.059C733.456 695.357 728.168 702.065 722.2 707.455C718.967 710.638 707.975 719.74 706.721 723.11C682.48 747.94 641.788 769.105 609.493 781.003C604.559 782.821 599.329 785.203 594.206 786.288C589.332 787.707 577.527 789.995 573.811 792.123C559.796 794.66 545.566 797.774 531.342 798.781C524.918 799.236 518.425 798.981 511.987 799.041C513.862 786.853 513.036 773.576 512.427 761.3C499.579 760.057 486.836 759.769 474.046 757.762Q471.553 757.394 469.069 756.976Q466.584 756.558 464.108 756.09Q461.632 755.622 459.166 755.105Q456.7 754.587 454.245 754.02Q451.79 753.453 449.347 752.837Q446.904 752.221 444.473 751.556Q442.043 750.891 439.626 750.178Q437.21 749.464 434.808 748.702Q432.407 747.94 430.021 747.13Q427.635 746.32 425.266 745.462Q422.897 744.604 420.545 743.699Q418.194 742.793 415.861 741.841Q413.528 740.889 411.215 739.89Q408.902 738.891 406.609 737.846Q404.316 736.8 402.045 735.709Q399.774 734.618 397.525 733.482Q395.276 732.346 393.051 731.164Q390.825 729.983 388.624 728.757Q386.422 727.531 384.246 726.261Q382.07 724.992 379.919 723.678Q377.769 722.365 375.645 721.009Q373.522 719.653 371.426 718.255Q369.33 716.856 367.262 715.416Q365.195 713.976 363.157 712.494Q361.119 711.013 359.111 709.49Q357.103 707.968 355.126 706.406Q353.149 704.844 351.203 703.242Q349.258 701.641 347.346 700.001Q345.433 698.36 343.554 696.682Q341.674 695.004 339.829 693.288Q337.984 691.572 336.173 689.82Q334.363 688.067 332.588 686.279Q330.742 684.43 328.936 682.541Q327.131 680.651 325.367 678.723Q323.604 676.795 321.883 674.829Q320.162 672.863 318.484 670.86Q316.806 668.856 315.173 666.817Q313.539 664.777 311.95 662.703Q310.362 660.628 308.819 658.519Q307.276 656.41 305.779 654.268Q304.283 652.126 302.834 649.951Q301.384 647.777 299.983 645.572Q298.581 643.366 297.229 641.131Q295.876 638.895 294.572 636.631Q293.268 634.366 292.014 632.073Q290.76 629.781 289.556 627.461Q288.353 625.142 287.2 622.797Q286.048 620.452 284.947 618.082Q283.845 615.712 282.796 613.319Q281.747 610.926 280.751 608.51Q279.754 606.095 278.811 603.658Q277.867 601.221 276.977 598.764Q276.087 596.308 275.251 593.832Q274.415 591.356 273.633 588.863Q272.851 586.37 272.124 583.86Q271.396 581.35 270.724 578.825Q270.052 576.3 269.435 573.76Q268.818 571.221 268.257 568.669Q267.696 566.117 267.19 563.553Q266.685 560.99 266.236 558.415Q265.787 555.841 265.394 553.258Q265.001 550.674 264.664 548.083Q264.328 545.492 264.048 542.894Q263.769 540.296 263.546 537.692C262.362 525.175 262.401 512.645 262.481 500.086C260.546 470.382 276.041 422.113 289.976 395.708C310.983 355.905 342.417 324.483 379.894 300.054C390.915 292.871 403.399 285.264 416.03 281.366C446.873 269.109 478.586 262.166 511.887 261.991L511.629 223.467Z"/>
	<path fill="#FE9F22" d="M731.403 129.625C733.826 127.371 736.514 125.468 739.177 123.512C732.59 157.93 727 192.47 720.639 226.916C716.074 251.643 710.227 276.513 707.3 301.486C690.241 284.516 671.661 271.694 650.844 259.734C667.197 237.696 680.956 213.686 695.56 190.478C703.744 177.473 728.525 141.978 731.403 129.625Z"/>
	<path fill="#FEDA38" d="M262.481 500.086C260.546 470.382 276.041 422.113 289.976 395.708C310.983 355.905 342.417 324.483 379.894 300.054C390.915 292.871 403.399 285.264 416.03 281.366C421.255 286.402 425.485 292.852 429.326 298.993C444.59 323.4 454.883 352.438 455.427 381.407C456.073 415.737 444.659 449.878 420.463 474.716C395.336 500.51 362.988 513.985 326.964 514.256C311.599 514.371 295.69 511.273 281.154 506.476C275.014 504.45 268.718 501.66 262.481 500.086Z"/>
	<path fill="#FB771A" d="M511.834 262.044L512.834 262.033C522.949 261.966 532.97 263.093 542.981 264.408Q545.499 264.725 548.009 265.094Q550.519 265.462 553.022 265.883Q555.524 266.303 558.017 266.775Q560.51 267.247 562.993 267.771Q565.475 268.294 567.947 268.869Q570.418 269.443 572.877 270.069Q575.336 270.694 577.782 271.37Q580.227 272.046 582.658 272.772Q585.09 273.499 587.505 274.275Q589.921 275.052 592.32 275.878Q594.719 276.704 597.101 277.579Q599.482 278.455 601.845 279.379Q604.208 280.303 606.551 281.276Q608.895 282.249 611.217 283.271Q613.54 284.292 615.841 285.361Q618.143 286.429 620.421 287.545Q622.7 288.662 624.955 289.825Q627.21 290.987 629.441 292.197Q631.672 293.406 633.877 294.661Q636.082 295.916 638.261 297.216Q640.44 298.516 642.591 299.861Q644.743 301.206 646.866 302.595Q648.989 303.984 651.084 305.417Q653.178 306.85 655.242 308.325Q657.306 309.801 659.339 311.318Q661.373 312.836 663.374 314.396Q665.376 315.955 667.345 317.556Q669.314 319.156 671.249 320.797Q673.184 322.438 675.086 324.118Q676.987 325.798 678.853 327.517Q680.719 329.237 682.549 330.994Q684.38 332.751 686.173 334.546Q688.348 336.709 690.47 338.926Q692.592 341.142 694.658 343.409Q696.725 345.677 698.736 347.994Q700.746 350.311 702.699 352.677Q704.652 355.044 706.547 357.457Q708.442 359.87 710.276 362.329Q712.111 364.787 713.885 367.291Q715.66 369.794 717.372 372.339Q719.084 374.885 720.733 377.472Q722.383 380.059 723.968 382.686Q725.553 385.312 727.074 387.977Q728.594 390.642 730.049 393.343Q731.504 396.044 732.892 398.78Q734.281 401.516 735.601 404.285Q736.922 407.055 738.174 409.855Q739.427 412.656 740.61 415.487Q741.794 418.317 742.908 421.176Q744.021 424.035 745.065 426.92Q746.108 429.805 747.08 432.715Q748.053 435.625 748.953 438.557Q749.854 441.49 750.683 444.444Q751.511 447.398 752.267 450.372Q753.023 453.345 753.706 456.336Q754.389 459.327 754.999 462.334Q755.608 465.341 756.144 468.362Q756.679 471.383 757.14 474.416Q757.602 477.449 757.989 480.493Q758.375 483.536 758.688 486.588Q759 489.64 759.237 492.699Q759.474 495.758 759.637 498.822Q759.799 501.885 759.886 504.952Q759.973 508.019 759.985 511.087Q760.011 514.169 759.961 517.251Q759.911 520.333 759.784 523.413Q759.657 526.493 759.455 529.569Q759.252 532.645 758.973 535.715Q758.694 538.785 758.339 541.847Q757.984 544.909 757.553 547.961Q757.123 551.013 756.617 554.054Q756.111 557.094 755.529 560.122Q754.948 563.149 754.292 566.161Q753.636 569.172 752.906 572.167Q752.176 575.162 751.371 578.138Q750.567 581.113 749.689 584.068Q748.811 587.023 747.861 589.955Q746.91 592.887 745.887 595.795Q744.864 598.703 743.769 601.584Q742.675 604.466 741.509 607.32Q740.343 610.173 739.107 612.997Q737.871 615.821 736.565 618.613Q735.26 621.405 733.886 624.165Q732.511 626.924 731.069 629.648Q729.627 632.372 728.117 635.06Q726.608 637.748 725.033 640.397Q723.458 643.047 721.817 645.656Q720.177 648.266 718.472 650.834Q716.767 653.403 715 655.928Q713.232 658.453 711.402 660.934Q709.573 663.415 707.682 665.849Q705.791 668.284 703.841 670.671Q701.891 673.058 699.882 675.396Q697.873 677.734 695.807 680.022Q693.741 682.309 691.619 684.545Q689.497 686.781 687.32 688.963L687.198 689.087Q685.061 691.24 682.871 693.338Q680.682 695.437 678.441 697.481Q676.199 699.525 673.908 701.512Q671.617 703.499 669.277 705.429Q666.937 707.359 664.549 709.23Q662.162 711.101 659.729 712.912Q657.296 714.723 654.818 716.473Q652.341 718.223 649.821 719.911Q647.301 721.599 644.74 723.223Q642.178 724.848 639.577 726.408Q636.977 727.969 634.338 729.464Q631.699 730.96 629.023 732.389Q626.348 733.818 623.638 735.18Q620.928 736.543 618.185 737.837Q615.442 739.132 612.668 740.358Q609.894 741.583 607.09 742.74Q604.286 743.897 601.454 744.983Q598.622 746.07 595.764 747.085Q592.906 748.101 590.024 749.045Q587.141 749.99 584.236 750.862Q581.332 751.734 578.406 752.534Q575.48 753.334 572.535 754.061Q569.591 754.788 566.629 755.442Q563.667 756.095 560.69 756.675Q557.712 757.254 554.722 757.76Q551.731 758.265 548.729 758.696Q545.726 759.127 542.714 759.483Q539.702 759.839 536.682 760.12Q533.662 760.401 530.636 760.607Q527.61 760.813 524.58 760.944Q521.549 761.075 518.517 761.13Q515.484 761.185 512.451 761.165C511.701 754.536 512.019 747.713 512.024 741.048L512.017 711.142L512.008 609.29L511.834 262.044Z"/>
</svg>
