<svg width="14" height="14" viewBox="0 0 14 14" fill="none" xmlns="http://www.w3.org/2000/svg">
<path fill-rule="evenodd" clip-rule="evenodd" d="M12.9299 4.08731L13.6693 4.82668C13.8827 5.04012 14 5.32348 14 5.62506C14 5.92664 13.8827 6.21073 13.6693 6.42344L11.7367 8.356L11.4934 8.1127C11.3186 7.93787 11.0345 7.93787 10.8597 8.1127C10.6848 8.28753 10.6848 8.57162 10.8597 8.74645L11.103 8.98975L6.42344 13.6693C6.21073 13.8827 5.92664 14 5.62506 14C5.32348 14 5.04012 13.8827 4.82668 13.6693L4.08731 12.9299C3.74858 12.5905 3.66335 12.0674 3.87606 11.6275C4.08367 11.1969 3.99625 10.6805 3.65753 10.3417C3.31953 10.0037 2.80233 9.91633 2.37255 10.1239C1.93257 10.3366 1.40881 10.2514 1.07009 9.91269L0.329986 9.17259C-0.109995 8.73261 -0.109995 8.01582 0.329986 7.57584L5.00952 2.8963L5.25355 3.14033C5.34096 3.22774 5.45606 3.27145 5.57043 3.27145C5.68479 3.27145 5.79989 3.22774 5.8873 3.14033C6.06213 2.96477 6.06213 2.68141 5.8873 2.50585L5.64327 2.26255L7.57584 0.329986C8.01655 -0.109995 8.73261 -0.109995 9.17259 0.329986L9.91269 1.07009C10.2514 1.40881 10.3366 1.93257 10.1239 2.37182C9.9156 2.80306 10.003 3.31953 10.3417 3.65825C10.6797 3.99625 11.1962 4.08367 11.6275 3.87533C12.0674 3.66335 12.5905 3.74785 12.9299 4.08731ZM7.11473 4.81576C7.22983 4.81576 7.34419 4.77205 7.4316 4.68464C7.60643 4.50981 7.60643 4.22571 7.4316 4.05089L6.85977 3.47906C6.68422 3.3035 6.40085 3.3035 6.22603 3.47906C6.05047 3.65388 6.05047 3.93725 6.22603 4.11281L6.79786 4.68464C6.88527 4.77205 6.99964 4.81576 7.11473 4.81576ZM8.65976 6.36079C8.77413 6.36079 8.8885 6.31708 8.97664 6.22894C9.15146 6.05411 9.15146 5.77075 8.97664 5.59519L8.40408 5.02336C8.22925 4.84854 7.94516 4.84854 7.77033 5.02336C7.5955 5.19819 7.5955 5.48228 7.77033 5.65711L8.34216 6.22894C8.4303 6.31708 8.5454 6.36079 8.65976 6.36079ZM10.2041 7.90509C10.3184 7.90509 10.4335 7.86139 10.5209 7.77397C10.6958 7.59915 10.6958 7.31505 10.5209 7.14023L9.94911 6.56767C9.77356 6.39284 9.49019 6.39284 9.31536 6.56767C9.13981 6.74322 9.13981 7.02659 9.31536 7.20214L9.88719 7.77397C9.97461 7.86139 10.0897 7.90509 10.2041 7.90509ZM6.33017 8.08025H6.77211L6.90157 8.20971C7.02361 8.33174 7.22149 8.33174 7.34352 8.20971C7.46555 8.08768 7.46555 7.8898 7.34352 7.76777C7.46555 7.64574 7.46555 7.44786 7.34352 7.32583C7.22149 7.20379 7.02361 7.20379 6.90157 7.32582L6.77211 7.45529H6.33017V7.01334L6.45963 6.88388C6.58166 6.76185 6.58166 6.56397 6.45963 6.44194C6.3376 6.31991 6.13972 6.31991 6.01769 6.44194C5.89566 6.31991 5.69778 6.31991 5.57575 6.44194C5.45372 6.56397 5.45372 6.76185 5.57575 6.88388L5.70521 7.01334V7.45529H5.26327L5.13381 7.32582C5.01178 7.20379 4.8139 7.20379 4.69186 7.32582C4.56983 7.44786 4.56983 7.64574 4.69186 7.76777C4.56983 7.8898 4.56983 8.08768 4.69186 8.20971C4.8139 8.33174 5.01178 8.33174 5.13381 8.20971L5.26327 8.08025H5.70521V8.52219L5.57575 8.65165C5.45372 8.77368 5.45372 8.97156 5.57575 9.09359C5.69778 9.21562 5.89566 9.21562 6.01769 9.09359C6.13972 9.21562 6.3376 9.21562 6.45963 9.09359C6.58166 8.97156 6.58166 8.77368 6.45963 8.65165L6.33017 8.52219V8.08025Z" fill="#F87C56"/>
</svg>
