<?xml version="1.0" encoding="utf-8" ?>
<svg xmlns="http://www.w3.org/2000/svg" xmlns:xlink="http://www.w3.org/1999/xlink" width="1024" height="1024">
	<path fill="#F5BA66" d="M176.107 665.763C187.097 671.565 193.79 678.252 198.875 689.62C193.911 690.53 184.247 691.15 179.424 690.227C177.217 689.805 175.235 688.833 174.056 686.839C170.826 681.377 174.593 671.494 176.107 665.763Z"/>
	<path fill="#F5BA66" d="M180.818 793.53C192.316 799.776 198.479 807.805 203.052 819.889C197.526 818.488 191.125 816.725 185.39 817.64C182.187 818.151 178.939 819.09 175.701 819.278C173.502 819.405 171.294 819.022 169.695 817.396C167.936 815.607 167.685 812.34 167.896 809.991C168.558 802.612 175.496 797.785 180.818 793.53Z"/>
	<path fill="#F5BA66" d="M871.356 775.861C876.355 775.311 880.98 774.919 885.147 778.34C886.432 779.395 887.469 780.63 888.476 781.943C888.676 787.194 889.935 812.173 887.314 815.205C881.823 821.556 859.082 812.81 841.18 832.88Q840.534 833.608 839.916 834.361Q839.299 835.114 838.712 835.891Q838.125 836.668 837.569 837.467Q837.013 838.266 836.489 839.087Q835.965 839.908 835.473 840.748Q834.982 841.589 834.524 842.448Q834.066 843.307 833.642 844.184Q833.219 845.061 832.83 845.953Q832.441 846.846 832.088 847.753Q831.734 848.661 831.417 849.581Q831.099 850.502 830.818 851.434Q830.538 852.366 830.294 853.309Q830.05 854.251 829.843 855.203Q829.636 856.154 829.467 857.113Q829.298 858.072 829.167 859.037Q829.036 860.002 828.943 860.971C828.659 863.939 828.967 867.572 828.09 870.399C827.481 872.364 826.181 873.832 824.21 874.478C817.629 876.636 792.528 875.367 784.256 875.327L730.308 875.222L437.718 875.245L317.16 875.326C293.993 875.411 269.292 876.545 246.29 875.062C243.983 874.913 241.477 874.377 239.951 872.486C236.532 868.249 238.098 853.214 237.996 847.529C246.791 847.298 255.62 848.009 264.426 847.9Q328.316 847.072 392.21 847.449L699.19 847.459C709.747 847.459 805.527 848.43 809.589 846.863C817.092 843.969 815.419 826.72 816.996 819.966Q817.51 817.804 818.247 815.707Q818.984 813.611 819.937 811.603Q820.889 809.595 822.046 807.698Q823.203 805.8 824.552 804.034C840.081 783.766 861.809 793.126 868.89 786.027C871.801 783.108 871.478 779.658 871.356 775.861Z"/>
	<path fill="#F5BA66" d="M658.335 225.509C683.31 196.481 724.97 181.244 762.447 178.395C807.442 174.976 853.872 189.294 888.188 218.82C919.716 245.946 939.758 283.293 942.839 325.071C946.555 375.436 926.226 429.219 893.474 467.225C885.68 476.27 876.511 485.528 866.863 492.563C846.953 458.291 825.058 425.14 804.646 391.147C798.034 383.047 792.595 372.805 787.509 363.664C791.017 361.658 794.633 359.823 798.206 357.935C794.278 350.912 789.965 344.078 785.776 337.206C780.391 330.383 776.194 322.227 771.599 314.837C769.271 316.875 766.762 318.922 764.076 320.472C754.532 325.979 744.502 325.12 734.287 322.377C731.481 317.047 727.533 316.323 724.574 308.93C722.051 302.625 721.274 295.617 724.198 289.285C727.539 282.048 734.183 279.1 741.178 276.423C733.831 262.973 725.743 249.981 717.667 236.962L710.601 237.003C705.579 228.4 700.892 219.569 696.035 210.87C682.684 220.712 675.456 225.513 658.335 225.509Z"/>
	<path fill="#FEFEFE" d="M779.524 198.159C780.057 198.323 780.537 198.44 781.022 198.751C784.378 200.91 785.552 208.677 786.534 212.331C789.927 213.58 798.706 215.306 800.301 218.363C799.025 222.775 790.339 222.678 787.128 225.625C784.904 227.668 783.044 236.754 781.092 240.164C780.336 240.052 780.281 240.115 779.61 239.736C775.772 237.563 774.231 229.226 773.02 225.189C769.032 224.182 763.628 223.429 761.271 219.705C761.165 218.415 761.049 218.005 761.902 216.916C764.168 214.023 770.371 213.416 773.811 212.71C775.272 207.47 776.757 202.866 779.524 198.159Z"/>
	<path fill="#FEFEFE" d="M869.323 384.791C878.533 387.488 873.493 393.212 878.536 398.202C882.014 401.645 888.485 400.315 891.547 404.55C891.782 405.784 892.072 406.45 891.279 407.571C889.266 410.419 881.818 411.079 878.463 411.725C876.376 416.492 875.401 421.727 873.463 426.589C864.832 426.55 869.44 418.16 865.801 413.674C862.78 409.949 855.388 410.884 851.796 407.491C850.951 406.693 851.027 406.372 850.951 405.276C852.831 401.702 859.02 401.438 862.467 399.753C866.819 397.626 867.867 389.084 869.323 384.791Z"/>
	<path fill="#CB8056" d="M785.776 337.206L793.783 336.37Q802.44 351.262 811.615 365.841C815.517 372.114 820.043 378.478 823.08 385.2C817.06 386.549 809.779 387.541 804.646 391.147C798.034 383.047 792.595 372.805 787.509 363.664C791.017 361.658 794.633 359.823 798.206 357.935C794.278 350.912 789.965 344.078 785.776 337.206Z"/>
	<path fill="#FEFEFE" d="M854.797 251.674C863.624 250.469 873.811 253.224 880.979 258.443Q881.783 259.024 882.557 259.644Q883.331 260.264 884.073 260.923Q884.814 261.581 885.522 262.277Q886.229 262.972 886.901 263.702Q887.573 264.432 888.206 265.195Q888.84 265.958 889.435 266.752Q890.029 267.546 890.583 268.368Q891.137 269.191 891.649 270.041Q892.16 270.891 892.628 271.765Q893.096 272.64 893.52 273.537Q893.943 274.434 894.321 275.351Q894.698 276.268 895.029 277.203Q895.36 278.138 895.643 279.089Q895.926 280.04 896.161 281.003Q896.396 281.967 896.582 282.941Q896.768 283.916 896.905 284.898Q897.046 285.865 897.14 286.837Q897.233 287.81 897.278 288.786Q897.322 289.762 897.319 290.739Q897.315 291.716 897.263 292.692Q897.211 293.668 897.11 294.64Q897.01 295.612 896.861 296.577Q896.713 297.543 896.516 298.5Q896.32 299.458 896.076 300.404Q895.833 301.35 895.543 302.283Q895.252 303.216 894.916 304.134Q894.58 305.051 894.199 305.951Q893.818 306.85 893.392 307.73Q892.967 308.61 892.498 309.467Q892.03 310.325 891.519 311.158Q891.009 311.991 890.458 312.798Q889.907 313.605 889.316 314.383C882.655 323.231 873.226 327.178 862.527 328.734C852.81 329.979 843.107 327.603 835.268 321.682Q834.487 321.092 833.735 320.464Q832.984 319.836 832.265 319.171Q831.545 318.507 830.859 317.808Q830.174 317.109 829.523 316.377Q828.873 315.645 828.259 314.881Q827.646 314.118 827.071 313.326Q826.496 312.533 825.961 311.713Q825.425 310.893 824.931 310.047Q824.437 309.202 823.985 308.333Q823.533 307.464 823.125 306.574Q822.717 305.684 822.353 304.775Q821.989 303.866 821.67 302.94Q821.351 302.014 821.079 301.074Q820.806 300.133 820.581 299.18Q820.355 298.227 820.176 297.264Q819.998 296.302 819.867 295.331Q819.741 294.383 819.662 293.429Q819.583 292.476 819.55 291.52Q819.518 290.564 819.533 289.607Q819.548 288.651 819.61 287.696Q819.672 286.741 819.78 285.791Q819.889 284.841 820.044 283.897Q820.2 282.953 820.402 282.018Q820.603 281.082 820.851 280.158Q821.098 279.234 821.391 278.323Q821.683 277.413 822.02 276.517Q822.357 275.622 822.738 274.744Q823.119 273.867 823.542 273.009Q823.966 272.151 824.431 271.315Q824.896 270.479 825.401 269.667Q825.907 268.855 826.452 268.069Q826.997 267.282 827.58 266.524C834.343 257.661 843.93 253.133 854.797 251.674Z"/>
	<path fill="#CB8056" d="M120.384 465.033C118.501 452.084 115.51 439.482 114.318 426.399Q114.033 423.311 113.825 420.217Q113.617 417.123 113.486 414.025Q113.355 410.927 113.301 407.826Q113.247 404.726 113.27 401.625Q113.293 398.524 113.393 395.424Q113.493 392.325 113.67 389.229Q113.847 386.133 114.101 383.042Q114.355 379.952 114.686 376.869Q115.016 373.785 115.423 370.711Q115.83 367.637 116.313 364.574Q116.796 361.511 117.356 358.461Q117.915 355.41 118.549 352.375Q119.184 349.34 119.894 346.321Q120.604 343.302 121.389 340.302Q122.173 337.302 123.032 334.323Q123.891 331.343 124.824 328.386Q125.757 325.428 126.763 322.495Q127.768 319.562 128.847 316.654Q129.925 313.747 131.076 310.867Q132.226 307.987 133.447 305.137Q134.669 302.287 135.961 299.468Q137.253 296.648 138.614 293.862Q139.976 291.076 141.406 288.325Q142.836 285.573 144.335 282.858Q145.833 280.143 147.398 277.466Q148.963 274.789 150.594 272.152Q152.225 269.515 153.922 266.919Q155.618 264.323 157.378 261.77Q159.138 259.217 160.961 256.708Q162.784 254.2 164.669 251.737Q166.554 249.275 168.499 246.86Q170.444 244.445 172.449 242.079Q174.503 239.599 176.617 237.17Q178.731 234.741 180.905 232.366Q183.079 229.99 185.311 227.669Q187.543 225.348 189.832 223.083Q192.122 220.819 194.466 218.611Q196.811 216.404 199.209 214.255Q201.608 212.107 204.059 210.018Q206.51 207.93 209.012 205.903Q211.514 203.876 214.065 201.911Q216.617 199.947 219.216 198.046Q221.816 196.146 224.462 194.311Q227.108 192.475 229.798 190.706Q232.489 188.937 235.222 187.235Q237.956 185.533 240.731 183.899Q243.506 182.265 246.32 180.701Q249.135 179.136 251.987 177.642Q254.84 176.148 257.729 174.725Q260.617 173.302 263.54 171.951Q266.463 170.6 269.419 169.322Q272.375 168.044 275.361 166.84Q278.348 165.636 281.363 164.506Q284.378 163.376 287.421 162.321Q290.463 161.267 293.531 160.288Q296.599 159.309 299.69 158.406Q302.781 157.503 305.893 156.678Q309.006 155.852 312.138 155.104Q315.27 154.356 318.419 153.685Q321.569 153.015 324.734 152.423Q327.899 151.831 331.078 151.317Q334.257 150.804 337.448 150.369Q340.639 149.935 343.839 149.58Q347.04 149.225 350.248 148.949Q352.811 148.746 355.377 148.594Q357.943 148.441 360.512 148.339Q363.081 148.237 365.651 148.185Q368.221 148.133 370.792 148.131Q373.363 148.129 375.933 148.178Q378.503 148.227 381.072 148.325Q383.641 148.424 386.207 148.573Q388.774 148.722 391.337 148.922Q393.9 149.121 396.458 149.37Q399.017 149.619 401.57 149.919Q404.124 150.218 406.671 150.567Q409.218 150.916 411.757 151.315Q414.297 151.714 416.828 152.163Q419.359 152.611 421.882 153.109Q424.404 153.607 426.915 154.154Q429.427 154.702 431.928 155.298Q434.429 155.894 436.917 156.539Q439.406 157.184 441.881 157.877Q444.357 158.571 446.818 159.313Q449.279 160.055 451.726 160.845Q454.172 161.634 456.603 162.472Q459.033 163.309 461.447 164.194Q463.86 165.079 466.256 166.011Q468.652 166.943 471.029 167.922Q473.407 168.9 475.764 169.925Q478.122 170.95 480.459 172.021Q482.796 173.092 485.112 174.208Q487.428 175.325 489.721 176.486Q492.014 177.647 494.285 178.853Q496.555 180.06 498.801 181.31Q501.048 182.56 503.269 183.854Q505.49 185.148 507.686 186.485C522.153 195.317 535.538 205.73 548.506 216.617C541.916 220.952 534.85 224.612 527.959 228.444L493.833 247.441L407.436 297.01C355.076 326.905 303.301 357.943 251.262 388.404C207.663 413.925 163.568 438.831 120.384 465.033Z"/>
	<path fill="#FEFEFE" d="M435.787 194.756C438.258 197.021 439.659 203.063 441.043 206.257C444.875 215.097 453.208 216.325 461.377 219.581C457.884 220.263 454.521 221.144 451.18 222.381C439.019 226.884 441.35 234.561 436.811 244.079C436.685 244.343 436.551 244.604 436.421 244.866C435.177 240.507 434.051 235.757 431.941 231.733C427.539 223.339 418.778 221.556 410.48 218.999C414.853 217.603 419.672 216.387 423.71 214.19C431.409 210 433.403 202.502 435.787 194.756Z"/>
	<path fill="#FEFEFE" d="M225.355 288.538C230.405 288.347 236.132 288.442 240.329 291.654C243.143 293.806 244.486 297.044 244.88 300.493C246.156 311.681 237.512 321.396 230.957 329.475L245.873 329.498L245.876 337.013Q234.653 337.368 223.426 337.508L215.43 337.383C220.345 327.679 236.937 312.449 236.149 301.546C236.049 300.163 235.437 298.99 234.324 298.161C227.276 292.912 225.159 302.804 219.518 303.458C218.246 303.067 217.244 302.503 216.542 301.331C215.817 300.119 215.66 299.118 215.944 297.739C216.787 293.643 221.997 290.482 225.355 288.538Z"/>
	<path fill="#FEFEFE" d="M153.377 351.113C157.153 350.57 160.867 350.97 164.388 352.502C169.159 354.579 172.699 358.631 174.378 363.531Q174.534 363.977 174.668 364.429Q174.802 364.882 174.913 365.341Q175.024 365.8 175.112 366.264Q175.2 366.728 175.264 367.195Q175.329 367.663 175.37 368.134Q175.411 368.604 175.428 369.076Q175.446 369.548 175.439 370.02Q175.433 370.492 175.403 370.963Q175.373 371.434 175.32 371.903Q175.266 372.372 175.189 372.838Q175.113 373.304 175.012 373.766Q174.912 374.227 174.789 374.683Q174.666 375.139 174.52 375.588Q174.375 376.037 174.206 376.478Q174.038 376.919 173.848 377.352Q173.658 377.784 173.447 378.206C170.575 383.973 165.964 386.731 160.084 388.682C155.646 389.427 151.7 389.216 147.604 387.168Q146.783 386.756 146.007 386.265Q145.231 385.773 144.507 385.208Q143.783 384.643 143.119 384.009Q142.454 383.375 141.855 382.678Q141.257 381.982 140.729 381.23Q140.202 380.478 139.752 379.678Q139.301 378.877 138.932 378.036Q138.563 377.195 138.278 376.322Q138.125 375.849 137.995 375.369Q137.866 374.888 137.761 374.402Q137.657 373.916 137.577 373.425Q137.497 372.934 137.442 372.44Q137.387 371.946 137.357 371.449Q137.327 370.953 137.322 370.455Q137.318 369.958 137.339 369.461Q137.359 368.964 137.405 368.469Q137.451 367.974 137.522 367.481Q137.592 366.989 137.688 366.501Q137.784 366.013 137.904 365.53Q138.024 365.048 138.169 364.572Q138.314 364.096 138.482 363.628Q138.651 363.16 138.843 362.702Q139.035 362.243 139.25 361.794Q139.465 361.346 139.703 360.909C142.754 355.353 147.514 352.789 153.377 351.113Z"/>
	<path fill="#FEFEFE" d="M267.584 288.178C270.96 288.357 273.826 288.583 276.815 290.382C281.761 293.36 284.507 298.487 285.772 303.982C287.642 312.102 287.283 322.974 282.61 330.095C279.408 334.975 275.108 337.2 269.58 338.402C265.711 338.461 261.83 337.346 258.714 335.027C253.816 331.381 251.62 325.566 250.766 319.713C249.58 311.589 250.417 301.151 255.634 294.472C258.851 290.353 262.529 288.819 267.584 288.178Z"/>
	<path fill="#CB8056" d="M266.662 296.438C267.36 296.435 268.058 296.419 268.751 296.518C271.381 296.893 273.486 298.306 275.03 300.434C278.462 305.165 278.491 312.606 277.672 318.208C276.924 323.323 275.246 327.506 271.047 330.642C270.626 330.627 270.204 330.618 269.785 330.575C266.955 330.285 264.525 328.777 262.8 326.542C259.285 321.985 259.081 315.109 259.758 309.595C260.46 303.882 262.121 299.986 266.662 296.438Z"/>
	<path fill="#FEFEFE" d="M306.538 288.105C309.703 287.891 312.856 288.01 315.853 289.156C320.492 290.931 323.823 294.606 325.797 299.095C329.327 307.123 329.316 317.666 326.036 325.777C323.498 332.054 319.144 335.742 313.007 338.219C308.595 338.805 304.648 338.627 300.753 336.235C295.76 333.169 293.003 327.748 291.751 322.184C289.874 313.846 290.33 302.863 295.129 295.543C297.966 291.217 301.565 289.159 306.538 288.105Z"/>
	<path fill="#CB8056" d="M307.243 296.004C308.158 296.025 309.096 296.04 310.001 296.186C312.616 296.609 314.802 298.611 316.142 300.798C319.327 305.995 319.411 314.459 318.04 320.305C316.929 325.041 315.215 327.888 311.132 330.498C307.521 330.043 305.028 329.006 302.793 325.986C299.196 321.126 298.901 313.492 299.994 307.7C300.962 302.573 303 299.018 307.243 296.004Z"/>
	<path fill="#FEFEFE" d="M348.05 193.579C355.481 193.138 362.621 193.938 369.263 197.481Q369.982 197.862 370.681 198.278Q371.38 198.694 372.058 199.144Q372.735 199.594 373.39 200.078Q374.044 200.561 374.674 201.076Q375.304 201.591 375.907 202.137Q376.51 202.682 377.086 203.257Q377.662 203.832 378.208 204.435Q378.754 205.038 379.27 205.667Q379.786 206.296 380.27 206.95Q380.754 207.604 381.205 208.281Q381.656 208.958 382.073 209.656Q382.49 210.355 382.871 211.074Q383.253 211.792 383.599 212.528Q383.944 213.265 384.253 214.018Q384.561 214.77 384.832 215.537Q385.103 216.304 385.336 217.084Q385.569 217.891 385.763 218.708Q385.957 219.526 386.11 220.351Q386.264 221.177 386.377 222.01Q386.49 222.842 386.562 223.679Q386.634 224.516 386.665 225.355Q386.696 226.194 386.686 227.034Q386.676 227.874 386.625 228.713Q386.574 229.551 386.482 230.386Q386.39 231.221 386.258 232.05Q386.125 232.88 385.952 233.702Q385.779 234.524 385.566 235.336Q385.353 236.149 385.1 236.95Q384.848 237.751 384.557 238.539Q384.265 239.327 383.936 240.099Q383.606 240.872 383.239 241.628Q382.872 242.383 382.469 243.12C377.468 252.23 369.468 256.782 359.785 259.614Q358.349 259.821 356.901 259.911Q355.452 260 354.001 259.972Q352.551 259.943 351.107 259.796Q349.663 259.649 348.237 259.385Q346.81 259.122 345.409 258.742Q344.008 258.363 342.643 257.871Q341.278 257.379 339.958 256.778Q338.637 256.176 337.37 255.469Q336.67 255.08 335.99 254.657Q335.309 254.234 334.651 253.778Q333.993 253.322 333.357 252.834Q332.722 252.347 332.112 251.828Q331.502 251.309 330.918 250.761Q330.333 250.213 329.777 249.637Q329.221 249.061 328.694 248.458Q328.167 247.855 327.67 247.227Q327.173 246.598 326.708 245.947Q326.243 245.295 325.81 244.62Q325.378 243.946 324.979 243.252Q324.58 242.557 324.216 241.844Q323.852 241.13 323.524 240.4Q323.195 239.669 322.904 238.923Q322.612 238.178 322.357 237.418Q322.102 236.659 321.885 235.888Q321.653 235.087 321.461 234.276Q321.269 233.464 321.118 232.644Q320.967 231.824 320.857 230.998Q320.746 230.171 320.678 229.341Q320.609 228.51 320.582 227.676Q320.554 226.843 320.569 226.009Q320.583 225.176 320.639 224.344Q320.695 223.512 320.792 222.684Q320.889 221.856 321.028 221.033Q321.166 220.211 321.345 219.397Q321.524 218.583 321.744 217.778Q321.964 216.974 322.223 216.181Q322.483 215.389 322.781 214.611Q323.08 213.832 323.417 213.07Q323.754 212.307 324.129 211.562Q324.504 210.817 324.915 210.092C330.082 200.851 338.186 196.437 348.05 193.579Z"/>
	<path fill="#31334A" d="M548.506 216.617L577.799 200.135C585.102 195.959 592.525 190.605 600.521 187.96C603.289 187.044 605.952 186.771 608.782 187.621C618.148 190.434 627.44 209.665 637.072 216.649C643.486 221.299 650.695 223.71 658.335 225.509C675.456 225.513 682.684 220.712 696.035 210.87C700.892 219.569 705.579 228.4 710.601 237.003L717.667 236.962C725.743 249.981 733.831 262.973 741.178 276.423C734.183 279.1 727.539 282.048 724.198 289.285C721.274 295.617 722.051 302.625 724.574 308.93C727.533 316.323 731.481 317.047 734.287 322.377C744.502 325.12 754.532 325.979 764.076 320.472C766.762 318.922 769.271 316.875 771.599 314.837C776.194 322.227 780.391 330.383 785.776 337.206C789.965 344.078 794.278 350.912 798.206 357.935C794.633 359.823 791.017 361.658 787.509 363.664C792.595 372.805 798.034 383.047 804.646 391.147C825.058 425.14 846.953 458.291 866.863 492.563C873.83 505.035 881.939 517.092 889.394 529.303C902.217 550.308 914.945 571.818 929.117 591.925C933.069 597.724 945.866 614.447 944.707 621.381C944.229 624.245 935.376 629.005 932.958 630.418C917.312 639.558 900.063 647.122 885.488 657.906C890.938 665.849 891.803 677.211 890.009 686.616C889.58 688.861 888.67 691.136 886.723 692.48C882.294 695.54 873.89 693.564 868.663 694.288C853.95 696.327 841.819 710.471 838.692 724.388C837.945 727.712 837.573 731.269 837.536 734.675C841.825 737.301 846.124 739.599 851.026 740.855C855.776 742.073 863.376 741.876 867.429 744.297C869.598 745.592 870.523 748.137 871.048 750.479C872.839 758.476 871.191 767.697 871.356 775.861C871.478 779.658 871.801 783.108 868.89 786.027C861.809 793.126 840.081 783.766 824.552 804.034Q823.203 805.8 822.046 807.698Q820.889 809.595 819.937 811.603Q818.984 813.611 818.247 815.707Q817.51 817.804 816.996 819.966C815.419 826.72 817.092 843.969 809.589 846.863C805.527 848.43 709.747 847.459 699.19 847.459L392.21 847.449Q328.316 847.072 264.426 847.9C255.62 848.009 246.791 847.298 237.996 847.529C228.777 846.464 219.194 846.938 209.915 846.925C201.462 840.639 204.6 829.2 203.052 819.889C198.479 807.805 192.316 799.776 180.818 793.53C177.111 792.039 173.37 790.73 169.379 790.262C165.093 789.759 159.639 790.665 155.681 788.922C153.52 787.971 152.209 786.002 151.486 783.827C149.689 778.424 149.279 751.661 152.055 746.736C155.582 740.477 167.129 741.664 173.276 740.03C182.246 737.646 190.563 729.996 195.231 722.187C201.511 711.682 201.857 701.226 198.875 689.62C193.79 678.252 187.097 671.565 176.107 665.763C169.956 663.699 163.401 664.161 157.019 664.413C155.677 663.508 154.387 662.603 153.398 661.299C147.926 654.081 150.261 638.268 151.354 629.954C135.411 602.834 117.369 576.973 101.893 549.617C113.837 540.87 127.824 531.285 133.143 516.807C139.643 499.116 127.465 480.649 120.384 465.033C163.568 438.831 207.663 413.925 251.262 388.404C303.301 357.943 355.076 326.905 407.436 297.01L493.833 247.441L527.959 228.444C534.85 224.612 541.916 220.952 548.506 216.617Z"/>
	<path fill="#685A5C" d="M276.286 582.156C281.415 581.474 292.55 579.184 296.689 582.672C297.266 583.159 297.371 584.588 297.543 585.325C296.382 586.485 295.149 587.739 293.775 588.642C291.387 590.211 288.324 591.674 285.416 590.868C282.494 590.058 279.766 587.246 278.373 584.668C277.927 583.842 277.608 583.067 276.822 582.506C276.649 582.382 276.465 582.273 276.286 582.156Z"/>
	<path fill="#C5504A" d="M564.728 230.531C576.727 222.678 590.202 216.095 602.932 209.479C605.476 212.155 607.731 215.143 610.047 218.019C596.588 224.597 583.552 232.279 569.924 238.45C568.062 235.918 566.426 233.179 564.728 230.531Z"/>
	<path fill="#CB8056" d="M710.601 237.003L717.667 236.962C725.743 249.981 733.831 262.973 741.178 276.423C734.183 279.1 727.539 282.048 724.198 289.285C721.274 295.617 722.051 302.625 724.574 308.93C727.533 316.323 731.481 317.047 734.287 322.377C731.674 321.463 729.141 320.455 726.705 319.133C714.864 312.71 705.586 302.279 701.893 289.195C699.637 281.201 699.044 268.809 703.374 261.438C706.892 255.449 713.196 254.708 719.354 253.171Q714.809 245.178 710.601 237.003Z"/>
	<path fill="#F5BA66" d="M159.339 562.211C161.583 561.891 163.984 562.122 166.234 562.336C180.567 563.693 193.723 571.407 202.797 582.333C202.2 584.644 201.64 586.985 200.901 589.253C197.185 600.661 189.047 608.557 178.607 614.02C174.389 615.676 170.025 616.679 165.617 617.684C156.044 601.099 146.05 584.876 136.825 568.072C144.172 564.523 151.267 563.035 159.339 562.211Z"/>
	<path fill="#C5504A" d="M145.875 473.553C157.565 465.909 169.898 457.328 182.925 452.157C182.134 456.477 181.736 460.441 184.443 464.249C186.323 466.893 189.276 468.397 192.332 469.246L192.704 469.516C193.707 471.484 194.748 473.387 195.911 475.265C190.372 491.746 185.399 508.446 180.192 525.035C178.451 530.582 176.551 539.769 173.649 544.644C158.598 543.038 147.495 544.693 132.99 548.53C140.776 541.421 147.385 533.851 151.23 523.898C157.998 506.376 153.131 489.944 145.875 473.553Z"/>
	<path fill="#C5504A" d="M195.669 444.841C202.048 437.95 213.097 433.203 221.218 428.472C239.103 418.054 257.258 408.106 275.12 397.647L544.686 240.965L549.748 249.992C514.852 267.933 481.259 287.912 447.221 307.387L287.835 398.547L229.582 431.742C224.101 434.825 205.698 444.183 202.438 447.325L202.142 447.424C200.4 445.637 198.002 445.339 195.669 444.841Z"/>
	<path fill="#F16055" d="M195.911 475.265C198.773 479.943 202.257 488.097 206.607 491.347L207.104 491.44L207.683 494.161C209.231 497.933 210.905 501.869 214.933 503.563C215.912 503.975 216.973 504.061 218.021 504.138L217.859 504.437C222.387 504.775 225.242 503.216 228.682 500.397C232.765 502.419 238.115 513.108 240.486 517.159C244.792 516.934 249.017 516.913 252.517 519.895C254.842 521.876 255.825 524.701 256.015 527.683C256.219 530.869 255.335 533.759 254.225 536.702C258.016 541.927 261.202 547.672 265.25 552.687C260.98 554.051 256.609 555.139 254.389 559.444C253.946 560.301 253.669 561.209 253.382 562.126C250.394 564.821 218.626 563.547 212.369 563.515C199.153 554.415 189.165 548.94 173.649 544.644C176.551 539.769 178.451 530.582 180.192 525.035C185.399 508.446 190.372 491.746 195.911 475.265Z"/>
	<path fill="#F5BA66" d="M254.225 536.702C258.016 541.927 261.202 547.672 265.25 552.687C260.98 554.051 256.609 555.139 254.389 559.444C253.946 560.301 253.669 561.209 253.382 562.126C248.538 557.249 243.368 548.195 241.856 541.44C242.941 541.546 244.304 541.849 245.37 541.712C249.3 541.173 251.492 539.375 254.225 536.702Z"/>
	<path fill="#F5BA66" d="M228.682 500.397C232.765 502.419 238.115 513.108 240.486 517.159C236.289 519.276 234.292 521.161 232.812 525.698C232.479 526.718 232.223 527.741 231.983 528.786C228.48 524.915 217.918 509.6 216.777 504.859L217.859 504.437C222.387 504.775 225.242 503.216 228.682 500.397Z"/>
	<path fill="#482A3A" d="M240.486 517.159C244.792 516.934 249.017 516.913 252.517 519.895C254.842 521.876 255.825 524.701 256.015 527.683C256.219 530.869 255.335 533.759 254.225 536.702C251.492 539.375 249.3 541.173 245.37 541.712C244.304 541.849 242.941 541.546 241.856 541.44C240.378 540.882 239.056 540.427 237.817 539.407C234.062 536.957 233.054 532.862 231.983 528.786C232.223 527.741 232.479 526.718 232.812 525.698C234.292 521.161 236.289 519.276 240.486 517.159Z"/>
	<path fill="#251F28" d="M240.486 517.159C244.792 516.934 249.017 516.913 252.517 519.895C254.842 521.876 255.825 524.701 256.015 527.683C256.219 530.869 255.335 533.759 254.225 536.702C251.492 539.375 249.3 541.173 245.37 541.712C247.905 537.673 252.233 536.747 254.041 530.954C254.645 529.017 254.815 526.965 253.793 525.139C251.66 521.327 246.721 519.711 242.809 518.531C240.051 519.488 237.152 520.621 235.406 523.103C231.587 528.531 237.244 533.731 237.765 538.764C237.788 538.978 237.8 539.193 237.817 539.407C234.062 536.957 233.054 532.862 231.983 528.786C232.223 527.741 232.479 526.718 232.812 525.698C234.292 521.161 236.289 519.276 240.486 517.159Z"/>
	<path fill="#F5BA66" d="M870.009 628.238Q889.144 617.12 908.006 605.545C915.049 601.246 922.699 597.12 929.117 591.925C933.069 597.724 945.866 614.447 944.707 621.381C944.229 624.245 935.376 629.005 932.958 630.418C917.312 639.558 900.063 647.122 885.488 657.906C890.938 665.849 891.803 677.211 890.009 686.616C889.58 688.861 888.67 691.136 886.723 692.48C882.294 695.54 873.89 693.564 868.663 694.288C853.95 696.327 841.819 710.471 838.692 724.388C837.945 727.712 837.573 731.269 837.536 734.675C836.93 734.325 836.434 733.957 835.886 733.52Q835.054 732.851 834.254 732.143Q833.455 731.435 832.691 730.689Q831.927 729.943 831.201 729.161Q830.474 728.378 829.786 727.562Q829.098 726.745 828.45 725.897Q827.802 725.048 827.196 724.168Q826.59 723.289 826.028 722.382Q825.465 721.474 824.947 720.54Q824.429 719.607 823.957 718.649Q823.485 717.691 823.06 716.712Q822.635 715.732 822.257 714.733Q821.88 713.734 821.551 712.718Q821.223 711.702 820.944 710.672Q820.665 709.641 820.437 708.598Q820.208 707.555 820.031 706.502Q819.853 705.449 819.726 704.389Q819.638 703.515 819.594 702.637Q819.549 701.76 819.547 700.881Q819.546 700.003 819.588 699.125Q819.63 698.248 819.715 697.373Q819.8 696.499 819.928 695.629Q820.056 694.76 820.227 693.898Q820.398 693.037 820.61 692.184Q820.823 691.332 821.078 690.491Q821.333 689.65 821.629 688.823Q821.925 687.996 822.261 687.184Q822.597 686.372 822.973 685.578Q823.349 684.784 823.763 684.009Q824.178 683.234 824.63 682.481Q825.082 681.728 825.571 680.998Q826.06 680.268 826.584 679.563Q827.108 678.857 827.666 678.179C838.705 664.673 846.622 667.269 861.505 665.444C864.322 665.098 868.057 664.209 869.821 661.758C874.738 654.927 871.093 636.259 870.009 628.238Z"/>
	<path fill="#FEFEFE" d="M782.295 468.289C781.245 461.646 779.498 455.131 778.457 448.487C775.775 431.38 779.74 415.33 786.823 399.775C802.102 423.728 816.34 448.301 831.124 472.557C811.438 483.457 792.557 495.61 773.22 507.094Q736.833 528.664 699.664 548.855C691.548 553.347 681.822 561.266 672.964 563.453C663.084 565.892 646.547 563.947 636.121 563.822C630.784 563.758 625.082 564.298 619.794 563.847C619.132 563.646 618.652 563.526 617.95 563.545C617.279 563.563 616.634 563.568 615.963 563.543L615.619 563.044C616.538 561.661 642.601 548.186 645.904 546.402Q695.483 519.125 744.64 491.094C754.043 485.762 775.251 474.971 782.295 468.289Z"/>
	<path fill="#F5EDDC" d="M763.054 450.955C757.103 440.205 753.527 428.476 753.724 416.122C753.981 399.962 760.535 386.878 772.053 375.751C777.059 383.706 781.915 391.76 786.823 399.775C779.74 415.33 775.775 431.38 778.457 448.487C779.498 455.131 781.245 461.646 782.295 468.289C775.251 474.971 754.043 485.762 744.64 491.094Q695.483 519.125 645.904 546.402C642.601 548.186 616.538 561.661 615.619 563.044L615.963 563.543C616.634 563.568 617.279 563.563 617.95 563.545C618.652 563.526 619.132 563.646 619.794 563.847C598.755 564.335 577.653 564.03 556.607 563.975C563.238 560.761 569.641 556.905 576.085 553.33L608.686 535.378L717.722 475.733C732.774 467.48 747.568 458.349 763.054 450.955Z"/>
	<path fill="#FEFEFE" d="M846.584 497.565C850.578 500.515 895.066 575.12 901.765 585.95C893.828 591.087 885.51 595.714 877.487 600.736C870.676 604.999 863.882 610.404 856.487 613.51C849.644 616.385 842.164 615.758 835.459 612.875C824.419 608.128 817.578 599.047 813.231 588.155C812.109 581.825 814.722 571.727 809.681 566.868C807.964 565.213 805.757 564.472 803.44 564.151C795.379 563.035 786.249 563.943 778.086 564.049L730.724 564.526C770.351 544.029 807.63 519.303 846.584 497.565Z"/>
	<path fill="#F16055" d="M610.047 218.019C623.213 233.132 639.173 244.023 659.672 245.333C669.535 245.963 679.099 244.019 688.653 241.832C679.934 261.744 675.949 278.859 684.158 299.932Q684.782 301.574 685.488 303.183Q686.193 304.792 686.979 306.364Q687.764 307.936 688.627 309.467Q689.489 310.997 690.428 312.482Q691.366 313.968 692.377 315.405Q693.389 316.841 694.471 318.226Q695.553 319.61 696.702 320.938Q697.852 322.267 699.067 323.536Q700.282 324.805 701.559 326.012Q702.836 327.219 704.171 328.361Q705.507 329.502 706.898 330.575Q708.289 331.649 709.732 332.651Q711.175 333.654 712.666 334.582Q714.157 335.511 715.693 336.365Q717.229 337.218 718.806 337.993Q720.383 338.769 721.996 339.464C736.833 345.889 751.218 345.862 766.735 342.035L771.834 351.278C753.201 363.317 738.865 379.194 734.174 401.427C731.523 413.99 732.67 426.719 736.22 438.991C727.036 444.289 717.702 449.322 708.583 454.731C705.828 450.256 702.816 445.786 700.294 441.183L690.297 447.166C687.254 440.771 682.651 435.187 678.464 429.513Q673.636 432.283 668.971 435.321C664.041 430.231 660.644 423.652 657.016 417.615L666.193 411.589C663.174 405.012 658.741 399.362 654.305 393.703L645.13 398.852C641.362 392.898 637.343 387.118 633.343 381.319C636.213 379.189 639.241 377.291 642.245 375.358C638.668 369.215 635.126 362.792 630.742 357.186C627.628 358.801 624.452 360.726 621.213 362.042C616.738 357.408 613.671 350.305 610.313 344.787L619.538 338.613C616.061 332.96 612.822 327.029 608.053 322.346L618.438 316.206C614.64 310.023 610.906 303.792 606.796 297.81C604.257 291.68 600.139 285.722 596.074 280.497C591.937 274.075 587.354 268.18 583.715 261.403C580.857 263.416 577.864 265.034 574.778 266.668C571.356 260.493 567.029 254.517 563.123 248.614C565.728 246.176 569.196 244.137 572.07 241.946L569.924 238.45C583.552 232.279 596.588 224.597 610.047 218.019Z"/>
	<path fill="#C5504A" d="M618.438 316.206C622.502 320.714 627.812 327.395 629.737 333.217C626.329 334.983 622.855 336.683 619.538 338.613C616.061 332.96 612.822 327.029 608.053 322.346L618.438 316.206Z"/>
	<path fill="#C5504A" d="M688.16 423.233C692.576 428.905 696.914 434.824 700.294 441.183L690.297 447.166C687.254 440.771 682.651 435.187 678.464 429.513C681.823 427.566 684.997 425.485 688.16 423.233Z"/>
	<path fill="#C5504A" d="M572.07 241.946C576.574 247.667 581.577 254.342 583.715 261.403C580.857 263.416 577.864 265.034 574.778 266.668C571.356 260.493 567.029 254.517 563.123 248.614C565.728 246.176 569.196 244.137 572.07 241.946Z"/>
	<path fill="#C5504A" d="M641.364 350.435C645.199 356.157 650.084 362.532 652.825 368.8C649.314 370.988 645.837 373.311 642.245 375.358C638.668 369.215 635.126 362.792 630.742 357.186Q635.999 353.725 641.364 350.435Z"/>
	<path fill="#C5504A" d="M665.212 386.752C668.731 391.672 675.312 400.054 677.232 405.729C673.423 407.517 669.72 409.273 666.193 411.589C663.174 405.012 658.741 399.362 654.305 393.703C657.619 390.987 661.529 388.93 665.212 386.752Z"/>
	<path fill="#31334A" d="M619.538 338.613C622.855 336.683 626.329 334.983 629.737 333.217C633.794 338.826 637.232 344.917 641.364 350.435Q635.999 353.725 630.742 357.186C627.628 358.801 624.452 360.726 621.213 362.042C616.738 357.408 613.671 350.305 610.313 344.787L619.538 338.613Z"/>
	<path fill="#31334A" d="M652.825 368.8C657.096 374.686 660.953 380.857 665.212 386.752C661.529 388.93 657.619 390.987 654.305 393.703L645.13 398.852C641.362 392.898 637.343 387.118 633.343 381.319C636.213 379.189 639.241 377.291 642.245 375.358C645.837 373.311 649.314 370.988 652.825 368.8Z"/>
	<path fill="#31334A" d="M677.232 405.729C681.478 411.023 685.347 417.048 688.16 423.233C684.997 425.485 681.823 427.566 678.464 429.513Q673.636 432.283 668.971 435.321C664.041 430.231 660.644 423.652 657.016 417.615L666.193 411.589C669.72 409.273 673.423 407.517 677.232 405.729Z"/>
	<path fill="#F16055" d="M563.123 248.614C567.029 254.517 571.356 260.493 574.778 266.668C577.864 265.034 580.857 263.416 583.715 261.403C587.354 268.18 591.937 274.075 596.074 280.497C600.139 285.722 604.257 291.68 606.796 297.81C610.906 303.792 614.64 310.023 618.438 316.206L608.053 322.346C612.822 327.029 616.061 332.96 619.538 338.613L610.313 344.787C613.671 350.305 616.738 357.408 621.213 362.042C624.452 360.726 627.628 358.801 630.742 357.186C635.126 362.792 638.668 369.215 642.245 375.358C639.241 377.291 636.213 379.189 633.343 381.319C637.343 387.118 641.362 392.898 645.13 398.852L654.305 393.703C658.741 399.362 663.174 405.012 666.193 411.589L657.016 417.615C660.644 423.652 664.041 430.231 668.971 435.321Q673.636 432.283 678.464 429.513C682.651 435.187 687.254 440.771 690.297 447.166C687.097 449.227 683.909 451.525 680.574 453.347C682.856 457.547 685.389 461.516 688.007 465.51L536.377 546.116C526.629 551.208 513.905 561.237 503.848 563.878C496.244 565.876 486.733 564.629 478.858 564.55Q464.098 564.471 449.337 564.541C470.615 548.723 495.524 536.566 518.788 523.953C543.449 510.583 567.847 496.706 592.372 483.086C607.924 474.449 623.992 466.227 639.172 456.982Q633.6 447.082 627.087 437.773Q562.263 473.118 498.62 510.551C487.763 517.055 477.483 524.551 466.774 531.303Q439.415 548.286 411.593 564.497C407.761 564.523 393.414 565.275 390.923 562.885C388.382 563.079 386.019 563.14 383.64 562.133L383.009 562.909C370.467 563.76 357.32 563.011 344.712 563.008L276.301 563.007C275.769 561.741 275.232 560.467 274.582 559.257C272.35 555.103 269.525 553.927 265.25 552.687C261.202 547.672 258.016 541.927 254.225 536.702C255.335 533.759 256.219 530.869 256.015 527.683C255.825 524.701 254.842 521.876 252.517 519.895C249.017 516.913 244.792 516.934 240.486 517.159C238.115 513.108 232.765 502.419 228.682 500.397C225.242 503.216 222.387 504.775 217.859 504.437L218.021 504.138C216.973 504.061 215.912 503.975 214.933 503.563C210.905 501.869 209.231 497.933 207.683 494.161L207.104 491.44L206.607 491.347C202.257 488.097 198.773 479.943 195.911 475.265C194.748 473.387 193.707 471.484 192.704 469.516L192.332 469.246C189.276 468.397 186.323 466.893 184.443 464.249C181.736 460.441 182.134 456.477 182.925 452.157C187.152 450.37 191.902 447.476 195.669 444.841C198.002 445.339 200.4 445.637 202.142 447.424L202.438 447.325C205.698 444.183 224.101 434.825 229.582 431.742L287.835 398.547L447.221 307.387C481.259 287.912 514.852 267.933 549.748 249.992C550.658 251.58 551.509 253.278 552.537 254.788C556.184 252.887 559.653 250.822 563.123 248.614Z"/>
	<path fill="#251F28" d="M383.64 562.133C384.347 559.361 385.073 556.603 385.577 553.785C387.44 556.782 389.277 559.762 390.923 562.885C388.382 563.079 386.019 563.14 383.64 562.133Z"/>
	<path fill="#F5BA66" d="M584.801 286.975C589.411 292.175 592.575 298.241 595.221 304.631C592.501 306.398 589.797 308.278 586.942 309.815C582.981 304.115 579.493 298.239 576.178 292.15L584.801 286.975Z"/>
	<path fill="#F5BA66" d="M598.657 328.125C601.653 325.976 604.863 324.187 608.053 322.346C612.822 327.029 616.061 332.96 619.538 338.613L610.313 344.787Q604.382 336.528 598.657 328.125Z"/>
	<path fill="#F5BA66" d="M654.305 393.703C658.741 399.362 663.174 405.012 666.193 411.589L657.016 417.615C652.442 412.035 649.049 404.949 645.13 398.852L654.305 393.703Z"/>
	<path fill="#F5BA66" d="M630.742 357.186C635.126 362.792 638.668 369.215 642.245 375.358C639.241 377.291 636.213 379.189 633.343 381.319C629.011 375.102 624.551 368.862 621.213 362.042C624.452 360.726 627.628 358.801 630.742 357.186Z"/>
	<path fill="#F5BA66" d="M678.464 429.513C682.651 435.187 687.254 440.771 690.297 447.166C687.097 449.227 683.909 451.525 680.574 453.347C675.786 448.278 672.666 441.23 668.971 435.321Q673.636 432.283 678.464 429.513Z"/>
	<path fill="#C5504A" d="M584.801 286.975C588.415 284.617 592.309 282.608 596.074 280.497C600.139 285.722 604.257 291.68 606.796 297.81C602.898 300.01 598.946 302.145 595.221 304.631C592.575 298.241 589.411 292.175 584.801 286.975Z"/>
	<path fill="#F5BA66" d="M563.123 248.614C567.029 254.517 571.356 260.493 574.778 266.668C571.188 268.843 567.487 270.926 563.984 273.235C559.958 267.829 554.41 261.352 552.537 254.788C556.184 252.887 559.653 250.822 563.123 248.614Z"/>
	<path fill="#F5BA66" d="M205.598 462.71C210.062 468.043 212.699 474.047 216.453 479.784C212.042 481.999 209.222 484.747 207.668 489.514Q207.361 490.47 207.104 491.44L206.607 491.347C202.257 488.097 198.773 479.943 195.911 475.265C194.748 473.387 193.707 471.484 192.704 469.516L195.442 469.231C200.447 468.466 202.587 466.553 205.598 462.71Z"/>
	<path fill="#31334A" d="M195.669 444.841C198.002 445.339 200.4 445.637 202.142 447.424L202.438 447.325L203.665 449.085C206.204 452.921 207.087 456.184 206.156 460.763C206.019 461.433 205.813 462.062 205.598 462.71C202.587 466.553 200.447 468.466 195.442 469.231L192.704 469.516L192.332 469.246C189.276 468.397 186.323 466.893 184.443 464.249C181.736 460.441 182.134 456.477 182.925 452.157C187.152 450.37 191.902 447.476 195.669 444.841Z"/>
	<path fill="#251F28" d="M203.665 449.085C206.204 452.921 207.087 456.184 206.156 460.763C206.019 461.433 205.813 462.062 205.598 462.71C202.587 466.553 200.447 468.466 195.442 469.231C197.02 467.915 198.925 466.91 200.355 465.456C206.89 458.815 200.702 455.006 203.665 449.085Z"/>
	<path fill="#251F28" d="M195.669 444.841C198.002 445.339 200.4 445.637 202.142 447.424C201.877 447.496 201.612 447.571 201.345 447.639C195.579 449.094 190.318 446.652 186.572 453.044Q186.289 453.531 186.055 454.044Q185.822 454.557 185.642 455.091Q185.462 455.625 185.336 456.174Q185.21 456.724 185.139 457.283Q185.069 457.842 185.056 458.405Q185.042 458.969 185.085 459.531Q185.128 460.092 185.227 460.647Q185.326 461.202 185.48 461.744C186.633 465.828 189.639 466.544 192.332 469.246C189.276 468.397 186.323 466.893 184.443 464.249C181.736 460.441 182.134 456.477 182.925 452.157C187.152 450.37 191.902 447.476 195.669 444.841Z"/>
	<path fill="#482A3A" d="M216.453 479.784C221.271 479.861 225.061 480.214 228.599 483.949C230.725 486.193 232.292 489.402 232.035 492.55C231.831 495.044 230.545 498.292 228.644 499.95L228.682 500.397C225.242 503.216 222.387 504.775 217.859 504.437L218.021 504.138C216.973 504.061 215.912 503.975 214.933 503.563C210.905 501.869 209.231 497.933 207.683 494.161L207.104 491.44Q207.361 490.47 207.668 489.514C209.222 484.747 212.042 481.999 216.453 479.784Z"/>
	<path fill="#251F28" d="M216.453 479.784C221.271 479.861 225.061 480.214 228.599 483.949C230.725 486.193 232.292 489.402 232.035 492.55C231.831 495.044 230.545 498.292 228.644 499.95C228.798 497.779 230.102 495.808 230.137 493.579C230.185 490.597 228.873 487.223 226.789 485.085C224.905 483.153 222.414 482.035 219.707 482.014C216.738 481.991 213.71 483.214 211.683 485.4C209.654 487.588 208.93 489.982 209.071 492.915C211.375 498.289 214.362 500.87 219.484 503.457C218.727 504.151 219.193 503.884 218.021 504.138C216.973 504.061 215.912 503.975 214.933 503.563C210.905 501.869 209.231 497.933 207.683 494.161L207.104 491.44Q207.361 490.47 207.668 489.514C209.222 484.747 212.042 481.999 216.453 479.784Z"/>
	<path fill="#31334A" d="M606.796 297.81C610.906 303.792 614.64 310.023 618.438 316.206L608.053 322.346C604.863 324.187 601.653 325.976 598.657 328.125C594.967 321.884 591.272 315.637 586.942 309.815C589.797 308.278 592.501 306.398 595.221 304.631C598.946 302.145 602.898 300.01 606.796 297.81Z"/>
	<path fill="#31334A" d="M574.778 266.668C577.864 265.034 580.857 263.416 583.715 261.403C587.354 268.18 591.937 274.075 596.074 280.497C592.309 282.608 588.415 284.617 584.801 286.975L576.178 292.15Q570.02 282.732 563.984 273.235C567.487 270.926 571.188 268.843 574.778 266.668Z"/>
	<path fill="#31334A" d="M381.379 466.512C374.806 457.058 367.138 448.099 363.761 436.88C358.886 420.684 359.991 402.038 368.062 387.046C377.077 370.303 393.899 358.527 411.914 353.214C427.904 348.497 444.799 349.357 459.549 357.46C479.59 368.47 487.845 388.672 493.937 409.469C497.974 404.37 502.421 399.71 506.102 394.317Q504.406 391.385 502.982 388.313C501.487 385.049 500.411 381.233 501.87 377.758C503.59 373.661 507.609 372.044 511.418 370.47C513.461 374.484 514.636 378.913 517.058 382.734C520.549 384.461 524.56 386.113 527.594 388.553C529.004 389.687 530.613 391.303 530.563 393.262C530.529 394.624 529.633 395.798 528.673 396.682C526.177 398.98 522.659 400.532 519.849 402.487C514.282 406.361 509.592 411.326 505.197 416.452C506.627 418.058 507.46 419.234 507.356 421.501C507.122 426.613 503.397 432.534 501.189 437.065C511.542 438.717 521.376 443.096 531.865 444.309C535.76 444.759 544.059 442.869 546.047 444.028C547.938 448.753 545.538 456.764 543.71 461.354C542.623 464.082 541.255 467.11 538.41 468.323C537.491 468.268 537.13 468.366 536.328 467.848C532.548 465.409 532.53 458.5 531.693 454.515C519.539 453.036 507.392 451.928 495.255 450.24C497.529 459.899 501.239 467.023 506.24 475.482C483.065 490.522 458.003 501.823 433.829 515.013C428.545 505.029 423.804 496.334 415.226 488.752C412.551 499.26 410.921 510.037 408.388 520.592C411.239 523.84 414.124 526.812 417.339 529.71Q409.326 534.458 401.19 538.994Q390.937 528.34 382.35 516.303C386.327 515.663 390.036 514.841 393.367 512.422C402.046 506.12 402.67 490.425 404.367 480.567C402.099 479.149 399.851 477.662 397.301 476.797C387.759 473.56 376.523 477.75 370.251 485.356C366.458 489.956 365.035 496.317 359.082 498.855C357.347 499.594 355.405 499.837 353.659 498.984C352.156 498.251 351.179 496.913 350.709 495.337C349.121 490.012 353.571 484.07 356.02 479.65C353.004 478.275 349.711 476.675 347.419 474.219C343.435 469.952 344.019 464.314 344.117 458.918C353.542 461.177 361.049 466.61 369.052 471.827L381.379 466.512Z"/>
	<path fill="#C5504A" d="M494.549 427.566C498.362 424.078 501.79 420.325 505.197 416.452C506.627 418.058 507.46 419.234 507.356 421.501C507.122 426.613 503.397 432.534 501.189 437.065L494.132 435.729C494.481 433.031 494.469 430.283 494.549 427.566Z"/>
	<path fill="#FEFEFE" d="M428.215 363.218Q431.691 363.179 435.141 363.613Q438.59 364.046 441.949 364.944C460.415 369.95 470.072 383.653 476.763 400.687C479.27 407.069 481.575 413.934 481.417 420.88C481.223 429.484 476.972 437.575 477.867 446.206C478.691 454.144 482.821 461.199 486.74 467.966L480.394 471.523C477.382 466.283 474.32 461.096 470.795 456.181C468.352 457.688 466.113 459.462 463.835 461.203C466.97 465.759 469.458 470.842 472.099 475.698C469.818 476.984 467.38 478.095 465.039 479.275C462.388 473.992 459.811 468.92 456.156 464.252C454.178 465.141 451.106 466.12 450.093 468.176C448.252 471.913 455.408 479.268 456.93 483.139C457.005 483.331 457.076 483.524 457.149 483.717C455.228 484.754 452.378 486.655 450.217 486.723C447.014 481.675 444.083 476.464 441.109 471.28C438.483 472.793 435.728 474.116 433.028 475.495C435.615 481.31 439.154 486.621 442.582 491.962L436.2 495.065C428.438 485.202 423.507 475.232 411.726 469.494C406.113 466.76 400.222 464.482 395.301 460.55C384.554 451.964 376.083 435.77 374.606 422.145C373.113 408.366 377.771 394.7 386.487 384.044C397.213 370.928 411.625 364.85 428.215 363.218Z"/>
	<path fill="#31334A" d="M440.583 436.526L447.2 436.548C448.633 437.379 450.211 438.197 451.253 439.523Q451.472 439.797 451.659 440.093Q451.847 440.389 452.001 440.704Q452.155 441.018 452.275 441.348Q452.394 441.678 452.476 442.018Q452.558 442.359 452.603 442.707Q452.648 443.054 452.655 443.405Q452.661 443.755 452.63 444.104Q452.598 444.453 452.529 444.797C451.709 448.752 447.943 451.245 444.739 453.191C442.851 453.882 441.012 454.631 438.972 454.23C437.328 453.906 435.806 452.937 434.887 451.526C433.457 449.331 433.405 446.466 434.07 444.006C435.113 440.147 437.204 438.414 440.583 436.526Z"/>
	<path fill="#31334A" d="M404.777 418.593C408.063 418.229 411.089 418.191 414.276 419.207C418.038 420.405 421.18 422.974 422.923 426.542C424.855 430.497 424.941 435.24 423.397 439.335C421.276 444.964 417.184 447.652 411.925 449.904C408.504 450.545 404.942 450.409 401.712 449.037C398.029 447.472 395.22 444.488 393.725 440.794Q393.563 440.389 393.422 439.976Q393.28 439.563 393.16 439.144Q393.04 438.724 392.942 438.299Q392.843 437.874 392.767 437.444Q392.69 437.015 392.636 436.582Q392.582 436.149 392.549 435.714Q392.517 435.279 392.507 434.842Q392.497 434.406 392.51 433.97Q392.522 433.534 392.557 433.099Q392.592 432.664 392.649 432.231Q392.706 431.799 392.785 431.369Q392.864 430.94 392.965 430.516Q393.065 430.091 393.188 429.672Q393.31 429.253 393.454 428.841Q393.598 428.429 393.762 428.025Q393.927 427.621 394.112 427.226C396.38 422.378 399.968 420.281 404.777 418.593Z"/>
	<path fill="#31334A" d="M447.799 392.09C451.544 391.998 455.042 392.66 458.306 394.537Q459.003 394.937 459.657 395.403Q460.31 395.87 460.915 396.399Q461.52 396.927 462.069 397.513Q462.619 398.099 463.108 398.736Q463.598 399.373 464.022 400.055Q464.446 400.737 464.801 401.458Q465.155 402.179 465.437 402.931Q465.719 403.683 465.926 404.459C467.045 408.656 466.504 413.247 464.23 416.971C461.459 421.506 457.42 423.232 452.523 424.49C449.105 424.59 445.875 424.616 442.677 423.237C438.609 421.484 435.534 418.296 434.073 414.095Q433.797 413.286 433.605 412.452Q433.414 411.619 433.308 410.77Q433.202 409.922 433.184 409.067Q433.166 408.212 433.234 407.359Q433.303 406.507 433.459 405.666Q433.614 404.825 433.855 404.005Q434.096 403.184 434.419 402.392Q434.742 401.601 435.144 400.846C437.934 395.701 442.5 393.713 447.799 392.09Z"/>
	<path fill="#F5BA66" d="M222.134 581.715C239.91 581.26 257.62 581.728 275.386 581.9C275.856 585.123 277.111 588.008 279.751 590.031C282.647 592.249 286.675 593.092 290.241 592.418C293.26 591.847 295.85 590.257 297.514 587.653C298.044 586.823 298.457 585.978 298.806 585.056C299.508 584.048 300.139 583.059 300.738 581.983L723.644 581.999L723.625 591.997C730.568 591.813 737.522 591.541 744.466 591.492L744.476 583.024C760.39 582.211 776.347 582.475 792.279 582.498C796.077 600.603 802.345 615.207 818.342 625.764C827.838 632.031 839.011 634.699 850.278 635.217C850.654 638.788 851.173 642.295 851.799 645.83C836.229 647.519 822.707 653.491 812.73 665.859C802.897 678.048 798.8 693.003 800.603 708.514Q800.77 709.964 801.008 711.405Q801.246 712.846 801.555 714.273Q801.864 715.7 802.244 717.11Q802.623 718.52 803.072 719.909Q803.52 721.299 804.037 722.665Q804.554 724.03 805.137 725.369Q805.721 726.707 806.37 728.015Q807.019 729.323 807.732 730.597Q808.445 731.871 809.22 733.109Q809.995 734.346 810.831 735.544Q811.666 736.742 812.56 737.896Q813.453 739.051 814.403 740.161Q815.352 741.27 816.355 742.331Q817.359 743.392 818.413 744.402Q819.468 745.412 820.571 746.368Q821.674 747.325 822.823 748.226C830.747 754.399 841.518 758.769 851.42 760.241L851.486 769.706C833.58 773.23 817.635 779.84 807.132 795.565C800.741 805.134 797.588 815.73 795.944 827.034L744.369 827.202L744.488 813.015C737.681 812.994 730.822 813.133 724.023 812.838L723.957 827.514L389.874 826.996C379.915 826.997 301.634 827.861 299.236 827.065L298.908 826.047L298.209 826.269L297.67 826.757C294.908 827.592 279.677 827.574 276.988 826.689L276.28 822.969C276.233 824.349 276.16 825.433 275.664 826.748C269.981 827.589 263.639 827.035 257.877 827.034L224.071 827.028C221.769 816.823 219.464 806.796 213.881 797.804C203.698 781.405 188.664 774.07 170.487 769.724L170.447 760.78C177.393 759.138 184.102 756.699 190.302 753.136C204.744 744.836 214.946 731.7 219.166 715.551Q219.518 714.221 219.803 712.876Q220.089 711.53 220.307 710.173Q220.526 708.815 220.677 707.448Q220.828 706.081 220.912 704.708Q220.995 703.335 221.011 701.96Q221.027 700.584 220.974 699.21Q220.922 697.836 220.801 696.465Q220.681 695.095 220.493 693.733Q220.305 692.37 220.05 691.019Q219.795 689.667 219.474 688.33Q219.153 686.993 218.765 685.673Q218.378 684.353 217.926 683.054Q217.474 681.755 216.959 680.48Q216.443 679.205 215.865 677.957Q215.287 676.709 214.648 675.491Q214.009 674.273 213.311 673.088C203.61 656.71 188.512 648.33 170.5 643.763L170.146 638.478C180.232 635.628 190.378 631.98 198.805 625.591C213.737 614.271 219.734 599.774 222.134 581.715Z"/>
	<path fill="#251F28" d="M275.699 659.93C275.78 659.427 275.852 658.922 275.968 658.426C276.644 655.531 278.643 652.861 281.201 651.356C284.128 649.634 287.789 649.324 291.03 650.235C294.916 651.327 296.737 653.345 298.747 656.722L297.676 657.95C295.855 655.348 294.072 653.649 291.407 651.953L283.941 652.027C280.456 654.179 279.012 655.794 277.113 659.496C277.016 659.685 276.912 659.871 276.812 660.058L275.699 659.93Z"/>
	<path fill="#251F28" d="M298.747 656.722C299.697 660.483 300.083 664.358 297.994 667.839C296.425 670.452 293.791 672.053 290.833 672.614C287.118 673.319 282.994 672.62 279.892 670.405C277.403 668.628 275.992 666.01 275.656 662.983C275.546 661.995 275.524 660.91 275.699 659.93L276.812 660.058C276.804 661.491 276.99 663.045 277.538 664.377C279.118 668.217 282.329 670.048 286.032 671.502C290.036 670.78 294.071 669.727 296.5 666.109C298.265 663.478 298.25 660.946 297.676 657.95L298.747 656.722Z"/>
	<path fill="#251F28" d="M276.28 822.969C276.835 819.771 278.35 817.068 281.102 815.245C283.75 813.49 287.155 812.952 290.245 813.613Q290.814 813.729 291.368 813.904Q291.922 814.078 292.455 814.308Q292.988 814.538 293.494 814.821Q294.001 815.105 294.476 815.439Q294.95 815.773 295.388 816.154Q295.826 816.536 296.223 816.96Q296.62 817.384 296.97 817.846Q297.321 818.309 297.623 818.805C299.001 821.101 299.089 823.452 298.908 826.047L298.209 826.269C297.84 824.9 297.486 823.482 296.898 822.189C295.672 819.487 293.307 816.991 290.46 816.022Q290.044 815.879 289.616 815.779Q289.188 815.679 288.752 815.623Q288.316 815.568 287.877 815.556Q287.437 815.545 286.999 815.578Q286.561 815.611 286.128 815.688Q285.695 815.766 285.273 815.886Q284.85 816.007 284.442 816.17Q284.034 816.333 283.644 816.537C279.456 818.704 278.255 822.502 276.988 826.689L276.28 822.969Z"/>
	<path fill="#31334A" d="M461.581 746.979C462.226 746.972 462.863 746.959 463.505 747.025C465.821 747.263 468.091 748.402 469.448 750.334Q469.628 750.584 469.779 750.853Q469.931 751.121 470.053 751.404Q470.175 751.687 470.266 751.982Q470.358 752.276 470.417 752.579Q470.476 752.881 470.502 753.188Q470.528 753.496 470.521 753.804Q470.514 754.112 470.474 754.418Q470.434 754.723 470.362 755.023C469.757 757.599 468.064 758.68 465.902 759.948C464.804 760.008 463.822 760.052 462.728 759.883C460.903 759.599 458.965 758.227 457.964 756.699C457.051 755.306 456.805 753.596 457.191 751.984C457.804 749.42 459.449 748.305 461.581 746.979Z"/>
	<path fill="#31334A" d="M437.199 640.032C438.135 639.983 439.105 639.92 440.036 640.056C441.788 640.313 443.528 641.33 444.554 642.784C445.516 644.148 445.794 645.847 445.514 647.474C444.989 650.528 443.332 651.907 440.891 653.595C440.256 653.601 439.626 653.614 438.994 653.543C436.918 653.31 434.849 652.402 433.557 650.713C432.538 649.38 432.23 647.687 432.511 646.052C433.008 643.153 434.931 641.653 437.199 640.032Z"/>
	<path fill="#31334A" d="M437.772 717.013C440.608 717.347 443.303 718.194 445.081 720.559C446.073 721.877 446.54 723.484 446.272 725.124C445.808 727.969 443.84 729.461 441.616 731.02C440.67 731.102 439.687 731.205 438.737 731.143C436.873 731.022 435.255 730.083 434.116 728.626C433.112 727.342 432.84 725.413 433.087 723.844C433.553 720.885 435.402 718.689 437.772 717.013Z"/>
	<path fill="#31334A" d="M581.791 639.946C582.255 640.044 582.721 640.136 583.178 640.265C585.323 640.873 587.316 642.142 588.335 644.184C589.202 645.922 589.169 647.932 588.452 649.714C587.35 652.457 585.394 653.593 582.811 654.764C582.334 654.691 581.854 654.626 581.385 654.516C579.271 654.019 577.161 652.685 576.124 650.733C575.228 649.044 575.244 647.018 575.922 645.256C577.035 642.366 579.1 641.187 581.791 639.946Z"/>
	<path fill="#31334A" d="M462.567 611.436C463.375 611.441 464.198 611.446 464.999 611.56C466.928 611.833 468.842 612.971 469.976 614.555C471.07 616.082 471.39 617.879 471.005 619.71C470.379 622.681 468.413 624.056 465.961 625.559C465.061 625.54 464.141 625.528 463.25 625.395C461.353 625.112 459.536 624.02 458.451 622.432C457.412 620.91 457.175 619.076 457.598 617.306C458.298 614.376 460.162 613.013 462.567 611.436Z"/>
	<path fill="#31334A" d="M555.688 746.491C556.823 746.45 558.006 746.381 559.131 746.561C561.249 746.901 563.292 748.202 564.478 749.993C565.413 751.405 565.675 753.097 565.305 754.74C564.712 757.378 562.905 758.793 560.782 760.252C560.584 760.296 560.388 760.352 560.187 760.383C558.141 760.702 555.612 760.473 553.949 759.124C552.491 757.941 551.906 756.223 551.847 754.391C551.732 750.853 553.322 748.902 555.688 746.491Z"/>
	<path fill="#31334A" d="M582.138 715.925C582.917 715.938 583.728 715.95 584.493 716.106C586.457 716.506 588.226 717.824 589.302 719.49C590.481 721.314 590.779 723.481 590.175 725.565C589.425 728.149 587.884 729.308 585.647 730.622C585.333 730.618 585.02 730.619 584.706 730.611C582.311 730.549 579.874 729.783 578.287 727.886C577.236 726.628 576.799 725.001 576.969 723.38C577.339 719.847 579.482 717.984 582.138 715.925Z"/>
	<path fill="#31334A" d="M555.891 611.499C556.756 611.465 557.646 611.423 558.509 611.514C560.405 611.712 562.234 612.791 563.387 614.293Q563.604 614.58 563.791 614.888Q563.977 615.196 564.13 615.522Q564.283 615.848 564.402 616.188Q564.52 616.528 564.602 616.879Q564.684 617.229 564.73 617.586Q564.775 617.944 564.782 618.304Q564.79 618.664 564.76 619.022Q564.73 619.381 564.663 619.735C564.132 622.669 562.534 624.274 560.194 625.947C559.735 625.975 559.277 626.009 558.817 626.011C556.603 626.019 554.418 625.319 552.872 623.667C551.489 622.19 551.041 620.26 551.261 618.283C551.62 615.052 553.465 613.424 555.891 611.499Z"/>
	<path fill="#685A5C" d="M276.988 826.689C278.255 822.502 279.456 818.704 283.644 816.537Q284.034 816.333 284.442 816.17Q284.85 816.007 285.273 815.886Q285.695 815.766 286.128 815.688Q286.561 815.611 286.999 815.578Q287.437 815.545 287.877 815.556Q288.316 815.568 288.752 815.623Q289.188 815.679 289.616 815.779Q290.044 815.879 290.46 816.022C293.307 816.991 295.672 819.487 296.898 822.189C297.486 823.482 297.84 824.9 298.209 826.269L297.67 826.757C294.908 827.592 279.677 827.574 276.988 826.689Z"/>
	<path fill="#685A5C" d="M283.941 652.027L291.407 651.953C294.072 653.649 295.855 655.348 297.676 657.95C298.25 660.946 298.265 663.478 296.5 666.109C294.071 669.727 290.036 670.78 286.032 671.502C282.329 670.048 279.118 668.217 277.538 664.377C276.99 663.045 276.804 661.491 276.812 660.058C276.912 659.871 277.016 659.685 277.113 659.496C279.012 655.794 280.456 654.179 283.941 652.027Z"/>
	<path fill="#251F28" d="M282.756 773.652C284.888 772.24 287.275 771.825 289.797 772.323C292.927 772.94 295.652 775.113 297.369 777.751C299.128 780.456 299.987 783.893 299.231 787.079C298.491 790.205 296.317 792.546 293.552 794.078C293.393 794.166 293.222 794.233 293.057 794.311C290.526 795.613 287.98 796.177 285.137 795.636C282.198 795.078 279.66 793.193 278.077 790.681Q277.743 790.154 277.463 789.597Q277.183 789.039 276.961 788.456Q276.738 787.873 276.576 787.271Q276.413 786.669 276.312 786.053Q276.211 785.438 276.172 784.815Q276.134 784.192 276.158 783.569Q276.182 782.946 276.269 782.328Q276.356 781.71 276.504 781.104C277.425 777.471 279.606 775.449 282.756 773.652Z"/>
	<path fill="#685A5C" d="M282.702 775.855C285.967 774.638 288.486 773.979 291.774 775.567Q292.201 775.77 292.605 776.018Q293.009 776.265 293.384 776.553Q293.76 776.842 294.102 777.168Q294.445 777.495 294.752 777.855Q295.058 778.216 295.325 778.607Q295.592 778.998 295.816 779.415Q296.04 779.832 296.219 780.27Q296.398 780.708 296.53 781.163C297.275 783.646 296.895 786.473 295.644 788.731C294.491 790.812 292.519 792.086 290.519 793.256Q289.597 793.288 288.675 793.259C285.248 793.128 282.379 792.114 280.1 789.474C278.696 787.846 277.908 785.6 278.103 783.448C278.407 780.086 280.231 777.949 282.702 775.855Z"/>
	<path fill="#251F28" d="M284.735 731.534C286.382 731.453 288.163 731.392 289.777 731.751C293.148 732.499 296.279 734.511 298.034 737.527Q298.319 738.01 298.55 738.521Q298.781 739.032 298.957 739.565Q299.132 740.098 299.249 740.646Q299.367 741.194 299.424 741.752Q299.482 742.31 299.48 742.871Q299.478 743.432 299.416 743.989Q299.354 744.547 299.232 745.094Q299.11 745.642 298.931 746.173C297.508 750.448 294 752.625 290.213 754.547C288.266 754.869 285.983 754.796 284.065 754.323Q283.508 754.19 282.968 753.999Q282.427 753.808 281.91 753.562Q281.393 753.315 280.904 753.016Q280.416 752.717 279.961 752.368Q279.506 752.02 279.091 751.625Q278.675 751.231 278.303 750.796Q277.931 750.36 277.607 749.888Q277.282 749.416 277.009 748.912Q276.721 748.368 276.491 747.796Q276.261 747.224 276.092 746.632Q275.923 746.04 275.817 745.433Q275.711 744.826 275.669 744.211Q275.627 743.597 275.65 742.981Q275.672 742.365 275.759 741.755Q275.846 741.146 275.996 740.548Q276.146 739.951 276.358 739.372C277.909 735.174 280.857 733.267 284.735 731.534Z"/>
	<path fill="#685A5C" d="M284.469 734.049C286.409 733.984 288.569 733.775 290.421 734.451C293.175 735.456 295.766 737.515 296.978 740.229C297.891 742.272 298.027 744.528 297.13 746.6C295.782 749.716 293.102 750.91 290.113 752.065C288.206 752.255 286.364 752.348 284.496 751.816C281.897 751.075 279.505 749.166 278.316 746.727Q278.125 746.343 277.973 745.941Q277.822 745.54 277.712 745.125Q277.603 744.71 277.536 744.286Q277.469 743.862 277.446 743.433Q277.422 743.005 277.443 742.576Q277.464 742.147 277.528 741.723Q277.592 741.299 277.699 740.883Q277.806 740.468 277.955 740.065C279.131 736.96 281.572 735.361 284.469 734.049Z"/>
	<path fill="#251F28" d="M287.24 690.102C289.469 689.86 292.067 690.436 293.993 691.583C296.726 693.21 298.519 695.955 299.197 699.036C299.886 702.17 299.439 705.457 297.677 708.168C295.665 711.263 292.76 712.438 289.295 713.237C286.338 712.932 283.486 712.668 280.901 711.036C277.361 708.802 276.294 705.356 275.331 701.54C275.813 699.268 276.377 696.968 277.689 695.011C280.002 691.563 283.427 690.821 287.24 690.102Z"/>
	<path fill="#685A5C" d="M285.025 692.608C286.966 692.453 288.978 692.25 290.878 692.803C293.138 693.462 295.289 695.066 296.42 697.149C297.643 699.4 297.747 702.006 296.862 704.392C295.564 707.892 293.116 709.297 289.876 710.787C287.789 711.105 286.053 711.071 284.029 710.374C281.586 709.531 279.537 707.801 278.482 705.419C277.487 703.171 277.481 700.758 278.358 698.474C279.587 695.268 282.014 693.905 285.025 692.608Z"/>
	<path fill="#251F28" d="M284.572 609.073C286.834 609.019 289.265 608.98 291.438 609.69Q292.002 609.876 292.546 610.117Q293.089 610.357 293.607 610.649Q294.124 610.942 294.611 611.283Q295.097 611.624 295.548 612.011Q295.999 612.398 296.41 612.828Q296.821 613.257 297.188 613.724Q297.555 614.192 297.875 614.692Q298.195 615.193 298.464 615.723Q298.707 616.209 298.9 616.717Q299.093 617.224 299.234 617.749Q299.376 618.273 299.464 618.809Q299.552 619.345 299.586 619.888Q299.62 620.43 299.6 620.973Q299.58 621.515 299.505 622.053Q299.431 622.592 299.303 623.12Q299.175 623.647 298.995 624.16C297.511 628.258 294.415 630.088 290.711 631.857C288.303 632.453 286.242 632.648 283.828 631.928C280.848 631.04 278.49 628.989 277.116 626.205C275.617 623.167 275.371 619.424 276.581 616.247C278.112 612.228 280.757 610.658 284.572 609.073Z"/>
	<path fill="#685A5C" d="M283.683 611.043C285.55 610.968 287.63 610.854 289.454 611.308C292.539 612.076 295.53 614.398 297.016 617.207C298.068 619.195 298.386 621.51 297.689 623.668C296.68 626.789 294.346 628.327 291.568 629.771L285.758 630.462C282.982 629.202 280.702 628.154 278.952 625.537C277.468 623.318 276.905 620.749 277.59 618.145C278.504 614.667 280.767 612.879 283.683 611.043Z"/>
	<path fill="#31334A" d="M724.028 692.493L744.393 692.502L744.499 714.496L723.998 714.5L724.028 692.493Z"/>
	<path fill="#31334A" d="M724.058 732.492L744.498 732.506Q744.627 743.615 744.397 754.722C737.612 754.444 730.809 754.515 724.019 754.502L724.058 732.492Z"/>
	<path fill="#31334A" d="M723.952 610.486L744.496 610.506L744.326 632.497Q733.982 632.508 723.641 632.733Q723.59 621.606 723.952 610.486Z"/>
	<path fill="#31334A" d="M723.8 773.02L744.829 773.01Q745.013 783.838 744.783 794.666C737.85 794.917 730.841 794.719 723.9 794.735Q723.761 783.878 723.8 773.02Z"/>
	<path fill="#31334A" d="M733.393 651.245L744.491 651.28L744.358 673.975L733.875 673.977L723.591 673.997Q723.679 662.746 723.938 651.497L733.393 651.245Z"/>
	<path fill="#31334A" d="M664.381 773.242C670.098 773.221 677.863 772.678 682.314 776.884C684.541 778.989 685.74 782.032 685.825 785.07C685.911 788.166 684.829 791.253 682.647 793.481C681.366 794.79 679.757 795.795 677.965 796.213C670.976 797.844 641.696 796.591 632.458 796.792C626.696 797.042 618.949 797.983 614.221 793.925C611.66 791.728 610.079 788.756 609.975 785.365C609.89 782.579 610.761 779.946 612.75 777.954C614.789 775.911 617.628 774.691 620.42 774.101C626.025 772.916 632.338 773.442 638.043 773.452C646.828 773.466 655.6 773.519 664.381 773.242Z"/>
	<path fill="#31334A" d="M509.893 591.13C512.97 591.383 515.494 591.629 517.978 593.681C519.748 595.143 520.776 597.106 520.873 599.406C521.04 603.35 518.947 605.778 516.439 608.478L516.352 625.885C527.078 627.344 536.879 630.678 545.72 637.059C560.995 648.083 567.256 662.895 570.239 681.006L589.384 681.033C591.573 678.436 594.857 675.297 598.41 674.947C600.011 674.789 601.569 675.406 602.766 676.445C605.072 678.445 606.39 681.773 606.622 684.763C606.873 687.993 605.913 691.725 603.696 694.16C602.574 695.394 601.16 696.159 599.462 696.161C595.583 696.164 592.238 693.019 589.623 690.489L569.794 690.491C569.04 700.493 565.746 710.725 560.281 719.148C550.113 734.817 534.187 741.814 516.516 745.531L516.407 773.496L556.67 773.48C564.928 773.473 573.605 772.92 581.788 774.062C584.599 774.454 587.562 775.131 589.71 777.107C591.744 778.977 592.693 781.612 592.785 784.336C592.934 788.722 591.456 791.832 588.592 795.042C585.434 796.246 582.333 796.609 578.988 796.802C561.568 797.803 543.768 796.757 526.303 796.725L420.503 796.688L374.388 796.548C365.544 796.584 355.993 797.524 347.236 796.158C344.878 795.79 343.046 795.107 341.307 793.417C339.084 791.257 337.829 788.142 337.815 785.056C337.8 781.831 339.062 778.531 341.458 776.329C343.27 774.664 345.158 773.96 347.558 773.675C353.163 773.01 359.153 773.469 364.806 773.474L398.213 773.504L506.505 773.807L506.506 745.689C495.298 744.266 484.168 739.991 475.238 733.012C461.326 722.141 454.509 707.221 452.352 689.988L433.906 689.988Q433.212 691.015 432.463 692.003C431.132 693.729 429.443 694.839 427.243 695.069C424.723 695.332 421.747 694.659 419.765 693.033C417.719 691.356 416.717 688.9 416.623 686.286C416.505 683.049 417.843 679.566 420.195 677.322C421.771 675.818 423.802 674.909 426.006 675.109C430.018 675.474 432.426 678.461 434.869 681.287C440.495 681.215 446.133 681.3 451.76 681.316C453.842 669.71 457.246 658.519 464.335 648.924C474.974 634.523 489.528 628.31 506.853 625.805C506.987 619.751 506.93 613.683 506.952 607.627Q506.461 607.37 505.98 607.093C503.914 605.891 502.563 604.239 502.036 601.867C501.551 599.685 501.918 597.38 503.169 595.516C504.781 593.115 507.135 591.782 509.893 591.13Z"/>
	<path fill="#C5504A" d="M504.766 638.515L505.577 638.768C506.648 640.504 506.02 675.364 506.013 680.509L466.455 680.493L465.585 680.204C465.325 679.826 465.159 679.648 465.052 679.152C464.156 674.975 468.278 667.432 470.223 663.806C478.58 648.23 488.535 643.514 504.766 638.515Z"/>
	<path fill="#C5504A" d="M516.478 638.291C522.908 639.399 529.074 641.456 534.696 644.8C548.661 653.107 554.026 665.344 557.861 680.48C544.083 680.199 530.246 680.475 516.462 680.483L516.478 638.291Z"/>
	<path fill="#C5504A" d="M516.379 690.46L558.113 690.488C555.646 701.652 551.639 709.918 544.463 718.766C536.224 726.734 527.114 729.848 516.466 733.419L516.379 690.46Z"/>
	<path fill="#C5504A" d="M464.248 690.514L505.982 690.532L506.031 733.304Q504.375 732.998 502.74 732.589Q501.106 732.181 499.501 731.671Q497.895 731.161 496.325 730.552Q494.754 729.943 493.225 729.238Q491.695 728.532 490.213 727.733Q488.73 726.933 487.3 726.043Q485.87 725.152 484.499 724.174Q483.127 723.196 481.819 722.135C472.081 714.247 465.601 703.009 464.248 690.514Z"/>
</svg>
