<svg width="160" height="160" viewBox="0 0 160 160" fill="none" xmlns="http://www.w3.org/2000/svg">
<path d="M127.037 36.828C130.608 35.9155 134.1 34.4937 137.572 33.2618L142.765 31.418C144.082 30.9636 145.416 30.5615 146.708 30.0376C142.03 36.1098 137.143 42.0182 132.39 48.0308C131.62 46.7839 131.294 44.8512 130.698 43.4538C129.711 41.1435 128.32 38.9807 127.037 36.828Z" fill="#0D0D0D"/>
<path d="M111.916 23.2518C112.992 21.9767 114.181 20.8029 115.315 19.58C117.405 17.3259 119.48 15.0737 121.603 12.8498L133.79 0C131.365 5.39041 128.715 10.6762 126.182 16.0165L122.716 23.3365C122.089 24.6455 121.486 25.9996 120.778 27.2658C124.474 26.154 128.15 24.9899 131.876 23.9775C130.651 27.1378 129.148 30.1901 127.839 33.3167C127.442 34.2637 126.911 35.2747 126.635 36.2541C125.502 35.0411 124.549 33.642 123.424 32.4105C120.104 28.7745 116.135 25.766 111.916 23.2518Z" fill="#0D0D0D"/>
<path d="M13.2812 129.786C13.8875 129.051 14.5768 128.38 15.2227 127.681C16.0951 126.736 16.9307 125.755 17.7789 124.788C23.674 118.07 29.7201 111.501 35.4851 104.668C39.4933 107.271 43.1971 108.671 48.0329 108.147C48.2648 110.817 48.4568 113.489 48.6087 116.165C48.7196 117.89 48.7447 119.717 49.1194 121.407C49.2168 121.828 49.3423 122.241 49.496 122.645C49.6498 123.049 49.8304 123.441 50.0377 123.82C50.7364 125.12 51.8339 126.099 52.9519 127.033C53.0075 127.079 53.0646 127.124 53.1169 127.174C51.9775 128.799 50.5921 130.346 49.3447 131.899L40.1943 143.165L32.4918 152.623C31.2609 154.179 30.0113 155.719 28.7429 157.243C27.9829 158.172 27.2459 159.154 26.395 160C27.8911 156.302 29.6492 152.695 31.2418 149.037L35.6926 138.88C36.7362 136.485 37.7431 134.069 38.8446 131.7C35.3764 133.149 31.877 134.517 28.3463 135.806C30.6524 131.502 32.9124 127.174 35.1264 122.822C33.0885 123.594 30.9124 124.13 28.8323 124.8L13.2812 129.786Z" fill="#0D0D0D"/>
<path d="M76.8263 20.2448C77.4115 20.2154 77.9971 20.1948 78.583 20.1832C79.169 20.1715 79.7549 20.1687 80.341 20.1747C80.9269 20.1809 81.5127 20.1959 82.0982 20.2197C82.6837 20.2435 83.2687 20.2762 83.8533 20.3179C84.4379 20.3594 85.0217 20.4098 85.6047 20.4691C86.1877 20.5284 86.7697 20.5965 87.3507 20.6734C87.9316 20.7503 88.5112 20.8359 89.0896 20.9304C89.668 21.0249 90.2448 21.1281 90.8199 21.24C91.3952 21.352 91.9686 21.4726 92.5401 21.6019C93.1117 21.7313 93.6812 21.8692 94.2486 22.0159C94.816 22.1624 95.381 22.3175 95.9437 22.4812C96.5064 22.645 97.0665 22.8172 97.624 22.9978C98.1815 23.1785 98.7361 23.3675 99.2878 23.565C99.8396 23.7626 100.388 23.9684 100.934 24.1825C101.479 24.3966 102.021 24.6189 102.56 24.8494C103.099 25.08 103.634 25.3187 104.166 25.5654C113.987 30.2204 122.555 37.6647 126.277 48.107C130.21 59.1423 128.436 72.3963 123.5 82.831C122.199 80.2284 121.342 76.5062 121.098 73.6024C119.878 78.8392 119.899 83.3409 122.368 88.2446C123.233 89.9616 124.301 91.8002 124.703 93.6922C124.929 94.7558 124.812 95.616 124.215 96.533C122.423 99.2858 118.014 101.767 114.828 102.399C114.553 102.454 114.276 102.497 113.997 102.527C113.719 102.558 113.439 102.577 113.159 102.584C112.878 102.591 112.598 102.586 112.319 102.569C112.039 102.552 111.76 102.523 111.483 102.482C107.204 101.89 100.29 98.7549 96.6778 96.3333C98.609 98.7224 102.661 103.702 105.282 104.963C105.096 108.526 104.865 112.087 104.587 115.644C104.474 117.126 104.513 119.053 104.069 120.441C103.356 122.668 101.225 124.375 99.2237 125.404C98.7951 122.554 98.8252 119.611 98.2932 116.78C97.7789 119.97 97.4644 123.293 97.2231 126.516C95.0936 127.644 93.0051 128.815 90.7074 129.574C90.4254 126.269 89.838 122.996 89.496 119.698C89.1639 123.211 88.7917 126.763 88.6482 130.289C86.1128 131.189 83.3498 131.746 80.6716 131.967C80.5069 130.861 79.8125 122.61 79.5609 122.332L79.5018 122.661C79.4232 125.784 78.8132 128.908 78.6172 132.034C75.9774 131.838 73.0507 131.294 70.567 130.368C70.2453 126.834 70.3565 123.165 70.0676 119.608C69.644 122.958 68.9722 126.292 68.4089 129.622C66.2997 128.968 64.2201 127.826 62.2811 126.783L61.2015 115.365C61.0237 116.52 60.9789 117.719 60.8819 118.884L60.3096 125.479C58.2588 124.295 56.4878 122.858 54.7431 121.269C54.6982 117.858 54.4336 114.43 54.2177 111.025C54.0973 109.127 54.0586 107.213 53.893 105.32C54.8746 104.401 55.9068 103.533 56.8966 102.623C59.177 100.545 61.4248 98.4328 63.6401 96.2859C58.8733 98.723 53.0135 101.99 47.6165 102.57C43.886 102.971 40.6424 101.867 37.7364 99.5144C36.4776 98.4954 34.4396 96.9045 34.2152 95.2179C33.9242 93.0314 35.6806 90.6974 36.5325 88.7868C36.9389 87.8755 37.2466 86.8832 37.5086 85.9202C37.6459 85.4039 37.7711 84.8848 37.8841 84.3628C37.9973 83.8407 38.0982 83.3163 38.1867 82.7896C38.2753 82.2628 38.3516 81.7343 38.4154 81.2039C38.4793 80.6737 38.5308 80.1422 38.5699 79.6095C38.6089 79.0768 38.6355 78.5434 38.6497 78.0093C38.6638 77.4754 38.6655 76.9414 38.6547 76.4073C38.644 75.8734 38.6207 75.3399 38.585 74.8068C38.5493 74.2739 38.5012 73.7421 38.4407 73.2114C38.159 76.0862 36.8658 80.4613 35.7838 83.1841C33.0417 77.3255 31.1932 71.085 30.7557 64.6095C30.1713 55.9602 32.0977 47.6255 36.9204 40.3881C37.7654 39.1201 38.65 37.8587 39.6586 36.7144C47.2459 28.1071 58.126 22.8786 69.345 20.9937C71.8242 20.5772 74.3193 20.3948 76.8263 20.2448Z" fill="#0D0D0D"/>
<path d="M89.8183 23.7385C89.7447 24.5858 88.332 27.4706 87.9287 28.4356C86.3464 32.2224 84.8424 36.0546 83.1363 39.7875C85.8307 39.6826 88.5196 39.4957 91.2126 39.3849C92.7801 39.3205 94.4328 39.4127 95.9831 39.1589C93.6459 41.0834 91.1146 42.7593 88.7095 44.595L69.0781 59.4502C68.5162 59.8471 67.9687 60.2671 67.416 60.677C68.5251 58.9971 69.8186 57.4222 70.9747 55.7691C72.3118 53.8698 73.6608 51.979 75.0219 50.0967C76.0707 48.6384 77.0922 47.1509 78.2633 45.7865C77.2619 45.9879 76.2168 46.0645 75.2032 46.1893C72.8974 46.4713 70.5893 46.7336 68.2789 46.9762C69.2698 45.6723 70.5429 44.4849 71.6638 43.2898L78.1912 36.3158L86.3671 27.4169C87.5105 26.1879 88.6028 24.8965 89.8183 23.7385Z" fill="white"/>
<path d="M78.8489 80.6908C79.4208 80.6265 79.9191 80.6176 80.4651 80.8244C82.5832 81.6264 83.7674 84.0519 84.6578 85.9702C86.67 90.3053 88.6531 97.3529 86.9324 101.961C86.5802 102.905 86.0168 103.892 85.048 104.301C84.3152 104.611 83.4845 104.508 82.7707 104.196C81.1129 103.473 80.2179 101.825 79.5658 100.232L79.5428 100.085C79.3651 100.082 79.2624 100.406 79.1873 100.562C78.4525 102.083 77.4883 103.643 75.8492 104.324C75.2228 104.584 74.5641 104.627 73.9338 104.352C72.8742 103.889 72.1701 102.736 71.7864 101.685C70.2718 97.5392 72.0334 90.2447 73.8695 86.3223C74.9542 84.0051 76.3241 81.6051 78.8489 80.6908Z" fill="white"/>
<path d="M52.2595 60.4082C53.8314 60.2686 55.4414 60.5536 56.9363 61.0296C59.9923 62.0028 62.8124 63.671 65.6432 65.1457C68.6133 66.6931 71.6167 68.1899 74.5424 69.82C74.6793 72.3757 74.4076 74.8404 73.4538 77.2287C71.5194 82.0717 67.4837 85.4569 62.7747 87.4885C60.5448 88.4373 58.1697 89.153 55.7594 89.43C52.8051 89.7693 49.7554 89.1163 47.407 87.2224C44.3014 84.7178 42.583 80.8973 42.1825 76.9826C41.7284 72.5431 42.8331 67.1631 45.726 63.6621C47.4697 61.552 49.5748 60.6755 52.2595 60.4082Z" fill="white"/>
<path d="M105.475 60.0707C106.658 59.9975 107.805 60.0793 108.947 60.4114C111.543 61.1657 113.591 63.0873 114.869 65.4257C117.313 69.899 117.743 75.8649 116.29 80.7226C115.425 83.6149 113.556 86.6067 110.82 88.0511C106.891 90.1256 101.998 89.1764 97.9656 87.9231C94.4755 86.6547 91.1457 84.8592 88.5449 82.1591C84.8356 78.3084 84.8334 74.549 84.9379 69.5571C89.2982 67.2812 93.537 64.8018 97.9843 62.6887C99.3708 62.0301 100.771 61.3046 102.221 60.8006C102.746 60.6125 103.281 60.4574 103.825 60.3353C104.37 60.2132 104.92 60.1251 105.475 60.0707Z" fill="white"/>
</svg>
