<svg width="17" height="16" viewBox="0 0 17 16" fill="none" xmlns="http://www.w3.org/2000/svg">
<path d="M10.4723 8.00883H13.5723C13.5723 8.42439 13.9073 8.75983 14.3223 8.75983V8.93758H10.4724V8.98264C10.4724 9.14785 10.4324 9.30307 10.3624 9.43826H14.3223V10.4146H2.67743V9.43826H6.63741C6.56741 9.30308 6.52741 9.14787 6.52741 8.98264V8.93758H2.67751V8.75983C3.09252 8.75983 3.42751 8.42438 3.42751 8.00883H6.52749V7.08008H1.5V13.9994C1.5 14.2748 1.72499 14.5001 2 14.5001H14.9999C15.2749 14.5001 15.4999 14.2748 15.4999 13.9994V7.08008H10.4724L10.4723 8.00883ZM14.3222 12.5674C13.9072 12.5674 13.5722 12.9054 13.5722 13.3184H3.42727C3.42727 12.9054 3.09226 12.5674 2.67727 12.5674V12.3897H14.3222V12.5674ZM14.3222 11.889H2.67727V10.9152H14.3222V11.889Z" fill="white"/>
<path d="M13.4999 1.51752H13.0174L12.9999 1.5H3.74999L3.73248 1.51752H3.49999C2.395 1.51752 1.5 2.41623 1.5 3.52021V6.57935H15.4999V3.52021C15.4999 2.41623 14.6048 1.51752 13.4999 1.51752ZM2.70487 3.19978H14.1822C14.2622 3.42759 14.3097 3.67041 14.3197 3.92325V4.02088V4.17358H2.67725V3.52021C2.67725 3.41006 2.68737 3.30491 2.70487 3.19978ZM3.38237 2.00067H13.2873C13.4623 2.13084 13.6248 2.27854 13.7623 2.44877C13.8273 2.52888 13.8873 2.61149 13.9423 2.69911H2.85242C2.89242 2.61149 2.93742 2.52888 2.98992 2.44877C3.09742 2.27854 3.22987 2.13084 3.38237 2.00067ZM2.67738 5.64812V4.67432H14.3223V5.64812H2.67738Z" fill="white"/>
<path d="M9.47229 9.48318C9.7473 9.48318 9.97229 9.25788 9.97229 8.98251V7.07739H7.02734V8.98251C7.02734 9.25788 7.25233 9.48318 7.52734 9.48318H9.47229ZM8.2498 7.81086C8.2498 7.67317 8.3623 7.56052 8.4998 7.56052C8.6373 7.56052 8.7498 7.67317 8.7498 7.81086V8.49928C8.7498 8.63697 8.6373 8.74962 8.4998 8.74962C8.3623 8.74962 8.2498 8.63697 8.2498 8.49928V7.81086Z" fill="white"/>
</svg>
