<?xml version="1.0" encoding="utf-8" ?>
<svg xmlns="http://www.w3.org/2000/svg" xmlns:xlink="http://www.w3.org/1999/xlink" width="1024" height="1024">
	<path fill="#03171D" d="M602.574 948.396L512.003 1004.31L306.082 878.483L268.255 855.115L250.974 844.592C247.911 842.725 244.19 840.909 241.639 838.358C240.489 837.207 239.954 835.886 239.682 834.298C239.05 830.607 239.465 826.122 239.503 822.372L239.896 799.822L172.333 758.522L141.207 739.366C135.488 735.734 129.521 732.512 124.594 727.806C123.934 722.193 124.203 716.284 124.237 710.633L124.436 683.682L124.686 600.077L124.582 297.267L239.436 226.889C240.072 222.825 239.524 217.943 239.49 213.8L239.199 186.555L511.06 21.7186C513.044 21.8865 515.31 23.3888 517.053 24.3761L552.411 45.75L609.547 80.3103L720.769 147.716L765.844 174.677L785.002 187.432C785.692 190.885 785.216 195.305 785.21 198.876L784.968 227.001L899.289 297.731L898.859 676.144L898.959 710.663C898.963 715.129 899.671 721 898.747 725.33C898.454 726.7 897.64 727.786 896.658 728.75C892.931 732.407 886.889 735.197 882.404 737.922L857.379 753.373L812.791 781.513L784.533 799.38L784.716 836.335L657.448 914.788L620.117 937.809C614.526 941.253 608.557 945.73 602.574 948.396Z"/>
	<path fill="#FEFEFE" d="M240.941 700.683C239.473 706.499 236.971 712.038 234.847 717.643C233.508 721.177 232.356 725.356 230.481 728.622C228.002 728.148 225.984 727.101 223.743 725.997L228.949 715C230.445 711.575 231.373 708.24 234.01 705.481C235.889 703.515 238.628 702.096 240.941 700.683Z"/>
	<path fill="#F8D9AA" d="M315.881 641.264L335.375 635.226C336.932 637.282 337.797 641.207 338.691 643.705L318.071 649.782C318.046 647.144 316.682 643.789 315.881 641.264Z"/>
	<path fill="#1D3E48" d="M179.988 681.964C185.307 684.758 189.803 688.975 194.641 692.498C201.923 697.803 210.676 702.845 216.953 709.217L213.748 714.81L212.558 716.576C210.941 716.883 183.754 698.45 180.013 695.969L179.988 681.964Z"/>
	<path fill="#1D3E48" d="M843.358 681.372L844.013 681.618C844.725 683.236 844.461 685.108 844.472 686.86L844.524 697.455L844.173 697.711C839.873 700.823 813.772 718.904 810.25 718.351L809.504 716.866L805.606 706.686L843.358 681.372Z"/>
	<path fill="#A76716" d="M684.078 638.021C688.153 639.652 692.774 641.318 697.072 642.194C696.767 645.08 696.445 647.894 696.686 650.801C695.127 652.819 694.817 655.134 694.155 657.551L690.75 670.5C688.749 678.134 685.672 686.409 684.716 694.184L662.741 688.184C668.112 677.702 673.379 667.284 677.878 656.387C680.191 650.783 682.692 644.714 683.93 638.768L684.078 638.021Z"/>
	<path fill="#C4883B" d="M696.686 650.801C699.864 664.725 700.728 677.633 712.161 687.915C715.326 690.761 719.356 693.147 722.963 695.41C735.046 702.99 747.786 708.855 760.808 714.596C765.095 716.485 769.983 717.493 774.029 719.775C774.906 720.27 775.189 720.83 775.651 721.681L684.716 694.184C685.672 686.409 688.749 678.134 690.75 670.5L694.155 657.551C694.817 655.134 695.127 652.819 696.686 650.801Z"/>
	<path fill="#17656D" d="M404.987 747.922L418.914 761.695C421.321 764.085 424.865 766.919 426.368 769.963L426.08 819.089L405.055 802.899L404.975 802.13L404.987 747.922Z"/>
	<path fill="#A76716" d="M338.691 643.705L358.555 683.681L332.801 692.678L317.704 650.05L318.071 649.782L338.691 643.705Z"/>
	<defs>
		<linearGradient id="gradient_0" gradientUnits="userSpaceOnUse" x1="257.71072" y1="658.16364" x2="266.22452" y2="688.75903">
			<stop offset="0" stop-color="#FFFDDE"/>
			<stop offset="1" stop-color="#FFFFFE"/>
		</linearGradient>
	</defs>
	<path fill="url(#gradient_0)" d="M244.943 695.825C240.852 697.25 236.299 698.073 232.009 698.642C229.3 699.002 201.853 677.788 198.619 675.318L315.881 641.264C316.682 643.789 318.046 647.144 318.071 649.782L317.704 650.05L217.987 678.85C218.365 679.813 221.668 681.65 222.663 682.328C230.058 687.366 237.012 691.678 244.943 695.825Z"/>
	<path fill="#468699" d="M405.055 802.899L426.08 819.089L425.984 885.537C424.083 885.12 421.462 882.979 419.738 881.899L403.695 871.984C405.55 865.554 404.832 859.444 404.545 852.876L404.471 839.849L405.055 802.899Z"/>
	<path fill="#468699" d="M621.859 801.082C622.861 817.809 622.029 835.088 622.03 851.881C622.03 857.843 621.628 864.057 622.255 869.98L599.981 883.773L599.823 818.229L601.627 817.146C609.177 812.863 614.541 805.585 621.859 801.082Z"/>
	<path fill="#FAC337" d="M244.943 695.825C237.012 691.678 230.058 687.366 222.663 682.328C221.668 681.65 218.365 679.813 217.987 678.85L317.704 650.05L332.801 692.678L230.481 728.622C232.356 725.356 233.508 721.177 234.847 717.643C236.971 712.038 239.473 706.499 240.941 700.683L247.576 696.027L247.5 695.577L244.943 695.825Z"/>
	<path fill="#F8D9AA" d="M282.194 669.505C283.831 669.455 285.725 669.291 287.318 669.718C290.606 670.601 293.435 673.815 294.911 676.748C296.341 679.589 297.165 682.86 296.058 685.97C294.678 689.847 291.484 691.837 287.99 693.535C286.501 693.557 285.084 693.518 283.625 693.186C280.001 692.361 277.342 690.532 275.457 687.319C273.816 684.52 272.817 681.262 273.805 678.036C275.252 673.308 277.977 671.611 282.194 669.505Z"/>
	<path fill="#22787F" d="M310.944 813.422C305.109 810.795 300.01 806.531 294.338 803.52L294.363 767.805C289.441 763.424 283.653 760.533 278.073 757.143L246.187 737.304L365.241 695.725L404.987 747.922L404.975 802.13C388.431 786.555 373.198 769.766 361.001 750.5C354.011 739.46 348.396 728.067 342.821 716.279L272.374 737.282L311.217 767.275L310.944 813.422Z"/>
	<path fill="#FAC337" d="M684.078 638.021C684.696 636.572 684.944 635.256 686.25 634.34L823.753 676.44L786.796 700.735L794.219 718.031L798.647 729.034L783.942 724.449C781.24 723.61 778.188 722.932 775.651 721.681C775.189 720.83 774.906 720.27 774.029 719.775C769.983 717.493 765.095 716.485 760.808 714.596C747.786 708.855 735.046 702.99 722.963 695.41C719.356 693.147 715.326 690.761 712.161 687.915C700.728 677.633 699.864 664.725 696.686 650.801C696.445 647.894 696.767 645.08 697.072 642.194C692.774 641.318 688.153 639.652 684.078 638.021Z"/>
	<path fill="#FEFEFE" d="M684.078 638.021C684.696 636.572 684.944 635.256 686.25 634.34L823.753 676.44L786.796 700.735L794.219 718.031C791.868 716.493 790.721 713.664 788.914 711.535C786.304 708.46 783.035 705.893 779.597 703.806C771.874 699.117 762.84 696.079 754.75 691.942C751.647 690.355 748.24 688.791 745.621 686.464L782.298 698.821L813.347 678.071L697.072 642.194C692.774 641.318 688.153 639.652 684.078 638.021Z"/>
	<path fill="#F26D67" d="M633.73 551.598C634.456 551.395 634.54 551.242 635.27 551.515L699.091 570.241L685.418 613.028C673.105 646.827 657.702 679.62 636.93 709.109C619.589 733.727 598.482 755.658 575.461 774.992C556.376 791.02 535.473 806.13 513.5 818.005L511.624 818.965C498.733 811.874 487.163 803.252 475.25 794.664C457.156 781.621 439.555 767.499 423.662 751.822C384.112 712.81 352.212 662.196 336.822 608.72C334.371 600.203 332.369 590.885 330.799 582.168C330.236 579.04 330.428 575.341 329.514 572.378L387.206 554.715C387.089 557.742 386.469 560.735 385.951 563.714C382.028 564.388 378.298 566.119 374.48 567.25L352.5 573.49C347.814 574.836 343.133 575.911 338.687 577.954L339.304 581.167C344.879 605.238 353.969 628.692 364.502 651C369.371 661.311 374.257 671.415 380.193 681.169C385.073 689.188 390.579 696.693 396.063 704.298C402.859 713.721 409.847 723.157 417.686 731.75C435.461 751.235 455.996 768.565 476.809 784.694C487.65 793.096 498.285 802.382 509.907 809.649L520.5 803.972C536.315 794.96 551.214 784.077 565.364 772.667C576.797 763.447 588.117 753.728 598.255 743.094C642.604 696.575 669.23 636.439 686.303 575.208L635.275 560.223L633.73 551.598Z"/>
	<path fill="#22787F" d="M599.823 818.229L599.459 779.115C599.456 777.048 598.768 771.45 599.45 769.711C599.569 769.407 600.924 768.285 601.229 767.988L606.241 763.044L619.868 748.293L637.95 726.678L658.507 697.993L777.767 736.427C777.505 737.283 732.406 766.442 726.991 770.007L727.524 804.525C727.093 806.069 715.237 812.445 712.967 813.863C709.541 793.141 713.379 772.375 724.341 754.534L730.522 745.5C731.77 743.841 733.439 742.189 734.251 740.282L680.086 723.93C671.811 737.918 664.054 752.384 653.874 765.117L636.014 785.854L626.859 795.295C625.062 797.111 623.058 798.802 621.859 801.082C614.541 805.585 609.177 812.863 601.627 817.146L599.823 818.229Z"/>
	<path fill="#55B3AE" d="M621.859 801.082C623.058 798.802 625.062 797.111 626.859 795.295L636.014 785.854L653.874 765.117C664.054 752.384 671.811 737.918 680.086 723.93L734.251 740.282C733.439 742.189 731.77 743.841 730.522 745.5L724.341 754.534C713.379 772.375 709.541 793.141 712.967 813.863L622.255 869.98C621.628 864.057 622.03 857.843 622.03 851.881C622.029 835.088 622.861 817.809 621.859 801.082Z"/>
	<path fill="#55B3AE" d="M310.944 813.422L311.217 767.275L272.374 737.282L342.821 716.279C348.396 728.067 354.011 739.46 361.001 750.5C373.198 769.766 388.431 786.555 404.975 802.13L405.055 802.899L404.471 839.849L404.545 852.876C404.832 859.444 405.55 865.554 403.695 871.984L310.944 813.422Z"/>
	<path fill="#D92322" d="M635.275 560.223L686.303 575.208C669.23 636.439 642.604 696.575 598.255 743.094C588.117 753.728 576.797 763.447 565.364 772.667C551.214 784.077 536.315 794.96 520.5 803.972L509.907 809.649C498.285 802.382 487.65 793.096 476.809 784.694C455.996 768.565 435.461 751.235 417.686 731.75C409.847 723.157 402.859 713.721 396.063 704.298C390.579 696.693 385.073 689.188 380.193 681.169C374.257 671.415 369.371 661.311 364.502 651C353.969 628.692 344.879 605.238 339.304 581.167L338.687 577.954C343.133 575.911 347.814 574.836 352.5 573.49L374.48 567.25C378.298 566.119 382.028 564.388 385.951 563.714C381.615 588.048 376.764 612.95 380.091 637.729C380.779 642.851 381.648 648.018 382.82 653.054C383.618 656.48 384.749 659.977 385.221 663.463C388.618 673.03 394.34 681.686 399.84 690.148C406.405 700.246 413.122 710.696 420.75 720.03C428.6 729.636 437.214 738.321 445.794 747.25C451.635 753.329 457.477 759.705 463.764 765.331L490.585 788.406C495.396 792.53 500.463 796.483 504.88 801.038C506.985 800.987 509.627 801.229 511.617 800.549L512.654 799.832C514.392 800.465 515.689 800.699 517.509 800.188C521.156 799.164 525.698 795.081 528.611 792.667C538.727 784.282 547.954 774.542 556.95 764.984C565.984 755.386 574.944 745.604 582.691 734.908C589.182 725.947 594.406 716.236 599.7 706.55L603.784 713.278C616.376 695.02 623.349 675.391 625.126 653.342L634.39 663.278C636.399 657.907 637.099 652.117 637.988 646.48C642.562 617.473 639.729 589.047 635.275 560.223Z"/>
	<path fill="#1D3E48" d="M229.162 447.093C227.749 450.116 227.641 453.884 227.339 457.197L226.486 477.633C226.444 494.776 226.271 511.898 227.677 529C229.577 552.105 234.574 575.386 241.47 597.5C244.83 608.277 249.265 618.545 253.477 629C255.128 633.098 258.202 638.545 258.776 642.796L180.014 664.849L180.868 331.411C182.607 329.229 186.189 327.351 188.536 325.723C186.691 354.886 193.048 384.733 206.425 410.713C213.006 423.494 221.102 435.242 229.162 447.093Z"/>
	<path fill="#1D3E48" d="M833.995 326.282C837.665 327.587 840.662 329.476 843.976 331.484L844.001 666.821L760.633 641.998C766.32 628.921 772.549 616.29 777.531 602.892C791.151 566.262 795.472 527.124 794.975 488.275L793.998 467.5C793.848 463.941 794.3 459.257 793.297 455.879C793.166 455.44 793.063 455.305 792.851 454.953C798.445 446.612 804.48 438.829 809.581 430.107C817.677 416.267 823.242 401.061 827.455 385.642C830.02 376.252 832.298 366.566 833.227 356.857C834.199 346.705 834.043 336.469 833.995 326.282Z"/>
	<path fill="#8C1D12" d="M439.909 847.201C439.153 840.165 439.848 832.868 439.827 825.806L439.511 780.248C440.205 780.17 443.06 782.902 443.75 783.48C465.036 801.299 488.576 816.833 511.31 832.765L585.534 781.58L585.064 826.555L585.171 872.408L585.22 885.208C585.227 887.408 585.469 889.915 585.088 892.074L512.1 937.544C510.478 937.692 509.258 936.722 507.914 935.935L439.995 893.584L439.909 847.201Z"/>
	<path fill="#D92322" d="M439.909 847.201L439.955 846.54L440.153 829.405L507.997 867.42L507.914 935.935L439.995 893.584L439.909 847.201Z"/>
	<path fill="#D92322" d="M512.1 937.544L511.948 868.442L585.064 826.555L585.171 872.408L585.22 885.208C585.227 887.408 585.469 889.915 585.088 892.074L512.1 937.544Z"/>
	<defs>
		<linearGradient id="gradient_1" gradientUnits="userSpaceOnUse" x1="895.54468" y1="641.96002" x2="595.13123" y2="566.71606">
			<stop offset="0" stop-color="#B16208"/>
			<stop offset="1" stop-color="#CF9A48"/>
		</linearGradient>
	</defs>
	<path fill="url(#gradient_1)" d="M699.629 159.112L764.405 198.072L764.448 238.91L878.618 309.675L878.5 560.701L878.478 636.866L878.472 658.927C878.471 662.627 878.151 666.671 878.567 670.334C879.675 668.971 879.425 663.683 879.245 661.75L879.116 661C878.85 659.372 878.922 657.193 879.375 655.625L879.503 656.497L879.997 656.497C881.039 655.108 880.16 654.187 880.875 653.125L881.5 653.745L882.245 653.25L882.25 652.5L882.622 652L882.997 651.375C883.919 650.264 884.589 649.891 885.245 648.5L885.125 647.625L886.745 646.25L886.625 645.125L888.245 643.75L888.125 642.625L888.997 642.497L889.875 641.625L890.5 642.245C891.847 642.584 892.285 643.28 893.255 644.25C893.255 645.001 893.038 646.598 893.255 647.25C893.414 647.728 894.552 648.262 894.755 648.75C895.252 649.943 894.226 652.603 894.755 653.75C894.802 653.853 895.73 654.924 895.755 655C896.13 656.125 895.43 656.263 896.255 657.5C896.255 659.332 895.771 662.523 896.755 664L896.755 667.75L897.497 667.875C897.996 666.114 897.764 664.073 897.75 662.245C898.265 663.801 898.025 665.767 898.024 667.422L898.004 678.678C898.002 679.313 897.789 680.056 898.269 680.497C898.3 679.244 898.029 677.016 898.859 676.144L898.959 710.663C898.963 715.129 899.671 721 898.747 725.33C898.454 726.7 897.64 727.786 896.658 728.75C892.931 732.407 886.889 735.197 882.404 737.922L857.379 753.373L812.791 781.513L784.533 799.38L784.716 836.335L657.448 914.788L620.117 937.809C614.526 941.253 608.557 945.73 602.574 948.396C600.52 948.302 599.903 947.933 598.255 949.25L597.75 948.255C597.065 948.94 596.988 949.061 596.755 950L596.25 949.755L595.875 950.253L595.25 949.755L594.5 950.255C593.798 950.794 593.392 951.42 592.501 951.644C591.711 951.843 592.166 951.619 591.281 952.208L587.002 955.003L585.5 955.755C584.704 956.246 583.722 956.581 583.033 957.098C582.26 957.676 582.719 957.402 581.735 957.895L581 958.255C579.806 958.945 579.787 958.403 578.75 958.755C577.559 959.159 577.508 960.412 575.75 960.755L574.502 961.003L572.503 961.502L571.75 961.755L571 961.75C570.288 962.493 569.568 963.119 568.755 963.75L567.875 963.625L567.378 964L566.75 964L565.625 965.253L564.875 965.253C563.275 966.474 561.406 967.127 559.755 968.25C559.021 968.749 558.409 969.204 557.577 969.537L557 969.755C555.921 970.337 554.706 971.478 553.5 971.75L552.75 971.755L551.378 973L550.875 973.125L550.378 973.5L549.875 973.625L549.375 973.875L548.5 974.255L547.003 975.003L546.25 975L545.255 976.25L544.25 976L542.625 977.125C540.91 977.1 539.421 977.417 537.75 977.755C537.764 976.759 537.784 975.863 537.622 974.875L537.5 974.25L538.245 973.75L538.125 972.625C538.768 971.998 539.243 971.504 539.745 970.75L539.5 969.75C540.524 969.743 540.326 969.669 540.997 968.997C541.001 967.873 541.362 967.888 542.125 967.125C542.725 967.572 542.417 967.497 542.997 967.497L543 966.75C544.312 966.741 545.488 965.342 546.497 964.497L546.5 963.75L547.25 963.745L548.497 962.375L548.625 961.625C549.305 962.131 548.932 961.921 549.75 962.245L551.245 960.75C551.727 960.001 551.712 959.736 552.5 959.25L553.5 958.745L554 958.25C555.158 958.242 555.21 957.785 555.997 956.997L556.125 956.125L557 956.745C558.443 955.474 560.054 954.769 561.497 953.497L561.5 952.75L562.25 952.745L563.125 951.625C563.725 952.072 563.417 951.997 563.997 951.997L564 951.25L564.997 950.497L565.125 949.625L566 950.245L567.245 949.25L566.875 948.503L566.503 948.503L565.625 948.753L565.033 947.285C551.476 954.609 538.41 963.424 525.239 971.471C520.903 974.12 515.372 978.774 510.459 979.908C506.829 977.69 502.839 975.512 499.531 972.847L498.125 970.822C498.11 970.039 498.127 969.473 497.802 968.746C497.265 967.543 496.665 965.728 496.28 964.477C495.968 963.46 496.395 962.452 496.774 961.531L497.993 961.196C498.34 959.709 498.75 960.289 499.268 959.268C499.938 957.952 498.715 957.109 498.781 955.744C499.737 956.303 500.342 956.725 501.473 956.716L502.635 954.578L511.51 959.981L746.458 815.03L746.595 779.088L861.491 705.004L860.864 320.022L746.975 249.265L746.903 207.483L696.432 176.826L698.608 176.481C698.632 175.703 698.704 175.992 698.415 175.288C698.026 174.34 697.624 173.536 697.435 172.516L697.316 171.777C697.165 171.238 696.708 170.435 696.685 169.837C696.626 168.362 697.53 166.084 698.339 164.841C699.626 162.861 697.467 162.264 698.012 160.022L699.629 159.112Z"/>
	<path fill="#8C1D12" d="M878.567 670.334C879.675 668.971 879.425 663.683 879.245 661.75L879.116 661C878.85 659.372 878.922 657.193 879.375 655.625L879.503 656.497L879.997 656.497C881.039 655.108 880.16 654.187 880.875 653.125L881.5 653.745L882.245 653.25L882.25 652.5L882.622 652L882.997 651.375C883.919 650.264 884.589 649.891 885.245 648.5L885.125 647.625L886.745 646.25L886.625 645.125L888.245 643.75L888.125 642.625L888.997 642.497L889.875 641.625L890.5 642.245C891.847 642.584 892.285 643.28 893.255 644.25C893.255 645.001 893.038 646.598 893.255 647.25C893.414 647.728 894.552 648.262 894.755 648.75C895.252 649.943 894.226 652.603 894.755 653.75C894.802 653.853 895.73 654.924 895.755 655C896.13 656.125 895.43 656.263 896.255 657.5C896.255 659.332 895.771 662.523 896.755 664L896.755 667.75L897.497 667.875C897.996 666.114 897.764 664.073 897.75 662.245C898.265 663.801 898.025 665.767 898.024 667.422L898.004 678.678C898.002 679.313 897.789 680.056 898.269 680.497C898.3 679.244 898.029 677.016 898.859 676.144L898.959 710.663C898.963 715.129 899.671 721 898.747 725.33C898.454 726.7 897.64 727.786 896.658 728.75C892.931 732.407 886.889 735.197 882.404 737.922L857.379 753.373L812.791 781.513L784.533 799.38L784.716 836.335L657.448 914.788L620.117 937.809C614.526 941.253 608.557 945.73 602.574 948.396C600.52 948.302 599.903 947.933 598.255 949.25L597.75 948.255C597.065 948.94 596.988 949.061 596.755 950L596.25 949.755L595.875 950.253L595.25 949.755L594.5 950.255C593.798 950.794 593.392 951.42 592.501 951.644C591.711 951.843 592.166 951.619 591.281 952.208L587.002 955.003L585.5 955.755C584.704 956.246 583.722 956.581 583.033 957.098C582.26 957.676 582.719 957.402 581.735 957.895L581 958.255C579.806 958.945 579.787 958.403 578.75 958.755C577.559 959.159 577.508 960.412 575.75 960.755L574.502 961.003L572.503 961.502L571.75 961.755L571 961.75C570.288 962.493 569.568 963.119 568.755 963.75L567.875 963.625L567.378 964L566.75 964L565.625 965.253L564.875 965.253C563.275 966.474 561.406 967.127 559.755 968.25C559.021 968.749 558.409 969.204 557.577 969.537L557 969.755C555.921 970.337 554.706 971.478 553.5 971.75L552.75 971.755L551.378 973L550.875 973.125L550.378 973.5L549.875 973.625L549.375 973.875L548.5 974.255L547.003 975.003L546.25 975L545.255 976.25L544.25 976L542.625 977.125C540.91 977.1 539.421 977.417 537.75 977.755C537.764 976.759 537.784 975.863 537.622 974.875L537.5 974.25L538.245 973.75L538.125 972.625C538.768 971.998 539.243 971.504 539.745 970.75L539.5 969.75C540.524 969.743 540.326 969.669 540.997 968.997C541.001 967.873 541.362 967.888 542.125 967.125C542.725 967.572 542.417 967.497 542.997 967.497L543 966.75C544.312 966.741 545.488 965.342 546.497 964.497L546.5 963.75L547.25 963.745L548.497 962.375L548.625 961.625C549.305 962.131 548.932 961.921 549.75 962.245L551.245 960.75C551.727 960.001 551.712 959.736 552.5 959.25L553.5 958.745L554 958.25C555.158 958.242 555.21 957.785 555.997 956.997L556.125 956.125L557 956.745C558.443 955.474 560.054 954.769 561.497 953.497L561.5 952.75L562.25 952.745L563.125 951.625C563.725 952.072 563.417 951.997 563.997 951.997L564 951.25L564.997 950.497L565.125 949.625L566 950.245L567.245 949.25L566.875 948.503L566.503 948.503L565.625 948.753L565.033 947.285L763.481 824.862C763.957 821.035 763.589 816.761 763.575 812.877L763.474 788.785L878.475 716.53L878.567 670.334Z"/>
	<defs>
		<linearGradient id="gradient_2" gradientUnits="userSpaceOnUse" x1="771.27338" y1="786.55853" x2="220.75031" y2="205.20224">
			<stop offset="0" stop-color="#7E2215"/>
			<stop offset="1" stop-color="#CD692D"/>
		</linearGradient>
	</defs>
	<path fill="url(#gradient_2)" d="M602.574 948.396L512.003 1004.31L306.082 878.483L268.255 855.115L250.974 844.592C247.911 842.725 244.19 840.909 241.639 838.358C240.489 837.207 239.954 835.886 239.682 834.298C239.05 830.607 239.465 826.122 239.503 822.372L239.896 799.822L172.333 758.522L141.207 739.366C135.488 735.734 129.521 732.512 124.594 727.806C123.934 722.193 124.203 716.284 124.237 710.633L124.436 683.682L124.686 600.077L124.582 297.267L239.436 226.889C240.072 222.825 239.524 217.943 239.49 213.8L239.199 186.555L511.06 21.7186C513.044 21.8865 515.31 23.3888 517.053 24.3761L552.411 45.75L609.547 80.3103L720.769 147.716L765.844 174.677L785.002 187.432C785.692 190.885 785.216 195.305 785.21 198.876L784.968 227.001L899.289 297.731L898.859 676.144C898.029 677.016 898.3 679.244 898.269 680.497C897.789 680.056 898.002 679.313 898.004 678.678L898.024 667.422C898.025 665.767 898.265 663.801 897.75 662.245C897.764 664.073 897.996 666.114 897.497 667.875L896.755 667.75L896.755 664C895.771 662.523 896.255 659.332 896.255 657.5C895.43 656.263 896.13 656.125 895.755 655C895.73 654.924 894.802 653.853 894.755 653.75C894.226 652.603 895.252 649.943 894.755 648.75C894.552 648.262 893.414 647.728 893.255 647.25C893.038 646.598 893.255 645.001 893.255 644.25C892.285 643.28 891.847 642.584 890.5 642.245L889.875 641.625L888.997 642.497L888.125 642.625L888.245 643.75L886.625 645.125L886.745 646.25L885.125 647.625L885.245 648.5C884.589 649.891 883.919 650.264 882.997 651.375L882.622 652L882.25 652.5L882.245 653.25L881.5 653.745L880.875 653.125C880.16 654.187 881.039 655.108 879.997 656.497L879.503 656.497L879.375 655.625C878.922 657.193 878.85 659.372 879.116 661L879.245 661.75C879.425 663.683 879.675 668.971 878.567 670.334C878.151 666.671 878.471 662.627 878.472 658.927L878.478 636.866L878.5 560.701L878.618 309.675L764.448 238.91L764.405 198.072L699.629 159.112L698.012 160.022C697.467 162.264 699.626 162.861 698.339 164.841C697.53 166.084 696.626 168.362 696.685 169.837C696.708 170.435 697.165 171.238 697.316 171.777L697.435 172.516C697.624 173.536 698.026 174.34 698.415 175.288C698.704 175.992 698.632 175.703 698.608 176.481L696.432 176.826L550.688 89.1124L511.366 65.4298L277.489 208.019L277.394 234.514C277.38 238.985 277.804 243.847 277.193 248.257L161.501 320.995L162.011 706.026L276.805 777.729L276.516 814.545L354.69 863.051L502.635 954.578L501.473 956.716C500.342 956.725 499.737 956.303 498.781 955.744C498.715 957.109 499.938 957.952 499.268 959.268C498.75 960.289 498.34 959.709 497.993 961.196L496.774 961.531C496.395 962.452 495.968 963.46 496.28 964.477C496.665 965.728 497.265 967.543 497.802 968.746C498.127 969.473 498.11 970.039 498.125 970.822L499.531 972.847C502.839 975.512 506.829 977.69 510.459 979.908C515.372 978.774 520.903 974.12 525.239 971.471C538.41 963.424 551.476 954.609 565.033 947.285L565.625 948.753L566.503 948.503L566.875 948.503L567.245 949.25L566 950.245L565.125 949.625L564.997 950.497L564 951.25L563.997 951.997C563.417 951.997 563.725 952.072 563.125 951.625L562.25 952.745L561.5 952.75L561.497 953.497C560.054 954.769 558.443 955.474 557 956.745L556.125 956.125L555.997 956.997C555.21 957.785 555.158 958.242 554 958.25L553.5 958.745L552.5 959.25C551.712 959.736 551.727 960.001 551.245 960.75L549.75 962.245C548.932 961.921 549.305 962.131 548.625 961.625L548.497 962.375L547.25 963.745L546.5 963.75L546.497 964.497C545.488 965.342 544.312 966.741 543 966.75L542.997 967.497C542.417 967.497 542.725 967.572 542.125 967.125C541.362 967.888 541.001 967.873 540.997 968.997C540.326 969.669 540.524 969.743 539.5 969.75L539.745 970.75C539.243 971.504 538.768 971.998 538.125 972.625L538.245 973.75L537.5 974.25L537.622 974.875C537.784 975.863 537.764 976.759 537.75 977.755C539.421 977.417 540.91 977.1 542.625 977.125L544.25 976L545.255 976.25L546.25 975L547.003 975.003L548.5 974.255L549.375 973.875L549.875 973.625L550.378 973.5L550.875 973.125L551.378 973L552.75 971.755L553.5 971.75C554.706 971.478 555.921 970.337 557 969.755L557.577 969.537C558.409 969.204 559.021 968.749 559.755 968.25C561.406 967.127 563.275 966.474 564.875 965.253L565.625 965.253L566.75 964L567.378 964L567.875 963.625L568.755 963.75C569.568 963.119 570.288 962.493 571 961.75L571.75 961.755L572.503 961.502L574.502 961.003L575.75 960.755C577.508 960.412 577.559 959.159 578.75 958.755C579.787 958.403 579.806 958.945 581 958.255L581.735 957.895C582.719 957.402 582.26 957.676 583.033 957.098C583.722 956.581 584.704 956.246 585.5 955.755L587.002 955.003L591.281 952.208C592.166 951.619 591.711 951.843 592.501 951.644C593.392 951.42 593.798 950.794 594.5 950.255L595.25 949.755L595.875 950.253L596.25 949.755L596.755 950C596.988 949.061 597.065 948.94 597.75 948.255L598.255 949.25C599.903 947.933 600.52 948.302 602.574 948.396Z"/>
	<defs>
		<linearGradient id="gradient_3" gradientUnits="userSpaceOnUse" x1="698.88165" y1="123.54662" x2="550.11829" y2="122.46429">
			<stop offset="0" stop-color="#CE9A47"/>
			<stop offset="1" stop-color="#DFB769"/>
		</linearGradient>
	</defs>
	<path fill="url(#gradient_3)" d="M550.209 68.8157L699.629 159.112L698.012 160.022C697.467 162.264 699.626 162.861 698.339 164.841C697.53 166.084 696.626 168.362 696.685 169.837C696.708 170.435 697.165 171.238 697.316 171.777L697.435 172.516C697.624 173.536 698.026 174.34 698.415 175.288C698.704 175.992 698.632 175.703 698.608 176.481L696.432 176.826L550.688 89.1124L551 84.5C551.292 82.0162 550.702 79.9382 551.908 77.6219L552.128 77.2265C551.916 76.4479 551.844 75.8851 551.84 75.062C551.832 73.5205 550.824 73.4567 550.449 72.2195C550.174 71.3105 550.278 69.8005 550.209 68.8157Z"/>
	<defs>
		<linearGradient id="gradient_4" gradientUnits="userSpaceOnUse" x1="506.18036" y1="936.28192" x2="344.8324" y2="897.9837">
			<stop offset="0" stop-color="#CE9A47"/>
			<stop offset="1" stop-color="#DFB769"/>
		</linearGradient>
	</defs>
	<path fill="url(#gradient_4)" d="M354.69 863.051L502.635 954.578L501.473 956.716C500.342 956.725 499.737 956.303 498.781 955.744C498.715 957.109 499.938 957.952 499.268 959.268C498.75 960.289 498.34 959.709 497.993 961.196L496.774 961.531C496.395 962.452 495.968 963.46 496.28 964.477C496.665 965.728 497.265 967.543 497.802 968.746C498.127 969.473 498.11 970.039 498.125 970.822L499.531 972.847L347.996 879.113C349.04 878.604 348.958 878.684 350.006 878.753L350.938 877.447L350.643 876.138C351.438 875.018 351.291 873.934 351.29 872.619L351.286 871.994C352.712 870.863 353.745 870.198 354.218 868.386C353.375 867.026 353.112 865.894 353.06 864.306L354.69 863.051Z"/>
	<defs>
		<linearGradient id="gradient_5" gradientUnits="userSpaceOnUse" x1="454.74594" y1="468.53024" x2="127.22201" y2="386.2225">
			<stop offset="0" stop-color="#DEB768"/>
			<stop offset="1" stop-color="#FFF5AD"/>
		</linearGradient>
	</defs>
	<path fill="url(#gradient_5)" d="M347.996 879.113L261.286 824.933L261.446 788.653L178.578 736.518L158.339 723.969C154.036 721.282 149.404 718.892 145.811 715.259C145.306 714.748 145.476 715.038 145.369 714.179C144.937 710.7 145.373 706.759 145.381 703.223L145.415 676.673L145.44 310.732L260.987 238.139L260.472 198.511L511.476 45.2081L550.209 68.8157C550.278 69.8005 550.174 71.3105 550.449 72.2195C550.824 73.4567 551.832 73.5205 551.84 75.062C551.844 75.8851 551.916 76.4479 552.128 77.2265L551.908 77.6219C550.702 79.9382 551.292 82.0162 551 84.5L550.688 89.1124L511.366 65.4298L277.489 208.019L277.394 234.514C277.38 238.985 277.804 243.847 277.193 248.257L161.501 320.995L162.011 706.026L276.805 777.729L276.516 814.545L354.69 863.051L353.06 864.306C353.112 865.894 353.375 867.026 354.218 868.386C353.745 870.198 352.712 870.863 351.286 871.994L351.29 872.619C351.291 873.934 351.438 875.018 350.643 876.138L350.938 877.447L350.006 878.753C348.958 878.684 349.04 878.604 347.996 879.113Z"/>
	<path d="M392.999 399.087C399.563 394.566 408.454 392.06 415.863 389.117C458.255 372.278 503.699 364.833 548.881 373.224C571.113 377.353 591.322 385.155 612.215 393.488C619.132 396.247 627.975 399.15 633.995 403.566C642.503 406.183 650.388 411.588 658.283 415.64C675.761 424.612 692.95 433.419 711.5 440.04C719.295 442.822 727.312 445.023 735.576 445.795C739.875 446.197 744.302 445.967 748.623 445.924C750.166 445.909 752.732 445.52 754.144 446.072C749.174 455.088 743.814 464.145 737.245 472.101C728.865 482.248 718.914 490.979 708.542 499.033C690.861 512.762 671.302 524.657 649.652 530.875L640.254 533.574L631.363 535.174L633.73 551.598L635.275 560.223C639.729 589.047 642.562 617.473 637.988 646.48C637.099 652.117 636.399 657.907 634.39 663.278L625.126 653.342C623.349 675.391 616.376 695.02 603.784 713.278L599.7 706.55C594.406 716.236 589.182 725.947 582.691 734.908C574.944 745.604 565.984 755.386 556.95 764.984C547.954 774.542 538.727 784.282 528.611 792.667C525.698 795.081 521.156 799.164 517.509 800.188C515.689 800.699 514.392 800.465 512.654 799.832L511.617 800.549C509.627 801.229 506.985 800.987 504.88 801.038C500.463 796.483 495.396 792.53 490.585 788.406L463.764 765.331C457.477 759.705 451.635 753.329 445.794 747.25C437.214 738.321 428.6 729.636 420.75 720.03C413.122 710.696 406.405 700.246 399.84 690.148C394.34 681.686 388.618 673.03 385.221 663.463C384.749 659.977 383.618 656.48 382.82 653.054C381.648 648.018 380.779 642.851 380.091 637.729C376.764 612.95 381.615 588.048 385.951 563.714C386.469 560.735 387.089 557.742 387.206 554.715L329.514 572.378L329.076 570.75C331.032 569.061 334.105 568.354 336.542 567.54L353.673 562.243L387.095 551.204C388.191 548.416 388.325 545.074 388.714 542.102L390.881 524.048C384.765 524.025 378.199 523.546 372.146 524.257L351.626 520.334C344.025 518.404 336.914 514.838 329.976 511.278C299.765 495.775 275.393 471.884 257.932 442.836L268.625 445.501C285.668 448.163 302.859 442.165 318.348 435.409L352.948 418.597L392.999 399.087Z"/>
	<path fill="#C4883B" d="M537.424 579.33L535.985 576.25C539.187 575.959 543.352 578.368 546.5 579.179L560.75 582.511C563.285 583.068 566.241 583.279 568.604 584.333C571.403 585.581 574.053 588.13 576.428 590.044C576.211 591.238 576.092 591.212 575.355 592.082C571.648 592.085 567.462 592.421 563.842 591.683L563.25 591.553C557.324 590.334 551.525 587.431 546.096 584.81C543.141 583.384 539.633 581.798 537.424 579.33Z"/>
	<path fill="#C4883B" d="M448.592 594.062C447.99 593.201 447.623 592.208 447.197 591.25C447.649 590.624 447.604 590.645 448.25 589.992C449.381 588.85 451.486 587.193 452.959 586.557C455.189 585.594 458.368 585.612 460.796 585.077C466.866 583.739 473.094 582.156 479 580.236C481.1 579.553 483.18 578.819 485.127 577.769C486.485 577.037 488.639 575.315 490.131 575.367L490.933 579.318C487.991 581.279 484.74 582.348 481.557 583.822C473.898 587.369 466.746 591.034 458.587 593.34C455.292 594.271 451.988 594.062 448.592 594.062Z"/>
	<path fill="#468699" d="M529.662 523.296C542.317 526.981 555.59 531.864 566.723 539.072C579.938 547.628 590.864 559.556 600.706 571.732C605.31 577.427 610.425 583.205 614.407 589.329C610.403 587.481 606.574 582.737 603.343 579.66L586.123 563.709C575.246 554.352 563.22 545.269 551.19 537.433C547.102 534.771 530.933 526.691 529.662 523.296Z"/>
	<path fill="#468699" d="M492.403 524.256L492.607 525.095C488.646 528.168 484.093 530.592 479.846 533.258C472.975 537.571 466.065 542.147 459.718 547.198C446.534 557.688 434.179 569.331 421.744 580.696C416.647 585.354 411.738 590.613 406.25 594.797C405.253 595.557 404.434 596.013 403.183 596.23C411.99 582.405 423.422 570.099 435.049 558.625C442.508 551.264 450.31 543.776 459.287 538.283C469.566 531.993 480.949 527.846 492.403 524.256Z"/>
	<path fill="#468699" d="M420.25 607.682L421.324 607.594C420.923 614.164 419.607 620.521 418.954 627.041C417.359 642.969 418.138 660.698 423.062 676.043C426.418 665.407 430.719 655.371 437.463 646.415C438.916 644.486 440.516 642.05 442.419 640.578C441.484 643.351 440.439 646.199 439.929 649.085C438.653 654.508 435.52 659.595 433.429 664.762C429.362 674.816 427.09 684.598 425.535 695.272C420.129 687.594 416.73 678.915 414.088 669.962C410.604 658.154 408.827 644.26 411.107 632.03C412.701 623.479 416.111 615.294 420.25 607.682Z"/>
	<defs>
		<linearGradient id="gradient_6" gradientUnits="userSpaceOnUse" x1="390.39365" y1="478.82434" x2="358.24243" y2="448.71609">
			<stop offset="0" stop-color="#FFCC8F"/>
			<stop offset="1" stop-color="#FFE6BC"/>
		</linearGradient>
	</defs>
	<path fill="url(#gradient_6)" d="M373.855 502.42C367.996 497.969 363.815 491.477 361.123 484.698C356.569 473.228 356.026 458.476 360.999 447.084C363.593 441.143 367.768 436.525 373.957 434.267C377.84 432.851 382.453 432.842 386.225 434.565C387.279 436.612 387.037 439.178 387.113 441.451L387.584 452.176C379.941 453.863 369.797 456.445 365.25 463.478L364.334 465.185L363.426 466.273C363.642 474.781 365.531 483.637 368.862 491.494C370.307 494.903 373.603 498.745 373.855 502.42Z"/>
	<path fill="#DAA771" d="M386.225 434.565C387.279 436.612 387.037 439.178 387.113 441.451L387.584 452.176C379.941 453.863 369.797 456.445 365.25 463.478L364.334 465.185L363.426 466.273C363.415 464.452 363.377 462.678 363.823 460.901C365.778 453.126 370.333 443.668 377.25 439.045C379.928 437.255 383.054 436.497 385.801 434.827L386.225 434.565Z"/>
	<path fill="#F8D9AA" d="M635.977 449.7L636.166 439.294C641.494 437.084 647.062 435.28 652.75 437.551C657.622 439.496 662.054 444.112 664.023 448.961C668.51 460.009 666.644 472.723 661.892 483.375C658.409 491.185 652.378 498.281 645.582 503.403C645.394 501.98 645.776 501.011 646.239 499.699C645.518 494.478 648.321 489.488 650.253 484.908C651.29 482.45 651.959 479.76 652.632 477.179C653.784 472.767 654.199 468.236 654.868 463.735C654.924 459.854 653.747 454.84 650.976 451.991C648.761 449.715 645.07 447.982 641.891 447.975L641.25 447.987C639.137 448.007 637.82 448.701 635.977 449.7Z"/>
	<path fill="#DAA771" d="M646.239 499.699C645.518 494.478 648.321 489.488 650.253 484.908C651.29 482.45 651.959 479.76 652.632 477.179C653.784 472.767 654.199 468.236 654.868 463.735C655.361 470.194 656.051 476.317 654.688 482.75L654.552 483.426C653.319 489.383 650.235 495.127 646.239 499.699Z"/>
	<defs>
		<linearGradient id="gradient_7" gradientUnits="userSpaceOnUse" x1="626.43036" y1="472.39401" x2="652.55115" y2="484.40759">
			<stop offset="0" stop-color="#A96E44"/>
			<stop offset="1" stop-color="#B68654"/>
		</linearGradient>
	</defs>
	<path fill="url(#gradient_7)" d="M635.977 449.7C637.82 448.701 639.137 448.007 641.25 447.987L641.891 447.975C645.07 447.982 648.761 449.715 650.976 451.991C653.747 454.84 654.924 459.854 654.868 463.735C654.199 468.236 653.784 472.767 652.632 477.179C651.959 479.76 651.29 482.45 650.253 484.908C648.321 489.488 645.518 494.478 646.239 499.699C645.776 501.011 645.394 501.98 645.582 503.403C642.049 506.269 638.047 508.247 633.991 510.253L635.318 466.578C635.008 463.935 635.286 461.243 635.427 458.592L635.977 449.7Z"/>
	<defs>
		<linearGradient id="gradient_8" gradientUnits="userSpaceOnUse" x1="645.68048" y1="456.27155" x2="634.73486" y2="483.69931">
			<stop offset="0" stop-color="#6E401B"/>
			<stop offset="1" stop-color="#8B5A33"/>
		</linearGradient>
	</defs>
	<path fill="url(#gradient_8)" d="M635.427 458.592C638.696 457.086 642.291 455.201 645.978 455.624C648.424 457.874 649.286 459.913 649.472 463.25C649.899 470.914 646.87 481.375 641.348 486.933C640.499 487.787 639.551 488.579 638.564 489.268C641.264 481.918 645.995 476.3 643.124 467.996C641.359 466.261 639.394 466.548 636.972 466.559L635.318 466.578C635.008 463.935 635.286 461.243 635.427 458.592Z"/>
	<path fill="#C4883B" d="M363.426 466.273L364.334 465.185L365.25 463.478C369.797 456.445 379.941 453.863 387.584 452.176L390.535 511.433C384.518 509.078 378.599 506.959 373.855 502.42C373.603 498.745 370.307 494.903 368.862 491.494C365.531 483.637 363.642 474.781 363.426 466.273Z"/>
	<defs>
		<linearGradient id="gradient_9" gradientUnits="userSpaceOnUse" x1="389.39905" y1="480.30585" x2="374.88916" y2="485.10294">
			<stop offset="0" stop-color="#733F21"/>
			<stop offset="1" stop-color="#AC7645"/>
		</linearGradient>
	</defs>
	<path fill="url(#gradient_9)" d="M375.622 462.015L385.634 462.649L388.1 497.126C388.207 499.095 388.891 502.665 388.496 504.5C388.413 504.885 387.999 505.111 387.75 505.417L385.827 504.779C374.777 499.531 375.764 485.191 374.104 474.926C373.672 472.252 373.259 469.17 371.795 466.849C371.322 466.099 371.126 465.839 370.975 465C372.367 463.729 373.98 462.916 375.622 462.015Z"/>
	<path fill="#500F10" d="M512.654 799.832C514.737 795.566 519.613 790.856 522.665 787.114L542.764 762.493C543.138 762.054 543.897 760.939 544.341 760.655C544.938 760.272 548.399 760.328 549.315 760.255C553.129 757.034 556.434 752.827 559.752 749.088C566.49 741.499 573.303 733.492 578.75 724.901C584.331 716.098 588.632 707.105 592.516 697.469C595.177 700.287 597.69 703.221 599.7 706.55C594.406 716.236 589.182 725.947 582.691 734.908C574.944 745.604 565.984 755.386 556.95 764.984C547.954 774.542 538.727 784.282 528.611 792.667C525.698 795.081 521.156 799.164 517.509 800.188C515.689 800.699 514.392 800.465 512.654 799.832Z"/>
	<path fill="#DAA771" d="M490.933 579.318C496.637 576.1 502.247 573.173 506.969 568.531C507.817 567.698 511.413 563.082 512.03 563.149C514.191 565.671 516.329 568.362 518.983 570.386C524.539 574.622 531.253 576.287 537.424 579.33C539.633 581.798 543.141 583.384 546.096 584.81C551.525 587.431 557.324 590.334 563.25 591.553L563.842 591.683C567.462 592.421 571.648 592.085 575.355 592.082L571.391 601.041C570.541 599.937 570.285 598.941 570.043 597.584L569.973 597.129C569.205 597.372 569.489 597.218 568.862 597.651C567.553 598.553 566.407 599.211 564.919 599.784C563.432 600.356 562.212 601.02 560.575 600.904L559.878 599.503C558.924 599.089 559.242 599.125 558.381 599.052C548.331 598.208 539.468 590.414 529.909 587.25C519.503 583.806 508.234 583.505 497.641 586.182C488.041 588.608 479.295 593.414 470.006 596.644C465.932 598.061 461.95 598.69 457.75 599.527C455.528 599.97 453.422 600.044 451.164 600.117L448.592 594.062C451.988 594.062 455.292 594.271 458.587 593.34C466.746 591.034 473.898 587.369 481.557 583.822C484.74 582.348 487.991 581.279 490.933 579.318Z"/>
	<path fill="#468699" d="M411.411 614.142C402.341 624.152 395.637 634.698 388.865 646.299C385.068 636.823 384.804 625.571 385.005 615.502C385.328 599.414 387.464 583.496 389.161 567.518C391.259 547.768 393.97 527.567 394.587 507.736L406.004 521.156C401.882 541.249 399.048 561.786 396.856 582.17C396.067 589.512 394.741 597.384 395.01 604.748L394.16 608.131C392.576 615.407 391.874 622.134 391.975 629.551C395.463 625.765 406.793 614.493 411.411 614.142Z"/>
	<defs>
		<linearGradient id="gradient_10" gradientUnits="userSpaceOnUse" x1="650.02661" y1="558.79144" x2="604.54401" y2="571.83997">
			<stop offset="0" stop-color="#366A88"/>
			<stop offset="1" stop-color="#658296"/>
		</linearGradient>
	</defs>
	<path fill="url(#gradient_10)" d="M616.966 511.715C619.531 508.046 622.188 504.371 623.985 500.25C627.845 491.397 628.735 481.565 631.621 472.4C631.528 483.209 628.864 493.532 627.684 504.207C627.164 508.911 627.366 514.022 627.54 518.75C627.852 527.21 629.077 535.752 630.103 544.151L635.151 584.125C637.695 604.632 639.556 625.847 633.668 645.995C628.071 635.011 622.511 623.416 614.108 614.231C621.07 615.862 627.184 624.073 631.786 629.119C631.94 623.536 633.044 617.277 632.49 611.75C632.024 607.102 630.445 602.382 629.422 597.819L625.344 576.5L619.128 535.282C618.487 530.829 618.29 526.144 617.476 521.75C616.862 518.435 616.985 515.083 616.966 511.715Z"/>
	<path fill="#1D3E48" d="M406.004 521.156C410.852 523.374 415.615 524.603 420.476 526.507C420.573 533.679 421.222 540.693 422.338 547.781L424.798 559.81C425.059 560.949 425.922 563.262 425.808 564.318C425.78 564.579 424.777 565.648 424.542 565.948L418.625 573.155L401.566 595.948C399.675 598.536 397.769 602.063 395.502 604.283L395.01 604.748C394.741 597.384 396.067 589.512 396.856 582.17C399.048 561.786 401.882 541.249 406.004 521.156Z"/>
	<defs>
		<linearGradient id="gradient_11" gradientUnits="userSpaceOnUse" x1="432.03519" y1="765.29071" x2="469.18524" y2="686.65985">
			<stop offset="0" stop-color="#7B0905"/>
			<stop offset="1" stop-color="#BF1416"/>
		</linearGradient>
	</defs>
	<path fill="url(#gradient_11)" d="M385.221 663.463L399.744 651.593C405.834 679.492 415.142 702.969 433.665 725.069C435.631 717.178 437.008 709.722 437.244 701.554C439.304 708.094 440.73 714.901 443.219 721.292C449.011 736.16 460.322 750.711 472.424 761.016C473.288 759.173 474.157 756.436 475.557 755.002C479.775 761.59 483.606 768.085 488.489 774.25C495.745 783.413 504.123 791.596 511.617 800.549C509.627 801.229 506.985 800.987 504.88 801.038C500.463 796.483 495.396 792.53 490.585 788.406L463.764 765.331C457.477 759.705 451.635 753.329 445.794 747.25C437.214 738.321 428.6 729.636 420.75 720.03C413.122 710.696 406.405 700.246 399.84 690.148C394.34 681.686 388.618 673.03 385.221 663.463Z"/>
	<path fill="#F8D9AA" d="M451.164 600.117C453.422 600.044 455.528 599.97 457.75 599.527C461.95 598.69 465.932 598.061 470.006 596.644C479.295 593.414 488.041 588.608 497.641 586.182C508.234 583.505 519.503 583.806 529.909 587.25C539.468 590.414 548.331 598.208 558.381 599.052C559.242 599.125 558.924 599.089 559.878 599.503L560.575 600.904C562.212 601.02 563.432 600.356 564.919 599.784C566.407 599.211 567.553 598.553 568.862 597.651C569.489 597.218 569.205 597.372 569.973 597.129L570.043 597.584C570.285 598.941 570.541 599.937 571.391 601.041C566.906 611.187 561.84 620.322 550.959 624.654C545.877 626.677 540.565 627.843 535.182 628.742L533.367 628.25C534.898 621.179 539.659 616.199 538.985 608.273C538.801 606.105 537.748 604.499 536.029 603.186C529.039 597.849 515.532 596.703 507.188 597.851L496.479 599.713C492.933 600.599 487.695 602.29 485.916 605.75C483.354 610.735 488.756 622.344 490.282 627.492C489.394 628.405 486.994 628.11 485.667 628.145C481.55 627.559 477.438 627.192 473.522 625.707C461.846 621.28 456.069 610.889 451.164 600.117Z"/>
	<path fill="#1D3E48" d="M496.679 522.299L504.4 520.12C508.302 521.396 513.904 522.536 517.82 520.657L518.579 520.267C520.348 520.026 521.295 520.135 522.966 520.749L529.662 523.296C530.933 526.691 547.102 534.771 551.19 537.433C563.22 545.269 575.246 554.352 586.123 563.709L603.343 579.66C606.574 582.737 610.403 587.481 614.407 589.329C616.587 590.865 618.964 594.712 620.704 596.834C606.5 590.496 592.726 581.859 580.379 572.418C574.125 571.379 567.809 563.664 562.5 560.024L560.852 560.906C557.339 557.108 553.987 553.627 549.757 550.59C551.13 552.413 552.519 554.236 554.105 555.882C557.045 558.934 561.154 561.95 561.81 566.354C559.893 566.113 557.809 564.023 556.239 562.84C549.585 557.826 543.969 552.237 538.055 546.398L537.943 546.65L547.584 567.244C542.07 561.506 536.197 555.79 531.568 549.296C529.734 546.723 528.492 543.839 526.739 541.235L531.618 555.486C532.037 556.676 533.274 559.43 533.115 560.608C529.292 557.382 525.338 554.152 522.305 550.139C519.633 546.603 517.684 542.373 515.396 538.566L520.743 560.635C516.434 555.701 514.137 551.861 512.094 545.601C509.544 548.818 508.689 556.145 504.25 557.515C502.235 552.761 505.981 546.218 507.477 541.602C507.719 540.858 508.22 540.428 507.5 540.018C505.662 542.895 504.461 546.165 502.613 549.013C499.701 553.501 495.434 557.357 491.111 560.456L496.891 541.47C495.315 544.152 494.001 547.083 492.267 549.653C488.758 554.853 484.323 559.432 479.877 563.825C478.393 565.292 476.761 567.298 474.962 568.355C479.109 560.17 484.439 552.609 487.732 544.001C485.933 546.381 484.07 549.187 481.919 551.243C478.626 554.392 474.672 556.972 471.194 559.93C467.979 562.665 464.973 565.697 461.371 567.934C463.194 565.001 465.041 562.113 467.25 559.451C469.753 556.435 472.528 553.736 474.253 550.164L465.764 557.887C464.315 559.161 462.276 561.08 460.457 561.697L463.704 555.68C458.372 560.963 453.145 566.421 447.466 571.335C436.027 581.235 423.632 589.567 410.586 597.168C406.744 599.407 403.636 601.903 399.435 603.507L397.622 604.269C399.173 601.958 401.111 598.014 403.183 596.23C404.434 596.013 405.253 595.557 406.25 594.797C411.738 590.613 416.647 585.354 421.744 580.696C434.179 569.331 446.534 557.688 459.718 547.198C466.065 542.147 472.975 537.571 479.846 533.258C484.093 530.592 488.646 528.168 492.607 525.095L492.403 524.256L496.679 522.299Z"/>
	<path fill="#03171D" d="M560.852 560.906L560.942 560.175C561.085 558.303 559.505 555.504 558.789 553.757C565.752 560.518 573.936 564.884 580.379 572.418C574.125 571.379 567.809 563.664 562.5 560.024L560.852 560.906Z"/>
	<path fill="#1D3E48" d="M535.182 628.742L535.24 629.281C541.545 630.842 548.917 628.645 554.616 625.957C568.644 619.341 573.103 605.394 577.842 591.754C586.498 594.155 595.053 597.463 603.81 599.377C611.268 601.007 618.969 601.349 626.581 601.536L593.487 558.897C596.184 551.577 598.107 544.233 599.202 536.5C599.63 533.475 599.873 530.463 600.004 527.411C600.021 527.013 599.952 524.767 600.116 524.51C600.296 524.23 601.419 523.711 601.775 523.485L607.104 519.84C610.623 517.321 613.829 514.698 616.966 511.715C616.985 515.083 616.862 518.435 617.476 521.75C618.29 526.144 618.487 530.829 619.128 535.282L625.344 576.5L629.422 597.819C630.445 602.382 632.024 607.102 632.49 611.75C633.044 617.277 631.94 623.536 631.786 629.119C627.184 624.073 621.07 615.862 614.108 614.231L611.975 612.631L610.655 612.948C618.791 639.457 616.409 667.543 603.287 692.117L602.701 693.166C599.664 685.222 596.399 677.58 592.599 669.961C590.917 666.589 589.336 663.063 587.207 659.946C586.872 666.982 586.537 673.844 585.119 680.77C580.54 703.15 568.38 720.472 555.631 738.857L553.328 722.16L543.248 742.453C535.032 757.599 524.355 770.299 512.388 782.574C492.045 764.749 476.036 742.387 474.215 714.597L473.85 708.73C469.294 719.854 467.574 730.164 467.365 742.167C448.955 723.083 439.65 693.489 440.097 667.301C440.186 662.108 440.297 656.339 442.1 651.4L439.929 649.085C440.439 646.199 441.484 643.351 442.419 640.578C440.516 642.05 438.916 644.486 437.463 646.415C430.719 655.371 426.418 665.407 423.062 676.043C418.138 660.698 417.359 642.969 418.954 627.041C419.607 620.521 420.923 614.164 421.324 607.594L420.25 607.682C417.202 608.167 413.614 612.023 411.411 614.142C406.793 614.493 395.463 625.765 391.975 629.551C391.874 622.134 392.576 615.407 394.16 608.131C396.361 608.934 399.446 608.17 401.709 607.758C413.972 605.524 426.179 600.425 437.456 595.25L445.339 591.622C450.164 605.434 454.795 619.981 469.195 626.666C474.398 629.081 479.67 630.568 485.364 629.314L485.945 628.577L485.667 628.145C486.994 628.11 489.394 628.405 490.282 627.492C488.756 622.344 483.354 610.735 485.916 605.75C487.695 602.29 492.933 600.599 496.479 599.713L507.188 597.851C515.532 596.703 529.039 597.849 536.029 603.186C537.748 604.499 538.801 606.105 538.985 608.273C539.659 616.199 534.898 621.179 533.367 628.25L535.182 628.742Z"/>
	<path fill="#468699" d="M442.1 651.4L445.686 642.822C447.789 650.878 446.905 660.064 447.691 668.348C448.933 681.433 451.606 694.434 455.909 706.859C457.874 712.533 460.373 717.909 462.665 723.442C464.857 715.873 468.226 708.897 470.814 701.492C472.5 696.668 473.577 691.791 474.514 686.782L476.741 705.072C479.755 723.249 486.464 742.693 498.415 756.973C502.817 762.233 508.154 767.009 512.948 771.937C526.492 756.461 538.061 739.649 545.425 720.353C547.017 716.181 548.724 711.975 549.524 707.565C550.861 700.201 550.701 692.741 550.714 685.273L559.845 721.613C564.69 713.687 569.192 705.202 572.354 696.448C574.902 689.395 576.28 681.868 577.586 674.5C579.782 662.112 581.323 649.747 582.131 637.192C589.883 650.036 597.379 663.617 602.586 677.698C605.927 665.231 609.119 652.896 609.438 639.907L609.038 615.112C609.076 613.826 608.795 612.341 609.75 611.445L610.655 612.948C618.791 639.457 616.409 667.543 603.287 692.117L602.701 693.166C599.664 685.222 596.399 677.58 592.599 669.961C590.917 666.589 589.336 663.063 587.207 659.946C586.872 666.982 586.537 673.844 585.119 680.77C580.54 703.15 568.38 720.472 555.631 738.857L553.328 722.16L543.248 742.453C535.032 757.599 524.355 770.299 512.388 782.574C492.045 764.749 476.036 742.387 474.215 714.597L473.85 708.73C469.294 719.854 467.574 730.164 467.365 742.167C448.955 723.083 439.65 693.489 440.097 667.301C440.186 662.108 440.297 656.339 442.1 651.4Z"/>
	<path fill="#F8D9AA" d="M392.999 399.087C399.563 394.566 408.454 392.06 415.863 389.117C458.255 372.278 503.699 364.833 548.881 373.224C571.113 377.353 591.322 385.155 612.215 393.488C619.132 396.247 627.975 399.15 633.995 403.566L633.593 418.162C633.562 421.84 633.781 425.606 633.097 429.234C632.838 434.987 633.226 442.47 631.292 447.905C627.893 472.728 625.826 502.311 604.297 518.88C601.943 520.691 598.114 522.257 596.35 524.5L598.353 526.031C598.642 529.678 597.463 533.439 596.65 536.97C595.144 543.514 593.56 550.136 591.39 556.495C582.856 548.436 574.29 540.244 564.081 534.298C557.423 530.42 550.137 527.616 542.917 524.992C538.377 523.342 533.664 521.297 528.81 520.864C528.041 521.055 527.297 521.017 526.539 520.779C524.865 520.252 524.634 520.148 522.966 520.749C521.295 520.135 520.348 520.026 518.579 520.267L517.82 520.657C513.904 522.536 508.302 521.396 504.4 520.12L496.679 522.299L494.509 521.097C480.812 524.987 466.352 530.051 454.473 538.077C444.874 544.561 436.287 553.027 428.267 561.336L424.651 535.639C424.304 533.22 422.973 528.836 423.75 526.564L428.126 525.582C424.053 523.487 420.163 521.521 416.609 518.563C413.299 515.807 409.687 512.524 407.452 508.806C398.534 493.972 397.403 474.142 395.757 457.272L393.288 432.885C392.783 429.64 393.082 425.966 393.072 422.665L392.999 399.087Z"/>
	<path fill="#DAA771" d="M525.811 442.477C527.985 444.857 530.108 447.189 532.714 449.109C534.694 450.567 537.456 451.99 539.137 453.715C539.235 454.739 539.453 455.448 540.107 456.25C542.88 459.654 546.565 462.917 549.887 465.768C557.069 471.931 565.174 478.004 574.797 479.324C581.8 480.284 588.62 475.869 593.967 471.9C597.296 469.429 600.155 466.499 603.092 463.589L603.739 463.75C597.376 471.877 589.025 482.124 578.116 483.416C575.751 483.696 573.239 482.943 570.981 482.31C561.02 479.52 552.716 473.426 544.51 467.413C539.847 463.996 534.668 459.23 531.379 454.46C528.628 450.472 526.442 447.396 525.811 442.477Z"/>
	<path fill="#DAA771" d="M480.694 456.631L496.398 444.497C493.514 457.839 479.894 468.469 469.016 475.547C461.646 480.342 452.867 484.52 443.891 482.395C433.358 479.901 423.432 469.897 418.038 460.855C416.089 457.588 414.536 454.418 413.139 450.874C420.235 458.361 425.776 468.233 434.5 473.949L435.128 474.371C440.566 477.975 446.759 479.88 453.277 478.642C464.767 476.459 475.178 466.446 482.87 458.25C482.315 457.144 481.774 457.158 480.694 456.631Z"/>
	<path fill="#DAA771" d="M393.072 422.665C393.533 419.987 393.415 417.085 393.499 414.366C409.137 406.295 426.098 402.45 443.556 400.938C454.922 399.953 465.407 399.876 476.484 403.017C471.265 404.601 465.618 404.891 460.246 405.925C453.194 407.282 446.413 409.329 439.555 411.434C437.113 412.183 432.559 413.068 431.05 415.122C424.254 413.126 417.559 412.218 411.085 415.899C407.53 417.92 405.497 421.149 403.872 424.796C407.079 426.268 410.444 426.926 413.789 427.981C417.265 429.076 420.59 430.632 423.9 432.141C425.342 432.798 427.538 433.477 428.631 434.611C425.718 437.196 420.964 440.797 419.558 444.544C421.44 449.165 423.671 453.219 426.364 457.402C425.366 457.266 424.359 457.115 423.401 456.797C416.078 454.363 411.313 446.537 407.854 440.119C405.425 435.612 404.341 431.224 403.35 426.24C400.177 428.349 395.965 430.272 393.288 432.885C392.783 429.64 393.082 425.966 393.072 422.665Z"/>
	<path fill="#03171D" d="M494.509 521.097L494.9 520.507C492.753 519.34 490.489 517.974 489.159 515.862C483.515 506.902 494.689 494.971 498.306 487.123C501.191 480.864 503.364 474.356 504.709 467.602C505.879 461.731 505.436 455.64 505.759 449.677C507.416 456.311 508.54 461.34 512.824 466.889L518.773 451.777C519.46 454.679 519.264 458.123 519.441 461.118C519.755 466.463 520.663 471.853 522.285 476.963C523.57 481.015 525.231 485.169 527.191 488.945C530.535 495.386 536.158 502.072 536.504 509.571C536.628 512.243 536.406 514.91 534.414 516.919C532.869 518.478 530.662 519.681 528.81 520.864C528.041 521.055 527.297 521.017 526.539 520.779C524.865 520.252 524.634 520.148 522.966 520.749C521.295 520.135 520.348 520.026 518.579 520.267L517.82 520.657C513.904 522.536 508.302 521.396 504.4 520.12L496.679 522.299L494.509 521.097Z"/>
	<path fill="#FEFEFE" d="M504.4 520.12L511.631 516.011L518.579 520.267L517.82 520.657C513.904 522.536 508.302 521.396 504.4 520.12Z"/>
	<path d="M596.429 414.11C599.988 413.162 603.985 411.958 607.424 413.916C613.359 417.295 615.885 422.285 618.551 428.25C609.572 426.285 602.704 429.23 594.47 432.512L604.031 442.5C603.709 443.654 603.095 444.514 602.439 445.496C598.632 455.597 593.785 463.338 583.484 467.824C576.713 470.772 569.118 469.7 562.472 466.874C554.255 463.38 547.202 457.47 539.137 453.715C537.456 451.99 534.694 450.567 532.714 449.109C530.108 447.189 527.985 444.857 525.811 442.477L523.097 434.259C525.131 435.974 526.742 438.049 529.325 438.952C543.253 443.821 567.058 429.05 579.339 422.566L596.429 414.11Z"/>
	<path fill="#0077BE" d="M565.648 447.969L566.259 448.27C568.528 449.347 569.97 449.571 572.5 449.467C574.725 448.389 576.43 446.669 578.25 445.028L578.903 445.5C578.947 448.018 578.984 450.08 577.187 452.028C575.317 454.056 572.42 453.854 569.876 454.153L569.425 453.96C566.89 452.573 566.298 450.635 565.648 447.969Z"/>
	<path fill="#75B4CE" d="M581.296 442.814L580.75 441.9C579.522 441.47 578.271 441.232 577 440.973L576.838 440.418C580.459 437.451 585.541 435.834 589.874 434.237C592.646 436.583 595.244 438.892 597.527 441.733C592.111 440.744 587.12 440.787 581.75 441.881L581.296 442.814Z"/>
	<path fill="#FEFEFE" d="M581.296 442.814L581.75 441.881C587.12 440.787 592.111 440.744 597.527 441.733C598.282 443.611 597.432 447.049 596.683 448.883C594.404 454.464 588.522 460.938 582.909 463.248L580.5 464.044L579.919 464.221C571.407 466.554 562.215 460.687 555.334 456.492L552.869 454.927C555.235 453.111 557.207 451.71 560 450.592L565.648 447.969C566.298 450.635 566.89 452.573 569.425 453.96L569.876 454.153C571.059 454.606 572.513 455.299 573.79 455.297C575.792 455.294 577.858 454.039 579.074 452.509C581.567 449.373 581.602 446.572 581.296 442.814Z"/>
	<path d="M426.364 457.402C423.671 453.219 421.44 449.165 419.558 444.544C420.964 440.797 425.718 437.196 428.631 434.611C427.538 433.477 425.342 432.798 423.9 432.141C420.59 430.632 417.265 429.076 413.789 427.981C410.444 426.926 407.079 426.268 403.872 424.796C405.497 421.149 407.53 417.92 411.085 415.899C417.559 412.218 424.254 413.126 431.05 415.122C448.041 423.858 464.837 435.819 483.852 439.379C486.825 439.935 489.544 440.599 492.51 439.658C495.83 438.604 497.939 436.487 500.389 434.148L496.398 444.497L480.694 456.631C473.197 461.694 466.027 466.769 457.147 469.097C449.612 471.073 442.6 469.194 436 465.412C432.292 463.287 429.41 460.355 426.364 457.402Z"/>
	<path fill="#468699" d="M457.862 453.639C455.087 452.71 451.714 454.472 449.219 452.536C448.573 452.035 448.691 451.735 448.565 451C448.989 450.569 449.217 450.301 449.75 449.947C452.764 447.943 457.743 449.557 460.993 450.227C460.025 451.409 459.106 452.737 457.862 453.639Z"/>
	<path fill="#75B4CE" d="M428.551 440.74L432.459 436.524C436.59 438.194 440.723 440.078 444.311 442.75C444.235 444.172 443.797 444.524 442.983 445.661C440.59 445.235 438.146 443.56 435.861 442.659C433.533 441.741 430.991 441.273 428.551 440.74Z"/>
	<path fill="#FEFEFE" d="M428.551 440.74C430.991 441.273 433.533 441.741 435.861 442.659C438.146 443.56 440.59 445.235 442.983 445.661C443.754 447.045 444.384 448.36 444.966 449.833C445.728 451.766 447.177 453.568 449.193 454.303C451.615 455.187 454.951 455.148 457.274 453.967L457.862 453.639C459.106 452.737 460.025 451.409 460.993 450.227L461.317 450.074C464.05 449.266 470.013 453.906 472.256 455.373C469.029 458.356 461.685 461.891 457.548 463.338C451.779 465.356 445.275 465.146 439.771 462.417C432.275 458.701 427.64 453.389 424.879 445.582C425.833 443.849 427.311 442.283 428.551 440.74Z"/>
	<defs>
		<linearGradient id="gradient_12" gradientUnits="userSpaceOnUse" x1="515.31995" y1="432.7561" x2="510.01996" y2="369.36954">
			<stop offset="0" stop-color="#895332"/>
			<stop offset="1" stop-color="#B98E60"/>
		</linearGradient>
	</defs>
	<path fill="url(#gradient_12)" d="M392.999 399.087C399.563 394.566 408.454 392.06 415.863 389.117C458.255 372.278 503.699 364.833 548.881 373.224C571.113 377.353 591.322 385.155 612.215 393.488C619.132 396.247 627.975 399.15 633.995 403.566L633.593 418.162C633.562 421.84 633.781 425.606 633.097 429.234C632.838 434.987 633.226 442.47 631.292 447.905L630.827 447.25C624.438 446.1 618.016 449.007 612.817 452.365L602.439 445.496C603.095 444.514 603.709 443.654 604.031 442.5L594.47 432.512C602.704 429.23 609.572 426.285 618.551 428.25C615.885 422.285 613.359 417.295 607.424 413.916C603.985 411.958 599.988 413.162 596.429 414.11C594.39 412.025 591.316 411.422 588.586 410.566C579.225 407.633 569.538 406.185 559.819 405.069C555.111 404.528 550.144 404.321 545.5 403.498C542.919 403.041 540.428 403.007 537.81 402.933L509.803 403.064C498.998 403.388 487.136 404.827 476.484 403.017C465.407 399.876 454.922 399.953 443.556 400.938C426.098 402.45 409.137 406.295 393.499 414.366C393.415 417.085 393.533 419.987 393.072 422.665L392.999 399.087Z"/>
	<path fill="#C4883B" d="M566.389 402.222L567.252 402.082C568.058 401.948 568.407 401.811 569.173 401.461C572.621 399.885 590.944 404.044 594.579 405.642L597.037 406.989C586.6 407.316 576.566 403.99 566.389 402.222Z"/>
	<path fill="#DAA771" d="M537.81 402.933C547.493 401.897 556.668 401.957 566.389 402.222C576.566 403.99 586.6 407.316 597.037 406.989C609.258 411.174 622.734 417.216 632.967 425.25L633.097 429.234C632.838 434.987 633.226 442.47 631.292 447.905L630.827 447.25C624.438 446.1 618.016 449.007 612.817 452.365L602.439 445.496C603.095 444.514 603.709 443.654 604.031 442.5L594.47 432.512C602.704 429.23 609.572 426.285 618.551 428.25C615.885 422.285 613.359 417.295 607.424 413.916C603.985 411.958 599.988 413.162 596.429 414.11C594.39 412.025 591.316 411.422 588.586 410.566C579.225 407.633 569.538 406.185 559.819 405.069C555.111 404.528 550.144 404.321 545.5 403.498C542.919 403.041 540.428 403.007 537.81 402.933Z"/>
	<path fill="#623437" d="M190.196 324.224C192.056 324.152 193.104 323.784 194.739 322.892C206.743 316.337 218.272 308.032 229.832 300.68L295.094 259.8L295.245 219.523L511.117 87.6138L730.971 219.336L730.731 261.388L831.084 322.893L832.75 320.624C834.011 321.732 833.815 324.583 833.995 326.282C834.043 336.469 834.199 346.705 833.227 356.857C832.298 366.566 830.02 376.252 827.455 385.642C823.242 401.061 817.677 416.267 809.581 430.107C804.48 438.829 798.445 446.612 792.851 454.953L765.611 483.225C759.806 488.761 752.961 495.225 745.738 498.798C731.365 505.964 717.214 513.487 702.281 519.443C688.127 525.088 672.595 529.012 657.624 531.752C652.223 532.74 645.666 534.534 640.254 533.574L649.652 530.875C671.302 524.657 690.861 512.762 708.542 499.033C718.914 490.979 728.865 482.248 737.245 472.101C743.814 464.145 749.174 455.088 754.144 446.072C752.732 445.52 750.166 445.909 748.623 445.924C744.302 445.967 739.875 446.197 735.576 445.795C727.312 445.023 719.295 442.822 711.5 440.04C692.95 433.419 675.761 424.612 658.283 415.64C650.388 411.588 642.503 406.183 633.995 403.566C627.975 399.15 619.132 396.247 612.215 393.488C591.322 385.155 571.113 377.353 548.881 373.224C503.699 364.833 458.255 372.278 415.863 389.117C408.454 392.06 399.563 394.566 392.999 399.087L352.948 418.597L318.348 435.409C302.859 442.165 285.668 448.163 268.625 445.501L257.932 442.836C275.393 471.884 299.765 495.775 329.976 511.278C336.914 514.838 344.025 518.404 351.626 520.334L372.146 524.257L372.781 524.717L372.866 525.75L369.415 526.393C363.806 527.152 358.201 526.805 352.581 526.339C326.72 524.195 302.238 512.194 281.775 496.716C276.539 493.972 271.335 489.306 266.811 485.47C252.903 473.678 240.644 461.276 229.162 447.093C221.102 435.242 213.006 423.494 206.425 410.713C193.048 384.733 186.691 354.886 188.536 325.723C189.073 324.695 189.132 324.71 190.196 324.224Z"/>
	<path fill="#FEFEFE" d="M452.056 298.35C448.551 295.236 446.082 289.281 444.899 284.801L450.431 280.096C450.591 274.878 451.338 271.068 453.223 266.216L464.051 271.789L466.223 279.641C475.247 285.015 484.961 289.005 494.53 293.296C497.99 294.847 502.592 295.996 505.53 298.394L505.227 298.764C504.352 299.361 503.41 300.164 502.436 300.566C503.022 301.458 503.572 302.362 504.268 303.173L493.479 307.193C491.276 306.001 488.374 305.464 485.965 304.658L471.225 299.162L463.631 295.829C463.06 295.555 461.413 294.506 460.869 294.458C460.816 294.453 459.536 295.353 459.438 295.418C456.995 297.045 454.768 298.907 451.75 298.799L452.056 298.35Z"/>
	<path d="M452.056 298.35C455.129 296.14 458.377 293.287 461.723 291.568L495.264 304.492C497.626 302.878 499.758 301.624 502.436 300.566C503.022 301.458 503.572 302.362 504.268 303.173L493.479 307.193C491.276 306.001 488.374 305.464 485.965 304.658L471.225 299.162L463.631 295.829C463.06 295.555 461.413 294.506 460.869 294.458C460.816 294.453 459.536 295.353 459.438 295.418C456.995 297.045 454.768 298.907 451.75 298.799L452.056 298.35Z"/>
	<path fill="#FAC337" d="M831.084 322.893L832.75 320.624C834.011 321.732 833.815 324.583 833.995 326.282C834.043 336.469 834.199 346.705 833.227 356.857C832.298 366.566 830.02 376.252 827.455 385.642C823.242 401.061 817.677 416.267 809.581 430.107C804.48 438.829 798.445 446.612 792.851 454.953L765.611 483.225C765.958 480.621 769.859 477.362 771.583 475.395C773.634 473.056 775.537 470.566 777.35 468.038C781.126 462.771 784.357 456.955 787.447 451.264C802.087 424.305 811.642 395.487 816.246 365.182C812.584 368.5 808.92 371.763 804.75 374.446C792.344 382.428 779.494 385.39 764.928 385.716C759.875 385.83 754.603 385.857 749.653 384.74C736.217 381.709 725.789 377.655 715.474 368.144C719.51 367.783 723.483 368.141 727.497 368.597C742.555 374.272 760.628 374.616 775.794 368.844L784.266 365.54C802.659 357.369 823.62 342.373 831.084 322.893Z"/>
	<path fill="#FEFEFE" d="M513.119 299.286C520.046 297.265 526.34 294.156 532.882 291.169L556.877 280.153L558.046 271.514L569.08 266.186C569.96 268.217 570.765 270.306 571.168 272.491C571.474 274.152 571.281 278.898 571.97 280.064C572.195 280.446 574.133 281.474 574.573 281.766C576.508 283.049 578.17 284.168 579.626 286L579.208 287.496C578.497 292.313 574.363 297.277 571.413 301.041L562.038 295.546L531.38 307.925C536.578 310.332 541.98 312.056 547.351 314.02C548.592 314.474 551.032 315.835 552.251 315.916C552.876 315.957 554.589 315.174 555.321 314.944C557.885 314.14 564.029 311.618 566.446 312.66C567.826 313.255 568.939 315.717 569.445 317C570.055 318.546 570.582 320.256 570.702 321.918L570.424 322.34L570.643 323.032C568.996 325.501 566.773 327.312 564.81 329.505C562.959 331.572 561.453 334.047 559.961 336.373C557.922 337.555 556.003 339.43 554.188 340.944C550.481 338.278 547.89 335.381 545.04 331.849C541.137 332.561 534.895 329.527 530.82 328.723C526.727 327.915 522.418 327.287 518.25 327.094C509.949 326.71 501.492 327.157 493.32 328.678C488.716 329.535 484.077 331.278 479.358 331.321L478.936 331.32L478.14 331.921C476.47 333.225 475.27 334.961 473.75 336.419C471.852 338.239 469.547 339.77 467.333 341.17C465.652 339.269 463.864 336.721 461.779 335.293L461.652 335.072C458.928 329.994 453.813 327.146 451.298 322.385C450.968 321.761 451.317 321.363 451.526 320.724L455.469 311.992C456.62 311.699 458.005 312.151 459.165 312.363C463.699 313.19 467.259 314.458 471.399 316.44L493.479 307.193L504.268 303.173C503.572 302.362 503.022 301.458 502.436 300.566C503.41 300.164 504.352 299.361 505.227 298.764L505.53 298.394C507.442 297.518 509.406 296.663 511.5 297.423C512.479 297.779 512.647 298.431 513.119 299.286Z"/>
	<path fill="#03171D" d="M505.227 298.764C506.803 299.12 507.097 299.602 508.347 300.451L509.142 300.852L504.268 303.173C503.572 302.362 503.022 301.458 502.436 300.566C503.41 300.164 504.352 299.361 505.227 298.764Z"/>
	<path fill="#3D282E" d="M505.53 298.394C507.442 297.518 509.406 296.663 511.5 297.423C512.479 297.779 512.647 298.431 513.119 299.286L509.142 300.852L508.347 300.451C507.097 299.602 506.803 299.12 505.227 298.764L505.53 298.394Z"/>
	<path d="M579.208 287.496C578.497 292.313 574.363 297.277 571.413 301.041L562.038 295.546L531.38 307.925C536.578 310.332 541.98 312.056 547.351 314.02C548.592 314.474 551.032 315.835 552.251 315.916C552.876 315.957 554.589 315.174 555.321 314.944C557.885 314.14 564.029 311.618 566.446 312.66C567.826 313.255 568.939 315.717 569.445 317C570.055 318.546 570.582 320.256 570.702 321.918L570.424 322.34L570.643 323.032C568.996 325.501 566.773 327.312 564.81 329.505C562.959 331.572 561.453 334.047 559.961 336.373C557.922 337.555 556.003 339.43 554.188 340.944C550.481 338.278 547.89 335.381 545.04 331.849C541.137 332.561 534.895 329.527 530.82 328.723C526.727 327.915 522.418 327.287 518.25 327.094C509.949 326.71 501.492 327.157 493.32 328.678C488.716 329.535 484.077 331.278 479.358 331.321L478.936 331.32L478.14 331.921C476.47 333.225 475.27 334.961 473.75 336.419C471.852 338.239 469.547 339.77 467.333 341.17C465.652 339.269 463.864 336.721 461.779 335.293L461.652 335.072C458.928 329.994 453.813 327.146 451.298 322.385C450.968 321.761 451.317 321.363 451.526 320.724C453.707 322.023 455.669 323.726 457.781 325.146C458.462 325.604 460.203 326.474 460.665 327.052C461.08 327.572 461.506 329.39 461.783 330.095C463.006 333.194 465.113 336.433 467.801 338.469C469.844 337.016 475.933 333.289 476.464 330.75C476.722 329.518 476.029 328.169 476.544 326.882C476.771 326.316 476.883 326.466 477.571 326.17L560.77 291.623L570.709 299.158L578.811 287.969L579.208 287.496Z"/>
	<path fill="#594538" d="M478.936 331.32C483.19 328.084 488.187 326.845 492.984 324.631C499.485 321.632 506.174 317.676 512.979 315.559L527.671 322.883C533.408 325.526 540.489 327.295 545.04 331.849C541.137 332.561 534.895 329.527 530.82 328.723C526.727 327.915 522.418 327.287 518.25 327.094C509.949 326.71 501.492 327.157 493.32 328.678C488.716 329.535 484.077 331.278 479.358 331.321L478.936 331.32Z"/>
	<path fill="#FEFEFE" d="M531.38 307.925C536.578 310.332 541.98 312.056 547.351 314.02C548.592 314.474 551.032 315.835 552.251 315.916C552.876 315.957 554.589 315.174 555.321 314.944C557.885 314.14 564.029 311.618 566.446 312.66C567.826 313.255 568.939 315.717 569.445 317C570.055 318.546 570.582 320.256 570.702 321.918L570.424 322.34L570.012 322.493C567.48 323.498 563.013 325.761 561.995 328.25C560.072 332.952 557.955 335.395 554.318 338.825L549.25 334.922C546.497 332.379 546.485 330.189 546.335 326.712L518.218 313.48L524.755 310.203C526.921 309.211 529.08 308.53 531.38 307.925Z"/>
	<path fill="#FEFEFE" d="M471.099 258.493C468.409 255.251 466.561 252.106 465.466 248L465.241 247.176C464.271 243.399 464.394 239.352 464.448 235.478C464.572 226.532 465.278 218.501 470.015 210.69C475.847 201.074 487.316 194.627 498 192.067C512.172 188.672 528.693 191.063 541.09 198.862C549.813 204.349 556.086 212.672 558.219 222.821C560.167 232.088 560.304 246.571 554.943 254.748C553.515 256.926 551.606 259.097 549.305 260.36C548.031 261.058 541.335 262.425 541.03 262.839C540.927 262.98 541.028 264.579 541.027 264.904L541.003 279.853C537.545 280.238 533.478 280.41 530.244 281.727C527.736 282.748 525.582 285.042 523.408 286.667C520.388 288.924 513.076 292.987 509.338 292.983C505.999 292.979 500.011 288.462 497.49 286.413C495.739 284.989 494.344 283.36 492.973 281.577L481.456 279.837C481.692 275.243 482.093 270.618 481.528 266.037L479.053 265.25C476.872 264.643 474.449 263.927 472.75 262.339C471.38 261.059 471.243 260.302 471.099 258.493Z"/>
	<path fill="#3D282E" d="M471.099 258.493C473.667 260.043 475.849 261.138 478.75 262.003C479.913 262.35 481.442 262.54 482.192 263.5L481.528 266.037L479.053 265.25C476.872 264.643 474.449 263.927 472.75 262.339C471.38 261.059 471.243 260.302 471.099 258.493Z"/>
	<path d="M511.136 258.773C515.282 259.75 517.866 265.166 520.002 268.55C517.461 269.491 514.966 270.366 512.652 271.8L512.22 272.077C509.614 270.132 505.506 269.421 502.374 268.651C504.764 264.743 507.806 261.87 511.136 258.773Z"/>
	<path fill="#1D3E48" d="M539.661 236.709C540.339 236.609 541.058 236.471 541.75 236.543C543.286 236.704 544.385 237.34 545.34 238.535C545.799 242.863 546.553 248.12 545.731 252.404L545.6 253C545.116 255.263 543.884 256.749 542.023 258.118C537.417 261.504 531.639 260.753 526.338 260.043L525.76 259.807C523.018 258.658 520.515 257.248 519.49 254.29C518.282 250.806 518.315 242.657 519.899 239.376C522.161 238.428 524.703 238.345 527.121 238.059L539.661 236.709Z"/>
	<path fill="#1D3E48" d="M478.049 236.497C486.469 236.341 495.206 237.918 503.557 239.027C503.711 243.347 504.39 248.429 503.674 252.672L503.564 253.25C503.194 255.335 502.002 256.53 500.647 258.11C497.027 260.096 493.665 261.008 489.544 260.708C484.336 260.33 480.456 257.974 477.103 254.112C476.875 248.141 476.233 242.28 478.049 236.497Z"/>
	<defs>
		<linearGradient id="gradient_13" gradientUnits="userSpaceOnUse" x1="295.55783" y1="241.30257" x2="219.03954" y2="464.1044">
			<stop offset="0" stop-color="#F86C3E"/>
			<stop offset="1" stop-color="#FFD443"/>
		</linearGradient>
	</defs>
	<path fill="url(#gradient_13)" d="M351.233 253.495L349.711 258.665L349.962 259.165C350.387 260.105 350.201 259.698 350.454 260.77C350.677 261.714 350.893 262.055 351.505 262.775L353.115 262.944L354.174 264.304L355.496 264.258L356.385 265.247L357.403 264.714L358.227 265.753L359.003 265.25L360.226 266.253L361 265.753L361.885 266.747L362.827 266.213L363.423 266.596L364.057 266.359L364.871 268.019C349.244 309.511 330.218 359.222 286.828 378.743C266.563 387.86 245.313 387.825 224.664 379.75C218.702 377.419 213.222 374.132 207.719 370.902C209.926 385.6 213.196 399.462 218.64 413.305C219.84 416.356 221.1 420.415 223.117 423.02C231.968 441.936 243.994 458.958 258.041 474.36L269.482 485.903C272.356 488.556 275.531 490.943 278.572 493.404C279.706 494.321 281.273 495.323 281.775 496.716C276.539 493.972 271.335 489.306 266.811 485.47C252.903 473.678 240.644 461.276 229.162 447.093C221.102 435.242 213.006 423.494 206.425 410.713C193.048 384.733 186.691 354.886 188.536 325.723C189.073 324.695 189.132 324.71 190.196 324.224C204.88 345.774 226.514 366.457 253.026 371.426C254.364 371.676 255.702 371.953 257.06 372.047L258.789 367.338C263.452 355.066 270.068 343.6 277.006 332.5C292.025 308.472 309.493 288.152 330.572 269.226C336.711 263.713 343.672 256.886 351.233 253.495Z"/>
	<path fill="#03171D" d="M351.233 253.495L349.711 258.665C339.391 288.834 331.693 320.301 312.376 346.422C305.927 355.143 299.995 361.828 290.07 366.627C280.199 371.4 267.922 373.689 257.06 372.047L258.789 367.338C263.452 355.066 270.068 343.6 277.006 332.5C292.025 308.472 309.493 288.152 330.572 269.226C336.711 263.713 343.672 256.886 351.233 253.495Z"/>
	<path fill="#500F10" d="M478.936 331.32L479.358 331.321C484.077 331.278 488.716 329.535 493.32 328.678C501.492 327.157 509.949 326.71 518.25 327.094C522.418 327.287 526.727 327.915 530.82 328.723C534.895 329.527 541.137 332.561 545.04 331.849C547.89 335.381 550.481 338.278 554.188 340.944C556.003 339.43 557.922 337.555 559.961 336.373L587.257 349.416L629.026 370.618L685 398.541C715.55 412.427 748.172 423.095 782.169 416.978C781.616 422.191 781.055 427.371 779.836 432.482C775.879 449.086 767.432 464.509 758.291 478.766C753.993 485.469 749.163 491.548 745.738 498.798C731.365 505.964 717.214 513.487 702.281 519.443C688.127 525.088 672.595 529.012 657.624 531.752C652.223 532.74 645.666 534.534 640.254 533.574L649.652 530.875C671.302 524.657 690.861 512.762 708.542 499.033C718.914 490.979 728.865 482.248 737.245 472.101C743.814 464.145 749.174 455.088 754.144 446.072C752.732 445.52 750.166 445.909 748.623 445.924C744.302 445.967 739.875 446.197 735.576 445.795C727.312 445.023 719.295 442.822 711.5 440.04C692.95 433.419 675.761 424.612 658.283 415.64C650.388 411.588 642.503 406.183 633.995 403.566C627.975 399.15 619.132 396.247 612.215 393.488C591.322 385.155 571.113 377.353 548.881 373.224C503.699 364.833 458.255 372.278 415.863 389.117C408.454 392.06 399.563 394.566 392.999 399.087L352.948 418.597L318.348 435.409C302.859 442.165 285.668 448.163 268.625 445.501L257.932 442.836C275.393 471.884 299.765 495.775 329.976 511.278C336.914 514.838 344.025 518.404 351.626 520.334L372.146 524.257L372.781 524.717L372.866 525.75L369.415 526.393C363.806 527.152 358.201 526.805 352.581 526.339C326.72 524.195 302.238 512.194 281.775 496.716C281.273 495.323 279.706 494.321 278.572 493.404C275.531 490.943 272.356 488.556 269.482 485.903L258.041 474.36C243.994 458.958 231.968 441.936 223.117 423.02C227.538 423.224 233.547 427.152 237.658 429.03C237.201 426.666 234.069 423.086 232.699 421.002C228.737 414.972 224.298 408.754 222.167 401.8C225.271 404.213 228.408 406.739 231.845 408.664C239.911 413.183 249.282 415.553 258.358 416.975C271.877 419.092 288.245 416.087 301.25 412.021C320.298 406.066 337.965 396.916 355.688 387.887L406 362.54L445.808 343.061C450.887 340.588 457.267 338.585 461.779 335.293C463.864 336.721 465.652 339.269 467.333 341.17C469.547 339.77 471.852 338.239 473.75 336.419C475.27 334.961 476.47 333.225 478.14 331.921L478.936 331.32Z"/>
	<path fill="#1D3E48" d="M190.196 324.224C192.056 324.152 193.104 323.784 194.739 322.892C206.743 316.337 218.272 308.032 229.832 300.68L295.094 259.8L295.245 219.523L511.117 87.6138L730.971 219.336L730.731 261.388L831.084 322.893C823.62 342.373 802.659 357.369 784.266 365.54L775.794 368.844C760.628 374.616 742.555 374.272 727.497 368.597C723.483 368.141 719.51 367.783 715.474 368.144C701.528 354.869 692.549 337.84 684.077 320.771C669.849 292.103 659.012 262.958 649.495 232.446C648.55 229.417 644.853 214.825 642.885 213.902C634.7 210.063 625.436 207.323 616.955 204.073L527.108 169.868L514.5 164.988C513.63 164.653 511.919 163.683 511.106 163.671C509.683 163.651 506.689 165.015 505.299 165.509L488.3 171.689L437.617 189.759L381.751 212.994L364.871 268.019L364.057 266.359L363.423 266.596L362.827 266.213L361.885 266.747L361 265.753L360.226 266.253L359.003 265.25L358.227 265.753L357.403 264.714L356.385 265.247L355.496 264.258L354.174 264.304L353.115 262.944L351.505 262.775C350.893 262.055 350.677 261.714 350.454 260.77C350.201 259.698 350.387 260.105 349.962 259.165L349.711 258.665L351.233 253.495C343.672 256.886 336.711 263.713 330.572 269.226C309.493 288.152 292.025 308.472 277.006 332.5C270.068 343.6 263.452 355.066 258.789 367.338L257.06 372.047C255.702 371.953 254.364 371.676 253.026 371.426C226.514 366.457 204.88 345.774 190.196 324.224Z"/>
	<path fill="#FEABA8" d="M364.579 199.765C377.234 191.921 390.23 185.346 403.532 178.718L435.5 162.987C459.969 152.123 485.453 144.147 510.815 135.73L568.333 155.246C600.829 168.105 631.574 183.77 661.076 202.464C658.302 203.108 655.59 203.772 652.906 204.737C652.491 204.886 650.228 205.9 649.92 205.836C647.936 205.423 644.356 202.743 642.483 201.728L621.347 190.75C588.918 175.107 555.146 162.282 520.889 151.262L512.962 148.678C512.373 148.499 511.11 147.949 510.536 147.989C509.624 148.053 507.909 148.916 506.981 149.25L498.379 152.354C467.186 163.433 436.539 175.563 406.557 189.634L392 196.586L384.77 200.611C384.167 200.952 382.823 201.926 382.214 202.062C381.039 202.323 378.179 201.514 376.924 201.35C372.793 200.812 368.68 200.556 364.579 199.765Z"/>
	<path fill="#03171D" d="M675.138 259.028C678.871 259.62 681.962 261.92 685.131 263.856C695.83 270.391 705.084 278.78 714.25 287.269C729.184 301.101 742.988 316.155 754.973 332.629C762.73 343.291 771.887 356.156 775.794 368.844C760.628 374.616 742.555 374.272 727.497 368.597C723.92 366.151 720.161 363.611 717.252 360.364C710.017 352.287 705.082 342.414 700.525 332.668C689.573 309.246 681.695 284.013 675.138 259.028Z"/>
	<defs>
		<linearGradient id="gradient_14" gradientUnits="userSpaceOnUse" x1="580.49908" y1="171.99893" x2="530.151" y2="323.04834">
			<stop offset="0" stop-color="#F1253A"/>
			<stop offset="1" stop-color="#F96C41"/>
		</linearGradient>
	</defs>
	<path fill="url(#gradient_14)" d="M364.579 199.765C368.68 200.556 372.793 200.812 376.924 201.35C378.179 201.514 381.039 202.323 382.214 202.062C382.823 201.926 384.167 200.952 384.77 200.611L392 196.586L406.557 189.634C436.539 175.563 467.186 163.433 498.379 152.354L506.981 149.25C507.909 148.916 509.624 148.053 510.536 147.989C511.11 147.949 512.373 148.499 512.962 148.678L520.889 151.262C555.146 162.282 588.918 175.107 621.347 190.75L642.483 201.728C644.356 202.743 647.936 205.423 649.92 205.836C650.228 205.9 652.491 204.886 652.906 204.737C655.59 203.772 658.302 203.108 661.076 202.464C661.522 202.893 662.107 203.213 662.414 203.75C663.387 205.456 663.567 209.587 663.954 211.628L667.866 230.578L675.138 259.028C681.695 284.013 689.573 309.246 700.525 332.668C705.082 342.414 710.017 352.287 717.252 360.364C720.161 363.611 723.92 366.151 727.497 368.597C723.483 368.141 719.51 367.783 715.474 368.144C701.528 354.869 692.549 337.84 684.077 320.771C669.849 292.103 659.012 262.958 649.495 232.446C648.55 229.417 644.853 214.825 642.885 213.902C634.7 210.063 625.436 207.323 616.955 204.073L527.108 169.868L514.5 164.988C513.63 164.653 511.919 163.683 511.106 163.671C509.683 163.651 506.689 165.015 505.299 165.509L488.3 171.689L437.617 189.759L381.751 212.994L364.871 268.019L364.057 266.359L363.423 266.596L362.827 266.213L361.885 266.747L361 265.753L360.226 266.253L359.003 265.25L358.227 265.753L357.403 264.714L356.385 265.247L355.496 264.258L354.174 264.304L353.115 262.944L351.505 262.775C350.893 262.055 350.677 261.714 350.454 260.77C350.201 259.698 350.387 260.105 349.962 259.165L349.711 258.665L351.233 253.495L361.21 205.458C361.902 202.124 361.759 201.619 364.579 199.765Z"/>
</svg>
